G04 #@! TF.GenerationSoftware,KiCad,Pcbnew,(5.1.5)-3*
G04 #@! TF.CreationDate,2020-04-25T00:27:07+01:00*
G04 #@! TF.ProjectId,SCSIConnector,53435349-436f-46e6-9e65-63746f722e6b,rev?*
G04 #@! TF.SameCoordinates,Original*
G04 #@! TF.FileFunction,Copper,L2,Bot*
G04 #@! TF.FilePolarity,Positive*
%FSLAX46Y46*%
G04 Gerber Fmt 4.6, Leading zero omitted, Abs format (unit mm)*
G04 Created by KiCad (PCBNEW (5.1.5)-3) date 2020-04-25 00:27:07*
%MOMM*%
%LPD*%
G04 APERTURE LIST*
%ADD10C,1.200000*%
%ADD11R,1.200000X1.200000*%
%ADD12C,2.800000*%
%ADD13O,1.700000X1.700000*%
%ADD14R,1.700000X1.700000*%
%ADD15C,2.900000*%
%ADD16O,1.400000X1.400000*%
%ADD17C,1.400000*%
%ADD18C,0.800000*%
%ADD19C,0.250000*%
%ADD20C,1.000000*%
%ADD21C,0.254000*%
G04 APERTURE END LIST*
D10*
X172211000Y-56505000D03*
X174111000Y-55235000D03*
X176011000Y-56505000D03*
X177911000Y-55235000D03*
X172211000Y-59045000D03*
X174111000Y-57775000D03*
X176011000Y-59045000D03*
X177911000Y-57775000D03*
X172211000Y-61585000D03*
X174111000Y-60315000D03*
X176011000Y-61585000D03*
X177911000Y-60315000D03*
X172211000Y-64125000D03*
X174111000Y-62855000D03*
X176011000Y-64125000D03*
X177911000Y-62855000D03*
X172211000Y-66665000D03*
X174111000Y-65395000D03*
X176011000Y-66665000D03*
X177911000Y-65395000D03*
X172211000Y-69205000D03*
X174111000Y-67935000D03*
X176011000Y-69205000D03*
X177911000Y-67935000D03*
X172211000Y-71745000D03*
X174111000Y-70475000D03*
X176011000Y-71745000D03*
X177911000Y-70475000D03*
X172211000Y-74285000D03*
X174111000Y-73015000D03*
X176011000Y-74285000D03*
X177911000Y-73015000D03*
X172211000Y-76825000D03*
X174111000Y-75555000D03*
X176011000Y-76825000D03*
X177911000Y-75555000D03*
X172211000Y-79365000D03*
X174111000Y-78095000D03*
X176011000Y-79365000D03*
X177911000Y-78095000D03*
X172211000Y-81905000D03*
X174111000Y-80635000D03*
X176011000Y-81905000D03*
X177911000Y-80635000D03*
X172211000Y-84445000D03*
X174111000Y-83175000D03*
X176011000Y-84445000D03*
X177911000Y-83175000D03*
X172211000Y-86985000D03*
X174111000Y-85715000D03*
X176011000Y-86985000D03*
X177911000Y-85715000D03*
X172211000Y-89525000D03*
X174111000Y-88255000D03*
X176011000Y-89525000D03*
X177911000Y-88255000D03*
X172211000Y-92065000D03*
X174111000Y-90795000D03*
X176011000Y-92065000D03*
X177911000Y-90795000D03*
X172211000Y-94605000D03*
X174111000Y-93335000D03*
X176011000Y-94605000D03*
X177911000Y-93335000D03*
X172211000Y-97145000D03*
X174111000Y-95875000D03*
X176011000Y-97145000D03*
X177911000Y-95875000D03*
X172211000Y-99685000D03*
X174111000Y-98415000D03*
X176011000Y-99685000D03*
X177911000Y-98415000D03*
X172211000Y-102225000D03*
X174111000Y-100955000D03*
X176011000Y-102225000D03*
X177911000Y-100955000D03*
D11*
X172211000Y-104765000D03*
D10*
X174111000Y-103495000D03*
X176011000Y-104765000D03*
X177911000Y-103495000D03*
D12*
X175000000Y-109755000D03*
X175000000Y-50245000D03*
D13*
X204470000Y-123190000D03*
X207010000Y-123190000D03*
X204470000Y-120650000D03*
X207010000Y-120650000D03*
X204470000Y-118110000D03*
X207010000Y-118110000D03*
X204470000Y-115570000D03*
X207010000Y-115570000D03*
X204470000Y-113030000D03*
X207010000Y-113030000D03*
X204470000Y-110490000D03*
X207010000Y-110490000D03*
X204470000Y-107950000D03*
X207010000Y-107950000D03*
X204470000Y-105410000D03*
X207010000Y-105410000D03*
X204470000Y-102870000D03*
X207010000Y-102870000D03*
X204470000Y-100330000D03*
X207010000Y-100330000D03*
X204470000Y-97790000D03*
X207010000Y-97790000D03*
X204470000Y-95250000D03*
X207010000Y-95250000D03*
X204470000Y-92710000D03*
X207010000Y-92710000D03*
X204470000Y-90170000D03*
X207010000Y-90170000D03*
X204470000Y-87630000D03*
X207010000Y-87630000D03*
X204470000Y-85090000D03*
X207010000Y-85090000D03*
X204470000Y-82550000D03*
X207010000Y-82550000D03*
X204470000Y-80010000D03*
X207010000Y-80010000D03*
X204470000Y-77470000D03*
X207010000Y-77470000D03*
X204470000Y-74930000D03*
X207010000Y-74930000D03*
X204470000Y-72390000D03*
X207010000Y-72390000D03*
X204470000Y-69850000D03*
X207010000Y-69850000D03*
X204470000Y-67310000D03*
X207010000Y-67310000D03*
X204470000Y-64770000D03*
X207010000Y-64770000D03*
X204470000Y-62230000D03*
D14*
X207010000Y-62230000D03*
D15*
X190500000Y-119380000D03*
X185420000Y-119380000D03*
X180340000Y-119380000D03*
X175260000Y-119380000D03*
D16*
X182245000Y-106045000D03*
D17*
X182245000Y-100965000D03*
D16*
X185420000Y-106045000D03*
D17*
X185420000Y-100965000D03*
D16*
X188595000Y-106045000D03*
D17*
X188595000Y-100965000D03*
D16*
X191770000Y-106045000D03*
D17*
X191770000Y-100965000D03*
D13*
X173990000Y-38735000D03*
X173990000Y-41275000D03*
X176530000Y-38735000D03*
X176530000Y-41275000D03*
X179070000Y-38735000D03*
X179070000Y-41275000D03*
X181610000Y-38735000D03*
X181610000Y-41275000D03*
X184150000Y-38735000D03*
X184150000Y-41275000D03*
X186690000Y-38735000D03*
X186690000Y-41275000D03*
X189230000Y-38735000D03*
X189230000Y-41275000D03*
X191770000Y-38735000D03*
D14*
X191770000Y-41275000D03*
D18*
X190500000Y-47625000D03*
X187960000Y-47625000D03*
X185420000Y-47625000D03*
X182880000Y-47625000D03*
X180340000Y-47625000D03*
X176530000Y-47625000D03*
X182245000Y-103505000D03*
X185420000Y-103505000D03*
X188595000Y-103505000D03*
X191770000Y-103505000D03*
X182245000Y-111760000D03*
X185420000Y-111760000D03*
X200660000Y-121920000D03*
X200660000Y-119380000D03*
X200660000Y-116840000D03*
X200660000Y-109220000D03*
X200660000Y-106680000D03*
X200660000Y-102870000D03*
X191770000Y-111760000D03*
X200660000Y-111760000D03*
X200660000Y-114300000D03*
X200660000Y-81280000D03*
X200660000Y-78740000D03*
X200660000Y-76200000D03*
X200660000Y-73660000D03*
X200660000Y-71120000D03*
X200660000Y-68580000D03*
X200660000Y-66040000D03*
X200660000Y-63500000D03*
X182245000Y-73025000D03*
X182245000Y-75565000D03*
X182245000Y-78105000D03*
X182245000Y-80645000D03*
X182245000Y-83185000D03*
X182245000Y-85725000D03*
X182245000Y-88265000D03*
X182245000Y-90805000D03*
X187960000Y-121920000D03*
X182880000Y-121920000D03*
X177800000Y-121920000D03*
D19*
X205834999Y-94074999D02*
X206160001Y-94400001D01*
X206160001Y-94400001D02*
X207010000Y-95250000D01*
X205834999Y-91345001D02*
X205834999Y-94074999D01*
X207010000Y-90170000D02*
X205834999Y-91345001D01*
X205740000Y-114300000D02*
X200660000Y-114300000D01*
X207010000Y-113030000D02*
X205740000Y-114300000D01*
D20*
X177911000Y-65395000D02*
X177911000Y-98415000D01*
X176011000Y-97145000D02*
X176011000Y-64125000D01*
X177281000Y-98415000D02*
X176011000Y-97145000D01*
X177911000Y-98415000D02*
X177281000Y-98415000D01*
X177281000Y-95875000D02*
X176011000Y-94605000D01*
X177911000Y-95875000D02*
X177281000Y-95875000D01*
X177281000Y-93335000D02*
X176011000Y-92065000D01*
X177911000Y-93335000D02*
X177281000Y-93335000D01*
X177281000Y-90795000D02*
X176011000Y-89525000D01*
X177911000Y-90795000D02*
X177281000Y-90795000D01*
X177281000Y-88255000D02*
X176011000Y-86985000D01*
X177911000Y-88255000D02*
X177281000Y-88255000D01*
X177281000Y-85715000D02*
X176011000Y-84445000D01*
X177911000Y-85715000D02*
X177281000Y-85715000D01*
X177281000Y-83175000D02*
X176011000Y-81905000D01*
X177911000Y-83175000D02*
X177281000Y-83175000D01*
X177281000Y-80635000D02*
X176011000Y-79365000D01*
X177911000Y-80635000D02*
X177281000Y-80635000D01*
X177281000Y-78095000D02*
X176011000Y-76825000D01*
X177911000Y-78095000D02*
X177281000Y-78095000D01*
X177281000Y-75555000D02*
X176011000Y-74285000D01*
X177911000Y-75555000D02*
X177281000Y-75555000D01*
X177281000Y-73015000D02*
X176011000Y-71745000D01*
X177911000Y-73015000D02*
X177281000Y-73015000D01*
X177281000Y-70475000D02*
X176011000Y-69205000D01*
X177911000Y-70475000D02*
X177281000Y-70475000D01*
X177281000Y-67935000D02*
X176011000Y-66665000D01*
X177911000Y-67935000D02*
X177281000Y-67935000D01*
X177281000Y-65395000D02*
X176011000Y-64125000D01*
X177911000Y-65395000D02*
X177281000Y-65395000D01*
X186690000Y-38735000D02*
X173990000Y-38735000D01*
X207010000Y-62230000D02*
X207010000Y-90170000D01*
X207010000Y-85090000D02*
X204470000Y-85090000D01*
X204470000Y-85090000D02*
X204470000Y-90170000D01*
X207010000Y-95250000D02*
X207010000Y-123190000D01*
X207010000Y-102870000D02*
X204470000Y-102870000D01*
X204470000Y-97790000D02*
X204470000Y-95250000D01*
X204470000Y-97790000D02*
X207010000Y-97790000D01*
X202919999Y-90517920D02*
X202919999Y-94969999D01*
X204470000Y-90170000D02*
X203267919Y-90170000D01*
X203267919Y-90170000D02*
X202919999Y-90517920D01*
X203200000Y-95250000D02*
X204470000Y-95250000D01*
X202919999Y-94969999D02*
X203200000Y-95250000D01*
X204470000Y-87630000D02*
X207010000Y-87630000D01*
X204470000Y-90170000D02*
X207010000Y-90170000D01*
X204470000Y-95250000D02*
X207010000Y-95250000D01*
X176641000Y-97145000D02*
X177911000Y-95875000D01*
X176011000Y-97145000D02*
X176641000Y-97145000D01*
X176641000Y-94605000D02*
X177911000Y-93335000D01*
X176011000Y-94605000D02*
X176641000Y-94605000D01*
X176641000Y-92065000D02*
X177911000Y-90795000D01*
X176011000Y-92065000D02*
X176641000Y-92065000D01*
X176641000Y-89525000D02*
X177911000Y-88255000D01*
X176011000Y-89525000D02*
X176641000Y-89525000D01*
X176641000Y-86985000D02*
X177911000Y-85715000D01*
X176011000Y-86985000D02*
X176641000Y-86985000D01*
X176641000Y-84445000D02*
X177911000Y-83175000D01*
X176011000Y-84445000D02*
X176641000Y-84445000D01*
X176641000Y-81905000D02*
X177911000Y-80635000D01*
X176011000Y-81905000D02*
X176641000Y-81905000D01*
X176641000Y-79365000D02*
X177911000Y-78095000D01*
X176011000Y-79365000D02*
X176641000Y-79365000D01*
X176641000Y-76825000D02*
X177911000Y-75555000D01*
X176011000Y-76825000D02*
X176641000Y-76825000D01*
X176641000Y-74285000D02*
X177911000Y-73015000D01*
X176011000Y-74285000D02*
X176641000Y-74285000D01*
X176641000Y-71745000D02*
X177911000Y-70475000D01*
X176011000Y-71745000D02*
X176641000Y-71745000D01*
X176641000Y-69205000D02*
X177911000Y-67935000D01*
X176011000Y-69205000D02*
X176641000Y-69205000D01*
X176641000Y-66665000D02*
X177911000Y-65395000D01*
X176011000Y-66665000D02*
X176641000Y-66665000D01*
D19*
X191770000Y-115570000D02*
X204470000Y-115570000D01*
X182245000Y-106045000D02*
X191770000Y-115570000D01*
X189865000Y-110490000D02*
X204470000Y-110490000D01*
X185420000Y-106045000D02*
X189865000Y-110490000D01*
X188595000Y-106045000D02*
X190500000Y-107950000D01*
X190500000Y-107950000D02*
X204470000Y-107950000D01*
D20*
X173481000Y-62855000D02*
X172211000Y-61585000D01*
X174111000Y-62855000D02*
X173481000Y-62855000D01*
X173481000Y-60315000D02*
X172211000Y-61585000D01*
X174111000Y-60315000D02*
X173481000Y-60315000D01*
X174111000Y-62855000D02*
X174111000Y-60315000D01*
X177281000Y-62855000D02*
X176011000Y-61585000D01*
X177911000Y-62855000D02*
X177281000Y-62855000D01*
X177911000Y-62855000D02*
X177911000Y-60315000D01*
X177281000Y-60315000D02*
X176011000Y-61585000D01*
X177911000Y-60315000D02*
X177281000Y-60315000D01*
X178510999Y-63454999D02*
X177911000Y-62855000D01*
X180400011Y-65344011D02*
X178510999Y-63454999D01*
X180400011Y-114360011D02*
X180400011Y-65344011D01*
X185420000Y-119380000D02*
X180400011Y-114360011D01*
X172211000Y-116331000D02*
X172211000Y-104765000D01*
X175260000Y-119380000D02*
X172211000Y-116331000D01*
X172211000Y-104765000D02*
X172211000Y-102225000D01*
X172841000Y-102225000D02*
X174111000Y-100955000D01*
X172211000Y-102225000D02*
X172841000Y-102225000D01*
X172841000Y-104765000D02*
X174111000Y-103495000D01*
X172211000Y-104765000D02*
X172841000Y-104765000D01*
X174111000Y-103495000D02*
X174111000Y-100955000D01*
X173481000Y-103495000D02*
X172211000Y-102225000D01*
X174111000Y-103495000D02*
X173481000Y-103495000D01*
X179200001Y-104784001D02*
X178510999Y-104094999D01*
X178510999Y-104094999D02*
X177911000Y-103495000D01*
X179200001Y-118240001D02*
X179200001Y-104784001D01*
X180340000Y-119380000D02*
X179200001Y-118240001D01*
X176011000Y-104765000D02*
X176011000Y-102225000D01*
X176641000Y-102225000D02*
X177911000Y-100955000D01*
X176011000Y-102225000D02*
X176641000Y-102225000D01*
X176641000Y-104765000D02*
X177911000Y-103495000D01*
X176011000Y-104765000D02*
X176641000Y-104765000D01*
X177911000Y-103495000D02*
X177911000Y-100955000D01*
X177281000Y-103495000D02*
X176011000Y-102225000D01*
X177911000Y-103495000D02*
X177281000Y-103495000D01*
D19*
X193675000Y-40640000D02*
X191770000Y-38735000D01*
X192955000Y-106045000D02*
X191770000Y-106045000D01*
X193675000Y-40675000D02*
X193675000Y-105325000D01*
X193675000Y-105325000D02*
X192955000Y-106045000D01*
D21*
G36*
X194340000Y-40271898D02*
G01*
X194309974Y-40215724D01*
X194238799Y-40128997D01*
X193211209Y-39101408D01*
X193255000Y-38881260D01*
X193255000Y-38588740D01*
X193197932Y-38301842D01*
X193085990Y-38031589D01*
X192923475Y-37788368D01*
X192716632Y-37581525D01*
X192473411Y-37419010D01*
X192203158Y-37307068D01*
X191916260Y-37250000D01*
X191623740Y-37250000D01*
X191336842Y-37307068D01*
X191066589Y-37419010D01*
X190823368Y-37581525D01*
X190616525Y-37788368D01*
X190500000Y-37962760D01*
X190383475Y-37788368D01*
X190176632Y-37581525D01*
X189933411Y-37419010D01*
X189663158Y-37307068D01*
X189376260Y-37250000D01*
X189083740Y-37250000D01*
X188796842Y-37307068D01*
X188526589Y-37419010D01*
X188283368Y-37581525D01*
X188076525Y-37788368D01*
X187954805Y-37970534D01*
X187885178Y-37853645D01*
X187690269Y-37637412D01*
X187456920Y-37463359D01*
X187194099Y-37338175D01*
X187046890Y-37293524D01*
X186817000Y-37414845D01*
X186817000Y-38608000D01*
X186837000Y-38608000D01*
X186837000Y-38862000D01*
X186817000Y-38862000D01*
X186817000Y-38882000D01*
X186563000Y-38882000D01*
X186563000Y-38862000D01*
X184277000Y-38862000D01*
X184277000Y-38882000D01*
X184023000Y-38882000D01*
X184023000Y-38862000D01*
X181737000Y-38862000D01*
X181737000Y-38882000D01*
X181483000Y-38882000D01*
X181483000Y-38862000D01*
X179197000Y-38862000D01*
X179197000Y-38882000D01*
X178943000Y-38882000D01*
X178943000Y-38862000D01*
X176657000Y-38862000D01*
X176657000Y-38882000D01*
X176403000Y-38882000D01*
X176403000Y-38862000D01*
X174117000Y-38862000D01*
X174117000Y-38882000D01*
X173863000Y-38882000D01*
X173863000Y-38862000D01*
X172669186Y-38862000D01*
X172548519Y-39091891D01*
X172645843Y-39366252D01*
X172794822Y-39616355D01*
X172989731Y-39832588D01*
X173219406Y-40003900D01*
X173043368Y-40121525D01*
X172836525Y-40328368D01*
X172674010Y-40571589D01*
X172562068Y-40841842D01*
X172505000Y-41128740D01*
X172505000Y-41421260D01*
X172562068Y-41708158D01*
X172674010Y-41978411D01*
X172836525Y-42221632D01*
X173043368Y-42428475D01*
X173286589Y-42590990D01*
X173556842Y-42702932D01*
X173843740Y-42760000D01*
X174136260Y-42760000D01*
X174423158Y-42702932D01*
X174693411Y-42590990D01*
X174936632Y-42428475D01*
X175143475Y-42221632D01*
X175260000Y-42047240D01*
X175376525Y-42221632D01*
X175583368Y-42428475D01*
X175826589Y-42590990D01*
X176096842Y-42702932D01*
X176383740Y-42760000D01*
X176676260Y-42760000D01*
X176963158Y-42702932D01*
X177233411Y-42590990D01*
X177476632Y-42428475D01*
X177683475Y-42221632D01*
X177800000Y-42047240D01*
X177916525Y-42221632D01*
X178123368Y-42428475D01*
X178366589Y-42590990D01*
X178636842Y-42702932D01*
X178923740Y-42760000D01*
X179216260Y-42760000D01*
X179503158Y-42702932D01*
X179773411Y-42590990D01*
X180016632Y-42428475D01*
X180223475Y-42221632D01*
X180340000Y-42047240D01*
X180456525Y-42221632D01*
X180663368Y-42428475D01*
X180906589Y-42590990D01*
X181176842Y-42702932D01*
X181463740Y-42760000D01*
X181756260Y-42760000D01*
X182043158Y-42702932D01*
X182313411Y-42590990D01*
X182556632Y-42428475D01*
X182763475Y-42221632D01*
X182880000Y-42047240D01*
X182996525Y-42221632D01*
X183203368Y-42428475D01*
X183446589Y-42590990D01*
X183716842Y-42702932D01*
X184003740Y-42760000D01*
X184296260Y-42760000D01*
X184583158Y-42702932D01*
X184853411Y-42590990D01*
X185096632Y-42428475D01*
X185303475Y-42221632D01*
X185420000Y-42047240D01*
X185536525Y-42221632D01*
X185743368Y-42428475D01*
X185986589Y-42590990D01*
X186256842Y-42702932D01*
X186543740Y-42760000D01*
X186836260Y-42760000D01*
X187123158Y-42702932D01*
X187393411Y-42590990D01*
X187636632Y-42428475D01*
X187843475Y-42221632D01*
X187960000Y-42047240D01*
X188076525Y-42221632D01*
X188283368Y-42428475D01*
X188526589Y-42590990D01*
X188796842Y-42702932D01*
X189083740Y-42760000D01*
X189376260Y-42760000D01*
X189663158Y-42702932D01*
X189933411Y-42590990D01*
X190176632Y-42428475D01*
X190308487Y-42296620D01*
X190330498Y-42369180D01*
X190389463Y-42479494D01*
X190468815Y-42576185D01*
X190565506Y-42655537D01*
X190675820Y-42714502D01*
X190795518Y-42750812D01*
X190920000Y-42763072D01*
X192620000Y-42763072D01*
X192744482Y-42750812D01*
X192864180Y-42714502D01*
X192915000Y-42687338D01*
X192915001Y-100275680D01*
X192806962Y-100113987D01*
X192621013Y-99928038D01*
X192402359Y-99781939D01*
X192159405Y-99681304D01*
X191901486Y-99630000D01*
X191638514Y-99630000D01*
X191380595Y-99681304D01*
X191137641Y-99781939D01*
X190918987Y-99928038D01*
X190733038Y-100113987D01*
X190586939Y-100332641D01*
X190486304Y-100575595D01*
X190435000Y-100833514D01*
X190435000Y-101096486D01*
X190486304Y-101354405D01*
X190586939Y-101597359D01*
X190733038Y-101816013D01*
X190918987Y-102001962D01*
X191137641Y-102148061D01*
X191380595Y-102248696D01*
X191638514Y-102300000D01*
X191901486Y-102300000D01*
X192159405Y-102248696D01*
X192402359Y-102148061D01*
X192621013Y-102001962D01*
X192806962Y-101816013D01*
X192915001Y-101654320D01*
X192915001Y-105010197D01*
X192769087Y-105156112D01*
X192621013Y-105008038D01*
X192402359Y-104861939D01*
X192159405Y-104761304D01*
X191901486Y-104710000D01*
X191638514Y-104710000D01*
X191380595Y-104761304D01*
X191137641Y-104861939D01*
X190918987Y-105008038D01*
X190733038Y-105193987D01*
X190586939Y-105412641D01*
X190486304Y-105655595D01*
X190435000Y-105913514D01*
X190435000Y-106176486D01*
X190486304Y-106434405D01*
X190586939Y-106677359D01*
X190733038Y-106896013D01*
X190918987Y-107081962D01*
X191080678Y-107190000D01*
X190814802Y-107190000D01*
X189908645Y-106283844D01*
X189930000Y-106176486D01*
X189930000Y-105913514D01*
X189878696Y-105655595D01*
X189778061Y-105412641D01*
X189631962Y-105193987D01*
X189446013Y-105008038D01*
X189227359Y-104861939D01*
X188984405Y-104761304D01*
X188726486Y-104710000D01*
X188463514Y-104710000D01*
X188205595Y-104761304D01*
X187962641Y-104861939D01*
X187743987Y-105008038D01*
X187558038Y-105193987D01*
X187411939Y-105412641D01*
X187311304Y-105655595D01*
X187260000Y-105913514D01*
X187260000Y-106176486D01*
X187311304Y-106434405D01*
X187411939Y-106677359D01*
X187558038Y-106896013D01*
X187743987Y-107081962D01*
X187962641Y-107228061D01*
X188205595Y-107328696D01*
X188463514Y-107380000D01*
X188726486Y-107380000D01*
X188833844Y-107358645D01*
X189936201Y-108461003D01*
X189959999Y-108490001D01*
X190075724Y-108584974D01*
X190207753Y-108655546D01*
X190351014Y-108699003D01*
X190462667Y-108710000D01*
X190462677Y-108710000D01*
X190500000Y-108713676D01*
X190537323Y-108710000D01*
X203191822Y-108710000D01*
X203316525Y-108896632D01*
X203523368Y-109103475D01*
X203697760Y-109220000D01*
X203523368Y-109336525D01*
X203316525Y-109543368D01*
X203191822Y-109730000D01*
X190179802Y-109730000D01*
X186733645Y-106283844D01*
X186755000Y-106176486D01*
X186755000Y-105913514D01*
X186703696Y-105655595D01*
X186603061Y-105412641D01*
X186456962Y-105193987D01*
X186271013Y-105008038D01*
X186052359Y-104861939D01*
X185809405Y-104761304D01*
X185551486Y-104710000D01*
X185288514Y-104710000D01*
X185030595Y-104761304D01*
X184787641Y-104861939D01*
X184568987Y-105008038D01*
X184383038Y-105193987D01*
X184236939Y-105412641D01*
X184136304Y-105655595D01*
X184085000Y-105913514D01*
X184085000Y-106176486D01*
X184136304Y-106434405D01*
X184236939Y-106677359D01*
X184383038Y-106896013D01*
X184568987Y-107081962D01*
X184787641Y-107228061D01*
X185030595Y-107328696D01*
X185288514Y-107380000D01*
X185551486Y-107380000D01*
X185658844Y-107358645D01*
X189301201Y-111001003D01*
X189324999Y-111030001D01*
X189440724Y-111124974D01*
X189572753Y-111195546D01*
X189716014Y-111239003D01*
X189827667Y-111250000D01*
X189827676Y-111250000D01*
X189864999Y-111253676D01*
X189902322Y-111250000D01*
X203191822Y-111250000D01*
X203316525Y-111436632D01*
X203523368Y-111643475D01*
X203697760Y-111760000D01*
X203523368Y-111876525D01*
X203316525Y-112083368D01*
X203154010Y-112326589D01*
X203042068Y-112596842D01*
X202985000Y-112883740D01*
X202985000Y-113176260D01*
X203042068Y-113463158D01*
X203154010Y-113733411D01*
X203316525Y-113976632D01*
X203523368Y-114183475D01*
X203697760Y-114300000D01*
X203523368Y-114416525D01*
X203316525Y-114623368D01*
X203191822Y-114810000D01*
X192084802Y-114810000D01*
X183558645Y-106283844D01*
X183580000Y-106176486D01*
X183580000Y-105913514D01*
X183528696Y-105655595D01*
X183428061Y-105412641D01*
X183281962Y-105193987D01*
X183096013Y-105008038D01*
X182877359Y-104861939D01*
X182634405Y-104761304D01*
X182376486Y-104710000D01*
X182113514Y-104710000D01*
X181855595Y-104761304D01*
X181612641Y-104861939D01*
X181535011Y-104913809D01*
X181535011Y-102096191D01*
X181612641Y-102148061D01*
X181855595Y-102248696D01*
X182113514Y-102300000D01*
X182376486Y-102300000D01*
X182634405Y-102248696D01*
X182877359Y-102148061D01*
X183096013Y-102001962D01*
X183281962Y-101816013D01*
X183428061Y-101597359D01*
X183528696Y-101354405D01*
X183580000Y-101096486D01*
X183580000Y-100833514D01*
X184085000Y-100833514D01*
X184085000Y-101096486D01*
X184136304Y-101354405D01*
X184236939Y-101597359D01*
X184383038Y-101816013D01*
X184568987Y-102001962D01*
X184787641Y-102148061D01*
X185030595Y-102248696D01*
X185288514Y-102300000D01*
X185551486Y-102300000D01*
X185809405Y-102248696D01*
X186052359Y-102148061D01*
X186271013Y-102001962D01*
X186456962Y-101816013D01*
X186603061Y-101597359D01*
X186703696Y-101354405D01*
X186755000Y-101096486D01*
X186755000Y-100833514D01*
X187260000Y-100833514D01*
X187260000Y-101096486D01*
X187311304Y-101354405D01*
X187411939Y-101597359D01*
X187558038Y-101816013D01*
X187743987Y-102001962D01*
X187962641Y-102148061D01*
X188205595Y-102248696D01*
X188463514Y-102300000D01*
X188726486Y-102300000D01*
X188984405Y-102248696D01*
X189227359Y-102148061D01*
X189446013Y-102001962D01*
X189631962Y-101816013D01*
X189778061Y-101597359D01*
X189878696Y-101354405D01*
X189930000Y-101096486D01*
X189930000Y-100833514D01*
X189878696Y-100575595D01*
X189778061Y-100332641D01*
X189631962Y-100113987D01*
X189446013Y-99928038D01*
X189227359Y-99781939D01*
X188984405Y-99681304D01*
X188726486Y-99630000D01*
X188463514Y-99630000D01*
X188205595Y-99681304D01*
X187962641Y-99781939D01*
X187743987Y-99928038D01*
X187558038Y-100113987D01*
X187411939Y-100332641D01*
X187311304Y-100575595D01*
X187260000Y-100833514D01*
X186755000Y-100833514D01*
X186703696Y-100575595D01*
X186603061Y-100332641D01*
X186456962Y-100113987D01*
X186271013Y-99928038D01*
X186052359Y-99781939D01*
X185809405Y-99681304D01*
X185551486Y-99630000D01*
X185288514Y-99630000D01*
X185030595Y-99681304D01*
X184787641Y-99781939D01*
X184568987Y-99928038D01*
X184383038Y-100113987D01*
X184236939Y-100332641D01*
X184136304Y-100575595D01*
X184085000Y-100833514D01*
X183580000Y-100833514D01*
X183528696Y-100575595D01*
X183428061Y-100332641D01*
X183281962Y-100113987D01*
X183096013Y-99928038D01*
X182877359Y-99781939D01*
X182634405Y-99681304D01*
X182376486Y-99630000D01*
X182113514Y-99630000D01*
X181855595Y-99681304D01*
X181612641Y-99781939D01*
X181535011Y-99833809D01*
X181535011Y-65399752D01*
X181540501Y-65344010D01*
X181535011Y-65288268D01*
X181535011Y-65288259D01*
X181518588Y-65121512D01*
X181453687Y-64907564D01*
X181348295Y-64710388D01*
X181206460Y-64537562D01*
X181163152Y-64502020D01*
X179352992Y-62691861D01*
X179352988Y-62691856D01*
X179057983Y-62396852D01*
X179046000Y-62367921D01*
X179046000Y-60802079D01*
X179098540Y-60675236D01*
X179146000Y-60436637D01*
X179146000Y-60193363D01*
X179098540Y-59954764D01*
X179005443Y-59730008D01*
X178870287Y-59527733D01*
X178698267Y-59355713D01*
X178495992Y-59220557D01*
X178271236Y-59127460D01*
X178032637Y-59080000D01*
X177789363Y-59080000D01*
X177550764Y-59127460D01*
X177423921Y-59180000D01*
X177336743Y-59180000D01*
X177280999Y-59174510D01*
X177243703Y-59178183D01*
X177246000Y-59166637D01*
X177246000Y-58923363D01*
X177221367Y-58799524D01*
X177326008Y-58869443D01*
X177550764Y-58962540D01*
X177789363Y-59010000D01*
X178032637Y-59010000D01*
X178271236Y-58962540D01*
X178495992Y-58869443D01*
X178698267Y-58734287D01*
X178870287Y-58562267D01*
X179005443Y-58359992D01*
X179098540Y-58135236D01*
X179146000Y-57896637D01*
X179146000Y-57653363D01*
X179098540Y-57414764D01*
X179005443Y-57190008D01*
X178870287Y-56987733D01*
X178698267Y-56815713D01*
X178495992Y-56680557D01*
X178271236Y-56587460D01*
X178032637Y-56540000D01*
X177789363Y-56540000D01*
X177550764Y-56587460D01*
X177326008Y-56680557D01*
X177221367Y-56750476D01*
X177246000Y-56626637D01*
X177246000Y-56383363D01*
X177221367Y-56259524D01*
X177326008Y-56329443D01*
X177550764Y-56422540D01*
X177789363Y-56470000D01*
X178032637Y-56470000D01*
X178271236Y-56422540D01*
X178495992Y-56329443D01*
X178698267Y-56194287D01*
X178870287Y-56022267D01*
X179005443Y-55819992D01*
X179098540Y-55595236D01*
X179146000Y-55356637D01*
X179146000Y-55113363D01*
X179098540Y-54874764D01*
X179005443Y-54650008D01*
X178870287Y-54447733D01*
X178698267Y-54275713D01*
X178495992Y-54140557D01*
X178271236Y-54047460D01*
X178032637Y-54000000D01*
X177789363Y-54000000D01*
X177550764Y-54047460D01*
X177326008Y-54140557D01*
X177123733Y-54275713D01*
X176951713Y-54447733D01*
X176816557Y-54650008D01*
X176723460Y-54874764D01*
X176676000Y-55113363D01*
X176676000Y-55356637D01*
X176700633Y-55480476D01*
X176595992Y-55410557D01*
X176371236Y-55317460D01*
X176132637Y-55270000D01*
X175889363Y-55270000D01*
X175650764Y-55317460D01*
X175426008Y-55410557D01*
X175321367Y-55480476D01*
X175346000Y-55356637D01*
X175346000Y-55113363D01*
X175298540Y-54874764D01*
X175205443Y-54650008D01*
X175070287Y-54447733D01*
X174898267Y-54275713D01*
X174695992Y-54140557D01*
X174471236Y-54047460D01*
X174232637Y-54000000D01*
X173989363Y-54000000D01*
X173750764Y-54047460D01*
X173526008Y-54140557D01*
X173323733Y-54275713D01*
X173151713Y-54447733D01*
X173016557Y-54650008D01*
X172923460Y-54874764D01*
X172876000Y-55113363D01*
X172876000Y-55356637D01*
X172900633Y-55480476D01*
X172795992Y-55410557D01*
X172571236Y-55317460D01*
X172332637Y-55270000D01*
X172089363Y-55270000D01*
X171850764Y-55317460D01*
X171626008Y-55410557D01*
X171423733Y-55545713D01*
X171251713Y-55717733D01*
X171116557Y-55920008D01*
X171023460Y-56144764D01*
X170976000Y-56383363D01*
X170976000Y-56626637D01*
X171023460Y-56865236D01*
X171116557Y-57089992D01*
X171251713Y-57292267D01*
X171423733Y-57464287D01*
X171626008Y-57599443D01*
X171850764Y-57692540D01*
X172089363Y-57740000D01*
X172332637Y-57740000D01*
X172571236Y-57692540D01*
X172795992Y-57599443D01*
X172900633Y-57529524D01*
X172876000Y-57653363D01*
X172876000Y-57896637D01*
X172900633Y-58020476D01*
X172795992Y-57950557D01*
X172571236Y-57857460D01*
X172332637Y-57810000D01*
X172089363Y-57810000D01*
X171850764Y-57857460D01*
X171626008Y-57950557D01*
X171423733Y-58085713D01*
X171251713Y-58257733D01*
X171116557Y-58460008D01*
X171023460Y-58684764D01*
X170976000Y-58923363D01*
X170976000Y-59166637D01*
X171023460Y-59405236D01*
X171116557Y-59629992D01*
X171251713Y-59832267D01*
X171423733Y-60004287D01*
X171626008Y-60139443D01*
X171850764Y-60232540D01*
X171940483Y-60250386D01*
X171752852Y-60438016D01*
X171626008Y-60490557D01*
X171423733Y-60625713D01*
X171251713Y-60797733D01*
X171116557Y-61000008D01*
X171023460Y-61224764D01*
X170976000Y-61463363D01*
X170976000Y-61706637D01*
X171023460Y-61945236D01*
X171116557Y-62169992D01*
X171251713Y-62372267D01*
X171423733Y-62544287D01*
X171626008Y-62679443D01*
X171752852Y-62731984D01*
X171940483Y-62919614D01*
X171850764Y-62937460D01*
X171626008Y-63030557D01*
X171423733Y-63165713D01*
X171251713Y-63337733D01*
X171116557Y-63540008D01*
X171023460Y-63764764D01*
X170976000Y-64003363D01*
X170976000Y-64246637D01*
X171023460Y-64485236D01*
X171116557Y-64709992D01*
X171251713Y-64912267D01*
X171423733Y-65084287D01*
X171626008Y-65219443D01*
X171850764Y-65312540D01*
X172089363Y-65360000D01*
X172332637Y-65360000D01*
X172571236Y-65312540D01*
X172795992Y-65219443D01*
X172900633Y-65149524D01*
X172876000Y-65273363D01*
X172876000Y-65516637D01*
X172900633Y-65640476D01*
X172795992Y-65570557D01*
X172571236Y-65477460D01*
X172332637Y-65430000D01*
X172089363Y-65430000D01*
X171850764Y-65477460D01*
X171626008Y-65570557D01*
X171423733Y-65705713D01*
X171251713Y-65877733D01*
X171116557Y-66080008D01*
X171023460Y-66304764D01*
X170976000Y-66543363D01*
X170976000Y-66786637D01*
X171023460Y-67025236D01*
X171116557Y-67249992D01*
X171251713Y-67452267D01*
X171423733Y-67624287D01*
X171626008Y-67759443D01*
X171850764Y-67852540D01*
X172089363Y-67900000D01*
X172332637Y-67900000D01*
X172571236Y-67852540D01*
X172795992Y-67759443D01*
X172900633Y-67689524D01*
X172876000Y-67813363D01*
X172876000Y-68056637D01*
X172900633Y-68180476D01*
X172795992Y-68110557D01*
X172571236Y-68017460D01*
X172332637Y-67970000D01*
X172089363Y-67970000D01*
X171850764Y-68017460D01*
X171626008Y-68110557D01*
X171423733Y-68245713D01*
X171251713Y-68417733D01*
X171116557Y-68620008D01*
X171023460Y-68844764D01*
X170976000Y-69083363D01*
X170976000Y-69326637D01*
X171023460Y-69565236D01*
X171116557Y-69789992D01*
X171251713Y-69992267D01*
X171423733Y-70164287D01*
X171626008Y-70299443D01*
X171850764Y-70392540D01*
X172089363Y-70440000D01*
X172332637Y-70440000D01*
X172571236Y-70392540D01*
X172795992Y-70299443D01*
X172900633Y-70229524D01*
X172876000Y-70353363D01*
X172876000Y-70596637D01*
X172900633Y-70720476D01*
X172795992Y-70650557D01*
X172571236Y-70557460D01*
X172332637Y-70510000D01*
X172089363Y-70510000D01*
X171850764Y-70557460D01*
X171626008Y-70650557D01*
X171423733Y-70785713D01*
X171251713Y-70957733D01*
X171116557Y-71160008D01*
X171023460Y-71384764D01*
X170976000Y-71623363D01*
X170976000Y-71866637D01*
X171023460Y-72105236D01*
X171116557Y-72329992D01*
X171251713Y-72532267D01*
X171423733Y-72704287D01*
X171626008Y-72839443D01*
X171850764Y-72932540D01*
X172089363Y-72980000D01*
X172332637Y-72980000D01*
X172571236Y-72932540D01*
X172795992Y-72839443D01*
X172900633Y-72769524D01*
X172876000Y-72893363D01*
X172876000Y-73136637D01*
X172900633Y-73260476D01*
X172795992Y-73190557D01*
X172571236Y-73097460D01*
X172332637Y-73050000D01*
X172089363Y-73050000D01*
X171850764Y-73097460D01*
X171626008Y-73190557D01*
X171423733Y-73325713D01*
X171251713Y-73497733D01*
X171116557Y-73700008D01*
X171023460Y-73924764D01*
X170976000Y-74163363D01*
X170976000Y-74406637D01*
X171023460Y-74645236D01*
X171116557Y-74869992D01*
X171251713Y-75072267D01*
X171423733Y-75244287D01*
X171626008Y-75379443D01*
X171850764Y-75472540D01*
X172089363Y-75520000D01*
X172332637Y-75520000D01*
X172571236Y-75472540D01*
X172795992Y-75379443D01*
X172900633Y-75309524D01*
X172876000Y-75433363D01*
X172876000Y-75676637D01*
X172900633Y-75800476D01*
X172795992Y-75730557D01*
X172571236Y-75637460D01*
X172332637Y-75590000D01*
X172089363Y-75590000D01*
X171850764Y-75637460D01*
X171626008Y-75730557D01*
X171423733Y-75865713D01*
X171251713Y-76037733D01*
X171116557Y-76240008D01*
X171023460Y-76464764D01*
X170976000Y-76703363D01*
X170976000Y-76946637D01*
X171023460Y-77185236D01*
X171116557Y-77409992D01*
X171251713Y-77612267D01*
X171423733Y-77784287D01*
X171626008Y-77919443D01*
X171850764Y-78012540D01*
X172089363Y-78060000D01*
X172332637Y-78060000D01*
X172571236Y-78012540D01*
X172795992Y-77919443D01*
X172900633Y-77849524D01*
X172876000Y-77973363D01*
X172876000Y-78216637D01*
X172900633Y-78340476D01*
X172795992Y-78270557D01*
X172571236Y-78177460D01*
X172332637Y-78130000D01*
X172089363Y-78130000D01*
X171850764Y-78177460D01*
X171626008Y-78270557D01*
X171423733Y-78405713D01*
X171251713Y-78577733D01*
X171116557Y-78780008D01*
X171023460Y-79004764D01*
X170976000Y-79243363D01*
X170976000Y-79486637D01*
X171023460Y-79725236D01*
X171116557Y-79949992D01*
X171251713Y-80152267D01*
X171423733Y-80324287D01*
X171626008Y-80459443D01*
X171850764Y-80552540D01*
X172089363Y-80600000D01*
X172332637Y-80600000D01*
X172571236Y-80552540D01*
X172795992Y-80459443D01*
X172900633Y-80389524D01*
X172876000Y-80513363D01*
X172876000Y-80756637D01*
X172900633Y-80880476D01*
X172795992Y-80810557D01*
X172571236Y-80717460D01*
X172332637Y-80670000D01*
X172089363Y-80670000D01*
X171850764Y-80717460D01*
X171626008Y-80810557D01*
X171423733Y-80945713D01*
X171251713Y-81117733D01*
X171116557Y-81320008D01*
X171023460Y-81544764D01*
X170976000Y-81783363D01*
X170976000Y-82026637D01*
X171023460Y-82265236D01*
X171116557Y-82489992D01*
X171251713Y-82692267D01*
X171423733Y-82864287D01*
X171626008Y-82999443D01*
X171850764Y-83092540D01*
X172089363Y-83140000D01*
X172332637Y-83140000D01*
X172571236Y-83092540D01*
X172795992Y-82999443D01*
X172900633Y-82929524D01*
X172876000Y-83053363D01*
X172876000Y-83296637D01*
X172900633Y-83420476D01*
X172795992Y-83350557D01*
X172571236Y-83257460D01*
X172332637Y-83210000D01*
X172089363Y-83210000D01*
X171850764Y-83257460D01*
X171626008Y-83350557D01*
X171423733Y-83485713D01*
X171251713Y-83657733D01*
X171116557Y-83860008D01*
X171023460Y-84084764D01*
X170976000Y-84323363D01*
X170976000Y-84566637D01*
X171023460Y-84805236D01*
X171116557Y-85029992D01*
X171251713Y-85232267D01*
X171423733Y-85404287D01*
X171626008Y-85539443D01*
X171850764Y-85632540D01*
X172089363Y-85680000D01*
X172332637Y-85680000D01*
X172571236Y-85632540D01*
X172795992Y-85539443D01*
X172900633Y-85469524D01*
X172876000Y-85593363D01*
X172876000Y-85836637D01*
X172900633Y-85960476D01*
X172795992Y-85890557D01*
X172571236Y-85797460D01*
X172332637Y-85750000D01*
X172089363Y-85750000D01*
X171850764Y-85797460D01*
X171626008Y-85890557D01*
X171423733Y-86025713D01*
X171251713Y-86197733D01*
X171116557Y-86400008D01*
X171023460Y-86624764D01*
X170976000Y-86863363D01*
X170976000Y-87106637D01*
X171023460Y-87345236D01*
X171116557Y-87569992D01*
X171251713Y-87772267D01*
X171423733Y-87944287D01*
X171626008Y-88079443D01*
X171850764Y-88172540D01*
X172089363Y-88220000D01*
X172332637Y-88220000D01*
X172571236Y-88172540D01*
X172795992Y-88079443D01*
X172900633Y-88009524D01*
X172876000Y-88133363D01*
X172876000Y-88376637D01*
X172900633Y-88500476D01*
X172795992Y-88430557D01*
X172571236Y-88337460D01*
X172332637Y-88290000D01*
X172089363Y-88290000D01*
X171850764Y-88337460D01*
X171626008Y-88430557D01*
X171423733Y-88565713D01*
X171251713Y-88737733D01*
X171116557Y-88940008D01*
X171023460Y-89164764D01*
X170976000Y-89403363D01*
X170976000Y-89646637D01*
X171023460Y-89885236D01*
X171116557Y-90109992D01*
X171251713Y-90312267D01*
X171423733Y-90484287D01*
X171626008Y-90619443D01*
X171850764Y-90712540D01*
X172089363Y-90760000D01*
X172332637Y-90760000D01*
X172571236Y-90712540D01*
X172795992Y-90619443D01*
X172900633Y-90549524D01*
X172876000Y-90673363D01*
X172876000Y-90916637D01*
X172900633Y-91040476D01*
X172795992Y-90970557D01*
X172571236Y-90877460D01*
X172332637Y-90830000D01*
X172089363Y-90830000D01*
X171850764Y-90877460D01*
X171626008Y-90970557D01*
X171423733Y-91105713D01*
X171251713Y-91277733D01*
X171116557Y-91480008D01*
X171023460Y-91704764D01*
X170976000Y-91943363D01*
X170976000Y-92186637D01*
X171023460Y-92425236D01*
X171116557Y-92649992D01*
X171251713Y-92852267D01*
X171423733Y-93024287D01*
X171626008Y-93159443D01*
X171850764Y-93252540D01*
X172089363Y-93300000D01*
X172332637Y-93300000D01*
X172571236Y-93252540D01*
X172795992Y-93159443D01*
X172900633Y-93089524D01*
X172876000Y-93213363D01*
X172876000Y-93456637D01*
X172900633Y-93580476D01*
X172795992Y-93510557D01*
X172571236Y-93417460D01*
X172332637Y-93370000D01*
X172089363Y-93370000D01*
X171850764Y-93417460D01*
X171626008Y-93510557D01*
X171423733Y-93645713D01*
X171251713Y-93817733D01*
X171116557Y-94020008D01*
X171023460Y-94244764D01*
X170976000Y-94483363D01*
X170976000Y-94726637D01*
X171023460Y-94965236D01*
X171116557Y-95189992D01*
X171251713Y-95392267D01*
X171423733Y-95564287D01*
X171626008Y-95699443D01*
X171850764Y-95792540D01*
X172089363Y-95840000D01*
X172332637Y-95840000D01*
X172571236Y-95792540D01*
X172795992Y-95699443D01*
X172900633Y-95629524D01*
X172876000Y-95753363D01*
X172876000Y-95996637D01*
X172900633Y-96120476D01*
X172795992Y-96050557D01*
X172571236Y-95957460D01*
X172332637Y-95910000D01*
X172089363Y-95910000D01*
X171850764Y-95957460D01*
X171626008Y-96050557D01*
X171423733Y-96185713D01*
X171251713Y-96357733D01*
X171116557Y-96560008D01*
X171023460Y-96784764D01*
X170976000Y-97023363D01*
X170976000Y-97266637D01*
X171023460Y-97505236D01*
X171116557Y-97729992D01*
X171251713Y-97932267D01*
X171423733Y-98104287D01*
X171626008Y-98239443D01*
X171850764Y-98332540D01*
X172089363Y-98380000D01*
X172332637Y-98380000D01*
X172571236Y-98332540D01*
X172795992Y-98239443D01*
X172900633Y-98169524D01*
X172876000Y-98293363D01*
X172876000Y-98536637D01*
X172900633Y-98660476D01*
X172795992Y-98590557D01*
X172571236Y-98497460D01*
X172332637Y-98450000D01*
X172089363Y-98450000D01*
X171850764Y-98497460D01*
X171626008Y-98590557D01*
X171423733Y-98725713D01*
X171251713Y-98897733D01*
X171116557Y-99100008D01*
X171023460Y-99324764D01*
X170976000Y-99563363D01*
X170976000Y-99806637D01*
X171023460Y-100045236D01*
X171116557Y-100269992D01*
X171251713Y-100472267D01*
X171423733Y-100644287D01*
X171626008Y-100779443D01*
X171850764Y-100872540D01*
X172089363Y-100920000D01*
X172332637Y-100920000D01*
X172571236Y-100872540D01*
X172600415Y-100860454D01*
X172447935Y-101012934D01*
X172332637Y-100990000D01*
X172089363Y-100990000D01*
X171850764Y-101037460D01*
X171626008Y-101130557D01*
X171423733Y-101265713D01*
X171251713Y-101437733D01*
X171116557Y-101640008D01*
X171023460Y-101864764D01*
X170976000Y-102103363D01*
X170976000Y-102346637D01*
X171023460Y-102585236D01*
X171076001Y-102712081D01*
X171076000Y-103818855D01*
X171021498Y-103920820D01*
X170985188Y-104040518D01*
X170972928Y-104165000D01*
X170972928Y-105365000D01*
X170985188Y-105489482D01*
X171021498Y-105609180D01*
X171076001Y-105711146D01*
X171076000Y-116275248D01*
X171070509Y-116331000D01*
X171076000Y-116386751D01*
X171092423Y-116553498D01*
X171157324Y-116767446D01*
X171262716Y-116964623D01*
X171404551Y-117137449D01*
X171447865Y-117172996D01*
X173220545Y-118945677D01*
X173175000Y-119174645D01*
X173175000Y-119585355D01*
X173255126Y-119988172D01*
X173412297Y-120367618D01*
X173640475Y-120709110D01*
X173930890Y-120999525D01*
X174272382Y-121227703D01*
X174651828Y-121384874D01*
X175054645Y-121465000D01*
X175465355Y-121465000D01*
X175868172Y-121384874D01*
X176247618Y-121227703D01*
X176589110Y-120999525D01*
X176879525Y-120709110D01*
X177107703Y-120367618D01*
X177264874Y-119988172D01*
X177345000Y-119585355D01*
X177345000Y-119174645D01*
X177264874Y-118771828D01*
X177107703Y-118392382D01*
X176879525Y-118050890D01*
X176589110Y-117760475D01*
X176247618Y-117532297D01*
X175868172Y-117375126D01*
X175465355Y-117295000D01*
X175054645Y-117295000D01*
X174825677Y-117340545D01*
X173346000Y-115860869D01*
X173346000Y-110942516D01*
X173419313Y-111052237D01*
X173702763Y-111335687D01*
X174036066Y-111558393D01*
X174406413Y-111711796D01*
X174799570Y-111790000D01*
X175200430Y-111790000D01*
X175593587Y-111711796D01*
X175963934Y-111558393D01*
X176297237Y-111335687D01*
X176580687Y-111052237D01*
X176803393Y-110718934D01*
X176956796Y-110348587D01*
X177035000Y-109955430D01*
X177035000Y-109554570D01*
X176956796Y-109161413D01*
X176874694Y-108963202D01*
X177009419Y-108990000D01*
X177390581Y-108990000D01*
X177764419Y-108915639D01*
X178065002Y-108791134D01*
X178065001Y-118184250D01*
X178059510Y-118240001D01*
X178065001Y-118295752D01*
X178081424Y-118462499D01*
X178146325Y-118676447D01*
X178251717Y-118873624D01*
X178302555Y-118935570D01*
X178255000Y-119174645D01*
X178255000Y-119585355D01*
X178335126Y-119988172D01*
X178492297Y-120367618D01*
X178720475Y-120709110D01*
X179010890Y-120999525D01*
X179352382Y-121227703D01*
X179731828Y-121384874D01*
X180134645Y-121465000D01*
X180545355Y-121465000D01*
X180948172Y-121384874D01*
X181327618Y-121227703D01*
X181669110Y-120999525D01*
X181959525Y-120709110D01*
X182187703Y-120367618D01*
X182344874Y-119988172D01*
X182425000Y-119585355D01*
X182425000Y-119174645D01*
X182344874Y-118771828D01*
X182187703Y-118392382D01*
X181959525Y-118050890D01*
X181669110Y-117760475D01*
X181327618Y-117532297D01*
X180948172Y-117375126D01*
X180545355Y-117295000D01*
X180335001Y-117295000D01*
X180335001Y-115900132D01*
X183380545Y-118945677D01*
X183335000Y-119174645D01*
X183335000Y-119585355D01*
X183415126Y-119988172D01*
X183572297Y-120367618D01*
X183800475Y-120709110D01*
X184090890Y-120999525D01*
X184432382Y-121227703D01*
X184811828Y-121384874D01*
X185214645Y-121465000D01*
X185625355Y-121465000D01*
X186028172Y-121384874D01*
X186407618Y-121227703D01*
X186749110Y-120999525D01*
X187039525Y-120709110D01*
X187267703Y-120367618D01*
X187424874Y-119988172D01*
X187505000Y-119585355D01*
X187505000Y-119174645D01*
X188415000Y-119174645D01*
X188415000Y-119585355D01*
X188495126Y-119988172D01*
X188652297Y-120367618D01*
X188880475Y-120709110D01*
X189170890Y-120999525D01*
X189512382Y-121227703D01*
X189891828Y-121384874D01*
X190294645Y-121465000D01*
X190705355Y-121465000D01*
X191108172Y-121384874D01*
X191487618Y-121227703D01*
X191829110Y-120999525D01*
X192119525Y-120709110D01*
X192347703Y-120367618D01*
X192504874Y-119988172D01*
X192585000Y-119585355D01*
X192585000Y-119174645D01*
X192504874Y-118771828D01*
X192347703Y-118392382D01*
X192119525Y-118050890D01*
X191829110Y-117760475D01*
X191487618Y-117532297D01*
X191108172Y-117375126D01*
X190705355Y-117295000D01*
X190294645Y-117295000D01*
X189891828Y-117375126D01*
X189512382Y-117532297D01*
X189170890Y-117760475D01*
X188880475Y-118050890D01*
X188652297Y-118392382D01*
X188495126Y-118771828D01*
X188415000Y-119174645D01*
X187505000Y-119174645D01*
X187424874Y-118771828D01*
X187267703Y-118392382D01*
X187039525Y-118050890D01*
X186749110Y-117760475D01*
X186407618Y-117532297D01*
X186028172Y-117375126D01*
X185625355Y-117295000D01*
X185214645Y-117295000D01*
X184985677Y-117340545D01*
X181535011Y-113889880D01*
X181535011Y-107176191D01*
X181612641Y-107228061D01*
X181855595Y-107328696D01*
X182113514Y-107380000D01*
X182376486Y-107380000D01*
X182483844Y-107358645D01*
X191206201Y-116081003D01*
X191229999Y-116110001D01*
X191345724Y-116204974D01*
X191477753Y-116275546D01*
X191621014Y-116319003D01*
X191732667Y-116330000D01*
X191732676Y-116330000D01*
X191769999Y-116333676D01*
X191807322Y-116330000D01*
X203191822Y-116330000D01*
X203316525Y-116516632D01*
X203523368Y-116723475D01*
X203697760Y-116840000D01*
X203523368Y-116956525D01*
X203316525Y-117163368D01*
X203154010Y-117406589D01*
X203042068Y-117676842D01*
X202985000Y-117963740D01*
X202985000Y-118256260D01*
X203042068Y-118543158D01*
X203154010Y-118813411D01*
X203316525Y-119056632D01*
X203523368Y-119263475D01*
X203697760Y-119380000D01*
X203523368Y-119496525D01*
X203316525Y-119703368D01*
X203154010Y-119946589D01*
X203042068Y-120216842D01*
X202985000Y-120503740D01*
X202985000Y-120796260D01*
X203042068Y-121083158D01*
X203154010Y-121353411D01*
X203316525Y-121596632D01*
X203523368Y-121803475D01*
X203697760Y-121920000D01*
X203523368Y-122036525D01*
X203316525Y-122243368D01*
X203154010Y-122486589D01*
X203042068Y-122756842D01*
X202985000Y-123043740D01*
X202985000Y-123336260D01*
X203042068Y-123623158D01*
X203154010Y-123893411D01*
X203316525Y-124136632D01*
X203519893Y-124340000D01*
X170660000Y-124340000D01*
X170660000Y-50044570D01*
X172965000Y-50044570D01*
X172965000Y-50445430D01*
X173043204Y-50838587D01*
X173196607Y-51208934D01*
X173419313Y-51542237D01*
X173702763Y-51825687D01*
X174036066Y-52048393D01*
X174406413Y-52201796D01*
X174799570Y-52280000D01*
X175200430Y-52280000D01*
X175593587Y-52201796D01*
X175963934Y-52048393D01*
X176297237Y-51825687D01*
X176580687Y-51542237D01*
X176803393Y-51208934D01*
X176956796Y-50838587D01*
X177035000Y-50445430D01*
X177035000Y-50044570D01*
X176956796Y-49651413D01*
X176803393Y-49281066D01*
X176580687Y-48947763D01*
X176297237Y-48664313D01*
X175963934Y-48441607D01*
X175593587Y-48288204D01*
X175200430Y-48210000D01*
X174799570Y-48210000D01*
X174406413Y-48288204D01*
X174036066Y-48441607D01*
X173702763Y-48664313D01*
X173419313Y-48947763D01*
X173196607Y-49281066D01*
X173043204Y-49651413D01*
X172965000Y-50044570D01*
X170660000Y-50044570D01*
X170660000Y-38378109D01*
X172548519Y-38378109D01*
X172669186Y-38608000D01*
X173863000Y-38608000D01*
X173863000Y-37414845D01*
X174117000Y-37414845D01*
X174117000Y-38608000D01*
X176403000Y-38608000D01*
X176403000Y-37414845D01*
X176657000Y-37414845D01*
X176657000Y-38608000D01*
X178943000Y-38608000D01*
X178943000Y-37414845D01*
X179197000Y-37414845D01*
X179197000Y-38608000D01*
X181483000Y-38608000D01*
X181483000Y-37414845D01*
X181737000Y-37414845D01*
X181737000Y-38608000D01*
X184023000Y-38608000D01*
X184023000Y-37414845D01*
X184277000Y-37414845D01*
X184277000Y-38608000D01*
X186563000Y-38608000D01*
X186563000Y-37414845D01*
X186333110Y-37293524D01*
X186185901Y-37338175D01*
X185923080Y-37463359D01*
X185689731Y-37637412D01*
X185494822Y-37853645D01*
X185420000Y-37979255D01*
X185345178Y-37853645D01*
X185150269Y-37637412D01*
X184916920Y-37463359D01*
X184654099Y-37338175D01*
X184506890Y-37293524D01*
X184277000Y-37414845D01*
X184023000Y-37414845D01*
X183793110Y-37293524D01*
X183645901Y-37338175D01*
X183383080Y-37463359D01*
X183149731Y-37637412D01*
X182954822Y-37853645D01*
X182880000Y-37979255D01*
X182805178Y-37853645D01*
X182610269Y-37637412D01*
X182376920Y-37463359D01*
X182114099Y-37338175D01*
X181966890Y-37293524D01*
X181737000Y-37414845D01*
X181483000Y-37414845D01*
X181253110Y-37293524D01*
X181105901Y-37338175D01*
X180843080Y-37463359D01*
X180609731Y-37637412D01*
X180414822Y-37853645D01*
X180340000Y-37979255D01*
X180265178Y-37853645D01*
X180070269Y-37637412D01*
X179836920Y-37463359D01*
X179574099Y-37338175D01*
X179426890Y-37293524D01*
X179197000Y-37414845D01*
X178943000Y-37414845D01*
X178713110Y-37293524D01*
X178565901Y-37338175D01*
X178303080Y-37463359D01*
X178069731Y-37637412D01*
X177874822Y-37853645D01*
X177800000Y-37979255D01*
X177725178Y-37853645D01*
X177530269Y-37637412D01*
X177296920Y-37463359D01*
X177034099Y-37338175D01*
X176886890Y-37293524D01*
X176657000Y-37414845D01*
X176403000Y-37414845D01*
X176173110Y-37293524D01*
X176025901Y-37338175D01*
X175763080Y-37463359D01*
X175529731Y-37637412D01*
X175334822Y-37853645D01*
X175260000Y-37979255D01*
X175185178Y-37853645D01*
X174990269Y-37637412D01*
X174756920Y-37463359D01*
X174494099Y-37338175D01*
X174346890Y-37293524D01*
X174117000Y-37414845D01*
X173863000Y-37414845D01*
X173633110Y-37293524D01*
X173485901Y-37338175D01*
X173223080Y-37463359D01*
X172989731Y-37637412D01*
X172794822Y-37853645D01*
X172645843Y-38103748D01*
X172548519Y-38378109D01*
X170660000Y-38378109D01*
X170660000Y-35660000D01*
X194340000Y-35660000D01*
X194340000Y-40271898D01*
G37*
X194340000Y-40271898D02*
X194309974Y-40215724D01*
X194238799Y-40128997D01*
X193211209Y-39101408D01*
X193255000Y-38881260D01*
X193255000Y-38588740D01*
X193197932Y-38301842D01*
X193085990Y-38031589D01*
X192923475Y-37788368D01*
X192716632Y-37581525D01*
X192473411Y-37419010D01*
X192203158Y-37307068D01*
X191916260Y-37250000D01*
X191623740Y-37250000D01*
X191336842Y-37307068D01*
X191066589Y-37419010D01*
X190823368Y-37581525D01*
X190616525Y-37788368D01*
X190500000Y-37962760D01*
X190383475Y-37788368D01*
X190176632Y-37581525D01*
X189933411Y-37419010D01*
X189663158Y-37307068D01*
X189376260Y-37250000D01*
X189083740Y-37250000D01*
X188796842Y-37307068D01*
X188526589Y-37419010D01*
X188283368Y-37581525D01*
X188076525Y-37788368D01*
X187954805Y-37970534D01*
X187885178Y-37853645D01*
X187690269Y-37637412D01*
X187456920Y-37463359D01*
X187194099Y-37338175D01*
X187046890Y-37293524D01*
X186817000Y-37414845D01*
X186817000Y-38608000D01*
X186837000Y-38608000D01*
X186837000Y-38862000D01*
X186817000Y-38862000D01*
X186817000Y-38882000D01*
X186563000Y-38882000D01*
X186563000Y-38862000D01*
X184277000Y-38862000D01*
X184277000Y-38882000D01*
X184023000Y-38882000D01*
X184023000Y-38862000D01*
X181737000Y-38862000D01*
X181737000Y-38882000D01*
X181483000Y-38882000D01*
X181483000Y-38862000D01*
X179197000Y-38862000D01*
X179197000Y-38882000D01*
X178943000Y-38882000D01*
X178943000Y-38862000D01*
X176657000Y-38862000D01*
X176657000Y-38882000D01*
X176403000Y-38882000D01*
X176403000Y-38862000D01*
X174117000Y-38862000D01*
X174117000Y-38882000D01*
X173863000Y-38882000D01*
X173863000Y-38862000D01*
X172669186Y-38862000D01*
X172548519Y-39091891D01*
X172645843Y-39366252D01*
X172794822Y-39616355D01*
X172989731Y-39832588D01*
X173219406Y-40003900D01*
X173043368Y-40121525D01*
X172836525Y-40328368D01*
X172674010Y-40571589D01*
X172562068Y-40841842D01*
X172505000Y-41128740D01*
X172505000Y-41421260D01*
X172562068Y-41708158D01*
X172674010Y-41978411D01*
X172836525Y-42221632D01*
X173043368Y-42428475D01*
X173286589Y-42590990D01*
X173556842Y-42702932D01*
X173843740Y-42760000D01*
X174136260Y-42760000D01*
X174423158Y-42702932D01*
X174693411Y-42590990D01*
X174936632Y-42428475D01*
X175143475Y-42221632D01*
X175260000Y-42047240D01*
X175376525Y-42221632D01*
X175583368Y-42428475D01*
X175826589Y-42590990D01*
X176096842Y-42702932D01*
X176383740Y-42760000D01*
X176676260Y-42760000D01*
X176963158Y-42702932D01*
X177233411Y-42590990D01*
X177476632Y-42428475D01*
X177683475Y-42221632D01*
X177800000Y-42047240D01*
X177916525Y-42221632D01*
X178123368Y-42428475D01*
X178366589Y-42590990D01*
X178636842Y-42702932D01*
X178923740Y-42760000D01*
X179216260Y-42760000D01*
X179503158Y-42702932D01*
X179773411Y-42590990D01*
X180016632Y-42428475D01*
X180223475Y-42221632D01*
X180340000Y-42047240D01*
X180456525Y-42221632D01*
X180663368Y-42428475D01*
X180906589Y-42590990D01*
X181176842Y-42702932D01*
X181463740Y-42760000D01*
X181756260Y-42760000D01*
X182043158Y-42702932D01*
X182313411Y-42590990D01*
X182556632Y-42428475D01*
X182763475Y-42221632D01*
X182880000Y-42047240D01*
X182996525Y-42221632D01*
X183203368Y-42428475D01*
X183446589Y-42590990D01*
X183716842Y-42702932D01*
X184003740Y-42760000D01*
X184296260Y-42760000D01*
X184583158Y-42702932D01*
X184853411Y-42590990D01*
X185096632Y-42428475D01*
X185303475Y-42221632D01*
X185420000Y-42047240D01*
X185536525Y-42221632D01*
X185743368Y-42428475D01*
X185986589Y-42590990D01*
X186256842Y-42702932D01*
X186543740Y-42760000D01*
X186836260Y-42760000D01*
X187123158Y-42702932D01*
X187393411Y-42590990D01*
X187636632Y-42428475D01*
X187843475Y-42221632D01*
X187960000Y-42047240D01*
X188076525Y-42221632D01*
X188283368Y-42428475D01*
X188526589Y-42590990D01*
X188796842Y-42702932D01*
X189083740Y-42760000D01*
X189376260Y-42760000D01*
X189663158Y-42702932D01*
X189933411Y-42590990D01*
X190176632Y-42428475D01*
X190308487Y-42296620D01*
X190330498Y-42369180D01*
X190389463Y-42479494D01*
X190468815Y-42576185D01*
X190565506Y-42655537D01*
X190675820Y-42714502D01*
X190795518Y-42750812D01*
X190920000Y-42763072D01*
X192620000Y-42763072D01*
X192744482Y-42750812D01*
X192864180Y-42714502D01*
X192915000Y-42687338D01*
X192915001Y-100275680D01*
X192806962Y-100113987D01*
X192621013Y-99928038D01*
X192402359Y-99781939D01*
X192159405Y-99681304D01*
X191901486Y-99630000D01*
X191638514Y-99630000D01*
X191380595Y-99681304D01*
X191137641Y-99781939D01*
X190918987Y-99928038D01*
X190733038Y-100113987D01*
X190586939Y-100332641D01*
X190486304Y-100575595D01*
X190435000Y-100833514D01*
X190435000Y-101096486D01*
X190486304Y-101354405D01*
X190586939Y-101597359D01*
X190733038Y-101816013D01*
X190918987Y-102001962D01*
X191137641Y-102148061D01*
X191380595Y-102248696D01*
X191638514Y-102300000D01*
X191901486Y-102300000D01*
X192159405Y-102248696D01*
X192402359Y-102148061D01*
X192621013Y-102001962D01*
X192806962Y-101816013D01*
X192915001Y-101654320D01*
X192915001Y-105010197D01*
X192769087Y-105156112D01*
X192621013Y-105008038D01*
X192402359Y-104861939D01*
X192159405Y-104761304D01*
X191901486Y-104710000D01*
X191638514Y-104710000D01*
X191380595Y-104761304D01*
X191137641Y-104861939D01*
X190918987Y-105008038D01*
X190733038Y-105193987D01*
X190586939Y-105412641D01*
X190486304Y-105655595D01*
X190435000Y-105913514D01*
X190435000Y-106176486D01*
X190486304Y-106434405D01*
X190586939Y-106677359D01*
X190733038Y-106896013D01*
X190918987Y-107081962D01*
X191080678Y-107190000D01*
X190814802Y-107190000D01*
X189908645Y-106283844D01*
X189930000Y-106176486D01*
X189930000Y-105913514D01*
X189878696Y-105655595D01*
X189778061Y-105412641D01*
X189631962Y-105193987D01*
X189446013Y-105008038D01*
X189227359Y-104861939D01*
X188984405Y-104761304D01*
X188726486Y-104710000D01*
X188463514Y-104710000D01*
X188205595Y-104761304D01*
X187962641Y-104861939D01*
X187743987Y-105008038D01*
X187558038Y-105193987D01*
X187411939Y-105412641D01*
X187311304Y-105655595D01*
X187260000Y-105913514D01*
X187260000Y-106176486D01*
X187311304Y-106434405D01*
X187411939Y-106677359D01*
X187558038Y-106896013D01*
X187743987Y-107081962D01*
X187962641Y-107228061D01*
X188205595Y-107328696D01*
X188463514Y-107380000D01*
X188726486Y-107380000D01*
X188833844Y-107358645D01*
X189936201Y-108461003D01*
X189959999Y-108490001D01*
X190075724Y-108584974D01*
X190207753Y-108655546D01*
X190351014Y-108699003D01*
X190462667Y-108710000D01*
X190462677Y-108710000D01*
X190500000Y-108713676D01*
X190537323Y-108710000D01*
X203191822Y-108710000D01*
X203316525Y-108896632D01*
X203523368Y-109103475D01*
X203697760Y-109220000D01*
X203523368Y-109336525D01*
X203316525Y-109543368D01*
X203191822Y-109730000D01*
X190179802Y-109730000D01*
X186733645Y-106283844D01*
X186755000Y-106176486D01*
X186755000Y-105913514D01*
X186703696Y-105655595D01*
X186603061Y-105412641D01*
X186456962Y-105193987D01*
X186271013Y-105008038D01*
X186052359Y-104861939D01*
X185809405Y-104761304D01*
X185551486Y-104710000D01*
X185288514Y-104710000D01*
X185030595Y-104761304D01*
X184787641Y-104861939D01*
X184568987Y-105008038D01*
X184383038Y-105193987D01*
X184236939Y-105412641D01*
X184136304Y-105655595D01*
X184085000Y-105913514D01*
X184085000Y-106176486D01*
X184136304Y-106434405D01*
X184236939Y-106677359D01*
X184383038Y-106896013D01*
X184568987Y-107081962D01*
X184787641Y-107228061D01*
X185030595Y-107328696D01*
X185288514Y-107380000D01*
X185551486Y-107380000D01*
X185658844Y-107358645D01*
X189301201Y-111001003D01*
X189324999Y-111030001D01*
X189440724Y-111124974D01*
X189572753Y-111195546D01*
X189716014Y-111239003D01*
X189827667Y-111250000D01*
X189827676Y-111250000D01*
X189864999Y-111253676D01*
X189902322Y-111250000D01*
X203191822Y-111250000D01*
X203316525Y-111436632D01*
X203523368Y-111643475D01*
X203697760Y-111760000D01*
X203523368Y-111876525D01*
X203316525Y-112083368D01*
X203154010Y-112326589D01*
X203042068Y-112596842D01*
X202985000Y-112883740D01*
X202985000Y-113176260D01*
X203042068Y-113463158D01*
X203154010Y-113733411D01*
X203316525Y-113976632D01*
X203523368Y-114183475D01*
X203697760Y-114300000D01*
X203523368Y-114416525D01*
X203316525Y-114623368D01*
X203191822Y-114810000D01*
X192084802Y-114810000D01*
X183558645Y-106283844D01*
X183580000Y-106176486D01*
X183580000Y-105913514D01*
X183528696Y-105655595D01*
X183428061Y-105412641D01*
X183281962Y-105193987D01*
X183096013Y-105008038D01*
X182877359Y-104861939D01*
X182634405Y-104761304D01*
X182376486Y-104710000D01*
X182113514Y-104710000D01*
X181855595Y-104761304D01*
X181612641Y-104861939D01*
X181535011Y-104913809D01*
X181535011Y-102096191D01*
X181612641Y-102148061D01*
X181855595Y-102248696D01*
X182113514Y-102300000D01*
X182376486Y-102300000D01*
X182634405Y-102248696D01*
X182877359Y-102148061D01*
X183096013Y-102001962D01*
X183281962Y-101816013D01*
X183428061Y-101597359D01*
X183528696Y-101354405D01*
X183580000Y-101096486D01*
X183580000Y-100833514D01*
X184085000Y-100833514D01*
X184085000Y-101096486D01*
X184136304Y-101354405D01*
X184236939Y-101597359D01*
X184383038Y-101816013D01*
X184568987Y-102001962D01*
X184787641Y-102148061D01*
X185030595Y-102248696D01*
X185288514Y-102300000D01*
X185551486Y-102300000D01*
X185809405Y-102248696D01*
X186052359Y-102148061D01*
X186271013Y-102001962D01*
X186456962Y-101816013D01*
X186603061Y-101597359D01*
X186703696Y-101354405D01*
X186755000Y-101096486D01*
X186755000Y-100833514D01*
X187260000Y-100833514D01*
X187260000Y-101096486D01*
X187311304Y-101354405D01*
X187411939Y-101597359D01*
X187558038Y-101816013D01*
X187743987Y-102001962D01*
X187962641Y-102148061D01*
X188205595Y-102248696D01*
X188463514Y-102300000D01*
X188726486Y-102300000D01*
X188984405Y-102248696D01*
X189227359Y-102148061D01*
X189446013Y-102001962D01*
X189631962Y-101816013D01*
X189778061Y-101597359D01*
X189878696Y-101354405D01*
X189930000Y-101096486D01*
X189930000Y-100833514D01*
X189878696Y-100575595D01*
X189778061Y-100332641D01*
X189631962Y-100113987D01*
X189446013Y-99928038D01*
X189227359Y-99781939D01*
X188984405Y-99681304D01*
X188726486Y-99630000D01*
X188463514Y-99630000D01*
X188205595Y-99681304D01*
X187962641Y-99781939D01*
X187743987Y-99928038D01*
X187558038Y-100113987D01*
X187411939Y-100332641D01*
X187311304Y-100575595D01*
X187260000Y-100833514D01*
X186755000Y-100833514D01*
X186703696Y-100575595D01*
X186603061Y-100332641D01*
X186456962Y-100113987D01*
X186271013Y-99928038D01*
X186052359Y-99781939D01*
X185809405Y-99681304D01*
X185551486Y-99630000D01*
X185288514Y-99630000D01*
X185030595Y-99681304D01*
X184787641Y-99781939D01*
X184568987Y-99928038D01*
X184383038Y-100113987D01*
X184236939Y-100332641D01*
X184136304Y-100575595D01*
X184085000Y-100833514D01*
X183580000Y-100833514D01*
X183528696Y-100575595D01*
X183428061Y-100332641D01*
X183281962Y-100113987D01*
X183096013Y-99928038D01*
X182877359Y-99781939D01*
X182634405Y-99681304D01*
X182376486Y-99630000D01*
X182113514Y-99630000D01*
X181855595Y-99681304D01*
X181612641Y-99781939D01*
X181535011Y-99833809D01*
X181535011Y-65399752D01*
X181540501Y-65344010D01*
X181535011Y-65288268D01*
X181535011Y-65288259D01*
X181518588Y-65121512D01*
X181453687Y-64907564D01*
X181348295Y-64710388D01*
X181206460Y-64537562D01*
X181163152Y-64502020D01*
X179352992Y-62691861D01*
X179352988Y-62691856D01*
X179057983Y-62396852D01*
X179046000Y-62367921D01*
X179046000Y-60802079D01*
X179098540Y-60675236D01*
X179146000Y-60436637D01*
X179146000Y-60193363D01*
X179098540Y-59954764D01*
X179005443Y-59730008D01*
X178870287Y-59527733D01*
X178698267Y-59355713D01*
X178495992Y-59220557D01*
X178271236Y-59127460D01*
X178032637Y-59080000D01*
X177789363Y-59080000D01*
X177550764Y-59127460D01*
X177423921Y-59180000D01*
X177336743Y-59180000D01*
X177280999Y-59174510D01*
X177243703Y-59178183D01*
X177246000Y-59166637D01*
X177246000Y-58923363D01*
X177221367Y-58799524D01*
X177326008Y-58869443D01*
X177550764Y-58962540D01*
X177789363Y-59010000D01*
X178032637Y-59010000D01*
X178271236Y-58962540D01*
X178495992Y-58869443D01*
X178698267Y-58734287D01*
X178870287Y-58562267D01*
X179005443Y-58359992D01*
X179098540Y-58135236D01*
X179146000Y-57896637D01*
X179146000Y-57653363D01*
X179098540Y-57414764D01*
X179005443Y-57190008D01*
X178870287Y-56987733D01*
X178698267Y-56815713D01*
X178495992Y-56680557D01*
X178271236Y-56587460D01*
X178032637Y-56540000D01*
X177789363Y-56540000D01*
X177550764Y-56587460D01*
X177326008Y-56680557D01*
X177221367Y-56750476D01*
X177246000Y-56626637D01*
X177246000Y-56383363D01*
X177221367Y-56259524D01*
X177326008Y-56329443D01*
X177550764Y-56422540D01*
X177789363Y-56470000D01*
X178032637Y-56470000D01*
X178271236Y-56422540D01*
X178495992Y-56329443D01*
X178698267Y-56194287D01*
X178870287Y-56022267D01*
X179005443Y-55819992D01*
X179098540Y-55595236D01*
X179146000Y-55356637D01*
X179146000Y-55113363D01*
X179098540Y-54874764D01*
X179005443Y-54650008D01*
X178870287Y-54447733D01*
X178698267Y-54275713D01*
X178495992Y-54140557D01*
X178271236Y-54047460D01*
X178032637Y-54000000D01*
X177789363Y-54000000D01*
X177550764Y-54047460D01*
X177326008Y-54140557D01*
X177123733Y-54275713D01*
X176951713Y-54447733D01*
X176816557Y-54650008D01*
X176723460Y-54874764D01*
X176676000Y-55113363D01*
X176676000Y-55356637D01*
X176700633Y-55480476D01*
X176595992Y-55410557D01*
X176371236Y-55317460D01*
X176132637Y-55270000D01*
X175889363Y-55270000D01*
X175650764Y-55317460D01*
X175426008Y-55410557D01*
X175321367Y-55480476D01*
X175346000Y-55356637D01*
X175346000Y-55113363D01*
X175298540Y-54874764D01*
X175205443Y-54650008D01*
X175070287Y-54447733D01*
X174898267Y-54275713D01*
X174695992Y-54140557D01*
X174471236Y-54047460D01*
X174232637Y-54000000D01*
X173989363Y-54000000D01*
X173750764Y-54047460D01*
X173526008Y-54140557D01*
X173323733Y-54275713D01*
X173151713Y-54447733D01*
X173016557Y-54650008D01*
X172923460Y-54874764D01*
X172876000Y-55113363D01*
X172876000Y-55356637D01*
X172900633Y-55480476D01*
X172795992Y-55410557D01*
X172571236Y-55317460D01*
X172332637Y-55270000D01*
X172089363Y-55270000D01*
X171850764Y-55317460D01*
X171626008Y-55410557D01*
X171423733Y-55545713D01*
X171251713Y-55717733D01*
X171116557Y-55920008D01*
X171023460Y-56144764D01*
X170976000Y-56383363D01*
X170976000Y-56626637D01*
X171023460Y-56865236D01*
X171116557Y-57089992D01*
X171251713Y-57292267D01*
X171423733Y-57464287D01*
X171626008Y-57599443D01*
X171850764Y-57692540D01*
X172089363Y-57740000D01*
X172332637Y-57740000D01*
X172571236Y-57692540D01*
X172795992Y-57599443D01*
X172900633Y-57529524D01*
X172876000Y-57653363D01*
X172876000Y-57896637D01*
X172900633Y-58020476D01*
X172795992Y-57950557D01*
X172571236Y-57857460D01*
X172332637Y-57810000D01*
X172089363Y-57810000D01*
X171850764Y-57857460D01*
X171626008Y-57950557D01*
X171423733Y-58085713D01*
X171251713Y-58257733D01*
X171116557Y-58460008D01*
X171023460Y-58684764D01*
X170976000Y-58923363D01*
X170976000Y-59166637D01*
X171023460Y-59405236D01*
X171116557Y-59629992D01*
X171251713Y-59832267D01*
X171423733Y-60004287D01*
X171626008Y-60139443D01*
X171850764Y-60232540D01*
X171940483Y-60250386D01*
X171752852Y-60438016D01*
X171626008Y-60490557D01*
X171423733Y-60625713D01*
X171251713Y-60797733D01*
X171116557Y-61000008D01*
X171023460Y-61224764D01*
X170976000Y-61463363D01*
X170976000Y-61706637D01*
X171023460Y-61945236D01*
X171116557Y-62169992D01*
X171251713Y-62372267D01*
X171423733Y-62544287D01*
X171626008Y-62679443D01*
X171752852Y-62731984D01*
X171940483Y-62919614D01*
X171850764Y-62937460D01*
X171626008Y-63030557D01*
X171423733Y-63165713D01*
X171251713Y-63337733D01*
X171116557Y-63540008D01*
X171023460Y-63764764D01*
X170976000Y-64003363D01*
X170976000Y-64246637D01*
X171023460Y-64485236D01*
X171116557Y-64709992D01*
X171251713Y-64912267D01*
X171423733Y-65084287D01*
X171626008Y-65219443D01*
X171850764Y-65312540D01*
X172089363Y-65360000D01*
X172332637Y-65360000D01*
X172571236Y-65312540D01*
X172795992Y-65219443D01*
X172900633Y-65149524D01*
X172876000Y-65273363D01*
X172876000Y-65516637D01*
X172900633Y-65640476D01*
X172795992Y-65570557D01*
X172571236Y-65477460D01*
X172332637Y-65430000D01*
X172089363Y-65430000D01*
X171850764Y-65477460D01*
X171626008Y-65570557D01*
X171423733Y-65705713D01*
X171251713Y-65877733D01*
X171116557Y-66080008D01*
X171023460Y-66304764D01*
X170976000Y-66543363D01*
X170976000Y-66786637D01*
X171023460Y-67025236D01*
X171116557Y-67249992D01*
X171251713Y-67452267D01*
X171423733Y-67624287D01*
X171626008Y-67759443D01*
X171850764Y-67852540D01*
X172089363Y-67900000D01*
X172332637Y-67900000D01*
X172571236Y-67852540D01*
X172795992Y-67759443D01*
X172900633Y-67689524D01*
X172876000Y-67813363D01*
X172876000Y-68056637D01*
X172900633Y-68180476D01*
X172795992Y-68110557D01*
X172571236Y-68017460D01*
X172332637Y-67970000D01*
X172089363Y-67970000D01*
X171850764Y-68017460D01*
X171626008Y-68110557D01*
X171423733Y-68245713D01*
X171251713Y-68417733D01*
X171116557Y-68620008D01*
X171023460Y-68844764D01*
X170976000Y-69083363D01*
X170976000Y-69326637D01*
X171023460Y-69565236D01*
X171116557Y-69789992D01*
X171251713Y-69992267D01*
X171423733Y-70164287D01*
X171626008Y-70299443D01*
X171850764Y-70392540D01*
X172089363Y-70440000D01*
X172332637Y-70440000D01*
X172571236Y-70392540D01*
X172795992Y-70299443D01*
X172900633Y-70229524D01*
X172876000Y-70353363D01*
X172876000Y-70596637D01*
X172900633Y-70720476D01*
X172795992Y-70650557D01*
X172571236Y-70557460D01*
X172332637Y-70510000D01*
X172089363Y-70510000D01*
X171850764Y-70557460D01*
X171626008Y-70650557D01*
X171423733Y-70785713D01*
X171251713Y-70957733D01*
X171116557Y-71160008D01*
X171023460Y-71384764D01*
X170976000Y-71623363D01*
X170976000Y-71866637D01*
X171023460Y-72105236D01*
X171116557Y-72329992D01*
X171251713Y-72532267D01*
X171423733Y-72704287D01*
X171626008Y-72839443D01*
X171850764Y-72932540D01*
X172089363Y-72980000D01*
X172332637Y-72980000D01*
X172571236Y-72932540D01*
X172795992Y-72839443D01*
X172900633Y-72769524D01*
X172876000Y-72893363D01*
X172876000Y-73136637D01*
X172900633Y-73260476D01*
X172795992Y-73190557D01*
X172571236Y-73097460D01*
X172332637Y-73050000D01*
X172089363Y-73050000D01*
X171850764Y-73097460D01*
X171626008Y-73190557D01*
X171423733Y-73325713D01*
X171251713Y-73497733D01*
X171116557Y-73700008D01*
X171023460Y-73924764D01*
X170976000Y-74163363D01*
X170976000Y-74406637D01*
X171023460Y-74645236D01*
X171116557Y-74869992D01*
X171251713Y-75072267D01*
X171423733Y-75244287D01*
X171626008Y-75379443D01*
X171850764Y-75472540D01*
X172089363Y-75520000D01*
X172332637Y-75520000D01*
X172571236Y-75472540D01*
X172795992Y-75379443D01*
X172900633Y-75309524D01*
X172876000Y-75433363D01*
X172876000Y-75676637D01*
X172900633Y-75800476D01*
X172795992Y-75730557D01*
X172571236Y-75637460D01*
X172332637Y-75590000D01*
X172089363Y-75590000D01*
X171850764Y-75637460D01*
X171626008Y-75730557D01*
X171423733Y-75865713D01*
X171251713Y-76037733D01*
X171116557Y-76240008D01*
X171023460Y-76464764D01*
X170976000Y-76703363D01*
X170976000Y-76946637D01*
X171023460Y-77185236D01*
X171116557Y-77409992D01*
X171251713Y-77612267D01*
X171423733Y-77784287D01*
X171626008Y-77919443D01*
X171850764Y-78012540D01*
X172089363Y-78060000D01*
X172332637Y-78060000D01*
X172571236Y-78012540D01*
X172795992Y-77919443D01*
X172900633Y-77849524D01*
X172876000Y-77973363D01*
X172876000Y-78216637D01*
X172900633Y-78340476D01*
X172795992Y-78270557D01*
X172571236Y-78177460D01*
X172332637Y-78130000D01*
X172089363Y-78130000D01*
X171850764Y-78177460D01*
X171626008Y-78270557D01*
X171423733Y-78405713D01*
X171251713Y-78577733D01*
X171116557Y-78780008D01*
X171023460Y-79004764D01*
X170976000Y-79243363D01*
X170976000Y-79486637D01*
X171023460Y-79725236D01*
X171116557Y-79949992D01*
X171251713Y-80152267D01*
X171423733Y-80324287D01*
X171626008Y-80459443D01*
X171850764Y-80552540D01*
X172089363Y-80600000D01*
X172332637Y-80600000D01*
X172571236Y-80552540D01*
X172795992Y-80459443D01*
X172900633Y-80389524D01*
X172876000Y-80513363D01*
X172876000Y-80756637D01*
X172900633Y-80880476D01*
X172795992Y-80810557D01*
X172571236Y-80717460D01*
X172332637Y-80670000D01*
X172089363Y-80670000D01*
X171850764Y-80717460D01*
X171626008Y-80810557D01*
X171423733Y-80945713D01*
X171251713Y-81117733D01*
X171116557Y-81320008D01*
X171023460Y-81544764D01*
X170976000Y-81783363D01*
X170976000Y-82026637D01*
X171023460Y-82265236D01*
X171116557Y-82489992D01*
X171251713Y-82692267D01*
X171423733Y-82864287D01*
X171626008Y-82999443D01*
X171850764Y-83092540D01*
X172089363Y-83140000D01*
X172332637Y-83140000D01*
X172571236Y-83092540D01*
X172795992Y-82999443D01*
X172900633Y-82929524D01*
X172876000Y-83053363D01*
X172876000Y-83296637D01*
X172900633Y-83420476D01*
X172795992Y-83350557D01*
X172571236Y-83257460D01*
X172332637Y-83210000D01*
X172089363Y-83210000D01*
X171850764Y-83257460D01*
X171626008Y-83350557D01*
X171423733Y-83485713D01*
X171251713Y-83657733D01*
X171116557Y-83860008D01*
X171023460Y-84084764D01*
X170976000Y-84323363D01*
X170976000Y-84566637D01*
X171023460Y-84805236D01*
X171116557Y-85029992D01*
X171251713Y-85232267D01*
X171423733Y-85404287D01*
X171626008Y-85539443D01*
X171850764Y-85632540D01*
X172089363Y-85680000D01*
X172332637Y-85680000D01*
X172571236Y-85632540D01*
X172795992Y-85539443D01*
X172900633Y-85469524D01*
X172876000Y-85593363D01*
X172876000Y-85836637D01*
X172900633Y-85960476D01*
X172795992Y-85890557D01*
X172571236Y-85797460D01*
X172332637Y-85750000D01*
X172089363Y-85750000D01*
X171850764Y-85797460D01*
X171626008Y-85890557D01*
X171423733Y-86025713D01*
X171251713Y-86197733D01*
X171116557Y-86400008D01*
X171023460Y-86624764D01*
X170976000Y-86863363D01*
X170976000Y-87106637D01*
X171023460Y-87345236D01*
X171116557Y-87569992D01*
X171251713Y-87772267D01*
X171423733Y-87944287D01*
X171626008Y-88079443D01*
X171850764Y-88172540D01*
X172089363Y-88220000D01*
X172332637Y-88220000D01*
X172571236Y-88172540D01*
X172795992Y-88079443D01*
X172900633Y-88009524D01*
X172876000Y-88133363D01*
X172876000Y-88376637D01*
X172900633Y-88500476D01*
X172795992Y-88430557D01*
X172571236Y-88337460D01*
X172332637Y-88290000D01*
X172089363Y-88290000D01*
X171850764Y-88337460D01*
X171626008Y-88430557D01*
X171423733Y-88565713D01*
X171251713Y-88737733D01*
X171116557Y-88940008D01*
X171023460Y-89164764D01*
X170976000Y-89403363D01*
X170976000Y-89646637D01*
X171023460Y-89885236D01*
X171116557Y-90109992D01*
X171251713Y-90312267D01*
X171423733Y-90484287D01*
X171626008Y-90619443D01*
X171850764Y-90712540D01*
X172089363Y-90760000D01*
X172332637Y-90760000D01*
X172571236Y-90712540D01*
X172795992Y-90619443D01*
X172900633Y-90549524D01*
X172876000Y-90673363D01*
X172876000Y-90916637D01*
X172900633Y-91040476D01*
X172795992Y-90970557D01*
X172571236Y-90877460D01*
X172332637Y-90830000D01*
X172089363Y-90830000D01*
X171850764Y-90877460D01*
X171626008Y-90970557D01*
X171423733Y-91105713D01*
X171251713Y-91277733D01*
X171116557Y-91480008D01*
X171023460Y-91704764D01*
X170976000Y-91943363D01*
X170976000Y-92186637D01*
X171023460Y-92425236D01*
X171116557Y-92649992D01*
X171251713Y-92852267D01*
X171423733Y-93024287D01*
X171626008Y-93159443D01*
X171850764Y-93252540D01*
X172089363Y-93300000D01*
X172332637Y-93300000D01*
X172571236Y-93252540D01*
X172795992Y-93159443D01*
X172900633Y-93089524D01*
X172876000Y-93213363D01*
X172876000Y-93456637D01*
X172900633Y-93580476D01*
X172795992Y-93510557D01*
X172571236Y-93417460D01*
X172332637Y-93370000D01*
X172089363Y-93370000D01*
X171850764Y-93417460D01*
X171626008Y-93510557D01*
X171423733Y-93645713D01*
X171251713Y-93817733D01*
X171116557Y-94020008D01*
X171023460Y-94244764D01*
X170976000Y-94483363D01*
X170976000Y-94726637D01*
X171023460Y-94965236D01*
X171116557Y-95189992D01*
X171251713Y-95392267D01*
X171423733Y-95564287D01*
X171626008Y-95699443D01*
X171850764Y-95792540D01*
X172089363Y-95840000D01*
X172332637Y-95840000D01*
X172571236Y-95792540D01*
X172795992Y-95699443D01*
X172900633Y-95629524D01*
X172876000Y-95753363D01*
X172876000Y-95996637D01*
X172900633Y-96120476D01*
X172795992Y-96050557D01*
X172571236Y-95957460D01*
X172332637Y-95910000D01*
X172089363Y-95910000D01*
X171850764Y-95957460D01*
X171626008Y-96050557D01*
X171423733Y-96185713D01*
X171251713Y-96357733D01*
X171116557Y-96560008D01*
X171023460Y-96784764D01*
X170976000Y-97023363D01*
X170976000Y-97266637D01*
X171023460Y-97505236D01*
X171116557Y-97729992D01*
X171251713Y-97932267D01*
X171423733Y-98104287D01*
X171626008Y-98239443D01*
X171850764Y-98332540D01*
X172089363Y-98380000D01*
X172332637Y-98380000D01*
X172571236Y-98332540D01*
X172795992Y-98239443D01*
X172900633Y-98169524D01*
X172876000Y-98293363D01*
X172876000Y-98536637D01*
X172900633Y-98660476D01*
X172795992Y-98590557D01*
X172571236Y-98497460D01*
X172332637Y-98450000D01*
X172089363Y-98450000D01*
X171850764Y-98497460D01*
X171626008Y-98590557D01*
X171423733Y-98725713D01*
X171251713Y-98897733D01*
X171116557Y-99100008D01*
X171023460Y-99324764D01*
X170976000Y-99563363D01*
X170976000Y-99806637D01*
X171023460Y-100045236D01*
X171116557Y-100269992D01*
X171251713Y-100472267D01*
X171423733Y-100644287D01*
X171626008Y-100779443D01*
X171850764Y-100872540D01*
X172089363Y-100920000D01*
X172332637Y-100920000D01*
X172571236Y-100872540D01*
X172600415Y-100860454D01*
X172447935Y-101012934D01*
X172332637Y-100990000D01*
X172089363Y-100990000D01*
X171850764Y-101037460D01*
X171626008Y-101130557D01*
X171423733Y-101265713D01*
X171251713Y-101437733D01*
X171116557Y-101640008D01*
X171023460Y-101864764D01*
X170976000Y-102103363D01*
X170976000Y-102346637D01*
X171023460Y-102585236D01*
X171076001Y-102712081D01*
X171076000Y-103818855D01*
X171021498Y-103920820D01*
X170985188Y-104040518D01*
X170972928Y-104165000D01*
X170972928Y-105365000D01*
X170985188Y-105489482D01*
X171021498Y-105609180D01*
X171076001Y-105711146D01*
X171076000Y-116275248D01*
X171070509Y-116331000D01*
X171076000Y-116386751D01*
X171092423Y-116553498D01*
X171157324Y-116767446D01*
X171262716Y-116964623D01*
X171404551Y-117137449D01*
X171447865Y-117172996D01*
X173220545Y-118945677D01*
X173175000Y-119174645D01*
X173175000Y-119585355D01*
X173255126Y-119988172D01*
X173412297Y-120367618D01*
X173640475Y-120709110D01*
X173930890Y-120999525D01*
X174272382Y-121227703D01*
X174651828Y-121384874D01*
X175054645Y-121465000D01*
X175465355Y-121465000D01*
X175868172Y-121384874D01*
X176247618Y-121227703D01*
X176589110Y-120999525D01*
X176879525Y-120709110D01*
X177107703Y-120367618D01*
X177264874Y-119988172D01*
X177345000Y-119585355D01*
X177345000Y-119174645D01*
X177264874Y-118771828D01*
X177107703Y-118392382D01*
X176879525Y-118050890D01*
X176589110Y-117760475D01*
X176247618Y-117532297D01*
X175868172Y-117375126D01*
X175465355Y-117295000D01*
X175054645Y-117295000D01*
X174825677Y-117340545D01*
X173346000Y-115860869D01*
X173346000Y-110942516D01*
X173419313Y-111052237D01*
X173702763Y-111335687D01*
X174036066Y-111558393D01*
X174406413Y-111711796D01*
X174799570Y-111790000D01*
X175200430Y-111790000D01*
X175593587Y-111711796D01*
X175963934Y-111558393D01*
X176297237Y-111335687D01*
X176580687Y-111052237D01*
X176803393Y-110718934D01*
X176956796Y-110348587D01*
X177035000Y-109955430D01*
X177035000Y-109554570D01*
X176956796Y-109161413D01*
X176874694Y-108963202D01*
X177009419Y-108990000D01*
X177390581Y-108990000D01*
X177764419Y-108915639D01*
X178065002Y-108791134D01*
X178065001Y-118184250D01*
X178059510Y-118240001D01*
X178065001Y-118295752D01*
X178081424Y-118462499D01*
X178146325Y-118676447D01*
X178251717Y-118873624D01*
X178302555Y-118935570D01*
X178255000Y-119174645D01*
X178255000Y-119585355D01*
X178335126Y-119988172D01*
X178492297Y-120367618D01*
X178720475Y-120709110D01*
X179010890Y-120999525D01*
X179352382Y-121227703D01*
X179731828Y-121384874D01*
X180134645Y-121465000D01*
X180545355Y-121465000D01*
X180948172Y-121384874D01*
X181327618Y-121227703D01*
X181669110Y-120999525D01*
X181959525Y-120709110D01*
X182187703Y-120367618D01*
X182344874Y-119988172D01*
X182425000Y-119585355D01*
X182425000Y-119174645D01*
X182344874Y-118771828D01*
X182187703Y-118392382D01*
X181959525Y-118050890D01*
X181669110Y-117760475D01*
X181327618Y-117532297D01*
X180948172Y-117375126D01*
X180545355Y-117295000D01*
X180335001Y-117295000D01*
X180335001Y-115900132D01*
X183380545Y-118945677D01*
X183335000Y-119174645D01*
X183335000Y-119585355D01*
X183415126Y-119988172D01*
X183572297Y-120367618D01*
X183800475Y-120709110D01*
X184090890Y-120999525D01*
X184432382Y-121227703D01*
X184811828Y-121384874D01*
X185214645Y-121465000D01*
X185625355Y-121465000D01*
X186028172Y-121384874D01*
X186407618Y-121227703D01*
X186749110Y-120999525D01*
X187039525Y-120709110D01*
X187267703Y-120367618D01*
X187424874Y-119988172D01*
X187505000Y-119585355D01*
X187505000Y-119174645D01*
X188415000Y-119174645D01*
X188415000Y-119585355D01*
X188495126Y-119988172D01*
X188652297Y-120367618D01*
X188880475Y-120709110D01*
X189170890Y-120999525D01*
X189512382Y-121227703D01*
X189891828Y-121384874D01*
X190294645Y-121465000D01*
X190705355Y-121465000D01*
X191108172Y-121384874D01*
X191487618Y-121227703D01*
X191829110Y-120999525D01*
X192119525Y-120709110D01*
X192347703Y-120367618D01*
X192504874Y-119988172D01*
X192585000Y-119585355D01*
X192585000Y-119174645D01*
X192504874Y-118771828D01*
X192347703Y-118392382D01*
X192119525Y-118050890D01*
X191829110Y-117760475D01*
X191487618Y-117532297D01*
X191108172Y-117375126D01*
X190705355Y-117295000D01*
X190294645Y-117295000D01*
X189891828Y-117375126D01*
X189512382Y-117532297D01*
X189170890Y-117760475D01*
X188880475Y-118050890D01*
X188652297Y-118392382D01*
X188495126Y-118771828D01*
X188415000Y-119174645D01*
X187505000Y-119174645D01*
X187424874Y-118771828D01*
X187267703Y-118392382D01*
X187039525Y-118050890D01*
X186749110Y-117760475D01*
X186407618Y-117532297D01*
X186028172Y-117375126D01*
X185625355Y-117295000D01*
X185214645Y-117295000D01*
X184985677Y-117340545D01*
X181535011Y-113889880D01*
X181535011Y-107176191D01*
X181612641Y-107228061D01*
X181855595Y-107328696D01*
X182113514Y-107380000D01*
X182376486Y-107380000D01*
X182483844Y-107358645D01*
X191206201Y-116081003D01*
X191229999Y-116110001D01*
X191345724Y-116204974D01*
X191477753Y-116275546D01*
X191621014Y-116319003D01*
X191732667Y-116330000D01*
X191732676Y-116330000D01*
X191769999Y-116333676D01*
X191807322Y-116330000D01*
X203191822Y-116330000D01*
X203316525Y-116516632D01*
X203523368Y-116723475D01*
X203697760Y-116840000D01*
X203523368Y-116956525D01*
X203316525Y-117163368D01*
X203154010Y-117406589D01*
X203042068Y-117676842D01*
X202985000Y-117963740D01*
X202985000Y-118256260D01*
X203042068Y-118543158D01*
X203154010Y-118813411D01*
X203316525Y-119056632D01*
X203523368Y-119263475D01*
X203697760Y-119380000D01*
X203523368Y-119496525D01*
X203316525Y-119703368D01*
X203154010Y-119946589D01*
X203042068Y-120216842D01*
X202985000Y-120503740D01*
X202985000Y-120796260D01*
X203042068Y-121083158D01*
X203154010Y-121353411D01*
X203316525Y-121596632D01*
X203523368Y-121803475D01*
X203697760Y-121920000D01*
X203523368Y-122036525D01*
X203316525Y-122243368D01*
X203154010Y-122486589D01*
X203042068Y-122756842D01*
X202985000Y-123043740D01*
X202985000Y-123336260D01*
X203042068Y-123623158D01*
X203154010Y-123893411D01*
X203316525Y-124136632D01*
X203519893Y-124340000D01*
X170660000Y-124340000D01*
X170660000Y-50044570D01*
X172965000Y-50044570D01*
X172965000Y-50445430D01*
X173043204Y-50838587D01*
X173196607Y-51208934D01*
X173419313Y-51542237D01*
X173702763Y-51825687D01*
X174036066Y-52048393D01*
X174406413Y-52201796D01*
X174799570Y-52280000D01*
X175200430Y-52280000D01*
X175593587Y-52201796D01*
X175963934Y-52048393D01*
X176297237Y-51825687D01*
X176580687Y-51542237D01*
X176803393Y-51208934D01*
X176956796Y-50838587D01*
X177035000Y-50445430D01*
X177035000Y-50044570D01*
X176956796Y-49651413D01*
X176803393Y-49281066D01*
X176580687Y-48947763D01*
X176297237Y-48664313D01*
X175963934Y-48441607D01*
X175593587Y-48288204D01*
X175200430Y-48210000D01*
X174799570Y-48210000D01*
X174406413Y-48288204D01*
X174036066Y-48441607D01*
X173702763Y-48664313D01*
X173419313Y-48947763D01*
X173196607Y-49281066D01*
X173043204Y-49651413D01*
X172965000Y-50044570D01*
X170660000Y-50044570D01*
X170660000Y-38378109D01*
X172548519Y-38378109D01*
X172669186Y-38608000D01*
X173863000Y-38608000D01*
X173863000Y-37414845D01*
X174117000Y-37414845D01*
X174117000Y-38608000D01*
X176403000Y-38608000D01*
X176403000Y-37414845D01*
X176657000Y-37414845D01*
X176657000Y-38608000D01*
X178943000Y-38608000D01*
X178943000Y-37414845D01*
X179197000Y-37414845D01*
X179197000Y-38608000D01*
X181483000Y-38608000D01*
X181483000Y-37414845D01*
X181737000Y-37414845D01*
X181737000Y-38608000D01*
X184023000Y-38608000D01*
X184023000Y-37414845D01*
X184277000Y-37414845D01*
X184277000Y-38608000D01*
X186563000Y-38608000D01*
X186563000Y-37414845D01*
X186333110Y-37293524D01*
X186185901Y-37338175D01*
X185923080Y-37463359D01*
X185689731Y-37637412D01*
X185494822Y-37853645D01*
X185420000Y-37979255D01*
X185345178Y-37853645D01*
X185150269Y-37637412D01*
X184916920Y-37463359D01*
X184654099Y-37338175D01*
X184506890Y-37293524D01*
X184277000Y-37414845D01*
X184023000Y-37414845D01*
X183793110Y-37293524D01*
X183645901Y-37338175D01*
X183383080Y-37463359D01*
X183149731Y-37637412D01*
X182954822Y-37853645D01*
X182880000Y-37979255D01*
X182805178Y-37853645D01*
X182610269Y-37637412D01*
X182376920Y-37463359D01*
X182114099Y-37338175D01*
X181966890Y-37293524D01*
X181737000Y-37414845D01*
X181483000Y-37414845D01*
X181253110Y-37293524D01*
X181105901Y-37338175D01*
X180843080Y-37463359D01*
X180609731Y-37637412D01*
X180414822Y-37853645D01*
X180340000Y-37979255D01*
X180265178Y-37853645D01*
X180070269Y-37637412D01*
X179836920Y-37463359D01*
X179574099Y-37338175D01*
X179426890Y-37293524D01*
X179197000Y-37414845D01*
X178943000Y-37414845D01*
X178713110Y-37293524D01*
X178565901Y-37338175D01*
X178303080Y-37463359D01*
X178069731Y-37637412D01*
X177874822Y-37853645D01*
X177800000Y-37979255D01*
X177725178Y-37853645D01*
X177530269Y-37637412D01*
X177296920Y-37463359D01*
X177034099Y-37338175D01*
X176886890Y-37293524D01*
X176657000Y-37414845D01*
X176403000Y-37414845D01*
X176173110Y-37293524D01*
X176025901Y-37338175D01*
X175763080Y-37463359D01*
X175529731Y-37637412D01*
X175334822Y-37853645D01*
X175260000Y-37979255D01*
X175185178Y-37853645D01*
X174990269Y-37637412D01*
X174756920Y-37463359D01*
X174494099Y-37338175D01*
X174346890Y-37293524D01*
X174117000Y-37414845D01*
X173863000Y-37414845D01*
X173633110Y-37293524D01*
X173485901Y-37338175D01*
X173223080Y-37463359D01*
X172989731Y-37637412D01*
X172794822Y-37853645D01*
X172645843Y-38103748D01*
X172548519Y-38378109D01*
X170660000Y-38378109D01*
X170660000Y-35660000D01*
X194340000Y-35660000D01*
X194340000Y-40271898D01*
G36*
X194448575Y-59868450D02*
G01*
X194531052Y-59968948D01*
X194631550Y-60051425D01*
X194746207Y-60112710D01*
X194870617Y-60150450D01*
X194967581Y-60160000D01*
X195000000Y-60163193D01*
X195032419Y-60160000D01*
X208340000Y-60160000D01*
X208340000Y-60963926D01*
X208311185Y-60928815D01*
X208214494Y-60849463D01*
X208104180Y-60790498D01*
X207984482Y-60754188D01*
X207860000Y-60741928D01*
X207295750Y-60745000D01*
X207137000Y-60903750D01*
X207137000Y-62103000D01*
X207157000Y-62103000D01*
X207157000Y-62357000D01*
X207137000Y-62357000D01*
X207137000Y-64643000D01*
X207157000Y-64643000D01*
X207157000Y-64897000D01*
X207137000Y-64897000D01*
X207137000Y-67183000D01*
X207157000Y-67183000D01*
X207157000Y-67437000D01*
X207137000Y-67437000D01*
X207137000Y-69723000D01*
X207157000Y-69723000D01*
X207157000Y-69977000D01*
X207137000Y-69977000D01*
X207137000Y-72263000D01*
X207157000Y-72263000D01*
X207157000Y-72517000D01*
X207137000Y-72517000D01*
X207137000Y-74803000D01*
X207157000Y-74803000D01*
X207157000Y-75057000D01*
X207137000Y-75057000D01*
X207137000Y-77343000D01*
X207157000Y-77343000D01*
X207157000Y-77597000D01*
X207137000Y-77597000D01*
X207137000Y-79883000D01*
X207157000Y-79883000D01*
X207157000Y-80137000D01*
X207137000Y-80137000D01*
X207137000Y-82423000D01*
X207157000Y-82423000D01*
X207157000Y-82677000D01*
X207137000Y-82677000D01*
X207137000Y-84963000D01*
X207157000Y-84963000D01*
X207157000Y-85217000D01*
X207137000Y-85217000D01*
X207137000Y-87503000D01*
X207157000Y-87503000D01*
X207157000Y-87757000D01*
X207137000Y-87757000D01*
X207137000Y-90043000D01*
X207157000Y-90043000D01*
X207157000Y-90297000D01*
X207137000Y-90297000D01*
X207137000Y-90317000D01*
X206883000Y-90317000D01*
X206883000Y-90297000D01*
X204597000Y-90297000D01*
X204597000Y-90317000D01*
X204343000Y-90317000D01*
X204343000Y-90297000D01*
X203149845Y-90297000D01*
X203028524Y-90526890D01*
X203073175Y-90674099D01*
X203198359Y-90936920D01*
X203372412Y-91170269D01*
X203588645Y-91365178D01*
X203705534Y-91434805D01*
X203523368Y-91556525D01*
X203316525Y-91763368D01*
X203154010Y-92006589D01*
X203042068Y-92276842D01*
X202985000Y-92563740D01*
X202985000Y-92856260D01*
X203042068Y-93143158D01*
X203154010Y-93413411D01*
X203316525Y-93656632D01*
X203523368Y-93863475D01*
X203705534Y-93985195D01*
X203588645Y-94054822D01*
X203372412Y-94249731D01*
X203198359Y-94483080D01*
X203073175Y-94745901D01*
X203028524Y-94893110D01*
X203149845Y-95123000D01*
X204343000Y-95123000D01*
X204343000Y-95103000D01*
X204597000Y-95103000D01*
X204597000Y-95123000D01*
X206883000Y-95123000D01*
X206883000Y-95103000D01*
X207137000Y-95103000D01*
X207137000Y-95123000D01*
X207157000Y-95123000D01*
X207157000Y-95377000D01*
X207137000Y-95377000D01*
X207137000Y-97663000D01*
X207157000Y-97663000D01*
X207157000Y-97917000D01*
X207137000Y-97917000D01*
X207137000Y-100203000D01*
X207157000Y-100203000D01*
X207157000Y-100457000D01*
X207137000Y-100457000D01*
X207137000Y-102743000D01*
X207157000Y-102743000D01*
X207157000Y-102997000D01*
X207137000Y-102997000D01*
X207137000Y-105283000D01*
X207157000Y-105283000D01*
X207157000Y-105537000D01*
X207137000Y-105537000D01*
X207137000Y-107823000D01*
X207157000Y-107823000D01*
X207157000Y-108077000D01*
X207137000Y-108077000D01*
X207137000Y-110363000D01*
X207157000Y-110363000D01*
X207157000Y-110617000D01*
X207137000Y-110617000D01*
X207137000Y-112903000D01*
X207157000Y-112903000D01*
X207157000Y-113157000D01*
X207137000Y-113157000D01*
X207137000Y-115443000D01*
X207157000Y-115443000D01*
X207157000Y-115697000D01*
X207137000Y-115697000D01*
X207137000Y-117983000D01*
X207157000Y-117983000D01*
X207157000Y-118237000D01*
X207137000Y-118237000D01*
X207137000Y-120523000D01*
X207157000Y-120523000D01*
X207157000Y-120777000D01*
X207137000Y-120777000D01*
X207137000Y-123063000D01*
X207157000Y-123063000D01*
X207157000Y-123317000D01*
X207137000Y-123317000D01*
X207137000Y-123337000D01*
X206883000Y-123337000D01*
X206883000Y-123317000D01*
X206863000Y-123317000D01*
X206863000Y-123063000D01*
X206883000Y-123063000D01*
X206883000Y-120777000D01*
X206863000Y-120777000D01*
X206863000Y-120523000D01*
X206883000Y-120523000D01*
X206883000Y-118237000D01*
X206863000Y-118237000D01*
X206863000Y-117983000D01*
X206883000Y-117983000D01*
X206883000Y-115697000D01*
X206863000Y-115697000D01*
X206863000Y-115443000D01*
X206883000Y-115443000D01*
X206883000Y-113157000D01*
X206863000Y-113157000D01*
X206863000Y-112903000D01*
X206883000Y-112903000D01*
X206883000Y-110617000D01*
X206863000Y-110617000D01*
X206863000Y-110363000D01*
X206883000Y-110363000D01*
X206883000Y-108077000D01*
X206863000Y-108077000D01*
X206863000Y-107823000D01*
X206883000Y-107823000D01*
X206883000Y-105537000D01*
X206863000Y-105537000D01*
X206863000Y-105283000D01*
X206883000Y-105283000D01*
X206883000Y-102997000D01*
X204597000Y-102997000D01*
X204597000Y-103017000D01*
X204343000Y-103017000D01*
X204343000Y-102997000D01*
X203149845Y-102997000D01*
X203028524Y-103226890D01*
X203073175Y-103374099D01*
X203198359Y-103636920D01*
X203372412Y-103870269D01*
X203588645Y-104065178D01*
X203705534Y-104134805D01*
X203523368Y-104256525D01*
X203316525Y-104463368D01*
X203154010Y-104706589D01*
X203042068Y-104976842D01*
X202985000Y-105263740D01*
X202985000Y-105556260D01*
X203042068Y-105843158D01*
X203154010Y-106113411D01*
X203316525Y-106356632D01*
X203523368Y-106563475D01*
X203697760Y-106680000D01*
X203523368Y-106796525D01*
X203316525Y-107003368D01*
X203191822Y-107190000D01*
X192459322Y-107190000D01*
X192621013Y-107081962D01*
X192806962Y-106896013D01*
X192867775Y-106805000D01*
X192917678Y-106805000D01*
X192955000Y-106808676D01*
X192992322Y-106805000D01*
X192992333Y-106805000D01*
X193103986Y-106794003D01*
X193247247Y-106750546D01*
X193379276Y-106679974D01*
X193495001Y-106585001D01*
X193518803Y-106555998D01*
X194186002Y-105888799D01*
X194215001Y-105865001D01*
X194309974Y-105749276D01*
X194380546Y-105617247D01*
X194424003Y-105473986D01*
X194435000Y-105362333D01*
X194435000Y-105362325D01*
X194438676Y-105325000D01*
X194435000Y-105287675D01*
X194435000Y-100183740D01*
X202985000Y-100183740D01*
X202985000Y-100476260D01*
X203042068Y-100763158D01*
X203154010Y-101033411D01*
X203316525Y-101276632D01*
X203523368Y-101483475D01*
X203705534Y-101605195D01*
X203588645Y-101674822D01*
X203372412Y-101869731D01*
X203198359Y-102103080D01*
X203073175Y-102365901D01*
X203028524Y-102513110D01*
X203149845Y-102743000D01*
X204343000Y-102743000D01*
X204343000Y-102723000D01*
X204597000Y-102723000D01*
X204597000Y-102743000D01*
X206883000Y-102743000D01*
X206883000Y-100457000D01*
X206863000Y-100457000D01*
X206863000Y-100203000D01*
X206883000Y-100203000D01*
X206883000Y-97917000D01*
X204597000Y-97917000D01*
X204597000Y-97937000D01*
X204343000Y-97937000D01*
X204343000Y-97917000D01*
X203149845Y-97917000D01*
X203028524Y-98146890D01*
X203073175Y-98294099D01*
X203198359Y-98556920D01*
X203372412Y-98790269D01*
X203588645Y-98985178D01*
X203705534Y-99054805D01*
X203523368Y-99176525D01*
X203316525Y-99383368D01*
X203154010Y-99626589D01*
X203042068Y-99896842D01*
X202985000Y-100183740D01*
X194435000Y-100183740D01*
X194435000Y-95606890D01*
X203028524Y-95606890D01*
X203073175Y-95754099D01*
X203198359Y-96016920D01*
X203372412Y-96250269D01*
X203588645Y-96445178D01*
X203714255Y-96520000D01*
X203588645Y-96594822D01*
X203372412Y-96789731D01*
X203198359Y-97023080D01*
X203073175Y-97285901D01*
X203028524Y-97433110D01*
X203149845Y-97663000D01*
X204343000Y-97663000D01*
X204343000Y-95377000D01*
X204597000Y-95377000D01*
X204597000Y-97663000D01*
X206883000Y-97663000D01*
X206883000Y-95377000D01*
X204597000Y-95377000D01*
X204343000Y-95377000D01*
X203149845Y-95377000D01*
X203028524Y-95606890D01*
X194435000Y-95606890D01*
X194435000Y-87986890D01*
X203028524Y-87986890D01*
X203073175Y-88134099D01*
X203198359Y-88396920D01*
X203372412Y-88630269D01*
X203588645Y-88825178D01*
X203714255Y-88900000D01*
X203588645Y-88974822D01*
X203372412Y-89169731D01*
X203198359Y-89403080D01*
X203073175Y-89665901D01*
X203028524Y-89813110D01*
X203149845Y-90043000D01*
X204343000Y-90043000D01*
X204343000Y-87757000D01*
X204597000Y-87757000D01*
X204597000Y-90043000D01*
X206883000Y-90043000D01*
X206883000Y-87757000D01*
X204597000Y-87757000D01*
X204343000Y-87757000D01*
X203149845Y-87757000D01*
X203028524Y-87986890D01*
X194435000Y-87986890D01*
X194435000Y-85446890D01*
X203028524Y-85446890D01*
X203073175Y-85594099D01*
X203198359Y-85856920D01*
X203372412Y-86090269D01*
X203588645Y-86285178D01*
X203714255Y-86360000D01*
X203588645Y-86434822D01*
X203372412Y-86629731D01*
X203198359Y-86863080D01*
X203073175Y-87125901D01*
X203028524Y-87273110D01*
X203149845Y-87503000D01*
X204343000Y-87503000D01*
X204343000Y-85217000D01*
X204597000Y-85217000D01*
X204597000Y-87503000D01*
X206883000Y-87503000D01*
X206883000Y-85217000D01*
X204597000Y-85217000D01*
X204343000Y-85217000D01*
X203149845Y-85217000D01*
X203028524Y-85446890D01*
X194435000Y-85446890D01*
X194435000Y-62083740D01*
X202985000Y-62083740D01*
X202985000Y-62376260D01*
X203042068Y-62663158D01*
X203154010Y-62933411D01*
X203316525Y-63176632D01*
X203523368Y-63383475D01*
X203697760Y-63500000D01*
X203523368Y-63616525D01*
X203316525Y-63823368D01*
X203154010Y-64066589D01*
X203042068Y-64336842D01*
X202985000Y-64623740D01*
X202985000Y-64916260D01*
X203042068Y-65203158D01*
X203154010Y-65473411D01*
X203316525Y-65716632D01*
X203523368Y-65923475D01*
X203697760Y-66040000D01*
X203523368Y-66156525D01*
X203316525Y-66363368D01*
X203154010Y-66606589D01*
X203042068Y-66876842D01*
X202985000Y-67163740D01*
X202985000Y-67456260D01*
X203042068Y-67743158D01*
X203154010Y-68013411D01*
X203316525Y-68256632D01*
X203523368Y-68463475D01*
X203697760Y-68580000D01*
X203523368Y-68696525D01*
X203316525Y-68903368D01*
X203154010Y-69146589D01*
X203042068Y-69416842D01*
X202985000Y-69703740D01*
X202985000Y-69996260D01*
X203042068Y-70283158D01*
X203154010Y-70553411D01*
X203316525Y-70796632D01*
X203523368Y-71003475D01*
X203697760Y-71120000D01*
X203523368Y-71236525D01*
X203316525Y-71443368D01*
X203154010Y-71686589D01*
X203042068Y-71956842D01*
X202985000Y-72243740D01*
X202985000Y-72536260D01*
X203042068Y-72823158D01*
X203154010Y-73093411D01*
X203316525Y-73336632D01*
X203523368Y-73543475D01*
X203697760Y-73660000D01*
X203523368Y-73776525D01*
X203316525Y-73983368D01*
X203154010Y-74226589D01*
X203042068Y-74496842D01*
X202985000Y-74783740D01*
X202985000Y-75076260D01*
X203042068Y-75363158D01*
X203154010Y-75633411D01*
X203316525Y-75876632D01*
X203523368Y-76083475D01*
X203697760Y-76200000D01*
X203523368Y-76316525D01*
X203316525Y-76523368D01*
X203154010Y-76766589D01*
X203042068Y-77036842D01*
X202985000Y-77323740D01*
X202985000Y-77616260D01*
X203042068Y-77903158D01*
X203154010Y-78173411D01*
X203316525Y-78416632D01*
X203523368Y-78623475D01*
X203697760Y-78740000D01*
X203523368Y-78856525D01*
X203316525Y-79063368D01*
X203154010Y-79306589D01*
X203042068Y-79576842D01*
X202985000Y-79863740D01*
X202985000Y-80156260D01*
X203042068Y-80443158D01*
X203154010Y-80713411D01*
X203316525Y-80956632D01*
X203523368Y-81163475D01*
X203697760Y-81280000D01*
X203523368Y-81396525D01*
X203316525Y-81603368D01*
X203154010Y-81846589D01*
X203042068Y-82116842D01*
X202985000Y-82403740D01*
X202985000Y-82696260D01*
X203042068Y-82983158D01*
X203154010Y-83253411D01*
X203316525Y-83496632D01*
X203523368Y-83703475D01*
X203705534Y-83825195D01*
X203588645Y-83894822D01*
X203372412Y-84089731D01*
X203198359Y-84323080D01*
X203073175Y-84585901D01*
X203028524Y-84733110D01*
X203149845Y-84963000D01*
X204343000Y-84963000D01*
X204343000Y-84943000D01*
X204597000Y-84943000D01*
X204597000Y-84963000D01*
X206883000Y-84963000D01*
X206883000Y-82677000D01*
X206863000Y-82677000D01*
X206863000Y-82423000D01*
X206883000Y-82423000D01*
X206883000Y-80137000D01*
X206863000Y-80137000D01*
X206863000Y-79883000D01*
X206883000Y-79883000D01*
X206883000Y-77597000D01*
X206863000Y-77597000D01*
X206863000Y-77343000D01*
X206883000Y-77343000D01*
X206883000Y-75057000D01*
X206863000Y-75057000D01*
X206863000Y-74803000D01*
X206883000Y-74803000D01*
X206883000Y-72517000D01*
X206863000Y-72517000D01*
X206863000Y-72263000D01*
X206883000Y-72263000D01*
X206883000Y-69977000D01*
X206863000Y-69977000D01*
X206863000Y-69723000D01*
X206883000Y-69723000D01*
X206883000Y-67437000D01*
X206863000Y-67437000D01*
X206863000Y-67183000D01*
X206883000Y-67183000D01*
X206883000Y-64897000D01*
X206863000Y-64897000D01*
X206863000Y-64643000D01*
X206883000Y-64643000D01*
X206883000Y-62357000D01*
X206863000Y-62357000D01*
X206863000Y-62103000D01*
X206883000Y-62103000D01*
X206883000Y-60903750D01*
X206724250Y-60745000D01*
X206160000Y-60741928D01*
X206035518Y-60754188D01*
X205915820Y-60790498D01*
X205805506Y-60849463D01*
X205708815Y-60928815D01*
X205629463Y-61025506D01*
X205570498Y-61135820D01*
X205548487Y-61208380D01*
X205416632Y-61076525D01*
X205173411Y-60914010D01*
X204903158Y-60802068D01*
X204616260Y-60745000D01*
X204323740Y-60745000D01*
X204036842Y-60802068D01*
X203766589Y-60914010D01*
X203523368Y-61076525D01*
X203316525Y-61283368D01*
X203154010Y-61526589D01*
X203042068Y-61796842D01*
X202985000Y-62083740D01*
X194435000Y-62083740D01*
X194435000Y-59843053D01*
X194448575Y-59868450D01*
G37*
X194448575Y-59868450D02*
X194531052Y-59968948D01*
X194631550Y-60051425D01*
X194746207Y-60112710D01*
X194870617Y-60150450D01*
X194967581Y-60160000D01*
X195000000Y-60163193D01*
X195032419Y-60160000D01*
X208340000Y-60160000D01*
X208340000Y-60963926D01*
X208311185Y-60928815D01*
X208214494Y-60849463D01*
X208104180Y-60790498D01*
X207984482Y-60754188D01*
X207860000Y-60741928D01*
X207295750Y-60745000D01*
X207137000Y-60903750D01*
X207137000Y-62103000D01*
X207157000Y-62103000D01*
X207157000Y-62357000D01*
X207137000Y-62357000D01*
X207137000Y-64643000D01*
X207157000Y-64643000D01*
X207157000Y-64897000D01*
X207137000Y-64897000D01*
X207137000Y-67183000D01*
X207157000Y-67183000D01*
X207157000Y-67437000D01*
X207137000Y-67437000D01*
X207137000Y-69723000D01*
X207157000Y-69723000D01*
X207157000Y-69977000D01*
X207137000Y-69977000D01*
X207137000Y-72263000D01*
X207157000Y-72263000D01*
X207157000Y-72517000D01*
X207137000Y-72517000D01*
X207137000Y-74803000D01*
X207157000Y-74803000D01*
X207157000Y-75057000D01*
X207137000Y-75057000D01*
X207137000Y-77343000D01*
X207157000Y-77343000D01*
X207157000Y-77597000D01*
X207137000Y-77597000D01*
X207137000Y-79883000D01*
X207157000Y-79883000D01*
X207157000Y-80137000D01*
X207137000Y-80137000D01*
X207137000Y-82423000D01*
X207157000Y-82423000D01*
X207157000Y-82677000D01*
X207137000Y-82677000D01*
X207137000Y-84963000D01*
X207157000Y-84963000D01*
X207157000Y-85217000D01*
X207137000Y-85217000D01*
X207137000Y-87503000D01*
X207157000Y-87503000D01*
X207157000Y-87757000D01*
X207137000Y-87757000D01*
X207137000Y-90043000D01*
X207157000Y-90043000D01*
X207157000Y-90297000D01*
X207137000Y-90297000D01*
X207137000Y-90317000D01*
X206883000Y-90317000D01*
X206883000Y-90297000D01*
X204597000Y-90297000D01*
X204597000Y-90317000D01*
X204343000Y-90317000D01*
X204343000Y-90297000D01*
X203149845Y-90297000D01*
X203028524Y-90526890D01*
X203073175Y-90674099D01*
X203198359Y-90936920D01*
X203372412Y-91170269D01*
X203588645Y-91365178D01*
X203705534Y-91434805D01*
X203523368Y-91556525D01*
X203316525Y-91763368D01*
X203154010Y-92006589D01*
X203042068Y-92276842D01*
X202985000Y-92563740D01*
X202985000Y-92856260D01*
X203042068Y-93143158D01*
X203154010Y-93413411D01*
X203316525Y-93656632D01*
X203523368Y-93863475D01*
X203705534Y-93985195D01*
X203588645Y-94054822D01*
X203372412Y-94249731D01*
X203198359Y-94483080D01*
X203073175Y-94745901D01*
X203028524Y-94893110D01*
X203149845Y-95123000D01*
X204343000Y-95123000D01*
X204343000Y-95103000D01*
X204597000Y-95103000D01*
X204597000Y-95123000D01*
X206883000Y-95123000D01*
X206883000Y-95103000D01*
X207137000Y-95103000D01*
X207137000Y-95123000D01*
X207157000Y-95123000D01*
X207157000Y-95377000D01*
X207137000Y-95377000D01*
X207137000Y-97663000D01*
X207157000Y-97663000D01*
X207157000Y-97917000D01*
X207137000Y-97917000D01*
X207137000Y-100203000D01*
X207157000Y-100203000D01*
X207157000Y-100457000D01*
X207137000Y-100457000D01*
X207137000Y-102743000D01*
X207157000Y-102743000D01*
X207157000Y-102997000D01*
X207137000Y-102997000D01*
X207137000Y-105283000D01*
X207157000Y-105283000D01*
X207157000Y-105537000D01*
X207137000Y-105537000D01*
X207137000Y-107823000D01*
X207157000Y-107823000D01*
X207157000Y-108077000D01*
X207137000Y-108077000D01*
X207137000Y-110363000D01*
X207157000Y-110363000D01*
X207157000Y-110617000D01*
X207137000Y-110617000D01*
X207137000Y-112903000D01*
X207157000Y-112903000D01*
X207157000Y-113157000D01*
X207137000Y-113157000D01*
X207137000Y-115443000D01*
X207157000Y-115443000D01*
X207157000Y-115697000D01*
X207137000Y-115697000D01*
X207137000Y-117983000D01*
X207157000Y-117983000D01*
X207157000Y-118237000D01*
X207137000Y-118237000D01*
X207137000Y-120523000D01*
X207157000Y-120523000D01*
X207157000Y-120777000D01*
X207137000Y-120777000D01*
X207137000Y-123063000D01*
X207157000Y-123063000D01*
X207157000Y-123317000D01*
X207137000Y-123317000D01*
X207137000Y-123337000D01*
X206883000Y-123337000D01*
X206883000Y-123317000D01*
X206863000Y-123317000D01*
X206863000Y-123063000D01*
X206883000Y-123063000D01*
X206883000Y-120777000D01*
X206863000Y-120777000D01*
X206863000Y-120523000D01*
X206883000Y-120523000D01*
X206883000Y-118237000D01*
X206863000Y-118237000D01*
X206863000Y-117983000D01*
X206883000Y-117983000D01*
X206883000Y-115697000D01*
X206863000Y-115697000D01*
X206863000Y-115443000D01*
X206883000Y-115443000D01*
X206883000Y-113157000D01*
X206863000Y-113157000D01*
X206863000Y-112903000D01*
X206883000Y-112903000D01*
X206883000Y-110617000D01*
X206863000Y-110617000D01*
X206863000Y-110363000D01*
X206883000Y-110363000D01*
X206883000Y-108077000D01*
X206863000Y-108077000D01*
X206863000Y-107823000D01*
X206883000Y-107823000D01*
X206883000Y-105537000D01*
X206863000Y-105537000D01*
X206863000Y-105283000D01*
X206883000Y-105283000D01*
X206883000Y-102997000D01*
X204597000Y-102997000D01*
X204597000Y-103017000D01*
X204343000Y-103017000D01*
X204343000Y-102997000D01*
X203149845Y-102997000D01*
X203028524Y-103226890D01*
X203073175Y-103374099D01*
X203198359Y-103636920D01*
X203372412Y-103870269D01*
X203588645Y-104065178D01*
X203705534Y-104134805D01*
X203523368Y-104256525D01*
X203316525Y-104463368D01*
X203154010Y-104706589D01*
X203042068Y-104976842D01*
X202985000Y-105263740D01*
X202985000Y-105556260D01*
X203042068Y-105843158D01*
X203154010Y-106113411D01*
X203316525Y-106356632D01*
X203523368Y-106563475D01*
X203697760Y-106680000D01*
X203523368Y-106796525D01*
X203316525Y-107003368D01*
X203191822Y-107190000D01*
X192459322Y-107190000D01*
X192621013Y-107081962D01*
X192806962Y-106896013D01*
X192867775Y-106805000D01*
X192917678Y-106805000D01*
X192955000Y-106808676D01*
X192992322Y-106805000D01*
X192992333Y-106805000D01*
X193103986Y-106794003D01*
X193247247Y-106750546D01*
X193379276Y-106679974D01*
X193495001Y-106585001D01*
X193518803Y-106555998D01*
X194186002Y-105888799D01*
X194215001Y-105865001D01*
X194309974Y-105749276D01*
X194380546Y-105617247D01*
X194424003Y-105473986D01*
X194435000Y-105362333D01*
X194435000Y-105362325D01*
X194438676Y-105325000D01*
X194435000Y-105287675D01*
X194435000Y-100183740D01*
X202985000Y-100183740D01*
X202985000Y-100476260D01*
X203042068Y-100763158D01*
X203154010Y-101033411D01*
X203316525Y-101276632D01*
X203523368Y-101483475D01*
X203705534Y-101605195D01*
X203588645Y-101674822D01*
X203372412Y-101869731D01*
X203198359Y-102103080D01*
X203073175Y-102365901D01*
X203028524Y-102513110D01*
X203149845Y-102743000D01*
X204343000Y-102743000D01*
X204343000Y-102723000D01*
X204597000Y-102723000D01*
X204597000Y-102743000D01*
X206883000Y-102743000D01*
X206883000Y-100457000D01*
X206863000Y-100457000D01*
X206863000Y-100203000D01*
X206883000Y-100203000D01*
X206883000Y-97917000D01*
X204597000Y-97917000D01*
X204597000Y-97937000D01*
X204343000Y-97937000D01*
X204343000Y-97917000D01*
X203149845Y-97917000D01*
X203028524Y-98146890D01*
X203073175Y-98294099D01*
X203198359Y-98556920D01*
X203372412Y-98790269D01*
X203588645Y-98985178D01*
X203705534Y-99054805D01*
X203523368Y-99176525D01*
X203316525Y-99383368D01*
X203154010Y-99626589D01*
X203042068Y-99896842D01*
X202985000Y-100183740D01*
X194435000Y-100183740D01*
X194435000Y-95606890D01*
X203028524Y-95606890D01*
X203073175Y-95754099D01*
X203198359Y-96016920D01*
X203372412Y-96250269D01*
X203588645Y-96445178D01*
X203714255Y-96520000D01*
X203588645Y-96594822D01*
X203372412Y-96789731D01*
X203198359Y-97023080D01*
X203073175Y-97285901D01*
X203028524Y-97433110D01*
X203149845Y-97663000D01*
X204343000Y-97663000D01*
X204343000Y-95377000D01*
X204597000Y-95377000D01*
X204597000Y-97663000D01*
X206883000Y-97663000D01*
X206883000Y-95377000D01*
X204597000Y-95377000D01*
X204343000Y-95377000D01*
X203149845Y-95377000D01*
X203028524Y-95606890D01*
X194435000Y-95606890D01*
X194435000Y-87986890D01*
X203028524Y-87986890D01*
X203073175Y-88134099D01*
X203198359Y-88396920D01*
X203372412Y-88630269D01*
X203588645Y-88825178D01*
X203714255Y-88900000D01*
X203588645Y-88974822D01*
X203372412Y-89169731D01*
X203198359Y-89403080D01*
X203073175Y-89665901D01*
X203028524Y-89813110D01*
X203149845Y-90043000D01*
X204343000Y-90043000D01*
X204343000Y-87757000D01*
X204597000Y-87757000D01*
X204597000Y-90043000D01*
X206883000Y-90043000D01*
X206883000Y-87757000D01*
X204597000Y-87757000D01*
X204343000Y-87757000D01*
X203149845Y-87757000D01*
X203028524Y-87986890D01*
X194435000Y-87986890D01*
X194435000Y-85446890D01*
X203028524Y-85446890D01*
X203073175Y-85594099D01*
X203198359Y-85856920D01*
X203372412Y-86090269D01*
X203588645Y-86285178D01*
X203714255Y-86360000D01*
X203588645Y-86434822D01*
X203372412Y-86629731D01*
X203198359Y-86863080D01*
X203073175Y-87125901D01*
X203028524Y-87273110D01*
X203149845Y-87503000D01*
X204343000Y-87503000D01*
X204343000Y-85217000D01*
X204597000Y-85217000D01*
X204597000Y-87503000D01*
X206883000Y-87503000D01*
X206883000Y-85217000D01*
X204597000Y-85217000D01*
X204343000Y-85217000D01*
X203149845Y-85217000D01*
X203028524Y-85446890D01*
X194435000Y-85446890D01*
X194435000Y-62083740D01*
X202985000Y-62083740D01*
X202985000Y-62376260D01*
X203042068Y-62663158D01*
X203154010Y-62933411D01*
X203316525Y-63176632D01*
X203523368Y-63383475D01*
X203697760Y-63500000D01*
X203523368Y-63616525D01*
X203316525Y-63823368D01*
X203154010Y-64066589D01*
X203042068Y-64336842D01*
X202985000Y-64623740D01*
X202985000Y-64916260D01*
X203042068Y-65203158D01*
X203154010Y-65473411D01*
X203316525Y-65716632D01*
X203523368Y-65923475D01*
X203697760Y-66040000D01*
X203523368Y-66156525D01*
X203316525Y-66363368D01*
X203154010Y-66606589D01*
X203042068Y-66876842D01*
X202985000Y-67163740D01*
X202985000Y-67456260D01*
X203042068Y-67743158D01*
X203154010Y-68013411D01*
X203316525Y-68256632D01*
X203523368Y-68463475D01*
X203697760Y-68580000D01*
X203523368Y-68696525D01*
X203316525Y-68903368D01*
X203154010Y-69146589D01*
X203042068Y-69416842D01*
X202985000Y-69703740D01*
X202985000Y-69996260D01*
X203042068Y-70283158D01*
X203154010Y-70553411D01*
X203316525Y-70796632D01*
X203523368Y-71003475D01*
X203697760Y-71120000D01*
X203523368Y-71236525D01*
X203316525Y-71443368D01*
X203154010Y-71686589D01*
X203042068Y-71956842D01*
X202985000Y-72243740D01*
X202985000Y-72536260D01*
X203042068Y-72823158D01*
X203154010Y-73093411D01*
X203316525Y-73336632D01*
X203523368Y-73543475D01*
X203697760Y-73660000D01*
X203523368Y-73776525D01*
X203316525Y-73983368D01*
X203154010Y-74226589D01*
X203042068Y-74496842D01*
X202985000Y-74783740D01*
X202985000Y-75076260D01*
X203042068Y-75363158D01*
X203154010Y-75633411D01*
X203316525Y-75876632D01*
X203523368Y-76083475D01*
X203697760Y-76200000D01*
X203523368Y-76316525D01*
X203316525Y-76523368D01*
X203154010Y-76766589D01*
X203042068Y-77036842D01*
X202985000Y-77323740D01*
X202985000Y-77616260D01*
X203042068Y-77903158D01*
X203154010Y-78173411D01*
X203316525Y-78416632D01*
X203523368Y-78623475D01*
X203697760Y-78740000D01*
X203523368Y-78856525D01*
X203316525Y-79063368D01*
X203154010Y-79306589D01*
X203042068Y-79576842D01*
X202985000Y-79863740D01*
X202985000Y-80156260D01*
X203042068Y-80443158D01*
X203154010Y-80713411D01*
X203316525Y-80956632D01*
X203523368Y-81163475D01*
X203697760Y-81280000D01*
X203523368Y-81396525D01*
X203316525Y-81603368D01*
X203154010Y-81846589D01*
X203042068Y-82116842D01*
X202985000Y-82403740D01*
X202985000Y-82696260D01*
X203042068Y-82983158D01*
X203154010Y-83253411D01*
X203316525Y-83496632D01*
X203523368Y-83703475D01*
X203705534Y-83825195D01*
X203588645Y-83894822D01*
X203372412Y-84089731D01*
X203198359Y-84323080D01*
X203073175Y-84585901D01*
X203028524Y-84733110D01*
X203149845Y-84963000D01*
X204343000Y-84963000D01*
X204343000Y-84943000D01*
X204597000Y-84943000D01*
X204597000Y-84963000D01*
X206883000Y-84963000D01*
X206883000Y-82677000D01*
X206863000Y-82677000D01*
X206863000Y-82423000D01*
X206883000Y-82423000D01*
X206883000Y-80137000D01*
X206863000Y-80137000D01*
X206863000Y-79883000D01*
X206883000Y-79883000D01*
X206883000Y-77597000D01*
X206863000Y-77597000D01*
X206863000Y-77343000D01*
X206883000Y-77343000D01*
X206883000Y-75057000D01*
X206863000Y-75057000D01*
X206863000Y-74803000D01*
X206883000Y-74803000D01*
X206883000Y-72517000D01*
X206863000Y-72517000D01*
X206863000Y-72263000D01*
X206883000Y-72263000D01*
X206883000Y-69977000D01*
X206863000Y-69977000D01*
X206863000Y-69723000D01*
X206883000Y-69723000D01*
X206883000Y-67437000D01*
X206863000Y-67437000D01*
X206863000Y-67183000D01*
X206883000Y-67183000D01*
X206883000Y-64897000D01*
X206863000Y-64897000D01*
X206863000Y-64643000D01*
X206883000Y-64643000D01*
X206883000Y-62357000D01*
X206863000Y-62357000D01*
X206863000Y-62103000D01*
X206883000Y-62103000D01*
X206883000Y-60903750D01*
X206724250Y-60745000D01*
X206160000Y-60741928D01*
X206035518Y-60754188D01*
X205915820Y-60790498D01*
X205805506Y-60849463D01*
X205708815Y-60928815D01*
X205629463Y-61025506D01*
X205570498Y-61135820D01*
X205548487Y-61208380D01*
X205416632Y-61076525D01*
X205173411Y-60914010D01*
X204903158Y-60802068D01*
X204616260Y-60745000D01*
X204323740Y-60745000D01*
X204036842Y-60802068D01*
X203766589Y-60914010D01*
X203523368Y-61076525D01*
X203316525Y-61283368D01*
X203154010Y-61526589D01*
X203042068Y-61796842D01*
X202985000Y-62083740D01*
X194435000Y-62083740D01*
X194435000Y-59843053D01*
X194448575Y-59868450D01*
G36*
X205912412Y-114030269D02*
G01*
X206128645Y-114225178D01*
X206254255Y-114300000D01*
X206128645Y-114374822D01*
X205912412Y-114569731D01*
X205741100Y-114799406D01*
X205623475Y-114623368D01*
X205416632Y-114416525D01*
X205242240Y-114300000D01*
X205416632Y-114183475D01*
X205623475Y-113976632D01*
X205741100Y-113800594D01*
X205912412Y-114030269D01*
G37*
X205912412Y-114030269D02*
X206128645Y-114225178D01*
X206254255Y-114300000D01*
X206128645Y-114374822D01*
X205912412Y-114569731D01*
X205741100Y-114799406D01*
X205623475Y-114623368D01*
X205416632Y-114416525D01*
X205242240Y-114300000D01*
X205416632Y-114183475D01*
X205623475Y-113976632D01*
X205741100Y-113800594D01*
X205912412Y-114030269D01*
G36*
X178104748Y-65380858D02*
G01*
X178090605Y-65395000D01*
X178760764Y-66065159D01*
X178984348Y-66017852D01*
X179085237Y-65796484D01*
X179116137Y-65665268D01*
X179265012Y-65814144D01*
X179265011Y-103243879D01*
X179057983Y-103036852D01*
X179046000Y-103007921D01*
X179046000Y-101442079D01*
X179098540Y-101315236D01*
X179146000Y-101076637D01*
X179146000Y-100833363D01*
X179098540Y-100594764D01*
X179005443Y-100370008D01*
X178870287Y-100167733D01*
X178698267Y-99995713D01*
X178495992Y-99860557D01*
X178271236Y-99767460D01*
X178032637Y-99720000D01*
X177789363Y-99720000D01*
X177550764Y-99767460D01*
X177326008Y-99860557D01*
X177221367Y-99930476D01*
X177246000Y-99806637D01*
X177246000Y-99563363D01*
X177198540Y-99324764D01*
X177193357Y-99312251D01*
X177240842Y-99264766D01*
X177288148Y-99488348D01*
X177509516Y-99589237D01*
X177746313Y-99645000D01*
X177989438Y-99653495D01*
X178229549Y-99614395D01*
X178457418Y-99529202D01*
X178533852Y-99488348D01*
X178581159Y-99264764D01*
X177911000Y-98594605D01*
X177896858Y-98608748D01*
X177717253Y-98429143D01*
X177731395Y-98415000D01*
X178090605Y-98415000D01*
X178760764Y-99085159D01*
X178984348Y-99037852D01*
X179085237Y-98816484D01*
X179141000Y-98579687D01*
X179149495Y-98336562D01*
X179110395Y-98096451D01*
X179025202Y-97868582D01*
X178984348Y-97792148D01*
X178760764Y-97744841D01*
X178090605Y-98415000D01*
X177731395Y-98415000D01*
X177717253Y-98400858D01*
X177896858Y-98221253D01*
X177911000Y-98235395D01*
X178581159Y-97565236D01*
X178533852Y-97341652D01*
X178312484Y-97240763D01*
X178075687Y-97185000D01*
X177832562Y-97176505D01*
X177592451Y-97215605D01*
X177364582Y-97300798D01*
X177288148Y-97341652D01*
X177240842Y-97565234D01*
X177192262Y-97516654D01*
X177241000Y-97309687D01*
X177249495Y-97066562D01*
X177210395Y-96826451D01*
X177191009Y-96774599D01*
X177240842Y-96724766D01*
X177288148Y-96948348D01*
X177509516Y-97049237D01*
X177746313Y-97105000D01*
X177989438Y-97113495D01*
X178229549Y-97074395D01*
X178457418Y-96989202D01*
X178533852Y-96948348D01*
X178581159Y-96724764D01*
X177911000Y-96054605D01*
X177896858Y-96068748D01*
X177717253Y-95889143D01*
X177731395Y-95875000D01*
X178090605Y-95875000D01*
X178760764Y-96545159D01*
X178984348Y-96497852D01*
X179085237Y-96276484D01*
X179141000Y-96039687D01*
X179149495Y-95796562D01*
X179110395Y-95556451D01*
X179025202Y-95328582D01*
X178984348Y-95252148D01*
X178760764Y-95204841D01*
X178090605Y-95875000D01*
X177731395Y-95875000D01*
X177717253Y-95860858D01*
X177896858Y-95681253D01*
X177911000Y-95695395D01*
X178581159Y-95025236D01*
X178533852Y-94801652D01*
X178312484Y-94700763D01*
X178075687Y-94645000D01*
X177832562Y-94636505D01*
X177592451Y-94675605D01*
X177364582Y-94760798D01*
X177288148Y-94801652D01*
X177240842Y-95025234D01*
X177192262Y-94976654D01*
X177241000Y-94769687D01*
X177249495Y-94526562D01*
X177210395Y-94286451D01*
X177191009Y-94234599D01*
X177240842Y-94184766D01*
X177288148Y-94408348D01*
X177509516Y-94509237D01*
X177746313Y-94565000D01*
X177989438Y-94573495D01*
X178229549Y-94534395D01*
X178457418Y-94449202D01*
X178533852Y-94408348D01*
X178581159Y-94184764D01*
X177911000Y-93514605D01*
X177896858Y-93528748D01*
X177717253Y-93349143D01*
X177731395Y-93335000D01*
X178090605Y-93335000D01*
X178760764Y-94005159D01*
X178984348Y-93957852D01*
X179085237Y-93736484D01*
X179141000Y-93499687D01*
X179149495Y-93256562D01*
X179110395Y-93016451D01*
X179025202Y-92788582D01*
X178984348Y-92712148D01*
X178760764Y-92664841D01*
X178090605Y-93335000D01*
X177731395Y-93335000D01*
X177717253Y-93320858D01*
X177896858Y-93141253D01*
X177911000Y-93155395D01*
X178581159Y-92485236D01*
X178533852Y-92261652D01*
X178312484Y-92160763D01*
X178075687Y-92105000D01*
X177832562Y-92096505D01*
X177592451Y-92135605D01*
X177364582Y-92220798D01*
X177288148Y-92261652D01*
X177240842Y-92485234D01*
X177192262Y-92436654D01*
X177241000Y-92229687D01*
X177249495Y-91986562D01*
X177210395Y-91746451D01*
X177191009Y-91694599D01*
X177240842Y-91644766D01*
X177288148Y-91868348D01*
X177509516Y-91969237D01*
X177746313Y-92025000D01*
X177989438Y-92033495D01*
X178229549Y-91994395D01*
X178457418Y-91909202D01*
X178533852Y-91868348D01*
X178581159Y-91644764D01*
X177911000Y-90974605D01*
X177896858Y-90988748D01*
X177717253Y-90809143D01*
X177731395Y-90795000D01*
X178090605Y-90795000D01*
X178760764Y-91465159D01*
X178984348Y-91417852D01*
X179085237Y-91196484D01*
X179141000Y-90959687D01*
X179149495Y-90716562D01*
X179110395Y-90476451D01*
X179025202Y-90248582D01*
X178984348Y-90172148D01*
X178760764Y-90124841D01*
X178090605Y-90795000D01*
X177731395Y-90795000D01*
X177717253Y-90780858D01*
X177896858Y-90601253D01*
X177911000Y-90615395D01*
X178581159Y-89945236D01*
X178533852Y-89721652D01*
X178312484Y-89620763D01*
X178075687Y-89565000D01*
X177832562Y-89556505D01*
X177592451Y-89595605D01*
X177364582Y-89680798D01*
X177288148Y-89721652D01*
X177240842Y-89945234D01*
X177192262Y-89896654D01*
X177241000Y-89689687D01*
X177249495Y-89446562D01*
X177210395Y-89206451D01*
X177191009Y-89154599D01*
X177240842Y-89104766D01*
X177288148Y-89328348D01*
X177509516Y-89429237D01*
X177746313Y-89485000D01*
X177989438Y-89493495D01*
X178229549Y-89454395D01*
X178457418Y-89369202D01*
X178533852Y-89328348D01*
X178581159Y-89104764D01*
X177911000Y-88434605D01*
X177896858Y-88448748D01*
X177717253Y-88269143D01*
X177731395Y-88255000D01*
X178090605Y-88255000D01*
X178760764Y-88925159D01*
X178984348Y-88877852D01*
X179085237Y-88656484D01*
X179141000Y-88419687D01*
X179149495Y-88176562D01*
X179110395Y-87936451D01*
X179025202Y-87708582D01*
X178984348Y-87632148D01*
X178760764Y-87584841D01*
X178090605Y-88255000D01*
X177731395Y-88255000D01*
X177717253Y-88240858D01*
X177896858Y-88061253D01*
X177911000Y-88075395D01*
X178581159Y-87405236D01*
X178533852Y-87181652D01*
X178312484Y-87080763D01*
X178075687Y-87025000D01*
X177832562Y-87016505D01*
X177592451Y-87055605D01*
X177364582Y-87140798D01*
X177288148Y-87181652D01*
X177240842Y-87405234D01*
X177192262Y-87356654D01*
X177241000Y-87149687D01*
X177249495Y-86906562D01*
X177210395Y-86666451D01*
X177191009Y-86614599D01*
X177240842Y-86564766D01*
X177288148Y-86788348D01*
X177509516Y-86889237D01*
X177746313Y-86945000D01*
X177989438Y-86953495D01*
X178229549Y-86914395D01*
X178457418Y-86829202D01*
X178533852Y-86788348D01*
X178581159Y-86564764D01*
X177911000Y-85894605D01*
X177896858Y-85908748D01*
X177717253Y-85729143D01*
X177731395Y-85715000D01*
X178090605Y-85715000D01*
X178760764Y-86385159D01*
X178984348Y-86337852D01*
X179085237Y-86116484D01*
X179141000Y-85879687D01*
X179149495Y-85636562D01*
X179110395Y-85396451D01*
X179025202Y-85168582D01*
X178984348Y-85092148D01*
X178760764Y-85044841D01*
X178090605Y-85715000D01*
X177731395Y-85715000D01*
X177717253Y-85700858D01*
X177896858Y-85521253D01*
X177911000Y-85535395D01*
X178581159Y-84865236D01*
X178533852Y-84641652D01*
X178312484Y-84540763D01*
X178075687Y-84485000D01*
X177832562Y-84476505D01*
X177592451Y-84515605D01*
X177364582Y-84600798D01*
X177288148Y-84641652D01*
X177240842Y-84865234D01*
X177192262Y-84816654D01*
X177241000Y-84609687D01*
X177249495Y-84366562D01*
X177210395Y-84126451D01*
X177191009Y-84074599D01*
X177240842Y-84024766D01*
X177288148Y-84248348D01*
X177509516Y-84349237D01*
X177746313Y-84405000D01*
X177989438Y-84413495D01*
X178229549Y-84374395D01*
X178457418Y-84289202D01*
X178533852Y-84248348D01*
X178581159Y-84024764D01*
X177911000Y-83354605D01*
X177896858Y-83368748D01*
X177717253Y-83189143D01*
X177731395Y-83175000D01*
X178090605Y-83175000D01*
X178760764Y-83845159D01*
X178984348Y-83797852D01*
X179085237Y-83576484D01*
X179141000Y-83339687D01*
X179149495Y-83096562D01*
X179110395Y-82856451D01*
X179025202Y-82628582D01*
X178984348Y-82552148D01*
X178760764Y-82504841D01*
X178090605Y-83175000D01*
X177731395Y-83175000D01*
X177717253Y-83160858D01*
X177896858Y-82981253D01*
X177911000Y-82995395D01*
X178581159Y-82325236D01*
X178533852Y-82101652D01*
X178312484Y-82000763D01*
X178075687Y-81945000D01*
X177832562Y-81936505D01*
X177592451Y-81975605D01*
X177364582Y-82060798D01*
X177288148Y-82101652D01*
X177240842Y-82325234D01*
X177192262Y-82276654D01*
X177241000Y-82069687D01*
X177249495Y-81826562D01*
X177210395Y-81586451D01*
X177191009Y-81534599D01*
X177240842Y-81484766D01*
X177288148Y-81708348D01*
X177509516Y-81809237D01*
X177746313Y-81865000D01*
X177989438Y-81873495D01*
X178229549Y-81834395D01*
X178457418Y-81749202D01*
X178533852Y-81708348D01*
X178581159Y-81484764D01*
X177911000Y-80814605D01*
X177896858Y-80828748D01*
X177717253Y-80649143D01*
X177731395Y-80635000D01*
X178090605Y-80635000D01*
X178760764Y-81305159D01*
X178984348Y-81257852D01*
X179085237Y-81036484D01*
X179141000Y-80799687D01*
X179149495Y-80556562D01*
X179110395Y-80316451D01*
X179025202Y-80088582D01*
X178984348Y-80012148D01*
X178760764Y-79964841D01*
X178090605Y-80635000D01*
X177731395Y-80635000D01*
X177717253Y-80620858D01*
X177896858Y-80441253D01*
X177911000Y-80455395D01*
X178581159Y-79785236D01*
X178533852Y-79561652D01*
X178312484Y-79460763D01*
X178075687Y-79405000D01*
X177832562Y-79396505D01*
X177592451Y-79435605D01*
X177364582Y-79520798D01*
X177288148Y-79561652D01*
X177240842Y-79785234D01*
X177192262Y-79736654D01*
X177241000Y-79529687D01*
X177249495Y-79286562D01*
X177210395Y-79046451D01*
X177191009Y-78994599D01*
X177240842Y-78944766D01*
X177288148Y-79168348D01*
X177509516Y-79269237D01*
X177746313Y-79325000D01*
X177989438Y-79333495D01*
X178229549Y-79294395D01*
X178457418Y-79209202D01*
X178533852Y-79168348D01*
X178581159Y-78944764D01*
X177911000Y-78274605D01*
X177896858Y-78288748D01*
X177717253Y-78109143D01*
X177731395Y-78095000D01*
X178090605Y-78095000D01*
X178760764Y-78765159D01*
X178984348Y-78717852D01*
X179085237Y-78496484D01*
X179141000Y-78259687D01*
X179149495Y-78016562D01*
X179110395Y-77776451D01*
X179025202Y-77548582D01*
X178984348Y-77472148D01*
X178760764Y-77424841D01*
X178090605Y-78095000D01*
X177731395Y-78095000D01*
X177717253Y-78080858D01*
X177896858Y-77901253D01*
X177911000Y-77915395D01*
X178581159Y-77245236D01*
X178533852Y-77021652D01*
X178312484Y-76920763D01*
X178075687Y-76865000D01*
X177832562Y-76856505D01*
X177592451Y-76895605D01*
X177364582Y-76980798D01*
X177288148Y-77021652D01*
X177240842Y-77245234D01*
X177192262Y-77196654D01*
X177241000Y-76989687D01*
X177249495Y-76746562D01*
X177210395Y-76506451D01*
X177191009Y-76454599D01*
X177240842Y-76404766D01*
X177288148Y-76628348D01*
X177509516Y-76729237D01*
X177746313Y-76785000D01*
X177989438Y-76793495D01*
X178229549Y-76754395D01*
X178457418Y-76669202D01*
X178533852Y-76628348D01*
X178581159Y-76404764D01*
X177911000Y-75734605D01*
X177896858Y-75748748D01*
X177717253Y-75569143D01*
X177731395Y-75555000D01*
X178090605Y-75555000D01*
X178760764Y-76225159D01*
X178984348Y-76177852D01*
X179085237Y-75956484D01*
X179141000Y-75719687D01*
X179149495Y-75476562D01*
X179110395Y-75236451D01*
X179025202Y-75008582D01*
X178984348Y-74932148D01*
X178760764Y-74884841D01*
X178090605Y-75555000D01*
X177731395Y-75555000D01*
X177717253Y-75540858D01*
X177896858Y-75361253D01*
X177911000Y-75375395D01*
X178581159Y-74705236D01*
X178533852Y-74481652D01*
X178312484Y-74380763D01*
X178075687Y-74325000D01*
X177832562Y-74316505D01*
X177592451Y-74355605D01*
X177364582Y-74440798D01*
X177288148Y-74481652D01*
X177240842Y-74705234D01*
X177192262Y-74656654D01*
X177241000Y-74449687D01*
X177249495Y-74206562D01*
X177210395Y-73966451D01*
X177191009Y-73914599D01*
X177240842Y-73864766D01*
X177288148Y-74088348D01*
X177509516Y-74189237D01*
X177746313Y-74245000D01*
X177989438Y-74253495D01*
X178229549Y-74214395D01*
X178457418Y-74129202D01*
X178533852Y-74088348D01*
X178581159Y-73864764D01*
X177911000Y-73194605D01*
X177896858Y-73208748D01*
X177717253Y-73029143D01*
X177731395Y-73015000D01*
X178090605Y-73015000D01*
X178760764Y-73685159D01*
X178984348Y-73637852D01*
X179085237Y-73416484D01*
X179141000Y-73179687D01*
X179149495Y-72936562D01*
X179110395Y-72696451D01*
X179025202Y-72468582D01*
X178984348Y-72392148D01*
X178760764Y-72344841D01*
X178090605Y-73015000D01*
X177731395Y-73015000D01*
X177717253Y-73000858D01*
X177896858Y-72821253D01*
X177911000Y-72835395D01*
X178581159Y-72165236D01*
X178533852Y-71941652D01*
X178312484Y-71840763D01*
X178075687Y-71785000D01*
X177832562Y-71776505D01*
X177592451Y-71815605D01*
X177364582Y-71900798D01*
X177288148Y-71941652D01*
X177240842Y-72165234D01*
X177192262Y-72116654D01*
X177241000Y-71909687D01*
X177249495Y-71666562D01*
X177210395Y-71426451D01*
X177191009Y-71374599D01*
X177240842Y-71324766D01*
X177288148Y-71548348D01*
X177509516Y-71649237D01*
X177746313Y-71705000D01*
X177989438Y-71713495D01*
X178229549Y-71674395D01*
X178457418Y-71589202D01*
X178533852Y-71548348D01*
X178581159Y-71324764D01*
X177911000Y-70654605D01*
X177896858Y-70668748D01*
X177717253Y-70489143D01*
X177731395Y-70475000D01*
X178090605Y-70475000D01*
X178760764Y-71145159D01*
X178984348Y-71097852D01*
X179085237Y-70876484D01*
X179141000Y-70639687D01*
X179149495Y-70396562D01*
X179110395Y-70156451D01*
X179025202Y-69928582D01*
X178984348Y-69852148D01*
X178760764Y-69804841D01*
X178090605Y-70475000D01*
X177731395Y-70475000D01*
X177717253Y-70460858D01*
X177896858Y-70281253D01*
X177911000Y-70295395D01*
X178581159Y-69625236D01*
X178533852Y-69401652D01*
X178312484Y-69300763D01*
X178075687Y-69245000D01*
X177832562Y-69236505D01*
X177592451Y-69275605D01*
X177364582Y-69360798D01*
X177288148Y-69401652D01*
X177240842Y-69625234D01*
X177192262Y-69576654D01*
X177241000Y-69369687D01*
X177249495Y-69126562D01*
X177210395Y-68886451D01*
X177191009Y-68834599D01*
X177240842Y-68784766D01*
X177288148Y-69008348D01*
X177509516Y-69109237D01*
X177746313Y-69165000D01*
X177989438Y-69173495D01*
X178229549Y-69134395D01*
X178457418Y-69049202D01*
X178533852Y-69008348D01*
X178581159Y-68784764D01*
X177911000Y-68114605D01*
X177896858Y-68128748D01*
X177717253Y-67949143D01*
X177731395Y-67935000D01*
X178090605Y-67935000D01*
X178760764Y-68605159D01*
X178984348Y-68557852D01*
X179085237Y-68336484D01*
X179141000Y-68099687D01*
X179149495Y-67856562D01*
X179110395Y-67616451D01*
X179025202Y-67388582D01*
X178984348Y-67312148D01*
X178760764Y-67264841D01*
X178090605Y-67935000D01*
X177731395Y-67935000D01*
X177717253Y-67920858D01*
X177896858Y-67741253D01*
X177911000Y-67755395D01*
X178581159Y-67085236D01*
X178533852Y-66861652D01*
X178312484Y-66760763D01*
X178075687Y-66705000D01*
X177832562Y-66696505D01*
X177592451Y-66735605D01*
X177364582Y-66820798D01*
X177288148Y-66861652D01*
X177240842Y-67085234D01*
X177192262Y-67036654D01*
X177241000Y-66829687D01*
X177249495Y-66586562D01*
X177210395Y-66346451D01*
X177191009Y-66294599D01*
X177240842Y-66244766D01*
X177288148Y-66468348D01*
X177509516Y-66569237D01*
X177746313Y-66625000D01*
X177989438Y-66633495D01*
X178229549Y-66594395D01*
X178457418Y-66509202D01*
X178533852Y-66468348D01*
X178581159Y-66244764D01*
X177911000Y-65574605D01*
X177896858Y-65588748D01*
X177717253Y-65409143D01*
X177731395Y-65395000D01*
X177717253Y-65380858D01*
X177896858Y-65201253D01*
X177911000Y-65215395D01*
X177925143Y-65201253D01*
X178104748Y-65380858D01*
G37*
X178104748Y-65380858D02*
X178090605Y-65395000D01*
X178760764Y-66065159D01*
X178984348Y-66017852D01*
X179085237Y-65796484D01*
X179116137Y-65665268D01*
X179265012Y-65814144D01*
X179265011Y-103243879D01*
X179057983Y-103036852D01*
X179046000Y-103007921D01*
X179046000Y-101442079D01*
X179098540Y-101315236D01*
X179146000Y-101076637D01*
X179146000Y-100833363D01*
X179098540Y-100594764D01*
X179005443Y-100370008D01*
X178870287Y-100167733D01*
X178698267Y-99995713D01*
X178495992Y-99860557D01*
X178271236Y-99767460D01*
X178032637Y-99720000D01*
X177789363Y-99720000D01*
X177550764Y-99767460D01*
X177326008Y-99860557D01*
X177221367Y-99930476D01*
X177246000Y-99806637D01*
X177246000Y-99563363D01*
X177198540Y-99324764D01*
X177193357Y-99312251D01*
X177240842Y-99264766D01*
X177288148Y-99488348D01*
X177509516Y-99589237D01*
X177746313Y-99645000D01*
X177989438Y-99653495D01*
X178229549Y-99614395D01*
X178457418Y-99529202D01*
X178533852Y-99488348D01*
X178581159Y-99264764D01*
X177911000Y-98594605D01*
X177896858Y-98608748D01*
X177717253Y-98429143D01*
X177731395Y-98415000D01*
X178090605Y-98415000D01*
X178760764Y-99085159D01*
X178984348Y-99037852D01*
X179085237Y-98816484D01*
X179141000Y-98579687D01*
X179149495Y-98336562D01*
X179110395Y-98096451D01*
X179025202Y-97868582D01*
X178984348Y-97792148D01*
X178760764Y-97744841D01*
X178090605Y-98415000D01*
X177731395Y-98415000D01*
X177717253Y-98400858D01*
X177896858Y-98221253D01*
X177911000Y-98235395D01*
X178581159Y-97565236D01*
X178533852Y-97341652D01*
X178312484Y-97240763D01*
X178075687Y-97185000D01*
X177832562Y-97176505D01*
X177592451Y-97215605D01*
X177364582Y-97300798D01*
X177288148Y-97341652D01*
X177240842Y-97565234D01*
X177192262Y-97516654D01*
X177241000Y-97309687D01*
X177249495Y-97066562D01*
X177210395Y-96826451D01*
X177191009Y-96774599D01*
X177240842Y-96724766D01*
X177288148Y-96948348D01*
X177509516Y-97049237D01*
X177746313Y-97105000D01*
X177989438Y-97113495D01*
X178229549Y-97074395D01*
X178457418Y-96989202D01*
X178533852Y-96948348D01*
X178581159Y-96724764D01*
X177911000Y-96054605D01*
X177896858Y-96068748D01*
X177717253Y-95889143D01*
X177731395Y-95875000D01*
X178090605Y-95875000D01*
X178760764Y-96545159D01*
X178984348Y-96497852D01*
X179085237Y-96276484D01*
X179141000Y-96039687D01*
X179149495Y-95796562D01*
X179110395Y-95556451D01*
X179025202Y-95328582D01*
X178984348Y-95252148D01*
X178760764Y-95204841D01*
X178090605Y-95875000D01*
X177731395Y-95875000D01*
X177717253Y-95860858D01*
X177896858Y-95681253D01*
X177911000Y-95695395D01*
X178581159Y-95025236D01*
X178533852Y-94801652D01*
X178312484Y-94700763D01*
X178075687Y-94645000D01*
X177832562Y-94636505D01*
X177592451Y-94675605D01*
X177364582Y-94760798D01*
X177288148Y-94801652D01*
X177240842Y-95025234D01*
X177192262Y-94976654D01*
X177241000Y-94769687D01*
X177249495Y-94526562D01*
X177210395Y-94286451D01*
X177191009Y-94234599D01*
X177240842Y-94184766D01*
X177288148Y-94408348D01*
X177509516Y-94509237D01*
X177746313Y-94565000D01*
X177989438Y-94573495D01*
X178229549Y-94534395D01*
X178457418Y-94449202D01*
X178533852Y-94408348D01*
X178581159Y-94184764D01*
X177911000Y-93514605D01*
X177896858Y-93528748D01*
X177717253Y-93349143D01*
X177731395Y-93335000D01*
X178090605Y-93335000D01*
X178760764Y-94005159D01*
X178984348Y-93957852D01*
X179085237Y-93736484D01*
X179141000Y-93499687D01*
X179149495Y-93256562D01*
X179110395Y-93016451D01*
X179025202Y-92788582D01*
X178984348Y-92712148D01*
X178760764Y-92664841D01*
X178090605Y-93335000D01*
X177731395Y-93335000D01*
X177717253Y-93320858D01*
X177896858Y-93141253D01*
X177911000Y-93155395D01*
X178581159Y-92485236D01*
X178533852Y-92261652D01*
X178312484Y-92160763D01*
X178075687Y-92105000D01*
X177832562Y-92096505D01*
X177592451Y-92135605D01*
X177364582Y-92220798D01*
X177288148Y-92261652D01*
X177240842Y-92485234D01*
X177192262Y-92436654D01*
X177241000Y-92229687D01*
X177249495Y-91986562D01*
X177210395Y-91746451D01*
X177191009Y-91694599D01*
X177240842Y-91644766D01*
X177288148Y-91868348D01*
X177509516Y-91969237D01*
X177746313Y-92025000D01*
X177989438Y-92033495D01*
X178229549Y-91994395D01*
X178457418Y-91909202D01*
X178533852Y-91868348D01*
X178581159Y-91644764D01*
X177911000Y-90974605D01*
X177896858Y-90988748D01*
X177717253Y-90809143D01*
X177731395Y-90795000D01*
X178090605Y-90795000D01*
X178760764Y-91465159D01*
X178984348Y-91417852D01*
X179085237Y-91196484D01*
X179141000Y-90959687D01*
X179149495Y-90716562D01*
X179110395Y-90476451D01*
X179025202Y-90248582D01*
X178984348Y-90172148D01*
X178760764Y-90124841D01*
X178090605Y-90795000D01*
X177731395Y-90795000D01*
X177717253Y-90780858D01*
X177896858Y-90601253D01*
X177911000Y-90615395D01*
X178581159Y-89945236D01*
X178533852Y-89721652D01*
X178312484Y-89620763D01*
X178075687Y-89565000D01*
X177832562Y-89556505D01*
X177592451Y-89595605D01*
X177364582Y-89680798D01*
X177288148Y-89721652D01*
X177240842Y-89945234D01*
X177192262Y-89896654D01*
X177241000Y-89689687D01*
X177249495Y-89446562D01*
X177210395Y-89206451D01*
X177191009Y-89154599D01*
X177240842Y-89104766D01*
X177288148Y-89328348D01*
X177509516Y-89429237D01*
X177746313Y-89485000D01*
X177989438Y-89493495D01*
X178229549Y-89454395D01*
X178457418Y-89369202D01*
X178533852Y-89328348D01*
X178581159Y-89104764D01*
X177911000Y-88434605D01*
X177896858Y-88448748D01*
X177717253Y-88269143D01*
X177731395Y-88255000D01*
X178090605Y-88255000D01*
X178760764Y-88925159D01*
X178984348Y-88877852D01*
X179085237Y-88656484D01*
X179141000Y-88419687D01*
X179149495Y-88176562D01*
X179110395Y-87936451D01*
X179025202Y-87708582D01*
X178984348Y-87632148D01*
X178760764Y-87584841D01*
X178090605Y-88255000D01*
X177731395Y-88255000D01*
X177717253Y-88240858D01*
X177896858Y-88061253D01*
X177911000Y-88075395D01*
X178581159Y-87405236D01*
X178533852Y-87181652D01*
X178312484Y-87080763D01*
X178075687Y-87025000D01*
X177832562Y-87016505D01*
X177592451Y-87055605D01*
X177364582Y-87140798D01*
X177288148Y-87181652D01*
X177240842Y-87405234D01*
X177192262Y-87356654D01*
X177241000Y-87149687D01*
X177249495Y-86906562D01*
X177210395Y-86666451D01*
X177191009Y-86614599D01*
X177240842Y-86564766D01*
X177288148Y-86788348D01*
X177509516Y-86889237D01*
X177746313Y-86945000D01*
X177989438Y-86953495D01*
X178229549Y-86914395D01*
X178457418Y-86829202D01*
X178533852Y-86788348D01*
X178581159Y-86564764D01*
X177911000Y-85894605D01*
X177896858Y-85908748D01*
X177717253Y-85729143D01*
X177731395Y-85715000D01*
X178090605Y-85715000D01*
X178760764Y-86385159D01*
X178984348Y-86337852D01*
X179085237Y-86116484D01*
X179141000Y-85879687D01*
X179149495Y-85636562D01*
X179110395Y-85396451D01*
X179025202Y-85168582D01*
X178984348Y-85092148D01*
X178760764Y-85044841D01*
X178090605Y-85715000D01*
X177731395Y-85715000D01*
X177717253Y-85700858D01*
X177896858Y-85521253D01*
X177911000Y-85535395D01*
X178581159Y-84865236D01*
X178533852Y-84641652D01*
X178312484Y-84540763D01*
X178075687Y-84485000D01*
X177832562Y-84476505D01*
X177592451Y-84515605D01*
X177364582Y-84600798D01*
X177288148Y-84641652D01*
X177240842Y-84865234D01*
X177192262Y-84816654D01*
X177241000Y-84609687D01*
X177249495Y-84366562D01*
X177210395Y-84126451D01*
X177191009Y-84074599D01*
X177240842Y-84024766D01*
X177288148Y-84248348D01*
X177509516Y-84349237D01*
X177746313Y-84405000D01*
X177989438Y-84413495D01*
X178229549Y-84374395D01*
X178457418Y-84289202D01*
X178533852Y-84248348D01*
X178581159Y-84024764D01*
X177911000Y-83354605D01*
X177896858Y-83368748D01*
X177717253Y-83189143D01*
X177731395Y-83175000D01*
X178090605Y-83175000D01*
X178760764Y-83845159D01*
X178984348Y-83797852D01*
X179085237Y-83576484D01*
X179141000Y-83339687D01*
X179149495Y-83096562D01*
X179110395Y-82856451D01*
X179025202Y-82628582D01*
X178984348Y-82552148D01*
X178760764Y-82504841D01*
X178090605Y-83175000D01*
X177731395Y-83175000D01*
X177717253Y-83160858D01*
X177896858Y-82981253D01*
X177911000Y-82995395D01*
X178581159Y-82325236D01*
X178533852Y-82101652D01*
X178312484Y-82000763D01*
X178075687Y-81945000D01*
X177832562Y-81936505D01*
X177592451Y-81975605D01*
X177364582Y-82060798D01*
X177288148Y-82101652D01*
X177240842Y-82325234D01*
X177192262Y-82276654D01*
X177241000Y-82069687D01*
X177249495Y-81826562D01*
X177210395Y-81586451D01*
X177191009Y-81534599D01*
X177240842Y-81484766D01*
X177288148Y-81708348D01*
X177509516Y-81809237D01*
X177746313Y-81865000D01*
X177989438Y-81873495D01*
X178229549Y-81834395D01*
X178457418Y-81749202D01*
X178533852Y-81708348D01*
X178581159Y-81484764D01*
X177911000Y-80814605D01*
X177896858Y-80828748D01*
X177717253Y-80649143D01*
X177731395Y-80635000D01*
X178090605Y-80635000D01*
X178760764Y-81305159D01*
X178984348Y-81257852D01*
X179085237Y-81036484D01*
X179141000Y-80799687D01*
X179149495Y-80556562D01*
X179110395Y-80316451D01*
X179025202Y-80088582D01*
X178984348Y-80012148D01*
X178760764Y-79964841D01*
X178090605Y-80635000D01*
X177731395Y-80635000D01*
X177717253Y-80620858D01*
X177896858Y-80441253D01*
X177911000Y-80455395D01*
X178581159Y-79785236D01*
X178533852Y-79561652D01*
X178312484Y-79460763D01*
X178075687Y-79405000D01*
X177832562Y-79396505D01*
X177592451Y-79435605D01*
X177364582Y-79520798D01*
X177288148Y-79561652D01*
X177240842Y-79785234D01*
X177192262Y-79736654D01*
X177241000Y-79529687D01*
X177249495Y-79286562D01*
X177210395Y-79046451D01*
X177191009Y-78994599D01*
X177240842Y-78944766D01*
X177288148Y-79168348D01*
X177509516Y-79269237D01*
X177746313Y-79325000D01*
X177989438Y-79333495D01*
X178229549Y-79294395D01*
X178457418Y-79209202D01*
X178533852Y-79168348D01*
X178581159Y-78944764D01*
X177911000Y-78274605D01*
X177896858Y-78288748D01*
X177717253Y-78109143D01*
X177731395Y-78095000D01*
X178090605Y-78095000D01*
X178760764Y-78765159D01*
X178984348Y-78717852D01*
X179085237Y-78496484D01*
X179141000Y-78259687D01*
X179149495Y-78016562D01*
X179110395Y-77776451D01*
X179025202Y-77548582D01*
X178984348Y-77472148D01*
X178760764Y-77424841D01*
X178090605Y-78095000D01*
X177731395Y-78095000D01*
X177717253Y-78080858D01*
X177896858Y-77901253D01*
X177911000Y-77915395D01*
X178581159Y-77245236D01*
X178533852Y-77021652D01*
X178312484Y-76920763D01*
X178075687Y-76865000D01*
X177832562Y-76856505D01*
X177592451Y-76895605D01*
X177364582Y-76980798D01*
X177288148Y-77021652D01*
X177240842Y-77245234D01*
X177192262Y-77196654D01*
X177241000Y-76989687D01*
X177249495Y-76746562D01*
X177210395Y-76506451D01*
X177191009Y-76454599D01*
X177240842Y-76404766D01*
X177288148Y-76628348D01*
X177509516Y-76729237D01*
X177746313Y-76785000D01*
X177989438Y-76793495D01*
X178229549Y-76754395D01*
X178457418Y-76669202D01*
X178533852Y-76628348D01*
X178581159Y-76404764D01*
X177911000Y-75734605D01*
X177896858Y-75748748D01*
X177717253Y-75569143D01*
X177731395Y-75555000D01*
X178090605Y-75555000D01*
X178760764Y-76225159D01*
X178984348Y-76177852D01*
X179085237Y-75956484D01*
X179141000Y-75719687D01*
X179149495Y-75476562D01*
X179110395Y-75236451D01*
X179025202Y-75008582D01*
X178984348Y-74932148D01*
X178760764Y-74884841D01*
X178090605Y-75555000D01*
X177731395Y-75555000D01*
X177717253Y-75540858D01*
X177896858Y-75361253D01*
X177911000Y-75375395D01*
X178581159Y-74705236D01*
X178533852Y-74481652D01*
X178312484Y-74380763D01*
X178075687Y-74325000D01*
X177832562Y-74316505D01*
X177592451Y-74355605D01*
X177364582Y-74440798D01*
X177288148Y-74481652D01*
X177240842Y-74705234D01*
X177192262Y-74656654D01*
X177241000Y-74449687D01*
X177249495Y-74206562D01*
X177210395Y-73966451D01*
X177191009Y-73914599D01*
X177240842Y-73864766D01*
X177288148Y-74088348D01*
X177509516Y-74189237D01*
X177746313Y-74245000D01*
X177989438Y-74253495D01*
X178229549Y-74214395D01*
X178457418Y-74129202D01*
X178533852Y-74088348D01*
X178581159Y-73864764D01*
X177911000Y-73194605D01*
X177896858Y-73208748D01*
X177717253Y-73029143D01*
X177731395Y-73015000D01*
X178090605Y-73015000D01*
X178760764Y-73685159D01*
X178984348Y-73637852D01*
X179085237Y-73416484D01*
X179141000Y-73179687D01*
X179149495Y-72936562D01*
X179110395Y-72696451D01*
X179025202Y-72468582D01*
X178984348Y-72392148D01*
X178760764Y-72344841D01*
X178090605Y-73015000D01*
X177731395Y-73015000D01*
X177717253Y-73000858D01*
X177896858Y-72821253D01*
X177911000Y-72835395D01*
X178581159Y-72165236D01*
X178533852Y-71941652D01*
X178312484Y-71840763D01*
X178075687Y-71785000D01*
X177832562Y-71776505D01*
X177592451Y-71815605D01*
X177364582Y-71900798D01*
X177288148Y-71941652D01*
X177240842Y-72165234D01*
X177192262Y-72116654D01*
X177241000Y-71909687D01*
X177249495Y-71666562D01*
X177210395Y-71426451D01*
X177191009Y-71374599D01*
X177240842Y-71324766D01*
X177288148Y-71548348D01*
X177509516Y-71649237D01*
X177746313Y-71705000D01*
X177989438Y-71713495D01*
X178229549Y-71674395D01*
X178457418Y-71589202D01*
X178533852Y-71548348D01*
X178581159Y-71324764D01*
X177911000Y-70654605D01*
X177896858Y-70668748D01*
X177717253Y-70489143D01*
X177731395Y-70475000D01*
X178090605Y-70475000D01*
X178760764Y-71145159D01*
X178984348Y-71097852D01*
X179085237Y-70876484D01*
X179141000Y-70639687D01*
X179149495Y-70396562D01*
X179110395Y-70156451D01*
X179025202Y-69928582D01*
X178984348Y-69852148D01*
X178760764Y-69804841D01*
X178090605Y-70475000D01*
X177731395Y-70475000D01*
X177717253Y-70460858D01*
X177896858Y-70281253D01*
X177911000Y-70295395D01*
X178581159Y-69625236D01*
X178533852Y-69401652D01*
X178312484Y-69300763D01*
X178075687Y-69245000D01*
X177832562Y-69236505D01*
X177592451Y-69275605D01*
X177364582Y-69360798D01*
X177288148Y-69401652D01*
X177240842Y-69625234D01*
X177192262Y-69576654D01*
X177241000Y-69369687D01*
X177249495Y-69126562D01*
X177210395Y-68886451D01*
X177191009Y-68834599D01*
X177240842Y-68784766D01*
X177288148Y-69008348D01*
X177509516Y-69109237D01*
X177746313Y-69165000D01*
X177989438Y-69173495D01*
X178229549Y-69134395D01*
X178457418Y-69049202D01*
X178533852Y-69008348D01*
X178581159Y-68784764D01*
X177911000Y-68114605D01*
X177896858Y-68128748D01*
X177717253Y-67949143D01*
X177731395Y-67935000D01*
X178090605Y-67935000D01*
X178760764Y-68605159D01*
X178984348Y-68557852D01*
X179085237Y-68336484D01*
X179141000Y-68099687D01*
X179149495Y-67856562D01*
X179110395Y-67616451D01*
X179025202Y-67388582D01*
X178984348Y-67312148D01*
X178760764Y-67264841D01*
X178090605Y-67935000D01*
X177731395Y-67935000D01*
X177717253Y-67920858D01*
X177896858Y-67741253D01*
X177911000Y-67755395D01*
X178581159Y-67085236D01*
X178533852Y-66861652D01*
X178312484Y-66760763D01*
X178075687Y-66705000D01*
X177832562Y-66696505D01*
X177592451Y-66735605D01*
X177364582Y-66820798D01*
X177288148Y-66861652D01*
X177240842Y-67085234D01*
X177192262Y-67036654D01*
X177241000Y-66829687D01*
X177249495Y-66586562D01*
X177210395Y-66346451D01*
X177191009Y-66294599D01*
X177240842Y-66244766D01*
X177288148Y-66468348D01*
X177509516Y-66569237D01*
X177746313Y-66625000D01*
X177989438Y-66633495D01*
X178229549Y-66594395D01*
X178457418Y-66509202D01*
X178533852Y-66468348D01*
X178581159Y-66244764D01*
X177911000Y-65574605D01*
X177896858Y-65588748D01*
X177717253Y-65409143D01*
X177731395Y-65395000D01*
X177717253Y-65380858D01*
X177896858Y-65201253D01*
X177911000Y-65215395D01*
X177925143Y-65201253D01*
X178104748Y-65380858D01*
G36*
X176204748Y-97130858D02*
G01*
X176190605Y-97145000D01*
X176204748Y-97159143D01*
X176025143Y-97338748D01*
X176011000Y-97324605D01*
X175996858Y-97338748D01*
X175817253Y-97159143D01*
X175831395Y-97145000D01*
X175817253Y-97130858D01*
X175996858Y-96951253D01*
X176011000Y-96965395D01*
X176025143Y-96951253D01*
X176204748Y-97130858D01*
G37*
X176204748Y-97130858D02*
X176190605Y-97145000D01*
X176204748Y-97159143D01*
X176025143Y-97338748D01*
X176011000Y-97324605D01*
X175996858Y-97338748D01*
X175817253Y-97159143D01*
X175831395Y-97145000D01*
X175817253Y-97130858D01*
X175996858Y-96951253D01*
X176011000Y-96965395D01*
X176025143Y-96951253D01*
X176204748Y-97130858D01*
G36*
X176204748Y-94590858D02*
G01*
X176190605Y-94605000D01*
X176204748Y-94619143D01*
X176025143Y-94798748D01*
X176011000Y-94784605D01*
X175996858Y-94798748D01*
X175817253Y-94619143D01*
X175831395Y-94605000D01*
X175817253Y-94590858D01*
X175996858Y-94411253D01*
X176011000Y-94425395D01*
X176025143Y-94411253D01*
X176204748Y-94590858D01*
G37*
X176204748Y-94590858D02*
X176190605Y-94605000D01*
X176204748Y-94619143D01*
X176025143Y-94798748D01*
X176011000Y-94784605D01*
X175996858Y-94798748D01*
X175817253Y-94619143D01*
X175831395Y-94605000D01*
X175817253Y-94590858D01*
X175996858Y-94411253D01*
X176011000Y-94425395D01*
X176025143Y-94411253D01*
X176204748Y-94590858D01*
G36*
X205856525Y-93656632D02*
G01*
X206063368Y-93863475D01*
X206245534Y-93985195D01*
X206128645Y-94054822D01*
X205912412Y-94249731D01*
X205740000Y-94480880D01*
X205567588Y-94249731D01*
X205351355Y-94054822D01*
X205234466Y-93985195D01*
X205416632Y-93863475D01*
X205623475Y-93656632D01*
X205740000Y-93482240D01*
X205856525Y-93656632D01*
G37*
X205856525Y-93656632D02*
X206063368Y-93863475D01*
X206245534Y-93985195D01*
X206128645Y-94054822D01*
X205912412Y-94249731D01*
X205740000Y-94480880D01*
X205567588Y-94249731D01*
X205351355Y-94054822D01*
X205234466Y-93985195D01*
X205416632Y-93863475D01*
X205623475Y-93656632D01*
X205740000Y-93482240D01*
X205856525Y-93656632D01*
G36*
X176204748Y-92050858D02*
G01*
X176190605Y-92065000D01*
X176204748Y-92079143D01*
X176025143Y-92258748D01*
X176011000Y-92244605D01*
X175996858Y-92258748D01*
X175817253Y-92079143D01*
X175831395Y-92065000D01*
X175817253Y-92050858D01*
X175996858Y-91871253D01*
X176011000Y-91885395D01*
X176025143Y-91871253D01*
X176204748Y-92050858D01*
G37*
X176204748Y-92050858D02*
X176190605Y-92065000D01*
X176204748Y-92079143D01*
X176025143Y-92258748D01*
X176011000Y-92244605D01*
X175996858Y-92258748D01*
X175817253Y-92079143D01*
X175831395Y-92065000D01*
X175817253Y-92050858D01*
X175996858Y-91871253D01*
X176011000Y-91885395D01*
X176025143Y-91871253D01*
X176204748Y-92050858D01*
G36*
X205912412Y-91170269D02*
G01*
X206128645Y-91365178D01*
X206245534Y-91434805D01*
X206063368Y-91556525D01*
X205856525Y-91763368D01*
X205740000Y-91937760D01*
X205623475Y-91763368D01*
X205416632Y-91556525D01*
X205234466Y-91434805D01*
X205351355Y-91365178D01*
X205567588Y-91170269D01*
X205740000Y-90939120D01*
X205912412Y-91170269D01*
G37*
X205912412Y-91170269D02*
X206128645Y-91365178D01*
X206245534Y-91434805D01*
X206063368Y-91556525D01*
X205856525Y-91763368D01*
X205740000Y-91937760D01*
X205623475Y-91763368D01*
X205416632Y-91556525D01*
X205234466Y-91434805D01*
X205351355Y-91365178D01*
X205567588Y-91170269D01*
X205740000Y-90939120D01*
X205912412Y-91170269D01*
G36*
X176204748Y-89510858D02*
G01*
X176190605Y-89525000D01*
X176204748Y-89539143D01*
X176025143Y-89718748D01*
X176011000Y-89704605D01*
X175996858Y-89718748D01*
X175817253Y-89539143D01*
X175831395Y-89525000D01*
X175817253Y-89510858D01*
X175996858Y-89331253D01*
X176011000Y-89345395D01*
X176025143Y-89331253D01*
X176204748Y-89510858D01*
G37*
X176204748Y-89510858D02*
X176190605Y-89525000D01*
X176204748Y-89539143D01*
X176025143Y-89718748D01*
X176011000Y-89704605D01*
X175996858Y-89718748D01*
X175817253Y-89539143D01*
X175831395Y-89525000D01*
X175817253Y-89510858D01*
X175996858Y-89331253D01*
X176011000Y-89345395D01*
X176025143Y-89331253D01*
X176204748Y-89510858D01*
G36*
X176204748Y-86970858D02*
G01*
X176190605Y-86985000D01*
X176204748Y-86999143D01*
X176025143Y-87178748D01*
X176011000Y-87164605D01*
X175996858Y-87178748D01*
X175817253Y-86999143D01*
X175831395Y-86985000D01*
X175817253Y-86970858D01*
X175996858Y-86791253D01*
X176011000Y-86805395D01*
X176025143Y-86791253D01*
X176204748Y-86970858D01*
G37*
X176204748Y-86970858D02*
X176190605Y-86985000D01*
X176204748Y-86999143D01*
X176025143Y-87178748D01*
X176011000Y-87164605D01*
X175996858Y-87178748D01*
X175817253Y-86999143D01*
X175831395Y-86985000D01*
X175817253Y-86970858D01*
X175996858Y-86791253D01*
X176011000Y-86805395D01*
X176025143Y-86791253D01*
X176204748Y-86970858D01*
G36*
X176204748Y-84430858D02*
G01*
X176190605Y-84445000D01*
X176204748Y-84459143D01*
X176025143Y-84638748D01*
X176011000Y-84624605D01*
X175996858Y-84638748D01*
X175817253Y-84459143D01*
X175831395Y-84445000D01*
X175817253Y-84430858D01*
X175996858Y-84251253D01*
X176011000Y-84265395D01*
X176025143Y-84251253D01*
X176204748Y-84430858D01*
G37*
X176204748Y-84430858D02*
X176190605Y-84445000D01*
X176204748Y-84459143D01*
X176025143Y-84638748D01*
X176011000Y-84624605D01*
X175996858Y-84638748D01*
X175817253Y-84459143D01*
X175831395Y-84445000D01*
X175817253Y-84430858D01*
X175996858Y-84251253D01*
X176011000Y-84265395D01*
X176025143Y-84251253D01*
X176204748Y-84430858D01*
G36*
X176204748Y-81890858D02*
G01*
X176190605Y-81905000D01*
X176204748Y-81919143D01*
X176025143Y-82098748D01*
X176011000Y-82084605D01*
X175996858Y-82098748D01*
X175817253Y-81919143D01*
X175831395Y-81905000D01*
X175817253Y-81890858D01*
X175996858Y-81711253D01*
X176011000Y-81725395D01*
X176025143Y-81711253D01*
X176204748Y-81890858D01*
G37*
X176204748Y-81890858D02*
X176190605Y-81905000D01*
X176204748Y-81919143D01*
X176025143Y-82098748D01*
X176011000Y-82084605D01*
X175996858Y-82098748D01*
X175817253Y-81919143D01*
X175831395Y-81905000D01*
X175817253Y-81890858D01*
X175996858Y-81711253D01*
X176011000Y-81725395D01*
X176025143Y-81711253D01*
X176204748Y-81890858D01*
G36*
X176204748Y-79350858D02*
G01*
X176190605Y-79365000D01*
X176204748Y-79379143D01*
X176025143Y-79558748D01*
X176011000Y-79544605D01*
X175996858Y-79558748D01*
X175817253Y-79379143D01*
X175831395Y-79365000D01*
X175817253Y-79350858D01*
X175996858Y-79171253D01*
X176011000Y-79185395D01*
X176025143Y-79171253D01*
X176204748Y-79350858D01*
G37*
X176204748Y-79350858D02*
X176190605Y-79365000D01*
X176204748Y-79379143D01*
X176025143Y-79558748D01*
X176011000Y-79544605D01*
X175996858Y-79558748D01*
X175817253Y-79379143D01*
X175831395Y-79365000D01*
X175817253Y-79350858D01*
X175996858Y-79171253D01*
X176011000Y-79185395D01*
X176025143Y-79171253D01*
X176204748Y-79350858D01*
G36*
X176204748Y-76810858D02*
G01*
X176190605Y-76825000D01*
X176204748Y-76839143D01*
X176025143Y-77018748D01*
X176011000Y-77004605D01*
X175996858Y-77018748D01*
X175817253Y-76839143D01*
X175831395Y-76825000D01*
X175817253Y-76810858D01*
X175996858Y-76631253D01*
X176011000Y-76645395D01*
X176025143Y-76631253D01*
X176204748Y-76810858D01*
G37*
X176204748Y-76810858D02*
X176190605Y-76825000D01*
X176204748Y-76839143D01*
X176025143Y-77018748D01*
X176011000Y-77004605D01*
X175996858Y-77018748D01*
X175817253Y-76839143D01*
X175831395Y-76825000D01*
X175817253Y-76810858D01*
X175996858Y-76631253D01*
X176011000Y-76645395D01*
X176025143Y-76631253D01*
X176204748Y-76810858D01*
G36*
X176204748Y-74270858D02*
G01*
X176190605Y-74285000D01*
X176204748Y-74299143D01*
X176025143Y-74478748D01*
X176011000Y-74464605D01*
X175996858Y-74478748D01*
X175817253Y-74299143D01*
X175831395Y-74285000D01*
X175817253Y-74270858D01*
X175996858Y-74091253D01*
X176011000Y-74105395D01*
X176025143Y-74091253D01*
X176204748Y-74270858D01*
G37*
X176204748Y-74270858D02*
X176190605Y-74285000D01*
X176204748Y-74299143D01*
X176025143Y-74478748D01*
X176011000Y-74464605D01*
X175996858Y-74478748D01*
X175817253Y-74299143D01*
X175831395Y-74285000D01*
X175817253Y-74270858D01*
X175996858Y-74091253D01*
X176011000Y-74105395D01*
X176025143Y-74091253D01*
X176204748Y-74270858D01*
G36*
X176204748Y-71730858D02*
G01*
X176190605Y-71745000D01*
X176204748Y-71759143D01*
X176025143Y-71938748D01*
X176011000Y-71924605D01*
X175996858Y-71938748D01*
X175817253Y-71759143D01*
X175831395Y-71745000D01*
X175817253Y-71730858D01*
X175996858Y-71551253D01*
X176011000Y-71565395D01*
X176025143Y-71551253D01*
X176204748Y-71730858D01*
G37*
X176204748Y-71730858D02*
X176190605Y-71745000D01*
X176204748Y-71759143D01*
X176025143Y-71938748D01*
X176011000Y-71924605D01*
X175996858Y-71938748D01*
X175817253Y-71759143D01*
X175831395Y-71745000D01*
X175817253Y-71730858D01*
X175996858Y-71551253D01*
X176011000Y-71565395D01*
X176025143Y-71551253D01*
X176204748Y-71730858D01*
G36*
X176204748Y-69190858D02*
G01*
X176190605Y-69205000D01*
X176204748Y-69219143D01*
X176025143Y-69398748D01*
X176011000Y-69384605D01*
X175996858Y-69398748D01*
X175817253Y-69219143D01*
X175831395Y-69205000D01*
X175817253Y-69190858D01*
X175996858Y-69011253D01*
X176011000Y-69025395D01*
X176025143Y-69011253D01*
X176204748Y-69190858D01*
G37*
X176204748Y-69190858D02*
X176190605Y-69205000D01*
X176204748Y-69219143D01*
X176025143Y-69398748D01*
X176011000Y-69384605D01*
X175996858Y-69398748D01*
X175817253Y-69219143D01*
X175831395Y-69205000D01*
X175817253Y-69190858D01*
X175996858Y-69011253D01*
X176011000Y-69025395D01*
X176025143Y-69011253D01*
X176204748Y-69190858D01*
G36*
X176204748Y-66650858D02*
G01*
X176190605Y-66665000D01*
X176204748Y-66679143D01*
X176025143Y-66858748D01*
X176011000Y-66844605D01*
X175996858Y-66858748D01*
X175817253Y-66679143D01*
X175831395Y-66665000D01*
X175817253Y-66650858D01*
X175996858Y-66471253D01*
X176011000Y-66485395D01*
X176025143Y-66471253D01*
X176204748Y-66650858D01*
G37*
X176204748Y-66650858D02*
X176190605Y-66665000D01*
X176204748Y-66679143D01*
X176025143Y-66858748D01*
X176011000Y-66844605D01*
X175996858Y-66858748D01*
X175817253Y-66679143D01*
X175831395Y-66665000D01*
X175817253Y-66650858D01*
X175996858Y-66471253D01*
X176011000Y-66485395D01*
X176025143Y-66471253D01*
X176204748Y-66650858D01*
G36*
X176204748Y-64110858D02*
G01*
X176190605Y-64125000D01*
X176204748Y-64139143D01*
X176025143Y-64318748D01*
X176011000Y-64304605D01*
X175996858Y-64318748D01*
X175817253Y-64139143D01*
X175831395Y-64125000D01*
X175817253Y-64110858D01*
X175996858Y-63931253D01*
X176011000Y-63945395D01*
X176025143Y-63931253D01*
X176204748Y-64110858D01*
G37*
X176204748Y-64110858D02*
X176190605Y-64125000D01*
X176204748Y-64139143D01*
X176025143Y-64318748D01*
X176011000Y-64304605D01*
X175996858Y-64318748D01*
X175817253Y-64139143D01*
X175831395Y-64125000D01*
X175817253Y-64110858D01*
X175996858Y-63931253D01*
X176011000Y-63945395D01*
X176025143Y-63931253D01*
X176204748Y-64110858D01*
M02*
