G04 #@! TF.GenerationSoftware,KiCad,Pcbnew,(5.1.5)-3*
G04 #@! TF.CreationDate,2020-04-25T00:27:07+01:00*
G04 #@! TF.ProjectId,SCSIConnector,53435349-436f-46e6-9e65-63746f722e6b,rev?*
G04 #@! TF.SameCoordinates,Original*
G04 #@! TF.FileFunction,Legend,Bot*
G04 #@! TF.FilePolarity,Positive*
%FSLAX46Y46*%
G04 Gerber Fmt 4.6, Leading zero omitted, Abs format (unit mm)*
G04 Created by KiCad (PCBNEW (5.1.5)-3) date 2020-04-25 00:27:07*
%MOMM*%
%LPD*%
G04 APERTURE LIST*
%ADD10C,0.150000*%
%ADD11C,0.300000*%
%ADD12C,0.120000*%
G04 APERTURE END LIST*
D10*
X179547619Y-60833333D02*
X180023809Y-61166666D01*
X179547619Y-61404761D02*
X180547619Y-61404761D01*
X180547619Y-61023809D01*
X180500000Y-60928571D01*
X180452380Y-60880952D01*
X180357142Y-60833333D01*
X180214285Y-60833333D01*
X180119047Y-60880952D01*
X180071428Y-60928571D01*
X180023809Y-61023809D01*
X180023809Y-61404761D01*
X179595238Y-60023809D02*
X179547619Y-60119047D01*
X179547619Y-60309523D01*
X179595238Y-60404761D01*
X179690476Y-60452380D01*
X180071428Y-60452380D01*
X180166666Y-60404761D01*
X180214285Y-60309523D01*
X180214285Y-60119047D01*
X180166666Y-60023809D01*
X180071428Y-59976190D01*
X179976190Y-59976190D01*
X179880952Y-60452380D01*
X180214285Y-59642857D02*
X179547619Y-59404761D01*
X180214285Y-59166666D01*
X180547619Y-57833333D02*
X180547619Y-57738095D01*
X180500000Y-57642857D01*
X180452380Y-57595238D01*
X180357142Y-57547619D01*
X180166666Y-57500000D01*
X179928571Y-57500000D01*
X179738095Y-57547619D01*
X179642857Y-57595238D01*
X179595238Y-57642857D01*
X179547619Y-57738095D01*
X179547619Y-57833333D01*
X179595238Y-57928571D01*
X179642857Y-57976190D01*
X179738095Y-58023809D01*
X179928571Y-58071428D01*
X180166666Y-58071428D01*
X180357142Y-58023809D01*
X180452380Y-57976190D01*
X180500000Y-57928571D01*
X180547619Y-57833333D01*
X179547619Y-56547619D02*
X179547619Y-57119047D01*
X179547619Y-56833333D02*
X180547619Y-56833333D01*
X180404761Y-56928571D01*
X180309523Y-57023809D01*
X180261904Y-57119047D01*
D11*
X192269047Y-89523809D02*
X192364285Y-89714285D01*
X192364285Y-90095238D01*
X192269047Y-90285714D01*
X192078571Y-90476190D01*
X191888095Y-90571428D01*
X191507142Y-90571428D01*
X191316666Y-90476190D01*
X191126190Y-90285714D01*
X191030952Y-90095238D01*
X191030952Y-89714285D01*
X191126190Y-89523809D01*
X193030952Y-89904761D02*
X192935714Y-90380952D01*
X192650000Y-90857142D01*
X192173809Y-91142857D01*
X191697619Y-91238095D01*
X191221428Y-91142857D01*
X190745238Y-90857142D01*
X190459523Y-90380952D01*
X190364285Y-89904761D01*
X190459523Y-89428571D01*
X190745238Y-88952380D01*
X191221428Y-88666666D01*
X191697619Y-88571428D01*
X192173809Y-88666666D01*
X192650000Y-88952380D01*
X192935714Y-89428571D01*
X193030952Y-89904761D01*
X190745238Y-86190476D02*
X192745238Y-86190476D01*
X190745238Y-85047619D02*
X191888095Y-85904761D01*
X192745238Y-85047619D02*
X191602380Y-86190476D01*
X190840476Y-83428571D02*
X190745238Y-83619047D01*
X190745238Y-84000000D01*
X190840476Y-84190476D01*
X191030952Y-84285714D01*
X191792857Y-84285714D01*
X191983333Y-84190476D01*
X192078571Y-84000000D01*
X192078571Y-83619047D01*
X191983333Y-83428571D01*
X191792857Y-83333333D01*
X191602380Y-83333333D01*
X191411904Y-84285714D01*
X192078571Y-82476190D02*
X190745238Y-82476190D01*
X191888095Y-82476190D02*
X191983333Y-82380952D01*
X192078571Y-82190476D01*
X192078571Y-81904761D01*
X191983333Y-81714285D01*
X191792857Y-81619047D01*
X190745238Y-81619047D01*
X190745238Y-78190476D02*
X190745238Y-79142857D01*
X192745238Y-79142857D01*
X190745238Y-77238095D02*
X190840476Y-77428571D01*
X190935714Y-77523809D01*
X191126190Y-77619047D01*
X191697619Y-77619047D01*
X191888095Y-77523809D01*
X191983333Y-77428571D01*
X192078571Y-77238095D01*
X192078571Y-76952380D01*
X191983333Y-76761904D01*
X191888095Y-76666666D01*
X191697619Y-76571428D01*
X191126190Y-76571428D01*
X190935714Y-76666666D01*
X190840476Y-76761904D01*
X190745238Y-76952380D01*
X190745238Y-77238095D01*
X192078571Y-75904761D02*
X190745238Y-75523809D01*
X191697619Y-75142857D01*
X190745238Y-74761904D01*
X192078571Y-74380952D01*
X190840476Y-72857142D02*
X190745238Y-73047619D01*
X190745238Y-73428571D01*
X190840476Y-73619047D01*
X191030952Y-73714285D01*
X191792857Y-73714285D01*
X191983333Y-73619047D01*
X192078571Y-73428571D01*
X192078571Y-73047619D01*
X191983333Y-72857142D01*
X191792857Y-72761904D01*
X191602380Y-72761904D01*
X191411904Y-73714285D01*
X188016666Y-89571428D02*
X188016666Y-88619047D01*
X187445238Y-89761904D02*
X189445238Y-89095238D01*
X187445238Y-88428571D01*
X188778571Y-87761904D02*
X186778571Y-87761904D01*
X188683333Y-87761904D02*
X188778571Y-87571428D01*
X188778571Y-87190476D01*
X188683333Y-87000000D01*
X188588095Y-86904761D01*
X188397619Y-86809523D01*
X187826190Y-86809523D01*
X187635714Y-86904761D01*
X187540476Y-87000000D01*
X187445238Y-87190476D01*
X187445238Y-87571428D01*
X187540476Y-87761904D01*
X187445238Y-85952380D02*
X188778571Y-85952380D01*
X188397619Y-85952380D02*
X188588095Y-85857142D01*
X188683333Y-85761904D01*
X188778571Y-85571428D01*
X188778571Y-85380952D01*
X187445238Y-84714285D02*
X188778571Y-84714285D01*
X189445238Y-84714285D02*
X189350000Y-84809523D01*
X189254761Y-84714285D01*
X189350000Y-84619047D01*
X189445238Y-84714285D01*
X189254761Y-84714285D01*
X187445238Y-83476190D02*
X187540476Y-83666666D01*
X187730952Y-83761904D01*
X189445238Y-83761904D01*
X189254761Y-81285714D02*
X189350000Y-81190476D01*
X189445238Y-81000000D01*
X189445238Y-80523809D01*
X189350000Y-80333333D01*
X189254761Y-80238095D01*
X189064285Y-80142857D01*
X188873809Y-80142857D01*
X188588095Y-80238095D01*
X187445238Y-81380952D01*
X187445238Y-80142857D01*
X189445238Y-78904761D02*
X189445238Y-78714285D01*
X189350000Y-78523809D01*
X189254761Y-78428571D01*
X189064285Y-78333333D01*
X188683333Y-78238095D01*
X188207142Y-78238095D01*
X187826190Y-78333333D01*
X187635714Y-78428571D01*
X187540476Y-78523809D01*
X187445238Y-78714285D01*
X187445238Y-78904761D01*
X187540476Y-79095238D01*
X187635714Y-79190476D01*
X187826190Y-79285714D01*
X188207142Y-79380952D01*
X188683333Y-79380952D01*
X189064285Y-79285714D01*
X189254761Y-79190476D01*
X189350000Y-79095238D01*
X189445238Y-78904761D01*
X189254761Y-77476190D02*
X189350000Y-77380952D01*
X189445238Y-77190476D01*
X189445238Y-76714285D01*
X189350000Y-76523809D01*
X189254761Y-76428571D01*
X189064285Y-76333333D01*
X188873809Y-76333333D01*
X188588095Y-76428571D01*
X187445238Y-77571428D01*
X187445238Y-76333333D01*
X189445238Y-75095238D02*
X189445238Y-74904761D01*
X189350000Y-74714285D01*
X189254761Y-74619047D01*
X189064285Y-74523809D01*
X188683333Y-74428571D01*
X188207142Y-74428571D01*
X187826190Y-74523809D01*
X187635714Y-74619047D01*
X187540476Y-74714285D01*
X187445238Y-74904761D01*
X187445238Y-75095238D01*
X187540476Y-75285714D01*
X187635714Y-75380952D01*
X187826190Y-75476190D01*
X188207142Y-75571428D01*
X188683333Y-75571428D01*
X189064285Y-75476190D01*
X189254761Y-75380952D01*
X189350000Y-75285714D01*
X189445238Y-75095238D01*
D10*
X179595238Y-91404761D02*
X179547619Y-91261904D01*
X179547619Y-91023809D01*
X179595238Y-90928571D01*
X179642857Y-90880952D01*
X179738095Y-90833333D01*
X179833333Y-90833333D01*
X179928571Y-90880952D01*
X179976190Y-90928571D01*
X180023809Y-91023809D01*
X180071428Y-91214285D01*
X180119047Y-91309523D01*
X180166666Y-91357142D01*
X180261904Y-91404761D01*
X180357142Y-91404761D01*
X180452380Y-91357142D01*
X180500000Y-91309523D01*
X180547619Y-91214285D01*
X180547619Y-90976190D01*
X180500000Y-90833333D01*
X179642857Y-89833333D02*
X179595238Y-89880952D01*
X179547619Y-90023809D01*
X179547619Y-90119047D01*
X179595238Y-90261904D01*
X179690476Y-90357142D01*
X179785714Y-90404761D01*
X179976190Y-90452380D01*
X180119047Y-90452380D01*
X180309523Y-90404761D01*
X180404761Y-90357142D01*
X180500000Y-90261904D01*
X180547619Y-90119047D01*
X180547619Y-90023809D01*
X180500000Y-89880952D01*
X180452380Y-89833333D01*
X179595238Y-89452380D02*
X179547619Y-89309523D01*
X179547619Y-89071428D01*
X179595238Y-88976190D01*
X179642857Y-88928571D01*
X179738095Y-88880952D01*
X179833333Y-88880952D01*
X179928571Y-88928571D01*
X179976190Y-88976190D01*
X180023809Y-89071428D01*
X180071428Y-89261904D01*
X180119047Y-89357142D01*
X180166666Y-89404761D01*
X180261904Y-89452380D01*
X180357142Y-89452380D01*
X180452380Y-89404761D01*
X180500000Y-89357142D01*
X180547619Y-89261904D01*
X180547619Y-89023809D01*
X180500000Y-88880952D01*
X179547619Y-88452380D02*
X180547619Y-88452380D01*
X179547619Y-87214285D02*
X180547619Y-87214285D01*
X180547619Y-86976190D01*
X180500000Y-86833333D01*
X180404761Y-86738095D01*
X180309523Y-86690476D01*
X180119047Y-86642857D01*
X179976190Y-86642857D01*
X179785714Y-86690476D01*
X179690476Y-86738095D01*
X179595238Y-86833333D01*
X179547619Y-86976190D01*
X179547619Y-87214285D01*
X179547619Y-86214285D02*
X180214285Y-86214285D01*
X180547619Y-86214285D02*
X180500000Y-86261904D01*
X180452380Y-86214285D01*
X180500000Y-86166666D01*
X180547619Y-86214285D01*
X180452380Y-86214285D01*
X179595238Y-85785714D02*
X179547619Y-85690476D01*
X179547619Y-85500000D01*
X179595238Y-85404761D01*
X179690476Y-85357142D01*
X179738095Y-85357142D01*
X179833333Y-85404761D01*
X179880952Y-85500000D01*
X179880952Y-85642857D01*
X179928571Y-85738095D01*
X180023809Y-85785714D01*
X180071428Y-85785714D01*
X180166666Y-85738095D01*
X180214285Y-85642857D01*
X180214285Y-85500000D01*
X180166666Y-85404761D01*
X179547619Y-84928571D02*
X180547619Y-84928571D01*
X179928571Y-84833333D02*
X179547619Y-84547619D01*
X180214285Y-84547619D02*
X179833333Y-84928571D01*
X179547619Y-83357142D02*
X180547619Y-83357142D01*
X180547619Y-83119047D01*
X180500000Y-82976190D01*
X180404761Y-82880952D01*
X180309523Y-82833333D01*
X180119047Y-82785714D01*
X179976190Y-82785714D01*
X179785714Y-82833333D01*
X179690476Y-82880952D01*
X179595238Y-82976190D01*
X179547619Y-83119047D01*
X179547619Y-83357142D01*
X179547619Y-82357142D02*
X180214285Y-82357142D01*
X180023809Y-82357142D02*
X180119047Y-82309523D01*
X180166666Y-82261904D01*
X180214285Y-82166666D01*
X180214285Y-82071428D01*
X179547619Y-81738095D02*
X180214285Y-81738095D01*
X180547619Y-81738095D02*
X180500000Y-81785714D01*
X180452380Y-81738095D01*
X180500000Y-81690476D01*
X180547619Y-81738095D01*
X180452380Y-81738095D01*
X180214285Y-81357142D02*
X179547619Y-81119047D01*
X180214285Y-80880952D01*
X179595238Y-80119047D02*
X179547619Y-80214285D01*
X179547619Y-80404761D01*
X179595238Y-80500000D01*
X179690476Y-80547619D01*
X180071428Y-80547619D01*
X180166666Y-80500000D01*
X180214285Y-80404761D01*
X180214285Y-80214285D01*
X180166666Y-80119047D01*
X180071428Y-80071428D01*
X179976190Y-80071428D01*
X179880952Y-80547619D01*
X179928571Y-78880952D02*
X179928571Y-78119047D01*
X179595238Y-76928571D02*
X179547619Y-76785714D01*
X179547619Y-76547619D01*
X179595238Y-76452380D01*
X179642857Y-76404761D01*
X179738095Y-76357142D01*
X179833333Y-76357142D01*
X179928571Y-76404761D01*
X179976190Y-76452380D01*
X180023809Y-76547619D01*
X180071428Y-76738095D01*
X180119047Y-76833333D01*
X180166666Y-76880952D01*
X180261904Y-76928571D01*
X180357142Y-76928571D01*
X180452380Y-76880952D01*
X180500000Y-76833333D01*
X180547619Y-76738095D01*
X180547619Y-76500000D01*
X180500000Y-76357142D01*
X179642857Y-75357142D02*
X179595238Y-75404761D01*
X179547619Y-75547619D01*
X179547619Y-75642857D01*
X179595238Y-75785714D01*
X179690476Y-75880952D01*
X179785714Y-75928571D01*
X179976190Y-75976190D01*
X180119047Y-75976190D01*
X180309523Y-75928571D01*
X180404761Y-75880952D01*
X180500000Y-75785714D01*
X180547619Y-75642857D01*
X180547619Y-75547619D01*
X180500000Y-75404761D01*
X180452380Y-75357142D01*
X179833333Y-74976190D02*
X179833333Y-74500000D01*
X179547619Y-75071428D02*
X180547619Y-74738095D01*
X179547619Y-74404761D01*
X180119047Y-73928571D02*
X180166666Y-74023809D01*
X180214285Y-74071428D01*
X180309523Y-74119047D01*
X180357142Y-74119047D01*
X180452380Y-74071428D01*
X180500000Y-74023809D01*
X180547619Y-73928571D01*
X180547619Y-73738095D01*
X180500000Y-73642857D01*
X180452380Y-73595238D01*
X180357142Y-73547619D01*
X180309523Y-73547619D01*
X180214285Y-73595238D01*
X180166666Y-73642857D01*
X180119047Y-73738095D01*
X180119047Y-73928571D01*
X180071428Y-74023809D01*
X180023809Y-74071428D01*
X179928571Y-74119047D01*
X179738095Y-74119047D01*
X179642857Y-74071428D01*
X179595238Y-74023809D01*
X179547619Y-73928571D01*
X179547619Y-73738095D01*
X179595238Y-73642857D01*
X179642857Y-73595238D01*
X179738095Y-73547619D01*
X179928571Y-73547619D01*
X180023809Y-73595238D01*
X180071428Y-73642857D01*
X180119047Y-73738095D01*
X180547619Y-72928571D02*
X180547619Y-72833333D01*
X180500000Y-72738095D01*
X180452380Y-72690476D01*
X180357142Y-72642857D01*
X180166666Y-72595238D01*
X179928571Y-72595238D01*
X179738095Y-72642857D01*
X179642857Y-72690476D01*
X179595238Y-72738095D01*
X179547619Y-72833333D01*
X179547619Y-72928571D01*
X179595238Y-73023809D01*
X179642857Y-73071428D01*
X179738095Y-73119047D01*
X179928571Y-73166666D01*
X180166666Y-73166666D01*
X180357142Y-73119047D01*
X180452380Y-73071428D01*
X180500000Y-73023809D01*
X180547619Y-72928571D01*
D12*
X179000000Y-49000000D02*
X179000000Y-111000000D01*
D10*
X178214285Y-105285714D02*
X177547619Y-105285714D01*
X178595238Y-105523809D02*
X177880952Y-105761904D01*
X177880952Y-105142857D01*
X178452380Y-104809523D02*
X178500000Y-104761904D01*
X178547619Y-104666666D01*
X178547619Y-104428571D01*
X178500000Y-104333333D01*
X178452380Y-104285714D01*
X178357142Y-104238095D01*
X178261904Y-104238095D01*
X178119047Y-104285714D01*
X177547619Y-104857142D01*
X177547619Y-104238095D01*
X174204285Y-53625714D02*
X173537619Y-53625714D01*
X174585238Y-53863809D02*
X173870952Y-54101904D01*
X173870952Y-53482857D01*
X174537619Y-52911428D02*
X174537619Y-52816190D01*
X174490000Y-52720952D01*
X174442380Y-52673333D01*
X174347142Y-52625714D01*
X174156666Y-52578095D01*
X173918571Y-52578095D01*
X173728095Y-52625714D01*
X173632857Y-52673333D01*
X173585238Y-52720952D01*
X173537619Y-52816190D01*
X173537619Y-52911428D01*
X173585238Y-53006666D01*
X173632857Y-53054285D01*
X173728095Y-53101904D01*
X173918571Y-53149523D01*
X174156666Y-53149523D01*
X174347142Y-53101904D01*
X174442380Y-53054285D01*
X174490000Y-53006666D01*
X174537619Y-52911428D01*
X172632619Y-55419523D02*
X172632619Y-54800476D01*
X172251666Y-55133809D01*
X172251666Y-54990952D01*
X172204047Y-54895714D01*
X172156428Y-54848095D01*
X172061190Y-54800476D01*
X171823095Y-54800476D01*
X171727857Y-54848095D01*
X171680238Y-54895714D01*
X171632619Y-54990952D01*
X171632619Y-55276666D01*
X171680238Y-55371904D01*
X171727857Y-55419523D01*
X171632619Y-54324285D02*
X171632619Y-54133809D01*
X171680238Y-54038571D01*
X171727857Y-53990952D01*
X171870714Y-53895714D01*
X172061190Y-53848095D01*
X172442142Y-53848095D01*
X172537380Y-53895714D01*
X172585000Y-53943333D01*
X172632619Y-54038571D01*
X172632619Y-54229047D01*
X172585000Y-54324285D01*
X172537380Y-54371904D01*
X172442142Y-54419523D01*
X172204047Y-54419523D01*
X172108809Y-54371904D01*
X172061190Y-54324285D01*
X172013571Y-54229047D01*
X172013571Y-54038571D01*
X172061190Y-53943333D01*
X172108809Y-53895714D01*
X172204047Y-53848095D01*
X177919047Y-53911428D02*
X177966666Y-54006666D01*
X178014285Y-54054285D01*
X178109523Y-54101904D01*
X178157142Y-54101904D01*
X178252380Y-54054285D01*
X178300000Y-54006666D01*
X178347619Y-53911428D01*
X178347619Y-53720952D01*
X178300000Y-53625714D01*
X178252380Y-53578095D01*
X178157142Y-53530476D01*
X178109523Y-53530476D01*
X178014285Y-53578095D01*
X177966666Y-53625714D01*
X177919047Y-53720952D01*
X177919047Y-53911428D01*
X177871428Y-54006666D01*
X177823809Y-54054285D01*
X177728571Y-54101904D01*
X177538095Y-54101904D01*
X177442857Y-54054285D01*
X177395238Y-54006666D01*
X177347619Y-53911428D01*
X177347619Y-53720952D01*
X177395238Y-53625714D01*
X177442857Y-53578095D01*
X177538095Y-53530476D01*
X177728571Y-53530476D01*
X177823809Y-53578095D01*
X177871428Y-53625714D01*
X177919047Y-53720952D01*
X178347619Y-52911428D02*
X178347619Y-52816190D01*
X178300000Y-52720952D01*
X178252380Y-52673333D01*
X178157142Y-52625714D01*
X177966666Y-52578095D01*
X177728571Y-52578095D01*
X177538095Y-52625714D01*
X177442857Y-52673333D01*
X177395238Y-52720952D01*
X177347619Y-52816190D01*
X177347619Y-52911428D01*
X177395238Y-53006666D01*
X177442857Y-53054285D01*
X177538095Y-53101904D01*
X177728571Y-53149523D01*
X177966666Y-53149523D01*
X178157142Y-53101904D01*
X178252380Y-53054285D01*
X178300000Y-53006666D01*
X178347619Y-52911428D01*
X176442619Y-55419523D02*
X176442619Y-54752857D01*
X175442619Y-55181428D01*
X175442619Y-54324285D02*
X175442619Y-54133809D01*
X175490238Y-54038571D01*
X175537857Y-53990952D01*
X175680714Y-53895714D01*
X175871190Y-53848095D01*
X176252142Y-53848095D01*
X176347380Y-53895714D01*
X176395000Y-53943333D01*
X176442619Y-54038571D01*
X176442619Y-54229047D01*
X176395000Y-54324285D01*
X176347380Y-54371904D01*
X176252142Y-54419523D01*
X176014047Y-54419523D01*
X175918809Y-54371904D01*
X175871190Y-54324285D01*
X175823571Y-54229047D01*
X175823571Y-54038571D01*
X175871190Y-53943333D01*
X175918809Y-53895714D01*
X176014047Y-53848095D01*
X174442380Y-105695714D02*
X174490000Y-105648095D01*
X174537619Y-105552857D01*
X174537619Y-105314761D01*
X174490000Y-105219523D01*
X174442380Y-105171904D01*
X174347142Y-105124285D01*
X174251904Y-105124285D01*
X174109047Y-105171904D01*
X173537619Y-105743333D01*
X173537619Y-105124285D01*
X171632619Y-106394285D02*
X171632619Y-106965714D01*
X171632619Y-106680000D02*
X172632619Y-106680000D01*
X172489761Y-106775238D01*
X172394523Y-106870476D01*
X172346904Y-106965714D01*
X201699285Y-123475714D02*
X201032619Y-123475714D01*
X202080238Y-123713809D02*
X201365952Y-123951904D01*
X201365952Y-123332857D01*
X201032619Y-122904285D02*
X201032619Y-122713809D01*
X201080238Y-122618571D01*
X201127857Y-122570952D01*
X201270714Y-122475714D01*
X201461190Y-122428095D01*
X201842142Y-122428095D01*
X201937380Y-122475714D01*
X201985000Y-122523333D01*
X202032619Y-122618571D01*
X202032619Y-122809047D01*
X201985000Y-122904285D01*
X201937380Y-122951904D01*
X201842142Y-122999523D01*
X201604047Y-122999523D01*
X201508809Y-122951904D01*
X201461190Y-122904285D01*
X201413571Y-122809047D01*
X201413571Y-122618571D01*
X201461190Y-122523333D01*
X201508809Y-122475714D01*
X201604047Y-122428095D01*
X200382619Y-123428095D02*
X200382619Y-123904285D01*
X199906428Y-123951904D01*
X199954047Y-123904285D01*
X200001666Y-123809047D01*
X200001666Y-123570952D01*
X199954047Y-123475714D01*
X199906428Y-123428095D01*
X199811190Y-123380476D01*
X199573095Y-123380476D01*
X199477857Y-123428095D01*
X199430238Y-123475714D01*
X199382619Y-123570952D01*
X199382619Y-123809047D01*
X199430238Y-123904285D01*
X199477857Y-123951904D01*
X200382619Y-122761428D02*
X200382619Y-122666190D01*
X200335000Y-122570952D01*
X200287380Y-122523333D01*
X200192142Y-122475714D01*
X200001666Y-122428095D01*
X199763571Y-122428095D01*
X199573095Y-122475714D01*
X199477857Y-122523333D01*
X199430238Y-122570952D01*
X199382619Y-122666190D01*
X199382619Y-122761428D01*
X199430238Y-122856666D01*
X199477857Y-122904285D01*
X199573095Y-122951904D01*
X199763571Y-122999523D01*
X200001666Y-122999523D01*
X200192142Y-122951904D01*
X200287380Y-122904285D01*
X200335000Y-122856666D01*
X200382619Y-122761428D01*
X201032619Y-61944285D02*
X201032619Y-62515714D01*
X201032619Y-62230000D02*
X202032619Y-62230000D01*
X201889761Y-62325238D01*
X201794523Y-62420476D01*
X201746904Y-62515714D01*
X200287380Y-62515714D02*
X200335000Y-62468095D01*
X200382619Y-62372857D01*
X200382619Y-62134761D01*
X200335000Y-62039523D01*
X200287380Y-61991904D01*
X200192142Y-61944285D01*
X200096904Y-61944285D01*
X199954047Y-61991904D01*
X199382619Y-62563333D01*
X199382619Y-61944285D01*
X202001428Y-103352857D02*
X201953809Y-103210000D01*
X201906190Y-103162380D01*
X201810952Y-103114761D01*
X201668095Y-103114761D01*
X201572857Y-103162380D01*
X201525238Y-103210000D01*
X201477619Y-103305238D01*
X201477619Y-103686190D01*
X202477619Y-103686190D01*
X202477619Y-103352857D01*
X202430000Y-103257619D01*
X202382380Y-103210000D01*
X202287142Y-103162380D01*
X202191904Y-103162380D01*
X202096666Y-103210000D01*
X202049047Y-103257619D01*
X202001428Y-103352857D01*
X202001428Y-103686190D01*
X202001428Y-102352857D02*
X201953809Y-102210000D01*
X201906190Y-102162380D01*
X201810952Y-102114761D01*
X201668095Y-102114761D01*
X201572857Y-102162380D01*
X201525238Y-102210000D01*
X201477619Y-102305238D01*
X201477619Y-102686190D01*
X202477619Y-102686190D01*
X202477619Y-102352857D01*
X202430000Y-102257619D01*
X202382380Y-102210000D01*
X202287142Y-102162380D01*
X202191904Y-102162380D01*
X202096666Y-102210000D01*
X202049047Y-102257619D01*
X202001428Y-102352857D01*
X202001428Y-102686190D01*
X201572857Y-101114761D02*
X201525238Y-101162380D01*
X201477619Y-101305238D01*
X201477619Y-101400476D01*
X201525238Y-101543333D01*
X201620476Y-101638571D01*
X201715714Y-101686190D01*
X201906190Y-101733809D01*
X202049047Y-101733809D01*
X202239523Y-101686190D01*
X202334761Y-101638571D01*
X202430000Y-101543333D01*
X202477619Y-101400476D01*
X202477619Y-101305238D01*
X202430000Y-101162380D01*
X202382380Y-101114761D01*
X201477619Y-99924285D02*
X202477619Y-99924285D01*
X201763333Y-99590952D01*
X202477619Y-99257619D01*
X201477619Y-99257619D01*
X201477619Y-98781428D02*
X202144285Y-98781428D01*
X202477619Y-98781428D02*
X202430000Y-98829047D01*
X202382380Y-98781428D01*
X202430000Y-98733809D01*
X202477619Y-98781428D01*
X202382380Y-98781428D01*
X201525238Y-97876666D02*
X201477619Y-97971904D01*
X201477619Y-98162380D01*
X201525238Y-98257619D01*
X201572857Y-98305238D01*
X201668095Y-98352857D01*
X201953809Y-98352857D01*
X202049047Y-98305238D01*
X202096666Y-98257619D01*
X202144285Y-98162380D01*
X202144285Y-97971904D01*
X202096666Y-97876666D01*
X201477619Y-97448095D02*
X202144285Y-97448095D01*
X201953809Y-97448095D02*
X202049047Y-97400476D01*
X202096666Y-97352857D01*
X202144285Y-97257619D01*
X202144285Y-97162380D01*
X201477619Y-96686190D02*
X201525238Y-96781428D01*
X201572857Y-96829047D01*
X201668095Y-96876666D01*
X201953809Y-96876666D01*
X202049047Y-96829047D01*
X202096666Y-96781428D01*
X202144285Y-96686190D01*
X202144285Y-96543333D01*
X202096666Y-96448095D01*
X202049047Y-96400476D01*
X201953809Y-96352857D01*
X201668095Y-96352857D01*
X201572857Y-96400476D01*
X201525238Y-96448095D01*
X201477619Y-96543333D01*
X201477619Y-96686190D01*
X201525238Y-95210000D02*
X201477619Y-95067142D01*
X201477619Y-94829047D01*
X201525238Y-94733809D01*
X201572857Y-94686190D01*
X201668095Y-94638571D01*
X201763333Y-94638571D01*
X201858571Y-94686190D01*
X201906190Y-94733809D01*
X201953809Y-94829047D01*
X202001428Y-95019523D01*
X202049047Y-95114761D01*
X202096666Y-95162380D01*
X202191904Y-95210000D01*
X202287142Y-95210000D01*
X202382380Y-95162380D01*
X202430000Y-95114761D01*
X202477619Y-95019523D01*
X202477619Y-94781428D01*
X202430000Y-94638571D01*
X201572857Y-93638571D02*
X201525238Y-93686190D01*
X201477619Y-93829047D01*
X201477619Y-93924285D01*
X201525238Y-94067142D01*
X201620476Y-94162380D01*
X201715714Y-94210000D01*
X201906190Y-94257619D01*
X202049047Y-94257619D01*
X202239523Y-94210000D01*
X202334761Y-94162380D01*
X202430000Y-94067142D01*
X202477619Y-93924285D01*
X202477619Y-93829047D01*
X202430000Y-93686190D01*
X202382380Y-93638571D01*
X201525238Y-93257619D02*
X201477619Y-93114761D01*
X201477619Y-92876666D01*
X201525238Y-92781428D01*
X201572857Y-92733809D01*
X201668095Y-92686190D01*
X201763333Y-92686190D01*
X201858571Y-92733809D01*
X201906190Y-92781428D01*
X201953809Y-92876666D01*
X202001428Y-93067142D01*
X202049047Y-93162380D01*
X202096666Y-93210000D01*
X202191904Y-93257619D01*
X202287142Y-93257619D01*
X202382380Y-93210000D01*
X202430000Y-93162380D01*
X202477619Y-93067142D01*
X202477619Y-92829047D01*
X202430000Y-92686190D01*
X201477619Y-92257619D02*
X202477619Y-92257619D01*
X201477619Y-91019523D02*
X202477619Y-91019523D01*
X202001428Y-91019523D02*
X202001428Y-90448095D01*
X201477619Y-90448095D02*
X202477619Y-90448095D01*
X201477619Y-89829047D02*
X201525238Y-89924285D01*
X201572857Y-89971904D01*
X201668095Y-90019523D01*
X201953809Y-90019523D01*
X202049047Y-89971904D01*
X202096666Y-89924285D01*
X202144285Y-89829047D01*
X202144285Y-89686190D01*
X202096666Y-89590952D01*
X202049047Y-89543333D01*
X201953809Y-89495714D01*
X201668095Y-89495714D01*
X201572857Y-89543333D01*
X201525238Y-89590952D01*
X201477619Y-89686190D01*
X201477619Y-89829047D01*
X201525238Y-89114761D02*
X201477619Y-89019523D01*
X201477619Y-88829047D01*
X201525238Y-88733809D01*
X201620476Y-88686190D01*
X201668095Y-88686190D01*
X201763333Y-88733809D01*
X201810952Y-88829047D01*
X201810952Y-88971904D01*
X201858571Y-89067142D01*
X201953809Y-89114761D01*
X202001428Y-89114761D01*
X202096666Y-89067142D01*
X202144285Y-88971904D01*
X202144285Y-88829047D01*
X202096666Y-88733809D01*
X202144285Y-88400476D02*
X202144285Y-88019523D01*
X202477619Y-88257619D02*
X201620476Y-88257619D01*
X201525238Y-88210000D01*
X201477619Y-88114761D01*
X201477619Y-88019523D01*
X201763333Y-86971904D02*
X201763333Y-86495714D01*
X201477619Y-87067142D02*
X202477619Y-86733809D01*
X201477619Y-86400476D01*
X201477619Y-85638571D02*
X202477619Y-85638571D01*
X201525238Y-85638571D02*
X201477619Y-85733809D01*
X201477619Y-85924285D01*
X201525238Y-86019523D01*
X201572857Y-86067142D01*
X201668095Y-86114761D01*
X201953809Y-86114761D01*
X202049047Y-86067142D01*
X202096666Y-86019523D01*
X202144285Y-85924285D01*
X202144285Y-85733809D01*
X202096666Y-85638571D01*
X201477619Y-84733809D02*
X202001428Y-84733809D01*
X202096666Y-84781428D01*
X202144285Y-84876666D01*
X202144285Y-85067142D01*
X202096666Y-85162380D01*
X201525238Y-84733809D02*
X201477619Y-84829047D01*
X201477619Y-85067142D01*
X201525238Y-85162380D01*
X201620476Y-85210000D01*
X201715714Y-85210000D01*
X201810952Y-85162380D01*
X201858571Y-85067142D01*
X201858571Y-84829047D01*
X201906190Y-84733809D01*
X202144285Y-84257619D02*
X201144285Y-84257619D01*
X202096666Y-84257619D02*
X202144285Y-84162380D01*
X202144285Y-83971904D01*
X202096666Y-83876666D01*
X202049047Y-83829047D01*
X201953809Y-83781428D01*
X201668095Y-83781428D01*
X201572857Y-83829047D01*
X201525238Y-83876666D01*
X201477619Y-83971904D01*
X201477619Y-84162380D01*
X201525238Y-84257619D01*
X202144285Y-83495714D02*
X202144285Y-83114761D01*
X202477619Y-83352857D02*
X201620476Y-83352857D01*
X201525238Y-83305238D01*
X201477619Y-83210000D01*
X201477619Y-83114761D01*
X201477619Y-82638571D02*
X201525238Y-82733809D01*
X201572857Y-82781428D01*
X201668095Y-82829047D01*
X201953809Y-82829047D01*
X202049047Y-82781428D01*
X202096666Y-82733809D01*
X202144285Y-82638571D01*
X202144285Y-82495714D01*
X202096666Y-82400476D01*
X202049047Y-82352857D01*
X201953809Y-82305238D01*
X201668095Y-82305238D01*
X201572857Y-82352857D01*
X201525238Y-82400476D01*
X201477619Y-82495714D01*
X201477619Y-82638571D01*
X201477619Y-81876666D02*
X202144285Y-81876666D01*
X201953809Y-81876666D02*
X202049047Y-81829047D01*
X202096666Y-81781428D01*
X202144285Y-81686190D01*
X202144285Y-81590952D01*
D12*
X203000000Y-60000000D02*
X203000000Y-125000000D01*
D10*
X173537619Y-45426190D02*
X174537619Y-45426190D01*
X173537619Y-44950000D02*
X174537619Y-44950000D01*
X174537619Y-44711904D01*
X174490000Y-44569047D01*
X174394761Y-44473809D01*
X174299523Y-44426190D01*
X174109047Y-44378571D01*
X173966190Y-44378571D01*
X173775714Y-44426190D01*
X173680476Y-44473809D01*
X173585238Y-44569047D01*
X173537619Y-44711904D01*
X173537619Y-44950000D01*
X174537619Y-43759523D02*
X174537619Y-43664285D01*
X174490000Y-43569047D01*
X174442380Y-43521428D01*
X174347142Y-43473809D01*
X174156666Y-43426190D01*
X173918571Y-43426190D01*
X173728095Y-43473809D01*
X173632857Y-43521428D01*
X173585238Y-43569047D01*
X173537619Y-43664285D01*
X173537619Y-43759523D01*
X173585238Y-43854761D01*
X173632857Y-43902380D01*
X173728095Y-43950000D01*
X173918571Y-43997619D01*
X174156666Y-43997619D01*
X174347142Y-43950000D01*
X174442380Y-43902380D01*
X174490000Y-43854761D01*
X174537619Y-43759523D01*
X176077619Y-45426190D02*
X177077619Y-45426190D01*
X176077619Y-44950000D02*
X177077619Y-44950000D01*
X177077619Y-44711904D01*
X177030000Y-44569047D01*
X176934761Y-44473809D01*
X176839523Y-44426190D01*
X176649047Y-44378571D01*
X176506190Y-44378571D01*
X176315714Y-44426190D01*
X176220476Y-44473809D01*
X176125238Y-44569047D01*
X176077619Y-44711904D01*
X176077619Y-44950000D01*
X176077619Y-43426190D02*
X176077619Y-43997619D01*
X176077619Y-43711904D02*
X177077619Y-43711904D01*
X176934761Y-43807142D01*
X176839523Y-43902380D01*
X176791904Y-43997619D01*
X178617619Y-45426190D02*
X179617619Y-45426190D01*
X178617619Y-44950000D02*
X179617619Y-44950000D01*
X179617619Y-44711904D01*
X179570000Y-44569047D01*
X179474761Y-44473809D01*
X179379523Y-44426190D01*
X179189047Y-44378571D01*
X179046190Y-44378571D01*
X178855714Y-44426190D01*
X178760476Y-44473809D01*
X178665238Y-44569047D01*
X178617619Y-44711904D01*
X178617619Y-44950000D01*
X179522380Y-43997619D02*
X179570000Y-43950000D01*
X179617619Y-43854761D01*
X179617619Y-43616666D01*
X179570000Y-43521428D01*
X179522380Y-43473809D01*
X179427142Y-43426190D01*
X179331904Y-43426190D01*
X179189047Y-43473809D01*
X178617619Y-44045238D01*
X178617619Y-43426190D01*
X181157619Y-45426190D02*
X182157619Y-45426190D01*
X181157619Y-44950000D02*
X182157619Y-44950000D01*
X182157619Y-44711904D01*
X182110000Y-44569047D01*
X182014761Y-44473809D01*
X181919523Y-44426190D01*
X181729047Y-44378571D01*
X181586190Y-44378571D01*
X181395714Y-44426190D01*
X181300476Y-44473809D01*
X181205238Y-44569047D01*
X181157619Y-44711904D01*
X181157619Y-44950000D01*
X182157619Y-44045238D02*
X182157619Y-43426190D01*
X181776666Y-43759523D01*
X181776666Y-43616666D01*
X181729047Y-43521428D01*
X181681428Y-43473809D01*
X181586190Y-43426190D01*
X181348095Y-43426190D01*
X181252857Y-43473809D01*
X181205238Y-43521428D01*
X181157619Y-43616666D01*
X181157619Y-43902380D01*
X181205238Y-43997619D01*
X181252857Y-44045238D01*
X183697619Y-45664285D02*
X184697619Y-45664285D01*
X183983333Y-45330952D01*
X184697619Y-44997619D01*
X183697619Y-44997619D01*
X184697619Y-44664285D02*
X184697619Y-44092857D01*
X183697619Y-44378571D02*
X184697619Y-44378571D01*
X183697619Y-43188095D02*
X184173809Y-43521428D01*
X183697619Y-43759523D02*
X184697619Y-43759523D01*
X184697619Y-43378571D01*
X184650000Y-43283333D01*
X184602380Y-43235714D01*
X184507142Y-43188095D01*
X184364285Y-43188095D01*
X184269047Y-43235714D01*
X184221428Y-43283333D01*
X184173809Y-43378571D01*
X184173809Y-43759523D01*
X186237619Y-45545238D02*
X187237619Y-45545238D01*
X187237619Y-45307142D01*
X187190000Y-45164285D01*
X187094761Y-45069047D01*
X186999523Y-45021428D01*
X186809047Y-44973809D01*
X186666190Y-44973809D01*
X186475714Y-45021428D01*
X186380476Y-45069047D01*
X186285238Y-45164285D01*
X186237619Y-45307142D01*
X186237619Y-45545238D01*
X186237619Y-44069047D02*
X186237619Y-44545238D01*
X187237619Y-44545238D01*
X186713809Y-43545238D02*
X186237619Y-43545238D01*
X187237619Y-43878571D02*
X186713809Y-43545238D01*
X187237619Y-43211904D01*
X188825238Y-45688095D02*
X188777619Y-45545238D01*
X188777619Y-45307142D01*
X188825238Y-45211904D01*
X188872857Y-45164285D01*
X188968095Y-45116666D01*
X189063333Y-45116666D01*
X189158571Y-45164285D01*
X189206190Y-45211904D01*
X189253809Y-45307142D01*
X189301428Y-45497619D01*
X189349047Y-45592857D01*
X189396666Y-45640476D01*
X189491904Y-45688095D01*
X189587142Y-45688095D01*
X189682380Y-45640476D01*
X189730000Y-45592857D01*
X189777619Y-45497619D01*
X189777619Y-45259523D01*
X189730000Y-45116666D01*
X189253809Y-44497619D02*
X188777619Y-44497619D01*
X189777619Y-44830952D02*
X189253809Y-44497619D01*
X189777619Y-44164285D01*
X188777619Y-43830952D02*
X189777619Y-43830952D01*
X188777619Y-43259523D01*
X189777619Y-43259523D01*
X191317619Y-45092857D02*
X191317619Y-45569047D01*
X192317619Y-45569047D01*
X191841428Y-44759523D02*
X191841428Y-44426190D01*
X191317619Y-44283333D02*
X191317619Y-44759523D01*
X192317619Y-44759523D01*
X192317619Y-44283333D01*
X191317619Y-43854761D02*
X192317619Y-43854761D01*
X192317619Y-43616666D01*
X192270000Y-43473809D01*
X192174761Y-43378571D01*
X192079523Y-43330952D01*
X191889047Y-43283333D01*
X191746190Y-43283333D01*
X191555714Y-43330952D01*
X191460476Y-43378571D01*
X191365238Y-43473809D01*
X191317619Y-43616666D01*
X191317619Y-43854761D01*
D11*
X194580000Y-123580000D02*
X194580000Y-117380000D01*
X171180000Y-123580000D02*
X171180000Y-117380000D01*
X171180000Y-123580000D02*
X194580000Y-123580000D01*
X172180000Y-122580000D02*
X172180000Y-117880000D01*
X193580000Y-122580000D02*
X193580000Y-117880000D01*
X173380000Y-115180000D02*
X192380000Y-115180000D01*
X173380000Y-115180000D02*
X171180000Y-117380000D01*
X192380000Y-115180000D02*
X194580000Y-117380000D01*
X172180000Y-122580000D02*
X193580000Y-122580000D01*
X173880000Y-116180000D02*
X191880000Y-116180000D01*
X173880000Y-116180000D02*
X172180000Y-117880000D01*
X191880000Y-116180000D02*
X193580000Y-117880000D01*
D12*
X183165000Y-101585000D02*
X183165000Y-105425000D01*
X181325000Y-101585000D02*
X181325000Y-105425000D01*
X186340000Y-101585000D02*
X186340000Y-105425000D01*
X184500000Y-101585000D02*
X184500000Y-105425000D01*
X189515000Y-101585000D02*
X189515000Y-105425000D01*
X187675000Y-101585000D02*
X187675000Y-105425000D01*
X192690000Y-101585000D02*
X192690000Y-105425000D01*
X190850000Y-101585000D02*
X190850000Y-105425000D01*
X193100000Y-42605000D02*
X193100000Y-41275000D01*
X191770000Y-42605000D02*
X193100000Y-42605000D01*
X193100000Y-40005000D02*
X193100000Y-37405000D01*
X190500000Y-40005000D02*
X193100000Y-40005000D01*
X190500000Y-42605000D02*
X190500000Y-40005000D01*
X193100000Y-37405000D02*
X172660000Y-37405000D01*
X190500000Y-42605000D02*
X172660000Y-42605000D01*
X172660000Y-42605000D02*
X172660000Y-37405000D01*
D10*
X179601857Y-102290476D02*
X179554238Y-102338095D01*
X179506619Y-102480952D01*
X179506619Y-102576190D01*
X179554238Y-102719047D01*
X179649476Y-102814285D01*
X179744714Y-102861904D01*
X179935190Y-102909523D01*
X180078047Y-102909523D01*
X180268523Y-102861904D01*
X180363761Y-102814285D01*
X180459000Y-102719047D01*
X180506619Y-102576190D01*
X180506619Y-102480952D01*
X180459000Y-102338095D01*
X180411380Y-102290476D01*
X179506619Y-101861904D02*
X180506619Y-101861904D01*
X179506619Y-101290476D01*
X180506619Y-101290476D01*
X180411380Y-100861904D02*
X180459000Y-100814285D01*
X180506619Y-100719047D01*
X180506619Y-100480952D01*
X180459000Y-100385714D01*
X180411380Y-100338095D01*
X180316142Y-100290476D01*
X180220904Y-100290476D01*
X180078047Y-100338095D01*
X179506619Y-100909523D01*
X179506619Y-100290476D01*
X201572857Y-68635476D02*
X201525238Y-68683095D01*
X201477619Y-68825952D01*
X201477619Y-68921190D01*
X201525238Y-69064047D01*
X201620476Y-69159285D01*
X201715714Y-69206904D01*
X201906190Y-69254523D01*
X202049047Y-69254523D01*
X202239523Y-69206904D01*
X202334761Y-69159285D01*
X202430000Y-69064047D01*
X202477619Y-68921190D01*
X202477619Y-68825952D01*
X202430000Y-68683095D01*
X202382380Y-68635476D01*
X201477619Y-68206904D02*
X202477619Y-68206904D01*
X201477619Y-67635476D01*
X202477619Y-67635476D01*
X201477619Y-66635476D02*
X201477619Y-67206904D01*
X201477619Y-66921190D02*
X202477619Y-66921190D01*
X202334761Y-67016428D01*
X202239523Y-67111666D01*
X202191904Y-67206904D01*
X196127619Y-119713333D02*
X195413333Y-119713333D01*
X195270476Y-119760952D01*
X195175238Y-119856190D01*
X195127619Y-119999047D01*
X195127619Y-120094285D01*
X196032380Y-119284761D02*
X196080000Y-119237142D01*
X196127619Y-119141904D01*
X196127619Y-118903809D01*
X196080000Y-118808571D01*
X196032380Y-118760952D01*
X195937142Y-118713333D01*
X195841904Y-118713333D01*
X195699047Y-118760952D01*
X195127619Y-119332380D01*
X195127619Y-118713333D01*
X181792619Y-108116666D02*
X182268809Y-108450000D01*
X181792619Y-108688095D02*
X182792619Y-108688095D01*
X182792619Y-108307142D01*
X182745000Y-108211904D01*
X182697380Y-108164285D01*
X182602142Y-108116666D01*
X182459285Y-108116666D01*
X182364047Y-108164285D01*
X182316428Y-108211904D01*
X182268809Y-108307142D01*
X182268809Y-108688095D01*
X182459285Y-107259523D02*
X181792619Y-107259523D01*
X182840238Y-107497619D02*
X182125952Y-107735714D01*
X182125952Y-107116666D01*
X184967619Y-108116666D02*
X185443809Y-108450000D01*
X184967619Y-108688095D02*
X185967619Y-108688095D01*
X185967619Y-108307142D01*
X185920000Y-108211904D01*
X185872380Y-108164285D01*
X185777142Y-108116666D01*
X185634285Y-108116666D01*
X185539047Y-108164285D01*
X185491428Y-108211904D01*
X185443809Y-108307142D01*
X185443809Y-108688095D01*
X185967619Y-107783333D02*
X185967619Y-107164285D01*
X185586666Y-107497619D01*
X185586666Y-107354761D01*
X185539047Y-107259523D01*
X185491428Y-107211904D01*
X185396190Y-107164285D01*
X185158095Y-107164285D01*
X185062857Y-107211904D01*
X185015238Y-107259523D01*
X184967619Y-107354761D01*
X184967619Y-107640476D01*
X185015238Y-107735714D01*
X185062857Y-107783333D01*
X188142619Y-108116666D02*
X188618809Y-108450000D01*
X188142619Y-108688095D02*
X189142619Y-108688095D01*
X189142619Y-108307142D01*
X189095000Y-108211904D01*
X189047380Y-108164285D01*
X188952142Y-108116666D01*
X188809285Y-108116666D01*
X188714047Y-108164285D01*
X188666428Y-108211904D01*
X188618809Y-108307142D01*
X188618809Y-108688095D01*
X189047380Y-107735714D02*
X189095000Y-107688095D01*
X189142619Y-107592857D01*
X189142619Y-107354761D01*
X189095000Y-107259523D01*
X189047380Y-107211904D01*
X188952142Y-107164285D01*
X188856904Y-107164285D01*
X188714047Y-107211904D01*
X188142619Y-107783333D01*
X188142619Y-107164285D01*
X191317619Y-108116666D02*
X191793809Y-108450000D01*
X191317619Y-108688095D02*
X192317619Y-108688095D01*
X192317619Y-108307142D01*
X192270000Y-108211904D01*
X192222380Y-108164285D01*
X192127142Y-108116666D01*
X191984285Y-108116666D01*
X191889047Y-108164285D01*
X191841428Y-108211904D01*
X191793809Y-108307142D01*
X191793809Y-108688095D01*
X191317619Y-107164285D02*
X191317619Y-107735714D01*
X191317619Y-107450000D02*
X192317619Y-107450000D01*
X192174761Y-107545238D01*
X192079523Y-107640476D01*
X192031904Y-107735714D01*
X194647619Y-40338333D02*
X193933333Y-40338333D01*
X193790476Y-40385952D01*
X193695238Y-40481190D01*
X193647619Y-40624047D01*
X193647619Y-40719285D01*
X193647619Y-39338333D02*
X193647619Y-39909761D01*
X193647619Y-39624047D02*
X194647619Y-39624047D01*
X194504761Y-39719285D01*
X194409523Y-39814523D01*
X194361904Y-39909761D01*
M02*
