M48
; DRILL file {KiCad (5.1.5)-3} date 25/04/2020 00:27:04
; FORMAT={-:-/ absolute / metric / decimal}
; #@! TF.CreationDate,2020-04-25T00:27:04+01:00
; #@! TF.GenerationSoftware,Kicad,Pcbnew,(5.1.5)-3
FMAT,2
METRIC
T1C0.400
T2C0.700
T3C0.800
T4C1.000
T5C1.800
T6C2.600
T7C2.600
%
G90
G05
T1
X176.53Y-47.625
X177.8Y-121.92
X180.34Y-47.625
X182.245Y-73.025
X182.245Y-75.565
X182.245Y-78.105
X182.245Y-80.645
X182.245Y-83.185
X182.245Y-85.725
X182.245Y-88.265
X182.245Y-90.805
X182.245Y-103.505
X182.245Y-111.76
X182.88Y-47.625
X182.88Y-121.92
X185.42Y-47.625
X185.42Y-103.505
X185.42Y-111.76
X187.96Y-47.625
X187.96Y-121.92
X188.595Y-103.505
X190.5Y-47.625
X191.77Y-103.505
X191.77Y-111.76
X200.66Y-63.5
X200.66Y-66.04
X200.66Y-68.58
X200.66Y-71.12
X200.66Y-73.66
X200.66Y-76.2
X200.66Y-78.74
X200.66Y-81.28
X200.66Y-102.87
X200.66Y-106.68
X200.66Y-109.22
X200.66Y-111.76
X200.66Y-114.3
X200.66Y-116.84
X200.66Y-119.38
X200.66Y-121.92
T2
X185.42Y-100.965
X185.42Y-106.045
X188.595Y-100.965
X188.595Y-106.045
X191.77Y-100.965
X191.77Y-106.045
X182.245Y-100.965
X182.245Y-106.045
T3
X172.211Y-56.505
X172.211Y-59.045
X172.211Y-61.585
X172.211Y-64.125
X172.211Y-66.665
X172.211Y-69.205
X172.211Y-71.745
X172.211Y-74.285
X172.211Y-76.825
X172.211Y-79.365
X172.211Y-81.905
X172.211Y-84.445
X172.211Y-86.985
X172.211Y-89.525
X172.211Y-92.065
X172.211Y-94.605
X172.211Y-97.145
X172.211Y-99.685
X172.211Y-102.225
X172.211Y-104.765
X174.111Y-55.235
X174.111Y-57.775
X174.111Y-60.315
X174.111Y-62.855
X174.111Y-65.395
X174.111Y-67.935
X174.111Y-70.475
X174.111Y-73.015
X174.111Y-75.555
X174.111Y-78.095
X174.111Y-80.635
X174.111Y-83.175
X174.111Y-85.715
X174.111Y-88.255
X174.111Y-90.795
X174.111Y-93.335
X174.111Y-95.875
X174.111Y-98.415
X174.111Y-100.955
X174.111Y-103.495
X176.011Y-56.505
X176.011Y-59.045
X176.011Y-61.585
X176.011Y-64.125
X176.011Y-66.665
X176.011Y-69.205
X176.011Y-71.745
X176.011Y-74.285
X176.011Y-76.825
X176.011Y-79.365
X176.011Y-81.905
X176.011Y-84.445
X176.011Y-86.985
X176.011Y-89.525
X176.011Y-92.065
X176.011Y-94.605
X176.011Y-97.145
X176.011Y-99.685
X176.011Y-102.225
X176.011Y-104.765
X177.911Y-55.235
X177.911Y-57.775
X177.911Y-60.315
X177.911Y-62.855
X177.911Y-65.395
X177.911Y-67.935
X177.911Y-70.475
X177.911Y-73.015
X177.911Y-75.555
X177.911Y-78.095
X177.911Y-80.635
X177.911Y-83.175
X177.911Y-85.715
X177.911Y-88.255
X177.911Y-90.795
X177.911Y-93.335
X177.911Y-95.875
X177.911Y-98.415
X177.911Y-100.955
X177.911Y-103.495
T4
X204.47Y-62.23
X204.47Y-64.77
X204.47Y-67.31
X204.47Y-69.85
X204.47Y-72.39
X204.47Y-74.93
X204.47Y-77.47
X204.47Y-80.01
X204.47Y-82.55
X204.47Y-85.09
X204.47Y-87.63
X204.47Y-90.17
X204.47Y-92.71
X204.47Y-95.25
X204.47Y-97.79
X204.47Y-100.33
X204.47Y-102.87
X204.47Y-105.41
X204.47Y-107.95
X204.47Y-110.49
X204.47Y-113.03
X204.47Y-115.57
X204.47Y-118.11
X204.47Y-120.65
X204.47Y-123.19
X207.01Y-62.23
X207.01Y-64.77
X207.01Y-67.31
X207.01Y-69.85
X207.01Y-72.39
X207.01Y-74.93
X207.01Y-77.47
X207.01Y-80.01
X207.01Y-82.55
X207.01Y-85.09
X207.01Y-87.63
X207.01Y-90.17
X207.01Y-92.71
X207.01Y-95.25
X207.01Y-97.79
X207.01Y-100.33
X207.01Y-102.87
X207.01Y-105.41
X207.01Y-107.95
X207.01Y-110.49
X207.01Y-113.03
X207.01Y-115.57
X207.01Y-118.11
X207.01Y-120.65
X207.01Y-123.19
X173.99Y-38.735
X173.99Y-41.275
X176.53Y-38.735
X176.53Y-41.275
X179.07Y-38.735
X179.07Y-41.275
X181.61Y-38.735
X181.61Y-41.275
X184.15Y-38.735
X184.15Y-41.275
X186.69Y-38.735
X186.69Y-41.275
X189.23Y-38.735
X189.23Y-41.275
X191.77Y-38.735
X191.77Y-41.275
T5
X175.26Y-119.38
X180.34Y-119.38
X185.42Y-119.38
X190.5Y-119.38
T6
X175.0Y-50.245
X175.0Y-109.755
T7
X177.2Y-107.055
T0
M30
