G04 #@! TF.GenerationSoftware,KiCad,Pcbnew,(5.1.5)-3*
G04 #@! TF.CreationDate,2020-04-25T00:27:07+01:00*
G04 #@! TF.ProjectId,SCSIConnector,53435349-436f-46e6-9e65-63746f722e6b,rev?*
G04 #@! TF.SameCoordinates,Original*
G04 #@! TF.FileFunction,Soldermask,Top*
G04 #@! TF.FilePolarity,Negative*
%FSLAX46Y46*%
G04 Gerber Fmt 4.6, Leading zero omitted, Abs format (unit mm)*
G04 Created by KiCad (PCBNEW (5.1.5)-3) date 2020-04-25 00:27:07*
%MOMM*%
%LPD*%
G04 APERTURE LIST*
%ADD10C,0.100000*%
G04 APERTURE END LIST*
D10*
G36*
X207123512Y-122293927D02*
G01*
X207272812Y-122323624D01*
X207436784Y-122391544D01*
X207584354Y-122490147D01*
X207709853Y-122615646D01*
X207808456Y-122763216D01*
X207876376Y-122927188D01*
X207911000Y-123101259D01*
X207911000Y-123278741D01*
X207876376Y-123452812D01*
X207808456Y-123616784D01*
X207709853Y-123764354D01*
X207584354Y-123889853D01*
X207436784Y-123988456D01*
X207272812Y-124056376D01*
X207123512Y-124086073D01*
X207098742Y-124091000D01*
X206921258Y-124091000D01*
X206896488Y-124086073D01*
X206747188Y-124056376D01*
X206583216Y-123988456D01*
X206435646Y-123889853D01*
X206310147Y-123764354D01*
X206211544Y-123616784D01*
X206143624Y-123452812D01*
X206109000Y-123278741D01*
X206109000Y-123101259D01*
X206143624Y-122927188D01*
X206211544Y-122763216D01*
X206310147Y-122615646D01*
X206435646Y-122490147D01*
X206583216Y-122391544D01*
X206747188Y-122323624D01*
X206896488Y-122293927D01*
X206921258Y-122289000D01*
X207098742Y-122289000D01*
X207123512Y-122293927D01*
G37*
G36*
X204583512Y-122293927D02*
G01*
X204732812Y-122323624D01*
X204896784Y-122391544D01*
X205044354Y-122490147D01*
X205169853Y-122615646D01*
X205268456Y-122763216D01*
X205336376Y-122927188D01*
X205371000Y-123101259D01*
X205371000Y-123278741D01*
X205336376Y-123452812D01*
X205268456Y-123616784D01*
X205169853Y-123764354D01*
X205044354Y-123889853D01*
X204896784Y-123988456D01*
X204732812Y-124056376D01*
X204583512Y-124086073D01*
X204558742Y-124091000D01*
X204381258Y-124091000D01*
X204356488Y-124086073D01*
X204207188Y-124056376D01*
X204043216Y-123988456D01*
X203895646Y-123889853D01*
X203770147Y-123764354D01*
X203671544Y-123616784D01*
X203603624Y-123452812D01*
X203569000Y-123278741D01*
X203569000Y-123101259D01*
X203603624Y-122927188D01*
X203671544Y-122763216D01*
X203770147Y-122615646D01*
X203895646Y-122490147D01*
X204043216Y-122391544D01*
X204207188Y-122323624D01*
X204356488Y-122293927D01*
X204381258Y-122289000D01*
X204558742Y-122289000D01*
X204583512Y-122293927D01*
G37*
G36*
X204583512Y-119753927D02*
G01*
X204732812Y-119783624D01*
X204896784Y-119851544D01*
X205044354Y-119950147D01*
X205169853Y-120075646D01*
X205268456Y-120223216D01*
X205336376Y-120387188D01*
X205371000Y-120561259D01*
X205371000Y-120738741D01*
X205336376Y-120912812D01*
X205268456Y-121076784D01*
X205169853Y-121224354D01*
X205044354Y-121349853D01*
X204896784Y-121448456D01*
X204732812Y-121516376D01*
X204583512Y-121546073D01*
X204558742Y-121551000D01*
X204381258Y-121551000D01*
X204356488Y-121546073D01*
X204207188Y-121516376D01*
X204043216Y-121448456D01*
X203895646Y-121349853D01*
X203770147Y-121224354D01*
X203671544Y-121076784D01*
X203603624Y-120912812D01*
X203569000Y-120738741D01*
X203569000Y-120561259D01*
X203603624Y-120387188D01*
X203671544Y-120223216D01*
X203770147Y-120075646D01*
X203895646Y-119950147D01*
X204043216Y-119851544D01*
X204207188Y-119783624D01*
X204356488Y-119753927D01*
X204381258Y-119749000D01*
X204558742Y-119749000D01*
X204583512Y-119753927D01*
G37*
G36*
X207123512Y-119753927D02*
G01*
X207272812Y-119783624D01*
X207436784Y-119851544D01*
X207584354Y-119950147D01*
X207709853Y-120075646D01*
X207808456Y-120223216D01*
X207876376Y-120387188D01*
X207911000Y-120561259D01*
X207911000Y-120738741D01*
X207876376Y-120912812D01*
X207808456Y-121076784D01*
X207709853Y-121224354D01*
X207584354Y-121349853D01*
X207436784Y-121448456D01*
X207272812Y-121516376D01*
X207123512Y-121546073D01*
X207098742Y-121551000D01*
X206921258Y-121551000D01*
X206896488Y-121546073D01*
X206747188Y-121516376D01*
X206583216Y-121448456D01*
X206435646Y-121349853D01*
X206310147Y-121224354D01*
X206211544Y-121076784D01*
X206143624Y-120912812D01*
X206109000Y-120738741D01*
X206109000Y-120561259D01*
X206143624Y-120387188D01*
X206211544Y-120223216D01*
X206310147Y-120075646D01*
X206435646Y-119950147D01*
X206583216Y-119851544D01*
X206747188Y-119783624D01*
X206896488Y-119753927D01*
X206921258Y-119749000D01*
X207098742Y-119749000D01*
X207123512Y-119753927D01*
G37*
G36*
X180632831Y-117907841D02*
G01*
X180777826Y-117936682D01*
X180890974Y-117983550D01*
X181050989Y-118049830D01*
X181050990Y-118049831D01*
X181296832Y-118214097D01*
X181505903Y-118423168D01*
X181505904Y-118423170D01*
X181670170Y-118669011D01*
X181783318Y-118942175D01*
X181841000Y-119232163D01*
X181841000Y-119527837D01*
X181783318Y-119817825D01*
X181670170Y-120090989D01*
X181670169Y-120090990D01*
X181505903Y-120336832D01*
X181296832Y-120545903D01*
X181273850Y-120561259D01*
X181050989Y-120710170D01*
X180890974Y-120776450D01*
X180777826Y-120823318D01*
X180632831Y-120852159D01*
X180487837Y-120881000D01*
X180192163Y-120881000D01*
X180047169Y-120852159D01*
X179902174Y-120823318D01*
X179789026Y-120776450D01*
X179629011Y-120710170D01*
X179406150Y-120561259D01*
X179383168Y-120545903D01*
X179174097Y-120336832D01*
X179009831Y-120090990D01*
X179009830Y-120090989D01*
X178896682Y-119817825D01*
X178839000Y-119527837D01*
X178839000Y-119232163D01*
X178896682Y-118942175D01*
X179009830Y-118669011D01*
X179174096Y-118423170D01*
X179174097Y-118423168D01*
X179383168Y-118214097D01*
X179629010Y-118049831D01*
X179629011Y-118049830D01*
X179789026Y-117983550D01*
X179902174Y-117936682D01*
X180047169Y-117907841D01*
X180192163Y-117879000D01*
X180487837Y-117879000D01*
X180632831Y-117907841D01*
G37*
G36*
X185712831Y-117907841D02*
G01*
X185857826Y-117936682D01*
X185970974Y-117983550D01*
X186130989Y-118049830D01*
X186130990Y-118049831D01*
X186376832Y-118214097D01*
X186585903Y-118423168D01*
X186585904Y-118423170D01*
X186750170Y-118669011D01*
X186863318Y-118942175D01*
X186921000Y-119232163D01*
X186921000Y-119527837D01*
X186863318Y-119817825D01*
X186750170Y-120090989D01*
X186750169Y-120090990D01*
X186585903Y-120336832D01*
X186376832Y-120545903D01*
X186353850Y-120561259D01*
X186130989Y-120710170D01*
X185970974Y-120776450D01*
X185857826Y-120823318D01*
X185712831Y-120852159D01*
X185567837Y-120881000D01*
X185272163Y-120881000D01*
X185127169Y-120852159D01*
X184982174Y-120823318D01*
X184869026Y-120776450D01*
X184709011Y-120710170D01*
X184486150Y-120561259D01*
X184463168Y-120545903D01*
X184254097Y-120336832D01*
X184089831Y-120090990D01*
X184089830Y-120090989D01*
X183976682Y-119817825D01*
X183919000Y-119527837D01*
X183919000Y-119232163D01*
X183976682Y-118942175D01*
X184089830Y-118669011D01*
X184254096Y-118423170D01*
X184254097Y-118423168D01*
X184463168Y-118214097D01*
X184709010Y-118049831D01*
X184709011Y-118049830D01*
X184869026Y-117983550D01*
X184982174Y-117936682D01*
X185127169Y-117907841D01*
X185272163Y-117879000D01*
X185567837Y-117879000D01*
X185712831Y-117907841D01*
G37*
G36*
X190792831Y-117907841D02*
G01*
X190937826Y-117936682D01*
X191050974Y-117983550D01*
X191210989Y-118049830D01*
X191210990Y-118049831D01*
X191456832Y-118214097D01*
X191665903Y-118423168D01*
X191665904Y-118423170D01*
X191830170Y-118669011D01*
X191943318Y-118942175D01*
X192001000Y-119232163D01*
X192001000Y-119527837D01*
X191943318Y-119817825D01*
X191830170Y-120090989D01*
X191830169Y-120090990D01*
X191665903Y-120336832D01*
X191456832Y-120545903D01*
X191433850Y-120561259D01*
X191210989Y-120710170D01*
X191050974Y-120776450D01*
X190937826Y-120823318D01*
X190792831Y-120852159D01*
X190647837Y-120881000D01*
X190352163Y-120881000D01*
X190207169Y-120852159D01*
X190062174Y-120823318D01*
X189949026Y-120776450D01*
X189789011Y-120710170D01*
X189566150Y-120561259D01*
X189543168Y-120545903D01*
X189334097Y-120336832D01*
X189169831Y-120090990D01*
X189169830Y-120090989D01*
X189056682Y-119817825D01*
X188999000Y-119527837D01*
X188999000Y-119232163D01*
X189056682Y-118942175D01*
X189169830Y-118669011D01*
X189334096Y-118423170D01*
X189334097Y-118423168D01*
X189543168Y-118214097D01*
X189789010Y-118049831D01*
X189789011Y-118049830D01*
X189949026Y-117983550D01*
X190062174Y-117936682D01*
X190207169Y-117907841D01*
X190352163Y-117879000D01*
X190647837Y-117879000D01*
X190792831Y-117907841D01*
G37*
G36*
X175552831Y-117907841D02*
G01*
X175697826Y-117936682D01*
X175810974Y-117983550D01*
X175970989Y-118049830D01*
X175970990Y-118049831D01*
X176216832Y-118214097D01*
X176425903Y-118423168D01*
X176425904Y-118423170D01*
X176590170Y-118669011D01*
X176703318Y-118942175D01*
X176761000Y-119232163D01*
X176761000Y-119527837D01*
X176703318Y-119817825D01*
X176590170Y-120090989D01*
X176590169Y-120090990D01*
X176425903Y-120336832D01*
X176216832Y-120545903D01*
X176193850Y-120561259D01*
X175970989Y-120710170D01*
X175810974Y-120776450D01*
X175697826Y-120823318D01*
X175552831Y-120852159D01*
X175407837Y-120881000D01*
X175112163Y-120881000D01*
X174967169Y-120852159D01*
X174822174Y-120823318D01*
X174709026Y-120776450D01*
X174549011Y-120710170D01*
X174326150Y-120561259D01*
X174303168Y-120545903D01*
X174094097Y-120336832D01*
X173929831Y-120090990D01*
X173929830Y-120090989D01*
X173816682Y-119817825D01*
X173759000Y-119527837D01*
X173759000Y-119232163D01*
X173816682Y-118942175D01*
X173929830Y-118669011D01*
X174094096Y-118423170D01*
X174094097Y-118423168D01*
X174303168Y-118214097D01*
X174549010Y-118049831D01*
X174549011Y-118049830D01*
X174709026Y-117983550D01*
X174822174Y-117936682D01*
X174967169Y-117907841D01*
X175112163Y-117879000D01*
X175407837Y-117879000D01*
X175552831Y-117907841D01*
G37*
G36*
X207123512Y-117213927D02*
G01*
X207272812Y-117243624D01*
X207436784Y-117311544D01*
X207584354Y-117410147D01*
X207709853Y-117535646D01*
X207808456Y-117683216D01*
X207876376Y-117847188D01*
X207911000Y-118021259D01*
X207911000Y-118198741D01*
X207876376Y-118372812D01*
X207808456Y-118536784D01*
X207709853Y-118684354D01*
X207584354Y-118809853D01*
X207436784Y-118908456D01*
X207272812Y-118976376D01*
X207123512Y-119006073D01*
X207098742Y-119011000D01*
X206921258Y-119011000D01*
X206896488Y-119006073D01*
X206747188Y-118976376D01*
X206583216Y-118908456D01*
X206435646Y-118809853D01*
X206310147Y-118684354D01*
X206211544Y-118536784D01*
X206143624Y-118372812D01*
X206109000Y-118198741D01*
X206109000Y-118021259D01*
X206143624Y-117847188D01*
X206211544Y-117683216D01*
X206310147Y-117535646D01*
X206435646Y-117410147D01*
X206583216Y-117311544D01*
X206747188Y-117243624D01*
X206896488Y-117213927D01*
X206921258Y-117209000D01*
X207098742Y-117209000D01*
X207123512Y-117213927D01*
G37*
G36*
X204583512Y-117213927D02*
G01*
X204732812Y-117243624D01*
X204896784Y-117311544D01*
X205044354Y-117410147D01*
X205169853Y-117535646D01*
X205268456Y-117683216D01*
X205336376Y-117847188D01*
X205371000Y-118021259D01*
X205371000Y-118198741D01*
X205336376Y-118372812D01*
X205268456Y-118536784D01*
X205169853Y-118684354D01*
X205044354Y-118809853D01*
X204896784Y-118908456D01*
X204732812Y-118976376D01*
X204583512Y-119006073D01*
X204558742Y-119011000D01*
X204381258Y-119011000D01*
X204356488Y-119006073D01*
X204207188Y-118976376D01*
X204043216Y-118908456D01*
X203895646Y-118809853D01*
X203770147Y-118684354D01*
X203671544Y-118536784D01*
X203603624Y-118372812D01*
X203569000Y-118198741D01*
X203569000Y-118021259D01*
X203603624Y-117847188D01*
X203671544Y-117683216D01*
X203770147Y-117535646D01*
X203895646Y-117410147D01*
X204043216Y-117311544D01*
X204207188Y-117243624D01*
X204356488Y-117213927D01*
X204381258Y-117209000D01*
X204558742Y-117209000D01*
X204583512Y-117213927D01*
G37*
G36*
X207123512Y-114673927D02*
G01*
X207272812Y-114703624D01*
X207436784Y-114771544D01*
X207584354Y-114870147D01*
X207709853Y-114995646D01*
X207808456Y-115143216D01*
X207876376Y-115307188D01*
X207911000Y-115481259D01*
X207911000Y-115658741D01*
X207876376Y-115832812D01*
X207808456Y-115996784D01*
X207709853Y-116144354D01*
X207584354Y-116269853D01*
X207436784Y-116368456D01*
X207272812Y-116436376D01*
X207123512Y-116466073D01*
X207098742Y-116471000D01*
X206921258Y-116471000D01*
X206896488Y-116466073D01*
X206747188Y-116436376D01*
X206583216Y-116368456D01*
X206435646Y-116269853D01*
X206310147Y-116144354D01*
X206211544Y-115996784D01*
X206143624Y-115832812D01*
X206109000Y-115658741D01*
X206109000Y-115481259D01*
X206143624Y-115307188D01*
X206211544Y-115143216D01*
X206310147Y-114995646D01*
X206435646Y-114870147D01*
X206583216Y-114771544D01*
X206747188Y-114703624D01*
X206896488Y-114673927D01*
X206921258Y-114669000D01*
X207098742Y-114669000D01*
X207123512Y-114673927D01*
G37*
G36*
X204583512Y-114673927D02*
G01*
X204732812Y-114703624D01*
X204896784Y-114771544D01*
X205044354Y-114870147D01*
X205169853Y-114995646D01*
X205268456Y-115143216D01*
X205336376Y-115307188D01*
X205371000Y-115481259D01*
X205371000Y-115658741D01*
X205336376Y-115832812D01*
X205268456Y-115996784D01*
X205169853Y-116144354D01*
X205044354Y-116269853D01*
X204896784Y-116368456D01*
X204732812Y-116436376D01*
X204583512Y-116466073D01*
X204558742Y-116471000D01*
X204381258Y-116471000D01*
X204356488Y-116466073D01*
X204207188Y-116436376D01*
X204043216Y-116368456D01*
X203895646Y-116269853D01*
X203770147Y-116144354D01*
X203671544Y-115996784D01*
X203603624Y-115832812D01*
X203569000Y-115658741D01*
X203569000Y-115481259D01*
X203603624Y-115307188D01*
X203671544Y-115143216D01*
X203770147Y-114995646D01*
X203895646Y-114870147D01*
X204043216Y-114771544D01*
X204207188Y-114703624D01*
X204356488Y-114673927D01*
X204381258Y-114669000D01*
X204558742Y-114669000D01*
X204583512Y-114673927D01*
G37*
G36*
X207123512Y-112133927D02*
G01*
X207272812Y-112163624D01*
X207436784Y-112231544D01*
X207584354Y-112330147D01*
X207709853Y-112455646D01*
X207808456Y-112603216D01*
X207876376Y-112767188D01*
X207911000Y-112941259D01*
X207911000Y-113118741D01*
X207876376Y-113292812D01*
X207808456Y-113456784D01*
X207709853Y-113604354D01*
X207584354Y-113729853D01*
X207436784Y-113828456D01*
X207272812Y-113896376D01*
X207123512Y-113926073D01*
X207098742Y-113931000D01*
X206921258Y-113931000D01*
X206896488Y-113926073D01*
X206747188Y-113896376D01*
X206583216Y-113828456D01*
X206435646Y-113729853D01*
X206310147Y-113604354D01*
X206211544Y-113456784D01*
X206143624Y-113292812D01*
X206109000Y-113118741D01*
X206109000Y-112941259D01*
X206143624Y-112767188D01*
X206211544Y-112603216D01*
X206310147Y-112455646D01*
X206435646Y-112330147D01*
X206583216Y-112231544D01*
X206747188Y-112163624D01*
X206896488Y-112133927D01*
X206921258Y-112129000D01*
X207098742Y-112129000D01*
X207123512Y-112133927D01*
G37*
G36*
X204583512Y-112133927D02*
G01*
X204732812Y-112163624D01*
X204896784Y-112231544D01*
X205044354Y-112330147D01*
X205169853Y-112455646D01*
X205268456Y-112603216D01*
X205336376Y-112767188D01*
X205371000Y-112941259D01*
X205371000Y-113118741D01*
X205336376Y-113292812D01*
X205268456Y-113456784D01*
X205169853Y-113604354D01*
X205044354Y-113729853D01*
X204896784Y-113828456D01*
X204732812Y-113896376D01*
X204583512Y-113926073D01*
X204558742Y-113931000D01*
X204381258Y-113931000D01*
X204356488Y-113926073D01*
X204207188Y-113896376D01*
X204043216Y-113828456D01*
X203895646Y-113729853D01*
X203770147Y-113604354D01*
X203671544Y-113456784D01*
X203603624Y-113292812D01*
X203569000Y-113118741D01*
X203569000Y-112941259D01*
X203603624Y-112767188D01*
X203671544Y-112603216D01*
X203770147Y-112455646D01*
X203895646Y-112330147D01*
X204043216Y-112231544D01*
X204207188Y-112163624D01*
X204356488Y-112133927D01*
X204381258Y-112129000D01*
X204558742Y-112129000D01*
X204583512Y-112133927D01*
G37*
G36*
X204583512Y-109593927D02*
G01*
X204732812Y-109623624D01*
X204896784Y-109691544D01*
X205044354Y-109790147D01*
X205169853Y-109915646D01*
X205268456Y-110063216D01*
X205336376Y-110227188D01*
X205371000Y-110401259D01*
X205371000Y-110578741D01*
X205336376Y-110752812D01*
X205268456Y-110916784D01*
X205169853Y-111064354D01*
X205044354Y-111189853D01*
X204896784Y-111288456D01*
X204732812Y-111356376D01*
X204583512Y-111386073D01*
X204558742Y-111391000D01*
X204381258Y-111391000D01*
X204356488Y-111386073D01*
X204207188Y-111356376D01*
X204043216Y-111288456D01*
X203895646Y-111189853D01*
X203770147Y-111064354D01*
X203671544Y-110916784D01*
X203603624Y-110752812D01*
X203569000Y-110578741D01*
X203569000Y-110401259D01*
X203603624Y-110227188D01*
X203671544Y-110063216D01*
X203770147Y-109915646D01*
X203895646Y-109790147D01*
X204043216Y-109691544D01*
X204207188Y-109623624D01*
X204356488Y-109593927D01*
X204381258Y-109589000D01*
X204558742Y-109589000D01*
X204583512Y-109593927D01*
G37*
G36*
X207123512Y-109593927D02*
G01*
X207272812Y-109623624D01*
X207436784Y-109691544D01*
X207584354Y-109790147D01*
X207709853Y-109915646D01*
X207808456Y-110063216D01*
X207876376Y-110227188D01*
X207911000Y-110401259D01*
X207911000Y-110578741D01*
X207876376Y-110752812D01*
X207808456Y-110916784D01*
X207709853Y-111064354D01*
X207584354Y-111189853D01*
X207436784Y-111288456D01*
X207272812Y-111356376D01*
X207123512Y-111386073D01*
X207098742Y-111391000D01*
X206921258Y-111391000D01*
X206896488Y-111386073D01*
X206747188Y-111356376D01*
X206583216Y-111288456D01*
X206435646Y-111189853D01*
X206310147Y-111064354D01*
X206211544Y-110916784D01*
X206143624Y-110752812D01*
X206109000Y-110578741D01*
X206109000Y-110401259D01*
X206143624Y-110227188D01*
X206211544Y-110063216D01*
X206310147Y-109915646D01*
X206435646Y-109790147D01*
X206583216Y-109691544D01*
X206747188Y-109623624D01*
X206896488Y-109593927D01*
X206921258Y-109589000D01*
X207098742Y-109589000D01*
X207123512Y-109593927D01*
G37*
G36*
X175423241Y-108359760D02*
G01*
X175687305Y-108469139D01*
X175924958Y-108627934D01*
X176127066Y-108830042D01*
X176285861Y-109067695D01*
X176395240Y-109331759D01*
X176451000Y-109612088D01*
X176451000Y-109897912D01*
X176395240Y-110178241D01*
X176285861Y-110442305D01*
X176127066Y-110679958D01*
X175924958Y-110882066D01*
X175687305Y-111040861D01*
X175423241Y-111150240D01*
X175142912Y-111206000D01*
X174857088Y-111206000D01*
X174576759Y-111150240D01*
X174312695Y-111040861D01*
X174075042Y-110882066D01*
X173872934Y-110679958D01*
X173714139Y-110442305D01*
X173604760Y-110178241D01*
X173549000Y-109897912D01*
X173549000Y-109612088D01*
X173604760Y-109331759D01*
X173714139Y-109067695D01*
X173872934Y-108830042D01*
X174075042Y-108627934D01*
X174312695Y-108469139D01*
X174576759Y-108359760D01*
X174857088Y-108304000D01*
X175142912Y-108304000D01*
X175423241Y-108359760D01*
G37*
G36*
X204583512Y-107053927D02*
G01*
X204732812Y-107083624D01*
X204896784Y-107151544D01*
X205044354Y-107250147D01*
X205169853Y-107375646D01*
X205268456Y-107523216D01*
X205336376Y-107687188D01*
X205371000Y-107861259D01*
X205371000Y-108038741D01*
X205336376Y-108212812D01*
X205268456Y-108376784D01*
X205169853Y-108524354D01*
X205044354Y-108649853D01*
X204896784Y-108748456D01*
X204732812Y-108816376D01*
X204583512Y-108846073D01*
X204558742Y-108851000D01*
X204381258Y-108851000D01*
X204356488Y-108846073D01*
X204207188Y-108816376D01*
X204043216Y-108748456D01*
X203895646Y-108649853D01*
X203770147Y-108524354D01*
X203671544Y-108376784D01*
X203603624Y-108212812D01*
X203569000Y-108038741D01*
X203569000Y-107861259D01*
X203603624Y-107687188D01*
X203671544Y-107523216D01*
X203770147Y-107375646D01*
X203895646Y-107250147D01*
X204043216Y-107151544D01*
X204207188Y-107083624D01*
X204356488Y-107053927D01*
X204381258Y-107049000D01*
X204558742Y-107049000D01*
X204583512Y-107053927D01*
G37*
G36*
X207123512Y-107053927D02*
G01*
X207272812Y-107083624D01*
X207436784Y-107151544D01*
X207584354Y-107250147D01*
X207709853Y-107375646D01*
X207808456Y-107523216D01*
X207876376Y-107687188D01*
X207911000Y-107861259D01*
X207911000Y-108038741D01*
X207876376Y-108212812D01*
X207808456Y-108376784D01*
X207709853Y-108524354D01*
X207584354Y-108649853D01*
X207436784Y-108748456D01*
X207272812Y-108816376D01*
X207123512Y-108846073D01*
X207098742Y-108851000D01*
X206921258Y-108851000D01*
X206896488Y-108846073D01*
X206747188Y-108816376D01*
X206583216Y-108748456D01*
X206435646Y-108649853D01*
X206310147Y-108524354D01*
X206211544Y-108376784D01*
X206143624Y-108212812D01*
X206109000Y-108038741D01*
X206109000Y-107861259D01*
X206143624Y-107687188D01*
X206211544Y-107523216D01*
X206310147Y-107375646D01*
X206435646Y-107250147D01*
X206583216Y-107151544D01*
X206747188Y-107083624D01*
X206896488Y-107053927D01*
X206921258Y-107049000D01*
X207098742Y-107049000D01*
X207123512Y-107053927D01*
G37*
G36*
X177594072Y-105755918D02*
G01*
X177763124Y-105825941D01*
X177839939Y-105857759D01*
X177951328Y-105932187D01*
X178029401Y-105984354D01*
X178061212Y-106005610D01*
X178249390Y-106193788D01*
X178387667Y-106400732D01*
X178397242Y-106415063D01*
X178499082Y-106660928D01*
X178551000Y-106921937D01*
X178551000Y-107188063D01*
X178499082Y-107449072D01*
X178397242Y-107694937D01*
X178286110Y-107861258D01*
X178249390Y-107916212D01*
X178061212Y-108104390D01*
X177839939Y-108252241D01*
X177839938Y-108252242D01*
X177839937Y-108252242D01*
X177594072Y-108354082D01*
X177333063Y-108406000D01*
X177066937Y-108406000D01*
X176805928Y-108354082D01*
X176560063Y-108252242D01*
X176560062Y-108252242D01*
X176560061Y-108252241D01*
X176338788Y-108104390D01*
X176150610Y-107916212D01*
X176113891Y-107861258D01*
X176002758Y-107694937D01*
X175900918Y-107449072D01*
X175849000Y-107188063D01*
X175849000Y-106921937D01*
X175900918Y-106660928D01*
X176002758Y-106415063D01*
X176012334Y-106400732D01*
X176150610Y-106193788D01*
X176338788Y-106005610D01*
X176370600Y-105984354D01*
X176448672Y-105932187D01*
X176560061Y-105857759D01*
X176636877Y-105825941D01*
X176805928Y-105755918D01*
X177066937Y-105704000D01*
X177333063Y-105704000D01*
X177594072Y-105755918D01*
G37*
G36*
X185631005Y-105321258D02*
G01*
X185639059Y-105322860D01*
X185775732Y-105379472D01*
X185898735Y-105461660D01*
X186003340Y-105566265D01*
X186074532Y-105672812D01*
X186085529Y-105689270D01*
X186142140Y-105825941D01*
X186171000Y-105971032D01*
X186171000Y-106118968D01*
X186156117Y-106193789D01*
X186142140Y-106264059D01*
X186085528Y-106400732D01*
X186003340Y-106523735D01*
X185898735Y-106628340D01*
X185775732Y-106710528D01*
X185775731Y-106710529D01*
X185775730Y-106710529D01*
X185639059Y-106767140D01*
X185493968Y-106796000D01*
X185346032Y-106796000D01*
X185200941Y-106767140D01*
X185064270Y-106710529D01*
X185064269Y-106710529D01*
X185064268Y-106710528D01*
X184941265Y-106628340D01*
X184836660Y-106523735D01*
X184754472Y-106400732D01*
X184697860Y-106264059D01*
X184683883Y-106193789D01*
X184669000Y-106118968D01*
X184669000Y-105971032D01*
X184697860Y-105825941D01*
X184754471Y-105689270D01*
X184765468Y-105672812D01*
X184836660Y-105566265D01*
X184941265Y-105461660D01*
X185064268Y-105379472D01*
X185200941Y-105322860D01*
X185208995Y-105321258D01*
X185346032Y-105294000D01*
X185493968Y-105294000D01*
X185631005Y-105321258D01*
G37*
G36*
X188806005Y-105321258D02*
G01*
X188814059Y-105322860D01*
X188950732Y-105379472D01*
X189073735Y-105461660D01*
X189178340Y-105566265D01*
X189249532Y-105672812D01*
X189260529Y-105689270D01*
X189317140Y-105825941D01*
X189346000Y-105971032D01*
X189346000Y-106118968D01*
X189331117Y-106193789D01*
X189317140Y-106264059D01*
X189260528Y-106400732D01*
X189178340Y-106523735D01*
X189073735Y-106628340D01*
X188950732Y-106710528D01*
X188950731Y-106710529D01*
X188950730Y-106710529D01*
X188814059Y-106767140D01*
X188668968Y-106796000D01*
X188521032Y-106796000D01*
X188375941Y-106767140D01*
X188239270Y-106710529D01*
X188239269Y-106710529D01*
X188239268Y-106710528D01*
X188116265Y-106628340D01*
X188011660Y-106523735D01*
X187929472Y-106400732D01*
X187872860Y-106264059D01*
X187858883Y-106193789D01*
X187844000Y-106118968D01*
X187844000Y-105971032D01*
X187872860Y-105825941D01*
X187929471Y-105689270D01*
X187940468Y-105672812D01*
X188011660Y-105566265D01*
X188116265Y-105461660D01*
X188239268Y-105379472D01*
X188375941Y-105322860D01*
X188383995Y-105321258D01*
X188521032Y-105294000D01*
X188668968Y-105294000D01*
X188806005Y-105321258D01*
G37*
G36*
X191981005Y-105321258D02*
G01*
X191989059Y-105322860D01*
X192125732Y-105379472D01*
X192248735Y-105461660D01*
X192353340Y-105566265D01*
X192424532Y-105672812D01*
X192435529Y-105689270D01*
X192492140Y-105825941D01*
X192521000Y-105971032D01*
X192521000Y-106118968D01*
X192506117Y-106193789D01*
X192492140Y-106264059D01*
X192435528Y-106400732D01*
X192353340Y-106523735D01*
X192248735Y-106628340D01*
X192125732Y-106710528D01*
X192125731Y-106710529D01*
X192125730Y-106710529D01*
X191989059Y-106767140D01*
X191843968Y-106796000D01*
X191696032Y-106796000D01*
X191550941Y-106767140D01*
X191414270Y-106710529D01*
X191414269Y-106710529D01*
X191414268Y-106710528D01*
X191291265Y-106628340D01*
X191186660Y-106523735D01*
X191104472Y-106400732D01*
X191047860Y-106264059D01*
X191033883Y-106193789D01*
X191019000Y-106118968D01*
X191019000Y-105971032D01*
X191047860Y-105825941D01*
X191104471Y-105689270D01*
X191115468Y-105672812D01*
X191186660Y-105566265D01*
X191291265Y-105461660D01*
X191414268Y-105379472D01*
X191550941Y-105322860D01*
X191558995Y-105321258D01*
X191696032Y-105294000D01*
X191843968Y-105294000D01*
X191981005Y-105321258D01*
G37*
G36*
X182456005Y-105321258D02*
G01*
X182464059Y-105322860D01*
X182600732Y-105379472D01*
X182723735Y-105461660D01*
X182828340Y-105566265D01*
X182899532Y-105672812D01*
X182910529Y-105689270D01*
X182967140Y-105825941D01*
X182996000Y-105971032D01*
X182996000Y-106118968D01*
X182981117Y-106193789D01*
X182967140Y-106264059D01*
X182910528Y-106400732D01*
X182828340Y-106523735D01*
X182723735Y-106628340D01*
X182600732Y-106710528D01*
X182600731Y-106710529D01*
X182600730Y-106710529D01*
X182464059Y-106767140D01*
X182318968Y-106796000D01*
X182171032Y-106796000D01*
X182025941Y-106767140D01*
X181889270Y-106710529D01*
X181889269Y-106710529D01*
X181889268Y-106710528D01*
X181766265Y-106628340D01*
X181661660Y-106523735D01*
X181579472Y-106400732D01*
X181522860Y-106264059D01*
X181508883Y-106193789D01*
X181494000Y-106118968D01*
X181494000Y-105971032D01*
X181522860Y-105825941D01*
X181579471Y-105689270D01*
X181590468Y-105672812D01*
X181661660Y-105566265D01*
X181766265Y-105461660D01*
X181889268Y-105379472D01*
X182025941Y-105322860D01*
X182033995Y-105321258D01*
X182171032Y-105294000D01*
X182318968Y-105294000D01*
X182456005Y-105321258D01*
G37*
G36*
X207123512Y-104513927D02*
G01*
X207272812Y-104543624D01*
X207436784Y-104611544D01*
X207584354Y-104710147D01*
X207709853Y-104835646D01*
X207808456Y-104983216D01*
X207876376Y-105147188D01*
X207911000Y-105321259D01*
X207911000Y-105498741D01*
X207876376Y-105672812D01*
X207808456Y-105836784D01*
X207709853Y-105984354D01*
X207584354Y-106109853D01*
X207436784Y-106208456D01*
X207272812Y-106276376D01*
X207123512Y-106306073D01*
X207098742Y-106311000D01*
X206921258Y-106311000D01*
X206896488Y-106306073D01*
X206747188Y-106276376D01*
X206583216Y-106208456D01*
X206435646Y-106109853D01*
X206310147Y-105984354D01*
X206211544Y-105836784D01*
X206143624Y-105672812D01*
X206109000Y-105498741D01*
X206109000Y-105321259D01*
X206143624Y-105147188D01*
X206211544Y-104983216D01*
X206310147Y-104835646D01*
X206435646Y-104710147D01*
X206583216Y-104611544D01*
X206747188Y-104543624D01*
X206896488Y-104513927D01*
X206921258Y-104509000D01*
X207098742Y-104509000D01*
X207123512Y-104513927D01*
G37*
G36*
X204583512Y-104513927D02*
G01*
X204732812Y-104543624D01*
X204896784Y-104611544D01*
X205044354Y-104710147D01*
X205169853Y-104835646D01*
X205268456Y-104983216D01*
X205336376Y-105147188D01*
X205371000Y-105321259D01*
X205371000Y-105498741D01*
X205336376Y-105672812D01*
X205268456Y-105836784D01*
X205169853Y-105984354D01*
X205044354Y-106109853D01*
X204896784Y-106208456D01*
X204732812Y-106276376D01*
X204583512Y-106306073D01*
X204558742Y-106311000D01*
X204381258Y-106311000D01*
X204356488Y-106306073D01*
X204207188Y-106276376D01*
X204043216Y-106208456D01*
X203895646Y-106109853D01*
X203770147Y-105984354D01*
X203671544Y-105836784D01*
X203603624Y-105672812D01*
X203569000Y-105498741D01*
X203569000Y-105321259D01*
X203603624Y-105147188D01*
X203671544Y-104983216D01*
X203770147Y-104835646D01*
X203895646Y-104710147D01*
X204043216Y-104611544D01*
X204207188Y-104543624D01*
X204356488Y-104513927D01*
X204381258Y-104509000D01*
X204558742Y-104509000D01*
X204583512Y-104513927D01*
G37*
G36*
X176110225Y-104120983D02*
G01*
X176200890Y-104139017D01*
X176319364Y-104188091D01*
X176425988Y-104259335D01*
X176516665Y-104350012D01*
X176587910Y-104456638D01*
X176636983Y-104575110D01*
X176662000Y-104700881D01*
X176662000Y-104829119D01*
X176636983Y-104954890D01*
X176587909Y-105073364D01*
X176516665Y-105179988D01*
X176425988Y-105270665D01*
X176319364Y-105341909D01*
X176319363Y-105341910D01*
X176319362Y-105341910D01*
X176200890Y-105390983D01*
X176075119Y-105416000D01*
X175946881Y-105416000D01*
X175821110Y-105390983D01*
X175702638Y-105341910D01*
X175702637Y-105341910D01*
X175702636Y-105341909D01*
X175596012Y-105270665D01*
X175505335Y-105179988D01*
X175434091Y-105073364D01*
X175385017Y-104954890D01*
X175360000Y-104829119D01*
X175360000Y-104700881D01*
X175385017Y-104575110D01*
X175434090Y-104456638D01*
X175505335Y-104350012D01*
X175596012Y-104259335D01*
X175702636Y-104188091D01*
X175821110Y-104139017D01*
X175911775Y-104120983D01*
X175946881Y-104114000D01*
X176075119Y-104114000D01*
X176110225Y-104120983D01*
G37*
G36*
X172862000Y-105416000D02*
G01*
X171560000Y-105416000D01*
X171560000Y-104114000D01*
X172862000Y-104114000D01*
X172862000Y-105416000D01*
G37*
G36*
X174210225Y-102850983D02*
G01*
X174300890Y-102869017D01*
X174419364Y-102918091D01*
X174525988Y-102989335D01*
X174616665Y-103080012D01*
X174687909Y-103186636D01*
X174736983Y-103305110D01*
X174762000Y-103430882D01*
X174762000Y-103559118D01*
X174736983Y-103684890D01*
X174687909Y-103803364D01*
X174616665Y-103909988D01*
X174525988Y-104000665D01*
X174419364Y-104071909D01*
X174419363Y-104071910D01*
X174419362Y-104071910D01*
X174300890Y-104120983D01*
X174175119Y-104146000D01*
X174046881Y-104146000D01*
X173921110Y-104120983D01*
X173802638Y-104071910D01*
X173802637Y-104071910D01*
X173802636Y-104071909D01*
X173696012Y-104000665D01*
X173605335Y-103909988D01*
X173534091Y-103803364D01*
X173485017Y-103684890D01*
X173460000Y-103559118D01*
X173460000Y-103430882D01*
X173485017Y-103305110D01*
X173534091Y-103186636D01*
X173605335Y-103080012D01*
X173696012Y-102989335D01*
X173802636Y-102918091D01*
X173921110Y-102869017D01*
X174011775Y-102850983D01*
X174046881Y-102844000D01*
X174175119Y-102844000D01*
X174210225Y-102850983D01*
G37*
G36*
X178010225Y-102850983D02*
G01*
X178100890Y-102869017D01*
X178219364Y-102918091D01*
X178325988Y-102989335D01*
X178416665Y-103080012D01*
X178487909Y-103186636D01*
X178536983Y-103305110D01*
X178562000Y-103430882D01*
X178562000Y-103559118D01*
X178536983Y-103684890D01*
X178487909Y-103803364D01*
X178416665Y-103909988D01*
X178325988Y-104000665D01*
X178219364Y-104071909D01*
X178219363Y-104071910D01*
X178219362Y-104071910D01*
X178100890Y-104120983D01*
X177975119Y-104146000D01*
X177846881Y-104146000D01*
X177721110Y-104120983D01*
X177602638Y-104071910D01*
X177602637Y-104071910D01*
X177602636Y-104071909D01*
X177496012Y-104000665D01*
X177405335Y-103909988D01*
X177334091Y-103803364D01*
X177285017Y-103684890D01*
X177260000Y-103559118D01*
X177260000Y-103430882D01*
X177285017Y-103305110D01*
X177334091Y-103186636D01*
X177405335Y-103080012D01*
X177496012Y-102989335D01*
X177602636Y-102918091D01*
X177721110Y-102869017D01*
X177811775Y-102850983D01*
X177846881Y-102844000D01*
X177975119Y-102844000D01*
X178010225Y-102850983D01*
G37*
G36*
X204583512Y-101973927D02*
G01*
X204732812Y-102003624D01*
X204896784Y-102071544D01*
X205044354Y-102170147D01*
X205169853Y-102295646D01*
X205268456Y-102443216D01*
X205336376Y-102607188D01*
X205371000Y-102781259D01*
X205371000Y-102958741D01*
X205336376Y-103132812D01*
X205268456Y-103296784D01*
X205169853Y-103444354D01*
X205044354Y-103569853D01*
X204896784Y-103668456D01*
X204732812Y-103736376D01*
X204583512Y-103766073D01*
X204558742Y-103771000D01*
X204381258Y-103771000D01*
X204356488Y-103766073D01*
X204207188Y-103736376D01*
X204043216Y-103668456D01*
X203895646Y-103569853D01*
X203770147Y-103444354D01*
X203671544Y-103296784D01*
X203603624Y-103132812D01*
X203569000Y-102958741D01*
X203569000Y-102781259D01*
X203603624Y-102607188D01*
X203671544Y-102443216D01*
X203770147Y-102295646D01*
X203895646Y-102170147D01*
X204043216Y-102071544D01*
X204207188Y-102003624D01*
X204356488Y-101973927D01*
X204381258Y-101969000D01*
X204558742Y-101969000D01*
X204583512Y-101973927D01*
G37*
G36*
X207123512Y-101973927D02*
G01*
X207272812Y-102003624D01*
X207436784Y-102071544D01*
X207584354Y-102170147D01*
X207709853Y-102295646D01*
X207808456Y-102443216D01*
X207876376Y-102607188D01*
X207911000Y-102781259D01*
X207911000Y-102958741D01*
X207876376Y-103132812D01*
X207808456Y-103296784D01*
X207709853Y-103444354D01*
X207584354Y-103569853D01*
X207436784Y-103668456D01*
X207272812Y-103736376D01*
X207123512Y-103766073D01*
X207098742Y-103771000D01*
X206921258Y-103771000D01*
X206896488Y-103766073D01*
X206747188Y-103736376D01*
X206583216Y-103668456D01*
X206435646Y-103569853D01*
X206310147Y-103444354D01*
X206211544Y-103296784D01*
X206143624Y-103132812D01*
X206109000Y-102958741D01*
X206109000Y-102781259D01*
X206143624Y-102607188D01*
X206211544Y-102443216D01*
X206310147Y-102295646D01*
X206435646Y-102170147D01*
X206583216Y-102071544D01*
X206747188Y-102003624D01*
X206896488Y-101973927D01*
X206921258Y-101969000D01*
X207098742Y-101969000D01*
X207123512Y-101973927D01*
G37*
G36*
X176110225Y-101580983D02*
G01*
X176200890Y-101599017D01*
X176319364Y-101648091D01*
X176377805Y-101687140D01*
X176425988Y-101719335D01*
X176516665Y-101810012D01*
X176587910Y-101916638D01*
X176636983Y-102035110D01*
X176662000Y-102160881D01*
X176662000Y-102289119D01*
X176636983Y-102414890D01*
X176587909Y-102533364D01*
X176516665Y-102639988D01*
X176425988Y-102730665D01*
X176319364Y-102801909D01*
X176319363Y-102801910D01*
X176319362Y-102801910D01*
X176200890Y-102850983D01*
X176075119Y-102876000D01*
X175946881Y-102876000D01*
X175821110Y-102850983D01*
X175702638Y-102801910D01*
X175702637Y-102801910D01*
X175702636Y-102801909D01*
X175596012Y-102730665D01*
X175505335Y-102639988D01*
X175434091Y-102533364D01*
X175385017Y-102414890D01*
X175360000Y-102289119D01*
X175360000Y-102160881D01*
X175385017Y-102035110D01*
X175434090Y-101916638D01*
X175505335Y-101810012D01*
X175596012Y-101719335D01*
X175644195Y-101687140D01*
X175702636Y-101648091D01*
X175821110Y-101599017D01*
X175911775Y-101580983D01*
X175946881Y-101574000D01*
X176075119Y-101574000D01*
X176110225Y-101580983D01*
G37*
G36*
X172310225Y-101580983D02*
G01*
X172400890Y-101599017D01*
X172519364Y-101648091D01*
X172577805Y-101687140D01*
X172625988Y-101719335D01*
X172716665Y-101810012D01*
X172787910Y-101916638D01*
X172836983Y-102035110D01*
X172862000Y-102160881D01*
X172862000Y-102289119D01*
X172836983Y-102414890D01*
X172787909Y-102533364D01*
X172716665Y-102639988D01*
X172625988Y-102730665D01*
X172519364Y-102801909D01*
X172519363Y-102801910D01*
X172519362Y-102801910D01*
X172400890Y-102850983D01*
X172275119Y-102876000D01*
X172146881Y-102876000D01*
X172021110Y-102850983D01*
X171902638Y-102801910D01*
X171902637Y-102801910D01*
X171902636Y-102801909D01*
X171796012Y-102730665D01*
X171705335Y-102639988D01*
X171634091Y-102533364D01*
X171585017Y-102414890D01*
X171560000Y-102289119D01*
X171560000Y-102160881D01*
X171585017Y-102035110D01*
X171634090Y-101916638D01*
X171705335Y-101810012D01*
X171796012Y-101719335D01*
X171844195Y-101687140D01*
X171902636Y-101648091D01*
X172021110Y-101599017D01*
X172111775Y-101580983D01*
X172146881Y-101574000D01*
X172275119Y-101574000D01*
X172310225Y-101580983D01*
G37*
G36*
X182456005Y-100241258D02*
G01*
X182464059Y-100242860D01*
X182600732Y-100299472D01*
X182723735Y-100381660D01*
X182828340Y-100486265D01*
X182899532Y-100592812D01*
X182910529Y-100609270D01*
X182926007Y-100646638D01*
X182967140Y-100745941D01*
X182996000Y-100891033D01*
X182996000Y-101038967D01*
X182967140Y-101184059D01*
X182910528Y-101320732D01*
X182828340Y-101443735D01*
X182723735Y-101548340D01*
X182600732Y-101630528D01*
X182600731Y-101630529D01*
X182600730Y-101630529D01*
X182464059Y-101687140D01*
X182318968Y-101716000D01*
X182171032Y-101716000D01*
X182025941Y-101687140D01*
X181889270Y-101630529D01*
X181889269Y-101630529D01*
X181889268Y-101630528D01*
X181766265Y-101548340D01*
X181661660Y-101443735D01*
X181579472Y-101320732D01*
X181522860Y-101184059D01*
X181494000Y-101038967D01*
X181494000Y-100891033D01*
X181522860Y-100745941D01*
X181563993Y-100646638D01*
X181579471Y-100609270D01*
X181590468Y-100592812D01*
X181661660Y-100486265D01*
X181766265Y-100381660D01*
X181889268Y-100299472D01*
X182025941Y-100242860D01*
X182033995Y-100241258D01*
X182171032Y-100214000D01*
X182318968Y-100214000D01*
X182456005Y-100241258D01*
G37*
G36*
X185631005Y-100241258D02*
G01*
X185639059Y-100242860D01*
X185775732Y-100299472D01*
X185898735Y-100381660D01*
X186003340Y-100486265D01*
X186074532Y-100592812D01*
X186085529Y-100609270D01*
X186101007Y-100646638D01*
X186142140Y-100745941D01*
X186171000Y-100891033D01*
X186171000Y-101038967D01*
X186142140Y-101184059D01*
X186085528Y-101320732D01*
X186003340Y-101443735D01*
X185898735Y-101548340D01*
X185775732Y-101630528D01*
X185775731Y-101630529D01*
X185775730Y-101630529D01*
X185639059Y-101687140D01*
X185493968Y-101716000D01*
X185346032Y-101716000D01*
X185200941Y-101687140D01*
X185064270Y-101630529D01*
X185064269Y-101630529D01*
X185064268Y-101630528D01*
X184941265Y-101548340D01*
X184836660Y-101443735D01*
X184754472Y-101320732D01*
X184697860Y-101184059D01*
X184669000Y-101038967D01*
X184669000Y-100891033D01*
X184697860Y-100745941D01*
X184738993Y-100646638D01*
X184754471Y-100609270D01*
X184765468Y-100592812D01*
X184836660Y-100486265D01*
X184941265Y-100381660D01*
X185064268Y-100299472D01*
X185200941Y-100242860D01*
X185208995Y-100241258D01*
X185346032Y-100214000D01*
X185493968Y-100214000D01*
X185631005Y-100241258D01*
G37*
G36*
X188806005Y-100241258D02*
G01*
X188814059Y-100242860D01*
X188950732Y-100299472D01*
X189073735Y-100381660D01*
X189178340Y-100486265D01*
X189249532Y-100592812D01*
X189260529Y-100609270D01*
X189276007Y-100646638D01*
X189317140Y-100745941D01*
X189346000Y-100891033D01*
X189346000Y-101038967D01*
X189317140Y-101184059D01*
X189260528Y-101320732D01*
X189178340Y-101443735D01*
X189073735Y-101548340D01*
X188950732Y-101630528D01*
X188950731Y-101630529D01*
X188950730Y-101630529D01*
X188814059Y-101687140D01*
X188668968Y-101716000D01*
X188521032Y-101716000D01*
X188375941Y-101687140D01*
X188239270Y-101630529D01*
X188239269Y-101630529D01*
X188239268Y-101630528D01*
X188116265Y-101548340D01*
X188011660Y-101443735D01*
X187929472Y-101320732D01*
X187872860Y-101184059D01*
X187844000Y-101038967D01*
X187844000Y-100891033D01*
X187872860Y-100745941D01*
X187913993Y-100646638D01*
X187929471Y-100609270D01*
X187940468Y-100592812D01*
X188011660Y-100486265D01*
X188116265Y-100381660D01*
X188239268Y-100299472D01*
X188375941Y-100242860D01*
X188383995Y-100241258D01*
X188521032Y-100214000D01*
X188668968Y-100214000D01*
X188806005Y-100241258D01*
G37*
G36*
X191981005Y-100241258D02*
G01*
X191989059Y-100242860D01*
X192125732Y-100299472D01*
X192248735Y-100381660D01*
X192353340Y-100486265D01*
X192424532Y-100592812D01*
X192435529Y-100609270D01*
X192451007Y-100646638D01*
X192492140Y-100745941D01*
X192521000Y-100891033D01*
X192521000Y-101038967D01*
X192492140Y-101184059D01*
X192435528Y-101320732D01*
X192353340Y-101443735D01*
X192248735Y-101548340D01*
X192125732Y-101630528D01*
X192125731Y-101630529D01*
X192125730Y-101630529D01*
X191989059Y-101687140D01*
X191843968Y-101716000D01*
X191696032Y-101716000D01*
X191550941Y-101687140D01*
X191414270Y-101630529D01*
X191414269Y-101630529D01*
X191414268Y-101630528D01*
X191291265Y-101548340D01*
X191186660Y-101443735D01*
X191104472Y-101320732D01*
X191047860Y-101184059D01*
X191019000Y-101038967D01*
X191019000Y-100891033D01*
X191047860Y-100745941D01*
X191088993Y-100646638D01*
X191104471Y-100609270D01*
X191115468Y-100592812D01*
X191186660Y-100486265D01*
X191291265Y-100381660D01*
X191414268Y-100299472D01*
X191550941Y-100242860D01*
X191558995Y-100241258D01*
X191696032Y-100214000D01*
X191843968Y-100214000D01*
X191981005Y-100241258D01*
G37*
G36*
X174210225Y-100310983D02*
G01*
X174300890Y-100329017D01*
X174419364Y-100378091D01*
X174525988Y-100449335D01*
X174616665Y-100540012D01*
X174687909Y-100646636D01*
X174736983Y-100765110D01*
X174762000Y-100890882D01*
X174762000Y-101019118D01*
X174736983Y-101144890D01*
X174687909Y-101263364D01*
X174616665Y-101369988D01*
X174525988Y-101460665D01*
X174419364Y-101531909D01*
X174419363Y-101531910D01*
X174419362Y-101531910D01*
X174300890Y-101580983D01*
X174175119Y-101606000D01*
X174046881Y-101606000D01*
X173921110Y-101580983D01*
X173802638Y-101531910D01*
X173802637Y-101531910D01*
X173802636Y-101531909D01*
X173696012Y-101460665D01*
X173605335Y-101369988D01*
X173534091Y-101263364D01*
X173485017Y-101144890D01*
X173460000Y-101019118D01*
X173460000Y-100890882D01*
X173485017Y-100765110D01*
X173534091Y-100646636D01*
X173605335Y-100540012D01*
X173696012Y-100449335D01*
X173802636Y-100378091D01*
X173921110Y-100329017D01*
X174011775Y-100310983D01*
X174046881Y-100304000D01*
X174175119Y-100304000D01*
X174210225Y-100310983D01*
G37*
G36*
X178010225Y-100310983D02*
G01*
X178100890Y-100329017D01*
X178219364Y-100378091D01*
X178325988Y-100449335D01*
X178416665Y-100540012D01*
X178487909Y-100646636D01*
X178536983Y-100765110D01*
X178562000Y-100890882D01*
X178562000Y-101019118D01*
X178536983Y-101144890D01*
X178487909Y-101263364D01*
X178416665Y-101369988D01*
X178325988Y-101460665D01*
X178219364Y-101531909D01*
X178219363Y-101531910D01*
X178219362Y-101531910D01*
X178100890Y-101580983D01*
X177975119Y-101606000D01*
X177846881Y-101606000D01*
X177721110Y-101580983D01*
X177602638Y-101531910D01*
X177602637Y-101531910D01*
X177602636Y-101531909D01*
X177496012Y-101460665D01*
X177405335Y-101369988D01*
X177334091Y-101263364D01*
X177285017Y-101144890D01*
X177260000Y-101019118D01*
X177260000Y-100890882D01*
X177285017Y-100765110D01*
X177334091Y-100646636D01*
X177405335Y-100540012D01*
X177496012Y-100449335D01*
X177602636Y-100378091D01*
X177721110Y-100329017D01*
X177811775Y-100310983D01*
X177846881Y-100304000D01*
X177975119Y-100304000D01*
X178010225Y-100310983D01*
G37*
G36*
X204583512Y-99433927D02*
G01*
X204732812Y-99463624D01*
X204896784Y-99531544D01*
X205044354Y-99630147D01*
X205169853Y-99755646D01*
X205268456Y-99903216D01*
X205336376Y-100067188D01*
X205371000Y-100241259D01*
X205371000Y-100418741D01*
X205336376Y-100592812D01*
X205268456Y-100756784D01*
X205169853Y-100904354D01*
X205044354Y-101029853D01*
X204896784Y-101128456D01*
X204732812Y-101196376D01*
X204583512Y-101226073D01*
X204558742Y-101231000D01*
X204381258Y-101231000D01*
X204356488Y-101226073D01*
X204207188Y-101196376D01*
X204043216Y-101128456D01*
X203895646Y-101029853D01*
X203770147Y-100904354D01*
X203671544Y-100756784D01*
X203603624Y-100592812D01*
X203569000Y-100418741D01*
X203569000Y-100241259D01*
X203603624Y-100067188D01*
X203671544Y-99903216D01*
X203770147Y-99755646D01*
X203895646Y-99630147D01*
X204043216Y-99531544D01*
X204207188Y-99463624D01*
X204356488Y-99433927D01*
X204381258Y-99429000D01*
X204558742Y-99429000D01*
X204583512Y-99433927D01*
G37*
G36*
X207123512Y-99433927D02*
G01*
X207272812Y-99463624D01*
X207436784Y-99531544D01*
X207584354Y-99630147D01*
X207709853Y-99755646D01*
X207808456Y-99903216D01*
X207876376Y-100067188D01*
X207911000Y-100241259D01*
X207911000Y-100418741D01*
X207876376Y-100592812D01*
X207808456Y-100756784D01*
X207709853Y-100904354D01*
X207584354Y-101029853D01*
X207436784Y-101128456D01*
X207272812Y-101196376D01*
X207123512Y-101226073D01*
X207098742Y-101231000D01*
X206921258Y-101231000D01*
X206896488Y-101226073D01*
X206747188Y-101196376D01*
X206583216Y-101128456D01*
X206435646Y-101029853D01*
X206310147Y-100904354D01*
X206211544Y-100756784D01*
X206143624Y-100592812D01*
X206109000Y-100418741D01*
X206109000Y-100241259D01*
X206143624Y-100067188D01*
X206211544Y-99903216D01*
X206310147Y-99755646D01*
X206435646Y-99630147D01*
X206583216Y-99531544D01*
X206747188Y-99463624D01*
X206896488Y-99433927D01*
X206921258Y-99429000D01*
X207098742Y-99429000D01*
X207123512Y-99433927D01*
G37*
G36*
X172310225Y-99040983D02*
G01*
X172400890Y-99059017D01*
X172519364Y-99108091D01*
X172625988Y-99179335D01*
X172716665Y-99270012D01*
X172787910Y-99376638D01*
X172836983Y-99495110D01*
X172862000Y-99620881D01*
X172862000Y-99749119D01*
X172836983Y-99874890D01*
X172787909Y-99993364D01*
X172716665Y-100099988D01*
X172625988Y-100190665D01*
X172519364Y-100261909D01*
X172519363Y-100261910D01*
X172519362Y-100261910D01*
X172400890Y-100310983D01*
X172275119Y-100336000D01*
X172146881Y-100336000D01*
X172021110Y-100310983D01*
X171902638Y-100261910D01*
X171902637Y-100261910D01*
X171902636Y-100261909D01*
X171796012Y-100190665D01*
X171705335Y-100099988D01*
X171634091Y-99993364D01*
X171585017Y-99874890D01*
X171560000Y-99749119D01*
X171560000Y-99620881D01*
X171585017Y-99495110D01*
X171634090Y-99376638D01*
X171705335Y-99270012D01*
X171796012Y-99179335D01*
X171902636Y-99108091D01*
X172021110Y-99059017D01*
X172111775Y-99040983D01*
X172146881Y-99034000D01*
X172275119Y-99034000D01*
X172310225Y-99040983D01*
G37*
G36*
X176110225Y-99040983D02*
G01*
X176200890Y-99059017D01*
X176319364Y-99108091D01*
X176425988Y-99179335D01*
X176516665Y-99270012D01*
X176587910Y-99376638D01*
X176636983Y-99495110D01*
X176662000Y-99620881D01*
X176662000Y-99749119D01*
X176636983Y-99874890D01*
X176587909Y-99993364D01*
X176516665Y-100099988D01*
X176425988Y-100190665D01*
X176319364Y-100261909D01*
X176319363Y-100261910D01*
X176319362Y-100261910D01*
X176200890Y-100310983D01*
X176075119Y-100336000D01*
X175946881Y-100336000D01*
X175821110Y-100310983D01*
X175702638Y-100261910D01*
X175702637Y-100261910D01*
X175702636Y-100261909D01*
X175596012Y-100190665D01*
X175505335Y-100099988D01*
X175434091Y-99993364D01*
X175385017Y-99874890D01*
X175360000Y-99749119D01*
X175360000Y-99620881D01*
X175385017Y-99495110D01*
X175434090Y-99376638D01*
X175505335Y-99270012D01*
X175596012Y-99179335D01*
X175702636Y-99108091D01*
X175821110Y-99059017D01*
X175911775Y-99040983D01*
X175946881Y-99034000D01*
X176075119Y-99034000D01*
X176110225Y-99040983D01*
G37*
G36*
X174210225Y-97770983D02*
G01*
X174300890Y-97789017D01*
X174419364Y-97838091D01*
X174525988Y-97909335D01*
X174616665Y-98000012D01*
X174687909Y-98106636D01*
X174736983Y-98225110D01*
X174762000Y-98350882D01*
X174762000Y-98479118D01*
X174736983Y-98604890D01*
X174687909Y-98723364D01*
X174616665Y-98829988D01*
X174525988Y-98920665D01*
X174419364Y-98991909D01*
X174419363Y-98991910D01*
X174419362Y-98991910D01*
X174300890Y-99040983D01*
X174175119Y-99066000D01*
X174046881Y-99066000D01*
X173921110Y-99040983D01*
X173802638Y-98991910D01*
X173802637Y-98991910D01*
X173802636Y-98991909D01*
X173696012Y-98920665D01*
X173605335Y-98829988D01*
X173534091Y-98723364D01*
X173485017Y-98604890D01*
X173460000Y-98479118D01*
X173460000Y-98350882D01*
X173485017Y-98225110D01*
X173534091Y-98106636D01*
X173605335Y-98000012D01*
X173696012Y-97909335D01*
X173802636Y-97838091D01*
X173921110Y-97789017D01*
X174011775Y-97770983D01*
X174046881Y-97764000D01*
X174175119Y-97764000D01*
X174210225Y-97770983D01*
G37*
G36*
X178010225Y-97770983D02*
G01*
X178100890Y-97789017D01*
X178219364Y-97838091D01*
X178325988Y-97909335D01*
X178416665Y-98000012D01*
X178487909Y-98106636D01*
X178536983Y-98225110D01*
X178562000Y-98350882D01*
X178562000Y-98479118D01*
X178536983Y-98604890D01*
X178487909Y-98723364D01*
X178416665Y-98829988D01*
X178325988Y-98920665D01*
X178219364Y-98991909D01*
X178219363Y-98991910D01*
X178219362Y-98991910D01*
X178100890Y-99040983D01*
X177975119Y-99066000D01*
X177846881Y-99066000D01*
X177721110Y-99040983D01*
X177602638Y-98991910D01*
X177602637Y-98991910D01*
X177602636Y-98991909D01*
X177496012Y-98920665D01*
X177405335Y-98829988D01*
X177334091Y-98723364D01*
X177285017Y-98604890D01*
X177260000Y-98479118D01*
X177260000Y-98350882D01*
X177285017Y-98225110D01*
X177334091Y-98106636D01*
X177405335Y-98000012D01*
X177496012Y-97909335D01*
X177602636Y-97838091D01*
X177721110Y-97789017D01*
X177811775Y-97770983D01*
X177846881Y-97764000D01*
X177975119Y-97764000D01*
X178010225Y-97770983D01*
G37*
G36*
X204583512Y-96893927D02*
G01*
X204732812Y-96923624D01*
X204896784Y-96991544D01*
X205044354Y-97090147D01*
X205169853Y-97215646D01*
X205268456Y-97363216D01*
X205336376Y-97527188D01*
X205371000Y-97701259D01*
X205371000Y-97878741D01*
X205336376Y-98052812D01*
X205268456Y-98216784D01*
X205169853Y-98364354D01*
X205044354Y-98489853D01*
X204896784Y-98588456D01*
X204732812Y-98656376D01*
X204583512Y-98686073D01*
X204558742Y-98691000D01*
X204381258Y-98691000D01*
X204356488Y-98686073D01*
X204207188Y-98656376D01*
X204043216Y-98588456D01*
X203895646Y-98489853D01*
X203770147Y-98364354D01*
X203671544Y-98216784D01*
X203603624Y-98052812D01*
X203569000Y-97878741D01*
X203569000Y-97701259D01*
X203603624Y-97527188D01*
X203671544Y-97363216D01*
X203770147Y-97215646D01*
X203895646Y-97090147D01*
X204043216Y-96991544D01*
X204207188Y-96923624D01*
X204356488Y-96893927D01*
X204381258Y-96889000D01*
X204558742Y-96889000D01*
X204583512Y-96893927D01*
G37*
G36*
X207123512Y-96893927D02*
G01*
X207272812Y-96923624D01*
X207436784Y-96991544D01*
X207584354Y-97090147D01*
X207709853Y-97215646D01*
X207808456Y-97363216D01*
X207876376Y-97527188D01*
X207911000Y-97701259D01*
X207911000Y-97878741D01*
X207876376Y-98052812D01*
X207808456Y-98216784D01*
X207709853Y-98364354D01*
X207584354Y-98489853D01*
X207436784Y-98588456D01*
X207272812Y-98656376D01*
X207123512Y-98686073D01*
X207098742Y-98691000D01*
X206921258Y-98691000D01*
X206896488Y-98686073D01*
X206747188Y-98656376D01*
X206583216Y-98588456D01*
X206435646Y-98489853D01*
X206310147Y-98364354D01*
X206211544Y-98216784D01*
X206143624Y-98052812D01*
X206109000Y-97878741D01*
X206109000Y-97701259D01*
X206143624Y-97527188D01*
X206211544Y-97363216D01*
X206310147Y-97215646D01*
X206435646Y-97090147D01*
X206583216Y-96991544D01*
X206747188Y-96923624D01*
X206896488Y-96893927D01*
X206921258Y-96889000D01*
X207098742Y-96889000D01*
X207123512Y-96893927D01*
G37*
G36*
X176110225Y-96500983D02*
G01*
X176200890Y-96519017D01*
X176319364Y-96568091D01*
X176425988Y-96639335D01*
X176516665Y-96730012D01*
X176587910Y-96836638D01*
X176636983Y-96955110D01*
X176662000Y-97080881D01*
X176662000Y-97209119D01*
X176636983Y-97334890D01*
X176587909Y-97453364D01*
X176516665Y-97559988D01*
X176425988Y-97650665D01*
X176319364Y-97721909D01*
X176319363Y-97721910D01*
X176319362Y-97721910D01*
X176200890Y-97770983D01*
X176075119Y-97796000D01*
X175946881Y-97796000D01*
X175821110Y-97770983D01*
X175702638Y-97721910D01*
X175702637Y-97721910D01*
X175702636Y-97721909D01*
X175596012Y-97650665D01*
X175505335Y-97559988D01*
X175434091Y-97453364D01*
X175385017Y-97334890D01*
X175360000Y-97209119D01*
X175360000Y-97080881D01*
X175385017Y-96955110D01*
X175434090Y-96836638D01*
X175505335Y-96730012D01*
X175596012Y-96639335D01*
X175702636Y-96568091D01*
X175821110Y-96519017D01*
X175911775Y-96500983D01*
X175946881Y-96494000D01*
X176075119Y-96494000D01*
X176110225Y-96500983D01*
G37*
G36*
X172310225Y-96500983D02*
G01*
X172400890Y-96519017D01*
X172519364Y-96568091D01*
X172625988Y-96639335D01*
X172716665Y-96730012D01*
X172787910Y-96836638D01*
X172836983Y-96955110D01*
X172862000Y-97080881D01*
X172862000Y-97209119D01*
X172836983Y-97334890D01*
X172787909Y-97453364D01*
X172716665Y-97559988D01*
X172625988Y-97650665D01*
X172519364Y-97721909D01*
X172519363Y-97721910D01*
X172519362Y-97721910D01*
X172400890Y-97770983D01*
X172275119Y-97796000D01*
X172146881Y-97796000D01*
X172021110Y-97770983D01*
X171902638Y-97721910D01*
X171902637Y-97721910D01*
X171902636Y-97721909D01*
X171796012Y-97650665D01*
X171705335Y-97559988D01*
X171634091Y-97453364D01*
X171585017Y-97334890D01*
X171560000Y-97209119D01*
X171560000Y-97080881D01*
X171585017Y-96955110D01*
X171634090Y-96836638D01*
X171705335Y-96730012D01*
X171796012Y-96639335D01*
X171902636Y-96568091D01*
X172021110Y-96519017D01*
X172111775Y-96500983D01*
X172146881Y-96494000D01*
X172275119Y-96494000D01*
X172310225Y-96500983D01*
G37*
G36*
X174210225Y-95230983D02*
G01*
X174300890Y-95249017D01*
X174419364Y-95298091D01*
X174525988Y-95369335D01*
X174616665Y-95460012D01*
X174687909Y-95566636D01*
X174736983Y-95685110D01*
X174762000Y-95810882D01*
X174762000Y-95939118D01*
X174736983Y-96064890D01*
X174687909Y-96183364D01*
X174616665Y-96289988D01*
X174525988Y-96380665D01*
X174419364Y-96451909D01*
X174419363Y-96451910D01*
X174419362Y-96451910D01*
X174300890Y-96500983D01*
X174175119Y-96526000D01*
X174046881Y-96526000D01*
X173921110Y-96500983D01*
X173802638Y-96451910D01*
X173802637Y-96451910D01*
X173802636Y-96451909D01*
X173696012Y-96380665D01*
X173605335Y-96289988D01*
X173534091Y-96183364D01*
X173485017Y-96064890D01*
X173460000Y-95939118D01*
X173460000Y-95810882D01*
X173485017Y-95685110D01*
X173534091Y-95566636D01*
X173605335Y-95460012D01*
X173696012Y-95369335D01*
X173802636Y-95298091D01*
X173921110Y-95249017D01*
X174011775Y-95230983D01*
X174046881Y-95224000D01*
X174175119Y-95224000D01*
X174210225Y-95230983D01*
G37*
G36*
X178010225Y-95230983D02*
G01*
X178100890Y-95249017D01*
X178219364Y-95298091D01*
X178325988Y-95369335D01*
X178416665Y-95460012D01*
X178487909Y-95566636D01*
X178536983Y-95685110D01*
X178562000Y-95810882D01*
X178562000Y-95939118D01*
X178536983Y-96064890D01*
X178487909Y-96183364D01*
X178416665Y-96289988D01*
X178325988Y-96380665D01*
X178219364Y-96451909D01*
X178219363Y-96451910D01*
X178219362Y-96451910D01*
X178100890Y-96500983D01*
X177975119Y-96526000D01*
X177846881Y-96526000D01*
X177721110Y-96500983D01*
X177602638Y-96451910D01*
X177602637Y-96451910D01*
X177602636Y-96451909D01*
X177496012Y-96380665D01*
X177405335Y-96289988D01*
X177334091Y-96183364D01*
X177285017Y-96064890D01*
X177260000Y-95939118D01*
X177260000Y-95810882D01*
X177285017Y-95685110D01*
X177334091Y-95566636D01*
X177405335Y-95460012D01*
X177496012Y-95369335D01*
X177602636Y-95298091D01*
X177721110Y-95249017D01*
X177811775Y-95230983D01*
X177846881Y-95224000D01*
X177975119Y-95224000D01*
X178010225Y-95230983D01*
G37*
G36*
X204583512Y-94353927D02*
G01*
X204732812Y-94383624D01*
X204896784Y-94451544D01*
X205044354Y-94550147D01*
X205169853Y-94675646D01*
X205268456Y-94823216D01*
X205336376Y-94987188D01*
X205371000Y-95161259D01*
X205371000Y-95338741D01*
X205336376Y-95512812D01*
X205268456Y-95676784D01*
X205169853Y-95824354D01*
X205044354Y-95949853D01*
X204896784Y-96048456D01*
X204732812Y-96116376D01*
X204583512Y-96146073D01*
X204558742Y-96151000D01*
X204381258Y-96151000D01*
X204356488Y-96146073D01*
X204207188Y-96116376D01*
X204043216Y-96048456D01*
X203895646Y-95949853D01*
X203770147Y-95824354D01*
X203671544Y-95676784D01*
X203603624Y-95512812D01*
X203569000Y-95338741D01*
X203569000Y-95161259D01*
X203603624Y-94987188D01*
X203671544Y-94823216D01*
X203770147Y-94675646D01*
X203895646Y-94550147D01*
X204043216Y-94451544D01*
X204207188Y-94383624D01*
X204356488Y-94353927D01*
X204381258Y-94349000D01*
X204558742Y-94349000D01*
X204583512Y-94353927D01*
G37*
G36*
X207123512Y-94353927D02*
G01*
X207272812Y-94383624D01*
X207436784Y-94451544D01*
X207584354Y-94550147D01*
X207709853Y-94675646D01*
X207808456Y-94823216D01*
X207876376Y-94987188D01*
X207911000Y-95161259D01*
X207911000Y-95338741D01*
X207876376Y-95512812D01*
X207808456Y-95676784D01*
X207709853Y-95824354D01*
X207584354Y-95949853D01*
X207436784Y-96048456D01*
X207272812Y-96116376D01*
X207123512Y-96146073D01*
X207098742Y-96151000D01*
X206921258Y-96151000D01*
X206896488Y-96146073D01*
X206747188Y-96116376D01*
X206583216Y-96048456D01*
X206435646Y-95949853D01*
X206310147Y-95824354D01*
X206211544Y-95676784D01*
X206143624Y-95512812D01*
X206109000Y-95338741D01*
X206109000Y-95161259D01*
X206143624Y-94987188D01*
X206211544Y-94823216D01*
X206310147Y-94675646D01*
X206435646Y-94550147D01*
X206583216Y-94451544D01*
X206747188Y-94383624D01*
X206896488Y-94353927D01*
X206921258Y-94349000D01*
X207098742Y-94349000D01*
X207123512Y-94353927D01*
G37*
G36*
X176110225Y-93960983D02*
G01*
X176200890Y-93979017D01*
X176319364Y-94028091D01*
X176425988Y-94099335D01*
X176516665Y-94190012D01*
X176587910Y-94296638D01*
X176636983Y-94415110D01*
X176662000Y-94540881D01*
X176662000Y-94669119D01*
X176636983Y-94794890D01*
X176587909Y-94913364D01*
X176516665Y-95019988D01*
X176425988Y-95110665D01*
X176319364Y-95181909D01*
X176319363Y-95181910D01*
X176319362Y-95181910D01*
X176200890Y-95230983D01*
X176075119Y-95256000D01*
X175946881Y-95256000D01*
X175821110Y-95230983D01*
X175702638Y-95181910D01*
X175702637Y-95181910D01*
X175702636Y-95181909D01*
X175596012Y-95110665D01*
X175505335Y-95019988D01*
X175434091Y-94913364D01*
X175385017Y-94794890D01*
X175360000Y-94669119D01*
X175360000Y-94540881D01*
X175385017Y-94415110D01*
X175434090Y-94296638D01*
X175505335Y-94190012D01*
X175596012Y-94099335D01*
X175702636Y-94028091D01*
X175821110Y-93979017D01*
X175911775Y-93960983D01*
X175946881Y-93954000D01*
X176075119Y-93954000D01*
X176110225Y-93960983D01*
G37*
G36*
X172310225Y-93960983D02*
G01*
X172400890Y-93979017D01*
X172519364Y-94028091D01*
X172625988Y-94099335D01*
X172716665Y-94190012D01*
X172787910Y-94296638D01*
X172836983Y-94415110D01*
X172862000Y-94540881D01*
X172862000Y-94669119D01*
X172836983Y-94794890D01*
X172787909Y-94913364D01*
X172716665Y-95019988D01*
X172625988Y-95110665D01*
X172519364Y-95181909D01*
X172519363Y-95181910D01*
X172519362Y-95181910D01*
X172400890Y-95230983D01*
X172275119Y-95256000D01*
X172146881Y-95256000D01*
X172021110Y-95230983D01*
X171902638Y-95181910D01*
X171902637Y-95181910D01*
X171902636Y-95181909D01*
X171796012Y-95110665D01*
X171705335Y-95019988D01*
X171634091Y-94913364D01*
X171585017Y-94794890D01*
X171560000Y-94669119D01*
X171560000Y-94540881D01*
X171585017Y-94415110D01*
X171634090Y-94296638D01*
X171705335Y-94190012D01*
X171796012Y-94099335D01*
X171902636Y-94028091D01*
X172021110Y-93979017D01*
X172111775Y-93960983D01*
X172146881Y-93954000D01*
X172275119Y-93954000D01*
X172310225Y-93960983D01*
G37*
G36*
X174210225Y-92690983D02*
G01*
X174300890Y-92709017D01*
X174419364Y-92758091D01*
X174525988Y-92829335D01*
X174616665Y-92920012D01*
X174687909Y-93026636D01*
X174736983Y-93145110D01*
X174762000Y-93270882D01*
X174762000Y-93399118D01*
X174736983Y-93524890D01*
X174687909Y-93643364D01*
X174616665Y-93749988D01*
X174525988Y-93840665D01*
X174419364Y-93911909D01*
X174419363Y-93911910D01*
X174419362Y-93911910D01*
X174300890Y-93960983D01*
X174175119Y-93986000D01*
X174046881Y-93986000D01*
X173921110Y-93960983D01*
X173802638Y-93911910D01*
X173802637Y-93911910D01*
X173802636Y-93911909D01*
X173696012Y-93840665D01*
X173605335Y-93749988D01*
X173534091Y-93643364D01*
X173485017Y-93524890D01*
X173460000Y-93399118D01*
X173460000Y-93270882D01*
X173485017Y-93145110D01*
X173534091Y-93026636D01*
X173605335Y-92920012D01*
X173696012Y-92829335D01*
X173802636Y-92758091D01*
X173921110Y-92709017D01*
X174011775Y-92690983D01*
X174046881Y-92684000D01*
X174175119Y-92684000D01*
X174210225Y-92690983D01*
G37*
G36*
X178010225Y-92690983D02*
G01*
X178100890Y-92709017D01*
X178219364Y-92758091D01*
X178325988Y-92829335D01*
X178416665Y-92920012D01*
X178487909Y-93026636D01*
X178536983Y-93145110D01*
X178562000Y-93270882D01*
X178562000Y-93399118D01*
X178536983Y-93524890D01*
X178487909Y-93643364D01*
X178416665Y-93749988D01*
X178325988Y-93840665D01*
X178219364Y-93911909D01*
X178219363Y-93911910D01*
X178219362Y-93911910D01*
X178100890Y-93960983D01*
X177975119Y-93986000D01*
X177846881Y-93986000D01*
X177721110Y-93960983D01*
X177602638Y-93911910D01*
X177602637Y-93911910D01*
X177602636Y-93911909D01*
X177496012Y-93840665D01*
X177405335Y-93749988D01*
X177334091Y-93643364D01*
X177285017Y-93524890D01*
X177260000Y-93399118D01*
X177260000Y-93270882D01*
X177285017Y-93145110D01*
X177334091Y-93026636D01*
X177405335Y-92920012D01*
X177496012Y-92829335D01*
X177602636Y-92758091D01*
X177721110Y-92709017D01*
X177811775Y-92690983D01*
X177846881Y-92684000D01*
X177975119Y-92684000D01*
X178010225Y-92690983D01*
G37*
G36*
X207123512Y-91813927D02*
G01*
X207272812Y-91843624D01*
X207436784Y-91911544D01*
X207584354Y-92010147D01*
X207709853Y-92135646D01*
X207808456Y-92283216D01*
X207876376Y-92447188D01*
X207911000Y-92621259D01*
X207911000Y-92798741D01*
X207876376Y-92972812D01*
X207808456Y-93136784D01*
X207709853Y-93284354D01*
X207584354Y-93409853D01*
X207436784Y-93508456D01*
X207272812Y-93576376D01*
X207123512Y-93606073D01*
X207098742Y-93611000D01*
X206921258Y-93611000D01*
X206896488Y-93606073D01*
X206747188Y-93576376D01*
X206583216Y-93508456D01*
X206435646Y-93409853D01*
X206310147Y-93284354D01*
X206211544Y-93136784D01*
X206143624Y-92972812D01*
X206109000Y-92798741D01*
X206109000Y-92621259D01*
X206143624Y-92447188D01*
X206211544Y-92283216D01*
X206310147Y-92135646D01*
X206435646Y-92010147D01*
X206583216Y-91911544D01*
X206747188Y-91843624D01*
X206896488Y-91813927D01*
X206921258Y-91809000D01*
X207098742Y-91809000D01*
X207123512Y-91813927D01*
G37*
G36*
X204583512Y-91813927D02*
G01*
X204732812Y-91843624D01*
X204896784Y-91911544D01*
X205044354Y-92010147D01*
X205169853Y-92135646D01*
X205268456Y-92283216D01*
X205336376Y-92447188D01*
X205371000Y-92621259D01*
X205371000Y-92798741D01*
X205336376Y-92972812D01*
X205268456Y-93136784D01*
X205169853Y-93284354D01*
X205044354Y-93409853D01*
X204896784Y-93508456D01*
X204732812Y-93576376D01*
X204583512Y-93606073D01*
X204558742Y-93611000D01*
X204381258Y-93611000D01*
X204356488Y-93606073D01*
X204207188Y-93576376D01*
X204043216Y-93508456D01*
X203895646Y-93409853D01*
X203770147Y-93284354D01*
X203671544Y-93136784D01*
X203603624Y-92972812D01*
X203569000Y-92798741D01*
X203569000Y-92621259D01*
X203603624Y-92447188D01*
X203671544Y-92283216D01*
X203770147Y-92135646D01*
X203895646Y-92010147D01*
X204043216Y-91911544D01*
X204207188Y-91843624D01*
X204356488Y-91813927D01*
X204381258Y-91809000D01*
X204558742Y-91809000D01*
X204583512Y-91813927D01*
G37*
G36*
X172310225Y-91420983D02*
G01*
X172400890Y-91439017D01*
X172519364Y-91488091D01*
X172625988Y-91559335D01*
X172716665Y-91650012D01*
X172787910Y-91756638D01*
X172836983Y-91875110D01*
X172862000Y-92000881D01*
X172862000Y-92129119D01*
X172836983Y-92254890D01*
X172787909Y-92373364D01*
X172716665Y-92479988D01*
X172625988Y-92570665D01*
X172519364Y-92641909D01*
X172519363Y-92641910D01*
X172519362Y-92641910D01*
X172400890Y-92690983D01*
X172275119Y-92716000D01*
X172146881Y-92716000D01*
X172021110Y-92690983D01*
X171902638Y-92641910D01*
X171902637Y-92641910D01*
X171902636Y-92641909D01*
X171796012Y-92570665D01*
X171705335Y-92479988D01*
X171634091Y-92373364D01*
X171585017Y-92254890D01*
X171560000Y-92129119D01*
X171560000Y-92000881D01*
X171585017Y-91875110D01*
X171634090Y-91756638D01*
X171705335Y-91650012D01*
X171796012Y-91559335D01*
X171902636Y-91488091D01*
X172021110Y-91439017D01*
X172111775Y-91420983D01*
X172146881Y-91414000D01*
X172275119Y-91414000D01*
X172310225Y-91420983D01*
G37*
G36*
X176110225Y-91420983D02*
G01*
X176200890Y-91439017D01*
X176319364Y-91488091D01*
X176425988Y-91559335D01*
X176516665Y-91650012D01*
X176587910Y-91756638D01*
X176636983Y-91875110D01*
X176662000Y-92000881D01*
X176662000Y-92129119D01*
X176636983Y-92254890D01*
X176587909Y-92373364D01*
X176516665Y-92479988D01*
X176425988Y-92570665D01*
X176319364Y-92641909D01*
X176319363Y-92641910D01*
X176319362Y-92641910D01*
X176200890Y-92690983D01*
X176075119Y-92716000D01*
X175946881Y-92716000D01*
X175821110Y-92690983D01*
X175702638Y-92641910D01*
X175702637Y-92641910D01*
X175702636Y-92641909D01*
X175596012Y-92570665D01*
X175505335Y-92479988D01*
X175434091Y-92373364D01*
X175385017Y-92254890D01*
X175360000Y-92129119D01*
X175360000Y-92000881D01*
X175385017Y-91875110D01*
X175434090Y-91756638D01*
X175505335Y-91650012D01*
X175596012Y-91559335D01*
X175702636Y-91488091D01*
X175821110Y-91439017D01*
X175911775Y-91420983D01*
X175946881Y-91414000D01*
X176075119Y-91414000D01*
X176110225Y-91420983D01*
G37*
G36*
X178010225Y-90150983D02*
G01*
X178100890Y-90169017D01*
X178219364Y-90218091D01*
X178325988Y-90289335D01*
X178416665Y-90380012D01*
X178487909Y-90486636D01*
X178536983Y-90605110D01*
X178562000Y-90730882D01*
X178562000Y-90859118D01*
X178536983Y-90984890D01*
X178487909Y-91103364D01*
X178416665Y-91209988D01*
X178325988Y-91300665D01*
X178219364Y-91371909D01*
X178219363Y-91371910D01*
X178219362Y-91371910D01*
X178100890Y-91420983D01*
X177975119Y-91446000D01*
X177846881Y-91446000D01*
X177721110Y-91420983D01*
X177602638Y-91371910D01*
X177602637Y-91371910D01*
X177602636Y-91371909D01*
X177496012Y-91300665D01*
X177405335Y-91209988D01*
X177334091Y-91103364D01*
X177285017Y-90984890D01*
X177260000Y-90859118D01*
X177260000Y-90730882D01*
X177285017Y-90605110D01*
X177334091Y-90486636D01*
X177405335Y-90380012D01*
X177496012Y-90289335D01*
X177602636Y-90218091D01*
X177721110Y-90169017D01*
X177811775Y-90150983D01*
X177846881Y-90144000D01*
X177975119Y-90144000D01*
X178010225Y-90150983D01*
G37*
G36*
X174210225Y-90150983D02*
G01*
X174300890Y-90169017D01*
X174419364Y-90218091D01*
X174525988Y-90289335D01*
X174616665Y-90380012D01*
X174687909Y-90486636D01*
X174736983Y-90605110D01*
X174762000Y-90730882D01*
X174762000Y-90859118D01*
X174736983Y-90984890D01*
X174687909Y-91103364D01*
X174616665Y-91209988D01*
X174525988Y-91300665D01*
X174419364Y-91371909D01*
X174419363Y-91371910D01*
X174419362Y-91371910D01*
X174300890Y-91420983D01*
X174175119Y-91446000D01*
X174046881Y-91446000D01*
X173921110Y-91420983D01*
X173802638Y-91371910D01*
X173802637Y-91371910D01*
X173802636Y-91371909D01*
X173696012Y-91300665D01*
X173605335Y-91209988D01*
X173534091Y-91103364D01*
X173485017Y-90984890D01*
X173460000Y-90859118D01*
X173460000Y-90730882D01*
X173485017Y-90605110D01*
X173534091Y-90486636D01*
X173605335Y-90380012D01*
X173696012Y-90289335D01*
X173802636Y-90218091D01*
X173921110Y-90169017D01*
X174011775Y-90150983D01*
X174046881Y-90144000D01*
X174175119Y-90144000D01*
X174210225Y-90150983D01*
G37*
G36*
X204583512Y-89273927D02*
G01*
X204732812Y-89303624D01*
X204896784Y-89371544D01*
X205044354Y-89470147D01*
X205169853Y-89595646D01*
X205268456Y-89743216D01*
X205336376Y-89907188D01*
X205371000Y-90081259D01*
X205371000Y-90258741D01*
X205336376Y-90432812D01*
X205268456Y-90596784D01*
X205169853Y-90744354D01*
X205044354Y-90869853D01*
X204896784Y-90968456D01*
X204732812Y-91036376D01*
X204583512Y-91066073D01*
X204558742Y-91071000D01*
X204381258Y-91071000D01*
X204356488Y-91066073D01*
X204207188Y-91036376D01*
X204043216Y-90968456D01*
X203895646Y-90869853D01*
X203770147Y-90744354D01*
X203671544Y-90596784D01*
X203603624Y-90432812D01*
X203569000Y-90258741D01*
X203569000Y-90081259D01*
X203603624Y-89907188D01*
X203671544Y-89743216D01*
X203770147Y-89595646D01*
X203895646Y-89470147D01*
X204043216Y-89371544D01*
X204207188Y-89303624D01*
X204356488Y-89273927D01*
X204381258Y-89269000D01*
X204558742Y-89269000D01*
X204583512Y-89273927D01*
G37*
G36*
X207123512Y-89273927D02*
G01*
X207272812Y-89303624D01*
X207436784Y-89371544D01*
X207584354Y-89470147D01*
X207709853Y-89595646D01*
X207808456Y-89743216D01*
X207876376Y-89907188D01*
X207911000Y-90081259D01*
X207911000Y-90258741D01*
X207876376Y-90432812D01*
X207808456Y-90596784D01*
X207709853Y-90744354D01*
X207584354Y-90869853D01*
X207436784Y-90968456D01*
X207272812Y-91036376D01*
X207123512Y-91066073D01*
X207098742Y-91071000D01*
X206921258Y-91071000D01*
X206896488Y-91066073D01*
X206747188Y-91036376D01*
X206583216Y-90968456D01*
X206435646Y-90869853D01*
X206310147Y-90744354D01*
X206211544Y-90596784D01*
X206143624Y-90432812D01*
X206109000Y-90258741D01*
X206109000Y-90081259D01*
X206143624Y-89907188D01*
X206211544Y-89743216D01*
X206310147Y-89595646D01*
X206435646Y-89470147D01*
X206583216Y-89371544D01*
X206747188Y-89303624D01*
X206896488Y-89273927D01*
X206921258Y-89269000D01*
X207098742Y-89269000D01*
X207123512Y-89273927D01*
G37*
G36*
X176110225Y-88880983D02*
G01*
X176200890Y-88899017D01*
X176319364Y-88948091D01*
X176425988Y-89019335D01*
X176516665Y-89110012D01*
X176587910Y-89216638D01*
X176636983Y-89335110D01*
X176662000Y-89460881D01*
X176662000Y-89589119D01*
X176636983Y-89714890D01*
X176587909Y-89833364D01*
X176516665Y-89939988D01*
X176425988Y-90030665D01*
X176319364Y-90101909D01*
X176319363Y-90101910D01*
X176319362Y-90101910D01*
X176200890Y-90150983D01*
X176075119Y-90176000D01*
X175946881Y-90176000D01*
X175821110Y-90150983D01*
X175702638Y-90101910D01*
X175702637Y-90101910D01*
X175702636Y-90101909D01*
X175596012Y-90030665D01*
X175505335Y-89939988D01*
X175434091Y-89833364D01*
X175385017Y-89714890D01*
X175360000Y-89589119D01*
X175360000Y-89460881D01*
X175385017Y-89335110D01*
X175434090Y-89216638D01*
X175505335Y-89110012D01*
X175596012Y-89019335D01*
X175702636Y-88948091D01*
X175821110Y-88899017D01*
X175911775Y-88880983D01*
X175946881Y-88874000D01*
X176075119Y-88874000D01*
X176110225Y-88880983D01*
G37*
G36*
X172310225Y-88880983D02*
G01*
X172400890Y-88899017D01*
X172519364Y-88948091D01*
X172625988Y-89019335D01*
X172716665Y-89110012D01*
X172787910Y-89216638D01*
X172836983Y-89335110D01*
X172862000Y-89460881D01*
X172862000Y-89589119D01*
X172836983Y-89714890D01*
X172787909Y-89833364D01*
X172716665Y-89939988D01*
X172625988Y-90030665D01*
X172519364Y-90101909D01*
X172519363Y-90101910D01*
X172519362Y-90101910D01*
X172400890Y-90150983D01*
X172275119Y-90176000D01*
X172146881Y-90176000D01*
X172021110Y-90150983D01*
X171902638Y-90101910D01*
X171902637Y-90101910D01*
X171902636Y-90101909D01*
X171796012Y-90030665D01*
X171705335Y-89939988D01*
X171634091Y-89833364D01*
X171585017Y-89714890D01*
X171560000Y-89589119D01*
X171560000Y-89460881D01*
X171585017Y-89335110D01*
X171634090Y-89216638D01*
X171705335Y-89110012D01*
X171796012Y-89019335D01*
X171902636Y-88948091D01*
X172021110Y-88899017D01*
X172111775Y-88880983D01*
X172146881Y-88874000D01*
X172275119Y-88874000D01*
X172310225Y-88880983D01*
G37*
G36*
X178010225Y-87610983D02*
G01*
X178100890Y-87629017D01*
X178219364Y-87678091D01*
X178325988Y-87749335D01*
X178416665Y-87840012D01*
X178487909Y-87946636D01*
X178536983Y-88065110D01*
X178562000Y-88190882D01*
X178562000Y-88319118D01*
X178536983Y-88444890D01*
X178487909Y-88563364D01*
X178416665Y-88669988D01*
X178325988Y-88760665D01*
X178219364Y-88831909D01*
X178219363Y-88831910D01*
X178219362Y-88831910D01*
X178100890Y-88880983D01*
X177975119Y-88906000D01*
X177846881Y-88906000D01*
X177721110Y-88880983D01*
X177602638Y-88831910D01*
X177602637Y-88831910D01*
X177602636Y-88831909D01*
X177496012Y-88760665D01*
X177405335Y-88669988D01*
X177334091Y-88563364D01*
X177285017Y-88444890D01*
X177260000Y-88319118D01*
X177260000Y-88190882D01*
X177285017Y-88065110D01*
X177334091Y-87946636D01*
X177405335Y-87840012D01*
X177496012Y-87749335D01*
X177602636Y-87678091D01*
X177721110Y-87629017D01*
X177811775Y-87610983D01*
X177846881Y-87604000D01*
X177975119Y-87604000D01*
X178010225Y-87610983D01*
G37*
G36*
X174210225Y-87610983D02*
G01*
X174300890Y-87629017D01*
X174419364Y-87678091D01*
X174525988Y-87749335D01*
X174616665Y-87840012D01*
X174687909Y-87946636D01*
X174736983Y-88065110D01*
X174762000Y-88190882D01*
X174762000Y-88319118D01*
X174736983Y-88444890D01*
X174687909Y-88563364D01*
X174616665Y-88669988D01*
X174525988Y-88760665D01*
X174419364Y-88831909D01*
X174419363Y-88831910D01*
X174419362Y-88831910D01*
X174300890Y-88880983D01*
X174175119Y-88906000D01*
X174046881Y-88906000D01*
X173921110Y-88880983D01*
X173802638Y-88831910D01*
X173802637Y-88831910D01*
X173802636Y-88831909D01*
X173696012Y-88760665D01*
X173605335Y-88669988D01*
X173534091Y-88563364D01*
X173485017Y-88444890D01*
X173460000Y-88319118D01*
X173460000Y-88190882D01*
X173485017Y-88065110D01*
X173534091Y-87946636D01*
X173605335Y-87840012D01*
X173696012Y-87749335D01*
X173802636Y-87678091D01*
X173921110Y-87629017D01*
X174011775Y-87610983D01*
X174046881Y-87604000D01*
X174175119Y-87604000D01*
X174210225Y-87610983D01*
G37*
G36*
X207123512Y-86733927D02*
G01*
X207272812Y-86763624D01*
X207436784Y-86831544D01*
X207584354Y-86930147D01*
X207709853Y-87055646D01*
X207808456Y-87203216D01*
X207876376Y-87367188D01*
X207911000Y-87541259D01*
X207911000Y-87718741D01*
X207876376Y-87892812D01*
X207808456Y-88056784D01*
X207709853Y-88204354D01*
X207584354Y-88329853D01*
X207436784Y-88428456D01*
X207272812Y-88496376D01*
X207123512Y-88526073D01*
X207098742Y-88531000D01*
X206921258Y-88531000D01*
X206896488Y-88526073D01*
X206747188Y-88496376D01*
X206583216Y-88428456D01*
X206435646Y-88329853D01*
X206310147Y-88204354D01*
X206211544Y-88056784D01*
X206143624Y-87892812D01*
X206109000Y-87718741D01*
X206109000Y-87541259D01*
X206143624Y-87367188D01*
X206211544Y-87203216D01*
X206310147Y-87055646D01*
X206435646Y-86930147D01*
X206583216Y-86831544D01*
X206747188Y-86763624D01*
X206896488Y-86733927D01*
X206921258Y-86729000D01*
X207098742Y-86729000D01*
X207123512Y-86733927D01*
G37*
G36*
X204583512Y-86733927D02*
G01*
X204732812Y-86763624D01*
X204896784Y-86831544D01*
X205044354Y-86930147D01*
X205169853Y-87055646D01*
X205268456Y-87203216D01*
X205336376Y-87367188D01*
X205371000Y-87541259D01*
X205371000Y-87718741D01*
X205336376Y-87892812D01*
X205268456Y-88056784D01*
X205169853Y-88204354D01*
X205044354Y-88329853D01*
X204896784Y-88428456D01*
X204732812Y-88496376D01*
X204583512Y-88526073D01*
X204558742Y-88531000D01*
X204381258Y-88531000D01*
X204356488Y-88526073D01*
X204207188Y-88496376D01*
X204043216Y-88428456D01*
X203895646Y-88329853D01*
X203770147Y-88204354D01*
X203671544Y-88056784D01*
X203603624Y-87892812D01*
X203569000Y-87718741D01*
X203569000Y-87541259D01*
X203603624Y-87367188D01*
X203671544Y-87203216D01*
X203770147Y-87055646D01*
X203895646Y-86930147D01*
X204043216Y-86831544D01*
X204207188Y-86763624D01*
X204356488Y-86733927D01*
X204381258Y-86729000D01*
X204558742Y-86729000D01*
X204583512Y-86733927D01*
G37*
G36*
X176110225Y-86340983D02*
G01*
X176200890Y-86359017D01*
X176319364Y-86408091D01*
X176425988Y-86479335D01*
X176516665Y-86570012D01*
X176587910Y-86676638D01*
X176636983Y-86795110D01*
X176662000Y-86920881D01*
X176662000Y-87049119D01*
X176636983Y-87174890D01*
X176587909Y-87293364D01*
X176516665Y-87399988D01*
X176425988Y-87490665D01*
X176319364Y-87561909D01*
X176319363Y-87561910D01*
X176319362Y-87561910D01*
X176200890Y-87610983D01*
X176075119Y-87636000D01*
X175946881Y-87636000D01*
X175821110Y-87610983D01*
X175702638Y-87561910D01*
X175702637Y-87561910D01*
X175702636Y-87561909D01*
X175596012Y-87490665D01*
X175505335Y-87399988D01*
X175434091Y-87293364D01*
X175385017Y-87174890D01*
X175360000Y-87049119D01*
X175360000Y-86920881D01*
X175385017Y-86795110D01*
X175434090Y-86676638D01*
X175505335Y-86570012D01*
X175596012Y-86479335D01*
X175702636Y-86408091D01*
X175821110Y-86359017D01*
X175911775Y-86340983D01*
X175946881Y-86334000D01*
X176075119Y-86334000D01*
X176110225Y-86340983D01*
G37*
G36*
X172310225Y-86340983D02*
G01*
X172400890Y-86359017D01*
X172519364Y-86408091D01*
X172625988Y-86479335D01*
X172716665Y-86570012D01*
X172787910Y-86676638D01*
X172836983Y-86795110D01*
X172862000Y-86920881D01*
X172862000Y-87049119D01*
X172836983Y-87174890D01*
X172787909Y-87293364D01*
X172716665Y-87399988D01*
X172625988Y-87490665D01*
X172519364Y-87561909D01*
X172519363Y-87561910D01*
X172519362Y-87561910D01*
X172400890Y-87610983D01*
X172275119Y-87636000D01*
X172146881Y-87636000D01*
X172021110Y-87610983D01*
X171902638Y-87561910D01*
X171902637Y-87561910D01*
X171902636Y-87561909D01*
X171796012Y-87490665D01*
X171705335Y-87399988D01*
X171634091Y-87293364D01*
X171585017Y-87174890D01*
X171560000Y-87049119D01*
X171560000Y-86920881D01*
X171585017Y-86795110D01*
X171634090Y-86676638D01*
X171705335Y-86570012D01*
X171796012Y-86479335D01*
X171902636Y-86408091D01*
X172021110Y-86359017D01*
X172111775Y-86340983D01*
X172146881Y-86334000D01*
X172275119Y-86334000D01*
X172310225Y-86340983D01*
G37*
G36*
X174210225Y-85070983D02*
G01*
X174300890Y-85089017D01*
X174419364Y-85138091D01*
X174525988Y-85209335D01*
X174616665Y-85300012D01*
X174687909Y-85406636D01*
X174736983Y-85525110D01*
X174762000Y-85650882D01*
X174762000Y-85779118D01*
X174736983Y-85904890D01*
X174687909Y-86023364D01*
X174616665Y-86129988D01*
X174525988Y-86220665D01*
X174419364Y-86291909D01*
X174419363Y-86291910D01*
X174419362Y-86291910D01*
X174300890Y-86340983D01*
X174175119Y-86366000D01*
X174046881Y-86366000D01*
X173921110Y-86340983D01*
X173802638Y-86291910D01*
X173802637Y-86291910D01*
X173802636Y-86291909D01*
X173696012Y-86220665D01*
X173605335Y-86129988D01*
X173534091Y-86023364D01*
X173485017Y-85904890D01*
X173460000Y-85779118D01*
X173460000Y-85650882D01*
X173485017Y-85525110D01*
X173534091Y-85406636D01*
X173605335Y-85300012D01*
X173696012Y-85209335D01*
X173802636Y-85138091D01*
X173921110Y-85089017D01*
X174011775Y-85070983D01*
X174046881Y-85064000D01*
X174175119Y-85064000D01*
X174210225Y-85070983D01*
G37*
G36*
X178010225Y-85070983D02*
G01*
X178100890Y-85089017D01*
X178219364Y-85138091D01*
X178325988Y-85209335D01*
X178416665Y-85300012D01*
X178487909Y-85406636D01*
X178536983Y-85525110D01*
X178562000Y-85650882D01*
X178562000Y-85779118D01*
X178536983Y-85904890D01*
X178487909Y-86023364D01*
X178416665Y-86129988D01*
X178325988Y-86220665D01*
X178219364Y-86291909D01*
X178219363Y-86291910D01*
X178219362Y-86291910D01*
X178100890Y-86340983D01*
X177975119Y-86366000D01*
X177846881Y-86366000D01*
X177721110Y-86340983D01*
X177602638Y-86291910D01*
X177602637Y-86291910D01*
X177602636Y-86291909D01*
X177496012Y-86220665D01*
X177405335Y-86129988D01*
X177334091Y-86023364D01*
X177285017Y-85904890D01*
X177260000Y-85779118D01*
X177260000Y-85650882D01*
X177285017Y-85525110D01*
X177334091Y-85406636D01*
X177405335Y-85300012D01*
X177496012Y-85209335D01*
X177602636Y-85138091D01*
X177721110Y-85089017D01*
X177811775Y-85070983D01*
X177846881Y-85064000D01*
X177975119Y-85064000D01*
X178010225Y-85070983D01*
G37*
G36*
X204583512Y-84193927D02*
G01*
X204732812Y-84223624D01*
X204896784Y-84291544D01*
X205044354Y-84390147D01*
X205169853Y-84515646D01*
X205268456Y-84663216D01*
X205336376Y-84827188D01*
X205371000Y-85001259D01*
X205371000Y-85178741D01*
X205336376Y-85352812D01*
X205268456Y-85516784D01*
X205169853Y-85664354D01*
X205044354Y-85789853D01*
X204896784Y-85888456D01*
X204732812Y-85956376D01*
X204583512Y-85986073D01*
X204558742Y-85991000D01*
X204381258Y-85991000D01*
X204356488Y-85986073D01*
X204207188Y-85956376D01*
X204043216Y-85888456D01*
X203895646Y-85789853D01*
X203770147Y-85664354D01*
X203671544Y-85516784D01*
X203603624Y-85352812D01*
X203569000Y-85178741D01*
X203569000Y-85001259D01*
X203603624Y-84827188D01*
X203671544Y-84663216D01*
X203770147Y-84515646D01*
X203895646Y-84390147D01*
X204043216Y-84291544D01*
X204207188Y-84223624D01*
X204356488Y-84193927D01*
X204381258Y-84189000D01*
X204558742Y-84189000D01*
X204583512Y-84193927D01*
G37*
G36*
X207123512Y-84193927D02*
G01*
X207272812Y-84223624D01*
X207436784Y-84291544D01*
X207584354Y-84390147D01*
X207709853Y-84515646D01*
X207808456Y-84663216D01*
X207876376Y-84827188D01*
X207911000Y-85001259D01*
X207911000Y-85178741D01*
X207876376Y-85352812D01*
X207808456Y-85516784D01*
X207709853Y-85664354D01*
X207584354Y-85789853D01*
X207436784Y-85888456D01*
X207272812Y-85956376D01*
X207123512Y-85986073D01*
X207098742Y-85991000D01*
X206921258Y-85991000D01*
X206896488Y-85986073D01*
X206747188Y-85956376D01*
X206583216Y-85888456D01*
X206435646Y-85789853D01*
X206310147Y-85664354D01*
X206211544Y-85516784D01*
X206143624Y-85352812D01*
X206109000Y-85178741D01*
X206109000Y-85001259D01*
X206143624Y-84827188D01*
X206211544Y-84663216D01*
X206310147Y-84515646D01*
X206435646Y-84390147D01*
X206583216Y-84291544D01*
X206747188Y-84223624D01*
X206896488Y-84193927D01*
X206921258Y-84189000D01*
X207098742Y-84189000D01*
X207123512Y-84193927D01*
G37*
G36*
X176110225Y-83800983D02*
G01*
X176200890Y-83819017D01*
X176319364Y-83868091D01*
X176425988Y-83939335D01*
X176516665Y-84030012D01*
X176587910Y-84136638D01*
X176636983Y-84255110D01*
X176662000Y-84380881D01*
X176662000Y-84509119D01*
X176636983Y-84634890D01*
X176587909Y-84753364D01*
X176516665Y-84859988D01*
X176425988Y-84950665D01*
X176319364Y-85021909D01*
X176319363Y-85021910D01*
X176319362Y-85021910D01*
X176200890Y-85070983D01*
X176075119Y-85096000D01*
X175946881Y-85096000D01*
X175821110Y-85070983D01*
X175702638Y-85021910D01*
X175702637Y-85021910D01*
X175702636Y-85021909D01*
X175596012Y-84950665D01*
X175505335Y-84859988D01*
X175434091Y-84753364D01*
X175385017Y-84634890D01*
X175360000Y-84509119D01*
X175360000Y-84380881D01*
X175385017Y-84255110D01*
X175434090Y-84136638D01*
X175505335Y-84030012D01*
X175596012Y-83939335D01*
X175702636Y-83868091D01*
X175821110Y-83819017D01*
X175911775Y-83800983D01*
X175946881Y-83794000D01*
X176075119Y-83794000D01*
X176110225Y-83800983D01*
G37*
G36*
X172310225Y-83800983D02*
G01*
X172400890Y-83819017D01*
X172519364Y-83868091D01*
X172625988Y-83939335D01*
X172716665Y-84030012D01*
X172787910Y-84136638D01*
X172836983Y-84255110D01*
X172862000Y-84380881D01*
X172862000Y-84509119D01*
X172836983Y-84634890D01*
X172787909Y-84753364D01*
X172716665Y-84859988D01*
X172625988Y-84950665D01*
X172519364Y-85021909D01*
X172519363Y-85021910D01*
X172519362Y-85021910D01*
X172400890Y-85070983D01*
X172275119Y-85096000D01*
X172146881Y-85096000D01*
X172021110Y-85070983D01*
X171902638Y-85021910D01*
X171902637Y-85021910D01*
X171902636Y-85021909D01*
X171796012Y-84950665D01*
X171705335Y-84859988D01*
X171634091Y-84753364D01*
X171585017Y-84634890D01*
X171560000Y-84509119D01*
X171560000Y-84380881D01*
X171585017Y-84255110D01*
X171634090Y-84136638D01*
X171705335Y-84030012D01*
X171796012Y-83939335D01*
X171902636Y-83868091D01*
X172021110Y-83819017D01*
X172111775Y-83800983D01*
X172146881Y-83794000D01*
X172275119Y-83794000D01*
X172310225Y-83800983D01*
G37*
G36*
X178010225Y-82530983D02*
G01*
X178100890Y-82549017D01*
X178219364Y-82598091D01*
X178325988Y-82669335D01*
X178416665Y-82760012D01*
X178487909Y-82866636D01*
X178536983Y-82985110D01*
X178562000Y-83110882D01*
X178562000Y-83239118D01*
X178536983Y-83364890D01*
X178487909Y-83483364D01*
X178416665Y-83589988D01*
X178325988Y-83680665D01*
X178219364Y-83751909D01*
X178219363Y-83751910D01*
X178219362Y-83751910D01*
X178100890Y-83800983D01*
X177975119Y-83826000D01*
X177846881Y-83826000D01*
X177721110Y-83800983D01*
X177602638Y-83751910D01*
X177602637Y-83751910D01*
X177602636Y-83751909D01*
X177496012Y-83680665D01*
X177405335Y-83589988D01*
X177334091Y-83483364D01*
X177285017Y-83364890D01*
X177260000Y-83239118D01*
X177260000Y-83110882D01*
X177285017Y-82985110D01*
X177334091Y-82866636D01*
X177405335Y-82760012D01*
X177496012Y-82669335D01*
X177602636Y-82598091D01*
X177721110Y-82549017D01*
X177811775Y-82530983D01*
X177846881Y-82524000D01*
X177975119Y-82524000D01*
X178010225Y-82530983D01*
G37*
G36*
X174210225Y-82530983D02*
G01*
X174300890Y-82549017D01*
X174419364Y-82598091D01*
X174525988Y-82669335D01*
X174616665Y-82760012D01*
X174687909Y-82866636D01*
X174736983Y-82985110D01*
X174762000Y-83110882D01*
X174762000Y-83239118D01*
X174736983Y-83364890D01*
X174687909Y-83483364D01*
X174616665Y-83589988D01*
X174525988Y-83680665D01*
X174419364Y-83751909D01*
X174419363Y-83751910D01*
X174419362Y-83751910D01*
X174300890Y-83800983D01*
X174175119Y-83826000D01*
X174046881Y-83826000D01*
X173921110Y-83800983D01*
X173802638Y-83751910D01*
X173802637Y-83751910D01*
X173802636Y-83751909D01*
X173696012Y-83680665D01*
X173605335Y-83589988D01*
X173534091Y-83483364D01*
X173485017Y-83364890D01*
X173460000Y-83239118D01*
X173460000Y-83110882D01*
X173485017Y-82985110D01*
X173534091Y-82866636D01*
X173605335Y-82760012D01*
X173696012Y-82669335D01*
X173802636Y-82598091D01*
X173921110Y-82549017D01*
X174011775Y-82530983D01*
X174046881Y-82524000D01*
X174175119Y-82524000D01*
X174210225Y-82530983D01*
G37*
G36*
X204583512Y-81653927D02*
G01*
X204732812Y-81683624D01*
X204896784Y-81751544D01*
X205044354Y-81850147D01*
X205169853Y-81975646D01*
X205268456Y-82123216D01*
X205336376Y-82287188D01*
X205371000Y-82461259D01*
X205371000Y-82638741D01*
X205336376Y-82812812D01*
X205268456Y-82976784D01*
X205169853Y-83124354D01*
X205044354Y-83249853D01*
X204896784Y-83348456D01*
X204732812Y-83416376D01*
X204583512Y-83446073D01*
X204558742Y-83451000D01*
X204381258Y-83451000D01*
X204356488Y-83446073D01*
X204207188Y-83416376D01*
X204043216Y-83348456D01*
X203895646Y-83249853D01*
X203770147Y-83124354D01*
X203671544Y-82976784D01*
X203603624Y-82812812D01*
X203569000Y-82638741D01*
X203569000Y-82461259D01*
X203603624Y-82287188D01*
X203671544Y-82123216D01*
X203770147Y-81975646D01*
X203895646Y-81850147D01*
X204043216Y-81751544D01*
X204207188Y-81683624D01*
X204356488Y-81653927D01*
X204381258Y-81649000D01*
X204558742Y-81649000D01*
X204583512Y-81653927D01*
G37*
G36*
X207123512Y-81653927D02*
G01*
X207272812Y-81683624D01*
X207436784Y-81751544D01*
X207584354Y-81850147D01*
X207709853Y-81975646D01*
X207808456Y-82123216D01*
X207876376Y-82287188D01*
X207911000Y-82461259D01*
X207911000Y-82638741D01*
X207876376Y-82812812D01*
X207808456Y-82976784D01*
X207709853Y-83124354D01*
X207584354Y-83249853D01*
X207436784Y-83348456D01*
X207272812Y-83416376D01*
X207123512Y-83446073D01*
X207098742Y-83451000D01*
X206921258Y-83451000D01*
X206896488Y-83446073D01*
X206747188Y-83416376D01*
X206583216Y-83348456D01*
X206435646Y-83249853D01*
X206310147Y-83124354D01*
X206211544Y-82976784D01*
X206143624Y-82812812D01*
X206109000Y-82638741D01*
X206109000Y-82461259D01*
X206143624Y-82287188D01*
X206211544Y-82123216D01*
X206310147Y-81975646D01*
X206435646Y-81850147D01*
X206583216Y-81751544D01*
X206747188Y-81683624D01*
X206896488Y-81653927D01*
X206921258Y-81649000D01*
X207098742Y-81649000D01*
X207123512Y-81653927D01*
G37*
G36*
X172310225Y-81260983D02*
G01*
X172400890Y-81279017D01*
X172519364Y-81328091D01*
X172625988Y-81399335D01*
X172716665Y-81490012D01*
X172787910Y-81596638D01*
X172836983Y-81715110D01*
X172862000Y-81840881D01*
X172862000Y-81969119D01*
X172836983Y-82094890D01*
X172787909Y-82213364D01*
X172716665Y-82319988D01*
X172625988Y-82410665D01*
X172519364Y-82481909D01*
X172519363Y-82481910D01*
X172519362Y-82481910D01*
X172400890Y-82530983D01*
X172275119Y-82556000D01*
X172146881Y-82556000D01*
X172021110Y-82530983D01*
X171902638Y-82481910D01*
X171902637Y-82481910D01*
X171902636Y-82481909D01*
X171796012Y-82410665D01*
X171705335Y-82319988D01*
X171634091Y-82213364D01*
X171585017Y-82094890D01*
X171560000Y-81969119D01*
X171560000Y-81840881D01*
X171585017Y-81715110D01*
X171634090Y-81596638D01*
X171705335Y-81490012D01*
X171796012Y-81399335D01*
X171902636Y-81328091D01*
X172021110Y-81279017D01*
X172111775Y-81260983D01*
X172146881Y-81254000D01*
X172275119Y-81254000D01*
X172310225Y-81260983D01*
G37*
G36*
X176110225Y-81260983D02*
G01*
X176200890Y-81279017D01*
X176319364Y-81328091D01*
X176425988Y-81399335D01*
X176516665Y-81490012D01*
X176587910Y-81596638D01*
X176636983Y-81715110D01*
X176662000Y-81840881D01*
X176662000Y-81969119D01*
X176636983Y-82094890D01*
X176587909Y-82213364D01*
X176516665Y-82319988D01*
X176425988Y-82410665D01*
X176319364Y-82481909D01*
X176319363Y-82481910D01*
X176319362Y-82481910D01*
X176200890Y-82530983D01*
X176075119Y-82556000D01*
X175946881Y-82556000D01*
X175821110Y-82530983D01*
X175702638Y-82481910D01*
X175702637Y-82481910D01*
X175702636Y-82481909D01*
X175596012Y-82410665D01*
X175505335Y-82319988D01*
X175434091Y-82213364D01*
X175385017Y-82094890D01*
X175360000Y-81969119D01*
X175360000Y-81840881D01*
X175385017Y-81715110D01*
X175434090Y-81596638D01*
X175505335Y-81490012D01*
X175596012Y-81399335D01*
X175702636Y-81328091D01*
X175821110Y-81279017D01*
X175911775Y-81260983D01*
X175946881Y-81254000D01*
X176075119Y-81254000D01*
X176110225Y-81260983D01*
G37*
G36*
X178010225Y-79990983D02*
G01*
X178100890Y-80009017D01*
X178219364Y-80058091D01*
X178325988Y-80129335D01*
X178416665Y-80220012D01*
X178487909Y-80326636D01*
X178536983Y-80445110D01*
X178562000Y-80570882D01*
X178562000Y-80699118D01*
X178536983Y-80824890D01*
X178487909Y-80943364D01*
X178416665Y-81049988D01*
X178325988Y-81140665D01*
X178219364Y-81211909D01*
X178219363Y-81211910D01*
X178219362Y-81211910D01*
X178100890Y-81260983D01*
X177975119Y-81286000D01*
X177846881Y-81286000D01*
X177721110Y-81260983D01*
X177602638Y-81211910D01*
X177602637Y-81211910D01*
X177602636Y-81211909D01*
X177496012Y-81140665D01*
X177405335Y-81049988D01*
X177334091Y-80943364D01*
X177285017Y-80824890D01*
X177260000Y-80699118D01*
X177260000Y-80570882D01*
X177285017Y-80445110D01*
X177334091Y-80326636D01*
X177405335Y-80220012D01*
X177496012Y-80129335D01*
X177602636Y-80058091D01*
X177721110Y-80009017D01*
X177811775Y-79990983D01*
X177846881Y-79984000D01*
X177975119Y-79984000D01*
X178010225Y-79990983D01*
G37*
G36*
X174210225Y-79990983D02*
G01*
X174300890Y-80009017D01*
X174419364Y-80058091D01*
X174525988Y-80129335D01*
X174616665Y-80220012D01*
X174687909Y-80326636D01*
X174736983Y-80445110D01*
X174762000Y-80570882D01*
X174762000Y-80699118D01*
X174736983Y-80824890D01*
X174687909Y-80943364D01*
X174616665Y-81049988D01*
X174525988Y-81140665D01*
X174419364Y-81211909D01*
X174419363Y-81211910D01*
X174419362Y-81211910D01*
X174300890Y-81260983D01*
X174175119Y-81286000D01*
X174046881Y-81286000D01*
X173921110Y-81260983D01*
X173802638Y-81211910D01*
X173802637Y-81211910D01*
X173802636Y-81211909D01*
X173696012Y-81140665D01*
X173605335Y-81049988D01*
X173534091Y-80943364D01*
X173485017Y-80824890D01*
X173460000Y-80699118D01*
X173460000Y-80570882D01*
X173485017Y-80445110D01*
X173534091Y-80326636D01*
X173605335Y-80220012D01*
X173696012Y-80129335D01*
X173802636Y-80058091D01*
X173921110Y-80009017D01*
X174011775Y-79990983D01*
X174046881Y-79984000D01*
X174175119Y-79984000D01*
X174210225Y-79990983D01*
G37*
G36*
X207123512Y-79113927D02*
G01*
X207272812Y-79143624D01*
X207436784Y-79211544D01*
X207584354Y-79310147D01*
X207709853Y-79435646D01*
X207808456Y-79583216D01*
X207876376Y-79747188D01*
X207911000Y-79921259D01*
X207911000Y-80098741D01*
X207876376Y-80272812D01*
X207808456Y-80436784D01*
X207709853Y-80584354D01*
X207584354Y-80709853D01*
X207436784Y-80808456D01*
X207272812Y-80876376D01*
X207123512Y-80906073D01*
X207098742Y-80911000D01*
X206921258Y-80911000D01*
X206896488Y-80906073D01*
X206747188Y-80876376D01*
X206583216Y-80808456D01*
X206435646Y-80709853D01*
X206310147Y-80584354D01*
X206211544Y-80436784D01*
X206143624Y-80272812D01*
X206109000Y-80098741D01*
X206109000Y-79921259D01*
X206143624Y-79747188D01*
X206211544Y-79583216D01*
X206310147Y-79435646D01*
X206435646Y-79310147D01*
X206583216Y-79211544D01*
X206747188Y-79143624D01*
X206896488Y-79113927D01*
X206921258Y-79109000D01*
X207098742Y-79109000D01*
X207123512Y-79113927D01*
G37*
G36*
X204583512Y-79113927D02*
G01*
X204732812Y-79143624D01*
X204896784Y-79211544D01*
X205044354Y-79310147D01*
X205169853Y-79435646D01*
X205268456Y-79583216D01*
X205336376Y-79747188D01*
X205371000Y-79921259D01*
X205371000Y-80098741D01*
X205336376Y-80272812D01*
X205268456Y-80436784D01*
X205169853Y-80584354D01*
X205044354Y-80709853D01*
X204896784Y-80808456D01*
X204732812Y-80876376D01*
X204583512Y-80906073D01*
X204558742Y-80911000D01*
X204381258Y-80911000D01*
X204356488Y-80906073D01*
X204207188Y-80876376D01*
X204043216Y-80808456D01*
X203895646Y-80709853D01*
X203770147Y-80584354D01*
X203671544Y-80436784D01*
X203603624Y-80272812D01*
X203569000Y-80098741D01*
X203569000Y-79921259D01*
X203603624Y-79747188D01*
X203671544Y-79583216D01*
X203770147Y-79435646D01*
X203895646Y-79310147D01*
X204043216Y-79211544D01*
X204207188Y-79143624D01*
X204356488Y-79113927D01*
X204381258Y-79109000D01*
X204558742Y-79109000D01*
X204583512Y-79113927D01*
G37*
G36*
X176110225Y-78720983D02*
G01*
X176200890Y-78739017D01*
X176319364Y-78788091D01*
X176425988Y-78859335D01*
X176516665Y-78950012D01*
X176587910Y-79056638D01*
X176636983Y-79175110D01*
X176662000Y-79300881D01*
X176662000Y-79429119D01*
X176636983Y-79554890D01*
X176587909Y-79673364D01*
X176516665Y-79779988D01*
X176425988Y-79870665D01*
X176319364Y-79941909D01*
X176319363Y-79941910D01*
X176319362Y-79941910D01*
X176200890Y-79990983D01*
X176075119Y-80016000D01*
X175946881Y-80016000D01*
X175821110Y-79990983D01*
X175702638Y-79941910D01*
X175702637Y-79941910D01*
X175702636Y-79941909D01*
X175596012Y-79870665D01*
X175505335Y-79779988D01*
X175434091Y-79673364D01*
X175385017Y-79554890D01*
X175360000Y-79429119D01*
X175360000Y-79300881D01*
X175385017Y-79175110D01*
X175434090Y-79056638D01*
X175505335Y-78950012D01*
X175596012Y-78859335D01*
X175702636Y-78788091D01*
X175821110Y-78739017D01*
X175911775Y-78720983D01*
X175946881Y-78714000D01*
X176075119Y-78714000D01*
X176110225Y-78720983D01*
G37*
G36*
X172310225Y-78720983D02*
G01*
X172400890Y-78739017D01*
X172519364Y-78788091D01*
X172625988Y-78859335D01*
X172716665Y-78950012D01*
X172787910Y-79056638D01*
X172836983Y-79175110D01*
X172862000Y-79300881D01*
X172862000Y-79429119D01*
X172836983Y-79554890D01*
X172787909Y-79673364D01*
X172716665Y-79779988D01*
X172625988Y-79870665D01*
X172519364Y-79941909D01*
X172519363Y-79941910D01*
X172519362Y-79941910D01*
X172400890Y-79990983D01*
X172275119Y-80016000D01*
X172146881Y-80016000D01*
X172021110Y-79990983D01*
X171902638Y-79941910D01*
X171902637Y-79941910D01*
X171902636Y-79941909D01*
X171796012Y-79870665D01*
X171705335Y-79779988D01*
X171634091Y-79673364D01*
X171585017Y-79554890D01*
X171560000Y-79429119D01*
X171560000Y-79300881D01*
X171585017Y-79175110D01*
X171634090Y-79056638D01*
X171705335Y-78950012D01*
X171796012Y-78859335D01*
X171902636Y-78788091D01*
X172021110Y-78739017D01*
X172111775Y-78720983D01*
X172146881Y-78714000D01*
X172275119Y-78714000D01*
X172310225Y-78720983D01*
G37*
G36*
X174210225Y-77450983D02*
G01*
X174300890Y-77469017D01*
X174419364Y-77518091D01*
X174525988Y-77589335D01*
X174616665Y-77680012D01*
X174687909Y-77786636D01*
X174736983Y-77905110D01*
X174762000Y-78030882D01*
X174762000Y-78159118D01*
X174736983Y-78284890D01*
X174687909Y-78403364D01*
X174616665Y-78509988D01*
X174525988Y-78600665D01*
X174419364Y-78671909D01*
X174419363Y-78671910D01*
X174419362Y-78671910D01*
X174300890Y-78720983D01*
X174175119Y-78746000D01*
X174046881Y-78746000D01*
X173921110Y-78720983D01*
X173802638Y-78671910D01*
X173802637Y-78671910D01*
X173802636Y-78671909D01*
X173696012Y-78600665D01*
X173605335Y-78509988D01*
X173534091Y-78403364D01*
X173485017Y-78284890D01*
X173460000Y-78159118D01*
X173460000Y-78030882D01*
X173485017Y-77905110D01*
X173534091Y-77786636D01*
X173605335Y-77680012D01*
X173696012Y-77589335D01*
X173802636Y-77518091D01*
X173921110Y-77469017D01*
X174011775Y-77450983D01*
X174046881Y-77444000D01*
X174175119Y-77444000D01*
X174210225Y-77450983D01*
G37*
G36*
X178010225Y-77450983D02*
G01*
X178100890Y-77469017D01*
X178219364Y-77518091D01*
X178325988Y-77589335D01*
X178416665Y-77680012D01*
X178487909Y-77786636D01*
X178536983Y-77905110D01*
X178562000Y-78030882D01*
X178562000Y-78159118D01*
X178536983Y-78284890D01*
X178487909Y-78403364D01*
X178416665Y-78509988D01*
X178325988Y-78600665D01*
X178219364Y-78671909D01*
X178219363Y-78671910D01*
X178219362Y-78671910D01*
X178100890Y-78720983D01*
X177975119Y-78746000D01*
X177846881Y-78746000D01*
X177721110Y-78720983D01*
X177602638Y-78671910D01*
X177602637Y-78671910D01*
X177602636Y-78671909D01*
X177496012Y-78600665D01*
X177405335Y-78509988D01*
X177334091Y-78403364D01*
X177285017Y-78284890D01*
X177260000Y-78159118D01*
X177260000Y-78030882D01*
X177285017Y-77905110D01*
X177334091Y-77786636D01*
X177405335Y-77680012D01*
X177496012Y-77589335D01*
X177602636Y-77518091D01*
X177721110Y-77469017D01*
X177811775Y-77450983D01*
X177846881Y-77444000D01*
X177975119Y-77444000D01*
X178010225Y-77450983D01*
G37*
G36*
X204583512Y-76573927D02*
G01*
X204732812Y-76603624D01*
X204896784Y-76671544D01*
X205044354Y-76770147D01*
X205169853Y-76895646D01*
X205268456Y-77043216D01*
X205336376Y-77207188D01*
X205371000Y-77381259D01*
X205371000Y-77558741D01*
X205336376Y-77732812D01*
X205268456Y-77896784D01*
X205169853Y-78044354D01*
X205044354Y-78169853D01*
X204896784Y-78268456D01*
X204732812Y-78336376D01*
X204583512Y-78366073D01*
X204558742Y-78371000D01*
X204381258Y-78371000D01*
X204356488Y-78366073D01*
X204207188Y-78336376D01*
X204043216Y-78268456D01*
X203895646Y-78169853D01*
X203770147Y-78044354D01*
X203671544Y-77896784D01*
X203603624Y-77732812D01*
X203569000Y-77558741D01*
X203569000Y-77381259D01*
X203603624Y-77207188D01*
X203671544Y-77043216D01*
X203770147Y-76895646D01*
X203895646Y-76770147D01*
X204043216Y-76671544D01*
X204207188Y-76603624D01*
X204356488Y-76573927D01*
X204381258Y-76569000D01*
X204558742Y-76569000D01*
X204583512Y-76573927D01*
G37*
G36*
X207123512Y-76573927D02*
G01*
X207272812Y-76603624D01*
X207436784Y-76671544D01*
X207584354Y-76770147D01*
X207709853Y-76895646D01*
X207808456Y-77043216D01*
X207876376Y-77207188D01*
X207911000Y-77381259D01*
X207911000Y-77558741D01*
X207876376Y-77732812D01*
X207808456Y-77896784D01*
X207709853Y-78044354D01*
X207584354Y-78169853D01*
X207436784Y-78268456D01*
X207272812Y-78336376D01*
X207123512Y-78366073D01*
X207098742Y-78371000D01*
X206921258Y-78371000D01*
X206896488Y-78366073D01*
X206747188Y-78336376D01*
X206583216Y-78268456D01*
X206435646Y-78169853D01*
X206310147Y-78044354D01*
X206211544Y-77896784D01*
X206143624Y-77732812D01*
X206109000Y-77558741D01*
X206109000Y-77381259D01*
X206143624Y-77207188D01*
X206211544Y-77043216D01*
X206310147Y-76895646D01*
X206435646Y-76770147D01*
X206583216Y-76671544D01*
X206747188Y-76603624D01*
X206896488Y-76573927D01*
X206921258Y-76569000D01*
X207098742Y-76569000D01*
X207123512Y-76573927D01*
G37*
G36*
X172310225Y-76180983D02*
G01*
X172400890Y-76199017D01*
X172519364Y-76248091D01*
X172625988Y-76319335D01*
X172716665Y-76410012D01*
X172787910Y-76516638D01*
X172836983Y-76635110D01*
X172862000Y-76760881D01*
X172862000Y-76889119D01*
X172836983Y-77014890D01*
X172787909Y-77133364D01*
X172716665Y-77239988D01*
X172625988Y-77330665D01*
X172519364Y-77401909D01*
X172519363Y-77401910D01*
X172519362Y-77401910D01*
X172400890Y-77450983D01*
X172275119Y-77476000D01*
X172146881Y-77476000D01*
X172021110Y-77450983D01*
X171902638Y-77401910D01*
X171902637Y-77401910D01*
X171902636Y-77401909D01*
X171796012Y-77330665D01*
X171705335Y-77239988D01*
X171634091Y-77133364D01*
X171585017Y-77014890D01*
X171560000Y-76889119D01*
X171560000Y-76760881D01*
X171585017Y-76635110D01*
X171634090Y-76516638D01*
X171705335Y-76410012D01*
X171796012Y-76319335D01*
X171902636Y-76248091D01*
X172021110Y-76199017D01*
X172111775Y-76180983D01*
X172146881Y-76174000D01*
X172275119Y-76174000D01*
X172310225Y-76180983D01*
G37*
G36*
X176110225Y-76180983D02*
G01*
X176200890Y-76199017D01*
X176319364Y-76248091D01*
X176425988Y-76319335D01*
X176516665Y-76410012D01*
X176587910Y-76516638D01*
X176636983Y-76635110D01*
X176662000Y-76760881D01*
X176662000Y-76889119D01*
X176636983Y-77014890D01*
X176587909Y-77133364D01*
X176516665Y-77239988D01*
X176425988Y-77330665D01*
X176319364Y-77401909D01*
X176319363Y-77401910D01*
X176319362Y-77401910D01*
X176200890Y-77450983D01*
X176075119Y-77476000D01*
X175946881Y-77476000D01*
X175821110Y-77450983D01*
X175702638Y-77401910D01*
X175702637Y-77401910D01*
X175702636Y-77401909D01*
X175596012Y-77330665D01*
X175505335Y-77239988D01*
X175434091Y-77133364D01*
X175385017Y-77014890D01*
X175360000Y-76889119D01*
X175360000Y-76760881D01*
X175385017Y-76635110D01*
X175434090Y-76516638D01*
X175505335Y-76410012D01*
X175596012Y-76319335D01*
X175702636Y-76248091D01*
X175821110Y-76199017D01*
X175911775Y-76180983D01*
X175946881Y-76174000D01*
X176075119Y-76174000D01*
X176110225Y-76180983D01*
G37*
G36*
X174210225Y-74910983D02*
G01*
X174300890Y-74929017D01*
X174419364Y-74978091D01*
X174525988Y-75049335D01*
X174616665Y-75140012D01*
X174687909Y-75246636D01*
X174736983Y-75365110D01*
X174762000Y-75490882D01*
X174762000Y-75619118D01*
X174736983Y-75744890D01*
X174687909Y-75863364D01*
X174616665Y-75969988D01*
X174525988Y-76060665D01*
X174419364Y-76131909D01*
X174419363Y-76131910D01*
X174419362Y-76131910D01*
X174300890Y-76180983D01*
X174175119Y-76206000D01*
X174046881Y-76206000D01*
X173921110Y-76180983D01*
X173802638Y-76131910D01*
X173802637Y-76131910D01*
X173802636Y-76131909D01*
X173696012Y-76060665D01*
X173605335Y-75969988D01*
X173534091Y-75863364D01*
X173485017Y-75744890D01*
X173460000Y-75619118D01*
X173460000Y-75490882D01*
X173485017Y-75365110D01*
X173534091Y-75246636D01*
X173605335Y-75140012D01*
X173696012Y-75049335D01*
X173802636Y-74978091D01*
X173921110Y-74929017D01*
X174011775Y-74910983D01*
X174046881Y-74904000D01*
X174175119Y-74904000D01*
X174210225Y-74910983D01*
G37*
G36*
X178010225Y-74910983D02*
G01*
X178100890Y-74929017D01*
X178219364Y-74978091D01*
X178325988Y-75049335D01*
X178416665Y-75140012D01*
X178487909Y-75246636D01*
X178536983Y-75365110D01*
X178562000Y-75490882D01*
X178562000Y-75619118D01*
X178536983Y-75744890D01*
X178487909Y-75863364D01*
X178416665Y-75969988D01*
X178325988Y-76060665D01*
X178219364Y-76131909D01*
X178219363Y-76131910D01*
X178219362Y-76131910D01*
X178100890Y-76180983D01*
X177975119Y-76206000D01*
X177846881Y-76206000D01*
X177721110Y-76180983D01*
X177602638Y-76131910D01*
X177602637Y-76131910D01*
X177602636Y-76131909D01*
X177496012Y-76060665D01*
X177405335Y-75969988D01*
X177334091Y-75863364D01*
X177285017Y-75744890D01*
X177260000Y-75619118D01*
X177260000Y-75490882D01*
X177285017Y-75365110D01*
X177334091Y-75246636D01*
X177405335Y-75140012D01*
X177496012Y-75049335D01*
X177602636Y-74978091D01*
X177721110Y-74929017D01*
X177811775Y-74910983D01*
X177846881Y-74904000D01*
X177975119Y-74904000D01*
X178010225Y-74910983D01*
G37*
G36*
X207123512Y-74033927D02*
G01*
X207272812Y-74063624D01*
X207436784Y-74131544D01*
X207584354Y-74230147D01*
X207709853Y-74355646D01*
X207808456Y-74503216D01*
X207876376Y-74667188D01*
X207911000Y-74841259D01*
X207911000Y-75018741D01*
X207876376Y-75192812D01*
X207808456Y-75356784D01*
X207709853Y-75504354D01*
X207584354Y-75629853D01*
X207436784Y-75728456D01*
X207272812Y-75796376D01*
X207123512Y-75826073D01*
X207098742Y-75831000D01*
X206921258Y-75831000D01*
X206896488Y-75826073D01*
X206747188Y-75796376D01*
X206583216Y-75728456D01*
X206435646Y-75629853D01*
X206310147Y-75504354D01*
X206211544Y-75356784D01*
X206143624Y-75192812D01*
X206109000Y-75018741D01*
X206109000Y-74841259D01*
X206143624Y-74667188D01*
X206211544Y-74503216D01*
X206310147Y-74355646D01*
X206435646Y-74230147D01*
X206583216Y-74131544D01*
X206747188Y-74063624D01*
X206896488Y-74033927D01*
X206921258Y-74029000D01*
X207098742Y-74029000D01*
X207123512Y-74033927D01*
G37*
G36*
X204583512Y-74033927D02*
G01*
X204732812Y-74063624D01*
X204896784Y-74131544D01*
X205044354Y-74230147D01*
X205169853Y-74355646D01*
X205268456Y-74503216D01*
X205336376Y-74667188D01*
X205371000Y-74841259D01*
X205371000Y-75018741D01*
X205336376Y-75192812D01*
X205268456Y-75356784D01*
X205169853Y-75504354D01*
X205044354Y-75629853D01*
X204896784Y-75728456D01*
X204732812Y-75796376D01*
X204583512Y-75826073D01*
X204558742Y-75831000D01*
X204381258Y-75831000D01*
X204356488Y-75826073D01*
X204207188Y-75796376D01*
X204043216Y-75728456D01*
X203895646Y-75629853D01*
X203770147Y-75504354D01*
X203671544Y-75356784D01*
X203603624Y-75192812D01*
X203569000Y-75018741D01*
X203569000Y-74841259D01*
X203603624Y-74667188D01*
X203671544Y-74503216D01*
X203770147Y-74355646D01*
X203895646Y-74230147D01*
X204043216Y-74131544D01*
X204207188Y-74063624D01*
X204356488Y-74033927D01*
X204381258Y-74029000D01*
X204558742Y-74029000D01*
X204583512Y-74033927D01*
G37*
G36*
X176110225Y-73640983D02*
G01*
X176200890Y-73659017D01*
X176319364Y-73708091D01*
X176425988Y-73779335D01*
X176516665Y-73870012D01*
X176587910Y-73976638D01*
X176636983Y-74095110D01*
X176662000Y-74220881D01*
X176662000Y-74349119D01*
X176636983Y-74474890D01*
X176587909Y-74593364D01*
X176516665Y-74699988D01*
X176425988Y-74790665D01*
X176319364Y-74861909D01*
X176319363Y-74861910D01*
X176319362Y-74861910D01*
X176200890Y-74910983D01*
X176075119Y-74936000D01*
X175946881Y-74936000D01*
X175821110Y-74910983D01*
X175702638Y-74861910D01*
X175702637Y-74861910D01*
X175702636Y-74861909D01*
X175596012Y-74790665D01*
X175505335Y-74699988D01*
X175434091Y-74593364D01*
X175385017Y-74474890D01*
X175360000Y-74349119D01*
X175360000Y-74220881D01*
X175385017Y-74095110D01*
X175434090Y-73976638D01*
X175505335Y-73870012D01*
X175596012Y-73779335D01*
X175702636Y-73708091D01*
X175821110Y-73659017D01*
X175911775Y-73640983D01*
X175946881Y-73634000D01*
X176075119Y-73634000D01*
X176110225Y-73640983D01*
G37*
G36*
X172310225Y-73640983D02*
G01*
X172400890Y-73659017D01*
X172519364Y-73708091D01*
X172625988Y-73779335D01*
X172716665Y-73870012D01*
X172787910Y-73976638D01*
X172836983Y-74095110D01*
X172862000Y-74220881D01*
X172862000Y-74349119D01*
X172836983Y-74474890D01*
X172787909Y-74593364D01*
X172716665Y-74699988D01*
X172625988Y-74790665D01*
X172519364Y-74861909D01*
X172519363Y-74861910D01*
X172519362Y-74861910D01*
X172400890Y-74910983D01*
X172275119Y-74936000D01*
X172146881Y-74936000D01*
X172021110Y-74910983D01*
X171902638Y-74861910D01*
X171902637Y-74861910D01*
X171902636Y-74861909D01*
X171796012Y-74790665D01*
X171705335Y-74699988D01*
X171634091Y-74593364D01*
X171585017Y-74474890D01*
X171560000Y-74349119D01*
X171560000Y-74220881D01*
X171585017Y-74095110D01*
X171634090Y-73976638D01*
X171705335Y-73870012D01*
X171796012Y-73779335D01*
X171902636Y-73708091D01*
X172021110Y-73659017D01*
X172111775Y-73640983D01*
X172146881Y-73634000D01*
X172275119Y-73634000D01*
X172310225Y-73640983D01*
G37*
G36*
X174210225Y-72370983D02*
G01*
X174300890Y-72389017D01*
X174419364Y-72438091D01*
X174525988Y-72509335D01*
X174616665Y-72600012D01*
X174687909Y-72706636D01*
X174736983Y-72825110D01*
X174762000Y-72950882D01*
X174762000Y-73079118D01*
X174736983Y-73204890D01*
X174687909Y-73323364D01*
X174616665Y-73429988D01*
X174525988Y-73520665D01*
X174419364Y-73591909D01*
X174419363Y-73591910D01*
X174419362Y-73591910D01*
X174300890Y-73640983D01*
X174175119Y-73666000D01*
X174046881Y-73666000D01*
X173921110Y-73640983D01*
X173802638Y-73591910D01*
X173802637Y-73591910D01*
X173802636Y-73591909D01*
X173696012Y-73520665D01*
X173605335Y-73429988D01*
X173534091Y-73323364D01*
X173485017Y-73204890D01*
X173460000Y-73079118D01*
X173460000Y-72950882D01*
X173485017Y-72825110D01*
X173534091Y-72706636D01*
X173605335Y-72600012D01*
X173696012Y-72509335D01*
X173802636Y-72438091D01*
X173921110Y-72389017D01*
X174011775Y-72370983D01*
X174046881Y-72364000D01*
X174175119Y-72364000D01*
X174210225Y-72370983D01*
G37*
G36*
X178010225Y-72370983D02*
G01*
X178100890Y-72389017D01*
X178219364Y-72438091D01*
X178325988Y-72509335D01*
X178416665Y-72600012D01*
X178487909Y-72706636D01*
X178536983Y-72825110D01*
X178562000Y-72950882D01*
X178562000Y-73079118D01*
X178536983Y-73204890D01*
X178487909Y-73323364D01*
X178416665Y-73429988D01*
X178325988Y-73520665D01*
X178219364Y-73591909D01*
X178219363Y-73591910D01*
X178219362Y-73591910D01*
X178100890Y-73640983D01*
X177975119Y-73666000D01*
X177846881Y-73666000D01*
X177721110Y-73640983D01*
X177602638Y-73591910D01*
X177602637Y-73591910D01*
X177602636Y-73591909D01*
X177496012Y-73520665D01*
X177405335Y-73429988D01*
X177334091Y-73323364D01*
X177285017Y-73204890D01*
X177260000Y-73079118D01*
X177260000Y-72950882D01*
X177285017Y-72825110D01*
X177334091Y-72706636D01*
X177405335Y-72600012D01*
X177496012Y-72509335D01*
X177602636Y-72438091D01*
X177721110Y-72389017D01*
X177811775Y-72370983D01*
X177846881Y-72364000D01*
X177975119Y-72364000D01*
X178010225Y-72370983D01*
G37*
G36*
X204583512Y-71493927D02*
G01*
X204732812Y-71523624D01*
X204896784Y-71591544D01*
X205044354Y-71690147D01*
X205169853Y-71815646D01*
X205268456Y-71963216D01*
X205336376Y-72127188D01*
X205371000Y-72301259D01*
X205371000Y-72478741D01*
X205336376Y-72652812D01*
X205268456Y-72816784D01*
X205169853Y-72964354D01*
X205044354Y-73089853D01*
X204896784Y-73188456D01*
X204732812Y-73256376D01*
X204583512Y-73286073D01*
X204558742Y-73291000D01*
X204381258Y-73291000D01*
X204356488Y-73286073D01*
X204207188Y-73256376D01*
X204043216Y-73188456D01*
X203895646Y-73089853D01*
X203770147Y-72964354D01*
X203671544Y-72816784D01*
X203603624Y-72652812D01*
X203569000Y-72478741D01*
X203569000Y-72301259D01*
X203603624Y-72127188D01*
X203671544Y-71963216D01*
X203770147Y-71815646D01*
X203895646Y-71690147D01*
X204043216Y-71591544D01*
X204207188Y-71523624D01*
X204356488Y-71493927D01*
X204381258Y-71489000D01*
X204558742Y-71489000D01*
X204583512Y-71493927D01*
G37*
G36*
X207123512Y-71493927D02*
G01*
X207272812Y-71523624D01*
X207436784Y-71591544D01*
X207584354Y-71690147D01*
X207709853Y-71815646D01*
X207808456Y-71963216D01*
X207876376Y-72127188D01*
X207911000Y-72301259D01*
X207911000Y-72478741D01*
X207876376Y-72652812D01*
X207808456Y-72816784D01*
X207709853Y-72964354D01*
X207584354Y-73089853D01*
X207436784Y-73188456D01*
X207272812Y-73256376D01*
X207123512Y-73286073D01*
X207098742Y-73291000D01*
X206921258Y-73291000D01*
X206896488Y-73286073D01*
X206747188Y-73256376D01*
X206583216Y-73188456D01*
X206435646Y-73089853D01*
X206310147Y-72964354D01*
X206211544Y-72816784D01*
X206143624Y-72652812D01*
X206109000Y-72478741D01*
X206109000Y-72301259D01*
X206143624Y-72127188D01*
X206211544Y-71963216D01*
X206310147Y-71815646D01*
X206435646Y-71690147D01*
X206583216Y-71591544D01*
X206747188Y-71523624D01*
X206896488Y-71493927D01*
X206921258Y-71489000D01*
X207098742Y-71489000D01*
X207123512Y-71493927D01*
G37*
G36*
X176110225Y-71100983D02*
G01*
X176200890Y-71119017D01*
X176319364Y-71168091D01*
X176425988Y-71239335D01*
X176516665Y-71330012D01*
X176587910Y-71436638D01*
X176636983Y-71555110D01*
X176662000Y-71680881D01*
X176662000Y-71809119D01*
X176636983Y-71934890D01*
X176587909Y-72053364D01*
X176516665Y-72159988D01*
X176425988Y-72250665D01*
X176319364Y-72321909D01*
X176319363Y-72321910D01*
X176319362Y-72321910D01*
X176200890Y-72370983D01*
X176075119Y-72396000D01*
X175946881Y-72396000D01*
X175821110Y-72370983D01*
X175702638Y-72321910D01*
X175702637Y-72321910D01*
X175702636Y-72321909D01*
X175596012Y-72250665D01*
X175505335Y-72159988D01*
X175434091Y-72053364D01*
X175385017Y-71934890D01*
X175360000Y-71809119D01*
X175360000Y-71680881D01*
X175385017Y-71555110D01*
X175434090Y-71436638D01*
X175505335Y-71330012D01*
X175596012Y-71239335D01*
X175702636Y-71168091D01*
X175821110Y-71119017D01*
X175911775Y-71100983D01*
X175946881Y-71094000D01*
X176075119Y-71094000D01*
X176110225Y-71100983D01*
G37*
G36*
X172310225Y-71100983D02*
G01*
X172400890Y-71119017D01*
X172519364Y-71168091D01*
X172625988Y-71239335D01*
X172716665Y-71330012D01*
X172787910Y-71436638D01*
X172836983Y-71555110D01*
X172862000Y-71680881D01*
X172862000Y-71809119D01*
X172836983Y-71934890D01*
X172787909Y-72053364D01*
X172716665Y-72159988D01*
X172625988Y-72250665D01*
X172519364Y-72321909D01*
X172519363Y-72321910D01*
X172519362Y-72321910D01*
X172400890Y-72370983D01*
X172275119Y-72396000D01*
X172146881Y-72396000D01*
X172021110Y-72370983D01*
X171902638Y-72321910D01*
X171902637Y-72321910D01*
X171902636Y-72321909D01*
X171796012Y-72250665D01*
X171705335Y-72159988D01*
X171634091Y-72053364D01*
X171585017Y-71934890D01*
X171560000Y-71809119D01*
X171560000Y-71680881D01*
X171585017Y-71555110D01*
X171634090Y-71436638D01*
X171705335Y-71330012D01*
X171796012Y-71239335D01*
X171902636Y-71168091D01*
X172021110Y-71119017D01*
X172111775Y-71100983D01*
X172146881Y-71094000D01*
X172275119Y-71094000D01*
X172310225Y-71100983D01*
G37*
G36*
X178010225Y-69830983D02*
G01*
X178100890Y-69849017D01*
X178219364Y-69898091D01*
X178325988Y-69969335D01*
X178416665Y-70060012D01*
X178487909Y-70166636D01*
X178536983Y-70285110D01*
X178562000Y-70410882D01*
X178562000Y-70539118D01*
X178536983Y-70664890D01*
X178487909Y-70783364D01*
X178416665Y-70889988D01*
X178325988Y-70980665D01*
X178219364Y-71051909D01*
X178219363Y-71051910D01*
X178219362Y-71051910D01*
X178100890Y-71100983D01*
X177975119Y-71126000D01*
X177846881Y-71126000D01*
X177721110Y-71100983D01*
X177602638Y-71051910D01*
X177602637Y-71051910D01*
X177602636Y-71051909D01*
X177496012Y-70980665D01*
X177405335Y-70889988D01*
X177334091Y-70783364D01*
X177285017Y-70664890D01*
X177260000Y-70539118D01*
X177260000Y-70410882D01*
X177285017Y-70285110D01*
X177334091Y-70166636D01*
X177405335Y-70060012D01*
X177496012Y-69969335D01*
X177602636Y-69898091D01*
X177721110Y-69849017D01*
X177811775Y-69830983D01*
X177846881Y-69824000D01*
X177975119Y-69824000D01*
X178010225Y-69830983D01*
G37*
G36*
X174210225Y-69830983D02*
G01*
X174300890Y-69849017D01*
X174419364Y-69898091D01*
X174525988Y-69969335D01*
X174616665Y-70060012D01*
X174687909Y-70166636D01*
X174736983Y-70285110D01*
X174762000Y-70410882D01*
X174762000Y-70539118D01*
X174736983Y-70664890D01*
X174687909Y-70783364D01*
X174616665Y-70889988D01*
X174525988Y-70980665D01*
X174419364Y-71051909D01*
X174419363Y-71051910D01*
X174419362Y-71051910D01*
X174300890Y-71100983D01*
X174175119Y-71126000D01*
X174046881Y-71126000D01*
X173921110Y-71100983D01*
X173802638Y-71051910D01*
X173802637Y-71051910D01*
X173802636Y-71051909D01*
X173696012Y-70980665D01*
X173605335Y-70889988D01*
X173534091Y-70783364D01*
X173485017Y-70664890D01*
X173460000Y-70539118D01*
X173460000Y-70410882D01*
X173485017Y-70285110D01*
X173534091Y-70166636D01*
X173605335Y-70060012D01*
X173696012Y-69969335D01*
X173802636Y-69898091D01*
X173921110Y-69849017D01*
X174011775Y-69830983D01*
X174046881Y-69824000D01*
X174175119Y-69824000D01*
X174210225Y-69830983D01*
G37*
G36*
X207123512Y-68953927D02*
G01*
X207272812Y-68983624D01*
X207436784Y-69051544D01*
X207584354Y-69150147D01*
X207709853Y-69275646D01*
X207808456Y-69423216D01*
X207876376Y-69587188D01*
X207911000Y-69761259D01*
X207911000Y-69938741D01*
X207876376Y-70112812D01*
X207808456Y-70276784D01*
X207709853Y-70424354D01*
X207584354Y-70549853D01*
X207436784Y-70648456D01*
X207272812Y-70716376D01*
X207123512Y-70746073D01*
X207098742Y-70751000D01*
X206921258Y-70751000D01*
X206896488Y-70746073D01*
X206747188Y-70716376D01*
X206583216Y-70648456D01*
X206435646Y-70549853D01*
X206310147Y-70424354D01*
X206211544Y-70276784D01*
X206143624Y-70112812D01*
X206109000Y-69938741D01*
X206109000Y-69761259D01*
X206143624Y-69587188D01*
X206211544Y-69423216D01*
X206310147Y-69275646D01*
X206435646Y-69150147D01*
X206583216Y-69051544D01*
X206747188Y-68983624D01*
X206896488Y-68953927D01*
X206921258Y-68949000D01*
X207098742Y-68949000D01*
X207123512Y-68953927D01*
G37*
G36*
X204583512Y-68953927D02*
G01*
X204732812Y-68983624D01*
X204896784Y-69051544D01*
X205044354Y-69150147D01*
X205169853Y-69275646D01*
X205268456Y-69423216D01*
X205336376Y-69587188D01*
X205371000Y-69761259D01*
X205371000Y-69938741D01*
X205336376Y-70112812D01*
X205268456Y-70276784D01*
X205169853Y-70424354D01*
X205044354Y-70549853D01*
X204896784Y-70648456D01*
X204732812Y-70716376D01*
X204583512Y-70746073D01*
X204558742Y-70751000D01*
X204381258Y-70751000D01*
X204356488Y-70746073D01*
X204207188Y-70716376D01*
X204043216Y-70648456D01*
X203895646Y-70549853D01*
X203770147Y-70424354D01*
X203671544Y-70276784D01*
X203603624Y-70112812D01*
X203569000Y-69938741D01*
X203569000Y-69761259D01*
X203603624Y-69587188D01*
X203671544Y-69423216D01*
X203770147Y-69275646D01*
X203895646Y-69150147D01*
X204043216Y-69051544D01*
X204207188Y-68983624D01*
X204356488Y-68953927D01*
X204381258Y-68949000D01*
X204558742Y-68949000D01*
X204583512Y-68953927D01*
G37*
G36*
X176110225Y-68560983D02*
G01*
X176200890Y-68579017D01*
X176319364Y-68628091D01*
X176425988Y-68699335D01*
X176516665Y-68790012D01*
X176587910Y-68896638D01*
X176636983Y-69015110D01*
X176662000Y-69140881D01*
X176662000Y-69269119D01*
X176636983Y-69394890D01*
X176587909Y-69513364D01*
X176516665Y-69619988D01*
X176425988Y-69710665D01*
X176319364Y-69781909D01*
X176319363Y-69781910D01*
X176319362Y-69781910D01*
X176200890Y-69830983D01*
X176075119Y-69856000D01*
X175946881Y-69856000D01*
X175821110Y-69830983D01*
X175702638Y-69781910D01*
X175702637Y-69781910D01*
X175702636Y-69781909D01*
X175596012Y-69710665D01*
X175505335Y-69619988D01*
X175434091Y-69513364D01*
X175385017Y-69394890D01*
X175360000Y-69269119D01*
X175360000Y-69140881D01*
X175385017Y-69015110D01*
X175434090Y-68896638D01*
X175505335Y-68790012D01*
X175596012Y-68699335D01*
X175702636Y-68628091D01*
X175821110Y-68579017D01*
X175911775Y-68560983D01*
X175946881Y-68554000D01*
X176075119Y-68554000D01*
X176110225Y-68560983D01*
G37*
G36*
X172310225Y-68560983D02*
G01*
X172400890Y-68579017D01*
X172519364Y-68628091D01*
X172625988Y-68699335D01*
X172716665Y-68790012D01*
X172787910Y-68896638D01*
X172836983Y-69015110D01*
X172862000Y-69140881D01*
X172862000Y-69269119D01*
X172836983Y-69394890D01*
X172787909Y-69513364D01*
X172716665Y-69619988D01*
X172625988Y-69710665D01*
X172519364Y-69781909D01*
X172519363Y-69781910D01*
X172519362Y-69781910D01*
X172400890Y-69830983D01*
X172275119Y-69856000D01*
X172146881Y-69856000D01*
X172021110Y-69830983D01*
X171902638Y-69781910D01*
X171902637Y-69781910D01*
X171902636Y-69781909D01*
X171796012Y-69710665D01*
X171705335Y-69619988D01*
X171634091Y-69513364D01*
X171585017Y-69394890D01*
X171560000Y-69269119D01*
X171560000Y-69140881D01*
X171585017Y-69015110D01*
X171634090Y-68896638D01*
X171705335Y-68790012D01*
X171796012Y-68699335D01*
X171902636Y-68628091D01*
X172021110Y-68579017D01*
X172111775Y-68560983D01*
X172146881Y-68554000D01*
X172275119Y-68554000D01*
X172310225Y-68560983D01*
G37*
G36*
X178010225Y-67290983D02*
G01*
X178100890Y-67309017D01*
X178219364Y-67358091D01*
X178325988Y-67429335D01*
X178416665Y-67520012D01*
X178487909Y-67626636D01*
X178536983Y-67745110D01*
X178562000Y-67870882D01*
X178562000Y-67999118D01*
X178536983Y-68124890D01*
X178487909Y-68243364D01*
X178416665Y-68349988D01*
X178325988Y-68440665D01*
X178219364Y-68511909D01*
X178219363Y-68511910D01*
X178219362Y-68511910D01*
X178100890Y-68560983D01*
X177975119Y-68586000D01*
X177846881Y-68586000D01*
X177721110Y-68560983D01*
X177602638Y-68511910D01*
X177602637Y-68511910D01*
X177602636Y-68511909D01*
X177496012Y-68440665D01*
X177405335Y-68349988D01*
X177334091Y-68243364D01*
X177285017Y-68124890D01*
X177260000Y-67999118D01*
X177260000Y-67870882D01*
X177285017Y-67745110D01*
X177334091Y-67626636D01*
X177405335Y-67520012D01*
X177496012Y-67429335D01*
X177602636Y-67358091D01*
X177721110Y-67309017D01*
X177811775Y-67290983D01*
X177846881Y-67284000D01*
X177975119Y-67284000D01*
X178010225Y-67290983D01*
G37*
G36*
X174210225Y-67290983D02*
G01*
X174300890Y-67309017D01*
X174419364Y-67358091D01*
X174525988Y-67429335D01*
X174616665Y-67520012D01*
X174687909Y-67626636D01*
X174736983Y-67745110D01*
X174762000Y-67870882D01*
X174762000Y-67999118D01*
X174736983Y-68124890D01*
X174687909Y-68243364D01*
X174616665Y-68349988D01*
X174525988Y-68440665D01*
X174419364Y-68511909D01*
X174419363Y-68511910D01*
X174419362Y-68511910D01*
X174300890Y-68560983D01*
X174175119Y-68586000D01*
X174046881Y-68586000D01*
X173921110Y-68560983D01*
X173802638Y-68511910D01*
X173802637Y-68511910D01*
X173802636Y-68511909D01*
X173696012Y-68440665D01*
X173605335Y-68349988D01*
X173534091Y-68243364D01*
X173485017Y-68124890D01*
X173460000Y-67999118D01*
X173460000Y-67870882D01*
X173485017Y-67745110D01*
X173534091Y-67626636D01*
X173605335Y-67520012D01*
X173696012Y-67429335D01*
X173802636Y-67358091D01*
X173921110Y-67309017D01*
X174011775Y-67290983D01*
X174046881Y-67284000D01*
X174175119Y-67284000D01*
X174210225Y-67290983D01*
G37*
G36*
X207123512Y-66413927D02*
G01*
X207272812Y-66443624D01*
X207436784Y-66511544D01*
X207584354Y-66610147D01*
X207709853Y-66735646D01*
X207808456Y-66883216D01*
X207876376Y-67047188D01*
X207911000Y-67221259D01*
X207911000Y-67398741D01*
X207876376Y-67572812D01*
X207808456Y-67736784D01*
X207709853Y-67884354D01*
X207584354Y-68009853D01*
X207436784Y-68108456D01*
X207272812Y-68176376D01*
X207123512Y-68206073D01*
X207098742Y-68211000D01*
X206921258Y-68211000D01*
X206896488Y-68206073D01*
X206747188Y-68176376D01*
X206583216Y-68108456D01*
X206435646Y-68009853D01*
X206310147Y-67884354D01*
X206211544Y-67736784D01*
X206143624Y-67572812D01*
X206109000Y-67398741D01*
X206109000Y-67221259D01*
X206143624Y-67047188D01*
X206211544Y-66883216D01*
X206310147Y-66735646D01*
X206435646Y-66610147D01*
X206583216Y-66511544D01*
X206747188Y-66443624D01*
X206896488Y-66413927D01*
X206921258Y-66409000D01*
X207098742Y-66409000D01*
X207123512Y-66413927D01*
G37*
G36*
X204583512Y-66413927D02*
G01*
X204732812Y-66443624D01*
X204896784Y-66511544D01*
X205044354Y-66610147D01*
X205169853Y-66735646D01*
X205268456Y-66883216D01*
X205336376Y-67047188D01*
X205371000Y-67221259D01*
X205371000Y-67398741D01*
X205336376Y-67572812D01*
X205268456Y-67736784D01*
X205169853Y-67884354D01*
X205044354Y-68009853D01*
X204896784Y-68108456D01*
X204732812Y-68176376D01*
X204583512Y-68206073D01*
X204558742Y-68211000D01*
X204381258Y-68211000D01*
X204356488Y-68206073D01*
X204207188Y-68176376D01*
X204043216Y-68108456D01*
X203895646Y-68009853D01*
X203770147Y-67884354D01*
X203671544Y-67736784D01*
X203603624Y-67572812D01*
X203569000Y-67398741D01*
X203569000Y-67221259D01*
X203603624Y-67047188D01*
X203671544Y-66883216D01*
X203770147Y-66735646D01*
X203895646Y-66610147D01*
X204043216Y-66511544D01*
X204207188Y-66443624D01*
X204356488Y-66413927D01*
X204381258Y-66409000D01*
X204558742Y-66409000D01*
X204583512Y-66413927D01*
G37*
G36*
X172310225Y-66020983D02*
G01*
X172400890Y-66039017D01*
X172519364Y-66088091D01*
X172625988Y-66159335D01*
X172716665Y-66250012D01*
X172787910Y-66356638D01*
X172836983Y-66475110D01*
X172862000Y-66600881D01*
X172862000Y-66729119D01*
X172836983Y-66854890D01*
X172787909Y-66973364D01*
X172716665Y-67079988D01*
X172625988Y-67170665D01*
X172519364Y-67241909D01*
X172519363Y-67241910D01*
X172519362Y-67241910D01*
X172400890Y-67290983D01*
X172275119Y-67316000D01*
X172146881Y-67316000D01*
X172021110Y-67290983D01*
X171902638Y-67241910D01*
X171902637Y-67241910D01*
X171902636Y-67241909D01*
X171796012Y-67170665D01*
X171705335Y-67079988D01*
X171634091Y-66973364D01*
X171585017Y-66854890D01*
X171560000Y-66729119D01*
X171560000Y-66600881D01*
X171585017Y-66475110D01*
X171634090Y-66356638D01*
X171705335Y-66250012D01*
X171796012Y-66159335D01*
X171902636Y-66088091D01*
X172021110Y-66039017D01*
X172111775Y-66020983D01*
X172146881Y-66014000D01*
X172275119Y-66014000D01*
X172310225Y-66020983D01*
G37*
G36*
X176110225Y-66020983D02*
G01*
X176200890Y-66039017D01*
X176319364Y-66088091D01*
X176425988Y-66159335D01*
X176516665Y-66250012D01*
X176587910Y-66356638D01*
X176636983Y-66475110D01*
X176662000Y-66600881D01*
X176662000Y-66729119D01*
X176636983Y-66854890D01*
X176587909Y-66973364D01*
X176516665Y-67079988D01*
X176425988Y-67170665D01*
X176319364Y-67241909D01*
X176319363Y-67241910D01*
X176319362Y-67241910D01*
X176200890Y-67290983D01*
X176075119Y-67316000D01*
X175946881Y-67316000D01*
X175821110Y-67290983D01*
X175702638Y-67241910D01*
X175702637Y-67241910D01*
X175702636Y-67241909D01*
X175596012Y-67170665D01*
X175505335Y-67079988D01*
X175434091Y-66973364D01*
X175385017Y-66854890D01*
X175360000Y-66729119D01*
X175360000Y-66600881D01*
X175385017Y-66475110D01*
X175434090Y-66356638D01*
X175505335Y-66250012D01*
X175596012Y-66159335D01*
X175702636Y-66088091D01*
X175821110Y-66039017D01*
X175911775Y-66020983D01*
X175946881Y-66014000D01*
X176075119Y-66014000D01*
X176110225Y-66020983D01*
G37*
G36*
X174210225Y-64750983D02*
G01*
X174300890Y-64769017D01*
X174419364Y-64818091D01*
X174525988Y-64889335D01*
X174616665Y-64980012D01*
X174687909Y-65086636D01*
X174736983Y-65205110D01*
X174762000Y-65330882D01*
X174762000Y-65459118D01*
X174736983Y-65584890D01*
X174687909Y-65703364D01*
X174616665Y-65809988D01*
X174525988Y-65900665D01*
X174419364Y-65971909D01*
X174419363Y-65971910D01*
X174419362Y-65971910D01*
X174300890Y-66020983D01*
X174175119Y-66046000D01*
X174046881Y-66046000D01*
X173921110Y-66020983D01*
X173802638Y-65971910D01*
X173802637Y-65971910D01*
X173802636Y-65971909D01*
X173696012Y-65900665D01*
X173605335Y-65809988D01*
X173534091Y-65703364D01*
X173485017Y-65584890D01*
X173460000Y-65459118D01*
X173460000Y-65330882D01*
X173485017Y-65205110D01*
X173534091Y-65086636D01*
X173605335Y-64980012D01*
X173696012Y-64889335D01*
X173802636Y-64818091D01*
X173921110Y-64769017D01*
X174011775Y-64750983D01*
X174046881Y-64744000D01*
X174175119Y-64744000D01*
X174210225Y-64750983D01*
G37*
G36*
X178010225Y-64750983D02*
G01*
X178100890Y-64769017D01*
X178219364Y-64818091D01*
X178325988Y-64889335D01*
X178416665Y-64980012D01*
X178487909Y-65086636D01*
X178536983Y-65205110D01*
X178562000Y-65330882D01*
X178562000Y-65459118D01*
X178536983Y-65584890D01*
X178487909Y-65703364D01*
X178416665Y-65809988D01*
X178325988Y-65900665D01*
X178219364Y-65971909D01*
X178219363Y-65971910D01*
X178219362Y-65971910D01*
X178100890Y-66020983D01*
X177975119Y-66046000D01*
X177846881Y-66046000D01*
X177721110Y-66020983D01*
X177602638Y-65971910D01*
X177602637Y-65971910D01*
X177602636Y-65971909D01*
X177496012Y-65900665D01*
X177405335Y-65809988D01*
X177334091Y-65703364D01*
X177285017Y-65584890D01*
X177260000Y-65459118D01*
X177260000Y-65330882D01*
X177285017Y-65205110D01*
X177334091Y-65086636D01*
X177405335Y-64980012D01*
X177496012Y-64889335D01*
X177602636Y-64818091D01*
X177721110Y-64769017D01*
X177811775Y-64750983D01*
X177846881Y-64744000D01*
X177975119Y-64744000D01*
X178010225Y-64750983D01*
G37*
G36*
X204583512Y-63873927D02*
G01*
X204732812Y-63903624D01*
X204896784Y-63971544D01*
X205044354Y-64070147D01*
X205169853Y-64195646D01*
X205268456Y-64343216D01*
X205336376Y-64507188D01*
X205371000Y-64681259D01*
X205371000Y-64858741D01*
X205336376Y-65032812D01*
X205268456Y-65196784D01*
X205169853Y-65344354D01*
X205044354Y-65469853D01*
X204896784Y-65568456D01*
X204732812Y-65636376D01*
X204583512Y-65666073D01*
X204558742Y-65671000D01*
X204381258Y-65671000D01*
X204356488Y-65666073D01*
X204207188Y-65636376D01*
X204043216Y-65568456D01*
X203895646Y-65469853D01*
X203770147Y-65344354D01*
X203671544Y-65196784D01*
X203603624Y-65032812D01*
X203569000Y-64858741D01*
X203569000Y-64681259D01*
X203603624Y-64507188D01*
X203671544Y-64343216D01*
X203770147Y-64195646D01*
X203895646Y-64070147D01*
X204043216Y-63971544D01*
X204207188Y-63903624D01*
X204356488Y-63873927D01*
X204381258Y-63869000D01*
X204558742Y-63869000D01*
X204583512Y-63873927D01*
G37*
G36*
X207123512Y-63873927D02*
G01*
X207272812Y-63903624D01*
X207436784Y-63971544D01*
X207584354Y-64070147D01*
X207709853Y-64195646D01*
X207808456Y-64343216D01*
X207876376Y-64507188D01*
X207911000Y-64681259D01*
X207911000Y-64858741D01*
X207876376Y-65032812D01*
X207808456Y-65196784D01*
X207709853Y-65344354D01*
X207584354Y-65469853D01*
X207436784Y-65568456D01*
X207272812Y-65636376D01*
X207123512Y-65666073D01*
X207098742Y-65671000D01*
X206921258Y-65671000D01*
X206896488Y-65666073D01*
X206747188Y-65636376D01*
X206583216Y-65568456D01*
X206435646Y-65469853D01*
X206310147Y-65344354D01*
X206211544Y-65196784D01*
X206143624Y-65032812D01*
X206109000Y-64858741D01*
X206109000Y-64681259D01*
X206143624Y-64507188D01*
X206211544Y-64343216D01*
X206310147Y-64195646D01*
X206435646Y-64070147D01*
X206583216Y-63971544D01*
X206747188Y-63903624D01*
X206896488Y-63873927D01*
X206921258Y-63869000D01*
X207098742Y-63869000D01*
X207123512Y-63873927D01*
G37*
G36*
X176110225Y-63480983D02*
G01*
X176200890Y-63499017D01*
X176319364Y-63548091D01*
X176425988Y-63619335D01*
X176516665Y-63710012D01*
X176587910Y-63816638D01*
X176636983Y-63935110D01*
X176662000Y-64060881D01*
X176662000Y-64189119D01*
X176636983Y-64314890D01*
X176587909Y-64433364D01*
X176516665Y-64539988D01*
X176425988Y-64630665D01*
X176319364Y-64701909D01*
X176319363Y-64701910D01*
X176319362Y-64701910D01*
X176200890Y-64750983D01*
X176075119Y-64776000D01*
X175946881Y-64776000D01*
X175821110Y-64750983D01*
X175702638Y-64701910D01*
X175702637Y-64701910D01*
X175702636Y-64701909D01*
X175596012Y-64630665D01*
X175505335Y-64539988D01*
X175434091Y-64433364D01*
X175385017Y-64314890D01*
X175360000Y-64189119D01*
X175360000Y-64060881D01*
X175385017Y-63935110D01*
X175434090Y-63816638D01*
X175505335Y-63710012D01*
X175596012Y-63619335D01*
X175702636Y-63548091D01*
X175821110Y-63499017D01*
X175911775Y-63480983D01*
X175946881Y-63474000D01*
X176075119Y-63474000D01*
X176110225Y-63480983D01*
G37*
G36*
X172310225Y-63480983D02*
G01*
X172400890Y-63499017D01*
X172519364Y-63548091D01*
X172625988Y-63619335D01*
X172716665Y-63710012D01*
X172787910Y-63816638D01*
X172836983Y-63935110D01*
X172862000Y-64060881D01*
X172862000Y-64189119D01*
X172836983Y-64314890D01*
X172787909Y-64433364D01*
X172716665Y-64539988D01*
X172625988Y-64630665D01*
X172519364Y-64701909D01*
X172519363Y-64701910D01*
X172519362Y-64701910D01*
X172400890Y-64750983D01*
X172275119Y-64776000D01*
X172146881Y-64776000D01*
X172021110Y-64750983D01*
X171902638Y-64701910D01*
X171902637Y-64701910D01*
X171902636Y-64701909D01*
X171796012Y-64630665D01*
X171705335Y-64539988D01*
X171634091Y-64433364D01*
X171585017Y-64314890D01*
X171560000Y-64189119D01*
X171560000Y-64060881D01*
X171585017Y-63935110D01*
X171634090Y-63816638D01*
X171705335Y-63710012D01*
X171796012Y-63619335D01*
X171902636Y-63548091D01*
X172021110Y-63499017D01*
X172111775Y-63480983D01*
X172146881Y-63474000D01*
X172275119Y-63474000D01*
X172310225Y-63480983D01*
G37*
G36*
X178010225Y-62210983D02*
G01*
X178100890Y-62229017D01*
X178219364Y-62278091D01*
X178325988Y-62349335D01*
X178416665Y-62440012D01*
X178487909Y-62546636D01*
X178536983Y-62665110D01*
X178562000Y-62790882D01*
X178562000Y-62919118D01*
X178536983Y-63044890D01*
X178487909Y-63163364D01*
X178416665Y-63269988D01*
X178325988Y-63360665D01*
X178219364Y-63431909D01*
X178219363Y-63431910D01*
X178219362Y-63431910D01*
X178100890Y-63480983D01*
X177975119Y-63506000D01*
X177846881Y-63506000D01*
X177721110Y-63480983D01*
X177602638Y-63431910D01*
X177602637Y-63431910D01*
X177602636Y-63431909D01*
X177496012Y-63360665D01*
X177405335Y-63269988D01*
X177334091Y-63163364D01*
X177285017Y-63044890D01*
X177260000Y-62919118D01*
X177260000Y-62790882D01*
X177285017Y-62665110D01*
X177334091Y-62546636D01*
X177405335Y-62440012D01*
X177496012Y-62349335D01*
X177602636Y-62278091D01*
X177721110Y-62229017D01*
X177811775Y-62210983D01*
X177846881Y-62204000D01*
X177975119Y-62204000D01*
X178010225Y-62210983D01*
G37*
G36*
X174210225Y-62210983D02*
G01*
X174300890Y-62229017D01*
X174419364Y-62278091D01*
X174525988Y-62349335D01*
X174616665Y-62440012D01*
X174687909Y-62546636D01*
X174736983Y-62665110D01*
X174762000Y-62790882D01*
X174762000Y-62919118D01*
X174736983Y-63044890D01*
X174687909Y-63163364D01*
X174616665Y-63269988D01*
X174525988Y-63360665D01*
X174419364Y-63431909D01*
X174419363Y-63431910D01*
X174419362Y-63431910D01*
X174300890Y-63480983D01*
X174175119Y-63506000D01*
X174046881Y-63506000D01*
X173921110Y-63480983D01*
X173802638Y-63431910D01*
X173802637Y-63431910D01*
X173802636Y-63431909D01*
X173696012Y-63360665D01*
X173605335Y-63269988D01*
X173534091Y-63163364D01*
X173485017Y-63044890D01*
X173460000Y-62919118D01*
X173460000Y-62790882D01*
X173485017Y-62665110D01*
X173534091Y-62546636D01*
X173605335Y-62440012D01*
X173696012Y-62349335D01*
X173802636Y-62278091D01*
X173921110Y-62229017D01*
X174011775Y-62210983D01*
X174046881Y-62204000D01*
X174175119Y-62204000D01*
X174210225Y-62210983D01*
G37*
G36*
X207911000Y-63131000D02*
G01*
X206109000Y-63131000D01*
X206109000Y-61329000D01*
X207911000Y-61329000D01*
X207911000Y-63131000D01*
G37*
G36*
X204583512Y-61333927D02*
G01*
X204732812Y-61363624D01*
X204896784Y-61431544D01*
X205044354Y-61530147D01*
X205169853Y-61655646D01*
X205268456Y-61803216D01*
X205336376Y-61967188D01*
X205371000Y-62141259D01*
X205371000Y-62318741D01*
X205336376Y-62492812D01*
X205268456Y-62656784D01*
X205169853Y-62804354D01*
X205044354Y-62929853D01*
X204896784Y-63028456D01*
X204732812Y-63096376D01*
X204583512Y-63126073D01*
X204558742Y-63131000D01*
X204381258Y-63131000D01*
X204356488Y-63126073D01*
X204207188Y-63096376D01*
X204043216Y-63028456D01*
X203895646Y-62929853D01*
X203770147Y-62804354D01*
X203671544Y-62656784D01*
X203603624Y-62492812D01*
X203569000Y-62318741D01*
X203569000Y-62141259D01*
X203603624Y-61967188D01*
X203671544Y-61803216D01*
X203770147Y-61655646D01*
X203895646Y-61530147D01*
X204043216Y-61431544D01*
X204207188Y-61363624D01*
X204356488Y-61333927D01*
X204381258Y-61329000D01*
X204558742Y-61329000D01*
X204583512Y-61333927D01*
G37*
G36*
X172310225Y-60940983D02*
G01*
X172400890Y-60959017D01*
X172519364Y-61008091D01*
X172625988Y-61079335D01*
X172716665Y-61170012D01*
X172787910Y-61276638D01*
X172836983Y-61395110D01*
X172862000Y-61520881D01*
X172862000Y-61649119D01*
X172836983Y-61774890D01*
X172787909Y-61893364D01*
X172716665Y-61999988D01*
X172625988Y-62090665D01*
X172519364Y-62161909D01*
X172519363Y-62161910D01*
X172519362Y-62161910D01*
X172400890Y-62210983D01*
X172275119Y-62236000D01*
X172146881Y-62236000D01*
X172021110Y-62210983D01*
X171902638Y-62161910D01*
X171902637Y-62161910D01*
X171902636Y-62161909D01*
X171796012Y-62090665D01*
X171705335Y-61999988D01*
X171634091Y-61893364D01*
X171585017Y-61774890D01*
X171560000Y-61649119D01*
X171560000Y-61520881D01*
X171585017Y-61395110D01*
X171634090Y-61276638D01*
X171705335Y-61170012D01*
X171796012Y-61079335D01*
X171902636Y-61008091D01*
X172021110Y-60959017D01*
X172111775Y-60940983D01*
X172146881Y-60934000D01*
X172275119Y-60934000D01*
X172310225Y-60940983D01*
G37*
G36*
X176110225Y-60940983D02*
G01*
X176200890Y-60959017D01*
X176319364Y-61008091D01*
X176425988Y-61079335D01*
X176516665Y-61170012D01*
X176587910Y-61276638D01*
X176636983Y-61395110D01*
X176662000Y-61520881D01*
X176662000Y-61649119D01*
X176636983Y-61774890D01*
X176587909Y-61893364D01*
X176516665Y-61999988D01*
X176425988Y-62090665D01*
X176319364Y-62161909D01*
X176319363Y-62161910D01*
X176319362Y-62161910D01*
X176200890Y-62210983D01*
X176075119Y-62236000D01*
X175946881Y-62236000D01*
X175821110Y-62210983D01*
X175702638Y-62161910D01*
X175702637Y-62161910D01*
X175702636Y-62161909D01*
X175596012Y-62090665D01*
X175505335Y-61999988D01*
X175434091Y-61893364D01*
X175385017Y-61774890D01*
X175360000Y-61649119D01*
X175360000Y-61520881D01*
X175385017Y-61395110D01*
X175434090Y-61276638D01*
X175505335Y-61170012D01*
X175596012Y-61079335D01*
X175702636Y-61008091D01*
X175821110Y-60959017D01*
X175911775Y-60940983D01*
X175946881Y-60934000D01*
X176075119Y-60934000D01*
X176110225Y-60940983D01*
G37*
G36*
X178010225Y-59670983D02*
G01*
X178100890Y-59689017D01*
X178219364Y-59738091D01*
X178325988Y-59809335D01*
X178416665Y-59900012D01*
X178487909Y-60006636D01*
X178536983Y-60125110D01*
X178562000Y-60250882D01*
X178562000Y-60379118D01*
X178536983Y-60504890D01*
X178487909Y-60623364D01*
X178416665Y-60729988D01*
X178325988Y-60820665D01*
X178219364Y-60891909D01*
X178219363Y-60891910D01*
X178219362Y-60891910D01*
X178100890Y-60940983D01*
X177975119Y-60966000D01*
X177846881Y-60966000D01*
X177721110Y-60940983D01*
X177602638Y-60891910D01*
X177602637Y-60891910D01*
X177602636Y-60891909D01*
X177496012Y-60820665D01*
X177405335Y-60729988D01*
X177334091Y-60623364D01*
X177285017Y-60504890D01*
X177260000Y-60379118D01*
X177260000Y-60250882D01*
X177285017Y-60125110D01*
X177334091Y-60006636D01*
X177405335Y-59900012D01*
X177496012Y-59809335D01*
X177602636Y-59738091D01*
X177721110Y-59689017D01*
X177811775Y-59670983D01*
X177846881Y-59664000D01*
X177975119Y-59664000D01*
X178010225Y-59670983D01*
G37*
G36*
X174210225Y-59670983D02*
G01*
X174300890Y-59689017D01*
X174419364Y-59738091D01*
X174525988Y-59809335D01*
X174616665Y-59900012D01*
X174687909Y-60006636D01*
X174736983Y-60125110D01*
X174762000Y-60250882D01*
X174762000Y-60379118D01*
X174736983Y-60504890D01*
X174687909Y-60623364D01*
X174616665Y-60729988D01*
X174525988Y-60820665D01*
X174419364Y-60891909D01*
X174419363Y-60891910D01*
X174419362Y-60891910D01*
X174300890Y-60940983D01*
X174175119Y-60966000D01*
X174046881Y-60966000D01*
X173921110Y-60940983D01*
X173802638Y-60891910D01*
X173802637Y-60891910D01*
X173802636Y-60891909D01*
X173696012Y-60820665D01*
X173605335Y-60729988D01*
X173534091Y-60623364D01*
X173485017Y-60504890D01*
X173460000Y-60379118D01*
X173460000Y-60250882D01*
X173485017Y-60125110D01*
X173534091Y-60006636D01*
X173605335Y-59900012D01*
X173696012Y-59809335D01*
X173802636Y-59738091D01*
X173921110Y-59689017D01*
X174011775Y-59670983D01*
X174046881Y-59664000D01*
X174175119Y-59664000D01*
X174210225Y-59670983D01*
G37*
G36*
X172310225Y-58400983D02*
G01*
X172400890Y-58419017D01*
X172519364Y-58468091D01*
X172625988Y-58539335D01*
X172716665Y-58630012D01*
X172787909Y-58736636D01*
X172836983Y-58855110D01*
X172862000Y-58980882D01*
X172862000Y-59109118D01*
X172836983Y-59234890D01*
X172787909Y-59353364D01*
X172716665Y-59459988D01*
X172625988Y-59550665D01*
X172519364Y-59621909D01*
X172519363Y-59621910D01*
X172519362Y-59621910D01*
X172400890Y-59670983D01*
X172275119Y-59696000D01*
X172146881Y-59696000D01*
X172021110Y-59670983D01*
X171902638Y-59621910D01*
X171902637Y-59621910D01*
X171902636Y-59621909D01*
X171796012Y-59550665D01*
X171705335Y-59459988D01*
X171634091Y-59353364D01*
X171585017Y-59234890D01*
X171560000Y-59109118D01*
X171560000Y-58980882D01*
X171585017Y-58855110D01*
X171634091Y-58736636D01*
X171705335Y-58630012D01*
X171796012Y-58539335D01*
X171902636Y-58468091D01*
X172021110Y-58419017D01*
X172111775Y-58400983D01*
X172146881Y-58394000D01*
X172275119Y-58394000D01*
X172310225Y-58400983D01*
G37*
G36*
X176110225Y-58400983D02*
G01*
X176200890Y-58419017D01*
X176319364Y-58468091D01*
X176425988Y-58539335D01*
X176516665Y-58630012D01*
X176587909Y-58736636D01*
X176636983Y-58855110D01*
X176662000Y-58980882D01*
X176662000Y-59109118D01*
X176636983Y-59234890D01*
X176587909Y-59353364D01*
X176516665Y-59459988D01*
X176425988Y-59550665D01*
X176319364Y-59621909D01*
X176319363Y-59621910D01*
X176319362Y-59621910D01*
X176200890Y-59670983D01*
X176075119Y-59696000D01*
X175946881Y-59696000D01*
X175821110Y-59670983D01*
X175702638Y-59621910D01*
X175702637Y-59621910D01*
X175702636Y-59621909D01*
X175596012Y-59550665D01*
X175505335Y-59459988D01*
X175434091Y-59353364D01*
X175385017Y-59234890D01*
X175360000Y-59109118D01*
X175360000Y-58980882D01*
X175385017Y-58855110D01*
X175434091Y-58736636D01*
X175505335Y-58630012D01*
X175596012Y-58539335D01*
X175702636Y-58468091D01*
X175821110Y-58419017D01*
X175911775Y-58400983D01*
X175946881Y-58394000D01*
X176075119Y-58394000D01*
X176110225Y-58400983D01*
G37*
G36*
X178010225Y-57130983D02*
G01*
X178100890Y-57149017D01*
X178219364Y-57198091D01*
X178325988Y-57269335D01*
X178416665Y-57360012D01*
X178487909Y-57466636D01*
X178536983Y-57585110D01*
X178562000Y-57710882D01*
X178562000Y-57839118D01*
X178536983Y-57964890D01*
X178487909Y-58083364D01*
X178416665Y-58189988D01*
X178325988Y-58280665D01*
X178219364Y-58351909D01*
X178219363Y-58351910D01*
X178219362Y-58351910D01*
X178100890Y-58400983D01*
X177975119Y-58426000D01*
X177846881Y-58426000D01*
X177721110Y-58400983D01*
X177602638Y-58351910D01*
X177602637Y-58351910D01*
X177602636Y-58351909D01*
X177496012Y-58280665D01*
X177405335Y-58189988D01*
X177334091Y-58083364D01*
X177285017Y-57964890D01*
X177260000Y-57839118D01*
X177260000Y-57710882D01*
X177285017Y-57585110D01*
X177334091Y-57466636D01*
X177405335Y-57360012D01*
X177496012Y-57269335D01*
X177602636Y-57198091D01*
X177721110Y-57149017D01*
X177811775Y-57130983D01*
X177846881Y-57124000D01*
X177975119Y-57124000D01*
X178010225Y-57130983D01*
G37*
G36*
X174210225Y-57130983D02*
G01*
X174300890Y-57149017D01*
X174419364Y-57198091D01*
X174525988Y-57269335D01*
X174616665Y-57360012D01*
X174687909Y-57466636D01*
X174736983Y-57585110D01*
X174762000Y-57710882D01*
X174762000Y-57839118D01*
X174736983Y-57964890D01*
X174687909Y-58083364D01*
X174616665Y-58189988D01*
X174525988Y-58280665D01*
X174419364Y-58351909D01*
X174419363Y-58351910D01*
X174419362Y-58351910D01*
X174300890Y-58400983D01*
X174175119Y-58426000D01*
X174046881Y-58426000D01*
X173921110Y-58400983D01*
X173802638Y-58351910D01*
X173802637Y-58351910D01*
X173802636Y-58351909D01*
X173696012Y-58280665D01*
X173605335Y-58189988D01*
X173534091Y-58083364D01*
X173485017Y-57964890D01*
X173460000Y-57839118D01*
X173460000Y-57710882D01*
X173485017Y-57585110D01*
X173534091Y-57466636D01*
X173605335Y-57360012D01*
X173696012Y-57269335D01*
X173802636Y-57198091D01*
X173921110Y-57149017D01*
X174011775Y-57130983D01*
X174046881Y-57124000D01*
X174175119Y-57124000D01*
X174210225Y-57130983D01*
G37*
G36*
X176110225Y-55860983D02*
G01*
X176200890Y-55879017D01*
X176319364Y-55928091D01*
X176425988Y-55999335D01*
X176516665Y-56090012D01*
X176587909Y-56196636D01*
X176636983Y-56315110D01*
X176662000Y-56440882D01*
X176662000Y-56569118D01*
X176636983Y-56694890D01*
X176587909Y-56813364D01*
X176516665Y-56919988D01*
X176425988Y-57010665D01*
X176319364Y-57081909D01*
X176319363Y-57081910D01*
X176319362Y-57081910D01*
X176200890Y-57130983D01*
X176075119Y-57156000D01*
X175946881Y-57156000D01*
X175821110Y-57130983D01*
X175702638Y-57081910D01*
X175702637Y-57081910D01*
X175702636Y-57081909D01*
X175596012Y-57010665D01*
X175505335Y-56919988D01*
X175434091Y-56813364D01*
X175385017Y-56694890D01*
X175360000Y-56569118D01*
X175360000Y-56440882D01*
X175385017Y-56315110D01*
X175434091Y-56196636D01*
X175505335Y-56090012D01*
X175596012Y-55999335D01*
X175702636Y-55928091D01*
X175821110Y-55879017D01*
X175911775Y-55860983D01*
X175946881Y-55854000D01*
X176075119Y-55854000D01*
X176110225Y-55860983D01*
G37*
G36*
X172310225Y-55860983D02*
G01*
X172400890Y-55879017D01*
X172519364Y-55928091D01*
X172625988Y-55999335D01*
X172716665Y-56090012D01*
X172787909Y-56196636D01*
X172836983Y-56315110D01*
X172862000Y-56440882D01*
X172862000Y-56569118D01*
X172836983Y-56694890D01*
X172787909Y-56813364D01*
X172716665Y-56919988D01*
X172625988Y-57010665D01*
X172519364Y-57081909D01*
X172519363Y-57081910D01*
X172519362Y-57081910D01*
X172400890Y-57130983D01*
X172275119Y-57156000D01*
X172146881Y-57156000D01*
X172021110Y-57130983D01*
X171902638Y-57081910D01*
X171902637Y-57081910D01*
X171902636Y-57081909D01*
X171796012Y-57010665D01*
X171705335Y-56919988D01*
X171634091Y-56813364D01*
X171585017Y-56694890D01*
X171560000Y-56569118D01*
X171560000Y-56440882D01*
X171585017Y-56315110D01*
X171634091Y-56196636D01*
X171705335Y-56090012D01*
X171796012Y-55999335D01*
X171902636Y-55928091D01*
X172021110Y-55879017D01*
X172111775Y-55860983D01*
X172146881Y-55854000D01*
X172275119Y-55854000D01*
X172310225Y-55860983D01*
G37*
G36*
X178100890Y-54609017D02*
G01*
X178219364Y-54658091D01*
X178325988Y-54729335D01*
X178416665Y-54820012D01*
X178487909Y-54926636D01*
X178536983Y-55045110D01*
X178562000Y-55170882D01*
X178562000Y-55299118D01*
X178536983Y-55424890D01*
X178487909Y-55543364D01*
X178416665Y-55649988D01*
X178325988Y-55740665D01*
X178219364Y-55811909D01*
X178219363Y-55811910D01*
X178219362Y-55811910D01*
X178100890Y-55860983D01*
X177975119Y-55886000D01*
X177846881Y-55886000D01*
X177721110Y-55860983D01*
X177602638Y-55811910D01*
X177602637Y-55811910D01*
X177602636Y-55811909D01*
X177496012Y-55740665D01*
X177405335Y-55649988D01*
X177334091Y-55543364D01*
X177285017Y-55424890D01*
X177260000Y-55299118D01*
X177260000Y-55170882D01*
X177285017Y-55045110D01*
X177334091Y-54926636D01*
X177405335Y-54820012D01*
X177496012Y-54729335D01*
X177602636Y-54658091D01*
X177721110Y-54609017D01*
X177846881Y-54584000D01*
X177975119Y-54584000D01*
X178100890Y-54609017D01*
G37*
G36*
X174300890Y-54609017D02*
G01*
X174419364Y-54658091D01*
X174525988Y-54729335D01*
X174616665Y-54820012D01*
X174687909Y-54926636D01*
X174736983Y-55045110D01*
X174762000Y-55170882D01*
X174762000Y-55299118D01*
X174736983Y-55424890D01*
X174687909Y-55543364D01*
X174616665Y-55649988D01*
X174525988Y-55740665D01*
X174419364Y-55811909D01*
X174419363Y-55811910D01*
X174419362Y-55811910D01*
X174300890Y-55860983D01*
X174175119Y-55886000D01*
X174046881Y-55886000D01*
X173921110Y-55860983D01*
X173802638Y-55811910D01*
X173802637Y-55811910D01*
X173802636Y-55811909D01*
X173696012Y-55740665D01*
X173605335Y-55649988D01*
X173534091Y-55543364D01*
X173485017Y-55424890D01*
X173460000Y-55299118D01*
X173460000Y-55170882D01*
X173485017Y-55045110D01*
X173534091Y-54926636D01*
X173605335Y-54820012D01*
X173696012Y-54729335D01*
X173802636Y-54658091D01*
X173921110Y-54609017D01*
X174046881Y-54584000D01*
X174175119Y-54584000D01*
X174300890Y-54609017D01*
G37*
G36*
X175423241Y-48849760D02*
G01*
X175687305Y-48959139D01*
X175924958Y-49117934D01*
X176127066Y-49320042D01*
X176285861Y-49557695D01*
X176395240Y-49821759D01*
X176451000Y-50102088D01*
X176451000Y-50387912D01*
X176395240Y-50668241D01*
X176285861Y-50932305D01*
X176127066Y-51169958D01*
X175924958Y-51372066D01*
X175687305Y-51530861D01*
X175423241Y-51640240D01*
X175142912Y-51696000D01*
X174857088Y-51696000D01*
X174576759Y-51640240D01*
X174312695Y-51530861D01*
X174075042Y-51372066D01*
X173872934Y-51169958D01*
X173714139Y-50932305D01*
X173604760Y-50668241D01*
X173549000Y-50387912D01*
X173549000Y-50102088D01*
X173604760Y-49821759D01*
X173714139Y-49557695D01*
X173872934Y-49320042D01*
X174075042Y-49117934D01*
X174312695Y-48959139D01*
X174576759Y-48849760D01*
X174857088Y-48794000D01*
X175142912Y-48794000D01*
X175423241Y-48849760D01*
G37*
G36*
X186803512Y-40378927D02*
G01*
X186952812Y-40408624D01*
X187116784Y-40476544D01*
X187264354Y-40575147D01*
X187389853Y-40700646D01*
X187488456Y-40848216D01*
X187556376Y-41012188D01*
X187591000Y-41186259D01*
X187591000Y-41363741D01*
X187556376Y-41537812D01*
X187488456Y-41701784D01*
X187389853Y-41849354D01*
X187264354Y-41974853D01*
X187116784Y-42073456D01*
X186952812Y-42141376D01*
X186803512Y-42171073D01*
X186778742Y-42176000D01*
X186601258Y-42176000D01*
X186576488Y-42171073D01*
X186427188Y-42141376D01*
X186263216Y-42073456D01*
X186115646Y-41974853D01*
X185990147Y-41849354D01*
X185891544Y-41701784D01*
X185823624Y-41537812D01*
X185789000Y-41363741D01*
X185789000Y-41186259D01*
X185823624Y-41012188D01*
X185891544Y-40848216D01*
X185990147Y-40700646D01*
X186115646Y-40575147D01*
X186263216Y-40476544D01*
X186427188Y-40408624D01*
X186576488Y-40378927D01*
X186601258Y-40374000D01*
X186778742Y-40374000D01*
X186803512Y-40378927D01*
G37*
G36*
X192671000Y-42176000D02*
G01*
X190869000Y-42176000D01*
X190869000Y-40374000D01*
X192671000Y-40374000D01*
X192671000Y-42176000D01*
G37*
G36*
X184263512Y-40378927D02*
G01*
X184412812Y-40408624D01*
X184576784Y-40476544D01*
X184724354Y-40575147D01*
X184849853Y-40700646D01*
X184948456Y-40848216D01*
X185016376Y-41012188D01*
X185051000Y-41186259D01*
X185051000Y-41363741D01*
X185016376Y-41537812D01*
X184948456Y-41701784D01*
X184849853Y-41849354D01*
X184724354Y-41974853D01*
X184576784Y-42073456D01*
X184412812Y-42141376D01*
X184263512Y-42171073D01*
X184238742Y-42176000D01*
X184061258Y-42176000D01*
X184036488Y-42171073D01*
X183887188Y-42141376D01*
X183723216Y-42073456D01*
X183575646Y-41974853D01*
X183450147Y-41849354D01*
X183351544Y-41701784D01*
X183283624Y-41537812D01*
X183249000Y-41363741D01*
X183249000Y-41186259D01*
X183283624Y-41012188D01*
X183351544Y-40848216D01*
X183450147Y-40700646D01*
X183575646Y-40575147D01*
X183723216Y-40476544D01*
X183887188Y-40408624D01*
X184036488Y-40378927D01*
X184061258Y-40374000D01*
X184238742Y-40374000D01*
X184263512Y-40378927D01*
G37*
G36*
X174103512Y-40378927D02*
G01*
X174252812Y-40408624D01*
X174416784Y-40476544D01*
X174564354Y-40575147D01*
X174689853Y-40700646D01*
X174788456Y-40848216D01*
X174856376Y-41012188D01*
X174891000Y-41186259D01*
X174891000Y-41363741D01*
X174856376Y-41537812D01*
X174788456Y-41701784D01*
X174689853Y-41849354D01*
X174564354Y-41974853D01*
X174416784Y-42073456D01*
X174252812Y-42141376D01*
X174103512Y-42171073D01*
X174078742Y-42176000D01*
X173901258Y-42176000D01*
X173876488Y-42171073D01*
X173727188Y-42141376D01*
X173563216Y-42073456D01*
X173415646Y-41974853D01*
X173290147Y-41849354D01*
X173191544Y-41701784D01*
X173123624Y-41537812D01*
X173089000Y-41363741D01*
X173089000Y-41186259D01*
X173123624Y-41012188D01*
X173191544Y-40848216D01*
X173290147Y-40700646D01*
X173415646Y-40575147D01*
X173563216Y-40476544D01*
X173727188Y-40408624D01*
X173876488Y-40378927D01*
X173901258Y-40374000D01*
X174078742Y-40374000D01*
X174103512Y-40378927D01*
G37*
G36*
X181723512Y-40378927D02*
G01*
X181872812Y-40408624D01*
X182036784Y-40476544D01*
X182184354Y-40575147D01*
X182309853Y-40700646D01*
X182408456Y-40848216D01*
X182476376Y-41012188D01*
X182511000Y-41186259D01*
X182511000Y-41363741D01*
X182476376Y-41537812D01*
X182408456Y-41701784D01*
X182309853Y-41849354D01*
X182184354Y-41974853D01*
X182036784Y-42073456D01*
X181872812Y-42141376D01*
X181723512Y-42171073D01*
X181698742Y-42176000D01*
X181521258Y-42176000D01*
X181496488Y-42171073D01*
X181347188Y-42141376D01*
X181183216Y-42073456D01*
X181035646Y-41974853D01*
X180910147Y-41849354D01*
X180811544Y-41701784D01*
X180743624Y-41537812D01*
X180709000Y-41363741D01*
X180709000Y-41186259D01*
X180743624Y-41012188D01*
X180811544Y-40848216D01*
X180910147Y-40700646D01*
X181035646Y-40575147D01*
X181183216Y-40476544D01*
X181347188Y-40408624D01*
X181496488Y-40378927D01*
X181521258Y-40374000D01*
X181698742Y-40374000D01*
X181723512Y-40378927D01*
G37*
G36*
X176643512Y-40378927D02*
G01*
X176792812Y-40408624D01*
X176956784Y-40476544D01*
X177104354Y-40575147D01*
X177229853Y-40700646D01*
X177328456Y-40848216D01*
X177396376Y-41012188D01*
X177431000Y-41186259D01*
X177431000Y-41363741D01*
X177396376Y-41537812D01*
X177328456Y-41701784D01*
X177229853Y-41849354D01*
X177104354Y-41974853D01*
X176956784Y-42073456D01*
X176792812Y-42141376D01*
X176643512Y-42171073D01*
X176618742Y-42176000D01*
X176441258Y-42176000D01*
X176416488Y-42171073D01*
X176267188Y-42141376D01*
X176103216Y-42073456D01*
X175955646Y-41974853D01*
X175830147Y-41849354D01*
X175731544Y-41701784D01*
X175663624Y-41537812D01*
X175629000Y-41363741D01*
X175629000Y-41186259D01*
X175663624Y-41012188D01*
X175731544Y-40848216D01*
X175830147Y-40700646D01*
X175955646Y-40575147D01*
X176103216Y-40476544D01*
X176267188Y-40408624D01*
X176416488Y-40378927D01*
X176441258Y-40374000D01*
X176618742Y-40374000D01*
X176643512Y-40378927D01*
G37*
G36*
X179183512Y-40378927D02*
G01*
X179332812Y-40408624D01*
X179496784Y-40476544D01*
X179644354Y-40575147D01*
X179769853Y-40700646D01*
X179868456Y-40848216D01*
X179936376Y-41012188D01*
X179971000Y-41186259D01*
X179971000Y-41363741D01*
X179936376Y-41537812D01*
X179868456Y-41701784D01*
X179769853Y-41849354D01*
X179644354Y-41974853D01*
X179496784Y-42073456D01*
X179332812Y-42141376D01*
X179183512Y-42171073D01*
X179158742Y-42176000D01*
X178981258Y-42176000D01*
X178956488Y-42171073D01*
X178807188Y-42141376D01*
X178643216Y-42073456D01*
X178495646Y-41974853D01*
X178370147Y-41849354D01*
X178271544Y-41701784D01*
X178203624Y-41537812D01*
X178169000Y-41363741D01*
X178169000Y-41186259D01*
X178203624Y-41012188D01*
X178271544Y-40848216D01*
X178370147Y-40700646D01*
X178495646Y-40575147D01*
X178643216Y-40476544D01*
X178807188Y-40408624D01*
X178956488Y-40378927D01*
X178981258Y-40374000D01*
X179158742Y-40374000D01*
X179183512Y-40378927D01*
G37*
G36*
X189343512Y-40378927D02*
G01*
X189492812Y-40408624D01*
X189656784Y-40476544D01*
X189804354Y-40575147D01*
X189929853Y-40700646D01*
X190028456Y-40848216D01*
X190096376Y-41012188D01*
X190131000Y-41186259D01*
X190131000Y-41363741D01*
X190096376Y-41537812D01*
X190028456Y-41701784D01*
X189929853Y-41849354D01*
X189804354Y-41974853D01*
X189656784Y-42073456D01*
X189492812Y-42141376D01*
X189343512Y-42171073D01*
X189318742Y-42176000D01*
X189141258Y-42176000D01*
X189116488Y-42171073D01*
X188967188Y-42141376D01*
X188803216Y-42073456D01*
X188655646Y-41974853D01*
X188530147Y-41849354D01*
X188431544Y-41701784D01*
X188363624Y-41537812D01*
X188329000Y-41363741D01*
X188329000Y-41186259D01*
X188363624Y-41012188D01*
X188431544Y-40848216D01*
X188530147Y-40700646D01*
X188655646Y-40575147D01*
X188803216Y-40476544D01*
X188967188Y-40408624D01*
X189116488Y-40378927D01*
X189141258Y-40374000D01*
X189318742Y-40374000D01*
X189343512Y-40378927D01*
G37*
G36*
X174103512Y-37838927D02*
G01*
X174252812Y-37868624D01*
X174416784Y-37936544D01*
X174564354Y-38035147D01*
X174689853Y-38160646D01*
X174788456Y-38308216D01*
X174856376Y-38472188D01*
X174891000Y-38646259D01*
X174891000Y-38823741D01*
X174856376Y-38997812D01*
X174788456Y-39161784D01*
X174689853Y-39309354D01*
X174564354Y-39434853D01*
X174416784Y-39533456D01*
X174252812Y-39601376D01*
X174103512Y-39631073D01*
X174078742Y-39636000D01*
X173901258Y-39636000D01*
X173876488Y-39631073D01*
X173727188Y-39601376D01*
X173563216Y-39533456D01*
X173415646Y-39434853D01*
X173290147Y-39309354D01*
X173191544Y-39161784D01*
X173123624Y-38997812D01*
X173089000Y-38823741D01*
X173089000Y-38646259D01*
X173123624Y-38472188D01*
X173191544Y-38308216D01*
X173290147Y-38160646D01*
X173415646Y-38035147D01*
X173563216Y-37936544D01*
X173727188Y-37868624D01*
X173876488Y-37838927D01*
X173901258Y-37834000D01*
X174078742Y-37834000D01*
X174103512Y-37838927D01*
G37*
G36*
X189343512Y-37838927D02*
G01*
X189492812Y-37868624D01*
X189656784Y-37936544D01*
X189804354Y-38035147D01*
X189929853Y-38160646D01*
X190028456Y-38308216D01*
X190096376Y-38472188D01*
X190131000Y-38646259D01*
X190131000Y-38823741D01*
X190096376Y-38997812D01*
X190028456Y-39161784D01*
X189929853Y-39309354D01*
X189804354Y-39434853D01*
X189656784Y-39533456D01*
X189492812Y-39601376D01*
X189343512Y-39631073D01*
X189318742Y-39636000D01*
X189141258Y-39636000D01*
X189116488Y-39631073D01*
X188967188Y-39601376D01*
X188803216Y-39533456D01*
X188655646Y-39434853D01*
X188530147Y-39309354D01*
X188431544Y-39161784D01*
X188363624Y-38997812D01*
X188329000Y-38823741D01*
X188329000Y-38646259D01*
X188363624Y-38472188D01*
X188431544Y-38308216D01*
X188530147Y-38160646D01*
X188655646Y-38035147D01*
X188803216Y-37936544D01*
X188967188Y-37868624D01*
X189116488Y-37838927D01*
X189141258Y-37834000D01*
X189318742Y-37834000D01*
X189343512Y-37838927D01*
G37*
G36*
X186803512Y-37838927D02*
G01*
X186952812Y-37868624D01*
X187116784Y-37936544D01*
X187264354Y-38035147D01*
X187389853Y-38160646D01*
X187488456Y-38308216D01*
X187556376Y-38472188D01*
X187591000Y-38646259D01*
X187591000Y-38823741D01*
X187556376Y-38997812D01*
X187488456Y-39161784D01*
X187389853Y-39309354D01*
X187264354Y-39434853D01*
X187116784Y-39533456D01*
X186952812Y-39601376D01*
X186803512Y-39631073D01*
X186778742Y-39636000D01*
X186601258Y-39636000D01*
X186576488Y-39631073D01*
X186427188Y-39601376D01*
X186263216Y-39533456D01*
X186115646Y-39434853D01*
X185990147Y-39309354D01*
X185891544Y-39161784D01*
X185823624Y-38997812D01*
X185789000Y-38823741D01*
X185789000Y-38646259D01*
X185823624Y-38472188D01*
X185891544Y-38308216D01*
X185990147Y-38160646D01*
X186115646Y-38035147D01*
X186263216Y-37936544D01*
X186427188Y-37868624D01*
X186576488Y-37838927D01*
X186601258Y-37834000D01*
X186778742Y-37834000D01*
X186803512Y-37838927D01*
G37*
G36*
X184263512Y-37838927D02*
G01*
X184412812Y-37868624D01*
X184576784Y-37936544D01*
X184724354Y-38035147D01*
X184849853Y-38160646D01*
X184948456Y-38308216D01*
X185016376Y-38472188D01*
X185051000Y-38646259D01*
X185051000Y-38823741D01*
X185016376Y-38997812D01*
X184948456Y-39161784D01*
X184849853Y-39309354D01*
X184724354Y-39434853D01*
X184576784Y-39533456D01*
X184412812Y-39601376D01*
X184263512Y-39631073D01*
X184238742Y-39636000D01*
X184061258Y-39636000D01*
X184036488Y-39631073D01*
X183887188Y-39601376D01*
X183723216Y-39533456D01*
X183575646Y-39434853D01*
X183450147Y-39309354D01*
X183351544Y-39161784D01*
X183283624Y-38997812D01*
X183249000Y-38823741D01*
X183249000Y-38646259D01*
X183283624Y-38472188D01*
X183351544Y-38308216D01*
X183450147Y-38160646D01*
X183575646Y-38035147D01*
X183723216Y-37936544D01*
X183887188Y-37868624D01*
X184036488Y-37838927D01*
X184061258Y-37834000D01*
X184238742Y-37834000D01*
X184263512Y-37838927D01*
G37*
G36*
X191883512Y-37838927D02*
G01*
X192032812Y-37868624D01*
X192196784Y-37936544D01*
X192344354Y-38035147D01*
X192469853Y-38160646D01*
X192568456Y-38308216D01*
X192636376Y-38472188D01*
X192671000Y-38646259D01*
X192671000Y-38823741D01*
X192636376Y-38997812D01*
X192568456Y-39161784D01*
X192469853Y-39309354D01*
X192344354Y-39434853D01*
X192196784Y-39533456D01*
X192032812Y-39601376D01*
X191883512Y-39631073D01*
X191858742Y-39636000D01*
X191681258Y-39636000D01*
X191656488Y-39631073D01*
X191507188Y-39601376D01*
X191343216Y-39533456D01*
X191195646Y-39434853D01*
X191070147Y-39309354D01*
X190971544Y-39161784D01*
X190903624Y-38997812D01*
X190869000Y-38823741D01*
X190869000Y-38646259D01*
X190903624Y-38472188D01*
X190971544Y-38308216D01*
X191070147Y-38160646D01*
X191195646Y-38035147D01*
X191343216Y-37936544D01*
X191507188Y-37868624D01*
X191656488Y-37838927D01*
X191681258Y-37834000D01*
X191858742Y-37834000D01*
X191883512Y-37838927D01*
G37*
G36*
X181723512Y-37838927D02*
G01*
X181872812Y-37868624D01*
X182036784Y-37936544D01*
X182184354Y-38035147D01*
X182309853Y-38160646D01*
X182408456Y-38308216D01*
X182476376Y-38472188D01*
X182511000Y-38646259D01*
X182511000Y-38823741D01*
X182476376Y-38997812D01*
X182408456Y-39161784D01*
X182309853Y-39309354D01*
X182184354Y-39434853D01*
X182036784Y-39533456D01*
X181872812Y-39601376D01*
X181723512Y-39631073D01*
X181698742Y-39636000D01*
X181521258Y-39636000D01*
X181496488Y-39631073D01*
X181347188Y-39601376D01*
X181183216Y-39533456D01*
X181035646Y-39434853D01*
X180910147Y-39309354D01*
X180811544Y-39161784D01*
X180743624Y-38997812D01*
X180709000Y-38823741D01*
X180709000Y-38646259D01*
X180743624Y-38472188D01*
X180811544Y-38308216D01*
X180910147Y-38160646D01*
X181035646Y-38035147D01*
X181183216Y-37936544D01*
X181347188Y-37868624D01*
X181496488Y-37838927D01*
X181521258Y-37834000D01*
X181698742Y-37834000D01*
X181723512Y-37838927D01*
G37*
G36*
X179183512Y-37838927D02*
G01*
X179332812Y-37868624D01*
X179496784Y-37936544D01*
X179644354Y-38035147D01*
X179769853Y-38160646D01*
X179868456Y-38308216D01*
X179936376Y-38472188D01*
X179971000Y-38646259D01*
X179971000Y-38823741D01*
X179936376Y-38997812D01*
X179868456Y-39161784D01*
X179769853Y-39309354D01*
X179644354Y-39434853D01*
X179496784Y-39533456D01*
X179332812Y-39601376D01*
X179183512Y-39631073D01*
X179158742Y-39636000D01*
X178981258Y-39636000D01*
X178956488Y-39631073D01*
X178807188Y-39601376D01*
X178643216Y-39533456D01*
X178495646Y-39434853D01*
X178370147Y-39309354D01*
X178271544Y-39161784D01*
X178203624Y-38997812D01*
X178169000Y-38823741D01*
X178169000Y-38646259D01*
X178203624Y-38472188D01*
X178271544Y-38308216D01*
X178370147Y-38160646D01*
X178495646Y-38035147D01*
X178643216Y-37936544D01*
X178807188Y-37868624D01*
X178956488Y-37838927D01*
X178981258Y-37834000D01*
X179158742Y-37834000D01*
X179183512Y-37838927D01*
G37*
G36*
X176643512Y-37838927D02*
G01*
X176792812Y-37868624D01*
X176956784Y-37936544D01*
X177104354Y-38035147D01*
X177229853Y-38160646D01*
X177328456Y-38308216D01*
X177396376Y-38472188D01*
X177431000Y-38646259D01*
X177431000Y-38823741D01*
X177396376Y-38997812D01*
X177328456Y-39161784D01*
X177229853Y-39309354D01*
X177104354Y-39434853D01*
X176956784Y-39533456D01*
X176792812Y-39601376D01*
X176643512Y-39631073D01*
X176618742Y-39636000D01*
X176441258Y-39636000D01*
X176416488Y-39631073D01*
X176267188Y-39601376D01*
X176103216Y-39533456D01*
X175955646Y-39434853D01*
X175830147Y-39309354D01*
X175731544Y-39161784D01*
X175663624Y-38997812D01*
X175629000Y-38823741D01*
X175629000Y-38646259D01*
X175663624Y-38472188D01*
X175731544Y-38308216D01*
X175830147Y-38160646D01*
X175955646Y-38035147D01*
X176103216Y-37936544D01*
X176267188Y-37868624D01*
X176416488Y-37838927D01*
X176441258Y-37834000D01*
X176618742Y-37834000D01*
X176643512Y-37838927D01*
G37*
M02*
