G04 #@! TF.GenerationSoftware,KiCad,Pcbnew,(5.1.5)-3*
G04 #@! TF.CreationDate,2020-04-25T00:27:07+01:00*
G04 #@! TF.ProjectId,SCSIConnector,53435349-436f-46e6-9e65-63746f722e6b,rev?*
G04 #@! TF.SameCoordinates,Original*
G04 #@! TF.FileFunction,Copper,L1,Top*
G04 #@! TF.FilePolarity,Positive*
%FSLAX46Y46*%
G04 Gerber Fmt 4.6, Leading zero omitted, Abs format (unit mm)*
G04 Created by KiCad (PCBNEW (5.1.5)-3) date 2020-04-25 00:27:07*
%MOMM*%
%LPD*%
G04 APERTURE LIST*
%ADD10C,1.200000*%
%ADD11R,1.200000X1.200000*%
%ADD12C,2.800000*%
%ADD13O,1.700000X1.700000*%
%ADD14R,1.700000X1.700000*%
%ADD15C,2.900000*%
%ADD16O,1.400000X1.400000*%
%ADD17C,1.400000*%
%ADD18C,0.800000*%
%ADD19C,0.250000*%
%ADD20C,1.000000*%
%ADD21C,0.254000*%
G04 APERTURE END LIST*
D10*
X172211000Y-56505000D03*
X174111000Y-55235000D03*
X176011000Y-56505000D03*
X177911000Y-55235000D03*
X172211000Y-59045000D03*
X174111000Y-57775000D03*
X176011000Y-59045000D03*
X177911000Y-57775000D03*
X172211000Y-61585000D03*
X174111000Y-60315000D03*
X176011000Y-61585000D03*
X177911000Y-60315000D03*
X172211000Y-64125000D03*
X174111000Y-62855000D03*
X176011000Y-64125000D03*
X177911000Y-62855000D03*
X172211000Y-66665000D03*
X174111000Y-65395000D03*
X176011000Y-66665000D03*
X177911000Y-65395000D03*
X172211000Y-69205000D03*
X174111000Y-67935000D03*
X176011000Y-69205000D03*
X177911000Y-67935000D03*
X172211000Y-71745000D03*
X174111000Y-70475000D03*
X176011000Y-71745000D03*
X177911000Y-70475000D03*
X172211000Y-74285000D03*
X174111000Y-73015000D03*
X176011000Y-74285000D03*
X177911000Y-73015000D03*
X172211000Y-76825000D03*
X174111000Y-75555000D03*
X176011000Y-76825000D03*
X177911000Y-75555000D03*
X172211000Y-79365000D03*
X174111000Y-78095000D03*
X176011000Y-79365000D03*
X177911000Y-78095000D03*
X172211000Y-81905000D03*
X174111000Y-80635000D03*
X176011000Y-81905000D03*
X177911000Y-80635000D03*
X172211000Y-84445000D03*
X174111000Y-83175000D03*
X176011000Y-84445000D03*
X177911000Y-83175000D03*
X172211000Y-86985000D03*
X174111000Y-85715000D03*
X176011000Y-86985000D03*
X177911000Y-85715000D03*
X172211000Y-89525000D03*
X174111000Y-88255000D03*
X176011000Y-89525000D03*
X177911000Y-88255000D03*
X172211000Y-92065000D03*
X174111000Y-90795000D03*
X176011000Y-92065000D03*
X177911000Y-90795000D03*
X172211000Y-94605000D03*
X174111000Y-93335000D03*
X176011000Y-94605000D03*
X177911000Y-93335000D03*
X172211000Y-97145000D03*
X174111000Y-95875000D03*
X176011000Y-97145000D03*
X177911000Y-95875000D03*
X172211000Y-99685000D03*
X174111000Y-98415000D03*
X176011000Y-99685000D03*
X177911000Y-98415000D03*
X172211000Y-102225000D03*
X174111000Y-100955000D03*
X176011000Y-102225000D03*
X177911000Y-100955000D03*
D11*
X172211000Y-104765000D03*
D10*
X174111000Y-103495000D03*
X176011000Y-104765000D03*
X177911000Y-103495000D03*
D12*
X175000000Y-109755000D03*
X175000000Y-50245000D03*
D13*
X204470000Y-123190000D03*
X207010000Y-123190000D03*
X204470000Y-120650000D03*
X207010000Y-120650000D03*
X204470000Y-118110000D03*
X207010000Y-118110000D03*
X204470000Y-115570000D03*
X207010000Y-115570000D03*
X204470000Y-113030000D03*
X207010000Y-113030000D03*
X204470000Y-110490000D03*
X207010000Y-110490000D03*
X204470000Y-107950000D03*
X207010000Y-107950000D03*
X204470000Y-105410000D03*
X207010000Y-105410000D03*
X204470000Y-102870000D03*
X207010000Y-102870000D03*
X204470000Y-100330000D03*
X207010000Y-100330000D03*
X204470000Y-97790000D03*
X207010000Y-97790000D03*
X204470000Y-95250000D03*
X207010000Y-95250000D03*
X204470000Y-92710000D03*
X207010000Y-92710000D03*
X204470000Y-90170000D03*
X207010000Y-90170000D03*
X204470000Y-87630000D03*
X207010000Y-87630000D03*
X204470000Y-85090000D03*
X207010000Y-85090000D03*
X204470000Y-82550000D03*
X207010000Y-82550000D03*
X204470000Y-80010000D03*
X207010000Y-80010000D03*
X204470000Y-77470000D03*
X207010000Y-77470000D03*
X204470000Y-74930000D03*
X207010000Y-74930000D03*
X204470000Y-72390000D03*
X207010000Y-72390000D03*
X204470000Y-69850000D03*
X207010000Y-69850000D03*
X204470000Y-67310000D03*
X207010000Y-67310000D03*
X204470000Y-64770000D03*
X207010000Y-64770000D03*
X204470000Y-62230000D03*
D14*
X207010000Y-62230000D03*
D15*
X190500000Y-119380000D03*
X185420000Y-119380000D03*
X180340000Y-119380000D03*
X175260000Y-119380000D03*
D16*
X182245000Y-106045000D03*
D17*
X182245000Y-100965000D03*
D16*
X185420000Y-106045000D03*
D17*
X185420000Y-100965000D03*
D16*
X188595000Y-106045000D03*
D17*
X188595000Y-100965000D03*
D16*
X191770000Y-106045000D03*
D17*
X191770000Y-100965000D03*
D13*
X173990000Y-38735000D03*
X173990000Y-41275000D03*
X176530000Y-38735000D03*
X176530000Y-41275000D03*
X179070000Y-38735000D03*
X179070000Y-41275000D03*
X181610000Y-38735000D03*
X181610000Y-41275000D03*
X184150000Y-38735000D03*
X184150000Y-41275000D03*
X186690000Y-38735000D03*
X186690000Y-41275000D03*
X189230000Y-38735000D03*
X189230000Y-41275000D03*
X191770000Y-38735000D03*
D14*
X191770000Y-41275000D03*
D18*
X190500000Y-47625000D03*
X187960000Y-47625000D03*
X185420000Y-47625000D03*
X182880000Y-47625000D03*
X180340000Y-47625000D03*
X176530000Y-47625000D03*
X182245000Y-103505000D03*
X185420000Y-103505000D03*
X188595000Y-103505000D03*
X191770000Y-103505000D03*
X182245000Y-111760000D03*
X185420000Y-111760000D03*
X200660000Y-121920000D03*
X200660000Y-119380000D03*
X200660000Y-116840000D03*
X200660000Y-109220000D03*
X200660000Y-106680000D03*
X200660000Y-102870000D03*
X191770000Y-111760000D03*
X200660000Y-111760000D03*
X200660000Y-114300000D03*
X200660000Y-81280000D03*
X200660000Y-78740000D03*
X200660000Y-76200000D03*
X200660000Y-73660000D03*
X200660000Y-71120000D03*
X200660000Y-68580000D03*
X200660000Y-66040000D03*
X200660000Y-63500000D03*
X182245000Y-73025000D03*
X182245000Y-75565000D03*
X182245000Y-78105000D03*
X182245000Y-80645000D03*
X182245000Y-83185000D03*
X182245000Y-85725000D03*
X182245000Y-88265000D03*
X182245000Y-90805000D03*
X187960000Y-121920000D03*
X182880000Y-121920000D03*
X177800000Y-121920000D03*
D19*
X176011000Y-63276472D02*
X176011000Y-64125000D01*
X173990000Y-38735000D02*
X171285999Y-41439001D01*
X174664527Y-61929999D02*
X176011000Y-63276472D01*
X171285999Y-59489001D02*
X172456997Y-60659999D01*
X171285999Y-41439001D02*
X171285999Y-59489001D01*
X173086997Y-60659999D02*
X174356997Y-61929999D01*
X172456997Y-60659999D02*
X173086997Y-60659999D01*
X174356997Y-61929999D02*
X174664527Y-61929999D01*
D20*
X205459999Y-60679999D02*
X207010000Y-62230000D01*
X182626001Y-60679999D02*
X205459999Y-60679999D01*
X177911000Y-65395000D02*
X182626001Y-60679999D01*
D19*
X188929999Y-92409999D02*
X194310000Y-97790000D01*
X172211000Y-92065000D02*
X174615000Y-92065000D01*
X175540001Y-92990001D02*
X176886997Y-92990001D01*
X174615000Y-92065000D02*
X175540001Y-92990001D01*
X176886997Y-92990001D02*
X177466999Y-92409999D01*
X177466999Y-92409999D02*
X188929999Y-92409999D01*
X204470000Y-123190000D02*
X195580000Y-123190000D01*
X195580000Y-123190000D02*
X194310000Y-121920000D01*
X194310000Y-97790000D02*
X194310000Y-121920000D01*
X176886997Y-91161997D02*
X177445001Y-91720001D01*
X176886997Y-91139999D02*
X176886997Y-91161997D01*
X190145001Y-91720001D02*
X194945000Y-96520000D01*
X174111000Y-90795000D02*
X175248590Y-90795000D01*
X175248590Y-90795000D02*
X175593589Y-91139999D01*
X175593589Y-91139999D02*
X176886997Y-91139999D01*
X177445001Y-91720001D02*
X190145001Y-91720001D01*
X204470000Y-120650000D02*
X196215000Y-120650000D01*
X196215000Y-120650000D02*
X194945000Y-119380000D01*
X194945000Y-96520000D02*
X194945000Y-119380000D01*
X174615000Y-89525000D02*
X172211000Y-89525000D01*
X177466999Y-89869999D02*
X176886997Y-90450001D01*
X190199999Y-89869999D02*
X177466999Y-89869999D01*
X175540001Y-90450001D02*
X174615000Y-89525000D01*
X176886997Y-90450001D02*
X175540001Y-90450001D01*
X195580000Y-95250000D02*
X190199999Y-89869999D01*
X204470000Y-118110000D02*
X196850000Y-118110000D01*
X196850000Y-118110000D02*
X195580000Y-116840000D01*
X195580000Y-116840000D02*
X195580000Y-95250000D01*
X176886997Y-88599999D02*
X175594999Y-88599999D01*
X175250000Y-88255000D02*
X174111000Y-88255000D01*
X175594999Y-88599999D02*
X175250000Y-88255000D01*
X177466999Y-89180001D02*
X176886997Y-88599999D01*
X177466999Y-89180001D02*
X191415001Y-89180001D01*
X191415001Y-89180001D02*
X196215000Y-93980000D01*
X204470000Y-115570000D02*
X197485000Y-115570000D01*
X197485000Y-115570000D02*
X196215000Y-114300000D01*
X196215000Y-114300000D02*
X196215000Y-93980000D01*
X176455001Y-87910001D02*
X175566999Y-87910001D01*
X174641998Y-86985000D02*
X172211000Y-86985000D01*
X177035003Y-87329999D02*
X176455001Y-87910001D01*
X175566999Y-87910001D02*
X174641998Y-86985000D01*
X191469999Y-87329999D02*
X196850000Y-92710000D01*
X177035003Y-87329999D02*
X191469999Y-87329999D01*
X204470000Y-113030000D02*
X198120000Y-113030000D01*
X198120000Y-113030000D02*
X196850000Y-111760000D01*
X196850000Y-111760000D02*
X196850000Y-92710000D01*
X174111000Y-85715000D02*
X175250000Y-85715000D01*
X175250000Y-85715000D02*
X175594999Y-86059999D01*
X175594999Y-86059999D02*
X176886997Y-86059999D01*
X176886997Y-86059999D02*
X177466999Y-86640001D01*
X177466999Y-86640001D02*
X192685001Y-86640001D01*
X204470000Y-110490000D02*
X198755000Y-110490000D01*
X198755000Y-110490000D02*
X197485000Y-109220000D01*
X197485000Y-109220000D02*
X197485000Y-91440000D01*
X192685001Y-86640001D02*
X197485000Y-91440000D01*
X176455001Y-85370001D02*
X177035003Y-84789999D01*
X172211000Y-84445000D02*
X174641998Y-84445000D01*
X175566999Y-85370001D02*
X176455001Y-85370001D01*
X174641998Y-84445000D02*
X175566999Y-85370001D01*
X177035003Y-84789999D02*
X192739999Y-84789999D01*
X192739999Y-84789999D02*
X198120000Y-90170000D01*
X204470000Y-107950000D02*
X199390000Y-107950000D01*
X199390000Y-107950000D02*
X198120000Y-106680000D01*
X198120000Y-106680000D02*
X198120000Y-90170000D01*
X175250000Y-83175000D02*
X174111000Y-83175000D01*
X175594999Y-83519999D02*
X175250000Y-83175000D01*
X176886997Y-83519999D02*
X175594999Y-83519999D01*
X177466999Y-84100001D02*
X176886997Y-83519999D01*
X193955001Y-84100001D02*
X177466999Y-84100001D01*
X198755000Y-88900000D02*
X193955001Y-84100001D01*
X204470000Y-105410000D02*
X200025000Y-105410000D01*
X200025000Y-105410000D02*
X198755000Y-104140000D01*
X198755000Y-104140000D02*
X198755000Y-88900000D01*
X199390000Y-99100000D02*
X200620000Y-100330000D01*
X194009999Y-82249999D02*
X199390000Y-87630000D01*
X175566999Y-82830001D02*
X176455001Y-82830001D01*
X172211000Y-81905000D02*
X174641998Y-81905000D01*
X174641998Y-81905000D02*
X175566999Y-82830001D01*
X176455001Y-82830001D02*
X177035003Y-82249999D01*
X177035003Y-82249999D02*
X194009999Y-82249999D01*
X200620000Y-100330000D02*
X204470000Y-100330000D01*
X199390000Y-87630000D02*
X199390000Y-99100000D01*
X175250000Y-80635000D02*
X174111000Y-80635000D01*
X175594999Y-80979999D02*
X175250000Y-80635000D01*
X204470000Y-82550000D02*
X199390000Y-82550000D01*
X198400001Y-81560001D02*
X177466999Y-81560001D01*
X199390000Y-82550000D02*
X198400001Y-81560001D01*
X177466999Y-81560001D02*
X176886997Y-80979999D01*
X176886997Y-80979999D02*
X175594999Y-80979999D01*
X199390000Y-80010000D02*
X204470000Y-80010000D01*
X199089999Y-79709999D02*
X199390000Y-80010000D01*
X175566999Y-80290001D02*
X176886997Y-80290001D01*
X172211000Y-79365000D02*
X174641998Y-79365000D01*
X176886997Y-80290001D02*
X177466999Y-79709999D01*
X174641998Y-79365000D02*
X175566999Y-80290001D01*
X177466999Y-79709999D02*
X199089999Y-79709999D01*
X175250000Y-78095000D02*
X174111000Y-78095000D01*
X176886997Y-78439999D02*
X175594999Y-78439999D01*
X177466999Y-79020001D02*
X176886997Y-78439999D01*
X175594999Y-78439999D02*
X175250000Y-78095000D01*
X204470000Y-77470000D02*
X199390000Y-77470000D01*
X197839999Y-79020001D02*
X177466999Y-79020001D01*
X199390000Y-77470000D02*
X197839999Y-79020001D01*
X174641998Y-76825000D02*
X172211000Y-76825000D01*
X175566999Y-77750001D02*
X174641998Y-76825000D01*
X176884999Y-77750001D02*
X175566999Y-77750001D01*
X176884999Y-77750001D02*
X177465001Y-77169999D01*
X204470000Y-74930000D02*
X199390000Y-74930000D01*
X197150001Y-77169999D02*
X177465001Y-77169999D01*
X199390000Y-74930000D02*
X197150001Y-77169999D01*
X175250000Y-75555000D02*
X175594999Y-75899999D01*
X174111000Y-75555000D02*
X175250000Y-75555000D01*
X175594999Y-75899999D02*
X176886997Y-75899999D01*
X176886997Y-75899999D02*
X177466999Y-76480001D01*
X204470000Y-72390000D02*
X199390000Y-72390000D01*
X195299999Y-76480001D02*
X177466999Y-76480001D01*
X199390000Y-72390000D02*
X195299999Y-76480001D01*
X172211000Y-74285000D02*
X174641998Y-74285000D01*
X174641998Y-74285000D02*
X175566999Y-75210001D01*
X176886997Y-75210001D02*
X177466999Y-74629999D01*
X175566999Y-75210001D02*
X176886997Y-75210001D01*
X204470000Y-69850000D02*
X199390000Y-69850000D01*
X194610001Y-74629999D02*
X177466999Y-74629999D01*
X199390000Y-69850000D02*
X194610001Y-74629999D01*
X199390000Y-67310000D02*
X204470000Y-67310000D01*
X192759999Y-73940001D02*
X199390000Y-67310000D01*
X175250000Y-73015000D02*
X175594999Y-73359999D01*
X175594999Y-73359999D02*
X176886997Y-73359999D01*
X176886997Y-73359999D02*
X177466999Y-73940001D01*
X174111000Y-73015000D02*
X175250000Y-73015000D01*
X177466999Y-73940001D02*
X192759999Y-73940001D01*
X174615000Y-71745000D02*
X172211000Y-71745000D01*
X175540001Y-72670001D02*
X174615000Y-71745000D01*
X177466999Y-72089999D02*
X176886997Y-72670001D01*
X204470000Y-64770000D02*
X199390000Y-64770000D01*
X199390000Y-64770000D02*
X192070001Y-72089999D01*
X192070001Y-72089999D02*
X177466999Y-72089999D01*
X176886997Y-72670001D02*
X175540001Y-72670001D01*
X176886997Y-70819999D02*
X175594999Y-70819999D01*
X175250000Y-70475000D02*
X174111000Y-70475000D01*
X177466999Y-71400001D02*
X176886997Y-70819999D01*
X175594999Y-70819999D02*
X175250000Y-70475000D01*
X204470000Y-62230000D02*
X199390000Y-62230000D01*
X190219999Y-71400001D02*
X199390000Y-62230000D01*
X177466999Y-71400001D02*
X190219999Y-71400001D01*
D20*
X193170001Y-116709999D02*
X193170001Y-101095001D01*
X190500000Y-119380000D02*
X193170001Y-116709999D01*
X193040000Y-100965000D02*
X182245000Y-100965000D01*
X193170001Y-101095001D02*
X193040000Y-100965000D01*
X188349999Y-117229999D02*
X171839999Y-117229999D01*
X190500000Y-119380000D02*
X188349999Y-117229999D01*
X171611001Y-62184999D02*
X172211000Y-61585000D01*
X170815000Y-62981000D02*
X171611001Y-62184999D01*
X170815000Y-116205000D02*
X170815000Y-62981000D01*
X171839999Y-117229999D02*
X170815000Y-116205000D01*
D19*
X172211000Y-43054000D02*
X173990000Y-41275000D01*
X172211000Y-56505000D02*
X172211000Y-43054000D01*
X179070000Y-50276000D02*
X179070000Y-41275000D01*
X174111000Y-55235000D02*
X179070000Y-50276000D01*
X173185999Y-55710999D02*
X173185999Y-44619001D01*
X176011000Y-56505000D02*
X173980000Y-56505000D01*
X173185999Y-44619001D02*
X176530000Y-41275000D01*
X173980000Y-56505000D02*
X173185999Y-55710999D01*
X181610000Y-41275000D02*
X181610000Y-53975000D01*
X181610000Y-53975000D02*
X180340000Y-55245000D01*
X177911000Y-55235000D02*
X180340000Y-55245000D01*
X174641998Y-59045000D02*
X175566999Y-58119999D01*
X172211000Y-59045000D02*
X174641998Y-59045000D01*
X176455001Y-58119999D02*
X177035003Y-58700001D01*
X175566999Y-58119999D02*
X176455001Y-58119999D01*
X177035003Y-58700001D02*
X187679999Y-58700001D01*
X189230000Y-57150000D02*
X187679999Y-58700001D01*
X189230000Y-41275000D02*
X189230000Y-57150000D01*
X174959528Y-57775000D02*
X175304527Y-57430001D01*
X174111000Y-57775000D02*
X174959528Y-57775000D01*
X175304527Y-57430001D02*
X176886997Y-57430001D01*
X177466999Y-56849999D02*
X183150001Y-56849999D01*
X176886997Y-57430001D02*
X177466999Y-56849999D01*
X184150000Y-55850000D02*
X183150001Y-56849999D01*
X184150000Y-41275000D02*
X184150000Y-55850000D01*
X176116011Y-59150011D02*
X190404989Y-59150011D01*
X191770000Y-57785000D02*
X190404989Y-59150011D01*
X191770000Y-41275000D02*
X191770000Y-57785000D01*
X186690000Y-56515000D02*
X185420000Y-57785000D01*
X177911000Y-57775000D02*
X185420000Y-57785000D01*
X186690000Y-41275000D02*
X186690000Y-56515000D01*
X185420000Y-57785000D02*
X185430000Y-57775000D01*
D21*
G36*
X170998007Y-117993139D02*
G01*
X171033550Y-118036448D01*
X171206376Y-118178283D01*
X171403552Y-118283675D01*
X171617500Y-118348576D01*
X171784247Y-118364999D01*
X171784256Y-118364999D01*
X171839998Y-118370489D01*
X171895740Y-118364999D01*
X173430594Y-118364999D01*
X173412297Y-118392382D01*
X173255126Y-118771828D01*
X173175000Y-119174645D01*
X173175000Y-119585355D01*
X173255126Y-119988172D01*
X173412297Y-120367618D01*
X173640475Y-120709110D01*
X173930890Y-120999525D01*
X174272382Y-121227703D01*
X174651828Y-121384874D01*
X175054645Y-121465000D01*
X175465355Y-121465000D01*
X175868172Y-121384874D01*
X176247618Y-121227703D01*
X176589110Y-120999525D01*
X176879525Y-120709110D01*
X177107703Y-120367618D01*
X177264874Y-119988172D01*
X177345000Y-119585355D01*
X177345000Y-119174645D01*
X177264874Y-118771828D01*
X177107703Y-118392382D01*
X177089406Y-118364999D01*
X178510594Y-118364999D01*
X178492297Y-118392382D01*
X178335126Y-118771828D01*
X178255000Y-119174645D01*
X178255000Y-119585355D01*
X178335126Y-119988172D01*
X178492297Y-120367618D01*
X178720475Y-120709110D01*
X179010890Y-120999525D01*
X179352382Y-121227703D01*
X179731828Y-121384874D01*
X180134645Y-121465000D01*
X180545355Y-121465000D01*
X180948172Y-121384874D01*
X181327618Y-121227703D01*
X181669110Y-120999525D01*
X181959525Y-120709110D01*
X182187703Y-120367618D01*
X182344874Y-119988172D01*
X182425000Y-119585355D01*
X182425000Y-119174645D01*
X182344874Y-118771828D01*
X182187703Y-118392382D01*
X182169406Y-118364999D01*
X183590594Y-118364999D01*
X183572297Y-118392382D01*
X183415126Y-118771828D01*
X183335000Y-119174645D01*
X183335000Y-119585355D01*
X183415126Y-119988172D01*
X183572297Y-120367618D01*
X183800475Y-120709110D01*
X184090890Y-120999525D01*
X184432382Y-121227703D01*
X184811828Y-121384874D01*
X185214645Y-121465000D01*
X185625355Y-121465000D01*
X186028172Y-121384874D01*
X186407618Y-121227703D01*
X186749110Y-120999525D01*
X187039525Y-120709110D01*
X187267703Y-120367618D01*
X187424874Y-119988172D01*
X187505000Y-119585355D01*
X187505000Y-119174645D01*
X187424874Y-118771828D01*
X187267703Y-118392382D01*
X187249406Y-118364999D01*
X187879868Y-118364999D01*
X188460545Y-118945677D01*
X188415000Y-119174645D01*
X188415000Y-119585355D01*
X188495126Y-119988172D01*
X188652297Y-120367618D01*
X188880475Y-120709110D01*
X189170890Y-120999525D01*
X189512382Y-121227703D01*
X189891828Y-121384874D01*
X190294645Y-121465000D01*
X190705355Y-121465000D01*
X191108172Y-121384874D01*
X191487618Y-121227703D01*
X191829110Y-120999525D01*
X192119525Y-120709110D01*
X192347703Y-120367618D01*
X192504874Y-119988172D01*
X192585000Y-119585355D01*
X192585000Y-119174645D01*
X192539455Y-118945677D01*
X193550001Y-117935132D01*
X193550001Y-121882667D01*
X193546324Y-121920000D01*
X193560998Y-122068985D01*
X193604454Y-122212246D01*
X193675026Y-122344276D01*
X193739700Y-122423080D01*
X193770000Y-122460001D01*
X193798998Y-122483799D01*
X195016201Y-123701003D01*
X195039999Y-123730001D01*
X195155724Y-123824974D01*
X195287753Y-123895546D01*
X195431014Y-123939003D01*
X195542667Y-123950000D01*
X195542676Y-123950000D01*
X195579999Y-123953676D01*
X195617322Y-123950000D01*
X203191822Y-123950000D01*
X203316525Y-124136632D01*
X203519893Y-124340000D01*
X170660000Y-124340000D01*
X170660000Y-117655132D01*
X170998007Y-117993139D01*
G37*
X170998007Y-117993139D02*
X171033550Y-118036448D01*
X171206376Y-118178283D01*
X171403552Y-118283675D01*
X171617500Y-118348576D01*
X171784247Y-118364999D01*
X171784256Y-118364999D01*
X171839998Y-118370489D01*
X171895740Y-118364999D01*
X173430594Y-118364999D01*
X173412297Y-118392382D01*
X173255126Y-118771828D01*
X173175000Y-119174645D01*
X173175000Y-119585355D01*
X173255126Y-119988172D01*
X173412297Y-120367618D01*
X173640475Y-120709110D01*
X173930890Y-120999525D01*
X174272382Y-121227703D01*
X174651828Y-121384874D01*
X175054645Y-121465000D01*
X175465355Y-121465000D01*
X175868172Y-121384874D01*
X176247618Y-121227703D01*
X176589110Y-120999525D01*
X176879525Y-120709110D01*
X177107703Y-120367618D01*
X177264874Y-119988172D01*
X177345000Y-119585355D01*
X177345000Y-119174645D01*
X177264874Y-118771828D01*
X177107703Y-118392382D01*
X177089406Y-118364999D01*
X178510594Y-118364999D01*
X178492297Y-118392382D01*
X178335126Y-118771828D01*
X178255000Y-119174645D01*
X178255000Y-119585355D01*
X178335126Y-119988172D01*
X178492297Y-120367618D01*
X178720475Y-120709110D01*
X179010890Y-120999525D01*
X179352382Y-121227703D01*
X179731828Y-121384874D01*
X180134645Y-121465000D01*
X180545355Y-121465000D01*
X180948172Y-121384874D01*
X181327618Y-121227703D01*
X181669110Y-120999525D01*
X181959525Y-120709110D01*
X182187703Y-120367618D01*
X182344874Y-119988172D01*
X182425000Y-119585355D01*
X182425000Y-119174645D01*
X182344874Y-118771828D01*
X182187703Y-118392382D01*
X182169406Y-118364999D01*
X183590594Y-118364999D01*
X183572297Y-118392382D01*
X183415126Y-118771828D01*
X183335000Y-119174645D01*
X183335000Y-119585355D01*
X183415126Y-119988172D01*
X183572297Y-120367618D01*
X183800475Y-120709110D01*
X184090890Y-120999525D01*
X184432382Y-121227703D01*
X184811828Y-121384874D01*
X185214645Y-121465000D01*
X185625355Y-121465000D01*
X186028172Y-121384874D01*
X186407618Y-121227703D01*
X186749110Y-120999525D01*
X187039525Y-120709110D01*
X187267703Y-120367618D01*
X187424874Y-119988172D01*
X187505000Y-119585355D01*
X187505000Y-119174645D01*
X187424874Y-118771828D01*
X187267703Y-118392382D01*
X187249406Y-118364999D01*
X187879868Y-118364999D01*
X188460545Y-118945677D01*
X188415000Y-119174645D01*
X188415000Y-119585355D01*
X188495126Y-119988172D01*
X188652297Y-120367618D01*
X188880475Y-120709110D01*
X189170890Y-120999525D01*
X189512382Y-121227703D01*
X189891828Y-121384874D01*
X190294645Y-121465000D01*
X190705355Y-121465000D01*
X191108172Y-121384874D01*
X191487618Y-121227703D01*
X191829110Y-120999525D01*
X192119525Y-120709110D01*
X192347703Y-120367618D01*
X192504874Y-119988172D01*
X192585000Y-119585355D01*
X192585000Y-119174645D01*
X192539455Y-118945677D01*
X193550001Y-117935132D01*
X193550001Y-121882667D01*
X193546324Y-121920000D01*
X193560998Y-122068985D01*
X193604454Y-122212246D01*
X193675026Y-122344276D01*
X193739700Y-122423080D01*
X193770000Y-122460001D01*
X193798998Y-122483799D01*
X195016201Y-123701003D01*
X195039999Y-123730001D01*
X195155724Y-123824974D01*
X195287753Y-123895546D01*
X195431014Y-123939003D01*
X195542667Y-123950000D01*
X195542676Y-123950000D01*
X195579999Y-123953676D01*
X195617322Y-123950000D01*
X203191822Y-123950000D01*
X203316525Y-124136632D01*
X203519893Y-124340000D01*
X170660000Y-124340000D01*
X170660000Y-117655132D01*
X170998007Y-117993139D01*
G36*
X194340001Y-59467571D02*
G01*
X194336807Y-59500000D01*
X194349550Y-59629383D01*
X194387290Y-59753793D01*
X194448575Y-59868450D01*
X194531052Y-59968948D01*
X194631550Y-60051425D01*
X194746207Y-60112710D01*
X194870617Y-60150450D01*
X194967581Y-60160000D01*
X195000000Y-60163193D01*
X195032419Y-60160000D01*
X208340000Y-60160000D01*
X208340000Y-60963926D01*
X208311185Y-60928815D01*
X208214494Y-60849463D01*
X208104180Y-60790498D01*
X207984482Y-60754188D01*
X207860000Y-60741928D01*
X207295750Y-60745000D01*
X207137000Y-60903750D01*
X207137000Y-62103000D01*
X207157000Y-62103000D01*
X207157000Y-62357000D01*
X207137000Y-62357000D01*
X207137000Y-64643000D01*
X207157000Y-64643000D01*
X207157000Y-64897000D01*
X207137000Y-64897000D01*
X207137000Y-67183000D01*
X207157000Y-67183000D01*
X207157000Y-67437000D01*
X207137000Y-67437000D01*
X207137000Y-69723000D01*
X207157000Y-69723000D01*
X207157000Y-69977000D01*
X207137000Y-69977000D01*
X207137000Y-72263000D01*
X207157000Y-72263000D01*
X207157000Y-72517000D01*
X207137000Y-72517000D01*
X207137000Y-74803000D01*
X207157000Y-74803000D01*
X207157000Y-75057000D01*
X207137000Y-75057000D01*
X207137000Y-77343000D01*
X207157000Y-77343000D01*
X207157000Y-77597000D01*
X207137000Y-77597000D01*
X207137000Y-79883000D01*
X207157000Y-79883000D01*
X207157000Y-80137000D01*
X207137000Y-80137000D01*
X207137000Y-82423000D01*
X207157000Y-82423000D01*
X207157000Y-82677000D01*
X207137000Y-82677000D01*
X207137000Y-84963000D01*
X207157000Y-84963000D01*
X207157000Y-85217000D01*
X207137000Y-85217000D01*
X207137000Y-87503000D01*
X207157000Y-87503000D01*
X207157000Y-87757000D01*
X207137000Y-87757000D01*
X207137000Y-90043000D01*
X207157000Y-90043000D01*
X207157000Y-90297000D01*
X207137000Y-90297000D01*
X207137000Y-90317000D01*
X206883000Y-90317000D01*
X206883000Y-90297000D01*
X204597000Y-90297000D01*
X204597000Y-90317000D01*
X204343000Y-90317000D01*
X204343000Y-90297000D01*
X203149845Y-90297000D01*
X203028524Y-90526890D01*
X203073175Y-90674099D01*
X203198359Y-90936920D01*
X203372412Y-91170269D01*
X203588645Y-91365178D01*
X203705534Y-91434805D01*
X203523368Y-91556525D01*
X203316525Y-91763368D01*
X203154010Y-92006589D01*
X203042068Y-92276842D01*
X202985000Y-92563740D01*
X202985000Y-92856260D01*
X203042068Y-93143158D01*
X203154010Y-93413411D01*
X203316525Y-93656632D01*
X203523368Y-93863475D01*
X203705534Y-93985195D01*
X203588645Y-94054822D01*
X203372412Y-94249731D01*
X203198359Y-94483080D01*
X203073175Y-94745901D01*
X203028524Y-94893110D01*
X203149845Y-95123000D01*
X204343000Y-95123000D01*
X204343000Y-95103000D01*
X204597000Y-95103000D01*
X204597000Y-95123000D01*
X206883000Y-95123000D01*
X206883000Y-95103000D01*
X207137000Y-95103000D01*
X207137000Y-95123000D01*
X207157000Y-95123000D01*
X207157000Y-95377000D01*
X207137000Y-95377000D01*
X207137000Y-97663000D01*
X207157000Y-97663000D01*
X207157000Y-97917000D01*
X207137000Y-97917000D01*
X207137000Y-100203000D01*
X207157000Y-100203000D01*
X207157000Y-100457000D01*
X207137000Y-100457000D01*
X207137000Y-102743000D01*
X207157000Y-102743000D01*
X207157000Y-102997000D01*
X207137000Y-102997000D01*
X207137000Y-105283000D01*
X207157000Y-105283000D01*
X207157000Y-105537000D01*
X207137000Y-105537000D01*
X207137000Y-107823000D01*
X207157000Y-107823000D01*
X207157000Y-108077000D01*
X207137000Y-108077000D01*
X207137000Y-110363000D01*
X207157000Y-110363000D01*
X207157000Y-110617000D01*
X207137000Y-110617000D01*
X207137000Y-112903000D01*
X207157000Y-112903000D01*
X207157000Y-113157000D01*
X207137000Y-113157000D01*
X207137000Y-115443000D01*
X207157000Y-115443000D01*
X207157000Y-115697000D01*
X207137000Y-115697000D01*
X207137000Y-117983000D01*
X207157000Y-117983000D01*
X207157000Y-118237000D01*
X207137000Y-118237000D01*
X207137000Y-120523000D01*
X207157000Y-120523000D01*
X207157000Y-120777000D01*
X207137000Y-120777000D01*
X207137000Y-123063000D01*
X207157000Y-123063000D01*
X207157000Y-123317000D01*
X207137000Y-123317000D01*
X207137000Y-123337000D01*
X206883000Y-123337000D01*
X206883000Y-123317000D01*
X206863000Y-123317000D01*
X206863000Y-123063000D01*
X206883000Y-123063000D01*
X206883000Y-120777000D01*
X206863000Y-120777000D01*
X206863000Y-120523000D01*
X206883000Y-120523000D01*
X206883000Y-118237000D01*
X206863000Y-118237000D01*
X206863000Y-117983000D01*
X206883000Y-117983000D01*
X206883000Y-115697000D01*
X206863000Y-115697000D01*
X206863000Y-115443000D01*
X206883000Y-115443000D01*
X206883000Y-113157000D01*
X206863000Y-113157000D01*
X206863000Y-112903000D01*
X206883000Y-112903000D01*
X206883000Y-110617000D01*
X206863000Y-110617000D01*
X206863000Y-110363000D01*
X206883000Y-110363000D01*
X206883000Y-108077000D01*
X206863000Y-108077000D01*
X206863000Y-107823000D01*
X206883000Y-107823000D01*
X206883000Y-105537000D01*
X206863000Y-105537000D01*
X206863000Y-105283000D01*
X206883000Y-105283000D01*
X206883000Y-102997000D01*
X204597000Y-102997000D01*
X204597000Y-103017000D01*
X204343000Y-103017000D01*
X204343000Y-102997000D01*
X203149845Y-102997000D01*
X203028524Y-103226890D01*
X203073175Y-103374099D01*
X203198359Y-103636920D01*
X203372412Y-103870269D01*
X203588645Y-104065178D01*
X203705534Y-104134805D01*
X203523368Y-104256525D01*
X203316525Y-104463368D01*
X203191822Y-104650000D01*
X200339802Y-104650000D01*
X199515000Y-103825199D01*
X199515000Y-100299802D01*
X200056201Y-100841003D01*
X200079999Y-100870001D01*
X200195724Y-100964974D01*
X200327753Y-101035546D01*
X200471014Y-101079003D01*
X200582667Y-101090000D01*
X200582675Y-101090000D01*
X200620000Y-101093676D01*
X200657325Y-101090000D01*
X203191822Y-101090000D01*
X203316525Y-101276632D01*
X203523368Y-101483475D01*
X203705534Y-101605195D01*
X203588645Y-101674822D01*
X203372412Y-101869731D01*
X203198359Y-102103080D01*
X203073175Y-102365901D01*
X203028524Y-102513110D01*
X203149845Y-102743000D01*
X204343000Y-102743000D01*
X204343000Y-102723000D01*
X204597000Y-102723000D01*
X204597000Y-102743000D01*
X206883000Y-102743000D01*
X206883000Y-100457000D01*
X206863000Y-100457000D01*
X206863000Y-100203000D01*
X206883000Y-100203000D01*
X206883000Y-97917000D01*
X204597000Y-97917000D01*
X204597000Y-97937000D01*
X204343000Y-97937000D01*
X204343000Y-97917000D01*
X203149845Y-97917000D01*
X203028524Y-98146890D01*
X203073175Y-98294099D01*
X203198359Y-98556920D01*
X203372412Y-98790269D01*
X203588645Y-98985178D01*
X203705534Y-99054805D01*
X203523368Y-99176525D01*
X203316525Y-99383368D01*
X203191822Y-99570000D01*
X200934802Y-99570000D01*
X200150000Y-98785199D01*
X200150000Y-95606890D01*
X203028524Y-95606890D01*
X203073175Y-95754099D01*
X203198359Y-96016920D01*
X203372412Y-96250269D01*
X203588645Y-96445178D01*
X203714255Y-96520000D01*
X203588645Y-96594822D01*
X203372412Y-96789731D01*
X203198359Y-97023080D01*
X203073175Y-97285901D01*
X203028524Y-97433110D01*
X203149845Y-97663000D01*
X204343000Y-97663000D01*
X204343000Y-95377000D01*
X204597000Y-95377000D01*
X204597000Y-97663000D01*
X206883000Y-97663000D01*
X206883000Y-95377000D01*
X204597000Y-95377000D01*
X204343000Y-95377000D01*
X203149845Y-95377000D01*
X203028524Y-95606890D01*
X200150000Y-95606890D01*
X200150000Y-87986890D01*
X203028524Y-87986890D01*
X203073175Y-88134099D01*
X203198359Y-88396920D01*
X203372412Y-88630269D01*
X203588645Y-88825178D01*
X203714255Y-88900000D01*
X203588645Y-88974822D01*
X203372412Y-89169731D01*
X203198359Y-89403080D01*
X203073175Y-89665901D01*
X203028524Y-89813110D01*
X203149845Y-90043000D01*
X204343000Y-90043000D01*
X204343000Y-87757000D01*
X204597000Y-87757000D01*
X204597000Y-90043000D01*
X206883000Y-90043000D01*
X206883000Y-87757000D01*
X204597000Y-87757000D01*
X204343000Y-87757000D01*
X203149845Y-87757000D01*
X203028524Y-87986890D01*
X200150000Y-87986890D01*
X200150000Y-87667322D01*
X200153676Y-87629999D01*
X200150000Y-87592676D01*
X200150000Y-87592667D01*
X200139003Y-87481014D01*
X200095546Y-87337753D01*
X200024974Y-87205724D01*
X199991229Y-87164605D01*
X199953799Y-87118996D01*
X199953795Y-87118992D01*
X199930001Y-87089999D01*
X199901009Y-87066206D01*
X198281693Y-85446890D01*
X203028524Y-85446890D01*
X203073175Y-85594099D01*
X203198359Y-85856920D01*
X203372412Y-86090269D01*
X203588645Y-86285178D01*
X203714255Y-86360000D01*
X203588645Y-86434822D01*
X203372412Y-86629731D01*
X203198359Y-86863080D01*
X203073175Y-87125901D01*
X203028524Y-87273110D01*
X203149845Y-87503000D01*
X204343000Y-87503000D01*
X204343000Y-85217000D01*
X204597000Y-85217000D01*
X204597000Y-87503000D01*
X206883000Y-87503000D01*
X206883000Y-85217000D01*
X204597000Y-85217000D01*
X204343000Y-85217000D01*
X203149845Y-85217000D01*
X203028524Y-85446890D01*
X198281693Y-85446890D01*
X195154802Y-82320001D01*
X198085200Y-82320001D01*
X198826201Y-83061003D01*
X198849999Y-83090001D01*
X198878997Y-83113799D01*
X198965723Y-83184974D01*
X199079155Y-83245605D01*
X199097753Y-83255546D01*
X199241014Y-83299003D01*
X199352667Y-83310000D01*
X199352677Y-83310000D01*
X199389999Y-83313676D01*
X199427322Y-83310000D01*
X203191822Y-83310000D01*
X203316525Y-83496632D01*
X203523368Y-83703475D01*
X203705534Y-83825195D01*
X203588645Y-83894822D01*
X203372412Y-84089731D01*
X203198359Y-84323080D01*
X203073175Y-84585901D01*
X203028524Y-84733110D01*
X203149845Y-84963000D01*
X204343000Y-84963000D01*
X204343000Y-84943000D01*
X204597000Y-84943000D01*
X204597000Y-84963000D01*
X206883000Y-84963000D01*
X206883000Y-82677000D01*
X206863000Y-82677000D01*
X206863000Y-82423000D01*
X206883000Y-82423000D01*
X206883000Y-80137000D01*
X206863000Y-80137000D01*
X206863000Y-79883000D01*
X206883000Y-79883000D01*
X206883000Y-77597000D01*
X206863000Y-77597000D01*
X206863000Y-77343000D01*
X206883000Y-77343000D01*
X206883000Y-75057000D01*
X206863000Y-75057000D01*
X206863000Y-74803000D01*
X206883000Y-74803000D01*
X206883000Y-72517000D01*
X206863000Y-72517000D01*
X206863000Y-72263000D01*
X206883000Y-72263000D01*
X206883000Y-69977000D01*
X206863000Y-69977000D01*
X206863000Y-69723000D01*
X206883000Y-69723000D01*
X206883000Y-67437000D01*
X206863000Y-67437000D01*
X206863000Y-67183000D01*
X206883000Y-67183000D01*
X206883000Y-64897000D01*
X206863000Y-64897000D01*
X206863000Y-64643000D01*
X206883000Y-64643000D01*
X206883000Y-62357000D01*
X206863000Y-62357000D01*
X206863000Y-62103000D01*
X206883000Y-62103000D01*
X206883000Y-60903750D01*
X206724250Y-60745000D01*
X206160000Y-60741928D01*
X206035518Y-60754188D01*
X205915820Y-60790498D01*
X205805506Y-60849463D01*
X205708815Y-60928815D01*
X205629463Y-61025506D01*
X205570498Y-61135820D01*
X205548487Y-61208380D01*
X205416632Y-61076525D01*
X205173411Y-60914010D01*
X204903158Y-60802068D01*
X204616260Y-60745000D01*
X204323740Y-60745000D01*
X204036842Y-60802068D01*
X203766589Y-60914010D01*
X203523368Y-61076525D01*
X203316525Y-61283368D01*
X203191822Y-61470000D01*
X199427325Y-61470000D01*
X199390000Y-61466324D01*
X199352675Y-61470000D01*
X199352667Y-61470000D01*
X199241014Y-61480997D01*
X199097753Y-61524454D01*
X198965724Y-61595026D01*
X198849999Y-61689999D01*
X198826201Y-61718997D01*
X189905198Y-70640001D01*
X179140926Y-70640001D01*
X179141000Y-70639687D01*
X179149495Y-70396562D01*
X179110395Y-70156451D01*
X179025202Y-69928582D01*
X178984348Y-69852148D01*
X178760764Y-69804841D01*
X178090605Y-70475000D01*
X178104748Y-70489143D01*
X177953889Y-70640001D01*
X177868111Y-70640001D01*
X177717253Y-70489143D01*
X177731395Y-70475000D01*
X177717253Y-70460858D01*
X177896858Y-70281253D01*
X177911000Y-70295395D01*
X178581159Y-69625236D01*
X178533852Y-69401652D01*
X178312484Y-69300763D01*
X178075687Y-69245000D01*
X177832562Y-69236505D01*
X177592451Y-69275605D01*
X177364582Y-69360798D01*
X177288148Y-69401652D01*
X177240842Y-69625234D01*
X177192262Y-69576654D01*
X177241000Y-69369687D01*
X177249495Y-69126562D01*
X177210395Y-68886451D01*
X177191009Y-68834599D01*
X177240842Y-68784766D01*
X177288148Y-69008348D01*
X177509516Y-69109237D01*
X177746313Y-69165000D01*
X177989438Y-69173495D01*
X178229549Y-69134395D01*
X178457418Y-69049202D01*
X178533852Y-69008348D01*
X178581159Y-68784764D01*
X177911000Y-68114605D01*
X177896858Y-68128748D01*
X177717253Y-67949143D01*
X177731395Y-67935000D01*
X178090605Y-67935000D01*
X178760764Y-68605159D01*
X178984348Y-68557852D01*
X179085237Y-68336484D01*
X179141000Y-68099687D01*
X179149495Y-67856562D01*
X179110395Y-67616451D01*
X179025202Y-67388582D01*
X178984348Y-67312148D01*
X178760764Y-67264841D01*
X178090605Y-67935000D01*
X177731395Y-67935000D01*
X177717253Y-67920858D01*
X177896858Y-67741253D01*
X177911000Y-67755395D01*
X178581159Y-67085236D01*
X178533852Y-66861652D01*
X178312484Y-66760763D01*
X178075687Y-66705000D01*
X177832562Y-66696505D01*
X177592451Y-66735605D01*
X177364582Y-66820798D01*
X177288148Y-66861652D01*
X177240842Y-67085234D01*
X177192262Y-67036654D01*
X177241000Y-66829687D01*
X177249495Y-66586562D01*
X177210395Y-66346451D01*
X177191009Y-66294599D01*
X177240842Y-66244766D01*
X177288148Y-66468348D01*
X177509516Y-66569237D01*
X177746313Y-66625000D01*
X177989438Y-66633495D01*
X178229549Y-66594395D01*
X178457418Y-66509202D01*
X178533852Y-66468348D01*
X178581159Y-66244764D01*
X177911000Y-65574605D01*
X177896858Y-65588748D01*
X177717253Y-65409143D01*
X177731395Y-65395000D01*
X178090605Y-65395000D01*
X178760764Y-66065159D01*
X178984348Y-66017852D01*
X179085237Y-65796484D01*
X179141000Y-65559687D01*
X179149495Y-65316562D01*
X179110395Y-65076451D01*
X179025202Y-64848582D01*
X178984348Y-64772148D01*
X178760764Y-64724841D01*
X178090605Y-65395000D01*
X177731395Y-65395000D01*
X177717253Y-65380858D01*
X177896858Y-65201253D01*
X177911000Y-65215395D01*
X178581159Y-64545236D01*
X178533852Y-64321652D01*
X178312484Y-64220763D01*
X178075687Y-64165000D01*
X177832562Y-64156505D01*
X177592451Y-64195605D01*
X177364582Y-64280798D01*
X177288148Y-64321652D01*
X177240842Y-64545234D01*
X177192262Y-64496654D01*
X177241000Y-64289687D01*
X177249495Y-64046562D01*
X177222408Y-63880219D01*
X177326008Y-63949443D01*
X177550764Y-64042540D01*
X177789363Y-64090000D01*
X178032637Y-64090000D01*
X178271236Y-64042540D01*
X178495992Y-63949443D01*
X178698267Y-63814287D01*
X178870287Y-63642267D01*
X179005443Y-63439992D01*
X179098540Y-63215236D01*
X179146000Y-62976637D01*
X179146000Y-62733363D01*
X179098540Y-62494764D01*
X179005443Y-62270008D01*
X178870287Y-62067733D01*
X178698267Y-61895713D01*
X178495992Y-61760557D01*
X178271236Y-61667460D01*
X178032637Y-61620000D01*
X177789363Y-61620000D01*
X177550764Y-61667460D01*
X177326008Y-61760557D01*
X177221367Y-61830476D01*
X177246000Y-61706637D01*
X177246000Y-61463363D01*
X177221367Y-61339524D01*
X177326008Y-61409443D01*
X177550764Y-61502540D01*
X177789363Y-61550000D01*
X178032637Y-61550000D01*
X178271236Y-61502540D01*
X178495992Y-61409443D01*
X178698267Y-61274287D01*
X178870287Y-61102267D01*
X179005443Y-60899992D01*
X179098540Y-60675236D01*
X179146000Y-60436637D01*
X179146000Y-60193363D01*
X179098540Y-59954764D01*
X179080003Y-59910011D01*
X190367667Y-59910011D01*
X190404989Y-59913687D01*
X190442311Y-59910011D01*
X190442322Y-59910011D01*
X190553975Y-59899014D01*
X190697236Y-59855557D01*
X190829265Y-59784985D01*
X190944990Y-59690012D01*
X190968793Y-59661008D01*
X192281003Y-58348799D01*
X192310001Y-58325001D01*
X192355973Y-58268984D01*
X192404974Y-58209277D01*
X192475546Y-58077247D01*
X192500859Y-57993800D01*
X192519003Y-57933986D01*
X192530000Y-57822333D01*
X192530000Y-57822324D01*
X192533676Y-57785001D01*
X192530000Y-57747678D01*
X192530000Y-42763072D01*
X192620000Y-42763072D01*
X192744482Y-42750812D01*
X192864180Y-42714502D01*
X192974494Y-42655537D01*
X193071185Y-42576185D01*
X193150537Y-42479494D01*
X193209502Y-42369180D01*
X193245812Y-42249482D01*
X193258072Y-42125000D01*
X193258072Y-40425000D01*
X193245812Y-40300518D01*
X193209502Y-40180820D01*
X193150537Y-40070506D01*
X193071185Y-39973815D01*
X192974494Y-39894463D01*
X192864180Y-39835498D01*
X192791620Y-39813487D01*
X192923475Y-39681632D01*
X193085990Y-39438411D01*
X193197932Y-39168158D01*
X193255000Y-38881260D01*
X193255000Y-38588740D01*
X193197932Y-38301842D01*
X193085990Y-38031589D01*
X192923475Y-37788368D01*
X192716632Y-37581525D01*
X192473411Y-37419010D01*
X192203158Y-37307068D01*
X191916260Y-37250000D01*
X191623740Y-37250000D01*
X191336842Y-37307068D01*
X191066589Y-37419010D01*
X190823368Y-37581525D01*
X190616525Y-37788368D01*
X190500000Y-37962760D01*
X190383475Y-37788368D01*
X190176632Y-37581525D01*
X189933411Y-37419010D01*
X189663158Y-37307068D01*
X189376260Y-37250000D01*
X189083740Y-37250000D01*
X188796842Y-37307068D01*
X188526589Y-37419010D01*
X188283368Y-37581525D01*
X188076525Y-37788368D01*
X187954805Y-37970534D01*
X187885178Y-37853645D01*
X187690269Y-37637412D01*
X187456920Y-37463359D01*
X187194099Y-37338175D01*
X187046890Y-37293524D01*
X186817000Y-37414845D01*
X186817000Y-38608000D01*
X186837000Y-38608000D01*
X186837000Y-38862000D01*
X186817000Y-38862000D01*
X186817000Y-38882000D01*
X186563000Y-38882000D01*
X186563000Y-38862000D01*
X184277000Y-38862000D01*
X184277000Y-38882000D01*
X184023000Y-38882000D01*
X184023000Y-38862000D01*
X181737000Y-38862000D01*
X181737000Y-38882000D01*
X181483000Y-38882000D01*
X181483000Y-38862000D01*
X179197000Y-38862000D01*
X179197000Y-38882000D01*
X178943000Y-38882000D01*
X178943000Y-38862000D01*
X176657000Y-38862000D01*
X176657000Y-38882000D01*
X176403000Y-38882000D01*
X176403000Y-38862000D01*
X174117000Y-38862000D01*
X174117000Y-38882000D01*
X173863000Y-38882000D01*
X173863000Y-38862000D01*
X172669186Y-38862000D01*
X172548519Y-39091891D01*
X172645843Y-39366252D01*
X172794822Y-39616355D01*
X172989731Y-39832588D01*
X173219406Y-40003900D01*
X173043368Y-40121525D01*
X172836525Y-40328368D01*
X172674010Y-40571589D01*
X172562068Y-40841842D01*
X172505000Y-41128740D01*
X172505000Y-41421260D01*
X172548790Y-41641408D01*
X171699998Y-42490201D01*
X171671000Y-42513999D01*
X171647202Y-42542997D01*
X171647201Y-42542998D01*
X171576026Y-42629724D01*
X171505454Y-42761754D01*
X171461998Y-42905015D01*
X171447324Y-43054000D01*
X171451001Y-43091332D01*
X171451000Y-55527494D01*
X171423733Y-55545713D01*
X171251713Y-55717733D01*
X171116557Y-55920008D01*
X171023460Y-56144764D01*
X170976000Y-56383363D01*
X170976000Y-56626637D01*
X171023460Y-56865236D01*
X171116557Y-57089992D01*
X171251713Y-57292267D01*
X171423733Y-57464287D01*
X171626008Y-57599443D01*
X171850764Y-57692540D01*
X172089363Y-57740000D01*
X172332637Y-57740000D01*
X172571236Y-57692540D01*
X172795992Y-57599443D01*
X172900633Y-57529524D01*
X172876000Y-57653363D01*
X172876000Y-57896637D01*
X172900633Y-58020476D01*
X172795992Y-57950557D01*
X172571236Y-57857460D01*
X172332637Y-57810000D01*
X172089363Y-57810000D01*
X171850764Y-57857460D01*
X171626008Y-57950557D01*
X171423733Y-58085713D01*
X171251713Y-58257733D01*
X171116557Y-58460008D01*
X171023460Y-58684764D01*
X170976000Y-58923363D01*
X170976000Y-59166637D01*
X171023460Y-59405236D01*
X171116557Y-59629992D01*
X171251713Y-59832267D01*
X171423733Y-60004287D01*
X171626008Y-60139443D01*
X171850764Y-60232540D01*
X172089363Y-60280000D01*
X172332637Y-60280000D01*
X172571236Y-60232540D01*
X172795992Y-60139443D01*
X172900633Y-60069524D01*
X172876000Y-60193363D01*
X172876000Y-60436637D01*
X172900633Y-60560476D01*
X172795992Y-60490557D01*
X172571236Y-60397460D01*
X172332637Y-60350000D01*
X172089363Y-60350000D01*
X171850764Y-60397460D01*
X171626008Y-60490557D01*
X171423733Y-60625713D01*
X171251713Y-60797733D01*
X171116557Y-61000008D01*
X171064016Y-61126852D01*
X170847862Y-61343007D01*
X170847857Y-61343011D01*
X170660000Y-61530868D01*
X170660000Y-38378109D01*
X172548519Y-38378109D01*
X172669186Y-38608000D01*
X173863000Y-38608000D01*
X173863000Y-37414845D01*
X174117000Y-37414845D01*
X174117000Y-38608000D01*
X176403000Y-38608000D01*
X176403000Y-37414845D01*
X176657000Y-37414845D01*
X176657000Y-38608000D01*
X178943000Y-38608000D01*
X178943000Y-37414845D01*
X179197000Y-37414845D01*
X179197000Y-38608000D01*
X181483000Y-38608000D01*
X181483000Y-37414845D01*
X181737000Y-37414845D01*
X181737000Y-38608000D01*
X184023000Y-38608000D01*
X184023000Y-37414845D01*
X184277000Y-37414845D01*
X184277000Y-38608000D01*
X186563000Y-38608000D01*
X186563000Y-37414845D01*
X186333110Y-37293524D01*
X186185901Y-37338175D01*
X185923080Y-37463359D01*
X185689731Y-37637412D01*
X185494822Y-37853645D01*
X185420000Y-37979255D01*
X185345178Y-37853645D01*
X185150269Y-37637412D01*
X184916920Y-37463359D01*
X184654099Y-37338175D01*
X184506890Y-37293524D01*
X184277000Y-37414845D01*
X184023000Y-37414845D01*
X183793110Y-37293524D01*
X183645901Y-37338175D01*
X183383080Y-37463359D01*
X183149731Y-37637412D01*
X182954822Y-37853645D01*
X182880000Y-37979255D01*
X182805178Y-37853645D01*
X182610269Y-37637412D01*
X182376920Y-37463359D01*
X182114099Y-37338175D01*
X181966890Y-37293524D01*
X181737000Y-37414845D01*
X181483000Y-37414845D01*
X181253110Y-37293524D01*
X181105901Y-37338175D01*
X180843080Y-37463359D01*
X180609731Y-37637412D01*
X180414822Y-37853645D01*
X180340000Y-37979255D01*
X180265178Y-37853645D01*
X180070269Y-37637412D01*
X179836920Y-37463359D01*
X179574099Y-37338175D01*
X179426890Y-37293524D01*
X179197000Y-37414845D01*
X178943000Y-37414845D01*
X178713110Y-37293524D01*
X178565901Y-37338175D01*
X178303080Y-37463359D01*
X178069731Y-37637412D01*
X177874822Y-37853645D01*
X177800000Y-37979255D01*
X177725178Y-37853645D01*
X177530269Y-37637412D01*
X177296920Y-37463359D01*
X177034099Y-37338175D01*
X176886890Y-37293524D01*
X176657000Y-37414845D01*
X176403000Y-37414845D01*
X176173110Y-37293524D01*
X176025901Y-37338175D01*
X175763080Y-37463359D01*
X175529731Y-37637412D01*
X175334822Y-37853645D01*
X175260000Y-37979255D01*
X175185178Y-37853645D01*
X174990269Y-37637412D01*
X174756920Y-37463359D01*
X174494099Y-37338175D01*
X174346890Y-37293524D01*
X174117000Y-37414845D01*
X173863000Y-37414845D01*
X173633110Y-37293524D01*
X173485901Y-37338175D01*
X173223080Y-37463359D01*
X172989731Y-37637412D01*
X172794822Y-37853645D01*
X172645843Y-38103748D01*
X172548519Y-38378109D01*
X170660000Y-38378109D01*
X170660000Y-35660000D01*
X194340000Y-35660000D01*
X194340001Y-59467571D01*
G37*
X194340001Y-59467571D02*
X194336807Y-59500000D01*
X194349550Y-59629383D01*
X194387290Y-59753793D01*
X194448575Y-59868450D01*
X194531052Y-59968948D01*
X194631550Y-60051425D01*
X194746207Y-60112710D01*
X194870617Y-60150450D01*
X194967581Y-60160000D01*
X195000000Y-60163193D01*
X195032419Y-60160000D01*
X208340000Y-60160000D01*
X208340000Y-60963926D01*
X208311185Y-60928815D01*
X208214494Y-60849463D01*
X208104180Y-60790498D01*
X207984482Y-60754188D01*
X207860000Y-60741928D01*
X207295750Y-60745000D01*
X207137000Y-60903750D01*
X207137000Y-62103000D01*
X207157000Y-62103000D01*
X207157000Y-62357000D01*
X207137000Y-62357000D01*
X207137000Y-64643000D01*
X207157000Y-64643000D01*
X207157000Y-64897000D01*
X207137000Y-64897000D01*
X207137000Y-67183000D01*
X207157000Y-67183000D01*
X207157000Y-67437000D01*
X207137000Y-67437000D01*
X207137000Y-69723000D01*
X207157000Y-69723000D01*
X207157000Y-69977000D01*
X207137000Y-69977000D01*
X207137000Y-72263000D01*
X207157000Y-72263000D01*
X207157000Y-72517000D01*
X207137000Y-72517000D01*
X207137000Y-74803000D01*
X207157000Y-74803000D01*
X207157000Y-75057000D01*
X207137000Y-75057000D01*
X207137000Y-77343000D01*
X207157000Y-77343000D01*
X207157000Y-77597000D01*
X207137000Y-77597000D01*
X207137000Y-79883000D01*
X207157000Y-79883000D01*
X207157000Y-80137000D01*
X207137000Y-80137000D01*
X207137000Y-82423000D01*
X207157000Y-82423000D01*
X207157000Y-82677000D01*
X207137000Y-82677000D01*
X207137000Y-84963000D01*
X207157000Y-84963000D01*
X207157000Y-85217000D01*
X207137000Y-85217000D01*
X207137000Y-87503000D01*
X207157000Y-87503000D01*
X207157000Y-87757000D01*
X207137000Y-87757000D01*
X207137000Y-90043000D01*
X207157000Y-90043000D01*
X207157000Y-90297000D01*
X207137000Y-90297000D01*
X207137000Y-90317000D01*
X206883000Y-90317000D01*
X206883000Y-90297000D01*
X204597000Y-90297000D01*
X204597000Y-90317000D01*
X204343000Y-90317000D01*
X204343000Y-90297000D01*
X203149845Y-90297000D01*
X203028524Y-90526890D01*
X203073175Y-90674099D01*
X203198359Y-90936920D01*
X203372412Y-91170269D01*
X203588645Y-91365178D01*
X203705534Y-91434805D01*
X203523368Y-91556525D01*
X203316525Y-91763368D01*
X203154010Y-92006589D01*
X203042068Y-92276842D01*
X202985000Y-92563740D01*
X202985000Y-92856260D01*
X203042068Y-93143158D01*
X203154010Y-93413411D01*
X203316525Y-93656632D01*
X203523368Y-93863475D01*
X203705534Y-93985195D01*
X203588645Y-94054822D01*
X203372412Y-94249731D01*
X203198359Y-94483080D01*
X203073175Y-94745901D01*
X203028524Y-94893110D01*
X203149845Y-95123000D01*
X204343000Y-95123000D01*
X204343000Y-95103000D01*
X204597000Y-95103000D01*
X204597000Y-95123000D01*
X206883000Y-95123000D01*
X206883000Y-95103000D01*
X207137000Y-95103000D01*
X207137000Y-95123000D01*
X207157000Y-95123000D01*
X207157000Y-95377000D01*
X207137000Y-95377000D01*
X207137000Y-97663000D01*
X207157000Y-97663000D01*
X207157000Y-97917000D01*
X207137000Y-97917000D01*
X207137000Y-100203000D01*
X207157000Y-100203000D01*
X207157000Y-100457000D01*
X207137000Y-100457000D01*
X207137000Y-102743000D01*
X207157000Y-102743000D01*
X207157000Y-102997000D01*
X207137000Y-102997000D01*
X207137000Y-105283000D01*
X207157000Y-105283000D01*
X207157000Y-105537000D01*
X207137000Y-105537000D01*
X207137000Y-107823000D01*
X207157000Y-107823000D01*
X207157000Y-108077000D01*
X207137000Y-108077000D01*
X207137000Y-110363000D01*
X207157000Y-110363000D01*
X207157000Y-110617000D01*
X207137000Y-110617000D01*
X207137000Y-112903000D01*
X207157000Y-112903000D01*
X207157000Y-113157000D01*
X207137000Y-113157000D01*
X207137000Y-115443000D01*
X207157000Y-115443000D01*
X207157000Y-115697000D01*
X207137000Y-115697000D01*
X207137000Y-117983000D01*
X207157000Y-117983000D01*
X207157000Y-118237000D01*
X207137000Y-118237000D01*
X207137000Y-120523000D01*
X207157000Y-120523000D01*
X207157000Y-120777000D01*
X207137000Y-120777000D01*
X207137000Y-123063000D01*
X207157000Y-123063000D01*
X207157000Y-123317000D01*
X207137000Y-123317000D01*
X207137000Y-123337000D01*
X206883000Y-123337000D01*
X206883000Y-123317000D01*
X206863000Y-123317000D01*
X206863000Y-123063000D01*
X206883000Y-123063000D01*
X206883000Y-120777000D01*
X206863000Y-120777000D01*
X206863000Y-120523000D01*
X206883000Y-120523000D01*
X206883000Y-118237000D01*
X206863000Y-118237000D01*
X206863000Y-117983000D01*
X206883000Y-117983000D01*
X206883000Y-115697000D01*
X206863000Y-115697000D01*
X206863000Y-115443000D01*
X206883000Y-115443000D01*
X206883000Y-113157000D01*
X206863000Y-113157000D01*
X206863000Y-112903000D01*
X206883000Y-112903000D01*
X206883000Y-110617000D01*
X206863000Y-110617000D01*
X206863000Y-110363000D01*
X206883000Y-110363000D01*
X206883000Y-108077000D01*
X206863000Y-108077000D01*
X206863000Y-107823000D01*
X206883000Y-107823000D01*
X206883000Y-105537000D01*
X206863000Y-105537000D01*
X206863000Y-105283000D01*
X206883000Y-105283000D01*
X206883000Y-102997000D01*
X204597000Y-102997000D01*
X204597000Y-103017000D01*
X204343000Y-103017000D01*
X204343000Y-102997000D01*
X203149845Y-102997000D01*
X203028524Y-103226890D01*
X203073175Y-103374099D01*
X203198359Y-103636920D01*
X203372412Y-103870269D01*
X203588645Y-104065178D01*
X203705534Y-104134805D01*
X203523368Y-104256525D01*
X203316525Y-104463368D01*
X203191822Y-104650000D01*
X200339802Y-104650000D01*
X199515000Y-103825199D01*
X199515000Y-100299802D01*
X200056201Y-100841003D01*
X200079999Y-100870001D01*
X200195724Y-100964974D01*
X200327753Y-101035546D01*
X200471014Y-101079003D01*
X200582667Y-101090000D01*
X200582675Y-101090000D01*
X200620000Y-101093676D01*
X200657325Y-101090000D01*
X203191822Y-101090000D01*
X203316525Y-101276632D01*
X203523368Y-101483475D01*
X203705534Y-101605195D01*
X203588645Y-101674822D01*
X203372412Y-101869731D01*
X203198359Y-102103080D01*
X203073175Y-102365901D01*
X203028524Y-102513110D01*
X203149845Y-102743000D01*
X204343000Y-102743000D01*
X204343000Y-102723000D01*
X204597000Y-102723000D01*
X204597000Y-102743000D01*
X206883000Y-102743000D01*
X206883000Y-100457000D01*
X206863000Y-100457000D01*
X206863000Y-100203000D01*
X206883000Y-100203000D01*
X206883000Y-97917000D01*
X204597000Y-97917000D01*
X204597000Y-97937000D01*
X204343000Y-97937000D01*
X204343000Y-97917000D01*
X203149845Y-97917000D01*
X203028524Y-98146890D01*
X203073175Y-98294099D01*
X203198359Y-98556920D01*
X203372412Y-98790269D01*
X203588645Y-98985178D01*
X203705534Y-99054805D01*
X203523368Y-99176525D01*
X203316525Y-99383368D01*
X203191822Y-99570000D01*
X200934802Y-99570000D01*
X200150000Y-98785199D01*
X200150000Y-95606890D01*
X203028524Y-95606890D01*
X203073175Y-95754099D01*
X203198359Y-96016920D01*
X203372412Y-96250269D01*
X203588645Y-96445178D01*
X203714255Y-96520000D01*
X203588645Y-96594822D01*
X203372412Y-96789731D01*
X203198359Y-97023080D01*
X203073175Y-97285901D01*
X203028524Y-97433110D01*
X203149845Y-97663000D01*
X204343000Y-97663000D01*
X204343000Y-95377000D01*
X204597000Y-95377000D01*
X204597000Y-97663000D01*
X206883000Y-97663000D01*
X206883000Y-95377000D01*
X204597000Y-95377000D01*
X204343000Y-95377000D01*
X203149845Y-95377000D01*
X203028524Y-95606890D01*
X200150000Y-95606890D01*
X200150000Y-87986890D01*
X203028524Y-87986890D01*
X203073175Y-88134099D01*
X203198359Y-88396920D01*
X203372412Y-88630269D01*
X203588645Y-88825178D01*
X203714255Y-88900000D01*
X203588645Y-88974822D01*
X203372412Y-89169731D01*
X203198359Y-89403080D01*
X203073175Y-89665901D01*
X203028524Y-89813110D01*
X203149845Y-90043000D01*
X204343000Y-90043000D01*
X204343000Y-87757000D01*
X204597000Y-87757000D01*
X204597000Y-90043000D01*
X206883000Y-90043000D01*
X206883000Y-87757000D01*
X204597000Y-87757000D01*
X204343000Y-87757000D01*
X203149845Y-87757000D01*
X203028524Y-87986890D01*
X200150000Y-87986890D01*
X200150000Y-87667322D01*
X200153676Y-87629999D01*
X200150000Y-87592676D01*
X200150000Y-87592667D01*
X200139003Y-87481014D01*
X200095546Y-87337753D01*
X200024974Y-87205724D01*
X199991229Y-87164605D01*
X199953799Y-87118996D01*
X199953795Y-87118992D01*
X199930001Y-87089999D01*
X199901009Y-87066206D01*
X198281693Y-85446890D01*
X203028524Y-85446890D01*
X203073175Y-85594099D01*
X203198359Y-85856920D01*
X203372412Y-86090269D01*
X203588645Y-86285178D01*
X203714255Y-86360000D01*
X203588645Y-86434822D01*
X203372412Y-86629731D01*
X203198359Y-86863080D01*
X203073175Y-87125901D01*
X203028524Y-87273110D01*
X203149845Y-87503000D01*
X204343000Y-87503000D01*
X204343000Y-85217000D01*
X204597000Y-85217000D01*
X204597000Y-87503000D01*
X206883000Y-87503000D01*
X206883000Y-85217000D01*
X204597000Y-85217000D01*
X204343000Y-85217000D01*
X203149845Y-85217000D01*
X203028524Y-85446890D01*
X198281693Y-85446890D01*
X195154802Y-82320001D01*
X198085200Y-82320001D01*
X198826201Y-83061003D01*
X198849999Y-83090001D01*
X198878997Y-83113799D01*
X198965723Y-83184974D01*
X199079155Y-83245605D01*
X199097753Y-83255546D01*
X199241014Y-83299003D01*
X199352667Y-83310000D01*
X199352677Y-83310000D01*
X199389999Y-83313676D01*
X199427322Y-83310000D01*
X203191822Y-83310000D01*
X203316525Y-83496632D01*
X203523368Y-83703475D01*
X203705534Y-83825195D01*
X203588645Y-83894822D01*
X203372412Y-84089731D01*
X203198359Y-84323080D01*
X203073175Y-84585901D01*
X203028524Y-84733110D01*
X203149845Y-84963000D01*
X204343000Y-84963000D01*
X204343000Y-84943000D01*
X204597000Y-84943000D01*
X204597000Y-84963000D01*
X206883000Y-84963000D01*
X206883000Y-82677000D01*
X206863000Y-82677000D01*
X206863000Y-82423000D01*
X206883000Y-82423000D01*
X206883000Y-80137000D01*
X206863000Y-80137000D01*
X206863000Y-79883000D01*
X206883000Y-79883000D01*
X206883000Y-77597000D01*
X206863000Y-77597000D01*
X206863000Y-77343000D01*
X206883000Y-77343000D01*
X206883000Y-75057000D01*
X206863000Y-75057000D01*
X206863000Y-74803000D01*
X206883000Y-74803000D01*
X206883000Y-72517000D01*
X206863000Y-72517000D01*
X206863000Y-72263000D01*
X206883000Y-72263000D01*
X206883000Y-69977000D01*
X206863000Y-69977000D01*
X206863000Y-69723000D01*
X206883000Y-69723000D01*
X206883000Y-67437000D01*
X206863000Y-67437000D01*
X206863000Y-67183000D01*
X206883000Y-67183000D01*
X206883000Y-64897000D01*
X206863000Y-64897000D01*
X206863000Y-64643000D01*
X206883000Y-64643000D01*
X206883000Y-62357000D01*
X206863000Y-62357000D01*
X206863000Y-62103000D01*
X206883000Y-62103000D01*
X206883000Y-60903750D01*
X206724250Y-60745000D01*
X206160000Y-60741928D01*
X206035518Y-60754188D01*
X205915820Y-60790498D01*
X205805506Y-60849463D01*
X205708815Y-60928815D01*
X205629463Y-61025506D01*
X205570498Y-61135820D01*
X205548487Y-61208380D01*
X205416632Y-61076525D01*
X205173411Y-60914010D01*
X204903158Y-60802068D01*
X204616260Y-60745000D01*
X204323740Y-60745000D01*
X204036842Y-60802068D01*
X203766589Y-60914010D01*
X203523368Y-61076525D01*
X203316525Y-61283368D01*
X203191822Y-61470000D01*
X199427325Y-61470000D01*
X199390000Y-61466324D01*
X199352675Y-61470000D01*
X199352667Y-61470000D01*
X199241014Y-61480997D01*
X199097753Y-61524454D01*
X198965724Y-61595026D01*
X198849999Y-61689999D01*
X198826201Y-61718997D01*
X189905198Y-70640001D01*
X179140926Y-70640001D01*
X179141000Y-70639687D01*
X179149495Y-70396562D01*
X179110395Y-70156451D01*
X179025202Y-69928582D01*
X178984348Y-69852148D01*
X178760764Y-69804841D01*
X178090605Y-70475000D01*
X178104748Y-70489143D01*
X177953889Y-70640001D01*
X177868111Y-70640001D01*
X177717253Y-70489143D01*
X177731395Y-70475000D01*
X177717253Y-70460858D01*
X177896858Y-70281253D01*
X177911000Y-70295395D01*
X178581159Y-69625236D01*
X178533852Y-69401652D01*
X178312484Y-69300763D01*
X178075687Y-69245000D01*
X177832562Y-69236505D01*
X177592451Y-69275605D01*
X177364582Y-69360798D01*
X177288148Y-69401652D01*
X177240842Y-69625234D01*
X177192262Y-69576654D01*
X177241000Y-69369687D01*
X177249495Y-69126562D01*
X177210395Y-68886451D01*
X177191009Y-68834599D01*
X177240842Y-68784766D01*
X177288148Y-69008348D01*
X177509516Y-69109237D01*
X177746313Y-69165000D01*
X177989438Y-69173495D01*
X178229549Y-69134395D01*
X178457418Y-69049202D01*
X178533852Y-69008348D01*
X178581159Y-68784764D01*
X177911000Y-68114605D01*
X177896858Y-68128748D01*
X177717253Y-67949143D01*
X177731395Y-67935000D01*
X178090605Y-67935000D01*
X178760764Y-68605159D01*
X178984348Y-68557852D01*
X179085237Y-68336484D01*
X179141000Y-68099687D01*
X179149495Y-67856562D01*
X179110395Y-67616451D01*
X179025202Y-67388582D01*
X178984348Y-67312148D01*
X178760764Y-67264841D01*
X178090605Y-67935000D01*
X177731395Y-67935000D01*
X177717253Y-67920858D01*
X177896858Y-67741253D01*
X177911000Y-67755395D01*
X178581159Y-67085236D01*
X178533852Y-66861652D01*
X178312484Y-66760763D01*
X178075687Y-66705000D01*
X177832562Y-66696505D01*
X177592451Y-66735605D01*
X177364582Y-66820798D01*
X177288148Y-66861652D01*
X177240842Y-67085234D01*
X177192262Y-67036654D01*
X177241000Y-66829687D01*
X177249495Y-66586562D01*
X177210395Y-66346451D01*
X177191009Y-66294599D01*
X177240842Y-66244766D01*
X177288148Y-66468348D01*
X177509516Y-66569237D01*
X177746313Y-66625000D01*
X177989438Y-66633495D01*
X178229549Y-66594395D01*
X178457418Y-66509202D01*
X178533852Y-66468348D01*
X178581159Y-66244764D01*
X177911000Y-65574605D01*
X177896858Y-65588748D01*
X177717253Y-65409143D01*
X177731395Y-65395000D01*
X178090605Y-65395000D01*
X178760764Y-66065159D01*
X178984348Y-66017852D01*
X179085237Y-65796484D01*
X179141000Y-65559687D01*
X179149495Y-65316562D01*
X179110395Y-65076451D01*
X179025202Y-64848582D01*
X178984348Y-64772148D01*
X178760764Y-64724841D01*
X178090605Y-65395000D01*
X177731395Y-65395000D01*
X177717253Y-65380858D01*
X177896858Y-65201253D01*
X177911000Y-65215395D01*
X178581159Y-64545236D01*
X178533852Y-64321652D01*
X178312484Y-64220763D01*
X178075687Y-64165000D01*
X177832562Y-64156505D01*
X177592451Y-64195605D01*
X177364582Y-64280798D01*
X177288148Y-64321652D01*
X177240842Y-64545234D01*
X177192262Y-64496654D01*
X177241000Y-64289687D01*
X177249495Y-64046562D01*
X177222408Y-63880219D01*
X177326008Y-63949443D01*
X177550764Y-64042540D01*
X177789363Y-64090000D01*
X178032637Y-64090000D01*
X178271236Y-64042540D01*
X178495992Y-63949443D01*
X178698267Y-63814287D01*
X178870287Y-63642267D01*
X179005443Y-63439992D01*
X179098540Y-63215236D01*
X179146000Y-62976637D01*
X179146000Y-62733363D01*
X179098540Y-62494764D01*
X179005443Y-62270008D01*
X178870287Y-62067733D01*
X178698267Y-61895713D01*
X178495992Y-61760557D01*
X178271236Y-61667460D01*
X178032637Y-61620000D01*
X177789363Y-61620000D01*
X177550764Y-61667460D01*
X177326008Y-61760557D01*
X177221367Y-61830476D01*
X177246000Y-61706637D01*
X177246000Y-61463363D01*
X177221367Y-61339524D01*
X177326008Y-61409443D01*
X177550764Y-61502540D01*
X177789363Y-61550000D01*
X178032637Y-61550000D01*
X178271236Y-61502540D01*
X178495992Y-61409443D01*
X178698267Y-61274287D01*
X178870287Y-61102267D01*
X179005443Y-60899992D01*
X179098540Y-60675236D01*
X179146000Y-60436637D01*
X179146000Y-60193363D01*
X179098540Y-59954764D01*
X179080003Y-59910011D01*
X190367667Y-59910011D01*
X190404989Y-59913687D01*
X190442311Y-59910011D01*
X190442322Y-59910011D01*
X190553975Y-59899014D01*
X190697236Y-59855557D01*
X190829265Y-59784985D01*
X190944990Y-59690012D01*
X190968793Y-59661008D01*
X192281003Y-58348799D01*
X192310001Y-58325001D01*
X192355973Y-58268984D01*
X192404974Y-58209277D01*
X192475546Y-58077247D01*
X192500859Y-57993800D01*
X192519003Y-57933986D01*
X192530000Y-57822333D01*
X192530000Y-57822324D01*
X192533676Y-57785001D01*
X192530000Y-57747678D01*
X192530000Y-42763072D01*
X192620000Y-42763072D01*
X192744482Y-42750812D01*
X192864180Y-42714502D01*
X192974494Y-42655537D01*
X193071185Y-42576185D01*
X193150537Y-42479494D01*
X193209502Y-42369180D01*
X193245812Y-42249482D01*
X193258072Y-42125000D01*
X193258072Y-40425000D01*
X193245812Y-40300518D01*
X193209502Y-40180820D01*
X193150537Y-40070506D01*
X193071185Y-39973815D01*
X192974494Y-39894463D01*
X192864180Y-39835498D01*
X192791620Y-39813487D01*
X192923475Y-39681632D01*
X193085990Y-39438411D01*
X193197932Y-39168158D01*
X193255000Y-38881260D01*
X193255000Y-38588740D01*
X193197932Y-38301842D01*
X193085990Y-38031589D01*
X192923475Y-37788368D01*
X192716632Y-37581525D01*
X192473411Y-37419010D01*
X192203158Y-37307068D01*
X191916260Y-37250000D01*
X191623740Y-37250000D01*
X191336842Y-37307068D01*
X191066589Y-37419010D01*
X190823368Y-37581525D01*
X190616525Y-37788368D01*
X190500000Y-37962760D01*
X190383475Y-37788368D01*
X190176632Y-37581525D01*
X189933411Y-37419010D01*
X189663158Y-37307068D01*
X189376260Y-37250000D01*
X189083740Y-37250000D01*
X188796842Y-37307068D01*
X188526589Y-37419010D01*
X188283368Y-37581525D01*
X188076525Y-37788368D01*
X187954805Y-37970534D01*
X187885178Y-37853645D01*
X187690269Y-37637412D01*
X187456920Y-37463359D01*
X187194099Y-37338175D01*
X187046890Y-37293524D01*
X186817000Y-37414845D01*
X186817000Y-38608000D01*
X186837000Y-38608000D01*
X186837000Y-38862000D01*
X186817000Y-38862000D01*
X186817000Y-38882000D01*
X186563000Y-38882000D01*
X186563000Y-38862000D01*
X184277000Y-38862000D01*
X184277000Y-38882000D01*
X184023000Y-38882000D01*
X184023000Y-38862000D01*
X181737000Y-38862000D01*
X181737000Y-38882000D01*
X181483000Y-38882000D01*
X181483000Y-38862000D01*
X179197000Y-38862000D01*
X179197000Y-38882000D01*
X178943000Y-38882000D01*
X178943000Y-38862000D01*
X176657000Y-38862000D01*
X176657000Y-38882000D01*
X176403000Y-38882000D01*
X176403000Y-38862000D01*
X174117000Y-38862000D01*
X174117000Y-38882000D01*
X173863000Y-38882000D01*
X173863000Y-38862000D01*
X172669186Y-38862000D01*
X172548519Y-39091891D01*
X172645843Y-39366252D01*
X172794822Y-39616355D01*
X172989731Y-39832588D01*
X173219406Y-40003900D01*
X173043368Y-40121525D01*
X172836525Y-40328368D01*
X172674010Y-40571589D01*
X172562068Y-40841842D01*
X172505000Y-41128740D01*
X172505000Y-41421260D01*
X172548790Y-41641408D01*
X171699998Y-42490201D01*
X171671000Y-42513999D01*
X171647202Y-42542997D01*
X171647201Y-42542998D01*
X171576026Y-42629724D01*
X171505454Y-42761754D01*
X171461998Y-42905015D01*
X171447324Y-43054000D01*
X171451001Y-43091332D01*
X171451000Y-55527494D01*
X171423733Y-55545713D01*
X171251713Y-55717733D01*
X171116557Y-55920008D01*
X171023460Y-56144764D01*
X170976000Y-56383363D01*
X170976000Y-56626637D01*
X171023460Y-56865236D01*
X171116557Y-57089992D01*
X171251713Y-57292267D01*
X171423733Y-57464287D01*
X171626008Y-57599443D01*
X171850764Y-57692540D01*
X172089363Y-57740000D01*
X172332637Y-57740000D01*
X172571236Y-57692540D01*
X172795992Y-57599443D01*
X172900633Y-57529524D01*
X172876000Y-57653363D01*
X172876000Y-57896637D01*
X172900633Y-58020476D01*
X172795992Y-57950557D01*
X172571236Y-57857460D01*
X172332637Y-57810000D01*
X172089363Y-57810000D01*
X171850764Y-57857460D01*
X171626008Y-57950557D01*
X171423733Y-58085713D01*
X171251713Y-58257733D01*
X171116557Y-58460008D01*
X171023460Y-58684764D01*
X170976000Y-58923363D01*
X170976000Y-59166637D01*
X171023460Y-59405236D01*
X171116557Y-59629992D01*
X171251713Y-59832267D01*
X171423733Y-60004287D01*
X171626008Y-60139443D01*
X171850764Y-60232540D01*
X172089363Y-60280000D01*
X172332637Y-60280000D01*
X172571236Y-60232540D01*
X172795992Y-60139443D01*
X172900633Y-60069524D01*
X172876000Y-60193363D01*
X172876000Y-60436637D01*
X172900633Y-60560476D01*
X172795992Y-60490557D01*
X172571236Y-60397460D01*
X172332637Y-60350000D01*
X172089363Y-60350000D01*
X171850764Y-60397460D01*
X171626008Y-60490557D01*
X171423733Y-60625713D01*
X171251713Y-60797733D01*
X171116557Y-61000008D01*
X171064016Y-61126852D01*
X170847862Y-61343007D01*
X170847857Y-61343011D01*
X170660000Y-61530868D01*
X170660000Y-38378109D01*
X172548519Y-38378109D01*
X172669186Y-38608000D01*
X173863000Y-38608000D01*
X173863000Y-37414845D01*
X174117000Y-37414845D01*
X174117000Y-38608000D01*
X176403000Y-38608000D01*
X176403000Y-37414845D01*
X176657000Y-37414845D01*
X176657000Y-38608000D01*
X178943000Y-38608000D01*
X178943000Y-37414845D01*
X179197000Y-37414845D01*
X179197000Y-38608000D01*
X181483000Y-38608000D01*
X181483000Y-37414845D01*
X181737000Y-37414845D01*
X181737000Y-38608000D01*
X184023000Y-38608000D01*
X184023000Y-37414845D01*
X184277000Y-37414845D01*
X184277000Y-38608000D01*
X186563000Y-38608000D01*
X186563000Y-37414845D01*
X186333110Y-37293524D01*
X186185901Y-37338175D01*
X185923080Y-37463359D01*
X185689731Y-37637412D01*
X185494822Y-37853645D01*
X185420000Y-37979255D01*
X185345178Y-37853645D01*
X185150269Y-37637412D01*
X184916920Y-37463359D01*
X184654099Y-37338175D01*
X184506890Y-37293524D01*
X184277000Y-37414845D01*
X184023000Y-37414845D01*
X183793110Y-37293524D01*
X183645901Y-37338175D01*
X183383080Y-37463359D01*
X183149731Y-37637412D01*
X182954822Y-37853645D01*
X182880000Y-37979255D01*
X182805178Y-37853645D01*
X182610269Y-37637412D01*
X182376920Y-37463359D01*
X182114099Y-37338175D01*
X181966890Y-37293524D01*
X181737000Y-37414845D01*
X181483000Y-37414845D01*
X181253110Y-37293524D01*
X181105901Y-37338175D01*
X180843080Y-37463359D01*
X180609731Y-37637412D01*
X180414822Y-37853645D01*
X180340000Y-37979255D01*
X180265178Y-37853645D01*
X180070269Y-37637412D01*
X179836920Y-37463359D01*
X179574099Y-37338175D01*
X179426890Y-37293524D01*
X179197000Y-37414845D01*
X178943000Y-37414845D01*
X178713110Y-37293524D01*
X178565901Y-37338175D01*
X178303080Y-37463359D01*
X178069731Y-37637412D01*
X177874822Y-37853645D01*
X177800000Y-37979255D01*
X177725178Y-37853645D01*
X177530269Y-37637412D01*
X177296920Y-37463359D01*
X177034099Y-37338175D01*
X176886890Y-37293524D01*
X176657000Y-37414845D01*
X176403000Y-37414845D01*
X176173110Y-37293524D01*
X176025901Y-37338175D01*
X175763080Y-37463359D01*
X175529731Y-37637412D01*
X175334822Y-37853645D01*
X175260000Y-37979255D01*
X175185178Y-37853645D01*
X174990269Y-37637412D01*
X174756920Y-37463359D01*
X174494099Y-37338175D01*
X174346890Y-37293524D01*
X174117000Y-37414845D01*
X173863000Y-37414845D01*
X173633110Y-37293524D01*
X173485901Y-37338175D01*
X173223080Y-37463359D01*
X172989731Y-37637412D01*
X172794822Y-37853645D01*
X172645843Y-38103748D01*
X172548519Y-38378109D01*
X170660000Y-38378109D01*
X170660000Y-35660000D01*
X194340000Y-35660000D01*
X194340001Y-59467571D01*
G36*
X195651201Y-121161003D02*
G01*
X195674999Y-121190001D01*
X195790724Y-121284974D01*
X195922753Y-121355546D01*
X196066014Y-121399003D01*
X196177667Y-121410000D01*
X196177676Y-121410000D01*
X196214999Y-121413676D01*
X196252322Y-121410000D01*
X203191822Y-121410000D01*
X203316525Y-121596632D01*
X203523368Y-121803475D01*
X203697760Y-121920000D01*
X203523368Y-122036525D01*
X203316525Y-122243368D01*
X203191822Y-122430000D01*
X195894802Y-122430000D01*
X195070000Y-121605199D01*
X195070000Y-120579802D01*
X195651201Y-121161003D01*
G37*
X195651201Y-121161003D02*
X195674999Y-121190001D01*
X195790724Y-121284974D01*
X195922753Y-121355546D01*
X196066014Y-121399003D01*
X196177667Y-121410000D01*
X196177676Y-121410000D01*
X196214999Y-121413676D01*
X196252322Y-121410000D01*
X203191822Y-121410000D01*
X203316525Y-121596632D01*
X203523368Y-121803475D01*
X203697760Y-121920000D01*
X203523368Y-122036525D01*
X203316525Y-122243368D01*
X203191822Y-122430000D01*
X195894802Y-122430000D01*
X195070000Y-121605199D01*
X195070000Y-120579802D01*
X195651201Y-121161003D01*
G36*
X196286201Y-118621003D02*
G01*
X196309999Y-118650001D01*
X196425724Y-118744974D01*
X196557753Y-118815546D01*
X196701014Y-118859003D01*
X196812667Y-118870000D01*
X196812676Y-118870000D01*
X196849999Y-118873676D01*
X196887322Y-118870000D01*
X203191822Y-118870000D01*
X203316525Y-119056632D01*
X203523368Y-119263475D01*
X203697760Y-119380000D01*
X203523368Y-119496525D01*
X203316525Y-119703368D01*
X203191822Y-119890000D01*
X196529802Y-119890000D01*
X195705000Y-119065199D01*
X195705000Y-118039802D01*
X196286201Y-118621003D01*
G37*
X196286201Y-118621003D02*
X196309999Y-118650001D01*
X196425724Y-118744974D01*
X196557753Y-118815546D01*
X196701014Y-118859003D01*
X196812667Y-118870000D01*
X196812676Y-118870000D01*
X196849999Y-118873676D01*
X196887322Y-118870000D01*
X203191822Y-118870000D01*
X203316525Y-119056632D01*
X203523368Y-119263475D01*
X203697760Y-119380000D01*
X203523368Y-119496525D01*
X203316525Y-119703368D01*
X203191822Y-119890000D01*
X196529802Y-119890000D01*
X195705000Y-119065199D01*
X195705000Y-118039802D01*
X196286201Y-118621003D01*
G36*
X196921201Y-116081003D02*
G01*
X196944999Y-116110001D01*
X197060724Y-116204974D01*
X197192753Y-116275546D01*
X197336014Y-116319003D01*
X197447667Y-116330000D01*
X197447676Y-116330000D01*
X197484999Y-116333676D01*
X197522322Y-116330000D01*
X203191822Y-116330000D01*
X203316525Y-116516632D01*
X203523368Y-116723475D01*
X203697760Y-116840000D01*
X203523368Y-116956525D01*
X203316525Y-117163368D01*
X203191822Y-117350000D01*
X197164802Y-117350000D01*
X196340000Y-116525199D01*
X196340000Y-115499802D01*
X196921201Y-116081003D01*
G37*
X196921201Y-116081003D02*
X196944999Y-116110001D01*
X197060724Y-116204974D01*
X197192753Y-116275546D01*
X197336014Y-116319003D01*
X197447667Y-116330000D01*
X197447676Y-116330000D01*
X197484999Y-116333676D01*
X197522322Y-116330000D01*
X203191822Y-116330000D01*
X203316525Y-116516632D01*
X203523368Y-116723475D01*
X203697760Y-116840000D01*
X203523368Y-116956525D01*
X203316525Y-117163368D01*
X203191822Y-117350000D01*
X197164802Y-117350000D01*
X196340000Y-116525199D01*
X196340000Y-115499802D01*
X196921201Y-116081003D01*
G36*
X178104748Y-93320858D02*
G01*
X178090605Y-93335000D01*
X178760764Y-94005159D01*
X178984348Y-93957852D01*
X179085237Y-93736484D01*
X179141000Y-93499687D01*
X179149495Y-93256562D01*
X179135399Y-93169999D01*
X188615198Y-93169999D01*
X193550000Y-98104803D01*
X193550000Y-99950639D01*
X193476447Y-99911324D01*
X193262499Y-99846423D01*
X193095752Y-99830000D01*
X193095751Y-99830000D01*
X193040000Y-99824509D01*
X192984249Y-99830000D01*
X192474288Y-99830000D01*
X192402359Y-99781939D01*
X192159405Y-99681304D01*
X191901486Y-99630000D01*
X191638514Y-99630000D01*
X191380595Y-99681304D01*
X191137641Y-99781939D01*
X191065712Y-99830000D01*
X189299288Y-99830000D01*
X189227359Y-99781939D01*
X188984405Y-99681304D01*
X188726486Y-99630000D01*
X188463514Y-99630000D01*
X188205595Y-99681304D01*
X187962641Y-99781939D01*
X187890712Y-99830000D01*
X186124288Y-99830000D01*
X186052359Y-99781939D01*
X185809405Y-99681304D01*
X185551486Y-99630000D01*
X185288514Y-99630000D01*
X185030595Y-99681304D01*
X184787641Y-99781939D01*
X184715712Y-99830000D01*
X182949288Y-99830000D01*
X182877359Y-99781939D01*
X182634405Y-99681304D01*
X182376486Y-99630000D01*
X182113514Y-99630000D01*
X181855595Y-99681304D01*
X181612641Y-99781939D01*
X181393987Y-99928038D01*
X181208038Y-100113987D01*
X181061939Y-100332641D01*
X180961304Y-100575595D01*
X180910000Y-100833514D01*
X180910000Y-101096486D01*
X180961304Y-101354405D01*
X181061939Y-101597359D01*
X181208038Y-101816013D01*
X181393987Y-102001962D01*
X181612641Y-102148061D01*
X181855595Y-102248696D01*
X182113514Y-102300000D01*
X182376486Y-102300000D01*
X182634405Y-102248696D01*
X182877359Y-102148061D01*
X182949288Y-102100000D01*
X184715712Y-102100000D01*
X184787641Y-102148061D01*
X185030595Y-102248696D01*
X185288514Y-102300000D01*
X185551486Y-102300000D01*
X185809405Y-102248696D01*
X186052359Y-102148061D01*
X186124288Y-102100000D01*
X187890712Y-102100000D01*
X187962641Y-102148061D01*
X188205595Y-102248696D01*
X188463514Y-102300000D01*
X188726486Y-102300000D01*
X188984405Y-102248696D01*
X189227359Y-102148061D01*
X189299288Y-102100000D01*
X191065712Y-102100000D01*
X191137641Y-102148061D01*
X191380595Y-102248696D01*
X191638514Y-102300000D01*
X191901486Y-102300000D01*
X192035002Y-102273442D01*
X192035002Y-104736558D01*
X191901486Y-104710000D01*
X191638514Y-104710000D01*
X191380595Y-104761304D01*
X191137641Y-104861939D01*
X190918987Y-105008038D01*
X190733038Y-105193987D01*
X190586939Y-105412641D01*
X190486304Y-105655595D01*
X190435000Y-105913514D01*
X190435000Y-106176486D01*
X190486304Y-106434405D01*
X190586939Y-106677359D01*
X190733038Y-106896013D01*
X190918987Y-107081962D01*
X191137641Y-107228061D01*
X191380595Y-107328696D01*
X191638514Y-107380000D01*
X191901486Y-107380000D01*
X192035002Y-107353442D01*
X192035001Y-116239866D01*
X190934323Y-117340545D01*
X190705355Y-117295000D01*
X190294645Y-117295000D01*
X190065677Y-117340545D01*
X189191995Y-116466863D01*
X189156448Y-116423550D01*
X188983622Y-116281715D01*
X188786446Y-116176323D01*
X188572498Y-116111422D01*
X188405751Y-116094999D01*
X188405750Y-116094999D01*
X188349999Y-116089508D01*
X188294248Y-116094999D01*
X172310131Y-116094999D01*
X171950000Y-115734869D01*
X171950000Y-106003072D01*
X172811000Y-106003072D01*
X172935482Y-105990812D01*
X173055180Y-105954502D01*
X173165494Y-105895537D01*
X173262185Y-105816185D01*
X173341537Y-105719494D01*
X173400502Y-105609180D01*
X173436812Y-105489482D01*
X173449072Y-105365000D01*
X173449072Y-104538036D01*
X173526008Y-104589443D01*
X173750764Y-104682540D01*
X173989363Y-104730000D01*
X174232637Y-104730000D01*
X174471236Y-104682540D01*
X174695992Y-104589443D01*
X174800633Y-104519524D01*
X174776000Y-104643363D01*
X174776000Y-104886637D01*
X174823460Y-105125236D01*
X174916557Y-105349992D01*
X175051713Y-105552267D01*
X175223733Y-105724287D01*
X175426008Y-105859443D01*
X175618394Y-105939132D01*
X175485225Y-106138434D01*
X175339361Y-106490581D01*
X175265000Y-106864419D01*
X175265000Y-107245581D01*
X175339361Y-107619419D01*
X175397239Y-107759148D01*
X175200430Y-107720000D01*
X174799570Y-107720000D01*
X174406413Y-107798204D01*
X174036066Y-107951607D01*
X173702763Y-108174313D01*
X173419313Y-108457763D01*
X173196607Y-108791066D01*
X173043204Y-109161413D01*
X172965000Y-109554570D01*
X172965000Y-109955430D01*
X173043204Y-110348587D01*
X173196607Y-110718934D01*
X173419313Y-111052237D01*
X173702763Y-111335687D01*
X174036066Y-111558393D01*
X174406413Y-111711796D01*
X174799570Y-111790000D01*
X175200430Y-111790000D01*
X175593587Y-111711796D01*
X175963934Y-111558393D01*
X176297237Y-111335687D01*
X176580687Y-111052237D01*
X176803393Y-110718934D01*
X176956796Y-110348587D01*
X177035000Y-109955430D01*
X177035000Y-109554570D01*
X176956796Y-109161413D01*
X176874694Y-108963202D01*
X177009419Y-108990000D01*
X177390581Y-108990000D01*
X177764419Y-108915639D01*
X178116566Y-108769775D01*
X178433491Y-108558013D01*
X178703013Y-108288491D01*
X178914775Y-107971566D01*
X179060639Y-107619419D01*
X179135000Y-107245581D01*
X179135000Y-106864419D01*
X179060639Y-106490581D01*
X178914775Y-106138434D01*
X178764489Y-105913514D01*
X180910000Y-105913514D01*
X180910000Y-106176486D01*
X180961304Y-106434405D01*
X181061939Y-106677359D01*
X181208038Y-106896013D01*
X181393987Y-107081962D01*
X181612641Y-107228061D01*
X181855595Y-107328696D01*
X182113514Y-107380000D01*
X182376486Y-107380000D01*
X182634405Y-107328696D01*
X182877359Y-107228061D01*
X183096013Y-107081962D01*
X183281962Y-106896013D01*
X183428061Y-106677359D01*
X183528696Y-106434405D01*
X183580000Y-106176486D01*
X183580000Y-105913514D01*
X184085000Y-105913514D01*
X184085000Y-106176486D01*
X184136304Y-106434405D01*
X184236939Y-106677359D01*
X184383038Y-106896013D01*
X184568987Y-107081962D01*
X184787641Y-107228061D01*
X185030595Y-107328696D01*
X185288514Y-107380000D01*
X185551486Y-107380000D01*
X185809405Y-107328696D01*
X186052359Y-107228061D01*
X186271013Y-107081962D01*
X186456962Y-106896013D01*
X186603061Y-106677359D01*
X186703696Y-106434405D01*
X186755000Y-106176486D01*
X186755000Y-105913514D01*
X187260000Y-105913514D01*
X187260000Y-106176486D01*
X187311304Y-106434405D01*
X187411939Y-106677359D01*
X187558038Y-106896013D01*
X187743987Y-107081962D01*
X187962641Y-107228061D01*
X188205595Y-107328696D01*
X188463514Y-107380000D01*
X188726486Y-107380000D01*
X188984405Y-107328696D01*
X189227359Y-107228061D01*
X189446013Y-107081962D01*
X189631962Y-106896013D01*
X189778061Y-106677359D01*
X189878696Y-106434405D01*
X189930000Y-106176486D01*
X189930000Y-105913514D01*
X189878696Y-105655595D01*
X189778061Y-105412641D01*
X189631962Y-105193987D01*
X189446013Y-105008038D01*
X189227359Y-104861939D01*
X188984405Y-104761304D01*
X188726486Y-104710000D01*
X188463514Y-104710000D01*
X188205595Y-104761304D01*
X187962641Y-104861939D01*
X187743987Y-105008038D01*
X187558038Y-105193987D01*
X187411939Y-105412641D01*
X187311304Y-105655595D01*
X187260000Y-105913514D01*
X186755000Y-105913514D01*
X186703696Y-105655595D01*
X186603061Y-105412641D01*
X186456962Y-105193987D01*
X186271013Y-105008038D01*
X186052359Y-104861939D01*
X185809405Y-104761304D01*
X185551486Y-104710000D01*
X185288514Y-104710000D01*
X185030595Y-104761304D01*
X184787641Y-104861939D01*
X184568987Y-105008038D01*
X184383038Y-105193987D01*
X184236939Y-105412641D01*
X184136304Y-105655595D01*
X184085000Y-105913514D01*
X183580000Y-105913514D01*
X183528696Y-105655595D01*
X183428061Y-105412641D01*
X183281962Y-105193987D01*
X183096013Y-105008038D01*
X182877359Y-104861939D01*
X182634405Y-104761304D01*
X182376486Y-104710000D01*
X182113514Y-104710000D01*
X181855595Y-104761304D01*
X181612641Y-104861939D01*
X181393987Y-105008038D01*
X181208038Y-105193987D01*
X181061939Y-105412641D01*
X180961304Y-105655595D01*
X180910000Y-105913514D01*
X178764489Y-105913514D01*
X178703013Y-105821509D01*
X178433491Y-105551987D01*
X178116566Y-105340225D01*
X177764419Y-105194361D01*
X177390581Y-105120000D01*
X177199581Y-105120000D01*
X177246000Y-104886637D01*
X177246000Y-104643363D01*
X177221367Y-104519524D01*
X177326008Y-104589443D01*
X177550764Y-104682540D01*
X177789363Y-104730000D01*
X178032637Y-104730000D01*
X178271236Y-104682540D01*
X178495992Y-104589443D01*
X178698267Y-104454287D01*
X178870287Y-104282267D01*
X179005443Y-104079992D01*
X179098540Y-103855236D01*
X179146000Y-103616637D01*
X179146000Y-103373363D01*
X179098540Y-103134764D01*
X179005443Y-102910008D01*
X178870287Y-102707733D01*
X178698267Y-102535713D01*
X178495992Y-102400557D01*
X178271236Y-102307460D01*
X178032637Y-102260000D01*
X177789363Y-102260000D01*
X177550764Y-102307460D01*
X177326008Y-102400557D01*
X177221367Y-102470476D01*
X177246000Y-102346637D01*
X177246000Y-102103363D01*
X177221367Y-101979524D01*
X177326008Y-102049443D01*
X177550764Y-102142540D01*
X177789363Y-102190000D01*
X178032637Y-102190000D01*
X178271236Y-102142540D01*
X178495992Y-102049443D01*
X178698267Y-101914287D01*
X178870287Y-101742267D01*
X179005443Y-101539992D01*
X179098540Y-101315236D01*
X179146000Y-101076637D01*
X179146000Y-100833363D01*
X179098540Y-100594764D01*
X179005443Y-100370008D01*
X178870287Y-100167733D01*
X178698267Y-99995713D01*
X178495992Y-99860557D01*
X178271236Y-99767460D01*
X178032637Y-99720000D01*
X177789363Y-99720000D01*
X177550764Y-99767460D01*
X177326008Y-99860557D01*
X177221367Y-99930476D01*
X177246000Y-99806637D01*
X177246000Y-99563363D01*
X177198540Y-99324764D01*
X177193357Y-99312251D01*
X177240842Y-99264766D01*
X177288148Y-99488348D01*
X177509516Y-99589237D01*
X177746313Y-99645000D01*
X177989438Y-99653495D01*
X178229549Y-99614395D01*
X178457418Y-99529202D01*
X178533852Y-99488348D01*
X178581159Y-99264764D01*
X177911000Y-98594605D01*
X177896858Y-98608748D01*
X177717253Y-98429143D01*
X177731395Y-98415000D01*
X178090605Y-98415000D01*
X178760764Y-99085159D01*
X178984348Y-99037852D01*
X179085237Y-98816484D01*
X179141000Y-98579687D01*
X179149495Y-98336562D01*
X179110395Y-98096451D01*
X179025202Y-97868582D01*
X178984348Y-97792148D01*
X178760764Y-97744841D01*
X178090605Y-98415000D01*
X177731395Y-98415000D01*
X177717253Y-98400858D01*
X177896858Y-98221253D01*
X177911000Y-98235395D01*
X178581159Y-97565236D01*
X178533852Y-97341652D01*
X178312484Y-97240763D01*
X178075687Y-97185000D01*
X177832562Y-97176505D01*
X177592451Y-97215605D01*
X177364582Y-97300798D01*
X177288148Y-97341652D01*
X177240842Y-97565234D01*
X177192262Y-97516654D01*
X177241000Y-97309687D01*
X177249495Y-97066562D01*
X177210395Y-96826451D01*
X177191009Y-96774599D01*
X177240842Y-96724766D01*
X177288148Y-96948348D01*
X177509516Y-97049237D01*
X177746313Y-97105000D01*
X177989438Y-97113495D01*
X178229549Y-97074395D01*
X178457418Y-96989202D01*
X178533852Y-96948348D01*
X178581159Y-96724764D01*
X177911000Y-96054605D01*
X177896858Y-96068748D01*
X177717253Y-95889143D01*
X177731395Y-95875000D01*
X178090605Y-95875000D01*
X178760764Y-96545159D01*
X178984348Y-96497852D01*
X179085237Y-96276484D01*
X179141000Y-96039687D01*
X179149495Y-95796562D01*
X179110395Y-95556451D01*
X179025202Y-95328582D01*
X178984348Y-95252148D01*
X178760764Y-95204841D01*
X178090605Y-95875000D01*
X177731395Y-95875000D01*
X177717253Y-95860858D01*
X177896858Y-95681253D01*
X177911000Y-95695395D01*
X178581159Y-95025236D01*
X178533852Y-94801652D01*
X178312484Y-94700763D01*
X178075687Y-94645000D01*
X177832562Y-94636505D01*
X177592451Y-94675605D01*
X177364582Y-94760798D01*
X177288148Y-94801652D01*
X177240842Y-95025234D01*
X177192262Y-94976654D01*
X177241000Y-94769687D01*
X177249495Y-94526562D01*
X177210395Y-94286451D01*
X177191009Y-94234599D01*
X177240842Y-94184766D01*
X177288148Y-94408348D01*
X177509516Y-94509237D01*
X177746313Y-94565000D01*
X177989438Y-94573495D01*
X178229549Y-94534395D01*
X178457418Y-94449202D01*
X178533852Y-94408348D01*
X178581159Y-94184764D01*
X177911000Y-93514605D01*
X177896858Y-93528748D01*
X177717253Y-93349143D01*
X177731395Y-93335000D01*
X177717253Y-93320858D01*
X177868111Y-93169999D01*
X177953889Y-93169999D01*
X178104748Y-93320858D01*
G37*
X178104748Y-93320858D02*
X178090605Y-93335000D01*
X178760764Y-94005159D01*
X178984348Y-93957852D01*
X179085237Y-93736484D01*
X179141000Y-93499687D01*
X179149495Y-93256562D01*
X179135399Y-93169999D01*
X188615198Y-93169999D01*
X193550000Y-98104803D01*
X193550000Y-99950639D01*
X193476447Y-99911324D01*
X193262499Y-99846423D01*
X193095752Y-99830000D01*
X193095751Y-99830000D01*
X193040000Y-99824509D01*
X192984249Y-99830000D01*
X192474288Y-99830000D01*
X192402359Y-99781939D01*
X192159405Y-99681304D01*
X191901486Y-99630000D01*
X191638514Y-99630000D01*
X191380595Y-99681304D01*
X191137641Y-99781939D01*
X191065712Y-99830000D01*
X189299288Y-99830000D01*
X189227359Y-99781939D01*
X188984405Y-99681304D01*
X188726486Y-99630000D01*
X188463514Y-99630000D01*
X188205595Y-99681304D01*
X187962641Y-99781939D01*
X187890712Y-99830000D01*
X186124288Y-99830000D01*
X186052359Y-99781939D01*
X185809405Y-99681304D01*
X185551486Y-99630000D01*
X185288514Y-99630000D01*
X185030595Y-99681304D01*
X184787641Y-99781939D01*
X184715712Y-99830000D01*
X182949288Y-99830000D01*
X182877359Y-99781939D01*
X182634405Y-99681304D01*
X182376486Y-99630000D01*
X182113514Y-99630000D01*
X181855595Y-99681304D01*
X181612641Y-99781939D01*
X181393987Y-99928038D01*
X181208038Y-100113987D01*
X181061939Y-100332641D01*
X180961304Y-100575595D01*
X180910000Y-100833514D01*
X180910000Y-101096486D01*
X180961304Y-101354405D01*
X181061939Y-101597359D01*
X181208038Y-101816013D01*
X181393987Y-102001962D01*
X181612641Y-102148061D01*
X181855595Y-102248696D01*
X182113514Y-102300000D01*
X182376486Y-102300000D01*
X182634405Y-102248696D01*
X182877359Y-102148061D01*
X182949288Y-102100000D01*
X184715712Y-102100000D01*
X184787641Y-102148061D01*
X185030595Y-102248696D01*
X185288514Y-102300000D01*
X185551486Y-102300000D01*
X185809405Y-102248696D01*
X186052359Y-102148061D01*
X186124288Y-102100000D01*
X187890712Y-102100000D01*
X187962641Y-102148061D01*
X188205595Y-102248696D01*
X188463514Y-102300000D01*
X188726486Y-102300000D01*
X188984405Y-102248696D01*
X189227359Y-102148061D01*
X189299288Y-102100000D01*
X191065712Y-102100000D01*
X191137641Y-102148061D01*
X191380595Y-102248696D01*
X191638514Y-102300000D01*
X191901486Y-102300000D01*
X192035002Y-102273442D01*
X192035002Y-104736558D01*
X191901486Y-104710000D01*
X191638514Y-104710000D01*
X191380595Y-104761304D01*
X191137641Y-104861939D01*
X190918987Y-105008038D01*
X190733038Y-105193987D01*
X190586939Y-105412641D01*
X190486304Y-105655595D01*
X190435000Y-105913514D01*
X190435000Y-106176486D01*
X190486304Y-106434405D01*
X190586939Y-106677359D01*
X190733038Y-106896013D01*
X190918987Y-107081962D01*
X191137641Y-107228061D01*
X191380595Y-107328696D01*
X191638514Y-107380000D01*
X191901486Y-107380000D01*
X192035002Y-107353442D01*
X192035001Y-116239866D01*
X190934323Y-117340545D01*
X190705355Y-117295000D01*
X190294645Y-117295000D01*
X190065677Y-117340545D01*
X189191995Y-116466863D01*
X189156448Y-116423550D01*
X188983622Y-116281715D01*
X188786446Y-116176323D01*
X188572498Y-116111422D01*
X188405751Y-116094999D01*
X188405750Y-116094999D01*
X188349999Y-116089508D01*
X188294248Y-116094999D01*
X172310131Y-116094999D01*
X171950000Y-115734869D01*
X171950000Y-106003072D01*
X172811000Y-106003072D01*
X172935482Y-105990812D01*
X173055180Y-105954502D01*
X173165494Y-105895537D01*
X173262185Y-105816185D01*
X173341537Y-105719494D01*
X173400502Y-105609180D01*
X173436812Y-105489482D01*
X173449072Y-105365000D01*
X173449072Y-104538036D01*
X173526008Y-104589443D01*
X173750764Y-104682540D01*
X173989363Y-104730000D01*
X174232637Y-104730000D01*
X174471236Y-104682540D01*
X174695992Y-104589443D01*
X174800633Y-104519524D01*
X174776000Y-104643363D01*
X174776000Y-104886637D01*
X174823460Y-105125236D01*
X174916557Y-105349992D01*
X175051713Y-105552267D01*
X175223733Y-105724287D01*
X175426008Y-105859443D01*
X175618394Y-105939132D01*
X175485225Y-106138434D01*
X175339361Y-106490581D01*
X175265000Y-106864419D01*
X175265000Y-107245581D01*
X175339361Y-107619419D01*
X175397239Y-107759148D01*
X175200430Y-107720000D01*
X174799570Y-107720000D01*
X174406413Y-107798204D01*
X174036066Y-107951607D01*
X173702763Y-108174313D01*
X173419313Y-108457763D01*
X173196607Y-108791066D01*
X173043204Y-109161413D01*
X172965000Y-109554570D01*
X172965000Y-109955430D01*
X173043204Y-110348587D01*
X173196607Y-110718934D01*
X173419313Y-111052237D01*
X173702763Y-111335687D01*
X174036066Y-111558393D01*
X174406413Y-111711796D01*
X174799570Y-111790000D01*
X175200430Y-111790000D01*
X175593587Y-111711796D01*
X175963934Y-111558393D01*
X176297237Y-111335687D01*
X176580687Y-111052237D01*
X176803393Y-110718934D01*
X176956796Y-110348587D01*
X177035000Y-109955430D01*
X177035000Y-109554570D01*
X176956796Y-109161413D01*
X176874694Y-108963202D01*
X177009419Y-108990000D01*
X177390581Y-108990000D01*
X177764419Y-108915639D01*
X178116566Y-108769775D01*
X178433491Y-108558013D01*
X178703013Y-108288491D01*
X178914775Y-107971566D01*
X179060639Y-107619419D01*
X179135000Y-107245581D01*
X179135000Y-106864419D01*
X179060639Y-106490581D01*
X178914775Y-106138434D01*
X178764489Y-105913514D01*
X180910000Y-105913514D01*
X180910000Y-106176486D01*
X180961304Y-106434405D01*
X181061939Y-106677359D01*
X181208038Y-106896013D01*
X181393987Y-107081962D01*
X181612641Y-107228061D01*
X181855595Y-107328696D01*
X182113514Y-107380000D01*
X182376486Y-107380000D01*
X182634405Y-107328696D01*
X182877359Y-107228061D01*
X183096013Y-107081962D01*
X183281962Y-106896013D01*
X183428061Y-106677359D01*
X183528696Y-106434405D01*
X183580000Y-106176486D01*
X183580000Y-105913514D01*
X184085000Y-105913514D01*
X184085000Y-106176486D01*
X184136304Y-106434405D01*
X184236939Y-106677359D01*
X184383038Y-106896013D01*
X184568987Y-107081962D01*
X184787641Y-107228061D01*
X185030595Y-107328696D01*
X185288514Y-107380000D01*
X185551486Y-107380000D01*
X185809405Y-107328696D01*
X186052359Y-107228061D01*
X186271013Y-107081962D01*
X186456962Y-106896013D01*
X186603061Y-106677359D01*
X186703696Y-106434405D01*
X186755000Y-106176486D01*
X186755000Y-105913514D01*
X187260000Y-105913514D01*
X187260000Y-106176486D01*
X187311304Y-106434405D01*
X187411939Y-106677359D01*
X187558038Y-106896013D01*
X187743987Y-107081962D01*
X187962641Y-107228061D01*
X188205595Y-107328696D01*
X188463514Y-107380000D01*
X188726486Y-107380000D01*
X188984405Y-107328696D01*
X189227359Y-107228061D01*
X189446013Y-107081962D01*
X189631962Y-106896013D01*
X189778061Y-106677359D01*
X189878696Y-106434405D01*
X189930000Y-106176486D01*
X189930000Y-105913514D01*
X189878696Y-105655595D01*
X189778061Y-105412641D01*
X189631962Y-105193987D01*
X189446013Y-105008038D01*
X189227359Y-104861939D01*
X188984405Y-104761304D01*
X188726486Y-104710000D01*
X188463514Y-104710000D01*
X188205595Y-104761304D01*
X187962641Y-104861939D01*
X187743987Y-105008038D01*
X187558038Y-105193987D01*
X187411939Y-105412641D01*
X187311304Y-105655595D01*
X187260000Y-105913514D01*
X186755000Y-105913514D01*
X186703696Y-105655595D01*
X186603061Y-105412641D01*
X186456962Y-105193987D01*
X186271013Y-105008038D01*
X186052359Y-104861939D01*
X185809405Y-104761304D01*
X185551486Y-104710000D01*
X185288514Y-104710000D01*
X185030595Y-104761304D01*
X184787641Y-104861939D01*
X184568987Y-105008038D01*
X184383038Y-105193987D01*
X184236939Y-105412641D01*
X184136304Y-105655595D01*
X184085000Y-105913514D01*
X183580000Y-105913514D01*
X183528696Y-105655595D01*
X183428061Y-105412641D01*
X183281962Y-105193987D01*
X183096013Y-105008038D01*
X182877359Y-104861939D01*
X182634405Y-104761304D01*
X182376486Y-104710000D01*
X182113514Y-104710000D01*
X181855595Y-104761304D01*
X181612641Y-104861939D01*
X181393987Y-105008038D01*
X181208038Y-105193987D01*
X181061939Y-105412641D01*
X180961304Y-105655595D01*
X180910000Y-105913514D01*
X178764489Y-105913514D01*
X178703013Y-105821509D01*
X178433491Y-105551987D01*
X178116566Y-105340225D01*
X177764419Y-105194361D01*
X177390581Y-105120000D01*
X177199581Y-105120000D01*
X177246000Y-104886637D01*
X177246000Y-104643363D01*
X177221367Y-104519524D01*
X177326008Y-104589443D01*
X177550764Y-104682540D01*
X177789363Y-104730000D01*
X178032637Y-104730000D01*
X178271236Y-104682540D01*
X178495992Y-104589443D01*
X178698267Y-104454287D01*
X178870287Y-104282267D01*
X179005443Y-104079992D01*
X179098540Y-103855236D01*
X179146000Y-103616637D01*
X179146000Y-103373363D01*
X179098540Y-103134764D01*
X179005443Y-102910008D01*
X178870287Y-102707733D01*
X178698267Y-102535713D01*
X178495992Y-102400557D01*
X178271236Y-102307460D01*
X178032637Y-102260000D01*
X177789363Y-102260000D01*
X177550764Y-102307460D01*
X177326008Y-102400557D01*
X177221367Y-102470476D01*
X177246000Y-102346637D01*
X177246000Y-102103363D01*
X177221367Y-101979524D01*
X177326008Y-102049443D01*
X177550764Y-102142540D01*
X177789363Y-102190000D01*
X178032637Y-102190000D01*
X178271236Y-102142540D01*
X178495992Y-102049443D01*
X178698267Y-101914287D01*
X178870287Y-101742267D01*
X179005443Y-101539992D01*
X179098540Y-101315236D01*
X179146000Y-101076637D01*
X179146000Y-100833363D01*
X179098540Y-100594764D01*
X179005443Y-100370008D01*
X178870287Y-100167733D01*
X178698267Y-99995713D01*
X178495992Y-99860557D01*
X178271236Y-99767460D01*
X178032637Y-99720000D01*
X177789363Y-99720000D01*
X177550764Y-99767460D01*
X177326008Y-99860557D01*
X177221367Y-99930476D01*
X177246000Y-99806637D01*
X177246000Y-99563363D01*
X177198540Y-99324764D01*
X177193357Y-99312251D01*
X177240842Y-99264766D01*
X177288148Y-99488348D01*
X177509516Y-99589237D01*
X177746313Y-99645000D01*
X177989438Y-99653495D01*
X178229549Y-99614395D01*
X178457418Y-99529202D01*
X178533852Y-99488348D01*
X178581159Y-99264764D01*
X177911000Y-98594605D01*
X177896858Y-98608748D01*
X177717253Y-98429143D01*
X177731395Y-98415000D01*
X178090605Y-98415000D01*
X178760764Y-99085159D01*
X178984348Y-99037852D01*
X179085237Y-98816484D01*
X179141000Y-98579687D01*
X179149495Y-98336562D01*
X179110395Y-98096451D01*
X179025202Y-97868582D01*
X178984348Y-97792148D01*
X178760764Y-97744841D01*
X178090605Y-98415000D01*
X177731395Y-98415000D01*
X177717253Y-98400858D01*
X177896858Y-98221253D01*
X177911000Y-98235395D01*
X178581159Y-97565236D01*
X178533852Y-97341652D01*
X178312484Y-97240763D01*
X178075687Y-97185000D01*
X177832562Y-97176505D01*
X177592451Y-97215605D01*
X177364582Y-97300798D01*
X177288148Y-97341652D01*
X177240842Y-97565234D01*
X177192262Y-97516654D01*
X177241000Y-97309687D01*
X177249495Y-97066562D01*
X177210395Y-96826451D01*
X177191009Y-96774599D01*
X177240842Y-96724766D01*
X177288148Y-96948348D01*
X177509516Y-97049237D01*
X177746313Y-97105000D01*
X177989438Y-97113495D01*
X178229549Y-97074395D01*
X178457418Y-96989202D01*
X178533852Y-96948348D01*
X178581159Y-96724764D01*
X177911000Y-96054605D01*
X177896858Y-96068748D01*
X177717253Y-95889143D01*
X177731395Y-95875000D01*
X178090605Y-95875000D01*
X178760764Y-96545159D01*
X178984348Y-96497852D01*
X179085237Y-96276484D01*
X179141000Y-96039687D01*
X179149495Y-95796562D01*
X179110395Y-95556451D01*
X179025202Y-95328582D01*
X178984348Y-95252148D01*
X178760764Y-95204841D01*
X178090605Y-95875000D01*
X177731395Y-95875000D01*
X177717253Y-95860858D01*
X177896858Y-95681253D01*
X177911000Y-95695395D01*
X178581159Y-95025236D01*
X178533852Y-94801652D01*
X178312484Y-94700763D01*
X178075687Y-94645000D01*
X177832562Y-94636505D01*
X177592451Y-94675605D01*
X177364582Y-94760798D01*
X177288148Y-94801652D01*
X177240842Y-95025234D01*
X177192262Y-94976654D01*
X177241000Y-94769687D01*
X177249495Y-94526562D01*
X177210395Y-94286451D01*
X177191009Y-94234599D01*
X177240842Y-94184766D01*
X177288148Y-94408348D01*
X177509516Y-94509237D01*
X177746313Y-94565000D01*
X177989438Y-94573495D01*
X178229549Y-94534395D01*
X178457418Y-94449202D01*
X178533852Y-94408348D01*
X178581159Y-94184764D01*
X177911000Y-93514605D01*
X177896858Y-93528748D01*
X177717253Y-93349143D01*
X177731395Y-93335000D01*
X177717253Y-93320858D01*
X177868111Y-93169999D01*
X177953889Y-93169999D01*
X178104748Y-93320858D01*
G36*
X197556201Y-113541003D02*
G01*
X197579999Y-113570001D01*
X197695724Y-113664974D01*
X197827753Y-113735546D01*
X197971014Y-113779003D01*
X198082667Y-113790000D01*
X198082676Y-113790000D01*
X198119999Y-113793676D01*
X198157322Y-113790000D01*
X203191822Y-113790000D01*
X203316525Y-113976632D01*
X203523368Y-114183475D01*
X203697760Y-114300000D01*
X203523368Y-114416525D01*
X203316525Y-114623368D01*
X203191822Y-114810000D01*
X197799802Y-114810000D01*
X196975000Y-113985199D01*
X196975000Y-112959802D01*
X197556201Y-113541003D01*
G37*
X197556201Y-113541003D02*
X197579999Y-113570001D01*
X197695724Y-113664974D01*
X197827753Y-113735546D01*
X197971014Y-113779003D01*
X198082667Y-113790000D01*
X198082676Y-113790000D01*
X198119999Y-113793676D01*
X198157322Y-113790000D01*
X203191822Y-113790000D01*
X203316525Y-113976632D01*
X203523368Y-114183475D01*
X203697760Y-114300000D01*
X203523368Y-114416525D01*
X203316525Y-114623368D01*
X203191822Y-114810000D01*
X197799802Y-114810000D01*
X196975000Y-113985199D01*
X196975000Y-112959802D01*
X197556201Y-113541003D01*
G36*
X198191201Y-111001003D02*
G01*
X198214999Y-111030001D01*
X198330724Y-111124974D01*
X198462753Y-111195546D01*
X198606014Y-111239003D01*
X198717667Y-111250000D01*
X198717676Y-111250000D01*
X198754999Y-111253676D01*
X198792322Y-111250000D01*
X203191822Y-111250000D01*
X203316525Y-111436632D01*
X203523368Y-111643475D01*
X203697760Y-111760000D01*
X203523368Y-111876525D01*
X203316525Y-112083368D01*
X203191822Y-112270000D01*
X198434802Y-112270000D01*
X197610000Y-111445199D01*
X197610000Y-110419802D01*
X198191201Y-111001003D01*
G37*
X198191201Y-111001003D02*
X198214999Y-111030001D01*
X198330724Y-111124974D01*
X198462753Y-111195546D01*
X198606014Y-111239003D01*
X198717667Y-111250000D01*
X198717676Y-111250000D01*
X198754999Y-111253676D01*
X198792322Y-111250000D01*
X203191822Y-111250000D01*
X203316525Y-111436632D01*
X203523368Y-111643475D01*
X203697760Y-111760000D01*
X203523368Y-111876525D01*
X203316525Y-112083368D01*
X203191822Y-112270000D01*
X198434802Y-112270000D01*
X197610000Y-111445199D01*
X197610000Y-110419802D01*
X198191201Y-111001003D01*
G36*
X198826201Y-108461003D02*
G01*
X198849999Y-108490001D01*
X198965724Y-108584974D01*
X199097753Y-108655546D01*
X199241014Y-108699003D01*
X199352667Y-108710000D01*
X199352676Y-108710000D01*
X199389999Y-108713676D01*
X199427322Y-108710000D01*
X203191822Y-108710000D01*
X203316525Y-108896632D01*
X203523368Y-109103475D01*
X203697760Y-109220000D01*
X203523368Y-109336525D01*
X203316525Y-109543368D01*
X203191822Y-109730000D01*
X199069802Y-109730000D01*
X198245000Y-108905199D01*
X198245000Y-107879802D01*
X198826201Y-108461003D01*
G37*
X198826201Y-108461003D02*
X198849999Y-108490001D01*
X198965724Y-108584974D01*
X199097753Y-108655546D01*
X199241014Y-108699003D01*
X199352667Y-108710000D01*
X199352676Y-108710000D01*
X199389999Y-108713676D01*
X199427322Y-108710000D01*
X203191822Y-108710000D01*
X203316525Y-108896632D01*
X203523368Y-109103475D01*
X203697760Y-109220000D01*
X203523368Y-109336525D01*
X203316525Y-109543368D01*
X203191822Y-109730000D01*
X199069802Y-109730000D01*
X198245000Y-108905199D01*
X198245000Y-107879802D01*
X198826201Y-108461003D01*
G36*
X199461201Y-105921003D02*
G01*
X199484999Y-105950001D01*
X199600724Y-106044974D01*
X199732753Y-106115546D01*
X199876014Y-106159003D01*
X199987667Y-106170000D01*
X199987676Y-106170000D01*
X200024999Y-106173676D01*
X200062322Y-106170000D01*
X203191822Y-106170000D01*
X203316525Y-106356632D01*
X203523368Y-106563475D01*
X203697760Y-106680000D01*
X203523368Y-106796525D01*
X203316525Y-107003368D01*
X203191822Y-107190000D01*
X199704802Y-107190000D01*
X198880000Y-106365199D01*
X198880000Y-105339802D01*
X199461201Y-105921003D01*
G37*
X199461201Y-105921003D02*
X199484999Y-105950001D01*
X199600724Y-106044974D01*
X199732753Y-106115546D01*
X199876014Y-106159003D01*
X199987667Y-106170000D01*
X199987676Y-106170000D01*
X200024999Y-106173676D01*
X200062322Y-106170000D01*
X203191822Y-106170000D01*
X203316525Y-106356632D01*
X203523368Y-106563475D01*
X203697760Y-106680000D01*
X203523368Y-106796525D01*
X203316525Y-107003368D01*
X203191822Y-107190000D01*
X199704802Y-107190000D01*
X198880000Y-106365199D01*
X198880000Y-105339802D01*
X199461201Y-105921003D01*
G36*
X176204748Y-97130858D02*
G01*
X176190605Y-97145000D01*
X176204748Y-97159143D01*
X176025143Y-97338748D01*
X176011000Y-97324605D01*
X175996858Y-97338748D01*
X175817253Y-97159143D01*
X175831395Y-97145000D01*
X175817253Y-97130858D01*
X175996858Y-96951253D01*
X176011000Y-96965395D01*
X176025143Y-96951253D01*
X176204748Y-97130858D01*
G37*
X176204748Y-97130858D02*
X176190605Y-97145000D01*
X176204748Y-97159143D01*
X176025143Y-97338748D01*
X176011000Y-97324605D01*
X175996858Y-97338748D01*
X175817253Y-97159143D01*
X175831395Y-97145000D01*
X175817253Y-97130858D01*
X175996858Y-96951253D01*
X176011000Y-96965395D01*
X176025143Y-96951253D01*
X176204748Y-97130858D01*
G36*
X176204748Y-94590858D02*
G01*
X176190605Y-94605000D01*
X176204748Y-94619143D01*
X176025143Y-94798748D01*
X176011000Y-94784605D01*
X175996858Y-94798748D01*
X175817253Y-94619143D01*
X175831395Y-94605000D01*
X175817253Y-94590858D01*
X175996858Y-94411253D01*
X176011000Y-94425395D01*
X176025143Y-94411253D01*
X176204748Y-94590858D01*
G37*
X176204748Y-94590858D02*
X176190605Y-94605000D01*
X176204748Y-94619143D01*
X176025143Y-94798748D01*
X176011000Y-94784605D01*
X175996858Y-94798748D01*
X175817253Y-94619143D01*
X175831395Y-94605000D01*
X175817253Y-94590858D01*
X175996858Y-94411253D01*
X176011000Y-94425395D01*
X176025143Y-94411253D01*
X176204748Y-94590858D01*
G36*
X176204748Y-92050858D02*
G01*
X176190605Y-92065000D01*
X176204748Y-92079143D01*
X176053889Y-92230001D01*
X175968111Y-92230001D01*
X175817253Y-92079143D01*
X175831395Y-92065000D01*
X175817253Y-92050858D01*
X175968111Y-91899999D01*
X176053889Y-91899999D01*
X176204748Y-92050858D01*
G37*
X176204748Y-92050858D02*
X176190605Y-92065000D01*
X176204748Y-92079143D01*
X176053889Y-92230001D01*
X175968111Y-92230001D01*
X175817253Y-92079143D01*
X175831395Y-92065000D01*
X175817253Y-92050858D01*
X175968111Y-91899999D01*
X176053889Y-91899999D01*
X176204748Y-92050858D01*
G36*
X190218790Y-90963592D02*
G01*
X190182334Y-90960001D01*
X190182323Y-90960001D01*
X190145001Y-90956325D01*
X190107679Y-90960001D01*
X179140926Y-90960001D01*
X179141000Y-90959687D01*
X179149495Y-90716562D01*
X179135399Y-90629999D01*
X189885198Y-90629999D01*
X190218790Y-90963592D01*
G37*
X190218790Y-90963592D02*
X190182334Y-90960001D01*
X190182323Y-90960001D01*
X190145001Y-90956325D01*
X190107679Y-90960001D01*
X179140926Y-90960001D01*
X179141000Y-90959687D01*
X179149495Y-90716562D01*
X179135399Y-90629999D01*
X189885198Y-90629999D01*
X190218790Y-90963592D01*
G36*
X178104748Y-90780858D02*
G01*
X178090605Y-90795000D01*
X178104748Y-90809143D01*
X177953889Y-90960001D01*
X177868111Y-90960001D01*
X177717253Y-90809143D01*
X177731395Y-90795000D01*
X177717253Y-90780858D01*
X177868111Y-90629999D01*
X177953889Y-90629999D01*
X178104748Y-90780858D01*
G37*
X178104748Y-90780858D02*
X178090605Y-90795000D01*
X178104748Y-90809143D01*
X177953889Y-90960001D01*
X177868111Y-90960001D01*
X177717253Y-90809143D01*
X177731395Y-90795000D01*
X177717253Y-90780858D01*
X177868111Y-90629999D01*
X177953889Y-90629999D01*
X178104748Y-90780858D01*
G36*
X176204748Y-89510858D02*
G01*
X176190605Y-89525000D01*
X176204748Y-89539143D01*
X176053889Y-89690001D01*
X175968111Y-89690001D01*
X175817253Y-89539143D01*
X175831395Y-89525000D01*
X175817253Y-89510858D01*
X175968111Y-89359999D01*
X176053889Y-89359999D01*
X176204748Y-89510858D01*
G37*
X176204748Y-89510858D02*
X176190605Y-89525000D01*
X176204748Y-89539143D01*
X176053889Y-89690001D01*
X175968111Y-89690001D01*
X175817253Y-89539143D01*
X175831395Y-89525000D01*
X175817253Y-89510858D01*
X175968111Y-89359999D01*
X176053889Y-89359999D01*
X176204748Y-89510858D01*
G36*
X191488790Y-88423592D02*
G01*
X191452334Y-88420001D01*
X191452323Y-88420001D01*
X191415001Y-88416325D01*
X191377679Y-88420001D01*
X179140926Y-88420001D01*
X179141000Y-88419687D01*
X179149495Y-88176562D01*
X179135399Y-88089999D01*
X191155198Y-88089999D01*
X191488790Y-88423592D01*
G37*
X191488790Y-88423592D02*
X191452334Y-88420001D01*
X191452323Y-88420001D01*
X191415001Y-88416325D01*
X191377679Y-88420001D01*
X179140926Y-88420001D01*
X179141000Y-88419687D01*
X179149495Y-88176562D01*
X179135399Y-88089999D01*
X191155198Y-88089999D01*
X191488790Y-88423592D01*
G36*
X178104748Y-88240858D02*
G01*
X178090605Y-88255000D01*
X178104748Y-88269143D01*
X177953889Y-88420001D01*
X177868111Y-88420001D01*
X177717253Y-88269143D01*
X177731395Y-88255000D01*
X177717253Y-88240858D01*
X177868111Y-88089999D01*
X177953889Y-88089999D01*
X178104748Y-88240858D01*
G37*
X178104748Y-88240858D02*
X178090605Y-88255000D01*
X178104748Y-88269143D01*
X177953889Y-88420001D01*
X177868111Y-88420001D01*
X177717253Y-88269143D01*
X177731395Y-88255000D01*
X177717253Y-88240858D01*
X177868111Y-88089999D01*
X177953889Y-88089999D01*
X178104748Y-88240858D01*
G36*
X176204748Y-86970858D02*
G01*
X176190605Y-86985000D01*
X176204748Y-86999143D01*
X176053889Y-87150001D01*
X175968111Y-87150001D01*
X175817253Y-86999143D01*
X175831395Y-86985000D01*
X175817253Y-86970858D01*
X175968111Y-86819999D01*
X176053889Y-86819999D01*
X176204748Y-86970858D01*
G37*
X176204748Y-86970858D02*
X176190605Y-86985000D01*
X176204748Y-86999143D01*
X176053889Y-87150001D01*
X175968111Y-87150001D01*
X175817253Y-86999143D01*
X175831395Y-86985000D01*
X175817253Y-86970858D01*
X175968111Y-86819999D01*
X176053889Y-86819999D01*
X176204748Y-86970858D01*
G36*
X192758790Y-85883592D02*
G01*
X192722334Y-85880001D01*
X192722323Y-85880001D01*
X192685001Y-85876325D01*
X192647679Y-85880001D01*
X179140926Y-85880001D01*
X179141000Y-85879687D01*
X179149495Y-85636562D01*
X179135399Y-85549999D01*
X192425198Y-85549999D01*
X192758790Y-85883592D01*
G37*
X192758790Y-85883592D02*
X192722334Y-85880001D01*
X192722323Y-85880001D01*
X192685001Y-85876325D01*
X192647679Y-85880001D01*
X179140926Y-85880001D01*
X179141000Y-85879687D01*
X179149495Y-85636562D01*
X179135399Y-85549999D01*
X192425198Y-85549999D01*
X192758790Y-85883592D01*
G36*
X178104748Y-85700858D02*
G01*
X178090605Y-85715000D01*
X178104748Y-85729143D01*
X177953889Y-85880001D01*
X177868111Y-85880001D01*
X177717253Y-85729143D01*
X177731395Y-85715000D01*
X177717253Y-85700858D01*
X177868111Y-85549999D01*
X177953889Y-85549999D01*
X178104748Y-85700858D01*
G37*
X178104748Y-85700858D02*
X178090605Y-85715000D01*
X178104748Y-85729143D01*
X177953889Y-85880001D01*
X177868111Y-85880001D01*
X177717253Y-85729143D01*
X177731395Y-85715000D01*
X177717253Y-85700858D01*
X177868111Y-85549999D01*
X177953889Y-85549999D01*
X178104748Y-85700858D01*
G36*
X176204748Y-84430858D02*
G01*
X176190605Y-84445000D01*
X176204748Y-84459143D01*
X176053889Y-84610001D01*
X175968111Y-84610001D01*
X175817253Y-84459143D01*
X175831395Y-84445000D01*
X175817253Y-84430858D01*
X175968111Y-84279999D01*
X176053889Y-84279999D01*
X176204748Y-84430858D01*
G37*
X176204748Y-84430858D02*
X176190605Y-84445000D01*
X176204748Y-84459143D01*
X176053889Y-84610001D01*
X175968111Y-84610001D01*
X175817253Y-84459143D01*
X175831395Y-84445000D01*
X175817253Y-84430858D01*
X175968111Y-84279999D01*
X176053889Y-84279999D01*
X176204748Y-84430858D01*
G36*
X194028790Y-83343592D02*
G01*
X193992334Y-83340001D01*
X193992323Y-83340001D01*
X193955001Y-83336325D01*
X193917679Y-83340001D01*
X179140926Y-83340001D01*
X179141000Y-83339687D01*
X179149495Y-83096562D01*
X179135399Y-83009999D01*
X193695198Y-83009999D01*
X194028790Y-83343592D01*
G37*
X194028790Y-83343592D02*
X193992334Y-83340001D01*
X193992323Y-83340001D01*
X193955001Y-83336325D01*
X193917679Y-83340001D01*
X179140926Y-83340001D01*
X179141000Y-83339687D01*
X179149495Y-83096562D01*
X179135399Y-83009999D01*
X193695198Y-83009999D01*
X194028790Y-83343592D01*
G36*
X178104748Y-83160858D02*
G01*
X178090605Y-83175000D01*
X178104748Y-83189143D01*
X177953889Y-83340001D01*
X177868111Y-83340001D01*
X177717253Y-83189143D01*
X177731395Y-83175000D01*
X177717253Y-83160858D01*
X177868111Y-83009999D01*
X177953889Y-83009999D01*
X178104748Y-83160858D01*
G37*
X178104748Y-83160858D02*
X178090605Y-83175000D01*
X178104748Y-83189143D01*
X177953889Y-83340001D01*
X177868111Y-83340001D01*
X177717253Y-83189143D01*
X177731395Y-83175000D01*
X177717253Y-83160858D01*
X177868111Y-83009999D01*
X177953889Y-83009999D01*
X178104748Y-83160858D01*
G36*
X176204748Y-81890858D02*
G01*
X176190605Y-81905000D01*
X176204748Y-81919143D01*
X176053889Y-82070001D01*
X175968111Y-82070001D01*
X175817253Y-81919143D01*
X175831395Y-81905000D01*
X175817253Y-81890858D01*
X175968111Y-81739999D01*
X176053889Y-81739999D01*
X176204748Y-81890858D01*
G37*
X176204748Y-81890858D02*
X176190605Y-81905000D01*
X176204748Y-81919143D01*
X176053889Y-82070001D01*
X175968111Y-82070001D01*
X175817253Y-81919143D01*
X175831395Y-81905000D01*
X175817253Y-81890858D01*
X175968111Y-81739999D01*
X176053889Y-81739999D01*
X176204748Y-81890858D01*
G36*
X198826200Y-80521002D02*
G01*
X198849999Y-80550001D01*
X198965724Y-80644974D01*
X199097753Y-80715546D01*
X199241014Y-80759003D01*
X199352667Y-80770000D01*
X199352676Y-80770000D01*
X199389999Y-80773676D01*
X199427322Y-80770000D01*
X203191822Y-80770000D01*
X203316525Y-80956632D01*
X203523368Y-81163475D01*
X203697760Y-81280000D01*
X203523368Y-81396525D01*
X203316525Y-81603368D01*
X203191822Y-81790000D01*
X199704802Y-81790000D01*
X198963805Y-81049003D01*
X198940002Y-81020000D01*
X198824277Y-80925027D01*
X198692248Y-80854455D01*
X198548987Y-80810998D01*
X198437334Y-80800001D01*
X198437323Y-80800001D01*
X198400001Y-80796325D01*
X198362679Y-80800001D01*
X179140926Y-80800001D01*
X179141000Y-80799687D01*
X179149495Y-80556562D01*
X179135399Y-80469999D01*
X198775197Y-80469999D01*
X198826200Y-80521002D01*
G37*
X198826200Y-80521002D02*
X198849999Y-80550001D01*
X198965724Y-80644974D01*
X199097753Y-80715546D01*
X199241014Y-80759003D01*
X199352667Y-80770000D01*
X199352676Y-80770000D01*
X199389999Y-80773676D01*
X199427322Y-80770000D01*
X203191822Y-80770000D01*
X203316525Y-80956632D01*
X203523368Y-81163475D01*
X203697760Y-81280000D01*
X203523368Y-81396525D01*
X203316525Y-81603368D01*
X203191822Y-81790000D01*
X199704802Y-81790000D01*
X198963805Y-81049003D01*
X198940002Y-81020000D01*
X198824277Y-80925027D01*
X198692248Y-80854455D01*
X198548987Y-80810998D01*
X198437334Y-80800001D01*
X198437323Y-80800001D01*
X198400001Y-80796325D01*
X198362679Y-80800001D01*
X179140926Y-80800001D01*
X179141000Y-80799687D01*
X179149495Y-80556562D01*
X179135399Y-80469999D01*
X198775197Y-80469999D01*
X198826200Y-80521002D01*
G36*
X178104748Y-80620858D02*
G01*
X178090605Y-80635000D01*
X178104748Y-80649143D01*
X177953889Y-80800001D01*
X177868111Y-80800001D01*
X177717253Y-80649143D01*
X177731395Y-80635000D01*
X177717253Y-80620858D01*
X177868111Y-80469999D01*
X177953889Y-80469999D01*
X178104748Y-80620858D01*
G37*
X178104748Y-80620858D02*
X178090605Y-80635000D01*
X178104748Y-80649143D01*
X177953889Y-80800001D01*
X177868111Y-80800001D01*
X177717253Y-80649143D01*
X177731395Y-80635000D01*
X177717253Y-80620858D01*
X177868111Y-80469999D01*
X177953889Y-80469999D01*
X178104748Y-80620858D01*
G36*
X176204748Y-79350858D02*
G01*
X176190605Y-79365000D01*
X176204748Y-79379143D01*
X176053889Y-79530001D01*
X175968111Y-79530001D01*
X175817253Y-79379143D01*
X175831395Y-79365000D01*
X175817253Y-79350858D01*
X175968111Y-79199999D01*
X176053889Y-79199999D01*
X176204748Y-79350858D01*
G37*
X176204748Y-79350858D02*
X176190605Y-79365000D01*
X176204748Y-79379143D01*
X176053889Y-79530001D01*
X175968111Y-79530001D01*
X175817253Y-79379143D01*
X175831395Y-79365000D01*
X175817253Y-79350858D01*
X175968111Y-79199999D01*
X176053889Y-79199999D01*
X176204748Y-79350858D01*
G36*
X203316525Y-78416632D02*
G01*
X203523368Y-78623475D01*
X203697760Y-78740000D01*
X203523368Y-78856525D01*
X203316525Y-79063368D01*
X203191822Y-79250000D01*
X199704801Y-79250000D01*
X199653802Y-79199001D01*
X199630000Y-79169998D01*
X199514275Y-79075025D01*
X199382246Y-79004453D01*
X199238985Y-78960996D01*
X199127332Y-78949999D01*
X199127321Y-78949999D01*
X199089999Y-78946323D01*
X199052677Y-78949999D01*
X198984803Y-78949999D01*
X199704803Y-78230000D01*
X203191822Y-78230000D01*
X203316525Y-78416632D01*
G37*
X203316525Y-78416632D02*
X203523368Y-78623475D01*
X203697760Y-78740000D01*
X203523368Y-78856525D01*
X203316525Y-79063368D01*
X203191822Y-79250000D01*
X199704801Y-79250000D01*
X199653802Y-79199001D01*
X199630000Y-79169998D01*
X199514275Y-79075025D01*
X199382246Y-79004453D01*
X199238985Y-78960996D01*
X199127332Y-78949999D01*
X199127321Y-78949999D01*
X199089999Y-78946323D01*
X199052677Y-78949999D01*
X198984803Y-78949999D01*
X199704803Y-78230000D01*
X203191822Y-78230000D01*
X203316525Y-78416632D01*
G36*
X203316525Y-75876632D02*
G01*
X203523368Y-76083475D01*
X203697760Y-76200000D01*
X203523368Y-76316525D01*
X203316525Y-76523368D01*
X203191822Y-76710000D01*
X199427322Y-76710000D01*
X199389999Y-76706324D01*
X199352676Y-76710000D01*
X199352667Y-76710000D01*
X199241014Y-76720997D01*
X199097753Y-76764454D01*
X198965724Y-76835026D01*
X198965722Y-76835027D01*
X198965723Y-76835027D01*
X198878996Y-76906201D01*
X198878992Y-76906205D01*
X198849999Y-76929999D01*
X198826205Y-76958992D01*
X197525198Y-78260001D01*
X179140926Y-78260001D01*
X179141000Y-78259687D01*
X179149495Y-78016562D01*
X179135399Y-77929999D01*
X197112679Y-77929999D01*
X197150001Y-77933675D01*
X197187323Y-77929999D01*
X197187334Y-77929999D01*
X197298987Y-77919002D01*
X197442248Y-77875545D01*
X197574277Y-77804973D01*
X197690002Y-77710000D01*
X197713805Y-77680996D01*
X199704802Y-75690000D01*
X203191822Y-75690000D01*
X203316525Y-75876632D01*
G37*
X203316525Y-75876632D02*
X203523368Y-76083475D01*
X203697760Y-76200000D01*
X203523368Y-76316525D01*
X203316525Y-76523368D01*
X203191822Y-76710000D01*
X199427322Y-76710000D01*
X199389999Y-76706324D01*
X199352676Y-76710000D01*
X199352667Y-76710000D01*
X199241014Y-76720997D01*
X199097753Y-76764454D01*
X198965724Y-76835026D01*
X198965722Y-76835027D01*
X198965723Y-76835027D01*
X198878996Y-76906201D01*
X198878992Y-76906205D01*
X198849999Y-76929999D01*
X198826205Y-76958992D01*
X197525198Y-78260001D01*
X179140926Y-78260001D01*
X179141000Y-78259687D01*
X179149495Y-78016562D01*
X179135399Y-77929999D01*
X197112679Y-77929999D01*
X197150001Y-77933675D01*
X197187323Y-77929999D01*
X197187334Y-77929999D01*
X197298987Y-77919002D01*
X197442248Y-77875545D01*
X197574277Y-77804973D01*
X197690002Y-77710000D01*
X197713805Y-77680996D01*
X199704802Y-75690000D01*
X203191822Y-75690000D01*
X203316525Y-75876632D01*
G36*
X178104748Y-78080858D02*
G01*
X178090605Y-78095000D01*
X178104748Y-78109143D01*
X177953889Y-78260001D01*
X177868111Y-78260001D01*
X177717253Y-78109143D01*
X177731395Y-78095000D01*
X177717253Y-78080858D01*
X177868111Y-77929999D01*
X177953889Y-77929999D01*
X178104748Y-78080858D01*
G37*
X178104748Y-78080858D02*
X178090605Y-78095000D01*
X178104748Y-78109143D01*
X177953889Y-78260001D01*
X177868111Y-78260001D01*
X177717253Y-78109143D01*
X177731395Y-78095000D01*
X177717253Y-78080858D01*
X177868111Y-77929999D01*
X177953889Y-77929999D01*
X178104748Y-78080858D01*
G36*
X176204748Y-76810858D02*
G01*
X176190605Y-76825000D01*
X176204748Y-76839143D01*
X176053889Y-76990001D01*
X175968111Y-76990001D01*
X175817253Y-76839143D01*
X175831395Y-76825000D01*
X175817253Y-76810858D01*
X175968111Y-76659999D01*
X176053889Y-76659999D01*
X176204748Y-76810858D01*
G37*
X176204748Y-76810858D02*
X176190605Y-76825000D01*
X176204748Y-76839143D01*
X176053889Y-76990001D01*
X175968111Y-76990001D01*
X175817253Y-76839143D01*
X175831395Y-76825000D01*
X175817253Y-76810858D01*
X175968111Y-76659999D01*
X176053889Y-76659999D01*
X176204748Y-76810858D01*
G36*
X203316525Y-73336632D02*
G01*
X203523368Y-73543475D01*
X203697760Y-73660000D01*
X203523368Y-73776525D01*
X203316525Y-73983368D01*
X203191822Y-74170000D01*
X199427323Y-74170000D01*
X199390000Y-74166324D01*
X199352677Y-74170000D01*
X199352667Y-74170000D01*
X199241014Y-74180997D01*
X199130914Y-74214395D01*
X199097753Y-74224454D01*
X198965723Y-74295026D01*
X198913662Y-74337752D01*
X198849999Y-74389999D01*
X198826201Y-74418997D01*
X196835200Y-76409999D01*
X196444802Y-76409999D01*
X199704802Y-73150000D01*
X203191822Y-73150000D01*
X203316525Y-73336632D01*
G37*
X203316525Y-73336632D02*
X203523368Y-73543475D01*
X203697760Y-73660000D01*
X203523368Y-73776525D01*
X203316525Y-73983368D01*
X203191822Y-74170000D01*
X199427323Y-74170000D01*
X199390000Y-74166324D01*
X199352677Y-74170000D01*
X199352667Y-74170000D01*
X199241014Y-74180997D01*
X199130914Y-74214395D01*
X199097753Y-74224454D01*
X198965723Y-74295026D01*
X198913662Y-74337752D01*
X198849999Y-74389999D01*
X198826201Y-74418997D01*
X196835200Y-76409999D01*
X196444802Y-76409999D01*
X199704802Y-73150000D01*
X203191822Y-73150000D01*
X203316525Y-73336632D01*
G36*
X178104748Y-75540858D02*
G01*
X178090605Y-75555000D01*
X178104748Y-75569143D01*
X177953889Y-75720001D01*
X177868111Y-75720001D01*
X177717253Y-75569143D01*
X177731395Y-75555000D01*
X177717253Y-75540858D01*
X177868111Y-75389999D01*
X177953889Y-75389999D01*
X178104748Y-75540858D01*
G37*
X178104748Y-75540858D02*
X178090605Y-75555000D01*
X178104748Y-75569143D01*
X177953889Y-75720001D01*
X177868111Y-75720001D01*
X177717253Y-75569143D01*
X177731395Y-75555000D01*
X177717253Y-75540858D01*
X177868111Y-75389999D01*
X177953889Y-75389999D01*
X178104748Y-75540858D01*
G36*
X203316525Y-70796632D02*
G01*
X203523368Y-71003475D01*
X203697760Y-71120000D01*
X203523368Y-71236525D01*
X203316525Y-71443368D01*
X203191822Y-71630000D01*
X199427323Y-71630000D01*
X199390000Y-71626324D01*
X199352677Y-71630000D01*
X199352667Y-71630000D01*
X199241014Y-71640997D01*
X199130914Y-71674395D01*
X199097753Y-71684454D01*
X198965723Y-71755026D01*
X198913662Y-71797752D01*
X198849999Y-71849999D01*
X198826201Y-71878997D01*
X194985198Y-75720001D01*
X179140926Y-75720001D01*
X179141000Y-75719687D01*
X179149495Y-75476562D01*
X179135399Y-75389999D01*
X194572679Y-75389999D01*
X194610001Y-75393675D01*
X194647323Y-75389999D01*
X194647334Y-75389999D01*
X194758987Y-75379002D01*
X194902248Y-75335545D01*
X195034277Y-75264973D01*
X195150002Y-75170000D01*
X195173805Y-75140996D01*
X199704803Y-70610000D01*
X203191822Y-70610000D01*
X203316525Y-70796632D01*
G37*
X203316525Y-70796632D02*
X203523368Y-71003475D01*
X203697760Y-71120000D01*
X203523368Y-71236525D01*
X203316525Y-71443368D01*
X203191822Y-71630000D01*
X199427323Y-71630000D01*
X199390000Y-71626324D01*
X199352677Y-71630000D01*
X199352667Y-71630000D01*
X199241014Y-71640997D01*
X199130914Y-71674395D01*
X199097753Y-71684454D01*
X198965723Y-71755026D01*
X198913662Y-71797752D01*
X198849999Y-71849999D01*
X198826201Y-71878997D01*
X194985198Y-75720001D01*
X179140926Y-75720001D01*
X179141000Y-75719687D01*
X179149495Y-75476562D01*
X179135399Y-75389999D01*
X194572679Y-75389999D01*
X194610001Y-75393675D01*
X194647323Y-75389999D01*
X194647334Y-75389999D01*
X194758987Y-75379002D01*
X194902248Y-75335545D01*
X195034277Y-75264973D01*
X195150002Y-75170000D01*
X195173805Y-75140996D01*
X199704803Y-70610000D01*
X203191822Y-70610000D01*
X203316525Y-70796632D01*
G36*
X176204748Y-74270858D02*
G01*
X176190605Y-74285000D01*
X176204748Y-74299143D01*
X176053889Y-74450001D01*
X175968111Y-74450001D01*
X175817253Y-74299143D01*
X175831395Y-74285000D01*
X175817253Y-74270858D01*
X175968111Y-74119999D01*
X176053889Y-74119999D01*
X176204748Y-74270858D01*
G37*
X176204748Y-74270858D02*
X176190605Y-74285000D01*
X176204748Y-74299143D01*
X176053889Y-74450001D01*
X175968111Y-74450001D01*
X175817253Y-74299143D01*
X175831395Y-74285000D01*
X175817253Y-74270858D01*
X175968111Y-74119999D01*
X176053889Y-74119999D01*
X176204748Y-74270858D01*
G36*
X203316525Y-68256632D02*
G01*
X203523368Y-68463475D01*
X203697760Y-68580000D01*
X203523368Y-68696525D01*
X203316525Y-68903368D01*
X203191822Y-69090000D01*
X199427322Y-69090000D01*
X199389999Y-69086324D01*
X199352676Y-69090000D01*
X199352667Y-69090000D01*
X199241014Y-69100997D01*
X199097753Y-69144454D01*
X198965724Y-69215026D01*
X198965722Y-69215027D01*
X198965723Y-69215027D01*
X198878996Y-69286201D01*
X198878992Y-69286205D01*
X198849999Y-69309999D01*
X198826205Y-69338992D01*
X194295200Y-73869999D01*
X193904802Y-73869999D01*
X199704802Y-68070000D01*
X203191822Y-68070000D01*
X203316525Y-68256632D01*
G37*
X203316525Y-68256632D02*
X203523368Y-68463475D01*
X203697760Y-68580000D01*
X203523368Y-68696525D01*
X203316525Y-68903368D01*
X203191822Y-69090000D01*
X199427322Y-69090000D01*
X199389999Y-69086324D01*
X199352676Y-69090000D01*
X199352667Y-69090000D01*
X199241014Y-69100997D01*
X199097753Y-69144454D01*
X198965724Y-69215026D01*
X198965722Y-69215027D01*
X198965723Y-69215027D01*
X198878996Y-69286201D01*
X198878992Y-69286205D01*
X198849999Y-69309999D01*
X198826205Y-69338992D01*
X194295200Y-73869999D01*
X193904802Y-73869999D01*
X199704802Y-68070000D01*
X203191822Y-68070000D01*
X203316525Y-68256632D01*
G36*
X178104748Y-73000858D02*
G01*
X178090605Y-73015000D01*
X178104748Y-73029143D01*
X177953889Y-73180001D01*
X177868111Y-73180001D01*
X177717253Y-73029143D01*
X177731395Y-73015000D01*
X177717253Y-73000858D01*
X177868111Y-72849999D01*
X177953889Y-72849999D01*
X178104748Y-73000858D01*
G37*
X178104748Y-73000858D02*
X178090605Y-73015000D01*
X178104748Y-73029143D01*
X177953889Y-73180001D01*
X177868111Y-73180001D01*
X177717253Y-73029143D01*
X177731395Y-73015000D01*
X177717253Y-73000858D01*
X177868111Y-72849999D01*
X177953889Y-72849999D01*
X178104748Y-73000858D01*
G36*
X203316525Y-65716632D02*
G01*
X203523368Y-65923475D01*
X203697760Y-66040000D01*
X203523368Y-66156525D01*
X203316525Y-66363368D01*
X203191822Y-66550000D01*
X199427322Y-66550000D01*
X199389999Y-66546324D01*
X199352676Y-66550000D01*
X199352667Y-66550000D01*
X199241014Y-66560997D01*
X199097753Y-66604454D01*
X198965724Y-66675026D01*
X198849999Y-66769999D01*
X198826201Y-66798997D01*
X192445198Y-73180001D01*
X179140926Y-73180001D01*
X179141000Y-73179687D01*
X179149495Y-72936562D01*
X179135399Y-72849999D01*
X192032679Y-72849999D01*
X192070001Y-72853675D01*
X192107323Y-72849999D01*
X192107334Y-72849999D01*
X192218987Y-72839002D01*
X192362248Y-72795545D01*
X192494277Y-72724973D01*
X192610002Y-72630000D01*
X192633805Y-72600996D01*
X199704802Y-65530000D01*
X203191822Y-65530000D01*
X203316525Y-65716632D01*
G37*
X203316525Y-65716632D02*
X203523368Y-65923475D01*
X203697760Y-66040000D01*
X203523368Y-66156525D01*
X203316525Y-66363368D01*
X203191822Y-66550000D01*
X199427322Y-66550000D01*
X199389999Y-66546324D01*
X199352676Y-66550000D01*
X199352667Y-66550000D01*
X199241014Y-66560997D01*
X199097753Y-66604454D01*
X198965724Y-66675026D01*
X198849999Y-66769999D01*
X198826201Y-66798997D01*
X192445198Y-73180001D01*
X179140926Y-73180001D01*
X179141000Y-73179687D01*
X179149495Y-72936562D01*
X179135399Y-72849999D01*
X192032679Y-72849999D01*
X192070001Y-72853675D01*
X192107323Y-72849999D01*
X192107334Y-72849999D01*
X192218987Y-72839002D01*
X192362248Y-72795545D01*
X192494277Y-72724973D01*
X192610002Y-72630000D01*
X192633805Y-72600996D01*
X199704802Y-65530000D01*
X203191822Y-65530000D01*
X203316525Y-65716632D01*
G36*
X176204748Y-71730858D02*
G01*
X176190605Y-71745000D01*
X176204748Y-71759143D01*
X176053889Y-71910001D01*
X175968111Y-71910001D01*
X175817253Y-71759143D01*
X175831395Y-71745000D01*
X175817253Y-71730858D01*
X175968111Y-71579999D01*
X176053889Y-71579999D01*
X176204748Y-71730858D01*
G37*
X176204748Y-71730858D02*
X176190605Y-71745000D01*
X176204748Y-71759143D01*
X176053889Y-71910001D01*
X175968111Y-71910001D01*
X175817253Y-71759143D01*
X175831395Y-71745000D01*
X175817253Y-71730858D01*
X175968111Y-71579999D01*
X176053889Y-71579999D01*
X176204748Y-71730858D01*
G36*
X203316525Y-63176632D02*
G01*
X203523368Y-63383475D01*
X203697760Y-63500000D01*
X203523368Y-63616525D01*
X203316525Y-63823368D01*
X203191822Y-64010000D01*
X199427323Y-64010000D01*
X199390000Y-64006324D01*
X199352677Y-64010000D01*
X199352667Y-64010000D01*
X199241014Y-64020997D01*
X199097753Y-64064454D01*
X198965724Y-64135026D01*
X198849999Y-64229999D01*
X198826201Y-64258997D01*
X191755200Y-71329999D01*
X191364802Y-71329999D01*
X199704802Y-62990000D01*
X203191822Y-62990000D01*
X203316525Y-63176632D01*
G37*
X203316525Y-63176632D02*
X203523368Y-63383475D01*
X203697760Y-63500000D01*
X203523368Y-63616525D01*
X203316525Y-63823368D01*
X203191822Y-64010000D01*
X199427323Y-64010000D01*
X199390000Y-64006324D01*
X199352677Y-64010000D01*
X199352667Y-64010000D01*
X199241014Y-64020997D01*
X199097753Y-64064454D01*
X198965724Y-64135026D01*
X198849999Y-64229999D01*
X198826201Y-64258997D01*
X191755200Y-71329999D01*
X191364802Y-71329999D01*
X199704802Y-62990000D01*
X203191822Y-62990000D01*
X203316525Y-63176632D01*
G36*
X176204748Y-69190858D02*
G01*
X176190605Y-69205000D01*
X176204748Y-69219143D01*
X176025143Y-69398748D01*
X176011000Y-69384605D01*
X175996858Y-69398748D01*
X175817253Y-69219143D01*
X175831395Y-69205000D01*
X175817253Y-69190858D01*
X175996858Y-69011253D01*
X176011000Y-69025395D01*
X176025143Y-69011253D01*
X176204748Y-69190858D01*
G37*
X176204748Y-69190858D02*
X176190605Y-69205000D01*
X176204748Y-69219143D01*
X176025143Y-69398748D01*
X176011000Y-69384605D01*
X175996858Y-69398748D01*
X175817253Y-69219143D01*
X175831395Y-69205000D01*
X175817253Y-69190858D01*
X175996858Y-69011253D01*
X176011000Y-69025395D01*
X176025143Y-69011253D01*
X176204748Y-69190858D01*
G36*
X176204748Y-66650858D02*
G01*
X176190605Y-66665000D01*
X176204748Y-66679143D01*
X176025143Y-66858748D01*
X176011000Y-66844605D01*
X175996858Y-66858748D01*
X175817253Y-66679143D01*
X175831395Y-66665000D01*
X175817253Y-66650858D01*
X175996858Y-66471253D01*
X176011000Y-66485395D01*
X176025143Y-66471253D01*
X176204748Y-66650858D01*
G37*
X176204748Y-66650858D02*
X176190605Y-66665000D01*
X176204748Y-66679143D01*
X176025143Y-66858748D01*
X176011000Y-66844605D01*
X175996858Y-66858748D01*
X175817253Y-66679143D01*
X175831395Y-66665000D01*
X175817253Y-66650858D01*
X175996858Y-66471253D01*
X176011000Y-66485395D01*
X176025143Y-66471253D01*
X176204748Y-66650858D01*
G36*
X176204748Y-64110858D02*
G01*
X176190605Y-64125000D01*
X176204748Y-64139143D01*
X176025143Y-64318748D01*
X176011000Y-64304605D01*
X175996858Y-64318748D01*
X175817253Y-64139143D01*
X175831395Y-64125000D01*
X175817253Y-64110858D01*
X175996858Y-63931253D01*
X176011000Y-63945395D01*
X176025143Y-63931253D01*
X176204748Y-64110858D01*
G37*
X176204748Y-64110858D02*
X176190605Y-64125000D01*
X176204748Y-64139143D01*
X176025143Y-64318748D01*
X176011000Y-64304605D01*
X175996858Y-64318748D01*
X175817253Y-64139143D01*
X175831395Y-64125000D01*
X175817253Y-64110858D01*
X175996858Y-63931253D01*
X176011000Y-63945395D01*
X176025143Y-63931253D01*
X176204748Y-64110858D01*
G36*
X190330498Y-42369180D02*
G01*
X190389463Y-42479494D01*
X190468815Y-42576185D01*
X190565506Y-42655537D01*
X190675820Y-42714502D01*
X190795518Y-42750812D01*
X190920000Y-42763072D01*
X191010000Y-42763072D01*
X191010001Y-57470197D01*
X190090188Y-58390011D01*
X189064791Y-58390011D01*
X189741008Y-57713795D01*
X189770001Y-57690001D01*
X189793795Y-57661008D01*
X189793799Y-57661004D01*
X189861108Y-57578987D01*
X189864974Y-57574276D01*
X189935546Y-57442247D01*
X189979003Y-57298986D01*
X189990000Y-57187333D01*
X189990000Y-57187324D01*
X189993676Y-57150001D01*
X189990000Y-57112678D01*
X189990000Y-42553178D01*
X190176632Y-42428475D01*
X190308487Y-42296620D01*
X190330498Y-42369180D01*
G37*
X190330498Y-42369180D02*
X190389463Y-42479494D01*
X190468815Y-42576185D01*
X190565506Y-42655537D01*
X190675820Y-42714502D01*
X190795518Y-42750812D01*
X190920000Y-42763072D01*
X191010000Y-42763072D01*
X191010001Y-57470197D01*
X190090188Y-58390011D01*
X189064791Y-58390011D01*
X189741008Y-57713795D01*
X189770001Y-57690001D01*
X189793795Y-57661008D01*
X189793799Y-57661004D01*
X189861108Y-57578987D01*
X189864974Y-57574276D01*
X189935546Y-57442247D01*
X189979003Y-57298986D01*
X189990000Y-57187333D01*
X189990000Y-57187324D01*
X189993676Y-57150001D01*
X189990000Y-57112678D01*
X189990000Y-42553178D01*
X190176632Y-42428475D01*
X190308487Y-42296620D01*
X190330498Y-42369180D01*
G36*
X188076525Y-42221632D02*
G01*
X188283368Y-42428475D01*
X188470000Y-42553179D01*
X188470001Y-56835196D01*
X187365198Y-57940001D01*
X186339800Y-57940001D01*
X187201003Y-57078799D01*
X187230001Y-57055001D01*
X187324974Y-56939276D01*
X187395546Y-56807247D01*
X187439003Y-56663986D01*
X187450000Y-56552333D01*
X187450000Y-56552324D01*
X187453676Y-56515001D01*
X187450000Y-56477678D01*
X187450000Y-42553178D01*
X187636632Y-42428475D01*
X187843475Y-42221632D01*
X187960000Y-42047240D01*
X188076525Y-42221632D01*
G37*
X188076525Y-42221632D02*
X188283368Y-42428475D01*
X188470000Y-42553179D01*
X188470001Y-56835196D01*
X187365198Y-57940001D01*
X186339800Y-57940001D01*
X187201003Y-57078799D01*
X187230001Y-57055001D01*
X187324974Y-56939276D01*
X187395546Y-56807247D01*
X187439003Y-56663986D01*
X187450000Y-56552333D01*
X187450000Y-56552324D01*
X187453676Y-56515001D01*
X187450000Y-56477678D01*
X187450000Y-42553178D01*
X187636632Y-42428475D01*
X187843475Y-42221632D01*
X187960000Y-42047240D01*
X188076525Y-42221632D01*
G36*
X185536525Y-42221632D02*
G01*
X185743368Y-42428475D01*
X185930000Y-42553179D01*
X185930001Y-56200197D01*
X185105618Y-57024581D01*
X184051624Y-57023178D01*
X184661003Y-56413799D01*
X184690001Y-56390001D01*
X184755658Y-56309998D01*
X184784974Y-56274277D01*
X184855546Y-56142247D01*
X184874208Y-56080724D01*
X184899003Y-55998986D01*
X184910000Y-55887333D01*
X184910000Y-55887324D01*
X184913676Y-55850001D01*
X184910000Y-55812678D01*
X184910000Y-42553178D01*
X185096632Y-42428475D01*
X185303475Y-42221632D01*
X185420000Y-42047240D01*
X185536525Y-42221632D01*
G37*
X185536525Y-42221632D02*
X185743368Y-42428475D01*
X185930000Y-42553179D01*
X185930001Y-56200197D01*
X185105618Y-57024581D01*
X184051624Y-57023178D01*
X184661003Y-56413799D01*
X184690001Y-56390001D01*
X184755658Y-56309998D01*
X184784974Y-56274277D01*
X184855546Y-56142247D01*
X184874208Y-56080724D01*
X184899003Y-55998986D01*
X184910000Y-55887333D01*
X184910000Y-55887324D01*
X184913676Y-55850001D01*
X184910000Y-55812678D01*
X184910000Y-42553178D01*
X185096632Y-42428475D01*
X185303475Y-42221632D01*
X185420000Y-42047240D01*
X185536525Y-42221632D01*
G36*
X182996525Y-42221632D02*
G01*
X183203368Y-42428475D01*
X183390000Y-42553179D01*
X183390001Y-55535197D01*
X182835200Y-56089999D01*
X178802555Y-56089999D01*
X178870287Y-56022267D01*
X178885821Y-55999019D01*
X180301115Y-56004846D01*
X180340000Y-56008676D01*
X180412722Y-56001513D01*
X180485901Y-55994610D01*
X180487420Y-55994156D01*
X180488985Y-55994002D01*
X180558956Y-55972777D01*
X180629340Y-55951743D01*
X180630737Y-55951004D01*
X180632246Y-55950546D01*
X180696889Y-55915994D01*
X180761658Y-55881715D01*
X180762881Y-55880720D01*
X180764276Y-55879974D01*
X180820946Y-55833466D01*
X180877773Y-55787219D01*
X180902691Y-55757110D01*
X182121003Y-54538799D01*
X182150001Y-54515001D01*
X182244974Y-54399276D01*
X182315546Y-54267247D01*
X182359003Y-54123986D01*
X182370000Y-54012333D01*
X182370000Y-54012324D01*
X182373676Y-53975001D01*
X182370000Y-53937678D01*
X182370000Y-42553178D01*
X182556632Y-42428475D01*
X182763475Y-42221632D01*
X182880000Y-42047240D01*
X182996525Y-42221632D01*
G37*
X182996525Y-42221632D02*
X183203368Y-42428475D01*
X183390000Y-42553179D01*
X183390001Y-55535197D01*
X182835200Y-56089999D01*
X178802555Y-56089999D01*
X178870287Y-56022267D01*
X178885821Y-55999019D01*
X180301115Y-56004846D01*
X180340000Y-56008676D01*
X180412722Y-56001513D01*
X180485901Y-55994610D01*
X180487420Y-55994156D01*
X180488985Y-55994002D01*
X180558956Y-55972777D01*
X180629340Y-55951743D01*
X180630737Y-55951004D01*
X180632246Y-55950546D01*
X180696889Y-55915994D01*
X180761658Y-55881715D01*
X180762881Y-55880720D01*
X180764276Y-55879974D01*
X180820946Y-55833466D01*
X180877773Y-55787219D01*
X180902691Y-55757110D01*
X182121003Y-54538799D01*
X182150001Y-54515001D01*
X182244974Y-54399276D01*
X182315546Y-54267247D01*
X182359003Y-54123986D01*
X182370000Y-54012333D01*
X182370000Y-54012324D01*
X182373676Y-53975001D01*
X182370000Y-53937678D01*
X182370000Y-42553178D01*
X182556632Y-42428475D01*
X182763475Y-42221632D01*
X182880000Y-42047240D01*
X182996525Y-42221632D01*
G36*
X180456525Y-42221632D02*
G01*
X180663368Y-42428475D01*
X180850000Y-42553179D01*
X180850001Y-53660197D01*
X180026495Y-54483704D01*
X178891199Y-54479029D01*
X178870287Y-54447733D01*
X178698267Y-54275713D01*
X178495992Y-54140557D01*
X178271236Y-54047460D01*
X178032637Y-54000000D01*
X177789363Y-54000000D01*
X177550764Y-54047460D01*
X177326008Y-54140557D01*
X177123733Y-54275713D01*
X176951713Y-54447733D01*
X176816557Y-54650008D01*
X176723460Y-54874764D01*
X176676000Y-55113363D01*
X176676000Y-55356637D01*
X176700633Y-55480476D01*
X176595992Y-55410557D01*
X176371236Y-55317460D01*
X176132637Y-55270000D01*
X175889363Y-55270000D01*
X175650764Y-55317460D01*
X175426008Y-55410557D01*
X175321367Y-55480476D01*
X175346000Y-55356637D01*
X175346000Y-55113363D01*
X175339602Y-55081199D01*
X179581004Y-50839798D01*
X179610001Y-50816001D01*
X179636332Y-50783917D01*
X179704974Y-50700277D01*
X179775546Y-50568247D01*
X179812801Y-50445430D01*
X179819003Y-50424986D01*
X179830000Y-50313333D01*
X179830000Y-50313324D01*
X179833676Y-50276001D01*
X179830000Y-50238678D01*
X179830000Y-42553178D01*
X180016632Y-42428475D01*
X180223475Y-42221632D01*
X180340000Y-42047240D01*
X180456525Y-42221632D01*
G37*
X180456525Y-42221632D02*
X180663368Y-42428475D01*
X180850000Y-42553179D01*
X180850001Y-53660197D01*
X180026495Y-54483704D01*
X178891199Y-54479029D01*
X178870287Y-54447733D01*
X178698267Y-54275713D01*
X178495992Y-54140557D01*
X178271236Y-54047460D01*
X178032637Y-54000000D01*
X177789363Y-54000000D01*
X177550764Y-54047460D01*
X177326008Y-54140557D01*
X177123733Y-54275713D01*
X176951713Y-54447733D01*
X176816557Y-54650008D01*
X176723460Y-54874764D01*
X176676000Y-55113363D01*
X176676000Y-55356637D01*
X176700633Y-55480476D01*
X176595992Y-55410557D01*
X176371236Y-55317460D01*
X176132637Y-55270000D01*
X175889363Y-55270000D01*
X175650764Y-55317460D01*
X175426008Y-55410557D01*
X175321367Y-55480476D01*
X175346000Y-55356637D01*
X175346000Y-55113363D01*
X175339602Y-55081199D01*
X179581004Y-50839798D01*
X179610001Y-50816001D01*
X179636332Y-50783917D01*
X179704974Y-50700277D01*
X179775546Y-50568247D01*
X179812801Y-50445430D01*
X179819003Y-50424986D01*
X179830000Y-50313333D01*
X179830000Y-50313324D01*
X179833676Y-50276001D01*
X179830000Y-50238678D01*
X179830000Y-42553178D01*
X180016632Y-42428475D01*
X180223475Y-42221632D01*
X180340000Y-42047240D01*
X180456525Y-42221632D01*
G36*
X177916525Y-42221632D02*
G01*
X178123368Y-42428475D01*
X178310001Y-42553179D01*
X178310000Y-49961198D01*
X174264801Y-54006398D01*
X174232637Y-54000000D01*
X173989363Y-54000000D01*
X173945999Y-54008626D01*
X173945999Y-51988212D01*
X174036066Y-52048393D01*
X174406413Y-52201796D01*
X174799570Y-52280000D01*
X175200430Y-52280000D01*
X175593587Y-52201796D01*
X175963934Y-52048393D01*
X176297237Y-51825687D01*
X176580687Y-51542237D01*
X176803393Y-51208934D01*
X176956796Y-50838587D01*
X177035000Y-50445430D01*
X177035000Y-50044570D01*
X176956796Y-49651413D01*
X176803393Y-49281066D01*
X176580687Y-48947763D01*
X176297237Y-48664313D01*
X175963934Y-48441607D01*
X175593587Y-48288204D01*
X175200430Y-48210000D01*
X174799570Y-48210000D01*
X174406413Y-48288204D01*
X174036066Y-48441607D01*
X173945999Y-48501788D01*
X173945999Y-44933802D01*
X176163592Y-42716210D01*
X176383740Y-42760000D01*
X176676260Y-42760000D01*
X176963158Y-42702932D01*
X177233411Y-42590990D01*
X177476632Y-42428475D01*
X177683475Y-42221632D01*
X177800000Y-42047240D01*
X177916525Y-42221632D01*
G37*
X177916525Y-42221632D02*
X178123368Y-42428475D01*
X178310001Y-42553179D01*
X178310000Y-49961198D01*
X174264801Y-54006398D01*
X174232637Y-54000000D01*
X173989363Y-54000000D01*
X173945999Y-54008626D01*
X173945999Y-51988212D01*
X174036066Y-52048393D01*
X174406413Y-52201796D01*
X174799570Y-52280000D01*
X175200430Y-52280000D01*
X175593587Y-52201796D01*
X175963934Y-52048393D01*
X176297237Y-51825687D01*
X176580687Y-51542237D01*
X176803393Y-51208934D01*
X176956796Y-50838587D01*
X177035000Y-50445430D01*
X177035000Y-50044570D01*
X176956796Y-49651413D01*
X176803393Y-49281066D01*
X176580687Y-48947763D01*
X176297237Y-48664313D01*
X175963934Y-48441607D01*
X175593587Y-48288204D01*
X175200430Y-48210000D01*
X174799570Y-48210000D01*
X174406413Y-48288204D01*
X174036066Y-48441607D01*
X173945999Y-48501788D01*
X173945999Y-44933802D01*
X176163592Y-42716210D01*
X176383740Y-42760000D01*
X176676260Y-42760000D01*
X176963158Y-42702932D01*
X177233411Y-42590990D01*
X177476632Y-42428475D01*
X177683475Y-42221632D01*
X177800000Y-42047240D01*
X177916525Y-42221632D01*
M02*
