G04 #@! TF.GenerationSoftware,KiCad,Pcbnew,(5.1.5)-3*
G04 #@! TF.CreationDate,2020-03-01T15:46:39+00:00*
G04 #@! TF.ProjectId,SCSIConnector,53435349-436f-46e6-9e65-63746f722e6b,rev?*
G04 #@! TF.SameCoordinates,Original*
G04 #@! TF.FileFunction,Legend,Bot*
G04 #@! TF.FilePolarity,Positive*
%FSLAX46Y46*%
G04 Gerber Fmt 4.6, Leading zero omitted, Abs format (unit mm)*
G04 Created by KiCad (PCBNEW (5.1.5)-3) date 2020-03-01 15:46:39*
%MOMM*%
%LPD*%
G04 APERTURE LIST*
%ADD10C,0.150000*%
%ADD11C,0.300000*%
%ADD12C,0.120000*%
G04 APERTURE END LIST*
D10*
X123372619Y-83113333D02*
X123848809Y-83446666D01*
X123372619Y-83684761D02*
X124372619Y-83684761D01*
X124372619Y-83303809D01*
X124325000Y-83208571D01*
X124277380Y-83160952D01*
X124182142Y-83113333D01*
X124039285Y-83113333D01*
X123944047Y-83160952D01*
X123896428Y-83208571D01*
X123848809Y-83303809D01*
X123848809Y-83684761D01*
X123420238Y-82303809D02*
X123372619Y-82399047D01*
X123372619Y-82589523D01*
X123420238Y-82684761D01*
X123515476Y-82732380D01*
X123896428Y-82732380D01*
X123991666Y-82684761D01*
X124039285Y-82589523D01*
X124039285Y-82399047D01*
X123991666Y-82303809D01*
X123896428Y-82256190D01*
X123801190Y-82256190D01*
X123705952Y-82732380D01*
X124039285Y-81922857D02*
X123372619Y-81684761D01*
X124039285Y-81446666D01*
X124372619Y-80113333D02*
X124372619Y-80018095D01*
X124325000Y-79922857D01*
X124277380Y-79875238D01*
X124182142Y-79827619D01*
X123991666Y-79780000D01*
X123753571Y-79780000D01*
X123563095Y-79827619D01*
X123467857Y-79875238D01*
X123420238Y-79922857D01*
X123372619Y-80018095D01*
X123372619Y-80113333D01*
X123420238Y-80208571D01*
X123467857Y-80256190D01*
X123563095Y-80303809D01*
X123753571Y-80351428D01*
X123991666Y-80351428D01*
X124182142Y-80303809D01*
X124277380Y-80256190D01*
X124325000Y-80208571D01*
X124372619Y-80113333D01*
X123372619Y-78827619D02*
X123372619Y-79399047D01*
X123372619Y-79113333D02*
X124372619Y-79113333D01*
X124229761Y-79208571D01*
X124134523Y-79303809D01*
X124086904Y-79399047D01*
D11*
X138894285Y-74067142D02*
X138965714Y-74210000D01*
X138965714Y-74495714D01*
X138894285Y-74638571D01*
X138751428Y-74781428D01*
X138608571Y-74852857D01*
X138322857Y-74852857D01*
X138180000Y-74781428D01*
X138037142Y-74638571D01*
X137965714Y-74495714D01*
X137965714Y-74210000D01*
X138037142Y-74067142D01*
X139465714Y-74352857D02*
X139394285Y-74710000D01*
X139180000Y-75067142D01*
X138822857Y-75281428D01*
X138465714Y-75352857D01*
X138108571Y-75281428D01*
X137751428Y-75067142D01*
X137537142Y-74710000D01*
X137465714Y-74352857D01*
X137537142Y-73995714D01*
X137751428Y-73638571D01*
X138108571Y-73424285D01*
X138465714Y-73352857D01*
X138822857Y-73424285D01*
X139180000Y-73638571D01*
X139394285Y-73995714D01*
X139465714Y-74352857D01*
X137751428Y-71567142D02*
X139251428Y-71567142D01*
X137751428Y-70710000D02*
X138608571Y-71352857D01*
X139251428Y-70710000D02*
X138394285Y-71567142D01*
X137822857Y-69495714D02*
X137751428Y-69638571D01*
X137751428Y-69924285D01*
X137822857Y-70067142D01*
X137965714Y-70138571D01*
X138537142Y-70138571D01*
X138680000Y-70067142D01*
X138751428Y-69924285D01*
X138751428Y-69638571D01*
X138680000Y-69495714D01*
X138537142Y-69424285D01*
X138394285Y-69424285D01*
X138251428Y-70138571D01*
X138751428Y-68781428D02*
X137751428Y-68781428D01*
X138608571Y-68781428D02*
X138680000Y-68710000D01*
X138751428Y-68567142D01*
X138751428Y-68352857D01*
X138680000Y-68210000D01*
X138537142Y-68138571D01*
X137751428Y-68138571D01*
X137751428Y-65567142D02*
X137751428Y-66281428D01*
X139251428Y-66281428D01*
X137751428Y-64852857D02*
X137822857Y-64995714D01*
X137894285Y-65067142D01*
X138037142Y-65138571D01*
X138465714Y-65138571D01*
X138608571Y-65067142D01*
X138680000Y-64995714D01*
X138751428Y-64852857D01*
X138751428Y-64638571D01*
X138680000Y-64495714D01*
X138608571Y-64424285D01*
X138465714Y-64352857D01*
X138037142Y-64352857D01*
X137894285Y-64424285D01*
X137822857Y-64495714D01*
X137751428Y-64638571D01*
X137751428Y-64852857D01*
X138751428Y-63852857D02*
X137751428Y-63567142D01*
X138465714Y-63281428D01*
X137751428Y-62995714D01*
X138751428Y-62710000D01*
X137822857Y-61567142D02*
X137751428Y-61710000D01*
X137751428Y-61995714D01*
X137822857Y-62138571D01*
X137965714Y-62210000D01*
X138537142Y-62210000D01*
X138680000Y-62138571D01*
X138751428Y-61995714D01*
X138751428Y-61710000D01*
X138680000Y-61567142D01*
X138537142Y-61495714D01*
X138394285Y-61495714D01*
X138251428Y-62210000D01*
X138322857Y-59710000D02*
X138322857Y-58567142D01*
X138537142Y-56210000D02*
X138537142Y-56710000D01*
X137751428Y-56710000D02*
X139251428Y-56710000D01*
X139251428Y-55995714D01*
X137822857Y-54852857D02*
X137751428Y-54995714D01*
X137751428Y-55281428D01*
X137822857Y-55424285D01*
X137965714Y-55495714D01*
X138537142Y-55495714D01*
X138680000Y-55424285D01*
X138751428Y-55281428D01*
X138751428Y-54995714D01*
X138680000Y-54852857D01*
X138537142Y-54781428D01*
X138394285Y-54781428D01*
X138251428Y-55495714D01*
X137751428Y-54138571D02*
X139251428Y-54138571D01*
X138680000Y-54138571D02*
X138751428Y-53995714D01*
X138751428Y-53710000D01*
X138680000Y-53567142D01*
X138608571Y-53495714D01*
X138465714Y-53424285D01*
X138037142Y-53424285D01*
X137894285Y-53495714D01*
X137822857Y-53567142D01*
X137751428Y-53710000D01*
X137751428Y-53995714D01*
X137822857Y-54138571D01*
X139108571Y-51710000D02*
X139180000Y-51638571D01*
X139251428Y-51495714D01*
X139251428Y-51138571D01*
X139180000Y-50995714D01*
X139108571Y-50924285D01*
X138965714Y-50852857D01*
X138822857Y-50852857D01*
X138608571Y-50924285D01*
X137751428Y-51781428D01*
X137751428Y-50852857D01*
X139251428Y-49924285D02*
X139251428Y-49781428D01*
X139180000Y-49638571D01*
X139108571Y-49567142D01*
X138965714Y-49495714D01*
X138680000Y-49424285D01*
X138322857Y-49424285D01*
X138037142Y-49495714D01*
X137894285Y-49567142D01*
X137822857Y-49638571D01*
X137751428Y-49781428D01*
X137751428Y-49924285D01*
X137822857Y-50067142D01*
X137894285Y-50138571D01*
X138037142Y-50210000D01*
X138322857Y-50281428D01*
X138680000Y-50281428D01*
X138965714Y-50210000D01*
X139108571Y-50138571D01*
X139180000Y-50067142D01*
X139251428Y-49924285D01*
X139108571Y-48852857D02*
X139180000Y-48781428D01*
X139251428Y-48638571D01*
X139251428Y-48281428D01*
X139180000Y-48138571D01*
X139108571Y-48067142D01*
X138965714Y-47995714D01*
X138822857Y-47995714D01*
X138608571Y-48067142D01*
X137751428Y-48924285D01*
X137751428Y-47995714D01*
X139251428Y-47067142D02*
X139251428Y-46924285D01*
X139180000Y-46781428D01*
X139108571Y-46710000D01*
X138965714Y-46638571D01*
X138680000Y-46567142D01*
X138322857Y-46567142D01*
X138037142Y-46638571D01*
X137894285Y-46710000D01*
X137822857Y-46781428D01*
X137751428Y-46924285D01*
X137751428Y-47067142D01*
X137822857Y-47210000D01*
X137894285Y-47281428D01*
X138037142Y-47352857D01*
X138322857Y-47424285D01*
X138680000Y-47424285D01*
X138965714Y-47352857D01*
X139108571Y-47281428D01*
X139180000Y-47210000D01*
X139251428Y-47067142D01*
D10*
X145184285Y-91725714D02*
X144517619Y-91725714D01*
X145565238Y-91963809D02*
X144850952Y-92201904D01*
X144850952Y-91582857D01*
X144517619Y-91154285D02*
X144517619Y-90963809D01*
X144565238Y-90868571D01*
X144612857Y-90820952D01*
X144755714Y-90725714D01*
X144946190Y-90678095D01*
X145327142Y-90678095D01*
X145422380Y-90725714D01*
X145470000Y-90773333D01*
X145517619Y-90868571D01*
X145517619Y-91059047D01*
X145470000Y-91154285D01*
X145422380Y-91201904D01*
X145327142Y-91249523D01*
X145089047Y-91249523D01*
X144993809Y-91201904D01*
X144946190Y-91154285D01*
X144898571Y-91059047D01*
X144898571Y-90868571D01*
X144946190Y-90773333D01*
X144993809Y-90725714D01*
X145089047Y-90678095D01*
X143867619Y-91678095D02*
X143867619Y-92154285D01*
X143391428Y-92201904D01*
X143439047Y-92154285D01*
X143486666Y-92059047D01*
X143486666Y-91820952D01*
X143439047Y-91725714D01*
X143391428Y-91678095D01*
X143296190Y-91630476D01*
X143058095Y-91630476D01*
X142962857Y-91678095D01*
X142915238Y-91725714D01*
X142867619Y-91820952D01*
X142867619Y-92059047D01*
X142915238Y-92154285D01*
X142962857Y-92201904D01*
X143867619Y-91011428D02*
X143867619Y-90916190D01*
X143820000Y-90820952D01*
X143772380Y-90773333D01*
X143677142Y-90725714D01*
X143486666Y-90678095D01*
X143248571Y-90678095D01*
X143058095Y-90725714D01*
X142962857Y-90773333D01*
X142915238Y-90820952D01*
X142867619Y-90916190D01*
X142867619Y-91011428D01*
X142915238Y-91106666D01*
X142962857Y-91154285D01*
X143058095Y-91201904D01*
X143248571Y-91249523D01*
X143486666Y-91249523D01*
X143677142Y-91201904D01*
X143772380Y-91154285D01*
X143820000Y-91106666D01*
X143867619Y-91011428D01*
X125499285Y-91725714D02*
X124832619Y-91725714D01*
X125880238Y-91963809D02*
X125165952Y-92201904D01*
X125165952Y-91582857D01*
X124832619Y-91154285D02*
X124832619Y-90963809D01*
X124880238Y-90868571D01*
X124927857Y-90820952D01*
X125070714Y-90725714D01*
X125261190Y-90678095D01*
X125642142Y-90678095D01*
X125737380Y-90725714D01*
X125785000Y-90773333D01*
X125832619Y-90868571D01*
X125832619Y-91059047D01*
X125785000Y-91154285D01*
X125737380Y-91201904D01*
X125642142Y-91249523D01*
X125404047Y-91249523D01*
X125308809Y-91201904D01*
X125261190Y-91154285D01*
X125213571Y-91059047D01*
X125213571Y-90868571D01*
X125261190Y-90773333D01*
X125308809Y-90725714D01*
X125404047Y-90678095D01*
X124182619Y-91678095D02*
X124182619Y-92154285D01*
X123706428Y-92201904D01*
X123754047Y-92154285D01*
X123801666Y-92059047D01*
X123801666Y-91820952D01*
X123754047Y-91725714D01*
X123706428Y-91678095D01*
X123611190Y-91630476D01*
X123373095Y-91630476D01*
X123277857Y-91678095D01*
X123230238Y-91725714D01*
X123182619Y-91820952D01*
X123182619Y-92059047D01*
X123230238Y-92154285D01*
X123277857Y-92201904D01*
X124182619Y-91011428D02*
X124182619Y-90916190D01*
X124135000Y-90820952D01*
X124087380Y-90773333D01*
X123992142Y-90725714D01*
X123801666Y-90678095D01*
X123563571Y-90678095D01*
X123373095Y-90725714D01*
X123277857Y-90773333D01*
X123230238Y-90820952D01*
X123182619Y-90916190D01*
X123182619Y-91011428D01*
X123230238Y-91106666D01*
X123277857Y-91154285D01*
X123373095Y-91201904D01*
X123563571Y-91249523D01*
X123801666Y-91249523D01*
X123992142Y-91201904D01*
X124087380Y-91154285D01*
X124135000Y-91106666D01*
X124182619Y-91011428D01*
X145152619Y-30194285D02*
X145152619Y-30765714D01*
X145152619Y-30480000D02*
X146152619Y-30480000D01*
X146009761Y-30575238D01*
X145914523Y-30670476D01*
X145866904Y-30765714D01*
X144407380Y-30765714D02*
X144455000Y-30718095D01*
X144502619Y-30622857D01*
X144502619Y-30384761D01*
X144455000Y-30289523D01*
X144407380Y-30241904D01*
X144312142Y-30194285D01*
X144216904Y-30194285D01*
X144074047Y-30241904D01*
X143502619Y-30813333D01*
X143502619Y-30194285D01*
X124832619Y-30194285D02*
X124832619Y-30765714D01*
X124832619Y-30480000D02*
X125832619Y-30480000D01*
X125689761Y-30575238D01*
X125594523Y-30670476D01*
X125546904Y-30765714D01*
X124087380Y-30765714D02*
X124135000Y-30718095D01*
X124182619Y-30622857D01*
X124182619Y-30384761D01*
X124135000Y-30289523D01*
X124087380Y-30241904D01*
X123992142Y-30194285D01*
X123896904Y-30194285D01*
X123754047Y-30241904D01*
X123182619Y-30813333D01*
X123182619Y-30194285D01*
D11*
X123217857Y-69460000D02*
X123146428Y-69245714D01*
X123146428Y-68888571D01*
X123217857Y-68745714D01*
X123289285Y-68674285D01*
X123432142Y-68602857D01*
X123575000Y-68602857D01*
X123717857Y-68674285D01*
X123789285Y-68745714D01*
X123860714Y-68888571D01*
X123932142Y-69174285D01*
X124003571Y-69317142D01*
X124075000Y-69388571D01*
X124217857Y-69460000D01*
X124360714Y-69460000D01*
X124503571Y-69388571D01*
X124575000Y-69317142D01*
X124646428Y-69174285D01*
X124646428Y-68817142D01*
X124575000Y-68602857D01*
X123289285Y-67102857D02*
X123217857Y-67174285D01*
X123146428Y-67388571D01*
X123146428Y-67531428D01*
X123217857Y-67745714D01*
X123360714Y-67888571D01*
X123503571Y-67960000D01*
X123789285Y-68031428D01*
X124003571Y-68031428D01*
X124289285Y-67960000D01*
X124432142Y-67888571D01*
X124575000Y-67745714D01*
X124646428Y-67531428D01*
X124646428Y-67388571D01*
X124575000Y-67174285D01*
X124503571Y-67102857D01*
X123217857Y-66531428D02*
X123146428Y-66317142D01*
X123146428Y-65960000D01*
X123217857Y-65817142D01*
X123289285Y-65745714D01*
X123432142Y-65674285D01*
X123575000Y-65674285D01*
X123717857Y-65745714D01*
X123789285Y-65817142D01*
X123860714Y-65960000D01*
X123932142Y-66245714D01*
X124003571Y-66388571D01*
X124075000Y-66460000D01*
X124217857Y-66531428D01*
X124360714Y-66531428D01*
X124503571Y-66460000D01*
X124575000Y-66388571D01*
X124646428Y-66245714D01*
X124646428Y-65888571D01*
X124575000Y-65674285D01*
X123146428Y-65031428D02*
X124646428Y-65031428D01*
X123146428Y-63174285D02*
X124646428Y-63174285D01*
X124646428Y-62817142D01*
X124575000Y-62602857D01*
X124432142Y-62460000D01*
X124289285Y-62388571D01*
X124003571Y-62317142D01*
X123789285Y-62317142D01*
X123503571Y-62388571D01*
X123360714Y-62460000D01*
X123217857Y-62602857D01*
X123146428Y-62817142D01*
X123146428Y-63174285D01*
X123146428Y-61674285D02*
X124146428Y-61674285D01*
X124646428Y-61674285D02*
X124575000Y-61745714D01*
X124503571Y-61674285D01*
X124575000Y-61602857D01*
X124646428Y-61674285D01*
X124503571Y-61674285D01*
X123217857Y-61031428D02*
X123146428Y-60888571D01*
X123146428Y-60602857D01*
X123217857Y-60460000D01*
X123360714Y-60388571D01*
X123432142Y-60388571D01*
X123575000Y-60460000D01*
X123646428Y-60602857D01*
X123646428Y-60817142D01*
X123717857Y-60960000D01*
X123860714Y-61031428D01*
X123932142Y-61031428D01*
X124075000Y-60960000D01*
X124146428Y-60817142D01*
X124146428Y-60602857D01*
X124075000Y-60460000D01*
X123146428Y-59745714D02*
X124646428Y-59745714D01*
X123717857Y-59602857D02*
X123146428Y-59174285D01*
X124146428Y-59174285D02*
X123575000Y-59745714D01*
X123146428Y-57388571D02*
X124646428Y-57388571D01*
X124646428Y-57031428D01*
X124575000Y-56817142D01*
X124432142Y-56674285D01*
X124289285Y-56602857D01*
X124003571Y-56531428D01*
X123789285Y-56531428D01*
X123503571Y-56602857D01*
X123360714Y-56674285D01*
X123217857Y-56817142D01*
X123146428Y-57031428D01*
X123146428Y-57388571D01*
X123146428Y-55888571D02*
X124146428Y-55888571D01*
X123860714Y-55888571D02*
X124003571Y-55817142D01*
X124075000Y-55745714D01*
X124146428Y-55602857D01*
X124146428Y-55460000D01*
X123146428Y-54960000D02*
X124146428Y-54960000D01*
X124646428Y-54960000D02*
X124575000Y-55031428D01*
X124503571Y-54960000D01*
X124575000Y-54888571D01*
X124646428Y-54960000D01*
X124503571Y-54960000D01*
X124146428Y-54388571D02*
X123146428Y-54031428D01*
X124146428Y-53674285D01*
X123217857Y-52531428D02*
X123146428Y-52674285D01*
X123146428Y-52960000D01*
X123217857Y-53102857D01*
X123360714Y-53174285D01*
X123932142Y-53174285D01*
X124075000Y-53102857D01*
X124146428Y-52960000D01*
X124146428Y-52674285D01*
X124075000Y-52531428D01*
X123932142Y-52460000D01*
X123789285Y-52460000D01*
X123646428Y-53174285D01*
X145522142Y-76924285D02*
X145450714Y-76710000D01*
X145379285Y-76638571D01*
X145236428Y-76567142D01*
X145022142Y-76567142D01*
X144879285Y-76638571D01*
X144807857Y-76710000D01*
X144736428Y-76852857D01*
X144736428Y-77424285D01*
X146236428Y-77424285D01*
X146236428Y-76924285D01*
X146165000Y-76781428D01*
X146093571Y-76710000D01*
X145950714Y-76638571D01*
X145807857Y-76638571D01*
X145665000Y-76710000D01*
X145593571Y-76781428D01*
X145522142Y-76924285D01*
X145522142Y-77424285D01*
X145522142Y-75424285D02*
X145450714Y-75210000D01*
X145379285Y-75138571D01*
X145236428Y-75067142D01*
X145022142Y-75067142D01*
X144879285Y-75138571D01*
X144807857Y-75210000D01*
X144736428Y-75352857D01*
X144736428Y-75924285D01*
X146236428Y-75924285D01*
X146236428Y-75424285D01*
X146165000Y-75281428D01*
X146093571Y-75210000D01*
X145950714Y-75138571D01*
X145807857Y-75138571D01*
X145665000Y-75210000D01*
X145593571Y-75281428D01*
X145522142Y-75424285D01*
X145522142Y-75924285D01*
X144879285Y-73567142D02*
X144807857Y-73638571D01*
X144736428Y-73852857D01*
X144736428Y-73995714D01*
X144807857Y-74210000D01*
X144950714Y-74352857D01*
X145093571Y-74424285D01*
X145379285Y-74495714D01*
X145593571Y-74495714D01*
X145879285Y-74424285D01*
X146022142Y-74352857D01*
X146165000Y-74210000D01*
X146236428Y-73995714D01*
X146236428Y-73852857D01*
X146165000Y-73638571D01*
X146093571Y-73567142D01*
X144736428Y-71781428D02*
X146236428Y-71781428D01*
X145165000Y-71281428D01*
X146236428Y-70781428D01*
X144736428Y-70781428D01*
X144736428Y-70067142D02*
X145736428Y-70067142D01*
X146236428Y-70067142D02*
X146165000Y-70138571D01*
X146093571Y-70067142D01*
X146165000Y-69995714D01*
X146236428Y-70067142D01*
X146093571Y-70067142D01*
X144807857Y-68710000D02*
X144736428Y-68852857D01*
X144736428Y-69138571D01*
X144807857Y-69281428D01*
X144879285Y-69352857D01*
X145022142Y-69424285D01*
X145450714Y-69424285D01*
X145593571Y-69352857D01*
X145665000Y-69281428D01*
X145736428Y-69138571D01*
X145736428Y-68852857D01*
X145665000Y-68710000D01*
X144736428Y-68067142D02*
X145736428Y-68067142D01*
X145450714Y-68067142D02*
X145593571Y-67995714D01*
X145665000Y-67924285D01*
X145736428Y-67781428D01*
X145736428Y-67638571D01*
X144736428Y-66924285D02*
X144807857Y-67067142D01*
X144879285Y-67138571D01*
X145022142Y-67210000D01*
X145450714Y-67210000D01*
X145593571Y-67138571D01*
X145665000Y-67067142D01*
X145736428Y-66924285D01*
X145736428Y-66710000D01*
X145665000Y-66567142D01*
X145593571Y-66495714D01*
X145450714Y-66424285D01*
X145022142Y-66424285D01*
X144879285Y-66495714D01*
X144807857Y-66567142D01*
X144736428Y-66710000D01*
X144736428Y-66924285D01*
X144807857Y-64710000D02*
X144736428Y-64495714D01*
X144736428Y-64138571D01*
X144807857Y-63995714D01*
X144879285Y-63924285D01*
X145022142Y-63852857D01*
X145165000Y-63852857D01*
X145307857Y-63924285D01*
X145379285Y-63995714D01*
X145450714Y-64138571D01*
X145522142Y-64424285D01*
X145593571Y-64567142D01*
X145665000Y-64638571D01*
X145807857Y-64710000D01*
X145950714Y-64710000D01*
X146093571Y-64638571D01*
X146165000Y-64567142D01*
X146236428Y-64424285D01*
X146236428Y-64067142D01*
X146165000Y-63852857D01*
X144879285Y-62352857D02*
X144807857Y-62424285D01*
X144736428Y-62638571D01*
X144736428Y-62781428D01*
X144807857Y-62995714D01*
X144950714Y-63138571D01*
X145093571Y-63210000D01*
X145379285Y-63281428D01*
X145593571Y-63281428D01*
X145879285Y-63210000D01*
X146022142Y-63138571D01*
X146165000Y-62995714D01*
X146236428Y-62781428D01*
X146236428Y-62638571D01*
X146165000Y-62424285D01*
X146093571Y-62352857D01*
X144807857Y-61781428D02*
X144736428Y-61567142D01*
X144736428Y-61210000D01*
X144807857Y-61067142D01*
X144879285Y-60995714D01*
X145022142Y-60924285D01*
X145165000Y-60924285D01*
X145307857Y-60995714D01*
X145379285Y-61067142D01*
X145450714Y-61210000D01*
X145522142Y-61495714D01*
X145593571Y-61638571D01*
X145665000Y-61710000D01*
X145807857Y-61781428D01*
X145950714Y-61781428D01*
X146093571Y-61710000D01*
X146165000Y-61638571D01*
X146236428Y-61495714D01*
X146236428Y-61138571D01*
X146165000Y-60924285D01*
X144736428Y-60281428D02*
X146236428Y-60281428D01*
X144736428Y-58424285D02*
X146236428Y-58424285D01*
X145522142Y-58424285D02*
X145522142Y-57567142D01*
X144736428Y-57567142D02*
X146236428Y-57567142D01*
X144736428Y-56638571D02*
X144807857Y-56781428D01*
X144879285Y-56852857D01*
X145022142Y-56924285D01*
X145450714Y-56924285D01*
X145593571Y-56852857D01*
X145665000Y-56781428D01*
X145736428Y-56638571D01*
X145736428Y-56424285D01*
X145665000Y-56281428D01*
X145593571Y-56210000D01*
X145450714Y-56138571D01*
X145022142Y-56138571D01*
X144879285Y-56210000D01*
X144807857Y-56281428D01*
X144736428Y-56424285D01*
X144736428Y-56638571D01*
X144807857Y-55567142D02*
X144736428Y-55424285D01*
X144736428Y-55138571D01*
X144807857Y-54995714D01*
X144950714Y-54924285D01*
X145022142Y-54924285D01*
X145165000Y-54995714D01*
X145236428Y-55138571D01*
X145236428Y-55352857D01*
X145307857Y-55495714D01*
X145450714Y-55567142D01*
X145522142Y-55567142D01*
X145665000Y-55495714D01*
X145736428Y-55352857D01*
X145736428Y-55138571D01*
X145665000Y-54995714D01*
X145736428Y-54495714D02*
X145736428Y-53924285D01*
X146236428Y-54281428D02*
X144950714Y-54281428D01*
X144807857Y-54210000D01*
X144736428Y-54067142D01*
X144736428Y-53924285D01*
X145165000Y-52352857D02*
X145165000Y-51638571D01*
X144736428Y-52495714D02*
X146236428Y-51995714D01*
X144736428Y-51495714D01*
X144736428Y-50352857D02*
X146236428Y-50352857D01*
X144807857Y-50352857D02*
X144736428Y-50495714D01*
X144736428Y-50781428D01*
X144807857Y-50924285D01*
X144879285Y-50995714D01*
X145022142Y-51067142D01*
X145450714Y-51067142D01*
X145593571Y-50995714D01*
X145665000Y-50924285D01*
X145736428Y-50781428D01*
X145736428Y-50495714D01*
X145665000Y-50352857D01*
X144736428Y-48995714D02*
X145522142Y-48995714D01*
X145665000Y-49067142D01*
X145736428Y-49210000D01*
X145736428Y-49495714D01*
X145665000Y-49638571D01*
X144807857Y-48995714D02*
X144736428Y-49138571D01*
X144736428Y-49495714D01*
X144807857Y-49638571D01*
X144950714Y-49710000D01*
X145093571Y-49710000D01*
X145236428Y-49638571D01*
X145307857Y-49495714D01*
X145307857Y-49138571D01*
X145379285Y-48995714D01*
X145736428Y-48281428D02*
X144236428Y-48281428D01*
X145665000Y-48281428D02*
X145736428Y-48138571D01*
X145736428Y-47852857D01*
X145665000Y-47710000D01*
X145593571Y-47638571D01*
X145450714Y-47567142D01*
X145022142Y-47567142D01*
X144879285Y-47638571D01*
X144807857Y-47710000D01*
X144736428Y-47852857D01*
X144736428Y-48138571D01*
X144807857Y-48281428D01*
X145736428Y-47138571D02*
X145736428Y-46567142D01*
X146236428Y-46924285D02*
X144950714Y-46924285D01*
X144807857Y-46852857D01*
X144736428Y-46710000D01*
X144736428Y-46567142D01*
X144736428Y-45852857D02*
X144807857Y-45995714D01*
X144879285Y-46067142D01*
X145022142Y-46138571D01*
X145450714Y-46138571D01*
X145593571Y-46067142D01*
X145665000Y-45995714D01*
X145736428Y-45852857D01*
X145736428Y-45638571D01*
X145665000Y-45495714D01*
X145593571Y-45424285D01*
X145450714Y-45352857D01*
X145022142Y-45352857D01*
X144879285Y-45424285D01*
X144807857Y-45495714D01*
X144736428Y-45638571D01*
X144736428Y-45852857D01*
X144736428Y-44710000D02*
X145736428Y-44710000D01*
X145450714Y-44710000D02*
X145593571Y-44638571D01*
X145665000Y-44567142D01*
X145736428Y-44424285D01*
X145736428Y-44281428D01*
D12*
X122555000Y-93345000D02*
X122555000Y-28575000D01*
X146685000Y-28575000D02*
X146685000Y-93345000D01*
D10*
X145057857Y-33710476D02*
X145010238Y-33758095D01*
X144962619Y-33900952D01*
X144962619Y-33996190D01*
X145010238Y-34139047D01*
X145105476Y-34234285D01*
X145200714Y-34281904D01*
X145391190Y-34329523D01*
X145534047Y-34329523D01*
X145724523Y-34281904D01*
X145819761Y-34234285D01*
X145915000Y-34139047D01*
X145962619Y-33996190D01*
X145962619Y-33900952D01*
X145915000Y-33758095D01*
X145867380Y-33710476D01*
X144962619Y-33281904D02*
X145962619Y-33281904D01*
X144962619Y-32710476D01*
X145962619Y-32710476D01*
X144962619Y-31710476D02*
X144962619Y-32281904D01*
X144962619Y-31996190D02*
X145962619Y-31996190D01*
X145819761Y-32091428D01*
X145724523Y-32186666D01*
X145676904Y-32281904D01*
X123467857Y-33710476D02*
X123420238Y-33758095D01*
X123372619Y-33900952D01*
X123372619Y-33996190D01*
X123420238Y-34139047D01*
X123515476Y-34234285D01*
X123610714Y-34281904D01*
X123801190Y-34329523D01*
X123944047Y-34329523D01*
X124134523Y-34281904D01*
X124229761Y-34234285D01*
X124325000Y-34139047D01*
X124372619Y-33996190D01*
X124372619Y-33900952D01*
X124325000Y-33758095D01*
X124277380Y-33710476D01*
X123372619Y-33281904D02*
X124372619Y-33281904D01*
X123372619Y-32710476D01*
X124372619Y-32710476D01*
X124277380Y-32281904D02*
X124325000Y-32234285D01*
X124372619Y-32139047D01*
X124372619Y-31900952D01*
X124325000Y-31805714D01*
X124277380Y-31758095D01*
X124182142Y-31710476D01*
X124086904Y-31710476D01*
X123944047Y-31758095D01*
X123372619Y-32329523D01*
X123372619Y-31710476D01*
M02*
