G04 #@! TF.GenerationSoftware,KiCad,Pcbnew,(5.1.5)-3*
G04 #@! TF.CreationDate,2020-03-01T15:46:39+00:00*
G04 #@! TF.ProjectId,SCSIConnector,53435349-436f-46e6-9e65-63746f722e6b,rev?*
G04 #@! TF.SameCoordinates,Original*
G04 #@! TF.FileFunction,Copper,L1,Top*
G04 #@! TF.FilePolarity,Positive*
%FSLAX46Y46*%
G04 Gerber Fmt 4.6, Leading zero omitted, Abs format (unit mm)*
G04 Created by KiCad (PCBNEW (5.1.5)-3) date 2020-03-01 15:46:39*
%MOMM*%
%LPD*%
G04 APERTURE LIST*
%ADD10O,1.700000X1.700000*%
%ADD11R,1.700000X1.700000*%
%ADD12C,0.250000*%
%ADD13C,0.254000*%
G04 APERTURE END LIST*
D10*
X148590000Y-91440000D03*
X151130000Y-91440000D03*
X148590000Y-88900000D03*
X151130000Y-88900000D03*
X148590000Y-86360000D03*
X151130000Y-86360000D03*
X148590000Y-83820000D03*
X151130000Y-83820000D03*
X148590000Y-81280000D03*
X151130000Y-81280000D03*
X148590000Y-78740000D03*
X151130000Y-78740000D03*
X148590000Y-76200000D03*
X151130000Y-76200000D03*
X148590000Y-73660000D03*
X151130000Y-73660000D03*
X148590000Y-71120000D03*
X151130000Y-71120000D03*
X148590000Y-68580000D03*
X151130000Y-68580000D03*
X148590000Y-66040000D03*
X151130000Y-66040000D03*
X148590000Y-63500000D03*
X151130000Y-63500000D03*
X148590000Y-60960000D03*
X151130000Y-60960000D03*
X148590000Y-58420000D03*
X151130000Y-58420000D03*
X148590000Y-55880000D03*
X151130000Y-55880000D03*
X148590000Y-53340000D03*
X151130000Y-53340000D03*
X148590000Y-50800000D03*
X151130000Y-50800000D03*
X148590000Y-48260000D03*
X151130000Y-48260000D03*
X148590000Y-45720000D03*
X151130000Y-45720000D03*
X148590000Y-43180000D03*
X151130000Y-43180000D03*
X148590000Y-40640000D03*
X151130000Y-40640000D03*
X148590000Y-38100000D03*
X151130000Y-38100000D03*
X148590000Y-35560000D03*
X151130000Y-35560000D03*
X148590000Y-33020000D03*
X151130000Y-33020000D03*
X148590000Y-30480000D03*
D11*
X151130000Y-30480000D03*
D10*
X118110000Y-91440000D03*
X120650000Y-91440000D03*
X118110000Y-88900000D03*
X120650000Y-88900000D03*
X118110000Y-86360000D03*
X120650000Y-86360000D03*
X118110000Y-83820000D03*
X120650000Y-83820000D03*
X118110000Y-81280000D03*
X120650000Y-81280000D03*
X118110000Y-78740000D03*
X120650000Y-78740000D03*
X118110000Y-76200000D03*
X120650000Y-76200000D03*
X118110000Y-73660000D03*
X120650000Y-73660000D03*
X118110000Y-71120000D03*
X120650000Y-71120000D03*
X118110000Y-68580000D03*
X120650000Y-68580000D03*
X118110000Y-66040000D03*
X120650000Y-66040000D03*
X118110000Y-63500000D03*
X120650000Y-63500000D03*
X118110000Y-60960000D03*
X120650000Y-60960000D03*
X118110000Y-58420000D03*
X120650000Y-58420000D03*
X118110000Y-55880000D03*
X120650000Y-55880000D03*
X118110000Y-53340000D03*
X120650000Y-53340000D03*
X118110000Y-50800000D03*
X120650000Y-50800000D03*
X118110000Y-48260000D03*
X120650000Y-48260000D03*
X118110000Y-45720000D03*
X120650000Y-45720000D03*
X118110000Y-43180000D03*
X120650000Y-43180000D03*
X118110000Y-40640000D03*
X120650000Y-40640000D03*
X118110000Y-38100000D03*
X120650000Y-38100000D03*
X118110000Y-35560000D03*
X120650000Y-35560000D03*
X118110000Y-33020000D03*
X120650000Y-33020000D03*
X118110000Y-30480000D03*
D11*
X120650000Y-30480000D03*
D12*
X119285001Y-92615001D02*
X145509999Y-92615001D01*
X118110000Y-91440000D02*
X119285001Y-92615001D01*
X146685000Y-91440000D02*
X148590000Y-91440000D01*
X145509999Y-92615001D02*
X146685000Y-91440000D01*
X119474999Y-90264999D02*
X145320001Y-90264999D01*
X118110000Y-88900000D02*
X119474999Y-90264999D01*
X146685000Y-88900000D02*
X148590000Y-88900000D01*
X145320001Y-90264999D02*
X146685000Y-88900000D01*
X119474999Y-87724999D02*
X145320001Y-87724999D01*
X118110000Y-86360000D02*
X119474999Y-87724999D01*
X146685000Y-86360000D02*
X148590000Y-86360000D01*
X145320001Y-87724999D02*
X146685000Y-86360000D01*
X119285001Y-84995001D02*
X145509999Y-84995001D01*
X118110000Y-83820000D02*
X119285001Y-84995001D01*
X146685000Y-83820000D02*
X148590000Y-83820000D01*
X145509999Y-84995001D02*
X146685000Y-83820000D01*
X119285001Y-82455001D02*
X145509999Y-82455001D01*
X118110000Y-81280000D02*
X119285001Y-82455001D01*
X146685000Y-81280000D02*
X148590000Y-81280000D01*
X145509999Y-82455001D02*
X146685000Y-81280000D01*
X119285001Y-79915001D02*
X145509999Y-79915001D01*
X118110000Y-78740000D02*
X119285001Y-79915001D01*
X146685000Y-78740000D02*
X148590000Y-78740000D01*
X145509999Y-79915001D02*
X146685000Y-78740000D01*
X119285001Y-77375001D02*
X145509999Y-77375001D01*
X118110000Y-76200000D02*
X119285001Y-77375001D01*
X146685000Y-76200000D02*
X148590000Y-76200000D01*
X145509999Y-77375001D02*
X146685000Y-76200000D01*
X119474999Y-75024999D02*
X145320001Y-75024999D01*
X118110000Y-73660000D02*
X119474999Y-75024999D01*
X146685000Y-73660000D02*
X148590000Y-73660000D01*
X145320001Y-75024999D02*
X146685000Y-73660000D01*
X119285001Y-72295001D02*
X145509999Y-72295001D01*
X118110000Y-71120000D02*
X119285001Y-72295001D01*
X146685000Y-71120000D02*
X148590000Y-71120000D01*
X145509999Y-72295001D02*
X146685000Y-71120000D01*
X119285001Y-69755001D02*
X145509999Y-69755001D01*
X118110000Y-68580000D02*
X119285001Y-69755001D01*
X146685000Y-68580000D02*
X148590000Y-68580000D01*
X145509999Y-69755001D02*
X146685000Y-68580000D01*
X119285001Y-67215001D02*
X145509999Y-67215001D01*
X118110000Y-66040000D02*
X119285001Y-67215001D01*
X146685000Y-66040000D02*
X148590000Y-66040000D01*
X145509999Y-67215001D02*
X146685000Y-66040000D01*
X119285001Y-64675001D02*
X145509999Y-64675001D01*
X118110000Y-63500000D02*
X119285001Y-64675001D01*
X146685000Y-63500000D02*
X148590000Y-63500000D01*
X145509999Y-64675001D02*
X146685000Y-63500000D01*
X119285001Y-62135001D02*
X145509999Y-62135001D01*
X118110000Y-60960000D02*
X119285001Y-62135001D01*
X146685000Y-60960000D02*
X148590000Y-60960000D01*
X145509999Y-62135001D02*
X146685000Y-60960000D01*
X119474999Y-59784999D02*
X145320001Y-59784999D01*
X118110000Y-58420000D02*
X119474999Y-59784999D01*
X146685000Y-58420000D02*
X148590000Y-58420000D01*
X145320001Y-59784999D02*
X146685000Y-58420000D01*
X119285001Y-57055001D02*
X145320001Y-57055001D01*
X118110000Y-55880000D02*
X119285001Y-57055001D01*
X146495002Y-55880000D02*
X148590000Y-55880000D01*
X145320001Y-57055001D02*
X146495002Y-55880000D01*
X119285001Y-54515001D02*
X145320001Y-54515001D01*
X118110000Y-53340000D02*
X119285001Y-54515001D01*
X146495002Y-53340000D02*
X148590000Y-53340000D01*
X145320001Y-54515001D02*
X146495002Y-53340000D01*
X119285001Y-51975001D02*
X145320001Y-51975001D01*
X118110000Y-50800000D02*
X119285001Y-51975001D01*
X145320001Y-51975001D02*
X146495002Y-50800000D01*
X146495002Y-50800000D02*
X148590000Y-50800000D01*
X119474999Y-49624999D02*
X145320001Y-49624999D01*
X118110000Y-48260000D02*
X119474999Y-49624999D01*
X145320001Y-49624999D02*
X146685000Y-48260000D01*
X146685000Y-48260000D02*
X148590000Y-48260000D01*
X119474999Y-47084999D02*
X145320001Y-47084999D01*
X118110000Y-45720000D02*
X119474999Y-47084999D01*
X146685000Y-45720000D02*
X148590000Y-45720000D01*
X145320001Y-47084999D02*
X146685000Y-45720000D01*
X146685000Y-43180000D02*
X148590000Y-43180000D01*
X145320001Y-44544999D02*
X146685000Y-43180000D01*
X118110000Y-43180000D02*
X119474999Y-44544999D01*
X119474999Y-44544999D02*
X145320001Y-44544999D01*
X146685000Y-40640000D02*
X148590000Y-40640000D01*
X145320001Y-42004999D02*
X146685000Y-40640000D01*
X118110000Y-40640000D02*
X119474999Y-42004999D01*
X119474999Y-42004999D02*
X145320001Y-42004999D01*
X119285001Y-39275001D02*
X145320001Y-39275001D01*
X118110000Y-38100000D02*
X119285001Y-39275001D01*
X146495002Y-38100000D02*
X148590000Y-38100000D01*
X145320001Y-39275001D02*
X146495002Y-38100000D01*
X119285001Y-36735001D02*
X145509999Y-36735001D01*
X118110000Y-35560000D02*
X119285001Y-36735001D01*
X146685000Y-35560000D02*
X148590000Y-35560000D01*
X145509999Y-36735001D02*
X146685000Y-35560000D01*
X119285001Y-34195001D02*
X145320001Y-34195001D01*
X118110000Y-33020000D02*
X119285001Y-34195001D01*
X146495002Y-33020000D02*
X148590000Y-33020000D01*
X145320001Y-34195001D02*
X146495002Y-33020000D01*
X146685000Y-30480000D02*
X148590000Y-30480000D01*
X145415000Y-31750000D02*
X146685000Y-30480000D01*
X119380000Y-31750000D02*
X145415000Y-31750000D01*
X118110000Y-30480000D02*
X119380000Y-31750000D01*
X120650000Y-91440000D02*
X145415000Y-91440000D01*
X150280001Y-90590001D02*
X151130000Y-91440000D01*
X149954999Y-90264999D02*
X150280001Y-90590001D01*
X146590001Y-90264999D02*
X149954999Y-90264999D01*
X145415000Y-91440000D02*
X146590001Y-90264999D01*
X120650000Y-88900000D02*
X145415000Y-88900000D01*
X150280001Y-88050001D02*
X151130000Y-88900000D01*
X149954999Y-87724999D02*
X150280001Y-88050001D01*
X146590001Y-87724999D02*
X149954999Y-87724999D01*
X145415000Y-88900000D02*
X146590001Y-87724999D01*
X120650000Y-86360000D02*
X145415000Y-86360000D01*
X149954999Y-85184999D02*
X150280001Y-85510001D01*
X146590001Y-85184999D02*
X149954999Y-85184999D01*
X150280001Y-85510001D02*
X151130000Y-86360000D01*
X145415000Y-86360000D02*
X146590001Y-85184999D01*
X120650000Y-83820000D02*
X145415000Y-83820000D01*
X150280001Y-82970001D02*
X151130000Y-83820000D01*
X149954999Y-82644999D02*
X150280001Y-82970001D01*
X146590001Y-82644999D02*
X149954999Y-82644999D01*
X145415000Y-83820000D02*
X146590001Y-82644999D01*
X120650000Y-81280000D02*
X145415000Y-81280000D01*
X150280001Y-80430001D02*
X151130000Y-81280000D01*
X149954999Y-80104999D02*
X150280001Y-80430001D01*
X146590001Y-80104999D02*
X149954999Y-80104999D01*
X145415000Y-81280000D02*
X146590001Y-80104999D01*
X120650000Y-78740000D02*
X145415000Y-78740000D01*
X149954999Y-77564999D02*
X150280001Y-77890001D01*
X146590001Y-77564999D02*
X149954999Y-77564999D01*
X150280001Y-77890001D02*
X151130000Y-78740000D01*
X145415000Y-78740000D02*
X146590001Y-77564999D01*
X120650000Y-76200000D02*
X145415000Y-76200000D01*
X149954999Y-75024999D02*
X150280001Y-75350001D01*
X150280001Y-75350001D02*
X151130000Y-76200000D01*
X146590001Y-75024999D02*
X149954999Y-75024999D01*
X145415000Y-76200000D02*
X146590001Y-75024999D01*
X120650000Y-73660000D02*
X145415000Y-73660000D01*
X150280001Y-72810001D02*
X151130000Y-73660000D01*
X149954999Y-72484999D02*
X150280001Y-72810001D01*
X146590001Y-72484999D02*
X149954999Y-72484999D01*
X145415000Y-73660000D02*
X146590001Y-72484999D01*
X120650000Y-71120000D02*
X145415000Y-71120000D01*
X150280001Y-70270001D02*
X151130000Y-71120000D01*
X149954999Y-69944999D02*
X150280001Y-70270001D01*
X146590001Y-69944999D02*
X149954999Y-69944999D01*
X145415000Y-71120000D02*
X146590001Y-69944999D01*
X120650000Y-68580000D02*
X145415000Y-68580000D01*
X150280001Y-67730001D02*
X151130000Y-68580000D01*
X149954999Y-67404999D02*
X150280001Y-67730001D01*
X146590001Y-67404999D02*
X149954999Y-67404999D01*
X145415000Y-68580000D02*
X146590001Y-67404999D01*
X120650000Y-66040000D02*
X145415000Y-66040000D01*
X145415000Y-66040000D02*
X146685000Y-64770000D01*
X149860000Y-64770000D02*
X151130000Y-66040000D01*
X146685000Y-64770000D02*
X149860000Y-64770000D01*
X120650000Y-63500000D02*
X145415000Y-63500000D01*
X145415000Y-63500000D02*
X146685000Y-62230000D01*
X149860000Y-62230000D02*
X151130000Y-63500000D01*
X146685000Y-62230000D02*
X149860000Y-62230000D01*
X120650000Y-60960000D02*
X145415000Y-60960000D01*
X145415000Y-60960000D02*
X146685000Y-59690000D01*
X149860000Y-59690000D02*
X151130000Y-60960000D01*
X146685000Y-59690000D02*
X149860000Y-59690000D01*
X120650000Y-58420000D02*
X145415000Y-58420000D01*
X150280001Y-57570001D02*
X151130000Y-58420000D01*
X146590001Y-57244999D02*
X149954999Y-57244999D01*
X149954999Y-57244999D02*
X150280001Y-57570001D01*
X145415000Y-58420000D02*
X146590001Y-57244999D01*
X120650000Y-55880000D02*
X145415000Y-55880000D01*
X145415000Y-55880000D02*
X146685000Y-54610000D01*
X149860000Y-54610000D02*
X151130000Y-55880000D01*
X146685000Y-54610000D02*
X149860000Y-54610000D01*
X120650000Y-53340000D02*
X145415000Y-53340000D01*
X145415000Y-53340000D02*
X146685000Y-52070000D01*
X149860000Y-52070000D02*
X151130000Y-53340000D01*
X146685000Y-52070000D02*
X149860000Y-52070000D01*
X120650000Y-50800000D02*
X145415000Y-50800000D01*
X145415000Y-50800000D02*
X146685000Y-49530000D01*
X149860000Y-49530000D02*
X151130000Y-50800000D01*
X146685000Y-49530000D02*
X149860000Y-49530000D01*
X120650000Y-48260000D02*
X145415000Y-48260000D01*
X145415000Y-48260000D02*
X146685000Y-46990000D01*
X149860000Y-46990000D02*
X151130000Y-48260000D01*
X146685000Y-46990000D02*
X149860000Y-46990000D01*
X120650000Y-45720000D02*
X145415000Y-45720000D01*
X145415000Y-45720000D02*
X146685000Y-44450000D01*
X149860000Y-44450000D02*
X151130000Y-45720000D01*
X146685000Y-44450000D02*
X149860000Y-44450000D01*
X120650000Y-43180000D02*
X145415000Y-43180000D01*
X145415000Y-43180000D02*
X146685000Y-41910000D01*
X149860000Y-41910000D02*
X151130000Y-43180000D01*
X146685000Y-41910000D02*
X149860000Y-41910000D01*
X120650000Y-40640000D02*
X145415000Y-40640000D01*
X145415000Y-40640000D02*
X146685000Y-39370000D01*
X149860000Y-39370000D02*
X151130000Y-40640000D01*
X146685000Y-39370000D02*
X149860000Y-39370000D01*
X145415000Y-38100000D02*
X146685000Y-36830000D01*
X120650000Y-38100000D02*
X145415000Y-38100000D01*
X149860000Y-36830000D02*
X151130000Y-38100000D01*
X146685000Y-36830000D02*
X149860000Y-36830000D01*
X120650000Y-35560000D02*
X145415000Y-35560000D01*
X145415000Y-35560000D02*
X146685000Y-34290000D01*
X149860000Y-34290000D02*
X151130000Y-35560000D01*
X146685000Y-34290000D02*
X149860000Y-34290000D01*
X150280001Y-32170001D02*
X151130000Y-33020000D01*
X149954999Y-31844999D02*
X150280001Y-32170001D01*
X146590001Y-31844999D02*
X149954999Y-31844999D01*
X145415000Y-33020000D02*
X146590001Y-31844999D01*
X120650000Y-33020000D02*
X145415000Y-33020000D01*
X145415000Y-30480000D02*
X120650000Y-30480000D01*
X146590001Y-29304999D02*
X145415000Y-30480000D01*
X151130000Y-30480000D02*
X149954999Y-29304999D01*
X149954999Y-29304999D02*
X146590001Y-29304999D01*
D13*
G36*
X147436525Y-89846632D02*
G01*
X147643368Y-90053475D01*
X147817760Y-90170000D01*
X147643368Y-90286525D01*
X147436525Y-90493368D01*
X147311822Y-90680000D01*
X146722322Y-90680000D01*
X146684999Y-90676324D01*
X146647676Y-90680000D01*
X146647667Y-90680000D01*
X146536014Y-90690997D01*
X146392753Y-90734454D01*
X146260724Y-90805026D01*
X146144999Y-90899999D01*
X146121201Y-90928997D01*
X145195198Y-91855001D01*
X122073850Y-91855001D01*
X122091476Y-91796890D01*
X121970155Y-91567000D01*
X120777000Y-91567000D01*
X120777000Y-91587000D01*
X120523000Y-91587000D01*
X120523000Y-91567000D01*
X120503000Y-91567000D01*
X120503000Y-91313000D01*
X120523000Y-91313000D01*
X120523000Y-91293000D01*
X120777000Y-91293000D01*
X120777000Y-91313000D01*
X121970155Y-91313000D01*
X122091476Y-91083110D01*
X122073850Y-91024999D01*
X145282679Y-91024999D01*
X145320001Y-91028675D01*
X145357323Y-91024999D01*
X145357334Y-91024999D01*
X145468987Y-91014002D01*
X145612248Y-90970545D01*
X145744277Y-90899973D01*
X145860002Y-90805000D01*
X145883805Y-90775996D01*
X146999802Y-89660000D01*
X147311822Y-89660000D01*
X147436525Y-89846632D01*
G37*
X147436525Y-89846632D02*
X147643368Y-90053475D01*
X147817760Y-90170000D01*
X147643368Y-90286525D01*
X147436525Y-90493368D01*
X147311822Y-90680000D01*
X146722322Y-90680000D01*
X146684999Y-90676324D01*
X146647676Y-90680000D01*
X146647667Y-90680000D01*
X146536014Y-90690997D01*
X146392753Y-90734454D01*
X146260724Y-90805026D01*
X146144999Y-90899999D01*
X146121201Y-90928997D01*
X145195198Y-91855001D01*
X122073850Y-91855001D01*
X122091476Y-91796890D01*
X121970155Y-91567000D01*
X120777000Y-91567000D01*
X120777000Y-91587000D01*
X120523000Y-91587000D01*
X120523000Y-91567000D01*
X120503000Y-91567000D01*
X120503000Y-91313000D01*
X120523000Y-91313000D01*
X120523000Y-91293000D01*
X120777000Y-91293000D01*
X120777000Y-91313000D01*
X121970155Y-91313000D01*
X122091476Y-91083110D01*
X122073850Y-91024999D01*
X145282679Y-91024999D01*
X145320001Y-91028675D01*
X145357323Y-91024999D01*
X145357334Y-91024999D01*
X145468987Y-91014002D01*
X145612248Y-90970545D01*
X145744277Y-90899973D01*
X145860002Y-90805000D01*
X145883805Y-90775996D01*
X146999802Y-89660000D01*
X147311822Y-89660000D01*
X147436525Y-89846632D01*
G36*
X151257000Y-30353000D02*
G01*
X151277000Y-30353000D01*
X151277000Y-30607000D01*
X151257000Y-30607000D01*
X151257000Y-32893000D01*
X151277000Y-32893000D01*
X151277000Y-33147000D01*
X151257000Y-33147000D01*
X151257000Y-35433000D01*
X151277000Y-35433000D01*
X151277000Y-35687000D01*
X151257000Y-35687000D01*
X151257000Y-37973000D01*
X151277000Y-37973000D01*
X151277000Y-38227000D01*
X151257000Y-38227000D01*
X151257000Y-40513000D01*
X151277000Y-40513000D01*
X151277000Y-40767000D01*
X151257000Y-40767000D01*
X151257000Y-43053000D01*
X151277000Y-43053000D01*
X151277000Y-43307000D01*
X151257000Y-43307000D01*
X151257000Y-45593000D01*
X151277000Y-45593000D01*
X151277000Y-45847000D01*
X151257000Y-45847000D01*
X151257000Y-48133000D01*
X151277000Y-48133000D01*
X151277000Y-48387000D01*
X151257000Y-48387000D01*
X151257000Y-50673000D01*
X151277000Y-50673000D01*
X151277000Y-50927000D01*
X151257000Y-50927000D01*
X151257000Y-53213000D01*
X151277000Y-53213000D01*
X151277000Y-53467000D01*
X151257000Y-53467000D01*
X151257000Y-55753000D01*
X151277000Y-55753000D01*
X151277000Y-56007000D01*
X151257000Y-56007000D01*
X151257000Y-58293000D01*
X151277000Y-58293000D01*
X151277000Y-58547000D01*
X151257000Y-58547000D01*
X151257000Y-60833000D01*
X151277000Y-60833000D01*
X151277000Y-61087000D01*
X151257000Y-61087000D01*
X151257000Y-63373000D01*
X151277000Y-63373000D01*
X151277000Y-63627000D01*
X151257000Y-63627000D01*
X151257000Y-65913000D01*
X151277000Y-65913000D01*
X151277000Y-66167000D01*
X151257000Y-66167000D01*
X151257000Y-68453000D01*
X151277000Y-68453000D01*
X151277000Y-68707000D01*
X151257000Y-68707000D01*
X151257000Y-70993000D01*
X151277000Y-70993000D01*
X151277000Y-71247000D01*
X151257000Y-71247000D01*
X151257000Y-73533000D01*
X151277000Y-73533000D01*
X151277000Y-73787000D01*
X151257000Y-73787000D01*
X151257000Y-76073000D01*
X151277000Y-76073000D01*
X151277000Y-76327000D01*
X151257000Y-76327000D01*
X151257000Y-78613000D01*
X151277000Y-78613000D01*
X151277000Y-78867000D01*
X151257000Y-78867000D01*
X151257000Y-81153000D01*
X151277000Y-81153000D01*
X151277000Y-81407000D01*
X151257000Y-81407000D01*
X151257000Y-83693000D01*
X151277000Y-83693000D01*
X151277000Y-83947000D01*
X151257000Y-83947000D01*
X151257000Y-86233000D01*
X151277000Y-86233000D01*
X151277000Y-86487000D01*
X151257000Y-86487000D01*
X151257000Y-88773000D01*
X151277000Y-88773000D01*
X151277000Y-89027000D01*
X151257000Y-89027000D01*
X151257000Y-91313000D01*
X151277000Y-91313000D01*
X151277000Y-91567000D01*
X151257000Y-91567000D01*
X151257000Y-91587000D01*
X151003000Y-91587000D01*
X151003000Y-91567000D01*
X150983000Y-91567000D01*
X150983000Y-91313000D01*
X151003000Y-91313000D01*
X151003000Y-89027000D01*
X150983000Y-89027000D01*
X150983000Y-88773000D01*
X151003000Y-88773000D01*
X151003000Y-86487000D01*
X150983000Y-86487000D01*
X150983000Y-86233000D01*
X151003000Y-86233000D01*
X151003000Y-83947000D01*
X150983000Y-83947000D01*
X150983000Y-83693000D01*
X151003000Y-83693000D01*
X151003000Y-81407000D01*
X150983000Y-81407000D01*
X150983000Y-81153000D01*
X151003000Y-81153000D01*
X151003000Y-78867000D01*
X150983000Y-78867000D01*
X150983000Y-78613000D01*
X151003000Y-78613000D01*
X151003000Y-76327000D01*
X150983000Y-76327000D01*
X150983000Y-76073000D01*
X151003000Y-76073000D01*
X151003000Y-73787000D01*
X150983000Y-73787000D01*
X150983000Y-73533000D01*
X151003000Y-73533000D01*
X151003000Y-71247000D01*
X150983000Y-71247000D01*
X150983000Y-70993000D01*
X151003000Y-70993000D01*
X151003000Y-68707000D01*
X150983000Y-68707000D01*
X150983000Y-68453000D01*
X151003000Y-68453000D01*
X151003000Y-66167000D01*
X150983000Y-66167000D01*
X150983000Y-65913000D01*
X151003000Y-65913000D01*
X151003000Y-63627000D01*
X150983000Y-63627000D01*
X150983000Y-63373000D01*
X151003000Y-63373000D01*
X151003000Y-61087000D01*
X150983000Y-61087000D01*
X150983000Y-60833000D01*
X151003000Y-60833000D01*
X151003000Y-58547000D01*
X150983000Y-58547000D01*
X150983000Y-58293000D01*
X151003000Y-58293000D01*
X151003000Y-56007000D01*
X150983000Y-56007000D01*
X150983000Y-55753000D01*
X151003000Y-55753000D01*
X151003000Y-53467000D01*
X150983000Y-53467000D01*
X150983000Y-53213000D01*
X151003000Y-53213000D01*
X151003000Y-50927000D01*
X150983000Y-50927000D01*
X150983000Y-50673000D01*
X151003000Y-50673000D01*
X151003000Y-48387000D01*
X150983000Y-48387000D01*
X150983000Y-48133000D01*
X151003000Y-48133000D01*
X151003000Y-45847000D01*
X150983000Y-45847000D01*
X150983000Y-45593000D01*
X151003000Y-45593000D01*
X151003000Y-43307000D01*
X150983000Y-43307000D01*
X150983000Y-43053000D01*
X151003000Y-43053000D01*
X151003000Y-40767000D01*
X150983000Y-40767000D01*
X150983000Y-40513000D01*
X151003000Y-40513000D01*
X151003000Y-38227000D01*
X150983000Y-38227000D01*
X150983000Y-37973000D01*
X151003000Y-37973000D01*
X151003000Y-35687000D01*
X150983000Y-35687000D01*
X150983000Y-35433000D01*
X151003000Y-35433000D01*
X151003000Y-33147000D01*
X150983000Y-33147000D01*
X150983000Y-32893000D01*
X151003000Y-32893000D01*
X151003000Y-30607000D01*
X150983000Y-30607000D01*
X150983000Y-30353000D01*
X151003000Y-30353000D01*
X151003000Y-30333000D01*
X151257000Y-30333000D01*
X151257000Y-30353000D01*
G37*
X151257000Y-30353000D02*
X151277000Y-30353000D01*
X151277000Y-30607000D01*
X151257000Y-30607000D01*
X151257000Y-32893000D01*
X151277000Y-32893000D01*
X151277000Y-33147000D01*
X151257000Y-33147000D01*
X151257000Y-35433000D01*
X151277000Y-35433000D01*
X151277000Y-35687000D01*
X151257000Y-35687000D01*
X151257000Y-37973000D01*
X151277000Y-37973000D01*
X151277000Y-38227000D01*
X151257000Y-38227000D01*
X151257000Y-40513000D01*
X151277000Y-40513000D01*
X151277000Y-40767000D01*
X151257000Y-40767000D01*
X151257000Y-43053000D01*
X151277000Y-43053000D01*
X151277000Y-43307000D01*
X151257000Y-43307000D01*
X151257000Y-45593000D01*
X151277000Y-45593000D01*
X151277000Y-45847000D01*
X151257000Y-45847000D01*
X151257000Y-48133000D01*
X151277000Y-48133000D01*
X151277000Y-48387000D01*
X151257000Y-48387000D01*
X151257000Y-50673000D01*
X151277000Y-50673000D01*
X151277000Y-50927000D01*
X151257000Y-50927000D01*
X151257000Y-53213000D01*
X151277000Y-53213000D01*
X151277000Y-53467000D01*
X151257000Y-53467000D01*
X151257000Y-55753000D01*
X151277000Y-55753000D01*
X151277000Y-56007000D01*
X151257000Y-56007000D01*
X151257000Y-58293000D01*
X151277000Y-58293000D01*
X151277000Y-58547000D01*
X151257000Y-58547000D01*
X151257000Y-60833000D01*
X151277000Y-60833000D01*
X151277000Y-61087000D01*
X151257000Y-61087000D01*
X151257000Y-63373000D01*
X151277000Y-63373000D01*
X151277000Y-63627000D01*
X151257000Y-63627000D01*
X151257000Y-65913000D01*
X151277000Y-65913000D01*
X151277000Y-66167000D01*
X151257000Y-66167000D01*
X151257000Y-68453000D01*
X151277000Y-68453000D01*
X151277000Y-68707000D01*
X151257000Y-68707000D01*
X151257000Y-70993000D01*
X151277000Y-70993000D01*
X151277000Y-71247000D01*
X151257000Y-71247000D01*
X151257000Y-73533000D01*
X151277000Y-73533000D01*
X151277000Y-73787000D01*
X151257000Y-73787000D01*
X151257000Y-76073000D01*
X151277000Y-76073000D01*
X151277000Y-76327000D01*
X151257000Y-76327000D01*
X151257000Y-78613000D01*
X151277000Y-78613000D01*
X151277000Y-78867000D01*
X151257000Y-78867000D01*
X151257000Y-81153000D01*
X151277000Y-81153000D01*
X151277000Y-81407000D01*
X151257000Y-81407000D01*
X151257000Y-83693000D01*
X151277000Y-83693000D01*
X151277000Y-83947000D01*
X151257000Y-83947000D01*
X151257000Y-86233000D01*
X151277000Y-86233000D01*
X151277000Y-86487000D01*
X151257000Y-86487000D01*
X151257000Y-88773000D01*
X151277000Y-88773000D01*
X151277000Y-89027000D01*
X151257000Y-89027000D01*
X151257000Y-91313000D01*
X151277000Y-91313000D01*
X151277000Y-91567000D01*
X151257000Y-91567000D01*
X151257000Y-91587000D01*
X151003000Y-91587000D01*
X151003000Y-91567000D01*
X150983000Y-91567000D01*
X150983000Y-91313000D01*
X151003000Y-91313000D01*
X151003000Y-89027000D01*
X150983000Y-89027000D01*
X150983000Y-88773000D01*
X151003000Y-88773000D01*
X151003000Y-86487000D01*
X150983000Y-86487000D01*
X150983000Y-86233000D01*
X151003000Y-86233000D01*
X151003000Y-83947000D01*
X150983000Y-83947000D01*
X150983000Y-83693000D01*
X151003000Y-83693000D01*
X151003000Y-81407000D01*
X150983000Y-81407000D01*
X150983000Y-81153000D01*
X151003000Y-81153000D01*
X151003000Y-78867000D01*
X150983000Y-78867000D01*
X150983000Y-78613000D01*
X151003000Y-78613000D01*
X151003000Y-76327000D01*
X150983000Y-76327000D01*
X150983000Y-76073000D01*
X151003000Y-76073000D01*
X151003000Y-73787000D01*
X150983000Y-73787000D01*
X150983000Y-73533000D01*
X151003000Y-73533000D01*
X151003000Y-71247000D01*
X150983000Y-71247000D01*
X150983000Y-70993000D01*
X151003000Y-70993000D01*
X151003000Y-68707000D01*
X150983000Y-68707000D01*
X150983000Y-68453000D01*
X151003000Y-68453000D01*
X151003000Y-66167000D01*
X150983000Y-66167000D01*
X150983000Y-65913000D01*
X151003000Y-65913000D01*
X151003000Y-63627000D01*
X150983000Y-63627000D01*
X150983000Y-63373000D01*
X151003000Y-63373000D01*
X151003000Y-61087000D01*
X150983000Y-61087000D01*
X150983000Y-60833000D01*
X151003000Y-60833000D01*
X151003000Y-58547000D01*
X150983000Y-58547000D01*
X150983000Y-58293000D01*
X151003000Y-58293000D01*
X151003000Y-56007000D01*
X150983000Y-56007000D01*
X150983000Y-55753000D01*
X151003000Y-55753000D01*
X151003000Y-53467000D01*
X150983000Y-53467000D01*
X150983000Y-53213000D01*
X151003000Y-53213000D01*
X151003000Y-50927000D01*
X150983000Y-50927000D01*
X150983000Y-50673000D01*
X151003000Y-50673000D01*
X151003000Y-48387000D01*
X150983000Y-48387000D01*
X150983000Y-48133000D01*
X151003000Y-48133000D01*
X151003000Y-45847000D01*
X150983000Y-45847000D01*
X150983000Y-45593000D01*
X151003000Y-45593000D01*
X151003000Y-43307000D01*
X150983000Y-43307000D01*
X150983000Y-43053000D01*
X151003000Y-43053000D01*
X151003000Y-40767000D01*
X150983000Y-40767000D01*
X150983000Y-40513000D01*
X151003000Y-40513000D01*
X151003000Y-38227000D01*
X150983000Y-38227000D01*
X150983000Y-37973000D01*
X151003000Y-37973000D01*
X151003000Y-35687000D01*
X150983000Y-35687000D01*
X150983000Y-35433000D01*
X151003000Y-35433000D01*
X151003000Y-33147000D01*
X150983000Y-33147000D01*
X150983000Y-32893000D01*
X151003000Y-32893000D01*
X151003000Y-30607000D01*
X150983000Y-30607000D01*
X150983000Y-30353000D01*
X151003000Y-30353000D01*
X151003000Y-30333000D01*
X151257000Y-30333000D01*
X151257000Y-30353000D01*
G36*
X150032412Y-89900269D02*
G01*
X150248645Y-90095178D01*
X150374255Y-90170000D01*
X150248645Y-90244822D01*
X150032412Y-90439731D01*
X149861100Y-90669406D01*
X149743475Y-90493368D01*
X149536632Y-90286525D01*
X149362240Y-90170000D01*
X149536632Y-90053475D01*
X149743475Y-89846632D01*
X149861100Y-89670594D01*
X150032412Y-89900269D01*
G37*
X150032412Y-89900269D02*
X150248645Y-90095178D01*
X150374255Y-90170000D01*
X150248645Y-90244822D01*
X150032412Y-90439731D01*
X149861100Y-90669406D01*
X149743475Y-90493368D01*
X149536632Y-90286525D01*
X149362240Y-90170000D01*
X149536632Y-90053475D01*
X149743475Y-89846632D01*
X149861100Y-89670594D01*
X150032412Y-89900269D01*
G36*
X147436525Y-87306632D02*
G01*
X147643368Y-87513475D01*
X147817760Y-87630000D01*
X147643368Y-87746525D01*
X147436525Y-87953368D01*
X147311822Y-88140000D01*
X146722322Y-88140000D01*
X146684999Y-88136324D01*
X146647676Y-88140000D01*
X146647667Y-88140000D01*
X146536014Y-88150997D01*
X146392753Y-88194454D01*
X146260723Y-88265026D01*
X146177083Y-88333668D01*
X146144999Y-88359999D01*
X146121201Y-88388997D01*
X145005200Y-89504999D01*
X121998765Y-89504999D01*
X122046825Y-89404099D01*
X122091476Y-89256890D01*
X121970155Y-89027000D01*
X120777000Y-89027000D01*
X120777000Y-89047000D01*
X120523000Y-89047000D01*
X120523000Y-89027000D01*
X120503000Y-89027000D01*
X120503000Y-88773000D01*
X120523000Y-88773000D01*
X120523000Y-88753000D01*
X120777000Y-88753000D01*
X120777000Y-88773000D01*
X121970155Y-88773000D01*
X122091476Y-88543110D01*
X122073850Y-88484999D01*
X145282679Y-88484999D01*
X145320001Y-88488675D01*
X145357323Y-88484999D01*
X145357334Y-88484999D01*
X145468987Y-88474002D01*
X145612248Y-88430545D01*
X145744277Y-88359973D01*
X145860002Y-88265000D01*
X145883805Y-88235996D01*
X146999802Y-87120000D01*
X147311822Y-87120000D01*
X147436525Y-87306632D01*
G37*
X147436525Y-87306632D02*
X147643368Y-87513475D01*
X147817760Y-87630000D01*
X147643368Y-87746525D01*
X147436525Y-87953368D01*
X147311822Y-88140000D01*
X146722322Y-88140000D01*
X146684999Y-88136324D01*
X146647676Y-88140000D01*
X146647667Y-88140000D01*
X146536014Y-88150997D01*
X146392753Y-88194454D01*
X146260723Y-88265026D01*
X146177083Y-88333668D01*
X146144999Y-88359999D01*
X146121201Y-88388997D01*
X145005200Y-89504999D01*
X121998765Y-89504999D01*
X122046825Y-89404099D01*
X122091476Y-89256890D01*
X121970155Y-89027000D01*
X120777000Y-89027000D01*
X120777000Y-89047000D01*
X120523000Y-89047000D01*
X120523000Y-89027000D01*
X120503000Y-89027000D01*
X120503000Y-88773000D01*
X120523000Y-88773000D01*
X120523000Y-88753000D01*
X120777000Y-88753000D01*
X120777000Y-88773000D01*
X121970155Y-88773000D01*
X122091476Y-88543110D01*
X122073850Y-88484999D01*
X145282679Y-88484999D01*
X145320001Y-88488675D01*
X145357323Y-88484999D01*
X145357334Y-88484999D01*
X145468987Y-88474002D01*
X145612248Y-88430545D01*
X145744277Y-88359973D01*
X145860002Y-88265000D01*
X145883805Y-88235996D01*
X146999802Y-87120000D01*
X147311822Y-87120000D01*
X147436525Y-87306632D01*
G36*
X150032412Y-87360269D02*
G01*
X150248645Y-87555178D01*
X150374255Y-87630000D01*
X150248645Y-87704822D01*
X150032412Y-87899731D01*
X149861100Y-88129406D01*
X149743475Y-87953368D01*
X149536632Y-87746525D01*
X149362240Y-87630000D01*
X149536632Y-87513475D01*
X149743475Y-87306632D01*
X149861100Y-87130594D01*
X150032412Y-87360269D01*
G37*
X150032412Y-87360269D02*
X150248645Y-87555178D01*
X150374255Y-87630000D01*
X150248645Y-87704822D01*
X150032412Y-87899731D01*
X149861100Y-88129406D01*
X149743475Y-87953368D01*
X149536632Y-87746525D01*
X149362240Y-87630000D01*
X149536632Y-87513475D01*
X149743475Y-87306632D01*
X149861100Y-87130594D01*
X150032412Y-87360269D01*
G36*
X147436525Y-84766632D02*
G01*
X147643368Y-84973475D01*
X147817760Y-85090000D01*
X147643368Y-85206525D01*
X147436525Y-85413368D01*
X147311822Y-85600000D01*
X146722322Y-85600000D01*
X146684999Y-85596324D01*
X146647676Y-85600000D01*
X146647667Y-85600000D01*
X146536014Y-85610997D01*
X146392753Y-85654454D01*
X146260723Y-85725026D01*
X146237600Y-85744003D01*
X146144999Y-85819999D01*
X146121201Y-85848997D01*
X145005200Y-86964999D01*
X121998765Y-86964999D01*
X122046825Y-86864099D01*
X122091476Y-86716890D01*
X121970155Y-86487000D01*
X120777000Y-86487000D01*
X120777000Y-86507000D01*
X120523000Y-86507000D01*
X120523000Y-86487000D01*
X120503000Y-86487000D01*
X120503000Y-86233000D01*
X120523000Y-86233000D01*
X120523000Y-86213000D01*
X120777000Y-86213000D01*
X120777000Y-86233000D01*
X121970155Y-86233000D01*
X122091476Y-86003110D01*
X122046825Y-85855901D01*
X121998765Y-85755001D01*
X145472677Y-85755001D01*
X145509999Y-85758677D01*
X145547321Y-85755001D01*
X145547332Y-85755001D01*
X145658985Y-85744004D01*
X145802246Y-85700547D01*
X145934275Y-85629975D01*
X146050000Y-85535002D01*
X146073803Y-85505998D01*
X146999802Y-84580000D01*
X147311822Y-84580000D01*
X147436525Y-84766632D01*
G37*
X147436525Y-84766632D02*
X147643368Y-84973475D01*
X147817760Y-85090000D01*
X147643368Y-85206525D01*
X147436525Y-85413368D01*
X147311822Y-85600000D01*
X146722322Y-85600000D01*
X146684999Y-85596324D01*
X146647676Y-85600000D01*
X146647667Y-85600000D01*
X146536014Y-85610997D01*
X146392753Y-85654454D01*
X146260723Y-85725026D01*
X146237600Y-85744003D01*
X146144999Y-85819999D01*
X146121201Y-85848997D01*
X145005200Y-86964999D01*
X121998765Y-86964999D01*
X122046825Y-86864099D01*
X122091476Y-86716890D01*
X121970155Y-86487000D01*
X120777000Y-86487000D01*
X120777000Y-86507000D01*
X120523000Y-86507000D01*
X120523000Y-86487000D01*
X120503000Y-86487000D01*
X120503000Y-86233000D01*
X120523000Y-86233000D01*
X120523000Y-86213000D01*
X120777000Y-86213000D01*
X120777000Y-86233000D01*
X121970155Y-86233000D01*
X122091476Y-86003110D01*
X122046825Y-85855901D01*
X121998765Y-85755001D01*
X145472677Y-85755001D01*
X145509999Y-85758677D01*
X145547321Y-85755001D01*
X145547332Y-85755001D01*
X145658985Y-85744004D01*
X145802246Y-85700547D01*
X145934275Y-85629975D01*
X146050000Y-85535002D01*
X146073803Y-85505998D01*
X146999802Y-84580000D01*
X147311822Y-84580000D01*
X147436525Y-84766632D01*
G36*
X150032412Y-84820269D02*
G01*
X150248645Y-85015178D01*
X150374255Y-85090000D01*
X150248645Y-85164822D01*
X150032412Y-85359731D01*
X149861100Y-85589406D01*
X149743475Y-85413368D01*
X149536632Y-85206525D01*
X149362240Y-85090000D01*
X149536632Y-84973475D01*
X149743475Y-84766632D01*
X149861100Y-84590594D01*
X150032412Y-84820269D01*
G37*
X150032412Y-84820269D02*
X150248645Y-85015178D01*
X150374255Y-85090000D01*
X150248645Y-85164822D01*
X150032412Y-85359731D01*
X149861100Y-85589406D01*
X149743475Y-85413368D01*
X149536632Y-85206525D01*
X149362240Y-85090000D01*
X149536632Y-84973475D01*
X149743475Y-84766632D01*
X149861100Y-84590594D01*
X150032412Y-84820269D01*
G36*
X147436525Y-82226632D02*
G01*
X147643368Y-82433475D01*
X147817760Y-82550000D01*
X147643368Y-82666525D01*
X147436525Y-82873368D01*
X147311822Y-83060000D01*
X146722322Y-83060000D01*
X146684999Y-83056324D01*
X146647676Y-83060000D01*
X146647667Y-83060000D01*
X146536014Y-83070997D01*
X146392753Y-83114454D01*
X146260724Y-83185026D01*
X146144999Y-83279999D01*
X146121201Y-83308997D01*
X145195198Y-84235001D01*
X122073850Y-84235001D01*
X122091476Y-84176890D01*
X121970155Y-83947000D01*
X120777000Y-83947000D01*
X120777000Y-83967000D01*
X120523000Y-83967000D01*
X120523000Y-83947000D01*
X120503000Y-83947000D01*
X120503000Y-83693000D01*
X120523000Y-83693000D01*
X120523000Y-83673000D01*
X120777000Y-83673000D01*
X120777000Y-83693000D01*
X121970155Y-83693000D01*
X122091476Y-83463110D01*
X122046825Y-83315901D01*
X121998765Y-83215001D01*
X145472677Y-83215001D01*
X145509999Y-83218677D01*
X145547321Y-83215001D01*
X145547332Y-83215001D01*
X145658985Y-83204004D01*
X145802246Y-83160547D01*
X145934275Y-83089975D01*
X146050000Y-82995002D01*
X146073803Y-82965998D01*
X146999802Y-82040000D01*
X147311822Y-82040000D01*
X147436525Y-82226632D01*
G37*
X147436525Y-82226632D02*
X147643368Y-82433475D01*
X147817760Y-82550000D01*
X147643368Y-82666525D01*
X147436525Y-82873368D01*
X147311822Y-83060000D01*
X146722322Y-83060000D01*
X146684999Y-83056324D01*
X146647676Y-83060000D01*
X146647667Y-83060000D01*
X146536014Y-83070997D01*
X146392753Y-83114454D01*
X146260724Y-83185026D01*
X146144999Y-83279999D01*
X146121201Y-83308997D01*
X145195198Y-84235001D01*
X122073850Y-84235001D01*
X122091476Y-84176890D01*
X121970155Y-83947000D01*
X120777000Y-83947000D01*
X120777000Y-83967000D01*
X120523000Y-83967000D01*
X120523000Y-83947000D01*
X120503000Y-83947000D01*
X120503000Y-83693000D01*
X120523000Y-83693000D01*
X120523000Y-83673000D01*
X120777000Y-83673000D01*
X120777000Y-83693000D01*
X121970155Y-83693000D01*
X122091476Y-83463110D01*
X122046825Y-83315901D01*
X121998765Y-83215001D01*
X145472677Y-83215001D01*
X145509999Y-83218677D01*
X145547321Y-83215001D01*
X145547332Y-83215001D01*
X145658985Y-83204004D01*
X145802246Y-83160547D01*
X145934275Y-83089975D01*
X146050000Y-82995002D01*
X146073803Y-82965998D01*
X146999802Y-82040000D01*
X147311822Y-82040000D01*
X147436525Y-82226632D01*
G36*
X150032412Y-82280269D02*
G01*
X150248645Y-82475178D01*
X150374255Y-82550000D01*
X150248645Y-82624822D01*
X150032412Y-82819731D01*
X149861100Y-83049406D01*
X149743475Y-82873368D01*
X149536632Y-82666525D01*
X149362240Y-82550000D01*
X149536632Y-82433475D01*
X149743475Y-82226632D01*
X149861100Y-82050594D01*
X150032412Y-82280269D01*
G37*
X150032412Y-82280269D02*
X150248645Y-82475178D01*
X150374255Y-82550000D01*
X150248645Y-82624822D01*
X150032412Y-82819731D01*
X149861100Y-83049406D01*
X149743475Y-82873368D01*
X149536632Y-82666525D01*
X149362240Y-82550000D01*
X149536632Y-82433475D01*
X149743475Y-82226632D01*
X149861100Y-82050594D01*
X150032412Y-82280269D01*
G36*
X147436525Y-79686632D02*
G01*
X147643368Y-79893475D01*
X147817760Y-80010000D01*
X147643368Y-80126525D01*
X147436525Y-80333368D01*
X147311822Y-80520000D01*
X146722322Y-80520000D01*
X146684999Y-80516324D01*
X146647676Y-80520000D01*
X146647667Y-80520000D01*
X146536014Y-80530997D01*
X146392753Y-80574454D01*
X146260724Y-80645026D01*
X146144999Y-80739999D01*
X146121201Y-80768997D01*
X145195198Y-81695001D01*
X122073850Y-81695001D01*
X122091476Y-81636890D01*
X121970155Y-81407000D01*
X120777000Y-81407000D01*
X120777000Y-81427000D01*
X120523000Y-81427000D01*
X120523000Y-81407000D01*
X120503000Y-81407000D01*
X120503000Y-81153000D01*
X120523000Y-81153000D01*
X120523000Y-81133000D01*
X120777000Y-81133000D01*
X120777000Y-81153000D01*
X121970155Y-81153000D01*
X122091476Y-80923110D01*
X122046825Y-80775901D01*
X121998765Y-80675001D01*
X145472677Y-80675001D01*
X145509999Y-80678677D01*
X145547321Y-80675001D01*
X145547332Y-80675001D01*
X145658985Y-80664004D01*
X145802246Y-80620547D01*
X145934275Y-80549975D01*
X146050000Y-80455002D01*
X146073803Y-80425998D01*
X146999802Y-79500000D01*
X147311822Y-79500000D01*
X147436525Y-79686632D01*
G37*
X147436525Y-79686632D02*
X147643368Y-79893475D01*
X147817760Y-80010000D01*
X147643368Y-80126525D01*
X147436525Y-80333368D01*
X147311822Y-80520000D01*
X146722322Y-80520000D01*
X146684999Y-80516324D01*
X146647676Y-80520000D01*
X146647667Y-80520000D01*
X146536014Y-80530997D01*
X146392753Y-80574454D01*
X146260724Y-80645026D01*
X146144999Y-80739999D01*
X146121201Y-80768997D01*
X145195198Y-81695001D01*
X122073850Y-81695001D01*
X122091476Y-81636890D01*
X121970155Y-81407000D01*
X120777000Y-81407000D01*
X120777000Y-81427000D01*
X120523000Y-81427000D01*
X120523000Y-81407000D01*
X120503000Y-81407000D01*
X120503000Y-81153000D01*
X120523000Y-81153000D01*
X120523000Y-81133000D01*
X120777000Y-81133000D01*
X120777000Y-81153000D01*
X121970155Y-81153000D01*
X122091476Y-80923110D01*
X122046825Y-80775901D01*
X121998765Y-80675001D01*
X145472677Y-80675001D01*
X145509999Y-80678677D01*
X145547321Y-80675001D01*
X145547332Y-80675001D01*
X145658985Y-80664004D01*
X145802246Y-80620547D01*
X145934275Y-80549975D01*
X146050000Y-80455002D01*
X146073803Y-80425998D01*
X146999802Y-79500000D01*
X147311822Y-79500000D01*
X147436525Y-79686632D01*
G36*
X150032412Y-79740269D02*
G01*
X150248645Y-79935178D01*
X150374255Y-80010000D01*
X150248645Y-80084822D01*
X150032412Y-80279731D01*
X149861100Y-80509406D01*
X149743475Y-80333368D01*
X149536632Y-80126525D01*
X149362240Y-80010000D01*
X149536632Y-79893475D01*
X149743475Y-79686632D01*
X149861100Y-79510594D01*
X150032412Y-79740269D01*
G37*
X150032412Y-79740269D02*
X150248645Y-79935178D01*
X150374255Y-80010000D01*
X150248645Y-80084822D01*
X150032412Y-80279731D01*
X149861100Y-80509406D01*
X149743475Y-80333368D01*
X149536632Y-80126525D01*
X149362240Y-80010000D01*
X149536632Y-79893475D01*
X149743475Y-79686632D01*
X149861100Y-79510594D01*
X150032412Y-79740269D01*
G36*
X147436525Y-77146632D02*
G01*
X147643368Y-77353475D01*
X147817760Y-77470000D01*
X147643368Y-77586525D01*
X147436525Y-77793368D01*
X147311822Y-77980000D01*
X146722322Y-77980000D01*
X146684999Y-77976324D01*
X146647676Y-77980000D01*
X146647667Y-77980000D01*
X146536014Y-77990997D01*
X146392753Y-78034454D01*
X146260724Y-78105026D01*
X146144999Y-78199999D01*
X146121201Y-78228997D01*
X145195198Y-79155001D01*
X122073850Y-79155001D01*
X122091476Y-79096890D01*
X121970155Y-78867000D01*
X120777000Y-78867000D01*
X120777000Y-78887000D01*
X120523000Y-78887000D01*
X120523000Y-78867000D01*
X120503000Y-78867000D01*
X120503000Y-78613000D01*
X120523000Y-78613000D01*
X120523000Y-78593000D01*
X120777000Y-78593000D01*
X120777000Y-78613000D01*
X121970155Y-78613000D01*
X122091476Y-78383110D01*
X122046825Y-78235901D01*
X121998765Y-78135001D01*
X145472677Y-78135001D01*
X145509999Y-78138677D01*
X145547321Y-78135001D01*
X145547332Y-78135001D01*
X145658985Y-78124004D01*
X145802246Y-78080547D01*
X145934275Y-78009975D01*
X146050000Y-77915002D01*
X146073803Y-77885998D01*
X146999802Y-76960000D01*
X147311822Y-76960000D01*
X147436525Y-77146632D01*
G37*
X147436525Y-77146632D02*
X147643368Y-77353475D01*
X147817760Y-77470000D01*
X147643368Y-77586525D01*
X147436525Y-77793368D01*
X147311822Y-77980000D01*
X146722322Y-77980000D01*
X146684999Y-77976324D01*
X146647676Y-77980000D01*
X146647667Y-77980000D01*
X146536014Y-77990997D01*
X146392753Y-78034454D01*
X146260724Y-78105026D01*
X146144999Y-78199999D01*
X146121201Y-78228997D01*
X145195198Y-79155001D01*
X122073850Y-79155001D01*
X122091476Y-79096890D01*
X121970155Y-78867000D01*
X120777000Y-78867000D01*
X120777000Y-78887000D01*
X120523000Y-78887000D01*
X120523000Y-78867000D01*
X120503000Y-78867000D01*
X120503000Y-78613000D01*
X120523000Y-78613000D01*
X120523000Y-78593000D01*
X120777000Y-78593000D01*
X120777000Y-78613000D01*
X121970155Y-78613000D01*
X122091476Y-78383110D01*
X122046825Y-78235901D01*
X121998765Y-78135001D01*
X145472677Y-78135001D01*
X145509999Y-78138677D01*
X145547321Y-78135001D01*
X145547332Y-78135001D01*
X145658985Y-78124004D01*
X145802246Y-78080547D01*
X145934275Y-78009975D01*
X146050000Y-77915002D01*
X146073803Y-77885998D01*
X146999802Y-76960000D01*
X147311822Y-76960000D01*
X147436525Y-77146632D01*
G36*
X150032412Y-77200269D02*
G01*
X150248645Y-77395178D01*
X150374255Y-77470000D01*
X150248645Y-77544822D01*
X150032412Y-77739731D01*
X149861100Y-77969406D01*
X149743475Y-77793368D01*
X149536632Y-77586525D01*
X149362240Y-77470000D01*
X149536632Y-77353475D01*
X149743475Y-77146632D01*
X149861100Y-76970594D01*
X150032412Y-77200269D01*
G37*
X150032412Y-77200269D02*
X150248645Y-77395178D01*
X150374255Y-77470000D01*
X150248645Y-77544822D01*
X150032412Y-77739731D01*
X149861100Y-77969406D01*
X149743475Y-77793368D01*
X149536632Y-77586525D01*
X149362240Y-77470000D01*
X149536632Y-77353475D01*
X149743475Y-77146632D01*
X149861100Y-76970594D01*
X150032412Y-77200269D01*
G36*
X147436525Y-74606632D02*
G01*
X147643368Y-74813475D01*
X147817760Y-74930000D01*
X147643368Y-75046525D01*
X147436525Y-75253368D01*
X147311822Y-75440000D01*
X146722322Y-75440000D01*
X146684999Y-75436324D01*
X146647676Y-75440000D01*
X146647667Y-75440000D01*
X146536014Y-75450997D01*
X146392753Y-75494454D01*
X146260724Y-75565026D01*
X146144999Y-75659999D01*
X146121201Y-75688997D01*
X145195198Y-76615001D01*
X122073850Y-76615001D01*
X122091476Y-76556890D01*
X121970155Y-76327000D01*
X120777000Y-76327000D01*
X120777000Y-76347000D01*
X120523000Y-76347000D01*
X120523000Y-76327000D01*
X120503000Y-76327000D01*
X120503000Y-76073000D01*
X120523000Y-76073000D01*
X120523000Y-76053000D01*
X120777000Y-76053000D01*
X120777000Y-76073000D01*
X121970155Y-76073000D01*
X122091476Y-75843110D01*
X122073850Y-75784999D01*
X145282679Y-75784999D01*
X145320001Y-75788675D01*
X145357323Y-75784999D01*
X145357334Y-75784999D01*
X145468987Y-75774002D01*
X145612248Y-75730545D01*
X145744277Y-75659973D01*
X145860002Y-75565000D01*
X145883805Y-75535996D01*
X146999802Y-74420000D01*
X147311822Y-74420000D01*
X147436525Y-74606632D01*
G37*
X147436525Y-74606632D02*
X147643368Y-74813475D01*
X147817760Y-74930000D01*
X147643368Y-75046525D01*
X147436525Y-75253368D01*
X147311822Y-75440000D01*
X146722322Y-75440000D01*
X146684999Y-75436324D01*
X146647676Y-75440000D01*
X146647667Y-75440000D01*
X146536014Y-75450997D01*
X146392753Y-75494454D01*
X146260724Y-75565026D01*
X146144999Y-75659999D01*
X146121201Y-75688997D01*
X145195198Y-76615001D01*
X122073850Y-76615001D01*
X122091476Y-76556890D01*
X121970155Y-76327000D01*
X120777000Y-76327000D01*
X120777000Y-76347000D01*
X120523000Y-76347000D01*
X120523000Y-76327000D01*
X120503000Y-76327000D01*
X120503000Y-76073000D01*
X120523000Y-76073000D01*
X120523000Y-76053000D01*
X120777000Y-76053000D01*
X120777000Y-76073000D01*
X121970155Y-76073000D01*
X122091476Y-75843110D01*
X122073850Y-75784999D01*
X145282679Y-75784999D01*
X145320001Y-75788675D01*
X145357323Y-75784999D01*
X145357334Y-75784999D01*
X145468987Y-75774002D01*
X145612248Y-75730545D01*
X145744277Y-75659973D01*
X145860002Y-75565000D01*
X145883805Y-75535996D01*
X146999802Y-74420000D01*
X147311822Y-74420000D01*
X147436525Y-74606632D01*
G36*
X150032412Y-74660269D02*
G01*
X150248645Y-74855178D01*
X150374255Y-74930000D01*
X150248645Y-75004822D01*
X150032412Y-75199731D01*
X149861100Y-75429406D01*
X149743475Y-75253368D01*
X149536632Y-75046525D01*
X149362240Y-74930000D01*
X149536632Y-74813475D01*
X149743475Y-74606632D01*
X149861100Y-74430594D01*
X150032412Y-74660269D01*
G37*
X150032412Y-74660269D02*
X150248645Y-74855178D01*
X150374255Y-74930000D01*
X150248645Y-75004822D01*
X150032412Y-75199731D01*
X149861100Y-75429406D01*
X149743475Y-75253368D01*
X149536632Y-75046525D01*
X149362240Y-74930000D01*
X149536632Y-74813475D01*
X149743475Y-74606632D01*
X149861100Y-74430594D01*
X150032412Y-74660269D01*
G36*
X147436525Y-72066632D02*
G01*
X147643368Y-72273475D01*
X147817760Y-72390000D01*
X147643368Y-72506525D01*
X147436525Y-72713368D01*
X147311822Y-72900000D01*
X146722322Y-72900000D01*
X146684999Y-72896324D01*
X146647676Y-72900000D01*
X146647667Y-72900000D01*
X146536014Y-72910997D01*
X146392753Y-72954454D01*
X146260723Y-73025026D01*
X146237600Y-73044003D01*
X146144999Y-73119999D01*
X146121201Y-73148997D01*
X145005200Y-74264999D01*
X121998765Y-74264999D01*
X122046825Y-74164099D01*
X122091476Y-74016890D01*
X121970155Y-73787000D01*
X120777000Y-73787000D01*
X120777000Y-73807000D01*
X120523000Y-73807000D01*
X120523000Y-73787000D01*
X120503000Y-73787000D01*
X120503000Y-73533000D01*
X120523000Y-73533000D01*
X120523000Y-73513000D01*
X120777000Y-73513000D01*
X120777000Y-73533000D01*
X121970155Y-73533000D01*
X122091476Y-73303110D01*
X122046825Y-73155901D01*
X121998765Y-73055001D01*
X145472677Y-73055001D01*
X145509999Y-73058677D01*
X145547321Y-73055001D01*
X145547332Y-73055001D01*
X145658985Y-73044004D01*
X145802246Y-73000547D01*
X145934275Y-72929975D01*
X146050000Y-72835002D01*
X146073803Y-72805998D01*
X146999802Y-71880000D01*
X147311822Y-71880000D01*
X147436525Y-72066632D01*
G37*
X147436525Y-72066632D02*
X147643368Y-72273475D01*
X147817760Y-72390000D01*
X147643368Y-72506525D01*
X147436525Y-72713368D01*
X147311822Y-72900000D01*
X146722322Y-72900000D01*
X146684999Y-72896324D01*
X146647676Y-72900000D01*
X146647667Y-72900000D01*
X146536014Y-72910997D01*
X146392753Y-72954454D01*
X146260723Y-73025026D01*
X146237600Y-73044003D01*
X146144999Y-73119999D01*
X146121201Y-73148997D01*
X145005200Y-74264999D01*
X121998765Y-74264999D01*
X122046825Y-74164099D01*
X122091476Y-74016890D01*
X121970155Y-73787000D01*
X120777000Y-73787000D01*
X120777000Y-73807000D01*
X120523000Y-73807000D01*
X120523000Y-73787000D01*
X120503000Y-73787000D01*
X120503000Y-73533000D01*
X120523000Y-73533000D01*
X120523000Y-73513000D01*
X120777000Y-73513000D01*
X120777000Y-73533000D01*
X121970155Y-73533000D01*
X122091476Y-73303110D01*
X122046825Y-73155901D01*
X121998765Y-73055001D01*
X145472677Y-73055001D01*
X145509999Y-73058677D01*
X145547321Y-73055001D01*
X145547332Y-73055001D01*
X145658985Y-73044004D01*
X145802246Y-73000547D01*
X145934275Y-72929975D01*
X146050000Y-72835002D01*
X146073803Y-72805998D01*
X146999802Y-71880000D01*
X147311822Y-71880000D01*
X147436525Y-72066632D01*
G36*
X150032412Y-72120269D02*
G01*
X150248645Y-72315178D01*
X150374255Y-72390000D01*
X150248645Y-72464822D01*
X150032412Y-72659731D01*
X149861100Y-72889406D01*
X149743475Y-72713368D01*
X149536632Y-72506525D01*
X149362240Y-72390000D01*
X149536632Y-72273475D01*
X149743475Y-72066632D01*
X149861100Y-71890594D01*
X150032412Y-72120269D01*
G37*
X150032412Y-72120269D02*
X150248645Y-72315178D01*
X150374255Y-72390000D01*
X150248645Y-72464822D01*
X150032412Y-72659731D01*
X149861100Y-72889406D01*
X149743475Y-72713368D01*
X149536632Y-72506525D01*
X149362240Y-72390000D01*
X149536632Y-72273475D01*
X149743475Y-72066632D01*
X149861100Y-71890594D01*
X150032412Y-72120269D01*
G36*
X147436525Y-69526632D02*
G01*
X147643368Y-69733475D01*
X147817760Y-69850000D01*
X147643368Y-69966525D01*
X147436525Y-70173368D01*
X147311822Y-70360000D01*
X146722322Y-70360000D01*
X146684999Y-70356324D01*
X146647676Y-70360000D01*
X146647667Y-70360000D01*
X146536014Y-70370997D01*
X146392753Y-70414454D01*
X146260724Y-70485026D01*
X146144999Y-70579999D01*
X146121201Y-70608997D01*
X145195198Y-71535001D01*
X122073850Y-71535001D01*
X122091476Y-71476890D01*
X121970155Y-71247000D01*
X120777000Y-71247000D01*
X120777000Y-71267000D01*
X120523000Y-71267000D01*
X120523000Y-71247000D01*
X120503000Y-71247000D01*
X120503000Y-70993000D01*
X120523000Y-70993000D01*
X120523000Y-70973000D01*
X120777000Y-70973000D01*
X120777000Y-70993000D01*
X121970155Y-70993000D01*
X122091476Y-70763110D01*
X122046825Y-70615901D01*
X121998765Y-70515001D01*
X145472677Y-70515001D01*
X145509999Y-70518677D01*
X145547321Y-70515001D01*
X145547332Y-70515001D01*
X145658985Y-70504004D01*
X145802246Y-70460547D01*
X145934275Y-70389975D01*
X146050000Y-70295002D01*
X146073803Y-70265998D01*
X146999802Y-69340000D01*
X147311822Y-69340000D01*
X147436525Y-69526632D01*
G37*
X147436525Y-69526632D02*
X147643368Y-69733475D01*
X147817760Y-69850000D01*
X147643368Y-69966525D01*
X147436525Y-70173368D01*
X147311822Y-70360000D01*
X146722322Y-70360000D01*
X146684999Y-70356324D01*
X146647676Y-70360000D01*
X146647667Y-70360000D01*
X146536014Y-70370997D01*
X146392753Y-70414454D01*
X146260724Y-70485026D01*
X146144999Y-70579999D01*
X146121201Y-70608997D01*
X145195198Y-71535001D01*
X122073850Y-71535001D01*
X122091476Y-71476890D01*
X121970155Y-71247000D01*
X120777000Y-71247000D01*
X120777000Y-71267000D01*
X120523000Y-71267000D01*
X120523000Y-71247000D01*
X120503000Y-71247000D01*
X120503000Y-70993000D01*
X120523000Y-70993000D01*
X120523000Y-70973000D01*
X120777000Y-70973000D01*
X120777000Y-70993000D01*
X121970155Y-70993000D01*
X122091476Y-70763110D01*
X122046825Y-70615901D01*
X121998765Y-70515001D01*
X145472677Y-70515001D01*
X145509999Y-70518677D01*
X145547321Y-70515001D01*
X145547332Y-70515001D01*
X145658985Y-70504004D01*
X145802246Y-70460547D01*
X145934275Y-70389975D01*
X146050000Y-70295002D01*
X146073803Y-70265998D01*
X146999802Y-69340000D01*
X147311822Y-69340000D01*
X147436525Y-69526632D01*
G36*
X150032412Y-69580269D02*
G01*
X150248645Y-69775178D01*
X150374255Y-69850000D01*
X150248645Y-69924822D01*
X150032412Y-70119731D01*
X149861100Y-70349406D01*
X149743475Y-70173368D01*
X149536632Y-69966525D01*
X149362240Y-69850000D01*
X149536632Y-69733475D01*
X149743475Y-69526632D01*
X149861100Y-69350594D01*
X150032412Y-69580269D01*
G37*
X150032412Y-69580269D02*
X150248645Y-69775178D01*
X150374255Y-69850000D01*
X150248645Y-69924822D01*
X150032412Y-70119731D01*
X149861100Y-70349406D01*
X149743475Y-70173368D01*
X149536632Y-69966525D01*
X149362240Y-69850000D01*
X149536632Y-69733475D01*
X149743475Y-69526632D01*
X149861100Y-69350594D01*
X150032412Y-69580269D01*
G36*
X147436525Y-66986632D02*
G01*
X147643368Y-67193475D01*
X147817760Y-67310000D01*
X147643368Y-67426525D01*
X147436525Y-67633368D01*
X147311822Y-67820000D01*
X146722322Y-67820000D01*
X146684999Y-67816324D01*
X146647676Y-67820000D01*
X146647667Y-67820000D01*
X146536014Y-67830997D01*
X146392753Y-67874454D01*
X146260724Y-67945026D01*
X146144999Y-68039999D01*
X146121201Y-68068997D01*
X145195198Y-68995001D01*
X122073850Y-68995001D01*
X122091476Y-68936890D01*
X121970155Y-68707000D01*
X120777000Y-68707000D01*
X120777000Y-68727000D01*
X120523000Y-68727000D01*
X120523000Y-68707000D01*
X120503000Y-68707000D01*
X120503000Y-68453000D01*
X120523000Y-68453000D01*
X120523000Y-68433000D01*
X120777000Y-68433000D01*
X120777000Y-68453000D01*
X121970155Y-68453000D01*
X122091476Y-68223110D01*
X122046825Y-68075901D01*
X121998765Y-67975001D01*
X145472677Y-67975001D01*
X145509999Y-67978677D01*
X145547321Y-67975001D01*
X145547332Y-67975001D01*
X145658985Y-67964004D01*
X145802246Y-67920547D01*
X145934275Y-67849975D01*
X146050000Y-67755002D01*
X146073803Y-67725998D01*
X146999802Y-66800000D01*
X147311822Y-66800000D01*
X147436525Y-66986632D01*
G37*
X147436525Y-66986632D02*
X147643368Y-67193475D01*
X147817760Y-67310000D01*
X147643368Y-67426525D01*
X147436525Y-67633368D01*
X147311822Y-67820000D01*
X146722322Y-67820000D01*
X146684999Y-67816324D01*
X146647676Y-67820000D01*
X146647667Y-67820000D01*
X146536014Y-67830997D01*
X146392753Y-67874454D01*
X146260724Y-67945026D01*
X146144999Y-68039999D01*
X146121201Y-68068997D01*
X145195198Y-68995001D01*
X122073850Y-68995001D01*
X122091476Y-68936890D01*
X121970155Y-68707000D01*
X120777000Y-68707000D01*
X120777000Y-68727000D01*
X120523000Y-68727000D01*
X120523000Y-68707000D01*
X120503000Y-68707000D01*
X120503000Y-68453000D01*
X120523000Y-68453000D01*
X120523000Y-68433000D01*
X120777000Y-68433000D01*
X120777000Y-68453000D01*
X121970155Y-68453000D01*
X122091476Y-68223110D01*
X122046825Y-68075901D01*
X121998765Y-67975001D01*
X145472677Y-67975001D01*
X145509999Y-67978677D01*
X145547321Y-67975001D01*
X145547332Y-67975001D01*
X145658985Y-67964004D01*
X145802246Y-67920547D01*
X145934275Y-67849975D01*
X146050000Y-67755002D01*
X146073803Y-67725998D01*
X146999802Y-66800000D01*
X147311822Y-66800000D01*
X147436525Y-66986632D01*
G36*
X150032412Y-67040269D02*
G01*
X150248645Y-67235178D01*
X150374255Y-67310000D01*
X150248645Y-67384822D01*
X150032412Y-67579731D01*
X149861100Y-67809406D01*
X149743475Y-67633368D01*
X149536632Y-67426525D01*
X149362240Y-67310000D01*
X149536632Y-67193475D01*
X149743475Y-66986632D01*
X149861100Y-66810594D01*
X150032412Y-67040269D01*
G37*
X150032412Y-67040269D02*
X150248645Y-67235178D01*
X150374255Y-67310000D01*
X150248645Y-67384822D01*
X150032412Y-67579731D01*
X149861100Y-67809406D01*
X149743475Y-67633368D01*
X149536632Y-67426525D01*
X149362240Y-67310000D01*
X149536632Y-67193475D01*
X149743475Y-66986632D01*
X149861100Y-66810594D01*
X150032412Y-67040269D01*
G36*
X147436525Y-64446632D02*
G01*
X147643368Y-64653475D01*
X147817760Y-64770000D01*
X147643368Y-64886525D01*
X147436525Y-65093368D01*
X147311822Y-65280000D01*
X146722322Y-65280000D01*
X146684999Y-65276324D01*
X146647676Y-65280000D01*
X146647667Y-65280000D01*
X146536014Y-65290997D01*
X146392753Y-65334454D01*
X146260724Y-65405026D01*
X146144999Y-65499999D01*
X146121201Y-65528997D01*
X145195198Y-66455001D01*
X122073850Y-66455001D01*
X122091476Y-66396890D01*
X121970155Y-66167000D01*
X120777000Y-66167000D01*
X120777000Y-66187000D01*
X120523000Y-66187000D01*
X120523000Y-66167000D01*
X120503000Y-66167000D01*
X120503000Y-65913000D01*
X120523000Y-65913000D01*
X120523000Y-65893000D01*
X120777000Y-65893000D01*
X120777000Y-65913000D01*
X121970155Y-65913000D01*
X122091476Y-65683110D01*
X122046825Y-65535901D01*
X121998765Y-65435001D01*
X145472677Y-65435001D01*
X145509999Y-65438677D01*
X145547321Y-65435001D01*
X145547332Y-65435001D01*
X145658985Y-65424004D01*
X145802246Y-65380547D01*
X145934275Y-65309975D01*
X146050000Y-65215002D01*
X146073803Y-65185998D01*
X146999802Y-64260000D01*
X147311822Y-64260000D01*
X147436525Y-64446632D01*
G37*
X147436525Y-64446632D02*
X147643368Y-64653475D01*
X147817760Y-64770000D01*
X147643368Y-64886525D01*
X147436525Y-65093368D01*
X147311822Y-65280000D01*
X146722322Y-65280000D01*
X146684999Y-65276324D01*
X146647676Y-65280000D01*
X146647667Y-65280000D01*
X146536014Y-65290997D01*
X146392753Y-65334454D01*
X146260724Y-65405026D01*
X146144999Y-65499999D01*
X146121201Y-65528997D01*
X145195198Y-66455001D01*
X122073850Y-66455001D01*
X122091476Y-66396890D01*
X121970155Y-66167000D01*
X120777000Y-66167000D01*
X120777000Y-66187000D01*
X120523000Y-66187000D01*
X120523000Y-66167000D01*
X120503000Y-66167000D01*
X120503000Y-65913000D01*
X120523000Y-65913000D01*
X120523000Y-65893000D01*
X120777000Y-65893000D01*
X120777000Y-65913000D01*
X121970155Y-65913000D01*
X122091476Y-65683110D01*
X122046825Y-65535901D01*
X121998765Y-65435001D01*
X145472677Y-65435001D01*
X145509999Y-65438677D01*
X145547321Y-65435001D01*
X145547332Y-65435001D01*
X145658985Y-65424004D01*
X145802246Y-65380547D01*
X145934275Y-65309975D01*
X146050000Y-65215002D01*
X146073803Y-65185998D01*
X146999802Y-64260000D01*
X147311822Y-64260000D01*
X147436525Y-64446632D01*
G36*
X150032412Y-64500269D02*
G01*
X150248645Y-64695178D01*
X150374255Y-64770000D01*
X150248645Y-64844822D01*
X150032412Y-65039731D01*
X149861100Y-65269406D01*
X149743475Y-65093368D01*
X149536632Y-64886525D01*
X149362240Y-64770000D01*
X149536632Y-64653475D01*
X149743475Y-64446632D01*
X149861100Y-64270594D01*
X150032412Y-64500269D01*
G37*
X150032412Y-64500269D02*
X150248645Y-64695178D01*
X150374255Y-64770000D01*
X150248645Y-64844822D01*
X150032412Y-65039731D01*
X149861100Y-65269406D01*
X149743475Y-65093368D01*
X149536632Y-64886525D01*
X149362240Y-64770000D01*
X149536632Y-64653475D01*
X149743475Y-64446632D01*
X149861100Y-64270594D01*
X150032412Y-64500269D01*
G36*
X147436525Y-61906632D02*
G01*
X147643368Y-62113475D01*
X147817760Y-62230000D01*
X147643368Y-62346525D01*
X147436525Y-62553368D01*
X147311822Y-62740000D01*
X146722322Y-62740000D01*
X146684999Y-62736324D01*
X146647676Y-62740000D01*
X146647667Y-62740000D01*
X146536014Y-62750997D01*
X146392753Y-62794454D01*
X146260724Y-62865026D01*
X146144999Y-62959999D01*
X146121201Y-62988997D01*
X145195198Y-63915001D01*
X122073850Y-63915001D01*
X122091476Y-63856890D01*
X121970155Y-63627000D01*
X120777000Y-63627000D01*
X120777000Y-63647000D01*
X120523000Y-63647000D01*
X120523000Y-63627000D01*
X120503000Y-63627000D01*
X120503000Y-63373000D01*
X120523000Y-63373000D01*
X120523000Y-63353000D01*
X120777000Y-63353000D01*
X120777000Y-63373000D01*
X121970155Y-63373000D01*
X122091476Y-63143110D01*
X122046825Y-62995901D01*
X121998765Y-62895001D01*
X145472677Y-62895001D01*
X145509999Y-62898677D01*
X145547321Y-62895001D01*
X145547332Y-62895001D01*
X145658985Y-62884004D01*
X145802246Y-62840547D01*
X145934275Y-62769975D01*
X146050000Y-62675002D01*
X146073803Y-62645998D01*
X146999802Y-61720000D01*
X147311822Y-61720000D01*
X147436525Y-61906632D01*
G37*
X147436525Y-61906632D02*
X147643368Y-62113475D01*
X147817760Y-62230000D01*
X147643368Y-62346525D01*
X147436525Y-62553368D01*
X147311822Y-62740000D01*
X146722322Y-62740000D01*
X146684999Y-62736324D01*
X146647676Y-62740000D01*
X146647667Y-62740000D01*
X146536014Y-62750997D01*
X146392753Y-62794454D01*
X146260724Y-62865026D01*
X146144999Y-62959999D01*
X146121201Y-62988997D01*
X145195198Y-63915001D01*
X122073850Y-63915001D01*
X122091476Y-63856890D01*
X121970155Y-63627000D01*
X120777000Y-63627000D01*
X120777000Y-63647000D01*
X120523000Y-63647000D01*
X120523000Y-63627000D01*
X120503000Y-63627000D01*
X120503000Y-63373000D01*
X120523000Y-63373000D01*
X120523000Y-63353000D01*
X120777000Y-63353000D01*
X120777000Y-63373000D01*
X121970155Y-63373000D01*
X122091476Y-63143110D01*
X122046825Y-62995901D01*
X121998765Y-62895001D01*
X145472677Y-62895001D01*
X145509999Y-62898677D01*
X145547321Y-62895001D01*
X145547332Y-62895001D01*
X145658985Y-62884004D01*
X145802246Y-62840547D01*
X145934275Y-62769975D01*
X146050000Y-62675002D01*
X146073803Y-62645998D01*
X146999802Y-61720000D01*
X147311822Y-61720000D01*
X147436525Y-61906632D01*
G36*
X150032412Y-61960269D02*
G01*
X150248645Y-62155178D01*
X150374255Y-62230000D01*
X150248645Y-62304822D01*
X150032412Y-62499731D01*
X149861100Y-62729406D01*
X149743475Y-62553368D01*
X149536632Y-62346525D01*
X149362240Y-62230000D01*
X149536632Y-62113475D01*
X149743475Y-61906632D01*
X149861100Y-61730594D01*
X150032412Y-61960269D01*
G37*
X150032412Y-61960269D02*
X150248645Y-62155178D01*
X150374255Y-62230000D01*
X150248645Y-62304822D01*
X150032412Y-62499731D01*
X149861100Y-62729406D01*
X149743475Y-62553368D01*
X149536632Y-62346525D01*
X149362240Y-62230000D01*
X149536632Y-62113475D01*
X149743475Y-61906632D01*
X149861100Y-61730594D01*
X150032412Y-61960269D01*
G36*
X147436525Y-59366632D02*
G01*
X147643368Y-59573475D01*
X147817760Y-59690000D01*
X147643368Y-59806525D01*
X147436525Y-60013368D01*
X147311822Y-60200000D01*
X146722322Y-60200000D01*
X146684999Y-60196324D01*
X146647676Y-60200000D01*
X146647667Y-60200000D01*
X146536014Y-60210997D01*
X146392753Y-60254454D01*
X146260724Y-60325026D01*
X146144999Y-60419999D01*
X146121201Y-60448997D01*
X145195198Y-61375001D01*
X122073850Y-61375001D01*
X122091476Y-61316890D01*
X121970155Y-61087000D01*
X120777000Y-61087000D01*
X120777000Y-61107000D01*
X120523000Y-61107000D01*
X120523000Y-61087000D01*
X120503000Y-61087000D01*
X120503000Y-60833000D01*
X120523000Y-60833000D01*
X120523000Y-60813000D01*
X120777000Y-60813000D01*
X120777000Y-60833000D01*
X121970155Y-60833000D01*
X122091476Y-60603110D01*
X122073850Y-60544999D01*
X145282679Y-60544999D01*
X145320001Y-60548675D01*
X145357323Y-60544999D01*
X145357334Y-60544999D01*
X145468987Y-60534002D01*
X145612248Y-60490545D01*
X145744277Y-60419973D01*
X145860002Y-60325000D01*
X145883805Y-60295996D01*
X146999802Y-59180000D01*
X147311822Y-59180000D01*
X147436525Y-59366632D01*
G37*
X147436525Y-59366632D02*
X147643368Y-59573475D01*
X147817760Y-59690000D01*
X147643368Y-59806525D01*
X147436525Y-60013368D01*
X147311822Y-60200000D01*
X146722322Y-60200000D01*
X146684999Y-60196324D01*
X146647676Y-60200000D01*
X146647667Y-60200000D01*
X146536014Y-60210997D01*
X146392753Y-60254454D01*
X146260724Y-60325026D01*
X146144999Y-60419999D01*
X146121201Y-60448997D01*
X145195198Y-61375001D01*
X122073850Y-61375001D01*
X122091476Y-61316890D01*
X121970155Y-61087000D01*
X120777000Y-61087000D01*
X120777000Y-61107000D01*
X120523000Y-61107000D01*
X120523000Y-61087000D01*
X120503000Y-61087000D01*
X120503000Y-60833000D01*
X120523000Y-60833000D01*
X120523000Y-60813000D01*
X120777000Y-60813000D01*
X120777000Y-60833000D01*
X121970155Y-60833000D01*
X122091476Y-60603110D01*
X122073850Y-60544999D01*
X145282679Y-60544999D01*
X145320001Y-60548675D01*
X145357323Y-60544999D01*
X145357334Y-60544999D01*
X145468987Y-60534002D01*
X145612248Y-60490545D01*
X145744277Y-60419973D01*
X145860002Y-60325000D01*
X145883805Y-60295996D01*
X146999802Y-59180000D01*
X147311822Y-59180000D01*
X147436525Y-59366632D01*
G36*
X150032412Y-59420269D02*
G01*
X150248645Y-59615178D01*
X150374255Y-59690000D01*
X150248645Y-59764822D01*
X150032412Y-59959731D01*
X149861100Y-60189406D01*
X149743475Y-60013368D01*
X149536632Y-59806525D01*
X149362240Y-59690000D01*
X149536632Y-59573475D01*
X149743475Y-59366632D01*
X149861100Y-59190594D01*
X150032412Y-59420269D01*
G37*
X150032412Y-59420269D02*
X150248645Y-59615178D01*
X150374255Y-59690000D01*
X150248645Y-59764822D01*
X150032412Y-59959731D01*
X149861100Y-60189406D01*
X149743475Y-60013368D01*
X149536632Y-59806525D01*
X149362240Y-59690000D01*
X149536632Y-59573475D01*
X149743475Y-59366632D01*
X149861100Y-59190594D01*
X150032412Y-59420269D01*
G36*
X147436525Y-56826632D02*
G01*
X147643368Y-57033475D01*
X147817760Y-57150000D01*
X147643368Y-57266525D01*
X147436525Y-57473368D01*
X147311822Y-57660000D01*
X146722322Y-57660000D01*
X146684999Y-57656324D01*
X146647676Y-57660000D01*
X146647667Y-57660000D01*
X146536014Y-57670997D01*
X146392753Y-57714454D01*
X146260723Y-57785026D01*
X146237600Y-57804003D01*
X146144999Y-57879999D01*
X146121201Y-57908997D01*
X145005200Y-59024999D01*
X121998765Y-59024999D01*
X122046825Y-58924099D01*
X122091476Y-58776890D01*
X121970155Y-58547000D01*
X120777000Y-58547000D01*
X120777000Y-58567000D01*
X120523000Y-58567000D01*
X120523000Y-58547000D01*
X120503000Y-58547000D01*
X120503000Y-58293000D01*
X120523000Y-58293000D01*
X120523000Y-58273000D01*
X120777000Y-58273000D01*
X120777000Y-58293000D01*
X121970155Y-58293000D01*
X122091476Y-58063110D01*
X122046825Y-57915901D01*
X121998765Y-57815001D01*
X145282679Y-57815001D01*
X145320001Y-57818677D01*
X145357323Y-57815001D01*
X145357334Y-57815001D01*
X145468987Y-57804004D01*
X145612248Y-57760547D01*
X145744277Y-57689975D01*
X145860002Y-57595002D01*
X145883805Y-57565998D01*
X146809804Y-56640000D01*
X147311822Y-56640000D01*
X147436525Y-56826632D01*
G37*
X147436525Y-56826632D02*
X147643368Y-57033475D01*
X147817760Y-57150000D01*
X147643368Y-57266525D01*
X147436525Y-57473368D01*
X147311822Y-57660000D01*
X146722322Y-57660000D01*
X146684999Y-57656324D01*
X146647676Y-57660000D01*
X146647667Y-57660000D01*
X146536014Y-57670997D01*
X146392753Y-57714454D01*
X146260723Y-57785026D01*
X146237600Y-57804003D01*
X146144999Y-57879999D01*
X146121201Y-57908997D01*
X145005200Y-59024999D01*
X121998765Y-59024999D01*
X122046825Y-58924099D01*
X122091476Y-58776890D01*
X121970155Y-58547000D01*
X120777000Y-58547000D01*
X120777000Y-58567000D01*
X120523000Y-58567000D01*
X120523000Y-58547000D01*
X120503000Y-58547000D01*
X120503000Y-58293000D01*
X120523000Y-58293000D01*
X120523000Y-58273000D01*
X120777000Y-58273000D01*
X120777000Y-58293000D01*
X121970155Y-58293000D01*
X122091476Y-58063110D01*
X122046825Y-57915901D01*
X121998765Y-57815001D01*
X145282679Y-57815001D01*
X145320001Y-57818677D01*
X145357323Y-57815001D01*
X145357334Y-57815001D01*
X145468987Y-57804004D01*
X145612248Y-57760547D01*
X145744277Y-57689975D01*
X145860002Y-57595002D01*
X145883805Y-57565998D01*
X146809804Y-56640000D01*
X147311822Y-56640000D01*
X147436525Y-56826632D01*
G36*
X150032412Y-56880269D02*
G01*
X150248645Y-57075178D01*
X150374255Y-57150000D01*
X150248645Y-57224822D01*
X150032412Y-57419731D01*
X149861100Y-57649406D01*
X149743475Y-57473368D01*
X149536632Y-57266525D01*
X149362240Y-57150000D01*
X149536632Y-57033475D01*
X149743475Y-56826632D01*
X149861100Y-56650594D01*
X150032412Y-56880269D01*
G37*
X150032412Y-56880269D02*
X150248645Y-57075178D01*
X150374255Y-57150000D01*
X150248645Y-57224822D01*
X150032412Y-57419731D01*
X149861100Y-57649406D01*
X149743475Y-57473368D01*
X149536632Y-57266525D01*
X149362240Y-57150000D01*
X149536632Y-57033475D01*
X149743475Y-56826632D01*
X149861100Y-56650594D01*
X150032412Y-56880269D01*
G36*
X147436525Y-54286632D02*
G01*
X147643368Y-54493475D01*
X147817760Y-54610000D01*
X147643368Y-54726525D01*
X147436525Y-54933368D01*
X147311822Y-55120000D01*
X146532324Y-55120000D01*
X146495001Y-55116324D01*
X146457678Y-55120000D01*
X146457669Y-55120000D01*
X146346016Y-55130997D01*
X146202755Y-55174454D01*
X146070726Y-55245026D01*
X145955001Y-55339999D01*
X145931203Y-55368997D01*
X145005200Y-56295001D01*
X122073850Y-56295001D01*
X122091476Y-56236890D01*
X121970155Y-56007000D01*
X120777000Y-56007000D01*
X120777000Y-56027000D01*
X120523000Y-56027000D01*
X120523000Y-56007000D01*
X120503000Y-56007000D01*
X120503000Y-55753000D01*
X120523000Y-55753000D01*
X120523000Y-55733000D01*
X120777000Y-55733000D01*
X120777000Y-55753000D01*
X121970155Y-55753000D01*
X122091476Y-55523110D01*
X122046825Y-55375901D01*
X121998765Y-55275001D01*
X145282679Y-55275001D01*
X145320001Y-55278677D01*
X145357323Y-55275001D01*
X145357334Y-55275001D01*
X145468987Y-55264004D01*
X145612248Y-55220547D01*
X145744277Y-55149975D01*
X145860002Y-55055002D01*
X145883805Y-55025998D01*
X146809804Y-54100000D01*
X147311822Y-54100000D01*
X147436525Y-54286632D01*
G37*
X147436525Y-54286632D02*
X147643368Y-54493475D01*
X147817760Y-54610000D01*
X147643368Y-54726525D01*
X147436525Y-54933368D01*
X147311822Y-55120000D01*
X146532324Y-55120000D01*
X146495001Y-55116324D01*
X146457678Y-55120000D01*
X146457669Y-55120000D01*
X146346016Y-55130997D01*
X146202755Y-55174454D01*
X146070726Y-55245026D01*
X145955001Y-55339999D01*
X145931203Y-55368997D01*
X145005200Y-56295001D01*
X122073850Y-56295001D01*
X122091476Y-56236890D01*
X121970155Y-56007000D01*
X120777000Y-56007000D01*
X120777000Y-56027000D01*
X120523000Y-56027000D01*
X120523000Y-56007000D01*
X120503000Y-56007000D01*
X120503000Y-55753000D01*
X120523000Y-55753000D01*
X120523000Y-55733000D01*
X120777000Y-55733000D01*
X120777000Y-55753000D01*
X121970155Y-55753000D01*
X122091476Y-55523110D01*
X122046825Y-55375901D01*
X121998765Y-55275001D01*
X145282679Y-55275001D01*
X145320001Y-55278677D01*
X145357323Y-55275001D01*
X145357334Y-55275001D01*
X145468987Y-55264004D01*
X145612248Y-55220547D01*
X145744277Y-55149975D01*
X145860002Y-55055002D01*
X145883805Y-55025998D01*
X146809804Y-54100000D01*
X147311822Y-54100000D01*
X147436525Y-54286632D01*
G36*
X150032412Y-54340269D02*
G01*
X150248645Y-54535178D01*
X150374255Y-54610000D01*
X150248645Y-54684822D01*
X150032412Y-54879731D01*
X149861100Y-55109406D01*
X149743475Y-54933368D01*
X149536632Y-54726525D01*
X149362240Y-54610000D01*
X149536632Y-54493475D01*
X149743475Y-54286632D01*
X149861100Y-54110594D01*
X150032412Y-54340269D01*
G37*
X150032412Y-54340269D02*
X150248645Y-54535178D01*
X150374255Y-54610000D01*
X150248645Y-54684822D01*
X150032412Y-54879731D01*
X149861100Y-55109406D01*
X149743475Y-54933368D01*
X149536632Y-54726525D01*
X149362240Y-54610000D01*
X149536632Y-54493475D01*
X149743475Y-54286632D01*
X149861100Y-54110594D01*
X150032412Y-54340269D01*
G36*
X147436525Y-51746632D02*
G01*
X147643368Y-51953475D01*
X147817760Y-52070000D01*
X147643368Y-52186525D01*
X147436525Y-52393368D01*
X147311822Y-52580000D01*
X146532324Y-52580000D01*
X146495001Y-52576324D01*
X146457678Y-52580000D01*
X146457669Y-52580000D01*
X146346016Y-52590997D01*
X146202755Y-52634454D01*
X146070726Y-52705026D01*
X145955001Y-52799999D01*
X145931203Y-52828997D01*
X145005200Y-53755001D01*
X122073850Y-53755001D01*
X122091476Y-53696890D01*
X121970155Y-53467000D01*
X120777000Y-53467000D01*
X120777000Y-53487000D01*
X120523000Y-53487000D01*
X120523000Y-53467000D01*
X120503000Y-53467000D01*
X120503000Y-53213000D01*
X120523000Y-53213000D01*
X120523000Y-53193000D01*
X120777000Y-53193000D01*
X120777000Y-53213000D01*
X121970155Y-53213000D01*
X122091476Y-52983110D01*
X122046825Y-52835901D01*
X121998765Y-52735001D01*
X145282679Y-52735001D01*
X145320001Y-52738677D01*
X145357323Y-52735001D01*
X145357334Y-52735001D01*
X145468987Y-52724004D01*
X145612248Y-52680547D01*
X145744277Y-52609975D01*
X145860002Y-52515002D01*
X145883805Y-52485998D01*
X146809804Y-51560000D01*
X147311822Y-51560000D01*
X147436525Y-51746632D01*
G37*
X147436525Y-51746632D02*
X147643368Y-51953475D01*
X147817760Y-52070000D01*
X147643368Y-52186525D01*
X147436525Y-52393368D01*
X147311822Y-52580000D01*
X146532324Y-52580000D01*
X146495001Y-52576324D01*
X146457678Y-52580000D01*
X146457669Y-52580000D01*
X146346016Y-52590997D01*
X146202755Y-52634454D01*
X146070726Y-52705026D01*
X145955001Y-52799999D01*
X145931203Y-52828997D01*
X145005200Y-53755001D01*
X122073850Y-53755001D01*
X122091476Y-53696890D01*
X121970155Y-53467000D01*
X120777000Y-53467000D01*
X120777000Y-53487000D01*
X120523000Y-53487000D01*
X120523000Y-53467000D01*
X120503000Y-53467000D01*
X120503000Y-53213000D01*
X120523000Y-53213000D01*
X120523000Y-53193000D01*
X120777000Y-53193000D01*
X120777000Y-53213000D01*
X121970155Y-53213000D01*
X122091476Y-52983110D01*
X122046825Y-52835901D01*
X121998765Y-52735001D01*
X145282679Y-52735001D01*
X145320001Y-52738677D01*
X145357323Y-52735001D01*
X145357334Y-52735001D01*
X145468987Y-52724004D01*
X145612248Y-52680547D01*
X145744277Y-52609975D01*
X145860002Y-52515002D01*
X145883805Y-52485998D01*
X146809804Y-51560000D01*
X147311822Y-51560000D01*
X147436525Y-51746632D01*
G36*
X150032412Y-51800269D02*
G01*
X150248645Y-51995178D01*
X150374255Y-52070000D01*
X150248645Y-52144822D01*
X150032412Y-52339731D01*
X149861100Y-52569406D01*
X149743475Y-52393368D01*
X149536632Y-52186525D01*
X149362240Y-52070000D01*
X149536632Y-51953475D01*
X149743475Y-51746632D01*
X149861100Y-51570594D01*
X150032412Y-51800269D01*
G37*
X150032412Y-51800269D02*
X150248645Y-51995178D01*
X150374255Y-52070000D01*
X150248645Y-52144822D01*
X150032412Y-52339731D01*
X149861100Y-52569406D01*
X149743475Y-52393368D01*
X149536632Y-52186525D01*
X149362240Y-52070000D01*
X149536632Y-51953475D01*
X149743475Y-51746632D01*
X149861100Y-51570594D01*
X150032412Y-51800269D01*
G36*
X147436525Y-49206632D02*
G01*
X147643368Y-49413475D01*
X147817760Y-49530000D01*
X147643368Y-49646525D01*
X147436525Y-49853368D01*
X147311822Y-50040000D01*
X146532324Y-50040000D01*
X146495001Y-50036324D01*
X146457678Y-50040000D01*
X146457669Y-50040000D01*
X146346016Y-50050997D01*
X146202755Y-50094454D01*
X146070726Y-50165026D01*
X145955001Y-50259999D01*
X145931203Y-50288997D01*
X145005200Y-51215001D01*
X122073850Y-51215001D01*
X122091476Y-51156890D01*
X121970155Y-50927000D01*
X120777000Y-50927000D01*
X120777000Y-50947000D01*
X120523000Y-50947000D01*
X120523000Y-50927000D01*
X120503000Y-50927000D01*
X120503000Y-50673000D01*
X120523000Y-50673000D01*
X120523000Y-50653000D01*
X120777000Y-50653000D01*
X120777000Y-50673000D01*
X121970155Y-50673000D01*
X122091476Y-50443110D01*
X122073850Y-50384999D01*
X145282679Y-50384999D01*
X145320001Y-50388675D01*
X145357323Y-50384999D01*
X145357334Y-50384999D01*
X145468987Y-50374002D01*
X145612248Y-50330545D01*
X145744277Y-50259973D01*
X145860002Y-50165000D01*
X145883805Y-50135996D01*
X146999802Y-49020000D01*
X147311822Y-49020000D01*
X147436525Y-49206632D01*
G37*
X147436525Y-49206632D02*
X147643368Y-49413475D01*
X147817760Y-49530000D01*
X147643368Y-49646525D01*
X147436525Y-49853368D01*
X147311822Y-50040000D01*
X146532324Y-50040000D01*
X146495001Y-50036324D01*
X146457678Y-50040000D01*
X146457669Y-50040000D01*
X146346016Y-50050997D01*
X146202755Y-50094454D01*
X146070726Y-50165026D01*
X145955001Y-50259999D01*
X145931203Y-50288997D01*
X145005200Y-51215001D01*
X122073850Y-51215001D01*
X122091476Y-51156890D01*
X121970155Y-50927000D01*
X120777000Y-50927000D01*
X120777000Y-50947000D01*
X120523000Y-50947000D01*
X120523000Y-50927000D01*
X120503000Y-50927000D01*
X120503000Y-50673000D01*
X120523000Y-50673000D01*
X120523000Y-50653000D01*
X120777000Y-50653000D01*
X120777000Y-50673000D01*
X121970155Y-50673000D01*
X122091476Y-50443110D01*
X122073850Y-50384999D01*
X145282679Y-50384999D01*
X145320001Y-50388675D01*
X145357323Y-50384999D01*
X145357334Y-50384999D01*
X145468987Y-50374002D01*
X145612248Y-50330545D01*
X145744277Y-50259973D01*
X145860002Y-50165000D01*
X145883805Y-50135996D01*
X146999802Y-49020000D01*
X147311822Y-49020000D01*
X147436525Y-49206632D01*
G36*
X150032412Y-49260269D02*
G01*
X150248645Y-49455178D01*
X150374255Y-49530000D01*
X150248645Y-49604822D01*
X150032412Y-49799731D01*
X149861100Y-50029406D01*
X149743475Y-49853368D01*
X149536632Y-49646525D01*
X149362240Y-49530000D01*
X149536632Y-49413475D01*
X149743475Y-49206632D01*
X149861100Y-49030594D01*
X150032412Y-49260269D01*
G37*
X150032412Y-49260269D02*
X150248645Y-49455178D01*
X150374255Y-49530000D01*
X150248645Y-49604822D01*
X150032412Y-49799731D01*
X149861100Y-50029406D01*
X149743475Y-49853368D01*
X149536632Y-49646525D01*
X149362240Y-49530000D01*
X149536632Y-49413475D01*
X149743475Y-49206632D01*
X149861100Y-49030594D01*
X150032412Y-49260269D01*
G36*
X147436525Y-46666632D02*
G01*
X147643368Y-46873475D01*
X147817760Y-46990000D01*
X147643368Y-47106525D01*
X147436525Y-47313368D01*
X147311822Y-47500000D01*
X146722322Y-47500000D01*
X146684999Y-47496324D01*
X146647676Y-47500000D01*
X146647667Y-47500000D01*
X146536014Y-47510997D01*
X146392753Y-47554454D01*
X146260723Y-47625026D01*
X146177083Y-47693668D01*
X146144999Y-47719999D01*
X146121201Y-47748997D01*
X145005200Y-48864999D01*
X121998765Y-48864999D01*
X122046825Y-48764099D01*
X122091476Y-48616890D01*
X121970155Y-48387000D01*
X120777000Y-48387000D01*
X120777000Y-48407000D01*
X120523000Y-48407000D01*
X120523000Y-48387000D01*
X120503000Y-48387000D01*
X120503000Y-48133000D01*
X120523000Y-48133000D01*
X120523000Y-48113000D01*
X120777000Y-48113000D01*
X120777000Y-48133000D01*
X121970155Y-48133000D01*
X122091476Y-47903110D01*
X122073850Y-47844999D01*
X145282679Y-47844999D01*
X145320001Y-47848675D01*
X145357323Y-47844999D01*
X145357334Y-47844999D01*
X145468987Y-47834002D01*
X145612248Y-47790545D01*
X145744277Y-47719973D01*
X145860002Y-47625000D01*
X145883805Y-47595996D01*
X146999802Y-46480000D01*
X147311822Y-46480000D01*
X147436525Y-46666632D01*
G37*
X147436525Y-46666632D02*
X147643368Y-46873475D01*
X147817760Y-46990000D01*
X147643368Y-47106525D01*
X147436525Y-47313368D01*
X147311822Y-47500000D01*
X146722322Y-47500000D01*
X146684999Y-47496324D01*
X146647676Y-47500000D01*
X146647667Y-47500000D01*
X146536014Y-47510997D01*
X146392753Y-47554454D01*
X146260723Y-47625026D01*
X146177083Y-47693668D01*
X146144999Y-47719999D01*
X146121201Y-47748997D01*
X145005200Y-48864999D01*
X121998765Y-48864999D01*
X122046825Y-48764099D01*
X122091476Y-48616890D01*
X121970155Y-48387000D01*
X120777000Y-48387000D01*
X120777000Y-48407000D01*
X120523000Y-48407000D01*
X120523000Y-48387000D01*
X120503000Y-48387000D01*
X120503000Y-48133000D01*
X120523000Y-48133000D01*
X120523000Y-48113000D01*
X120777000Y-48113000D01*
X120777000Y-48133000D01*
X121970155Y-48133000D01*
X122091476Y-47903110D01*
X122073850Y-47844999D01*
X145282679Y-47844999D01*
X145320001Y-47848675D01*
X145357323Y-47844999D01*
X145357334Y-47844999D01*
X145468987Y-47834002D01*
X145612248Y-47790545D01*
X145744277Y-47719973D01*
X145860002Y-47625000D01*
X145883805Y-47595996D01*
X146999802Y-46480000D01*
X147311822Y-46480000D01*
X147436525Y-46666632D01*
G36*
X150032412Y-46720269D02*
G01*
X150248645Y-46915178D01*
X150374255Y-46990000D01*
X150248645Y-47064822D01*
X150032412Y-47259731D01*
X149861100Y-47489406D01*
X149743475Y-47313368D01*
X149536632Y-47106525D01*
X149362240Y-46990000D01*
X149536632Y-46873475D01*
X149743475Y-46666632D01*
X149861100Y-46490594D01*
X150032412Y-46720269D01*
G37*
X150032412Y-46720269D02*
X150248645Y-46915178D01*
X150374255Y-46990000D01*
X150248645Y-47064822D01*
X150032412Y-47259731D01*
X149861100Y-47489406D01*
X149743475Y-47313368D01*
X149536632Y-47106525D01*
X149362240Y-46990000D01*
X149536632Y-46873475D01*
X149743475Y-46666632D01*
X149861100Y-46490594D01*
X150032412Y-46720269D01*
G36*
X147436525Y-44126632D02*
G01*
X147643368Y-44333475D01*
X147817760Y-44450000D01*
X147643368Y-44566525D01*
X147436525Y-44773368D01*
X147311822Y-44960000D01*
X146722322Y-44960000D01*
X146684999Y-44956324D01*
X146647676Y-44960000D01*
X146647667Y-44960000D01*
X146536014Y-44970997D01*
X146392753Y-45014454D01*
X146260723Y-45085026D01*
X146177083Y-45153668D01*
X146144999Y-45179999D01*
X146121201Y-45208997D01*
X145005200Y-46324999D01*
X121998765Y-46324999D01*
X122046825Y-46224099D01*
X122091476Y-46076890D01*
X121970155Y-45847000D01*
X120777000Y-45847000D01*
X120777000Y-45867000D01*
X120523000Y-45867000D01*
X120523000Y-45847000D01*
X120503000Y-45847000D01*
X120503000Y-45593000D01*
X120523000Y-45593000D01*
X120523000Y-45573000D01*
X120777000Y-45573000D01*
X120777000Y-45593000D01*
X121970155Y-45593000D01*
X122091476Y-45363110D01*
X122073850Y-45304999D01*
X145282679Y-45304999D01*
X145320001Y-45308675D01*
X145357323Y-45304999D01*
X145357334Y-45304999D01*
X145468987Y-45294002D01*
X145612248Y-45250545D01*
X145744277Y-45179973D01*
X145860002Y-45085000D01*
X145883805Y-45055996D01*
X146999802Y-43940000D01*
X147311822Y-43940000D01*
X147436525Y-44126632D01*
G37*
X147436525Y-44126632D02*
X147643368Y-44333475D01*
X147817760Y-44450000D01*
X147643368Y-44566525D01*
X147436525Y-44773368D01*
X147311822Y-44960000D01*
X146722322Y-44960000D01*
X146684999Y-44956324D01*
X146647676Y-44960000D01*
X146647667Y-44960000D01*
X146536014Y-44970997D01*
X146392753Y-45014454D01*
X146260723Y-45085026D01*
X146177083Y-45153668D01*
X146144999Y-45179999D01*
X146121201Y-45208997D01*
X145005200Y-46324999D01*
X121998765Y-46324999D01*
X122046825Y-46224099D01*
X122091476Y-46076890D01*
X121970155Y-45847000D01*
X120777000Y-45847000D01*
X120777000Y-45867000D01*
X120523000Y-45867000D01*
X120523000Y-45847000D01*
X120503000Y-45847000D01*
X120503000Y-45593000D01*
X120523000Y-45593000D01*
X120523000Y-45573000D01*
X120777000Y-45573000D01*
X120777000Y-45593000D01*
X121970155Y-45593000D01*
X122091476Y-45363110D01*
X122073850Y-45304999D01*
X145282679Y-45304999D01*
X145320001Y-45308675D01*
X145357323Y-45304999D01*
X145357334Y-45304999D01*
X145468987Y-45294002D01*
X145612248Y-45250545D01*
X145744277Y-45179973D01*
X145860002Y-45085000D01*
X145883805Y-45055996D01*
X146999802Y-43940000D01*
X147311822Y-43940000D01*
X147436525Y-44126632D01*
G36*
X150032412Y-44180269D02*
G01*
X150248645Y-44375178D01*
X150374255Y-44450000D01*
X150248645Y-44524822D01*
X150032412Y-44719731D01*
X149861100Y-44949406D01*
X149743475Y-44773368D01*
X149536632Y-44566525D01*
X149362240Y-44450000D01*
X149536632Y-44333475D01*
X149743475Y-44126632D01*
X149861100Y-43950594D01*
X150032412Y-44180269D01*
G37*
X150032412Y-44180269D02*
X150248645Y-44375178D01*
X150374255Y-44450000D01*
X150248645Y-44524822D01*
X150032412Y-44719731D01*
X149861100Y-44949406D01*
X149743475Y-44773368D01*
X149536632Y-44566525D01*
X149362240Y-44450000D01*
X149536632Y-44333475D01*
X149743475Y-44126632D01*
X149861100Y-43950594D01*
X150032412Y-44180269D01*
G36*
X147436525Y-41586632D02*
G01*
X147643368Y-41793475D01*
X147817760Y-41910000D01*
X147643368Y-42026525D01*
X147436525Y-42233368D01*
X147311822Y-42420000D01*
X146722322Y-42420000D01*
X146684999Y-42416324D01*
X146647676Y-42420000D01*
X146647667Y-42420000D01*
X146536014Y-42430997D01*
X146392753Y-42474454D01*
X146260723Y-42545026D01*
X146177083Y-42613668D01*
X146144999Y-42639999D01*
X146121201Y-42668997D01*
X145005200Y-43784999D01*
X121998765Y-43784999D01*
X122046825Y-43684099D01*
X122091476Y-43536890D01*
X121970155Y-43307000D01*
X120777000Y-43307000D01*
X120777000Y-43327000D01*
X120523000Y-43327000D01*
X120523000Y-43307000D01*
X120503000Y-43307000D01*
X120503000Y-43053000D01*
X120523000Y-43053000D01*
X120523000Y-43033000D01*
X120777000Y-43033000D01*
X120777000Y-43053000D01*
X121970155Y-43053000D01*
X122091476Y-42823110D01*
X122073850Y-42764999D01*
X145282679Y-42764999D01*
X145320001Y-42768675D01*
X145357323Y-42764999D01*
X145357334Y-42764999D01*
X145468987Y-42754002D01*
X145612248Y-42710545D01*
X145744277Y-42639973D01*
X145860002Y-42545000D01*
X145883805Y-42515996D01*
X146999802Y-41400000D01*
X147311822Y-41400000D01*
X147436525Y-41586632D01*
G37*
X147436525Y-41586632D02*
X147643368Y-41793475D01*
X147817760Y-41910000D01*
X147643368Y-42026525D01*
X147436525Y-42233368D01*
X147311822Y-42420000D01*
X146722322Y-42420000D01*
X146684999Y-42416324D01*
X146647676Y-42420000D01*
X146647667Y-42420000D01*
X146536014Y-42430997D01*
X146392753Y-42474454D01*
X146260723Y-42545026D01*
X146177083Y-42613668D01*
X146144999Y-42639999D01*
X146121201Y-42668997D01*
X145005200Y-43784999D01*
X121998765Y-43784999D01*
X122046825Y-43684099D01*
X122091476Y-43536890D01*
X121970155Y-43307000D01*
X120777000Y-43307000D01*
X120777000Y-43327000D01*
X120523000Y-43327000D01*
X120523000Y-43307000D01*
X120503000Y-43307000D01*
X120503000Y-43053000D01*
X120523000Y-43053000D01*
X120523000Y-43033000D01*
X120777000Y-43033000D01*
X120777000Y-43053000D01*
X121970155Y-43053000D01*
X122091476Y-42823110D01*
X122073850Y-42764999D01*
X145282679Y-42764999D01*
X145320001Y-42768675D01*
X145357323Y-42764999D01*
X145357334Y-42764999D01*
X145468987Y-42754002D01*
X145612248Y-42710545D01*
X145744277Y-42639973D01*
X145860002Y-42545000D01*
X145883805Y-42515996D01*
X146999802Y-41400000D01*
X147311822Y-41400000D01*
X147436525Y-41586632D01*
G36*
X150032412Y-41640269D02*
G01*
X150248645Y-41835178D01*
X150374255Y-41910000D01*
X150248645Y-41984822D01*
X150032412Y-42179731D01*
X149861100Y-42409406D01*
X149743475Y-42233368D01*
X149536632Y-42026525D01*
X149362240Y-41910000D01*
X149536632Y-41793475D01*
X149743475Y-41586632D01*
X149861100Y-41410594D01*
X150032412Y-41640269D01*
G37*
X150032412Y-41640269D02*
X150248645Y-41835178D01*
X150374255Y-41910000D01*
X150248645Y-41984822D01*
X150032412Y-42179731D01*
X149861100Y-42409406D01*
X149743475Y-42233368D01*
X149536632Y-42026525D01*
X149362240Y-41910000D01*
X149536632Y-41793475D01*
X149743475Y-41586632D01*
X149861100Y-41410594D01*
X150032412Y-41640269D01*
G36*
X147436525Y-39046632D02*
G01*
X147643368Y-39253475D01*
X147817760Y-39370000D01*
X147643368Y-39486525D01*
X147436525Y-39693368D01*
X147311822Y-39880000D01*
X146722322Y-39880000D01*
X146684999Y-39876324D01*
X146647676Y-39880000D01*
X146647667Y-39880000D01*
X146536014Y-39890997D01*
X146392753Y-39934454D01*
X146260723Y-40005026D01*
X146237600Y-40024003D01*
X146144999Y-40099999D01*
X146121201Y-40128997D01*
X145005200Y-41244999D01*
X121998765Y-41244999D01*
X122046825Y-41144099D01*
X122091476Y-40996890D01*
X121970155Y-40767000D01*
X120777000Y-40767000D01*
X120777000Y-40787000D01*
X120523000Y-40787000D01*
X120523000Y-40767000D01*
X120503000Y-40767000D01*
X120503000Y-40513000D01*
X120523000Y-40513000D01*
X120523000Y-40493000D01*
X120777000Y-40493000D01*
X120777000Y-40513000D01*
X121970155Y-40513000D01*
X122091476Y-40283110D01*
X122046825Y-40135901D01*
X121998765Y-40035001D01*
X145282679Y-40035001D01*
X145320001Y-40038677D01*
X145357323Y-40035001D01*
X145357334Y-40035001D01*
X145468987Y-40024004D01*
X145612248Y-39980547D01*
X145744277Y-39909975D01*
X145860002Y-39815002D01*
X145883805Y-39785998D01*
X146809804Y-38860000D01*
X147311822Y-38860000D01*
X147436525Y-39046632D01*
G37*
X147436525Y-39046632D02*
X147643368Y-39253475D01*
X147817760Y-39370000D01*
X147643368Y-39486525D01*
X147436525Y-39693368D01*
X147311822Y-39880000D01*
X146722322Y-39880000D01*
X146684999Y-39876324D01*
X146647676Y-39880000D01*
X146647667Y-39880000D01*
X146536014Y-39890997D01*
X146392753Y-39934454D01*
X146260723Y-40005026D01*
X146237600Y-40024003D01*
X146144999Y-40099999D01*
X146121201Y-40128997D01*
X145005200Y-41244999D01*
X121998765Y-41244999D01*
X122046825Y-41144099D01*
X122091476Y-40996890D01*
X121970155Y-40767000D01*
X120777000Y-40767000D01*
X120777000Y-40787000D01*
X120523000Y-40787000D01*
X120523000Y-40767000D01*
X120503000Y-40767000D01*
X120503000Y-40513000D01*
X120523000Y-40513000D01*
X120523000Y-40493000D01*
X120777000Y-40493000D01*
X120777000Y-40513000D01*
X121970155Y-40513000D01*
X122091476Y-40283110D01*
X122046825Y-40135901D01*
X121998765Y-40035001D01*
X145282679Y-40035001D01*
X145320001Y-40038677D01*
X145357323Y-40035001D01*
X145357334Y-40035001D01*
X145468987Y-40024004D01*
X145612248Y-39980547D01*
X145744277Y-39909975D01*
X145860002Y-39815002D01*
X145883805Y-39785998D01*
X146809804Y-38860000D01*
X147311822Y-38860000D01*
X147436525Y-39046632D01*
G36*
X150032412Y-39100269D02*
G01*
X150248645Y-39295178D01*
X150374255Y-39370000D01*
X150248645Y-39444822D01*
X150032412Y-39639731D01*
X149861100Y-39869406D01*
X149743475Y-39693368D01*
X149536632Y-39486525D01*
X149362240Y-39370000D01*
X149536632Y-39253475D01*
X149743475Y-39046632D01*
X149861100Y-38870594D01*
X150032412Y-39100269D01*
G37*
X150032412Y-39100269D02*
X150248645Y-39295178D01*
X150374255Y-39370000D01*
X150248645Y-39444822D01*
X150032412Y-39639731D01*
X149861100Y-39869406D01*
X149743475Y-39693368D01*
X149536632Y-39486525D01*
X149362240Y-39370000D01*
X149536632Y-39253475D01*
X149743475Y-39046632D01*
X149861100Y-38870594D01*
X150032412Y-39100269D01*
G36*
X147436525Y-36506632D02*
G01*
X147643368Y-36713475D01*
X147817760Y-36830000D01*
X147643368Y-36946525D01*
X147436525Y-37153368D01*
X147311822Y-37340000D01*
X146532324Y-37340000D01*
X146495001Y-37336324D01*
X146457678Y-37340000D01*
X146457669Y-37340000D01*
X146346016Y-37350997D01*
X146202755Y-37394454D01*
X146070726Y-37465026D01*
X145955001Y-37559999D01*
X145931203Y-37588997D01*
X145005200Y-38515001D01*
X122073850Y-38515001D01*
X122091476Y-38456890D01*
X121970155Y-38227000D01*
X120777000Y-38227000D01*
X120777000Y-38247000D01*
X120523000Y-38247000D01*
X120523000Y-38227000D01*
X120503000Y-38227000D01*
X120503000Y-37973000D01*
X120523000Y-37973000D01*
X120523000Y-37953000D01*
X120777000Y-37953000D01*
X120777000Y-37973000D01*
X121970155Y-37973000D01*
X122091476Y-37743110D01*
X122046825Y-37595901D01*
X121998765Y-37495001D01*
X145472677Y-37495001D01*
X145509999Y-37498677D01*
X145547321Y-37495001D01*
X145547332Y-37495001D01*
X145658985Y-37484004D01*
X145802246Y-37440547D01*
X145934275Y-37369975D01*
X146050000Y-37275002D01*
X146073803Y-37245998D01*
X146999802Y-36320000D01*
X147311822Y-36320000D01*
X147436525Y-36506632D01*
G37*
X147436525Y-36506632D02*
X147643368Y-36713475D01*
X147817760Y-36830000D01*
X147643368Y-36946525D01*
X147436525Y-37153368D01*
X147311822Y-37340000D01*
X146532324Y-37340000D01*
X146495001Y-37336324D01*
X146457678Y-37340000D01*
X146457669Y-37340000D01*
X146346016Y-37350997D01*
X146202755Y-37394454D01*
X146070726Y-37465026D01*
X145955001Y-37559999D01*
X145931203Y-37588997D01*
X145005200Y-38515001D01*
X122073850Y-38515001D01*
X122091476Y-38456890D01*
X121970155Y-38227000D01*
X120777000Y-38227000D01*
X120777000Y-38247000D01*
X120523000Y-38247000D01*
X120523000Y-38227000D01*
X120503000Y-38227000D01*
X120503000Y-37973000D01*
X120523000Y-37973000D01*
X120523000Y-37953000D01*
X120777000Y-37953000D01*
X120777000Y-37973000D01*
X121970155Y-37973000D01*
X122091476Y-37743110D01*
X122046825Y-37595901D01*
X121998765Y-37495001D01*
X145472677Y-37495001D01*
X145509999Y-37498677D01*
X145547321Y-37495001D01*
X145547332Y-37495001D01*
X145658985Y-37484004D01*
X145802246Y-37440547D01*
X145934275Y-37369975D01*
X146050000Y-37275002D01*
X146073803Y-37245998D01*
X146999802Y-36320000D01*
X147311822Y-36320000D01*
X147436525Y-36506632D01*
G36*
X150032412Y-36560269D02*
G01*
X150248645Y-36755178D01*
X150374255Y-36830000D01*
X150248645Y-36904822D01*
X150032412Y-37099731D01*
X149861100Y-37329406D01*
X149743475Y-37153368D01*
X149536632Y-36946525D01*
X149362240Y-36830000D01*
X149536632Y-36713475D01*
X149743475Y-36506632D01*
X149861100Y-36330594D01*
X150032412Y-36560269D01*
G37*
X150032412Y-36560269D02*
X150248645Y-36755178D01*
X150374255Y-36830000D01*
X150248645Y-36904822D01*
X150032412Y-37099731D01*
X149861100Y-37329406D01*
X149743475Y-37153368D01*
X149536632Y-36946525D01*
X149362240Y-36830000D01*
X149536632Y-36713475D01*
X149743475Y-36506632D01*
X149861100Y-36330594D01*
X150032412Y-36560269D01*
G36*
X147436525Y-33966632D02*
G01*
X147643368Y-34173475D01*
X147817760Y-34290000D01*
X147643368Y-34406525D01*
X147436525Y-34613368D01*
X147311822Y-34800000D01*
X146722322Y-34800000D01*
X146684999Y-34796324D01*
X146647676Y-34800000D01*
X146647667Y-34800000D01*
X146536014Y-34810997D01*
X146392753Y-34854454D01*
X146260724Y-34925026D01*
X146144999Y-35019999D01*
X146121201Y-35048997D01*
X145195198Y-35975001D01*
X122073850Y-35975001D01*
X122091476Y-35916890D01*
X121970155Y-35687000D01*
X120777000Y-35687000D01*
X120777000Y-35707000D01*
X120523000Y-35707000D01*
X120523000Y-35687000D01*
X120503000Y-35687000D01*
X120503000Y-35433000D01*
X120523000Y-35433000D01*
X120523000Y-35413000D01*
X120777000Y-35413000D01*
X120777000Y-35433000D01*
X121970155Y-35433000D01*
X122091476Y-35203110D01*
X122046825Y-35055901D01*
X121998765Y-34955001D01*
X145282679Y-34955001D01*
X145320001Y-34958677D01*
X145357323Y-34955001D01*
X145357334Y-34955001D01*
X145468987Y-34944004D01*
X145612248Y-34900547D01*
X145744277Y-34829975D01*
X145860002Y-34735002D01*
X145883805Y-34705998D01*
X146809804Y-33780000D01*
X147311822Y-33780000D01*
X147436525Y-33966632D01*
G37*
X147436525Y-33966632D02*
X147643368Y-34173475D01*
X147817760Y-34290000D01*
X147643368Y-34406525D01*
X147436525Y-34613368D01*
X147311822Y-34800000D01*
X146722322Y-34800000D01*
X146684999Y-34796324D01*
X146647676Y-34800000D01*
X146647667Y-34800000D01*
X146536014Y-34810997D01*
X146392753Y-34854454D01*
X146260724Y-34925026D01*
X146144999Y-35019999D01*
X146121201Y-35048997D01*
X145195198Y-35975001D01*
X122073850Y-35975001D01*
X122091476Y-35916890D01*
X121970155Y-35687000D01*
X120777000Y-35687000D01*
X120777000Y-35707000D01*
X120523000Y-35707000D01*
X120523000Y-35687000D01*
X120503000Y-35687000D01*
X120503000Y-35433000D01*
X120523000Y-35433000D01*
X120523000Y-35413000D01*
X120777000Y-35413000D01*
X120777000Y-35433000D01*
X121970155Y-35433000D01*
X122091476Y-35203110D01*
X122046825Y-35055901D01*
X121998765Y-34955001D01*
X145282679Y-34955001D01*
X145320001Y-34958677D01*
X145357323Y-34955001D01*
X145357334Y-34955001D01*
X145468987Y-34944004D01*
X145612248Y-34900547D01*
X145744277Y-34829975D01*
X145860002Y-34735002D01*
X145883805Y-34705998D01*
X146809804Y-33780000D01*
X147311822Y-33780000D01*
X147436525Y-33966632D01*
G36*
X150032412Y-34020269D02*
G01*
X150248645Y-34215178D01*
X150374255Y-34290000D01*
X150248645Y-34364822D01*
X150032412Y-34559731D01*
X149861100Y-34789406D01*
X149743475Y-34613368D01*
X149536632Y-34406525D01*
X149362240Y-34290000D01*
X149536632Y-34173475D01*
X149743475Y-33966632D01*
X149861100Y-33790594D01*
X150032412Y-34020269D01*
G37*
X150032412Y-34020269D02*
X150248645Y-34215178D01*
X150374255Y-34290000D01*
X150248645Y-34364822D01*
X150032412Y-34559731D01*
X149861100Y-34789406D01*
X149743475Y-34613368D01*
X149536632Y-34406525D01*
X149362240Y-34290000D01*
X149536632Y-34173475D01*
X149743475Y-33966632D01*
X149861100Y-33790594D01*
X150032412Y-34020269D01*
G36*
X147436525Y-31426632D02*
G01*
X147643368Y-31633475D01*
X147817760Y-31750000D01*
X147643368Y-31866525D01*
X147436525Y-32073368D01*
X147311822Y-32260000D01*
X146532324Y-32260000D01*
X146495001Y-32256324D01*
X146457678Y-32260000D01*
X146457669Y-32260000D01*
X146346016Y-32270997D01*
X146202755Y-32314454D01*
X146070726Y-32385026D01*
X145955001Y-32479999D01*
X145931203Y-32508997D01*
X145005200Y-33435001D01*
X122073850Y-33435001D01*
X122091476Y-33376890D01*
X121970155Y-33147000D01*
X120777000Y-33147000D01*
X120777000Y-33167000D01*
X120523000Y-33167000D01*
X120523000Y-33147000D01*
X120503000Y-33147000D01*
X120503000Y-32893000D01*
X120523000Y-32893000D01*
X120523000Y-32873000D01*
X120777000Y-32873000D01*
X120777000Y-32893000D01*
X121970155Y-32893000D01*
X122091476Y-32663110D01*
X122046825Y-32515901D01*
X122044014Y-32510000D01*
X145377678Y-32510000D01*
X145415000Y-32513676D01*
X145452322Y-32510000D01*
X145452333Y-32510000D01*
X145563986Y-32499003D01*
X145707247Y-32455546D01*
X145839276Y-32384974D01*
X145955001Y-32290001D01*
X145978804Y-32260997D01*
X146999802Y-31240000D01*
X147311822Y-31240000D01*
X147436525Y-31426632D01*
G37*
X147436525Y-31426632D02*
X147643368Y-31633475D01*
X147817760Y-31750000D01*
X147643368Y-31866525D01*
X147436525Y-32073368D01*
X147311822Y-32260000D01*
X146532324Y-32260000D01*
X146495001Y-32256324D01*
X146457678Y-32260000D01*
X146457669Y-32260000D01*
X146346016Y-32270997D01*
X146202755Y-32314454D01*
X146070726Y-32385026D01*
X145955001Y-32479999D01*
X145931203Y-32508997D01*
X145005200Y-33435001D01*
X122073850Y-33435001D01*
X122091476Y-33376890D01*
X121970155Y-33147000D01*
X120777000Y-33147000D01*
X120777000Y-33167000D01*
X120523000Y-33167000D01*
X120523000Y-33147000D01*
X120503000Y-33147000D01*
X120503000Y-32893000D01*
X120523000Y-32893000D01*
X120523000Y-32873000D01*
X120777000Y-32873000D01*
X120777000Y-32893000D01*
X121970155Y-32893000D01*
X122091476Y-32663110D01*
X122046825Y-32515901D01*
X122044014Y-32510000D01*
X145377678Y-32510000D01*
X145415000Y-32513676D01*
X145452322Y-32510000D01*
X145452333Y-32510000D01*
X145563986Y-32499003D01*
X145707247Y-32455546D01*
X145839276Y-32384974D01*
X145955001Y-32290001D01*
X145978804Y-32260997D01*
X146999802Y-31240000D01*
X147311822Y-31240000D01*
X147436525Y-31426632D01*
G36*
X149690498Y-31574180D02*
G01*
X149749463Y-31684494D01*
X149828815Y-31781185D01*
X149925506Y-31860537D01*
X150035820Y-31919502D01*
X150116466Y-31943966D01*
X150032412Y-32019731D01*
X149861100Y-32249406D01*
X149743475Y-32073368D01*
X149536632Y-31866525D01*
X149362240Y-31750000D01*
X149536632Y-31633475D01*
X149668487Y-31501620D01*
X149690498Y-31574180D01*
G37*
X149690498Y-31574180D02*
X149749463Y-31684494D01*
X149828815Y-31781185D01*
X149925506Y-31860537D01*
X150035820Y-31919502D01*
X150116466Y-31943966D01*
X150032412Y-32019731D01*
X149861100Y-32249406D01*
X149743475Y-32073368D01*
X149536632Y-31866525D01*
X149362240Y-31750000D01*
X149536632Y-31633475D01*
X149668487Y-31501620D01*
X149690498Y-31574180D01*
G36*
X147643368Y-29326525D02*
G01*
X147436525Y-29533368D01*
X147311822Y-29720000D01*
X146722322Y-29720000D01*
X146684999Y-29716324D01*
X146647676Y-29720000D01*
X146647667Y-29720000D01*
X146536014Y-29730997D01*
X146392753Y-29774454D01*
X146260724Y-29845026D01*
X146144999Y-29939999D01*
X146121201Y-29968997D01*
X145100199Y-30990000D01*
X122136221Y-30990000D01*
X122135000Y-30765750D01*
X121976250Y-30607000D01*
X120777000Y-30607000D01*
X120777000Y-30627000D01*
X120523000Y-30627000D01*
X120523000Y-30607000D01*
X120503000Y-30607000D01*
X120503000Y-30353000D01*
X120523000Y-30353000D01*
X120523000Y-30333000D01*
X120777000Y-30333000D01*
X120777000Y-30353000D01*
X121976250Y-30353000D01*
X122135000Y-30194250D01*
X122138072Y-29630000D01*
X122125812Y-29505518D01*
X122089502Y-29385820D01*
X122030537Y-29275506D01*
X121997295Y-29235000D01*
X147780345Y-29235000D01*
X147643368Y-29326525D01*
G37*
X147643368Y-29326525D02*
X147436525Y-29533368D01*
X147311822Y-29720000D01*
X146722322Y-29720000D01*
X146684999Y-29716324D01*
X146647676Y-29720000D01*
X146647667Y-29720000D01*
X146536014Y-29730997D01*
X146392753Y-29774454D01*
X146260724Y-29845026D01*
X146144999Y-29939999D01*
X146121201Y-29968997D01*
X145100199Y-30990000D01*
X122136221Y-30990000D01*
X122135000Y-30765750D01*
X121976250Y-30607000D01*
X120777000Y-30607000D01*
X120777000Y-30627000D01*
X120523000Y-30627000D01*
X120523000Y-30607000D01*
X120503000Y-30607000D01*
X120503000Y-30353000D01*
X120523000Y-30353000D01*
X120523000Y-30333000D01*
X120777000Y-30333000D01*
X120777000Y-30353000D01*
X121976250Y-30353000D01*
X122135000Y-30194250D01*
X122138072Y-29630000D01*
X122125812Y-29505518D01*
X122089502Y-29385820D01*
X122030537Y-29275506D01*
X121997295Y-29235000D01*
X147780345Y-29235000D01*
X147643368Y-29326525D01*
M02*
