M48
; DRILL file {KiCad (5.1.5)-3} date 01/03/2020 15:46:30
; FORMAT={-:-/ absolute / metric / decimal}
; #@! TF.CreationDate,2020-03-01T15:46:30+00:00
; #@! TF.GenerationSoftware,Kicad,Pcbnew,(5.1.5)-3
FMAT,2
METRIC
T1C1.000
%
G90
G05
T1
X148.59Y-30.48
X148.59Y-33.02
X148.59Y-35.56
X148.59Y-38.1
X148.59Y-40.64
X148.59Y-43.18
X148.59Y-45.72
X148.59Y-48.26
X148.59Y-50.8
X148.59Y-53.34
X148.59Y-55.88
X148.59Y-58.42
X148.59Y-60.96
X148.59Y-63.5
X148.59Y-66.04
X148.59Y-68.58
X148.59Y-71.12
X148.59Y-73.66
X148.59Y-76.2
X148.59Y-78.74
X148.59Y-81.28
X148.59Y-83.82
X148.59Y-86.36
X148.59Y-88.9
X148.59Y-91.44
X151.13Y-30.48
X151.13Y-33.02
X151.13Y-35.56
X151.13Y-38.1
X151.13Y-40.64
X151.13Y-43.18
X151.13Y-45.72
X151.13Y-48.26
X151.13Y-50.8
X151.13Y-53.34
X151.13Y-55.88
X151.13Y-58.42
X151.13Y-60.96
X151.13Y-63.5
X151.13Y-66.04
X151.13Y-68.58
X151.13Y-71.12
X151.13Y-73.66
X151.13Y-76.2
X151.13Y-78.74
X151.13Y-81.28
X151.13Y-83.82
X151.13Y-86.36
X151.13Y-88.9
X151.13Y-91.44
X118.11Y-30.48
X118.11Y-33.02
X118.11Y-35.56
X118.11Y-38.1
X118.11Y-40.64
X118.11Y-43.18
X118.11Y-45.72
X118.11Y-48.26
X118.11Y-50.8
X118.11Y-53.34
X118.11Y-55.88
X118.11Y-58.42
X118.11Y-60.96
X118.11Y-63.5
X118.11Y-66.04
X118.11Y-68.58
X118.11Y-71.12
X118.11Y-73.66
X118.11Y-76.2
X118.11Y-78.74
X118.11Y-81.28
X118.11Y-83.82
X118.11Y-86.36
X118.11Y-88.9
X118.11Y-91.44
X120.65Y-30.48
X120.65Y-33.02
X120.65Y-35.56
X120.65Y-38.1
X120.65Y-40.64
X120.65Y-43.18
X120.65Y-45.72
X120.65Y-48.26
X120.65Y-50.8
X120.65Y-53.34
X120.65Y-55.88
X120.65Y-58.42
X120.65Y-60.96
X120.65Y-63.5
X120.65Y-66.04
X120.65Y-68.58
X120.65Y-71.12
X120.65Y-73.66
X120.65Y-76.2
X120.65Y-78.74
X120.65Y-81.28
X120.65Y-83.82
X120.65Y-86.36
X120.65Y-88.9
X120.65Y-91.44
T0
M30
