M48
; DRILL file {KiCad (5.1.5)-3} date 01/11/2020 11:49:06
; FORMAT={-:-/ absolute / metric / decimal}
; #@! TF.CreationDate,2020-11-01T11:49:06+00:00
; #@! TF.GenerationSoftware,Kicad,Pcbnew,(5.1.5)-3
FMAT,2
METRIC
T1C0.400
T2C0.800
T3C1.000
T4C1.800
T5C2.600
T6C2.600
%
G90
G05
T1
X96.886Y-94.016
X99.77Y-64.275
X101.966Y-88.301
X102.27Y-64.275
X102.601Y-92.746
X104.77Y-64.275
X107.046Y-88.301
X112.126Y-69.886
X112.126Y-78.141
X113.396Y-91.476
X115.53Y-77.13
X115.53Y-83.71
X116.77Y-83.71
X116.8Y-77.13
X118.07Y-77.13
X118.07Y-83.71
X119.34Y-77.13
X119.34Y-83.71
X121.29Y-77.15
X121.29Y-83.71
X121.651Y-66.711
X123.175Y-74.185
X123.175Y-83.71
X123.81Y-73.005
X124.445Y-74.185
X124.445Y-83.71
X124.465Y-64.68
X125.08Y-72.37
X125.715Y-83.71
X125.735Y-64.68
X125.735Y-74.205
X126.2Y-71.885
X126.985Y-64.66
X126.985Y-83.71
X127.73Y-71.641
X128.255Y-64.66
X128.355Y-74.185
X128.382Y-83.729
X128.492Y-79.555
X128.695Y-70.57
X129.525Y-64.66
X130.16Y-83.71
X130.16Y-83.71
X130.173Y-77.982
X130.795Y-64.66
X131.43Y-83.71
X131.54Y-72.28
X132.065Y-64.66
X132.165Y-74.185
X132.7Y-83.71
X133.97Y-83.71
X134.625Y-69.612
X135.875Y-77.36
X135.875Y-83.71
X137.145Y-77.36
X137.145Y-83.71
X138.415Y-77.36
X138.415Y-83.71
X139.685Y-77.36
X139.685Y-83.71
X142.86Y-74.185
X142.86Y-83.71
X144.13Y-74.185
X144.13Y-83.71
X145.4Y-74.185
X145.4Y-83.71
X145.77Y-64.275
X146.67Y-74.185
X146.67Y-83.71
X147.796Y-79.555
X147.94Y-74.185
X147.94Y-83.729
X149.21Y-74.185
X149.21Y-83.71
X150.48Y-74.185
X150.48Y-83.71
X151.75Y-74.185
X151.75Y-83.71
X151.77Y-64.275
X153.02Y-74.185
X153.02Y-83.71
X154.29Y-68.47
X157.0Y-78.63
X157.0Y-83.71
X159.54Y-78.63
X159.54Y-83.71
X162.08Y-78.63
X162.08Y-83.71
X173.086Y-88.301
X173.086Y-92.111
T2
X115.005Y-89.764
X115.005Y-93.564
X116.275Y-87.864
X116.275Y-91.664
X117.545Y-89.764
X117.545Y-93.564
X118.815Y-87.864
X118.815Y-91.664
X120.085Y-89.764
X120.085Y-93.564
X121.355Y-87.864
X121.355Y-91.664
X122.625Y-89.764
X122.625Y-93.564
X123.895Y-87.864
X123.895Y-91.664
X125.165Y-89.764
X125.165Y-93.564
X126.435Y-87.864
X126.435Y-91.664
X127.705Y-89.764
X127.705Y-93.564
X128.975Y-87.864
X128.975Y-91.664
X130.245Y-89.764
X130.245Y-93.564
X131.515Y-87.864
X131.515Y-91.664
X132.785Y-89.764
X132.785Y-93.564
X134.055Y-87.864
X134.055Y-91.664
X135.325Y-89.764
X135.325Y-93.564
X136.595Y-87.864
X136.595Y-91.664
X137.865Y-89.764
X137.865Y-93.564
X139.135Y-87.864
X139.135Y-91.664
X140.405Y-89.764
X140.405Y-93.564
X141.675Y-87.864
X141.675Y-91.664
X142.945Y-89.764
X142.945Y-93.564
X144.215Y-87.864
X144.215Y-91.664
X145.485Y-89.764
X145.485Y-93.564
X146.755Y-87.864
X146.755Y-91.664
X148.025Y-89.764
X148.025Y-93.564
X149.295Y-87.864
X149.295Y-91.664
X150.565Y-89.764
X150.565Y-93.564
X151.835Y-87.864
X151.835Y-91.664
X153.105Y-89.764
X153.105Y-93.564
X154.375Y-87.864
X154.375Y-91.664
X155.645Y-89.764
X155.645Y-93.564
X156.915Y-87.864
X156.915Y-91.664
X158.185Y-89.764
X158.185Y-93.564
X159.455Y-87.864
X159.455Y-91.664
X160.725Y-89.764
X160.725Y-93.564
X161.995Y-87.864
X161.995Y-91.664
X163.265Y-89.764
X163.265Y-93.564
X164.535Y-87.864
X164.535Y-91.664
T3
X96.61Y-59.775
X96.61Y-62.315
X99.15Y-59.775
X99.15Y-62.315
X101.69Y-59.775
X101.69Y-62.315
X104.23Y-59.775
X104.23Y-62.315
X106.77Y-59.775
X106.77Y-62.315
X109.31Y-59.775
X109.31Y-62.315
X111.85Y-59.775
X111.85Y-62.315
X114.39Y-59.775
X114.39Y-62.315
X116.93Y-59.775
X116.93Y-62.315
X119.47Y-59.775
X119.47Y-62.315
X122.01Y-59.775
X122.01Y-62.315
X124.55Y-59.775
X124.55Y-62.315
X127.09Y-59.775
X127.09Y-62.315
X129.63Y-59.775
X129.63Y-62.315
X132.17Y-59.775
X132.17Y-62.315
X134.71Y-59.775
X134.71Y-62.315
X137.25Y-59.775
X137.25Y-62.315
X139.79Y-59.775
X139.79Y-62.315
X142.33Y-59.775
X142.33Y-62.315
X144.87Y-59.775
X144.87Y-62.315
X147.41Y-59.775
X147.41Y-62.315
X149.95Y-59.775
X149.95Y-62.315
X152.49Y-59.775
X152.49Y-62.315
X155.03Y-59.775
X155.03Y-62.315
X157.57Y-59.775
X157.57Y-62.315
X178.166Y-74.331
X178.166Y-76.871
X178.166Y-79.411
X178.166Y-81.951
X178.166Y-84.491
X178.166Y-87.031
X178.166Y-89.571
X178.166Y-92.111
X180.706Y-74.331
X180.706Y-76.871
X180.706Y-79.411
X180.706Y-81.951
X180.706Y-84.491
X180.706Y-87.031
X180.706Y-89.571
X180.706Y-92.111
T4
X100.37Y-75.355
X100.37Y-80.435
X100.37Y-85.515
X100.37Y-90.595
T5
X110.015Y-90.775
X169.525Y-90.775
T6
X112.715Y-88.575
T0
M30
