G04 #@! TF.GenerationSoftware,KiCad,Pcbnew,(5.1.5)-3*
G04 #@! TF.CreationDate,2020-11-01T11:49:08+00:00*
G04 #@! TF.ProjectId,SCSIConnectorA,53435349-436f-46e6-9e65-63746f72412e,rev?*
G04 #@! TF.SameCoordinates,Original*
G04 #@! TF.FileFunction,Soldermask,Bot*
G04 #@! TF.FilePolarity,Negative*
%FSLAX46Y46*%
G04 Gerber Fmt 4.6, Leading zero omitted, Abs format (unit mm)*
G04 Created by KiCad (PCBNEW (5.1.5)-3) date 2020-11-01 11:49:08*
%MOMM*%
%LPD*%
G04 APERTURE LIST*
%ADD10C,0.100000*%
G04 APERTURE END LIST*
D10*
G36*
X117734890Y-92938017D02*
G01*
X117853364Y-92987091D01*
X117959988Y-93058335D01*
X118050665Y-93149012D01*
X118121909Y-93255636D01*
X118170983Y-93374110D01*
X118196000Y-93499882D01*
X118196000Y-93628118D01*
X118170983Y-93753890D01*
X118121909Y-93872364D01*
X118050665Y-93978988D01*
X117959988Y-94069665D01*
X117853364Y-94140909D01*
X117853363Y-94140910D01*
X117853362Y-94140910D01*
X117734890Y-94189983D01*
X117609119Y-94215000D01*
X117480881Y-94215000D01*
X117355110Y-94189983D01*
X117236638Y-94140910D01*
X117236637Y-94140910D01*
X117236636Y-94140909D01*
X117130012Y-94069665D01*
X117039335Y-93978988D01*
X116968091Y-93872364D01*
X116919017Y-93753890D01*
X116894000Y-93628118D01*
X116894000Y-93499882D01*
X116919017Y-93374110D01*
X116968091Y-93255636D01*
X117039335Y-93149012D01*
X117130012Y-93058335D01*
X117236636Y-92987091D01*
X117355110Y-92938017D01*
X117480881Y-92913000D01*
X117609119Y-92913000D01*
X117734890Y-92938017D01*
G37*
G36*
X143134890Y-92938017D02*
G01*
X143253364Y-92987091D01*
X143359988Y-93058335D01*
X143450665Y-93149012D01*
X143521909Y-93255636D01*
X143570983Y-93374110D01*
X143596000Y-93499882D01*
X143596000Y-93628118D01*
X143570983Y-93753890D01*
X143521909Y-93872364D01*
X143450665Y-93978988D01*
X143359988Y-94069665D01*
X143253364Y-94140909D01*
X143253363Y-94140910D01*
X143253362Y-94140910D01*
X143134890Y-94189983D01*
X143009119Y-94215000D01*
X142880881Y-94215000D01*
X142755110Y-94189983D01*
X142636638Y-94140910D01*
X142636637Y-94140910D01*
X142636636Y-94140909D01*
X142530012Y-94069665D01*
X142439335Y-93978988D01*
X142368091Y-93872364D01*
X142319017Y-93753890D01*
X142294000Y-93628118D01*
X142294000Y-93499882D01*
X142319017Y-93374110D01*
X142368091Y-93255636D01*
X142439335Y-93149012D01*
X142530012Y-93058335D01*
X142636636Y-92987091D01*
X142755110Y-92938017D01*
X142880881Y-92913000D01*
X143009119Y-92913000D01*
X143134890Y-92938017D01*
G37*
G36*
X115656000Y-94215000D02*
G01*
X114354000Y-94215000D01*
X114354000Y-92913000D01*
X115656000Y-92913000D01*
X115656000Y-94215000D01*
G37*
G36*
X163454890Y-92938017D02*
G01*
X163573364Y-92987091D01*
X163679988Y-93058335D01*
X163770665Y-93149012D01*
X163841909Y-93255636D01*
X163890983Y-93374110D01*
X163916000Y-93499882D01*
X163916000Y-93628118D01*
X163890983Y-93753890D01*
X163841909Y-93872364D01*
X163770665Y-93978988D01*
X163679988Y-94069665D01*
X163573364Y-94140909D01*
X163573363Y-94140910D01*
X163573362Y-94140910D01*
X163454890Y-94189983D01*
X163329119Y-94215000D01*
X163200881Y-94215000D01*
X163075110Y-94189983D01*
X162956638Y-94140910D01*
X162956637Y-94140910D01*
X162956636Y-94140909D01*
X162850012Y-94069665D01*
X162759335Y-93978988D01*
X162688091Y-93872364D01*
X162639017Y-93753890D01*
X162614000Y-93628118D01*
X162614000Y-93499882D01*
X162639017Y-93374110D01*
X162688091Y-93255636D01*
X162759335Y-93149012D01*
X162850012Y-93058335D01*
X162956636Y-92987091D01*
X163075110Y-92938017D01*
X163200881Y-92913000D01*
X163329119Y-92913000D01*
X163454890Y-92938017D01*
G37*
G36*
X158374890Y-92938017D02*
G01*
X158493364Y-92987091D01*
X158599988Y-93058335D01*
X158690665Y-93149012D01*
X158761909Y-93255636D01*
X158810983Y-93374110D01*
X158836000Y-93499882D01*
X158836000Y-93628118D01*
X158810983Y-93753890D01*
X158761909Y-93872364D01*
X158690665Y-93978988D01*
X158599988Y-94069665D01*
X158493364Y-94140909D01*
X158493363Y-94140910D01*
X158493362Y-94140910D01*
X158374890Y-94189983D01*
X158249119Y-94215000D01*
X158120881Y-94215000D01*
X157995110Y-94189983D01*
X157876638Y-94140910D01*
X157876637Y-94140910D01*
X157876636Y-94140909D01*
X157770012Y-94069665D01*
X157679335Y-93978988D01*
X157608091Y-93872364D01*
X157559017Y-93753890D01*
X157534000Y-93628118D01*
X157534000Y-93499882D01*
X157559017Y-93374110D01*
X157608091Y-93255636D01*
X157679335Y-93149012D01*
X157770012Y-93058335D01*
X157876636Y-92987091D01*
X157995110Y-92938017D01*
X158120881Y-92913000D01*
X158249119Y-92913000D01*
X158374890Y-92938017D01*
G37*
G36*
X155834890Y-92938017D02*
G01*
X155953364Y-92987091D01*
X156059988Y-93058335D01*
X156150665Y-93149012D01*
X156221909Y-93255636D01*
X156270983Y-93374110D01*
X156296000Y-93499882D01*
X156296000Y-93628118D01*
X156270983Y-93753890D01*
X156221909Y-93872364D01*
X156150665Y-93978988D01*
X156059988Y-94069665D01*
X155953364Y-94140909D01*
X155953363Y-94140910D01*
X155953362Y-94140910D01*
X155834890Y-94189983D01*
X155709119Y-94215000D01*
X155580881Y-94215000D01*
X155455110Y-94189983D01*
X155336638Y-94140910D01*
X155336637Y-94140910D01*
X155336636Y-94140909D01*
X155230012Y-94069665D01*
X155139335Y-93978988D01*
X155068091Y-93872364D01*
X155019017Y-93753890D01*
X154994000Y-93628118D01*
X154994000Y-93499882D01*
X155019017Y-93374110D01*
X155068091Y-93255636D01*
X155139335Y-93149012D01*
X155230012Y-93058335D01*
X155336636Y-92987091D01*
X155455110Y-92938017D01*
X155580881Y-92913000D01*
X155709119Y-92913000D01*
X155834890Y-92938017D01*
G37*
G36*
X153294890Y-92938017D02*
G01*
X153413364Y-92987091D01*
X153519988Y-93058335D01*
X153610665Y-93149012D01*
X153681909Y-93255636D01*
X153730983Y-93374110D01*
X153756000Y-93499882D01*
X153756000Y-93628118D01*
X153730983Y-93753890D01*
X153681909Y-93872364D01*
X153610665Y-93978988D01*
X153519988Y-94069665D01*
X153413364Y-94140909D01*
X153413363Y-94140910D01*
X153413362Y-94140910D01*
X153294890Y-94189983D01*
X153169119Y-94215000D01*
X153040881Y-94215000D01*
X152915110Y-94189983D01*
X152796638Y-94140910D01*
X152796637Y-94140910D01*
X152796636Y-94140909D01*
X152690012Y-94069665D01*
X152599335Y-93978988D01*
X152528091Y-93872364D01*
X152479017Y-93753890D01*
X152454000Y-93628118D01*
X152454000Y-93499882D01*
X152479017Y-93374110D01*
X152528091Y-93255636D01*
X152599335Y-93149012D01*
X152690012Y-93058335D01*
X152796636Y-92987091D01*
X152915110Y-92938017D01*
X153040881Y-92913000D01*
X153169119Y-92913000D01*
X153294890Y-92938017D01*
G37*
G36*
X150754890Y-92938017D02*
G01*
X150873364Y-92987091D01*
X150979988Y-93058335D01*
X151070665Y-93149012D01*
X151141909Y-93255636D01*
X151190983Y-93374110D01*
X151216000Y-93499882D01*
X151216000Y-93628118D01*
X151190983Y-93753890D01*
X151141909Y-93872364D01*
X151070665Y-93978988D01*
X150979988Y-94069665D01*
X150873364Y-94140909D01*
X150873363Y-94140910D01*
X150873362Y-94140910D01*
X150754890Y-94189983D01*
X150629119Y-94215000D01*
X150500881Y-94215000D01*
X150375110Y-94189983D01*
X150256638Y-94140910D01*
X150256637Y-94140910D01*
X150256636Y-94140909D01*
X150150012Y-94069665D01*
X150059335Y-93978988D01*
X149988091Y-93872364D01*
X149939017Y-93753890D01*
X149914000Y-93628118D01*
X149914000Y-93499882D01*
X149939017Y-93374110D01*
X149988091Y-93255636D01*
X150059335Y-93149012D01*
X150150012Y-93058335D01*
X150256636Y-92987091D01*
X150375110Y-92938017D01*
X150500881Y-92913000D01*
X150629119Y-92913000D01*
X150754890Y-92938017D01*
G37*
G36*
X148214890Y-92938017D02*
G01*
X148333364Y-92987091D01*
X148439988Y-93058335D01*
X148530665Y-93149012D01*
X148601909Y-93255636D01*
X148650983Y-93374110D01*
X148676000Y-93499882D01*
X148676000Y-93628118D01*
X148650983Y-93753890D01*
X148601909Y-93872364D01*
X148530665Y-93978988D01*
X148439988Y-94069665D01*
X148333364Y-94140909D01*
X148333363Y-94140910D01*
X148333362Y-94140910D01*
X148214890Y-94189983D01*
X148089119Y-94215000D01*
X147960881Y-94215000D01*
X147835110Y-94189983D01*
X147716638Y-94140910D01*
X147716637Y-94140910D01*
X147716636Y-94140909D01*
X147610012Y-94069665D01*
X147519335Y-93978988D01*
X147448091Y-93872364D01*
X147399017Y-93753890D01*
X147374000Y-93628118D01*
X147374000Y-93499882D01*
X147399017Y-93374110D01*
X147448091Y-93255636D01*
X147519335Y-93149012D01*
X147610012Y-93058335D01*
X147716636Y-92987091D01*
X147835110Y-92938017D01*
X147960881Y-92913000D01*
X148089119Y-92913000D01*
X148214890Y-92938017D01*
G37*
G36*
X145674890Y-92938017D02*
G01*
X145793364Y-92987091D01*
X145899988Y-93058335D01*
X145990665Y-93149012D01*
X146061909Y-93255636D01*
X146110983Y-93374110D01*
X146136000Y-93499882D01*
X146136000Y-93628118D01*
X146110983Y-93753890D01*
X146061909Y-93872364D01*
X145990665Y-93978988D01*
X145899988Y-94069665D01*
X145793364Y-94140909D01*
X145793363Y-94140910D01*
X145793362Y-94140910D01*
X145674890Y-94189983D01*
X145549119Y-94215000D01*
X145420881Y-94215000D01*
X145295110Y-94189983D01*
X145176638Y-94140910D01*
X145176637Y-94140910D01*
X145176636Y-94140909D01*
X145070012Y-94069665D01*
X144979335Y-93978988D01*
X144908091Y-93872364D01*
X144859017Y-93753890D01*
X144834000Y-93628118D01*
X144834000Y-93499882D01*
X144859017Y-93374110D01*
X144908091Y-93255636D01*
X144979335Y-93149012D01*
X145070012Y-93058335D01*
X145176636Y-92987091D01*
X145295110Y-92938017D01*
X145420881Y-92913000D01*
X145549119Y-92913000D01*
X145674890Y-92938017D01*
G37*
G36*
X160914890Y-92938017D02*
G01*
X161033364Y-92987091D01*
X161139988Y-93058335D01*
X161230665Y-93149012D01*
X161301909Y-93255636D01*
X161350983Y-93374110D01*
X161376000Y-93499882D01*
X161376000Y-93628118D01*
X161350983Y-93753890D01*
X161301909Y-93872364D01*
X161230665Y-93978988D01*
X161139988Y-94069665D01*
X161033364Y-94140909D01*
X161033363Y-94140910D01*
X161033362Y-94140910D01*
X160914890Y-94189983D01*
X160789119Y-94215000D01*
X160660881Y-94215000D01*
X160535110Y-94189983D01*
X160416638Y-94140910D01*
X160416637Y-94140910D01*
X160416636Y-94140909D01*
X160310012Y-94069665D01*
X160219335Y-93978988D01*
X160148091Y-93872364D01*
X160099017Y-93753890D01*
X160074000Y-93628118D01*
X160074000Y-93499882D01*
X160099017Y-93374110D01*
X160148091Y-93255636D01*
X160219335Y-93149012D01*
X160310012Y-93058335D01*
X160416636Y-92987091D01*
X160535110Y-92938017D01*
X160660881Y-92913000D01*
X160789119Y-92913000D01*
X160914890Y-92938017D01*
G37*
G36*
X138054890Y-92938017D02*
G01*
X138173364Y-92987091D01*
X138279988Y-93058335D01*
X138370665Y-93149012D01*
X138441909Y-93255636D01*
X138490983Y-93374110D01*
X138516000Y-93499882D01*
X138516000Y-93628118D01*
X138490983Y-93753890D01*
X138441909Y-93872364D01*
X138370665Y-93978988D01*
X138279988Y-94069665D01*
X138173364Y-94140909D01*
X138173363Y-94140910D01*
X138173362Y-94140910D01*
X138054890Y-94189983D01*
X137929119Y-94215000D01*
X137800881Y-94215000D01*
X137675110Y-94189983D01*
X137556638Y-94140910D01*
X137556637Y-94140910D01*
X137556636Y-94140909D01*
X137450012Y-94069665D01*
X137359335Y-93978988D01*
X137288091Y-93872364D01*
X137239017Y-93753890D01*
X137214000Y-93628118D01*
X137214000Y-93499882D01*
X137239017Y-93374110D01*
X137288091Y-93255636D01*
X137359335Y-93149012D01*
X137450012Y-93058335D01*
X137556636Y-92987091D01*
X137675110Y-92938017D01*
X137800881Y-92913000D01*
X137929119Y-92913000D01*
X138054890Y-92938017D01*
G37*
G36*
X140594890Y-92938017D02*
G01*
X140713364Y-92987091D01*
X140819988Y-93058335D01*
X140910665Y-93149012D01*
X140981909Y-93255636D01*
X141030983Y-93374110D01*
X141056000Y-93499882D01*
X141056000Y-93628118D01*
X141030983Y-93753890D01*
X140981909Y-93872364D01*
X140910665Y-93978988D01*
X140819988Y-94069665D01*
X140713364Y-94140909D01*
X140713363Y-94140910D01*
X140713362Y-94140910D01*
X140594890Y-94189983D01*
X140469119Y-94215000D01*
X140340881Y-94215000D01*
X140215110Y-94189983D01*
X140096638Y-94140910D01*
X140096637Y-94140910D01*
X140096636Y-94140909D01*
X139990012Y-94069665D01*
X139899335Y-93978988D01*
X139828091Y-93872364D01*
X139779017Y-93753890D01*
X139754000Y-93628118D01*
X139754000Y-93499882D01*
X139779017Y-93374110D01*
X139828091Y-93255636D01*
X139899335Y-93149012D01*
X139990012Y-93058335D01*
X140096636Y-92987091D01*
X140215110Y-92938017D01*
X140340881Y-92913000D01*
X140469119Y-92913000D01*
X140594890Y-92938017D01*
G37*
G36*
X120274890Y-92938017D02*
G01*
X120393364Y-92987091D01*
X120499988Y-93058335D01*
X120590665Y-93149012D01*
X120661909Y-93255636D01*
X120710983Y-93374110D01*
X120736000Y-93499882D01*
X120736000Y-93628118D01*
X120710983Y-93753890D01*
X120661909Y-93872364D01*
X120590665Y-93978988D01*
X120499988Y-94069665D01*
X120393364Y-94140909D01*
X120393363Y-94140910D01*
X120393362Y-94140910D01*
X120274890Y-94189983D01*
X120149119Y-94215000D01*
X120020881Y-94215000D01*
X119895110Y-94189983D01*
X119776638Y-94140910D01*
X119776637Y-94140910D01*
X119776636Y-94140909D01*
X119670012Y-94069665D01*
X119579335Y-93978988D01*
X119508091Y-93872364D01*
X119459017Y-93753890D01*
X119434000Y-93628118D01*
X119434000Y-93499882D01*
X119459017Y-93374110D01*
X119508091Y-93255636D01*
X119579335Y-93149012D01*
X119670012Y-93058335D01*
X119776636Y-92987091D01*
X119895110Y-92938017D01*
X120020881Y-92913000D01*
X120149119Y-92913000D01*
X120274890Y-92938017D01*
G37*
G36*
X122814890Y-92938017D02*
G01*
X122933364Y-92987091D01*
X123039988Y-93058335D01*
X123130665Y-93149012D01*
X123201909Y-93255636D01*
X123250983Y-93374110D01*
X123276000Y-93499882D01*
X123276000Y-93628118D01*
X123250983Y-93753890D01*
X123201909Y-93872364D01*
X123130665Y-93978988D01*
X123039988Y-94069665D01*
X122933364Y-94140909D01*
X122933363Y-94140910D01*
X122933362Y-94140910D01*
X122814890Y-94189983D01*
X122689119Y-94215000D01*
X122560881Y-94215000D01*
X122435110Y-94189983D01*
X122316638Y-94140910D01*
X122316637Y-94140910D01*
X122316636Y-94140909D01*
X122210012Y-94069665D01*
X122119335Y-93978988D01*
X122048091Y-93872364D01*
X121999017Y-93753890D01*
X121974000Y-93628118D01*
X121974000Y-93499882D01*
X121999017Y-93374110D01*
X122048091Y-93255636D01*
X122119335Y-93149012D01*
X122210012Y-93058335D01*
X122316636Y-92987091D01*
X122435110Y-92938017D01*
X122560881Y-92913000D01*
X122689119Y-92913000D01*
X122814890Y-92938017D01*
G37*
G36*
X125354890Y-92938017D02*
G01*
X125473364Y-92987091D01*
X125579988Y-93058335D01*
X125670665Y-93149012D01*
X125741909Y-93255636D01*
X125790983Y-93374110D01*
X125816000Y-93499882D01*
X125816000Y-93628118D01*
X125790983Y-93753890D01*
X125741909Y-93872364D01*
X125670665Y-93978988D01*
X125579988Y-94069665D01*
X125473364Y-94140909D01*
X125473363Y-94140910D01*
X125473362Y-94140910D01*
X125354890Y-94189983D01*
X125229119Y-94215000D01*
X125100881Y-94215000D01*
X124975110Y-94189983D01*
X124856638Y-94140910D01*
X124856637Y-94140910D01*
X124856636Y-94140909D01*
X124750012Y-94069665D01*
X124659335Y-93978988D01*
X124588091Y-93872364D01*
X124539017Y-93753890D01*
X124514000Y-93628118D01*
X124514000Y-93499882D01*
X124539017Y-93374110D01*
X124588091Y-93255636D01*
X124659335Y-93149012D01*
X124750012Y-93058335D01*
X124856636Y-92987091D01*
X124975110Y-92938017D01*
X125100881Y-92913000D01*
X125229119Y-92913000D01*
X125354890Y-92938017D01*
G37*
G36*
X130434890Y-92938017D02*
G01*
X130553364Y-92987091D01*
X130659988Y-93058335D01*
X130750665Y-93149012D01*
X130821909Y-93255636D01*
X130870983Y-93374110D01*
X130896000Y-93499882D01*
X130896000Y-93628118D01*
X130870983Y-93753890D01*
X130821909Y-93872364D01*
X130750665Y-93978988D01*
X130659988Y-94069665D01*
X130553364Y-94140909D01*
X130553363Y-94140910D01*
X130553362Y-94140910D01*
X130434890Y-94189983D01*
X130309119Y-94215000D01*
X130180881Y-94215000D01*
X130055110Y-94189983D01*
X129936638Y-94140910D01*
X129936637Y-94140910D01*
X129936636Y-94140909D01*
X129830012Y-94069665D01*
X129739335Y-93978988D01*
X129668091Y-93872364D01*
X129619017Y-93753890D01*
X129594000Y-93628118D01*
X129594000Y-93499882D01*
X129619017Y-93374110D01*
X129668091Y-93255636D01*
X129739335Y-93149012D01*
X129830012Y-93058335D01*
X129936636Y-92987091D01*
X130055110Y-92938017D01*
X130180881Y-92913000D01*
X130309119Y-92913000D01*
X130434890Y-92938017D01*
G37*
G36*
X132974890Y-92938017D02*
G01*
X133093364Y-92987091D01*
X133199988Y-93058335D01*
X133290665Y-93149012D01*
X133361909Y-93255636D01*
X133410983Y-93374110D01*
X133436000Y-93499882D01*
X133436000Y-93628118D01*
X133410983Y-93753890D01*
X133361909Y-93872364D01*
X133290665Y-93978988D01*
X133199988Y-94069665D01*
X133093364Y-94140909D01*
X133093363Y-94140910D01*
X133093362Y-94140910D01*
X132974890Y-94189983D01*
X132849119Y-94215000D01*
X132720881Y-94215000D01*
X132595110Y-94189983D01*
X132476638Y-94140910D01*
X132476637Y-94140910D01*
X132476636Y-94140909D01*
X132370012Y-94069665D01*
X132279335Y-93978988D01*
X132208091Y-93872364D01*
X132159017Y-93753890D01*
X132134000Y-93628118D01*
X132134000Y-93499882D01*
X132159017Y-93374110D01*
X132208091Y-93255636D01*
X132279335Y-93149012D01*
X132370012Y-93058335D01*
X132476636Y-92987091D01*
X132595110Y-92938017D01*
X132720881Y-92913000D01*
X132849119Y-92913000D01*
X132974890Y-92938017D01*
G37*
G36*
X135514890Y-92938017D02*
G01*
X135633364Y-92987091D01*
X135739988Y-93058335D01*
X135830665Y-93149012D01*
X135901909Y-93255636D01*
X135950983Y-93374110D01*
X135976000Y-93499882D01*
X135976000Y-93628118D01*
X135950983Y-93753890D01*
X135901909Y-93872364D01*
X135830665Y-93978988D01*
X135739988Y-94069665D01*
X135633364Y-94140909D01*
X135633363Y-94140910D01*
X135633362Y-94140910D01*
X135514890Y-94189983D01*
X135389119Y-94215000D01*
X135260881Y-94215000D01*
X135135110Y-94189983D01*
X135016638Y-94140910D01*
X135016637Y-94140910D01*
X135016636Y-94140909D01*
X134910012Y-94069665D01*
X134819335Y-93978988D01*
X134748091Y-93872364D01*
X134699017Y-93753890D01*
X134674000Y-93628118D01*
X134674000Y-93499882D01*
X134699017Y-93374110D01*
X134748091Y-93255636D01*
X134819335Y-93149012D01*
X134910012Y-93058335D01*
X135016636Y-92987091D01*
X135135110Y-92938017D01*
X135260881Y-92913000D01*
X135389119Y-92913000D01*
X135514890Y-92938017D01*
G37*
G36*
X127894890Y-92938017D02*
G01*
X128013364Y-92987091D01*
X128119988Y-93058335D01*
X128210665Y-93149012D01*
X128281909Y-93255636D01*
X128330983Y-93374110D01*
X128356000Y-93499882D01*
X128356000Y-93628118D01*
X128330983Y-93753890D01*
X128281909Y-93872364D01*
X128210665Y-93978988D01*
X128119988Y-94069665D01*
X128013364Y-94140909D01*
X128013363Y-94140910D01*
X128013362Y-94140910D01*
X127894890Y-94189983D01*
X127769119Y-94215000D01*
X127640881Y-94215000D01*
X127515110Y-94189983D01*
X127396638Y-94140910D01*
X127396637Y-94140910D01*
X127396636Y-94140909D01*
X127290012Y-94069665D01*
X127199335Y-93978988D01*
X127128091Y-93872364D01*
X127079017Y-93753890D01*
X127054000Y-93628118D01*
X127054000Y-93499882D01*
X127079017Y-93374110D01*
X127128091Y-93255636D01*
X127199335Y-93149012D01*
X127290012Y-93058335D01*
X127396636Y-92987091D01*
X127515110Y-92938017D01*
X127640881Y-92913000D01*
X127769119Y-92913000D01*
X127894890Y-92938017D01*
G37*
G36*
X178279512Y-91214927D02*
G01*
X178428812Y-91244624D01*
X178592784Y-91312544D01*
X178740354Y-91411147D01*
X178865853Y-91536646D01*
X178964456Y-91684216D01*
X179032376Y-91848188D01*
X179067000Y-92022259D01*
X179067000Y-92199741D01*
X179032376Y-92373812D01*
X178964456Y-92537784D01*
X178865853Y-92685354D01*
X178740354Y-92810853D01*
X178592784Y-92909456D01*
X178428812Y-92977376D01*
X178279512Y-93007073D01*
X178254742Y-93012000D01*
X178077258Y-93012000D01*
X178052488Y-93007073D01*
X177903188Y-92977376D01*
X177739216Y-92909456D01*
X177591646Y-92810853D01*
X177466147Y-92685354D01*
X177367544Y-92537784D01*
X177299624Y-92373812D01*
X177265000Y-92199741D01*
X177265000Y-92022259D01*
X177299624Y-91848188D01*
X177367544Y-91684216D01*
X177466147Y-91536646D01*
X177591646Y-91411147D01*
X177739216Y-91312544D01*
X177903188Y-91244624D01*
X178052488Y-91214927D01*
X178077258Y-91210000D01*
X178254742Y-91210000D01*
X178279512Y-91214927D01*
G37*
G36*
X180819512Y-91214927D02*
G01*
X180968812Y-91244624D01*
X181132784Y-91312544D01*
X181280354Y-91411147D01*
X181405853Y-91536646D01*
X181504456Y-91684216D01*
X181572376Y-91848188D01*
X181607000Y-92022259D01*
X181607000Y-92199741D01*
X181572376Y-92373812D01*
X181504456Y-92537784D01*
X181405853Y-92685354D01*
X181280354Y-92810853D01*
X181132784Y-92909456D01*
X180968812Y-92977376D01*
X180819512Y-93007073D01*
X180794742Y-93012000D01*
X180617258Y-93012000D01*
X180592488Y-93007073D01*
X180443188Y-92977376D01*
X180279216Y-92909456D01*
X180131646Y-92810853D01*
X180006147Y-92685354D01*
X179907544Y-92537784D01*
X179839624Y-92373812D01*
X179805000Y-92199741D01*
X179805000Y-92022259D01*
X179839624Y-91848188D01*
X179907544Y-91684216D01*
X180006147Y-91536646D01*
X180131646Y-91411147D01*
X180279216Y-91312544D01*
X180443188Y-91244624D01*
X180592488Y-91214927D01*
X180617258Y-91210000D01*
X180794742Y-91210000D01*
X180819512Y-91214927D01*
G37*
G36*
X134244890Y-91038017D02*
G01*
X134363364Y-91087091D01*
X134469988Y-91158335D01*
X134560665Y-91249012D01*
X134598737Y-91305990D01*
X134631910Y-91355638D01*
X134680983Y-91474110D01*
X134696443Y-91551832D01*
X134706000Y-91599882D01*
X134706000Y-91728118D01*
X134680983Y-91853890D01*
X134631909Y-91972364D01*
X134560665Y-92078988D01*
X134469988Y-92169665D01*
X134363364Y-92240909D01*
X134363363Y-92240910D01*
X134363362Y-92240910D01*
X134244890Y-92289983D01*
X134119119Y-92315000D01*
X133990881Y-92315000D01*
X133865110Y-92289983D01*
X133746638Y-92240910D01*
X133746637Y-92240910D01*
X133746636Y-92240909D01*
X133640012Y-92169665D01*
X133549335Y-92078988D01*
X133478091Y-91972364D01*
X133429017Y-91853890D01*
X133404000Y-91728118D01*
X133404000Y-91599882D01*
X133413558Y-91551832D01*
X133429017Y-91474110D01*
X133478090Y-91355638D01*
X133511264Y-91305990D01*
X133549335Y-91249012D01*
X133640012Y-91158335D01*
X133746636Y-91087091D01*
X133865110Y-91038017D01*
X133990881Y-91013000D01*
X134119119Y-91013000D01*
X134244890Y-91038017D01*
G37*
G36*
X116464890Y-91038017D02*
G01*
X116583364Y-91087091D01*
X116689988Y-91158335D01*
X116780665Y-91249012D01*
X116818737Y-91305990D01*
X116851910Y-91355638D01*
X116900983Y-91474110D01*
X116916443Y-91551832D01*
X116926000Y-91599882D01*
X116926000Y-91728118D01*
X116900983Y-91853890D01*
X116851909Y-91972364D01*
X116780665Y-92078988D01*
X116689988Y-92169665D01*
X116583364Y-92240909D01*
X116583363Y-92240910D01*
X116583362Y-92240910D01*
X116464890Y-92289983D01*
X116339119Y-92315000D01*
X116210881Y-92315000D01*
X116085110Y-92289983D01*
X115966638Y-92240910D01*
X115966637Y-92240910D01*
X115966636Y-92240909D01*
X115860012Y-92169665D01*
X115769335Y-92078988D01*
X115698091Y-91972364D01*
X115649017Y-91853890D01*
X115624000Y-91728118D01*
X115624000Y-91599882D01*
X115633558Y-91551832D01*
X115649017Y-91474110D01*
X115698090Y-91355638D01*
X115731264Y-91305990D01*
X115769335Y-91249012D01*
X115860012Y-91158335D01*
X115966636Y-91087091D01*
X116085110Y-91038017D01*
X116210881Y-91013000D01*
X116339119Y-91013000D01*
X116464890Y-91038017D01*
G37*
G36*
X119004890Y-91038017D02*
G01*
X119123364Y-91087091D01*
X119229988Y-91158335D01*
X119320665Y-91249012D01*
X119358737Y-91305990D01*
X119391910Y-91355638D01*
X119440983Y-91474110D01*
X119456443Y-91551832D01*
X119466000Y-91599882D01*
X119466000Y-91728118D01*
X119440983Y-91853890D01*
X119391909Y-91972364D01*
X119320665Y-92078988D01*
X119229988Y-92169665D01*
X119123364Y-92240909D01*
X119123363Y-92240910D01*
X119123362Y-92240910D01*
X119004890Y-92289983D01*
X118879119Y-92315000D01*
X118750881Y-92315000D01*
X118625110Y-92289983D01*
X118506638Y-92240910D01*
X118506637Y-92240910D01*
X118506636Y-92240909D01*
X118400012Y-92169665D01*
X118309335Y-92078988D01*
X118238091Y-91972364D01*
X118189017Y-91853890D01*
X118164000Y-91728118D01*
X118164000Y-91599882D01*
X118173558Y-91551832D01*
X118189017Y-91474110D01*
X118238090Y-91355638D01*
X118271264Y-91305990D01*
X118309335Y-91249012D01*
X118400012Y-91158335D01*
X118506636Y-91087091D01*
X118625110Y-91038017D01*
X118750881Y-91013000D01*
X118879119Y-91013000D01*
X119004890Y-91038017D01*
G37*
G36*
X121544890Y-91038017D02*
G01*
X121663364Y-91087091D01*
X121769988Y-91158335D01*
X121860665Y-91249012D01*
X121898737Y-91305990D01*
X121931910Y-91355638D01*
X121980983Y-91474110D01*
X121996443Y-91551832D01*
X122006000Y-91599882D01*
X122006000Y-91728118D01*
X121980983Y-91853890D01*
X121931909Y-91972364D01*
X121860665Y-92078988D01*
X121769988Y-92169665D01*
X121663364Y-92240909D01*
X121663363Y-92240910D01*
X121663362Y-92240910D01*
X121544890Y-92289983D01*
X121419119Y-92315000D01*
X121290881Y-92315000D01*
X121165110Y-92289983D01*
X121046638Y-92240910D01*
X121046637Y-92240910D01*
X121046636Y-92240909D01*
X120940012Y-92169665D01*
X120849335Y-92078988D01*
X120778091Y-91972364D01*
X120729017Y-91853890D01*
X120704000Y-91728118D01*
X120704000Y-91599882D01*
X120713558Y-91551832D01*
X120729017Y-91474110D01*
X120778090Y-91355638D01*
X120811264Y-91305990D01*
X120849335Y-91249012D01*
X120940012Y-91158335D01*
X121046636Y-91087091D01*
X121165110Y-91038017D01*
X121290881Y-91013000D01*
X121419119Y-91013000D01*
X121544890Y-91038017D01*
G37*
G36*
X164724890Y-91038017D02*
G01*
X164843364Y-91087091D01*
X164949988Y-91158335D01*
X165040665Y-91249012D01*
X165078737Y-91305990D01*
X165111910Y-91355638D01*
X165160983Y-91474110D01*
X165176443Y-91551832D01*
X165186000Y-91599882D01*
X165186000Y-91728118D01*
X165160983Y-91853890D01*
X165111909Y-91972364D01*
X165040665Y-92078988D01*
X164949988Y-92169665D01*
X164843364Y-92240909D01*
X164843363Y-92240910D01*
X164843362Y-92240910D01*
X164724890Y-92289983D01*
X164599119Y-92315000D01*
X164470881Y-92315000D01*
X164345110Y-92289983D01*
X164226638Y-92240910D01*
X164226637Y-92240910D01*
X164226636Y-92240909D01*
X164120012Y-92169665D01*
X164029335Y-92078988D01*
X163958091Y-91972364D01*
X163909017Y-91853890D01*
X163884000Y-91728118D01*
X163884000Y-91599882D01*
X163893558Y-91551832D01*
X163909017Y-91474110D01*
X163958090Y-91355638D01*
X163991264Y-91305990D01*
X164029335Y-91249012D01*
X164120012Y-91158335D01*
X164226636Y-91087091D01*
X164345110Y-91038017D01*
X164470881Y-91013000D01*
X164599119Y-91013000D01*
X164724890Y-91038017D01*
G37*
G36*
X124084890Y-91038017D02*
G01*
X124203364Y-91087091D01*
X124309988Y-91158335D01*
X124400665Y-91249012D01*
X124438737Y-91305990D01*
X124471910Y-91355638D01*
X124520983Y-91474110D01*
X124536443Y-91551832D01*
X124546000Y-91599882D01*
X124546000Y-91728118D01*
X124520983Y-91853890D01*
X124471909Y-91972364D01*
X124400665Y-92078988D01*
X124309988Y-92169665D01*
X124203364Y-92240909D01*
X124203363Y-92240910D01*
X124203362Y-92240910D01*
X124084890Y-92289983D01*
X123959119Y-92315000D01*
X123830881Y-92315000D01*
X123705110Y-92289983D01*
X123586638Y-92240910D01*
X123586637Y-92240910D01*
X123586636Y-92240909D01*
X123480012Y-92169665D01*
X123389335Y-92078988D01*
X123318091Y-91972364D01*
X123269017Y-91853890D01*
X123244000Y-91728118D01*
X123244000Y-91599882D01*
X123253558Y-91551832D01*
X123269017Y-91474110D01*
X123318090Y-91355638D01*
X123351264Y-91305990D01*
X123389335Y-91249012D01*
X123480012Y-91158335D01*
X123586636Y-91087091D01*
X123705110Y-91038017D01*
X123830881Y-91013000D01*
X123959119Y-91013000D01*
X124084890Y-91038017D01*
G37*
G36*
X162184890Y-91038017D02*
G01*
X162303364Y-91087091D01*
X162409988Y-91158335D01*
X162500665Y-91249012D01*
X162538737Y-91305990D01*
X162571910Y-91355638D01*
X162620983Y-91474110D01*
X162636443Y-91551832D01*
X162646000Y-91599882D01*
X162646000Y-91728118D01*
X162620983Y-91853890D01*
X162571909Y-91972364D01*
X162500665Y-92078988D01*
X162409988Y-92169665D01*
X162303364Y-92240909D01*
X162303363Y-92240910D01*
X162303362Y-92240910D01*
X162184890Y-92289983D01*
X162059119Y-92315000D01*
X161930881Y-92315000D01*
X161805110Y-92289983D01*
X161686638Y-92240910D01*
X161686637Y-92240910D01*
X161686636Y-92240909D01*
X161580012Y-92169665D01*
X161489335Y-92078988D01*
X161418091Y-91972364D01*
X161369017Y-91853890D01*
X161344000Y-91728118D01*
X161344000Y-91599882D01*
X161353558Y-91551832D01*
X161369017Y-91474110D01*
X161418090Y-91355638D01*
X161451264Y-91305990D01*
X161489335Y-91249012D01*
X161580012Y-91158335D01*
X161686636Y-91087091D01*
X161805110Y-91038017D01*
X161930881Y-91013000D01*
X162059119Y-91013000D01*
X162184890Y-91038017D01*
G37*
G36*
X126624890Y-91038017D02*
G01*
X126743364Y-91087091D01*
X126849988Y-91158335D01*
X126940665Y-91249012D01*
X126978737Y-91305990D01*
X127011910Y-91355638D01*
X127060983Y-91474110D01*
X127076443Y-91551832D01*
X127086000Y-91599882D01*
X127086000Y-91728118D01*
X127060983Y-91853890D01*
X127011909Y-91972364D01*
X126940665Y-92078988D01*
X126849988Y-92169665D01*
X126743364Y-92240909D01*
X126743363Y-92240910D01*
X126743362Y-92240910D01*
X126624890Y-92289983D01*
X126499119Y-92315000D01*
X126370881Y-92315000D01*
X126245110Y-92289983D01*
X126126638Y-92240910D01*
X126126637Y-92240910D01*
X126126636Y-92240909D01*
X126020012Y-92169665D01*
X125929335Y-92078988D01*
X125858091Y-91972364D01*
X125809017Y-91853890D01*
X125784000Y-91728118D01*
X125784000Y-91599882D01*
X125793558Y-91551832D01*
X125809017Y-91474110D01*
X125858090Y-91355638D01*
X125891264Y-91305990D01*
X125929335Y-91249012D01*
X126020012Y-91158335D01*
X126126636Y-91087091D01*
X126245110Y-91038017D01*
X126370881Y-91013000D01*
X126499119Y-91013000D01*
X126624890Y-91038017D01*
G37*
G36*
X159644890Y-91038017D02*
G01*
X159763364Y-91087091D01*
X159869988Y-91158335D01*
X159960665Y-91249012D01*
X159998737Y-91305990D01*
X160031910Y-91355638D01*
X160080983Y-91474110D01*
X160096443Y-91551832D01*
X160106000Y-91599882D01*
X160106000Y-91728118D01*
X160080983Y-91853890D01*
X160031909Y-91972364D01*
X159960665Y-92078988D01*
X159869988Y-92169665D01*
X159763364Y-92240909D01*
X159763363Y-92240910D01*
X159763362Y-92240910D01*
X159644890Y-92289983D01*
X159519119Y-92315000D01*
X159390881Y-92315000D01*
X159265110Y-92289983D01*
X159146638Y-92240910D01*
X159146637Y-92240910D01*
X159146636Y-92240909D01*
X159040012Y-92169665D01*
X158949335Y-92078988D01*
X158878091Y-91972364D01*
X158829017Y-91853890D01*
X158804000Y-91728118D01*
X158804000Y-91599882D01*
X158813558Y-91551832D01*
X158829017Y-91474110D01*
X158878090Y-91355638D01*
X158911264Y-91305990D01*
X158949335Y-91249012D01*
X159040012Y-91158335D01*
X159146636Y-91087091D01*
X159265110Y-91038017D01*
X159390881Y-91013000D01*
X159519119Y-91013000D01*
X159644890Y-91038017D01*
G37*
G36*
X129164890Y-91038017D02*
G01*
X129283364Y-91087091D01*
X129389988Y-91158335D01*
X129480665Y-91249012D01*
X129518737Y-91305990D01*
X129551910Y-91355638D01*
X129600983Y-91474110D01*
X129616443Y-91551832D01*
X129626000Y-91599882D01*
X129626000Y-91728118D01*
X129600983Y-91853890D01*
X129551909Y-91972364D01*
X129480665Y-92078988D01*
X129389988Y-92169665D01*
X129283364Y-92240909D01*
X129283363Y-92240910D01*
X129283362Y-92240910D01*
X129164890Y-92289983D01*
X129039119Y-92315000D01*
X128910881Y-92315000D01*
X128785110Y-92289983D01*
X128666638Y-92240910D01*
X128666637Y-92240910D01*
X128666636Y-92240909D01*
X128560012Y-92169665D01*
X128469335Y-92078988D01*
X128398091Y-91972364D01*
X128349017Y-91853890D01*
X128324000Y-91728118D01*
X128324000Y-91599882D01*
X128333558Y-91551832D01*
X128349017Y-91474110D01*
X128398090Y-91355638D01*
X128431264Y-91305990D01*
X128469335Y-91249012D01*
X128560012Y-91158335D01*
X128666636Y-91087091D01*
X128785110Y-91038017D01*
X128910881Y-91013000D01*
X129039119Y-91013000D01*
X129164890Y-91038017D01*
G37*
G36*
X131704890Y-91038017D02*
G01*
X131823364Y-91087091D01*
X131929988Y-91158335D01*
X132020665Y-91249012D01*
X132058737Y-91305990D01*
X132091910Y-91355638D01*
X132140983Y-91474110D01*
X132156443Y-91551832D01*
X132166000Y-91599882D01*
X132166000Y-91728118D01*
X132140983Y-91853890D01*
X132091909Y-91972364D01*
X132020665Y-92078988D01*
X131929988Y-92169665D01*
X131823364Y-92240909D01*
X131823363Y-92240910D01*
X131823362Y-92240910D01*
X131704890Y-92289983D01*
X131579119Y-92315000D01*
X131450881Y-92315000D01*
X131325110Y-92289983D01*
X131206638Y-92240910D01*
X131206637Y-92240910D01*
X131206636Y-92240909D01*
X131100012Y-92169665D01*
X131009335Y-92078988D01*
X130938091Y-91972364D01*
X130889017Y-91853890D01*
X130864000Y-91728118D01*
X130864000Y-91599882D01*
X130873558Y-91551832D01*
X130889017Y-91474110D01*
X130938090Y-91355638D01*
X130971264Y-91305990D01*
X131009335Y-91249012D01*
X131100012Y-91158335D01*
X131206636Y-91087091D01*
X131325110Y-91038017D01*
X131450881Y-91013000D01*
X131579119Y-91013000D01*
X131704890Y-91038017D01*
G37*
G36*
X154564890Y-91038017D02*
G01*
X154683364Y-91087091D01*
X154789988Y-91158335D01*
X154880665Y-91249012D01*
X154918737Y-91305990D01*
X154951910Y-91355638D01*
X155000983Y-91474110D01*
X155016443Y-91551832D01*
X155026000Y-91599882D01*
X155026000Y-91728118D01*
X155000983Y-91853890D01*
X154951909Y-91972364D01*
X154880665Y-92078988D01*
X154789988Y-92169665D01*
X154683364Y-92240909D01*
X154683363Y-92240910D01*
X154683362Y-92240910D01*
X154564890Y-92289983D01*
X154439119Y-92315000D01*
X154310881Y-92315000D01*
X154185110Y-92289983D01*
X154066638Y-92240910D01*
X154066637Y-92240910D01*
X154066636Y-92240909D01*
X153960012Y-92169665D01*
X153869335Y-92078988D01*
X153798091Y-91972364D01*
X153749017Y-91853890D01*
X153724000Y-91728118D01*
X153724000Y-91599882D01*
X153733558Y-91551832D01*
X153749017Y-91474110D01*
X153798090Y-91355638D01*
X153831264Y-91305990D01*
X153869335Y-91249012D01*
X153960012Y-91158335D01*
X154066636Y-91087091D01*
X154185110Y-91038017D01*
X154310881Y-91013000D01*
X154439119Y-91013000D01*
X154564890Y-91038017D01*
G37*
G36*
X152024890Y-91038017D02*
G01*
X152143364Y-91087091D01*
X152249988Y-91158335D01*
X152340665Y-91249012D01*
X152378737Y-91305990D01*
X152411910Y-91355638D01*
X152460983Y-91474110D01*
X152476443Y-91551832D01*
X152486000Y-91599882D01*
X152486000Y-91728118D01*
X152460983Y-91853890D01*
X152411909Y-91972364D01*
X152340665Y-92078988D01*
X152249988Y-92169665D01*
X152143364Y-92240909D01*
X152143363Y-92240910D01*
X152143362Y-92240910D01*
X152024890Y-92289983D01*
X151899119Y-92315000D01*
X151770881Y-92315000D01*
X151645110Y-92289983D01*
X151526638Y-92240910D01*
X151526637Y-92240910D01*
X151526636Y-92240909D01*
X151420012Y-92169665D01*
X151329335Y-92078988D01*
X151258091Y-91972364D01*
X151209017Y-91853890D01*
X151184000Y-91728118D01*
X151184000Y-91599882D01*
X151193558Y-91551832D01*
X151209017Y-91474110D01*
X151258090Y-91355638D01*
X151291264Y-91305990D01*
X151329335Y-91249012D01*
X151420012Y-91158335D01*
X151526636Y-91087091D01*
X151645110Y-91038017D01*
X151770881Y-91013000D01*
X151899119Y-91013000D01*
X152024890Y-91038017D01*
G37*
G36*
X136784890Y-91038017D02*
G01*
X136903364Y-91087091D01*
X137009988Y-91158335D01*
X137100665Y-91249012D01*
X137138737Y-91305990D01*
X137171910Y-91355638D01*
X137220983Y-91474110D01*
X137236443Y-91551832D01*
X137246000Y-91599882D01*
X137246000Y-91728118D01*
X137220983Y-91853890D01*
X137171909Y-91972364D01*
X137100665Y-92078988D01*
X137009988Y-92169665D01*
X136903364Y-92240909D01*
X136903363Y-92240910D01*
X136903362Y-92240910D01*
X136784890Y-92289983D01*
X136659119Y-92315000D01*
X136530881Y-92315000D01*
X136405110Y-92289983D01*
X136286638Y-92240910D01*
X136286637Y-92240910D01*
X136286636Y-92240909D01*
X136180012Y-92169665D01*
X136089335Y-92078988D01*
X136018091Y-91972364D01*
X135969017Y-91853890D01*
X135944000Y-91728118D01*
X135944000Y-91599882D01*
X135953558Y-91551832D01*
X135969017Y-91474110D01*
X136018090Y-91355638D01*
X136051264Y-91305990D01*
X136089335Y-91249012D01*
X136180012Y-91158335D01*
X136286636Y-91087091D01*
X136405110Y-91038017D01*
X136530881Y-91013000D01*
X136659119Y-91013000D01*
X136784890Y-91038017D01*
G37*
G36*
X149484890Y-91038017D02*
G01*
X149603364Y-91087091D01*
X149709988Y-91158335D01*
X149800665Y-91249012D01*
X149838737Y-91305990D01*
X149871910Y-91355638D01*
X149920983Y-91474110D01*
X149936443Y-91551832D01*
X149946000Y-91599882D01*
X149946000Y-91728118D01*
X149920983Y-91853890D01*
X149871909Y-91972364D01*
X149800665Y-92078988D01*
X149709988Y-92169665D01*
X149603364Y-92240909D01*
X149603363Y-92240910D01*
X149603362Y-92240910D01*
X149484890Y-92289983D01*
X149359119Y-92315000D01*
X149230881Y-92315000D01*
X149105110Y-92289983D01*
X148986638Y-92240910D01*
X148986637Y-92240910D01*
X148986636Y-92240909D01*
X148880012Y-92169665D01*
X148789335Y-92078988D01*
X148718091Y-91972364D01*
X148669017Y-91853890D01*
X148644000Y-91728118D01*
X148644000Y-91599882D01*
X148653558Y-91551832D01*
X148669017Y-91474110D01*
X148718090Y-91355638D01*
X148751264Y-91305990D01*
X148789335Y-91249012D01*
X148880012Y-91158335D01*
X148986636Y-91087091D01*
X149105110Y-91038017D01*
X149230881Y-91013000D01*
X149359119Y-91013000D01*
X149484890Y-91038017D01*
G37*
G36*
X139324890Y-91038017D02*
G01*
X139443364Y-91087091D01*
X139549988Y-91158335D01*
X139640665Y-91249012D01*
X139678737Y-91305990D01*
X139711910Y-91355638D01*
X139760983Y-91474110D01*
X139776443Y-91551832D01*
X139786000Y-91599882D01*
X139786000Y-91728118D01*
X139760983Y-91853890D01*
X139711909Y-91972364D01*
X139640665Y-92078988D01*
X139549988Y-92169665D01*
X139443364Y-92240909D01*
X139443363Y-92240910D01*
X139443362Y-92240910D01*
X139324890Y-92289983D01*
X139199119Y-92315000D01*
X139070881Y-92315000D01*
X138945110Y-92289983D01*
X138826638Y-92240910D01*
X138826637Y-92240910D01*
X138826636Y-92240909D01*
X138720012Y-92169665D01*
X138629335Y-92078988D01*
X138558091Y-91972364D01*
X138509017Y-91853890D01*
X138484000Y-91728118D01*
X138484000Y-91599882D01*
X138493558Y-91551832D01*
X138509017Y-91474110D01*
X138558090Y-91355638D01*
X138591264Y-91305990D01*
X138629335Y-91249012D01*
X138720012Y-91158335D01*
X138826636Y-91087091D01*
X138945110Y-91038017D01*
X139070881Y-91013000D01*
X139199119Y-91013000D01*
X139324890Y-91038017D01*
G37*
G36*
X146944890Y-91038017D02*
G01*
X147063364Y-91087091D01*
X147169988Y-91158335D01*
X147260665Y-91249012D01*
X147298737Y-91305990D01*
X147331910Y-91355638D01*
X147380983Y-91474110D01*
X147396443Y-91551832D01*
X147406000Y-91599882D01*
X147406000Y-91728118D01*
X147380983Y-91853890D01*
X147331909Y-91972364D01*
X147260665Y-92078988D01*
X147169988Y-92169665D01*
X147063364Y-92240909D01*
X147063363Y-92240910D01*
X147063362Y-92240910D01*
X146944890Y-92289983D01*
X146819119Y-92315000D01*
X146690881Y-92315000D01*
X146565110Y-92289983D01*
X146446638Y-92240910D01*
X146446637Y-92240910D01*
X146446636Y-92240909D01*
X146340012Y-92169665D01*
X146249335Y-92078988D01*
X146178091Y-91972364D01*
X146129017Y-91853890D01*
X146104000Y-91728118D01*
X146104000Y-91599882D01*
X146113558Y-91551832D01*
X146129017Y-91474110D01*
X146178090Y-91355638D01*
X146211264Y-91305990D01*
X146249335Y-91249012D01*
X146340012Y-91158335D01*
X146446636Y-91087091D01*
X146565110Y-91038017D01*
X146690881Y-91013000D01*
X146819119Y-91013000D01*
X146944890Y-91038017D01*
G37*
G36*
X144404890Y-91038017D02*
G01*
X144523364Y-91087091D01*
X144629988Y-91158335D01*
X144720665Y-91249012D01*
X144758737Y-91305990D01*
X144791910Y-91355638D01*
X144840983Y-91474110D01*
X144856443Y-91551832D01*
X144866000Y-91599882D01*
X144866000Y-91728118D01*
X144840983Y-91853890D01*
X144791909Y-91972364D01*
X144720665Y-92078988D01*
X144629988Y-92169665D01*
X144523364Y-92240909D01*
X144523363Y-92240910D01*
X144523362Y-92240910D01*
X144404890Y-92289983D01*
X144279119Y-92315000D01*
X144150881Y-92315000D01*
X144025110Y-92289983D01*
X143906638Y-92240910D01*
X143906637Y-92240910D01*
X143906636Y-92240909D01*
X143800012Y-92169665D01*
X143709335Y-92078988D01*
X143638091Y-91972364D01*
X143589017Y-91853890D01*
X143564000Y-91728118D01*
X143564000Y-91599882D01*
X143573558Y-91551832D01*
X143589017Y-91474110D01*
X143638090Y-91355638D01*
X143671264Y-91305990D01*
X143709335Y-91249012D01*
X143800012Y-91158335D01*
X143906636Y-91087091D01*
X144025110Y-91038017D01*
X144150881Y-91013000D01*
X144279119Y-91013000D01*
X144404890Y-91038017D01*
G37*
G36*
X141864890Y-91038017D02*
G01*
X141983364Y-91087091D01*
X142089988Y-91158335D01*
X142180665Y-91249012D01*
X142218737Y-91305990D01*
X142251910Y-91355638D01*
X142300983Y-91474110D01*
X142316443Y-91551832D01*
X142326000Y-91599882D01*
X142326000Y-91728118D01*
X142300983Y-91853890D01*
X142251909Y-91972364D01*
X142180665Y-92078988D01*
X142089988Y-92169665D01*
X141983364Y-92240909D01*
X141983363Y-92240910D01*
X141983362Y-92240910D01*
X141864890Y-92289983D01*
X141739119Y-92315000D01*
X141610881Y-92315000D01*
X141485110Y-92289983D01*
X141366638Y-92240910D01*
X141366637Y-92240910D01*
X141366636Y-92240909D01*
X141260012Y-92169665D01*
X141169335Y-92078988D01*
X141098091Y-91972364D01*
X141049017Y-91853890D01*
X141024000Y-91728118D01*
X141024000Y-91599882D01*
X141033558Y-91551832D01*
X141049017Y-91474110D01*
X141098090Y-91355638D01*
X141131264Y-91305990D01*
X141169335Y-91249012D01*
X141260012Y-91158335D01*
X141366636Y-91087091D01*
X141485110Y-91038017D01*
X141610881Y-91013000D01*
X141739119Y-91013000D01*
X141864890Y-91038017D01*
G37*
G36*
X157104890Y-91038017D02*
G01*
X157223364Y-91087091D01*
X157329988Y-91158335D01*
X157420665Y-91249012D01*
X157458737Y-91305990D01*
X157491910Y-91355638D01*
X157540983Y-91474110D01*
X157556443Y-91551832D01*
X157566000Y-91599882D01*
X157566000Y-91728118D01*
X157540983Y-91853890D01*
X157491909Y-91972364D01*
X157420665Y-92078988D01*
X157329988Y-92169665D01*
X157223364Y-92240909D01*
X157223363Y-92240910D01*
X157223362Y-92240910D01*
X157104890Y-92289983D01*
X156979119Y-92315000D01*
X156850881Y-92315000D01*
X156725110Y-92289983D01*
X156606638Y-92240910D01*
X156606637Y-92240910D01*
X156606636Y-92240909D01*
X156500012Y-92169665D01*
X156409335Y-92078988D01*
X156338091Y-91972364D01*
X156289017Y-91853890D01*
X156264000Y-91728118D01*
X156264000Y-91599882D01*
X156273558Y-91551832D01*
X156289017Y-91474110D01*
X156338090Y-91355638D01*
X156371264Y-91305990D01*
X156409335Y-91249012D01*
X156500012Y-91158335D01*
X156606636Y-91087091D01*
X156725110Y-91038017D01*
X156850881Y-91013000D01*
X156979119Y-91013000D01*
X157104890Y-91038017D01*
G37*
G36*
X110438241Y-89379760D02*
G01*
X110702305Y-89489139D01*
X110939958Y-89647934D01*
X111142066Y-89850042D01*
X111300861Y-90087695D01*
X111410240Y-90351759D01*
X111466000Y-90632088D01*
X111466000Y-90917912D01*
X111410240Y-91198241D01*
X111300861Y-91462305D01*
X111142066Y-91699958D01*
X110939958Y-91902066D01*
X110702305Y-92060861D01*
X110438241Y-92170240D01*
X110157912Y-92226000D01*
X109872088Y-92226000D01*
X109591759Y-92170240D01*
X109327695Y-92060861D01*
X109090042Y-91902066D01*
X108887934Y-91699958D01*
X108729139Y-91462305D01*
X108619760Y-91198241D01*
X108564000Y-90917912D01*
X108564000Y-90632088D01*
X108619760Y-90351759D01*
X108729139Y-90087695D01*
X108887934Y-89850042D01*
X109090042Y-89647934D01*
X109327695Y-89489139D01*
X109591759Y-89379760D01*
X109872088Y-89324000D01*
X110157912Y-89324000D01*
X110438241Y-89379760D01*
G37*
G36*
X169948241Y-89379760D02*
G01*
X170212305Y-89489139D01*
X170449958Y-89647934D01*
X170652066Y-89850042D01*
X170810861Y-90087695D01*
X170920240Y-90351759D01*
X170976000Y-90632088D01*
X170976000Y-90917912D01*
X170920240Y-91198241D01*
X170810861Y-91462305D01*
X170652066Y-91699958D01*
X170449958Y-91902066D01*
X170212305Y-92060861D01*
X169948241Y-92170240D01*
X169667912Y-92226000D01*
X169382088Y-92226000D01*
X169101759Y-92170240D01*
X168837695Y-92060861D01*
X168600042Y-91902066D01*
X168397934Y-91699958D01*
X168239139Y-91462305D01*
X168129760Y-91198241D01*
X168074000Y-90917912D01*
X168074000Y-90632088D01*
X168129760Y-90351759D01*
X168239139Y-90087695D01*
X168397934Y-89850042D01*
X168600042Y-89647934D01*
X168837695Y-89489139D01*
X169101759Y-89379760D01*
X169382088Y-89324000D01*
X169667912Y-89324000D01*
X169948241Y-89379760D01*
G37*
G36*
X100662831Y-89122841D02*
G01*
X100807826Y-89151682D01*
X100893308Y-89187090D01*
X101080989Y-89264830D01*
X101145880Y-89308189D01*
X101326832Y-89429097D01*
X101535903Y-89638168D01*
X101550318Y-89659742D01*
X101700170Y-89884011D01*
X101747295Y-89997782D01*
X101813318Y-90157174D01*
X101871000Y-90447164D01*
X101871000Y-90742836D01*
X101813318Y-91032826D01*
X101766450Y-91145974D01*
X101700170Y-91305989D01*
X101629905Y-91411148D01*
X101535903Y-91551832D01*
X101326832Y-91760903D01*
X101203076Y-91843594D01*
X101080989Y-91925170D01*
X100967057Y-91972362D01*
X100807826Y-92038318D01*
X100662831Y-92067159D01*
X100517837Y-92096000D01*
X100222163Y-92096000D01*
X100077169Y-92067159D01*
X99932174Y-92038318D01*
X99772943Y-91972362D01*
X99659011Y-91925170D01*
X99536924Y-91843594D01*
X99413168Y-91760903D01*
X99204097Y-91551832D01*
X99110095Y-91411148D01*
X99039830Y-91305989D01*
X98973550Y-91145974D01*
X98926682Y-91032826D01*
X98869000Y-90742836D01*
X98869000Y-90447164D01*
X98926682Y-90157174D01*
X98992705Y-89997782D01*
X99039830Y-89884011D01*
X99189682Y-89659742D01*
X99204097Y-89638168D01*
X99413168Y-89429097D01*
X99594120Y-89308189D01*
X99659011Y-89264830D01*
X99846692Y-89187090D01*
X99932174Y-89151682D01*
X100077169Y-89122841D01*
X100222163Y-89094000D01*
X100517837Y-89094000D01*
X100662831Y-89122841D01*
G37*
G36*
X178279512Y-88674927D02*
G01*
X178428812Y-88704624D01*
X178592784Y-88772544D01*
X178740354Y-88871147D01*
X178865853Y-88996646D01*
X178964456Y-89144216D01*
X179032376Y-89308188D01*
X179067000Y-89482259D01*
X179067000Y-89659741D01*
X179032376Y-89833812D01*
X178964456Y-89997784D01*
X178865853Y-90145354D01*
X178740354Y-90270853D01*
X178592784Y-90369456D01*
X178428812Y-90437376D01*
X178279512Y-90467073D01*
X178254742Y-90472000D01*
X178077258Y-90472000D01*
X178052488Y-90467073D01*
X177903188Y-90437376D01*
X177739216Y-90369456D01*
X177591646Y-90270853D01*
X177466147Y-90145354D01*
X177367544Y-89997784D01*
X177299624Y-89833812D01*
X177265000Y-89659741D01*
X177265000Y-89482259D01*
X177299624Y-89308188D01*
X177367544Y-89144216D01*
X177466147Y-88996646D01*
X177591646Y-88871147D01*
X177739216Y-88772544D01*
X177903188Y-88704624D01*
X178052488Y-88674927D01*
X178077258Y-88670000D01*
X178254742Y-88670000D01*
X178279512Y-88674927D01*
G37*
G36*
X180819512Y-88674927D02*
G01*
X180968812Y-88704624D01*
X181132784Y-88772544D01*
X181280354Y-88871147D01*
X181405853Y-88996646D01*
X181504456Y-89144216D01*
X181572376Y-89308188D01*
X181607000Y-89482259D01*
X181607000Y-89659741D01*
X181572376Y-89833812D01*
X181504456Y-89997784D01*
X181405853Y-90145354D01*
X181280354Y-90270853D01*
X181132784Y-90369456D01*
X180968812Y-90437376D01*
X180819512Y-90467073D01*
X180794742Y-90472000D01*
X180617258Y-90472000D01*
X180592488Y-90467073D01*
X180443188Y-90437376D01*
X180279216Y-90369456D01*
X180131646Y-90270853D01*
X180006147Y-90145354D01*
X179907544Y-89997784D01*
X179839624Y-89833812D01*
X179805000Y-89659741D01*
X179805000Y-89482259D01*
X179839624Y-89308188D01*
X179907544Y-89144216D01*
X180006147Y-88996646D01*
X180131646Y-88871147D01*
X180279216Y-88772544D01*
X180443188Y-88704624D01*
X180592488Y-88674927D01*
X180617258Y-88670000D01*
X180794742Y-88670000D01*
X180819512Y-88674927D01*
G37*
G36*
X148214890Y-89138017D02*
G01*
X148333364Y-89187091D01*
X148439988Y-89258335D01*
X148530665Y-89349012D01*
X148588930Y-89436211D01*
X148601910Y-89455638D01*
X148650983Y-89574110D01*
X148676000Y-89699881D01*
X148676000Y-89828119D01*
X148656531Y-89926000D01*
X148650983Y-89953890D01*
X148601909Y-90072364D01*
X148530665Y-90178988D01*
X148439988Y-90269665D01*
X148333364Y-90340909D01*
X148333363Y-90340910D01*
X148333362Y-90340910D01*
X148214890Y-90389983D01*
X148089119Y-90415000D01*
X147960881Y-90415000D01*
X147835110Y-90389983D01*
X147716638Y-90340910D01*
X147716637Y-90340910D01*
X147716636Y-90340909D01*
X147610012Y-90269665D01*
X147519335Y-90178988D01*
X147448091Y-90072364D01*
X147399017Y-89953890D01*
X147393469Y-89926000D01*
X147374000Y-89828119D01*
X147374000Y-89699881D01*
X147399017Y-89574110D01*
X147448090Y-89455638D01*
X147461071Y-89436211D01*
X147519335Y-89349012D01*
X147610012Y-89258335D01*
X147716636Y-89187091D01*
X147835110Y-89138017D01*
X147960881Y-89113000D01*
X148089119Y-89113000D01*
X148214890Y-89138017D01*
G37*
G36*
X160914890Y-89138017D02*
G01*
X161033364Y-89187091D01*
X161139988Y-89258335D01*
X161230665Y-89349012D01*
X161288930Y-89436211D01*
X161301910Y-89455638D01*
X161350983Y-89574110D01*
X161376000Y-89699881D01*
X161376000Y-89828119D01*
X161356531Y-89926000D01*
X161350983Y-89953890D01*
X161301909Y-90072364D01*
X161230665Y-90178988D01*
X161139988Y-90269665D01*
X161033364Y-90340909D01*
X161033363Y-90340910D01*
X161033362Y-90340910D01*
X160914890Y-90389983D01*
X160789119Y-90415000D01*
X160660881Y-90415000D01*
X160535110Y-90389983D01*
X160416638Y-90340910D01*
X160416637Y-90340910D01*
X160416636Y-90340909D01*
X160310012Y-90269665D01*
X160219335Y-90178988D01*
X160148091Y-90072364D01*
X160099017Y-89953890D01*
X160093469Y-89926000D01*
X160074000Y-89828119D01*
X160074000Y-89699881D01*
X160099017Y-89574110D01*
X160148090Y-89455638D01*
X160161071Y-89436211D01*
X160219335Y-89349012D01*
X160310012Y-89258335D01*
X160416636Y-89187091D01*
X160535110Y-89138017D01*
X160660881Y-89113000D01*
X160789119Y-89113000D01*
X160914890Y-89138017D01*
G37*
G36*
X158374890Y-89138017D02*
G01*
X158493364Y-89187091D01*
X158599988Y-89258335D01*
X158690665Y-89349012D01*
X158748930Y-89436211D01*
X158761910Y-89455638D01*
X158810983Y-89574110D01*
X158836000Y-89699881D01*
X158836000Y-89828119D01*
X158816531Y-89926000D01*
X158810983Y-89953890D01*
X158761909Y-90072364D01*
X158690665Y-90178988D01*
X158599988Y-90269665D01*
X158493364Y-90340909D01*
X158493363Y-90340910D01*
X158493362Y-90340910D01*
X158374890Y-90389983D01*
X158249119Y-90415000D01*
X158120881Y-90415000D01*
X157995110Y-90389983D01*
X157876638Y-90340910D01*
X157876637Y-90340910D01*
X157876636Y-90340909D01*
X157770012Y-90269665D01*
X157679335Y-90178988D01*
X157608091Y-90072364D01*
X157559017Y-89953890D01*
X157553469Y-89926000D01*
X157534000Y-89828119D01*
X157534000Y-89699881D01*
X157559017Y-89574110D01*
X157608090Y-89455638D01*
X157621071Y-89436211D01*
X157679335Y-89349012D01*
X157770012Y-89258335D01*
X157876636Y-89187091D01*
X157995110Y-89138017D01*
X158120881Y-89113000D01*
X158249119Y-89113000D01*
X158374890Y-89138017D01*
G37*
G36*
X155834890Y-89138017D02*
G01*
X155953364Y-89187091D01*
X156059988Y-89258335D01*
X156150665Y-89349012D01*
X156208930Y-89436211D01*
X156221910Y-89455638D01*
X156270983Y-89574110D01*
X156296000Y-89699881D01*
X156296000Y-89828119D01*
X156276531Y-89926000D01*
X156270983Y-89953890D01*
X156221909Y-90072364D01*
X156150665Y-90178988D01*
X156059988Y-90269665D01*
X155953364Y-90340909D01*
X155953363Y-90340910D01*
X155953362Y-90340910D01*
X155834890Y-90389983D01*
X155709119Y-90415000D01*
X155580881Y-90415000D01*
X155455110Y-90389983D01*
X155336638Y-90340910D01*
X155336637Y-90340910D01*
X155336636Y-90340909D01*
X155230012Y-90269665D01*
X155139335Y-90178988D01*
X155068091Y-90072364D01*
X155019017Y-89953890D01*
X155013469Y-89926000D01*
X154994000Y-89828119D01*
X154994000Y-89699881D01*
X155019017Y-89574110D01*
X155068090Y-89455638D01*
X155081071Y-89436211D01*
X155139335Y-89349012D01*
X155230012Y-89258335D01*
X155336636Y-89187091D01*
X155455110Y-89138017D01*
X155580881Y-89113000D01*
X155709119Y-89113000D01*
X155834890Y-89138017D01*
G37*
G36*
X153294890Y-89138017D02*
G01*
X153413364Y-89187091D01*
X153519988Y-89258335D01*
X153610665Y-89349012D01*
X153668930Y-89436211D01*
X153681910Y-89455638D01*
X153730983Y-89574110D01*
X153756000Y-89699881D01*
X153756000Y-89828119D01*
X153736531Y-89926000D01*
X153730983Y-89953890D01*
X153681909Y-90072364D01*
X153610665Y-90178988D01*
X153519988Y-90269665D01*
X153413364Y-90340909D01*
X153413363Y-90340910D01*
X153413362Y-90340910D01*
X153294890Y-90389983D01*
X153169119Y-90415000D01*
X153040881Y-90415000D01*
X152915110Y-90389983D01*
X152796638Y-90340910D01*
X152796637Y-90340910D01*
X152796636Y-90340909D01*
X152690012Y-90269665D01*
X152599335Y-90178988D01*
X152528091Y-90072364D01*
X152479017Y-89953890D01*
X152473469Y-89926000D01*
X152454000Y-89828119D01*
X152454000Y-89699881D01*
X152479017Y-89574110D01*
X152528090Y-89455638D01*
X152541071Y-89436211D01*
X152599335Y-89349012D01*
X152690012Y-89258335D01*
X152796636Y-89187091D01*
X152915110Y-89138017D01*
X153040881Y-89113000D01*
X153169119Y-89113000D01*
X153294890Y-89138017D01*
G37*
G36*
X150754890Y-89138017D02*
G01*
X150873364Y-89187091D01*
X150979988Y-89258335D01*
X151070665Y-89349012D01*
X151128930Y-89436211D01*
X151141910Y-89455638D01*
X151190983Y-89574110D01*
X151216000Y-89699881D01*
X151216000Y-89828119D01*
X151196531Y-89926000D01*
X151190983Y-89953890D01*
X151141909Y-90072364D01*
X151070665Y-90178988D01*
X150979988Y-90269665D01*
X150873364Y-90340909D01*
X150873363Y-90340910D01*
X150873362Y-90340910D01*
X150754890Y-90389983D01*
X150629119Y-90415000D01*
X150500881Y-90415000D01*
X150375110Y-90389983D01*
X150256638Y-90340910D01*
X150256637Y-90340910D01*
X150256636Y-90340909D01*
X150150012Y-90269665D01*
X150059335Y-90178988D01*
X149988091Y-90072364D01*
X149939017Y-89953890D01*
X149933469Y-89926000D01*
X149914000Y-89828119D01*
X149914000Y-89699881D01*
X149939017Y-89574110D01*
X149988090Y-89455638D01*
X150001071Y-89436211D01*
X150059335Y-89349012D01*
X150150012Y-89258335D01*
X150256636Y-89187091D01*
X150375110Y-89138017D01*
X150500881Y-89113000D01*
X150629119Y-89113000D01*
X150754890Y-89138017D01*
G37*
G36*
X145674890Y-89138017D02*
G01*
X145793364Y-89187091D01*
X145899988Y-89258335D01*
X145990665Y-89349012D01*
X146048930Y-89436211D01*
X146061910Y-89455638D01*
X146110983Y-89574110D01*
X146136000Y-89699881D01*
X146136000Y-89828119D01*
X146116531Y-89926000D01*
X146110983Y-89953890D01*
X146061909Y-90072364D01*
X145990665Y-90178988D01*
X145899988Y-90269665D01*
X145793364Y-90340909D01*
X145793363Y-90340910D01*
X145793362Y-90340910D01*
X145674890Y-90389983D01*
X145549119Y-90415000D01*
X145420881Y-90415000D01*
X145295110Y-90389983D01*
X145176638Y-90340910D01*
X145176637Y-90340910D01*
X145176636Y-90340909D01*
X145070012Y-90269665D01*
X144979335Y-90178988D01*
X144908091Y-90072364D01*
X144859017Y-89953890D01*
X144853469Y-89926000D01*
X144834000Y-89828119D01*
X144834000Y-89699881D01*
X144859017Y-89574110D01*
X144908090Y-89455638D01*
X144921071Y-89436211D01*
X144979335Y-89349012D01*
X145070012Y-89258335D01*
X145176636Y-89187091D01*
X145295110Y-89138017D01*
X145420881Y-89113000D01*
X145549119Y-89113000D01*
X145674890Y-89138017D01*
G37*
G36*
X143134890Y-89138017D02*
G01*
X143253364Y-89187091D01*
X143359988Y-89258335D01*
X143450665Y-89349012D01*
X143508930Y-89436211D01*
X143521910Y-89455638D01*
X143570983Y-89574110D01*
X143596000Y-89699881D01*
X143596000Y-89828119D01*
X143576531Y-89926000D01*
X143570983Y-89953890D01*
X143521909Y-90072364D01*
X143450665Y-90178988D01*
X143359988Y-90269665D01*
X143253364Y-90340909D01*
X143253363Y-90340910D01*
X143253362Y-90340910D01*
X143134890Y-90389983D01*
X143009119Y-90415000D01*
X142880881Y-90415000D01*
X142755110Y-90389983D01*
X142636638Y-90340910D01*
X142636637Y-90340910D01*
X142636636Y-90340909D01*
X142530012Y-90269665D01*
X142439335Y-90178988D01*
X142368091Y-90072364D01*
X142319017Y-89953890D01*
X142313469Y-89926000D01*
X142294000Y-89828119D01*
X142294000Y-89699881D01*
X142319017Y-89574110D01*
X142368090Y-89455638D01*
X142381071Y-89436211D01*
X142439335Y-89349012D01*
X142530012Y-89258335D01*
X142636636Y-89187091D01*
X142755110Y-89138017D01*
X142880881Y-89113000D01*
X143009119Y-89113000D01*
X143134890Y-89138017D01*
G37*
G36*
X140594890Y-89138017D02*
G01*
X140713364Y-89187091D01*
X140819988Y-89258335D01*
X140910665Y-89349012D01*
X140968930Y-89436211D01*
X140981910Y-89455638D01*
X141030983Y-89574110D01*
X141056000Y-89699881D01*
X141056000Y-89828119D01*
X141036531Y-89926000D01*
X141030983Y-89953890D01*
X140981909Y-90072364D01*
X140910665Y-90178988D01*
X140819988Y-90269665D01*
X140713364Y-90340909D01*
X140713363Y-90340910D01*
X140713362Y-90340910D01*
X140594890Y-90389983D01*
X140469119Y-90415000D01*
X140340881Y-90415000D01*
X140215110Y-90389983D01*
X140096638Y-90340910D01*
X140096637Y-90340910D01*
X140096636Y-90340909D01*
X139990012Y-90269665D01*
X139899335Y-90178988D01*
X139828091Y-90072364D01*
X139779017Y-89953890D01*
X139773469Y-89926000D01*
X139754000Y-89828119D01*
X139754000Y-89699881D01*
X139779017Y-89574110D01*
X139828090Y-89455638D01*
X139841071Y-89436211D01*
X139899335Y-89349012D01*
X139990012Y-89258335D01*
X140096636Y-89187091D01*
X140215110Y-89138017D01*
X140340881Y-89113000D01*
X140469119Y-89113000D01*
X140594890Y-89138017D01*
G37*
G36*
X115194890Y-89138017D02*
G01*
X115313364Y-89187091D01*
X115419988Y-89258335D01*
X115510665Y-89349012D01*
X115568930Y-89436211D01*
X115581910Y-89455638D01*
X115630983Y-89574110D01*
X115656000Y-89699881D01*
X115656000Y-89828119D01*
X115636531Y-89926000D01*
X115630983Y-89953890D01*
X115581909Y-90072364D01*
X115510665Y-90178988D01*
X115419988Y-90269665D01*
X115313364Y-90340909D01*
X115313363Y-90340910D01*
X115313362Y-90340910D01*
X115194890Y-90389983D01*
X115069119Y-90415000D01*
X114940881Y-90415000D01*
X114815110Y-90389983D01*
X114696638Y-90340910D01*
X114696637Y-90340910D01*
X114696636Y-90340909D01*
X114590012Y-90269665D01*
X114499335Y-90178988D01*
X114428091Y-90072364D01*
X114379017Y-89953890D01*
X114373469Y-89926000D01*
X114354000Y-89828119D01*
X114354000Y-89699881D01*
X114379017Y-89574110D01*
X114428090Y-89455638D01*
X114441071Y-89436211D01*
X114499335Y-89349012D01*
X114590012Y-89258335D01*
X114696636Y-89187091D01*
X114815110Y-89138017D01*
X114940881Y-89113000D01*
X115069119Y-89113000D01*
X115194890Y-89138017D01*
G37*
G36*
X138054890Y-89138017D02*
G01*
X138173364Y-89187091D01*
X138279988Y-89258335D01*
X138370665Y-89349012D01*
X138428930Y-89436211D01*
X138441910Y-89455638D01*
X138490983Y-89574110D01*
X138516000Y-89699881D01*
X138516000Y-89828119D01*
X138496531Y-89926000D01*
X138490983Y-89953890D01*
X138441909Y-90072364D01*
X138370665Y-90178988D01*
X138279988Y-90269665D01*
X138173364Y-90340909D01*
X138173363Y-90340910D01*
X138173362Y-90340910D01*
X138054890Y-90389983D01*
X137929119Y-90415000D01*
X137800881Y-90415000D01*
X137675110Y-90389983D01*
X137556638Y-90340910D01*
X137556637Y-90340910D01*
X137556636Y-90340909D01*
X137450012Y-90269665D01*
X137359335Y-90178988D01*
X137288091Y-90072364D01*
X137239017Y-89953890D01*
X137233469Y-89926000D01*
X137214000Y-89828119D01*
X137214000Y-89699881D01*
X137239017Y-89574110D01*
X137288090Y-89455638D01*
X137301071Y-89436211D01*
X137359335Y-89349012D01*
X137450012Y-89258335D01*
X137556636Y-89187091D01*
X137675110Y-89138017D01*
X137800881Y-89113000D01*
X137929119Y-89113000D01*
X138054890Y-89138017D01*
G37*
G36*
X120274890Y-89138017D02*
G01*
X120393364Y-89187091D01*
X120499988Y-89258335D01*
X120590665Y-89349012D01*
X120648930Y-89436211D01*
X120661910Y-89455638D01*
X120710983Y-89574110D01*
X120736000Y-89699881D01*
X120736000Y-89828119D01*
X120716531Y-89926000D01*
X120710983Y-89953890D01*
X120661909Y-90072364D01*
X120590665Y-90178988D01*
X120499988Y-90269665D01*
X120393364Y-90340909D01*
X120393363Y-90340910D01*
X120393362Y-90340910D01*
X120274890Y-90389983D01*
X120149119Y-90415000D01*
X120020881Y-90415000D01*
X119895110Y-90389983D01*
X119776638Y-90340910D01*
X119776637Y-90340910D01*
X119776636Y-90340909D01*
X119670012Y-90269665D01*
X119579335Y-90178988D01*
X119508091Y-90072364D01*
X119459017Y-89953890D01*
X119453469Y-89926000D01*
X119434000Y-89828119D01*
X119434000Y-89699881D01*
X119459017Y-89574110D01*
X119508090Y-89455638D01*
X119521071Y-89436211D01*
X119579335Y-89349012D01*
X119670012Y-89258335D01*
X119776636Y-89187091D01*
X119895110Y-89138017D01*
X120020881Y-89113000D01*
X120149119Y-89113000D01*
X120274890Y-89138017D01*
G37*
G36*
X122814890Y-89138017D02*
G01*
X122933364Y-89187091D01*
X123039988Y-89258335D01*
X123130665Y-89349012D01*
X123188930Y-89436211D01*
X123201910Y-89455638D01*
X123250983Y-89574110D01*
X123276000Y-89699881D01*
X123276000Y-89828119D01*
X123256531Y-89926000D01*
X123250983Y-89953890D01*
X123201909Y-90072364D01*
X123130665Y-90178988D01*
X123039988Y-90269665D01*
X122933364Y-90340909D01*
X122933363Y-90340910D01*
X122933362Y-90340910D01*
X122814890Y-90389983D01*
X122689119Y-90415000D01*
X122560881Y-90415000D01*
X122435110Y-90389983D01*
X122316638Y-90340910D01*
X122316637Y-90340910D01*
X122316636Y-90340909D01*
X122210012Y-90269665D01*
X122119335Y-90178988D01*
X122048091Y-90072364D01*
X121999017Y-89953890D01*
X121993469Y-89926000D01*
X121974000Y-89828119D01*
X121974000Y-89699881D01*
X121999017Y-89574110D01*
X122048090Y-89455638D01*
X122061071Y-89436211D01*
X122119335Y-89349012D01*
X122210012Y-89258335D01*
X122316636Y-89187091D01*
X122435110Y-89138017D01*
X122560881Y-89113000D01*
X122689119Y-89113000D01*
X122814890Y-89138017D01*
G37*
G36*
X125354890Y-89138017D02*
G01*
X125473364Y-89187091D01*
X125579988Y-89258335D01*
X125670665Y-89349012D01*
X125728930Y-89436211D01*
X125741910Y-89455638D01*
X125790983Y-89574110D01*
X125816000Y-89699881D01*
X125816000Y-89828119D01*
X125796531Y-89926000D01*
X125790983Y-89953890D01*
X125741909Y-90072364D01*
X125670665Y-90178988D01*
X125579988Y-90269665D01*
X125473364Y-90340909D01*
X125473363Y-90340910D01*
X125473362Y-90340910D01*
X125354890Y-90389983D01*
X125229119Y-90415000D01*
X125100881Y-90415000D01*
X124975110Y-90389983D01*
X124856638Y-90340910D01*
X124856637Y-90340910D01*
X124856636Y-90340909D01*
X124750012Y-90269665D01*
X124659335Y-90178988D01*
X124588091Y-90072364D01*
X124539017Y-89953890D01*
X124533469Y-89926000D01*
X124514000Y-89828119D01*
X124514000Y-89699881D01*
X124539017Y-89574110D01*
X124588090Y-89455638D01*
X124601071Y-89436211D01*
X124659335Y-89349012D01*
X124750012Y-89258335D01*
X124856636Y-89187091D01*
X124975110Y-89138017D01*
X125100881Y-89113000D01*
X125229119Y-89113000D01*
X125354890Y-89138017D01*
G37*
G36*
X127894890Y-89138017D02*
G01*
X128013364Y-89187091D01*
X128119988Y-89258335D01*
X128210665Y-89349012D01*
X128268930Y-89436211D01*
X128281910Y-89455638D01*
X128330983Y-89574110D01*
X128356000Y-89699881D01*
X128356000Y-89828119D01*
X128336531Y-89926000D01*
X128330983Y-89953890D01*
X128281909Y-90072364D01*
X128210665Y-90178988D01*
X128119988Y-90269665D01*
X128013364Y-90340909D01*
X128013363Y-90340910D01*
X128013362Y-90340910D01*
X127894890Y-90389983D01*
X127769119Y-90415000D01*
X127640881Y-90415000D01*
X127515110Y-90389983D01*
X127396638Y-90340910D01*
X127396637Y-90340910D01*
X127396636Y-90340909D01*
X127290012Y-90269665D01*
X127199335Y-90178988D01*
X127128091Y-90072364D01*
X127079017Y-89953890D01*
X127073469Y-89926000D01*
X127054000Y-89828119D01*
X127054000Y-89699881D01*
X127079017Y-89574110D01*
X127128090Y-89455638D01*
X127141071Y-89436211D01*
X127199335Y-89349012D01*
X127290012Y-89258335D01*
X127396636Y-89187091D01*
X127515110Y-89138017D01*
X127640881Y-89113000D01*
X127769119Y-89113000D01*
X127894890Y-89138017D01*
G37*
G36*
X135514890Y-89138017D02*
G01*
X135633364Y-89187091D01*
X135739988Y-89258335D01*
X135830665Y-89349012D01*
X135888930Y-89436211D01*
X135901910Y-89455638D01*
X135950983Y-89574110D01*
X135976000Y-89699881D01*
X135976000Y-89828119D01*
X135956531Y-89926000D01*
X135950983Y-89953890D01*
X135901909Y-90072364D01*
X135830665Y-90178988D01*
X135739988Y-90269665D01*
X135633364Y-90340909D01*
X135633363Y-90340910D01*
X135633362Y-90340910D01*
X135514890Y-90389983D01*
X135389119Y-90415000D01*
X135260881Y-90415000D01*
X135135110Y-90389983D01*
X135016638Y-90340910D01*
X135016637Y-90340910D01*
X135016636Y-90340909D01*
X134910012Y-90269665D01*
X134819335Y-90178988D01*
X134748091Y-90072364D01*
X134699017Y-89953890D01*
X134693469Y-89926000D01*
X134674000Y-89828119D01*
X134674000Y-89699881D01*
X134699017Y-89574110D01*
X134748090Y-89455638D01*
X134761071Y-89436211D01*
X134819335Y-89349012D01*
X134910012Y-89258335D01*
X135016636Y-89187091D01*
X135135110Y-89138017D01*
X135260881Y-89113000D01*
X135389119Y-89113000D01*
X135514890Y-89138017D01*
G37*
G36*
X163454890Y-89138017D02*
G01*
X163573364Y-89187091D01*
X163679988Y-89258335D01*
X163770665Y-89349012D01*
X163828930Y-89436211D01*
X163841910Y-89455638D01*
X163890983Y-89574110D01*
X163916000Y-89699881D01*
X163916000Y-89828119D01*
X163896531Y-89926000D01*
X163890983Y-89953890D01*
X163841909Y-90072364D01*
X163770665Y-90178988D01*
X163679988Y-90269665D01*
X163573364Y-90340909D01*
X163573363Y-90340910D01*
X163573362Y-90340910D01*
X163454890Y-90389983D01*
X163329119Y-90415000D01*
X163200881Y-90415000D01*
X163075110Y-90389983D01*
X162956638Y-90340910D01*
X162956637Y-90340910D01*
X162956636Y-90340909D01*
X162850012Y-90269665D01*
X162759335Y-90178988D01*
X162688091Y-90072364D01*
X162639017Y-89953890D01*
X162633469Y-89926000D01*
X162614000Y-89828119D01*
X162614000Y-89699881D01*
X162639017Y-89574110D01*
X162688090Y-89455638D01*
X162701071Y-89436211D01*
X162759335Y-89349012D01*
X162850012Y-89258335D01*
X162956636Y-89187091D01*
X163075110Y-89138017D01*
X163200881Y-89113000D01*
X163329119Y-89113000D01*
X163454890Y-89138017D01*
G37*
G36*
X132974890Y-89138017D02*
G01*
X133093364Y-89187091D01*
X133199988Y-89258335D01*
X133290665Y-89349012D01*
X133348930Y-89436211D01*
X133361910Y-89455638D01*
X133410983Y-89574110D01*
X133436000Y-89699881D01*
X133436000Y-89828119D01*
X133416531Y-89926000D01*
X133410983Y-89953890D01*
X133361909Y-90072364D01*
X133290665Y-90178988D01*
X133199988Y-90269665D01*
X133093364Y-90340909D01*
X133093363Y-90340910D01*
X133093362Y-90340910D01*
X132974890Y-90389983D01*
X132849119Y-90415000D01*
X132720881Y-90415000D01*
X132595110Y-90389983D01*
X132476638Y-90340910D01*
X132476637Y-90340910D01*
X132476636Y-90340909D01*
X132370012Y-90269665D01*
X132279335Y-90178988D01*
X132208091Y-90072364D01*
X132159017Y-89953890D01*
X132153469Y-89926000D01*
X132134000Y-89828119D01*
X132134000Y-89699881D01*
X132159017Y-89574110D01*
X132208090Y-89455638D01*
X132221071Y-89436211D01*
X132279335Y-89349012D01*
X132370012Y-89258335D01*
X132476636Y-89187091D01*
X132595110Y-89138017D01*
X132720881Y-89113000D01*
X132849119Y-89113000D01*
X132974890Y-89138017D01*
G37*
G36*
X130434890Y-89138017D02*
G01*
X130553364Y-89187091D01*
X130659988Y-89258335D01*
X130750665Y-89349012D01*
X130808930Y-89436211D01*
X130821910Y-89455638D01*
X130870983Y-89574110D01*
X130896000Y-89699881D01*
X130896000Y-89828119D01*
X130876531Y-89926000D01*
X130870983Y-89953890D01*
X130821909Y-90072364D01*
X130750665Y-90178988D01*
X130659988Y-90269665D01*
X130553364Y-90340909D01*
X130553363Y-90340910D01*
X130553362Y-90340910D01*
X130434890Y-90389983D01*
X130309119Y-90415000D01*
X130180881Y-90415000D01*
X130055110Y-90389983D01*
X129936638Y-90340910D01*
X129936637Y-90340910D01*
X129936636Y-90340909D01*
X129830012Y-90269665D01*
X129739335Y-90178988D01*
X129668091Y-90072364D01*
X129619017Y-89953890D01*
X129613469Y-89926000D01*
X129594000Y-89828119D01*
X129594000Y-89699881D01*
X129619017Y-89574110D01*
X129668090Y-89455638D01*
X129681071Y-89436211D01*
X129739335Y-89349012D01*
X129830012Y-89258335D01*
X129936636Y-89187091D01*
X130055110Y-89138017D01*
X130180881Y-89113000D01*
X130309119Y-89113000D01*
X130434890Y-89138017D01*
G37*
G36*
X117734890Y-89138017D02*
G01*
X117853364Y-89187091D01*
X117959988Y-89258335D01*
X118050665Y-89349012D01*
X118108930Y-89436211D01*
X118121910Y-89455638D01*
X118170983Y-89574110D01*
X118196000Y-89699881D01*
X118196000Y-89828119D01*
X118176531Y-89926000D01*
X118170983Y-89953890D01*
X118121909Y-90072364D01*
X118050665Y-90178988D01*
X117959988Y-90269665D01*
X117853364Y-90340909D01*
X117853363Y-90340910D01*
X117853362Y-90340910D01*
X117734890Y-90389983D01*
X117609119Y-90415000D01*
X117480881Y-90415000D01*
X117355110Y-90389983D01*
X117236638Y-90340910D01*
X117236637Y-90340910D01*
X117236636Y-90340909D01*
X117130012Y-90269665D01*
X117039335Y-90178988D01*
X116968091Y-90072364D01*
X116919017Y-89953890D01*
X116913469Y-89926000D01*
X116894000Y-89828119D01*
X116894000Y-89699881D01*
X116919017Y-89574110D01*
X116968090Y-89455638D01*
X116981071Y-89436211D01*
X117039335Y-89349012D01*
X117130012Y-89258335D01*
X117236636Y-89187091D01*
X117355110Y-89138017D01*
X117480881Y-89113000D01*
X117609119Y-89113000D01*
X117734890Y-89138017D01*
G37*
G36*
X113109072Y-87275918D02*
G01*
X113354939Y-87377759D01*
X113576212Y-87525610D01*
X113764390Y-87713788D01*
X113910196Y-87932000D01*
X113912242Y-87935063D01*
X114014082Y-88180928D01*
X114066000Y-88441937D01*
X114066000Y-88708063D01*
X114014082Y-88969072D01*
X113923777Y-89187090D01*
X113912241Y-89214939D01*
X113849933Y-89308189D01*
X113764391Y-89436211D01*
X113576211Y-89624391D01*
X113466328Y-89697813D01*
X113354939Y-89772241D01*
X113354938Y-89772242D01*
X113354937Y-89772242D01*
X113109072Y-89874082D01*
X112848063Y-89926000D01*
X112581937Y-89926000D01*
X112320928Y-89874082D01*
X112075063Y-89772242D01*
X112075062Y-89772242D01*
X112075061Y-89772241D01*
X111963672Y-89697813D01*
X111853789Y-89624391D01*
X111665609Y-89436211D01*
X111580067Y-89308189D01*
X111517759Y-89214939D01*
X111506224Y-89187090D01*
X111415918Y-88969072D01*
X111364000Y-88708063D01*
X111364000Y-88441937D01*
X111415918Y-88180928D01*
X111517758Y-87935063D01*
X111519805Y-87932000D01*
X111665610Y-87713788D01*
X111853788Y-87525610D01*
X112075061Y-87377759D01*
X112320928Y-87275918D01*
X112581937Y-87224000D01*
X112848063Y-87224000D01*
X113109072Y-87275918D01*
G37*
G36*
X152024890Y-87238017D02*
G01*
X152116391Y-87275918D01*
X152143364Y-87287091D01*
X152249988Y-87358335D01*
X152340665Y-87449012D01*
X152391846Y-87525609D01*
X152411910Y-87555638D01*
X152460983Y-87674110D01*
X152472270Y-87730852D01*
X152486000Y-87799882D01*
X152486000Y-87928118D01*
X152460983Y-88053890D01*
X152411909Y-88172364D01*
X152340665Y-88278988D01*
X152249988Y-88369665D01*
X152143364Y-88440909D01*
X152143363Y-88440910D01*
X152143362Y-88440910D01*
X152024890Y-88489983D01*
X151899119Y-88515000D01*
X151770881Y-88515000D01*
X151645110Y-88489983D01*
X151526638Y-88440910D01*
X151526637Y-88440910D01*
X151526636Y-88440909D01*
X151420012Y-88369665D01*
X151329335Y-88278988D01*
X151258091Y-88172364D01*
X151209017Y-88053890D01*
X151184000Y-87928118D01*
X151184000Y-87799882D01*
X151197731Y-87730852D01*
X151209017Y-87674110D01*
X151258090Y-87555638D01*
X151278155Y-87525609D01*
X151329335Y-87449012D01*
X151420012Y-87358335D01*
X151526636Y-87287091D01*
X151553610Y-87275918D01*
X151645110Y-87238017D01*
X151770881Y-87213000D01*
X151899119Y-87213000D01*
X152024890Y-87238017D01*
G37*
G36*
X146944890Y-87238017D02*
G01*
X147036391Y-87275918D01*
X147063364Y-87287091D01*
X147169988Y-87358335D01*
X147260665Y-87449012D01*
X147311846Y-87525609D01*
X147331910Y-87555638D01*
X147380983Y-87674110D01*
X147392270Y-87730852D01*
X147406000Y-87799882D01*
X147406000Y-87928118D01*
X147380983Y-88053890D01*
X147331909Y-88172364D01*
X147260665Y-88278988D01*
X147169988Y-88369665D01*
X147063364Y-88440909D01*
X147063363Y-88440910D01*
X147063362Y-88440910D01*
X146944890Y-88489983D01*
X146819119Y-88515000D01*
X146690881Y-88515000D01*
X146565110Y-88489983D01*
X146446638Y-88440910D01*
X146446637Y-88440910D01*
X146446636Y-88440909D01*
X146340012Y-88369665D01*
X146249335Y-88278988D01*
X146178091Y-88172364D01*
X146129017Y-88053890D01*
X146104000Y-87928118D01*
X146104000Y-87799882D01*
X146117731Y-87730852D01*
X146129017Y-87674110D01*
X146178090Y-87555638D01*
X146198155Y-87525609D01*
X146249335Y-87449012D01*
X146340012Y-87358335D01*
X146446636Y-87287091D01*
X146473610Y-87275918D01*
X146565110Y-87238017D01*
X146690881Y-87213000D01*
X146819119Y-87213000D01*
X146944890Y-87238017D01*
G37*
G36*
X121544890Y-87238017D02*
G01*
X121636391Y-87275918D01*
X121663364Y-87287091D01*
X121769988Y-87358335D01*
X121860665Y-87449012D01*
X121911846Y-87525609D01*
X121931910Y-87555638D01*
X121980983Y-87674110D01*
X121992270Y-87730852D01*
X122006000Y-87799882D01*
X122006000Y-87928118D01*
X121980983Y-88053890D01*
X121931909Y-88172364D01*
X121860665Y-88278988D01*
X121769988Y-88369665D01*
X121663364Y-88440909D01*
X121663363Y-88440910D01*
X121663362Y-88440910D01*
X121544890Y-88489983D01*
X121419119Y-88515000D01*
X121290881Y-88515000D01*
X121165110Y-88489983D01*
X121046638Y-88440910D01*
X121046637Y-88440910D01*
X121046636Y-88440909D01*
X120940012Y-88369665D01*
X120849335Y-88278988D01*
X120778091Y-88172364D01*
X120729017Y-88053890D01*
X120704000Y-87928118D01*
X120704000Y-87799882D01*
X120717731Y-87730852D01*
X120729017Y-87674110D01*
X120778090Y-87555638D01*
X120798155Y-87525609D01*
X120849335Y-87449012D01*
X120940012Y-87358335D01*
X121046636Y-87287091D01*
X121073610Y-87275918D01*
X121165110Y-87238017D01*
X121290881Y-87213000D01*
X121419119Y-87213000D01*
X121544890Y-87238017D01*
G37*
G36*
X144404890Y-87238017D02*
G01*
X144496391Y-87275918D01*
X144523364Y-87287091D01*
X144629988Y-87358335D01*
X144720665Y-87449012D01*
X144771846Y-87525609D01*
X144791910Y-87555638D01*
X144840983Y-87674110D01*
X144852270Y-87730852D01*
X144866000Y-87799882D01*
X144866000Y-87928118D01*
X144840983Y-88053890D01*
X144791909Y-88172364D01*
X144720665Y-88278988D01*
X144629988Y-88369665D01*
X144523364Y-88440909D01*
X144523363Y-88440910D01*
X144523362Y-88440910D01*
X144404890Y-88489983D01*
X144279119Y-88515000D01*
X144150881Y-88515000D01*
X144025110Y-88489983D01*
X143906638Y-88440910D01*
X143906637Y-88440910D01*
X143906636Y-88440909D01*
X143800012Y-88369665D01*
X143709335Y-88278988D01*
X143638091Y-88172364D01*
X143589017Y-88053890D01*
X143564000Y-87928118D01*
X143564000Y-87799882D01*
X143577731Y-87730852D01*
X143589017Y-87674110D01*
X143638090Y-87555638D01*
X143658155Y-87525609D01*
X143709335Y-87449012D01*
X143800012Y-87358335D01*
X143906636Y-87287091D01*
X143933610Y-87275918D01*
X144025110Y-87238017D01*
X144150881Y-87213000D01*
X144279119Y-87213000D01*
X144404890Y-87238017D01*
G37*
G36*
X164724890Y-87238017D02*
G01*
X164816391Y-87275918D01*
X164843364Y-87287091D01*
X164949988Y-87358335D01*
X165040665Y-87449012D01*
X165091846Y-87525609D01*
X165111910Y-87555638D01*
X165160983Y-87674110D01*
X165172270Y-87730852D01*
X165186000Y-87799882D01*
X165186000Y-87928118D01*
X165160983Y-88053890D01*
X165111909Y-88172364D01*
X165040665Y-88278988D01*
X164949988Y-88369665D01*
X164843364Y-88440909D01*
X164843363Y-88440910D01*
X164843362Y-88440910D01*
X164724890Y-88489983D01*
X164599119Y-88515000D01*
X164470881Y-88515000D01*
X164345110Y-88489983D01*
X164226638Y-88440910D01*
X164226637Y-88440910D01*
X164226636Y-88440909D01*
X164120012Y-88369665D01*
X164029335Y-88278988D01*
X163958091Y-88172364D01*
X163909017Y-88053890D01*
X163884000Y-87928118D01*
X163884000Y-87799882D01*
X163897731Y-87730852D01*
X163909017Y-87674110D01*
X163958090Y-87555638D01*
X163978155Y-87525609D01*
X164029335Y-87449012D01*
X164120012Y-87358335D01*
X164226636Y-87287091D01*
X164253610Y-87275918D01*
X164345110Y-87238017D01*
X164470881Y-87213000D01*
X164599119Y-87213000D01*
X164724890Y-87238017D01*
G37*
G36*
X124084890Y-87238017D02*
G01*
X124176391Y-87275918D01*
X124203364Y-87287091D01*
X124309988Y-87358335D01*
X124400665Y-87449012D01*
X124451846Y-87525609D01*
X124471910Y-87555638D01*
X124520983Y-87674110D01*
X124532270Y-87730852D01*
X124546000Y-87799882D01*
X124546000Y-87928118D01*
X124520983Y-88053890D01*
X124471909Y-88172364D01*
X124400665Y-88278988D01*
X124309988Y-88369665D01*
X124203364Y-88440909D01*
X124203363Y-88440910D01*
X124203362Y-88440910D01*
X124084890Y-88489983D01*
X123959119Y-88515000D01*
X123830881Y-88515000D01*
X123705110Y-88489983D01*
X123586638Y-88440910D01*
X123586637Y-88440910D01*
X123586636Y-88440909D01*
X123480012Y-88369665D01*
X123389335Y-88278988D01*
X123318091Y-88172364D01*
X123269017Y-88053890D01*
X123244000Y-87928118D01*
X123244000Y-87799882D01*
X123257731Y-87730852D01*
X123269017Y-87674110D01*
X123318090Y-87555638D01*
X123338155Y-87525609D01*
X123389335Y-87449012D01*
X123480012Y-87358335D01*
X123586636Y-87287091D01*
X123613610Y-87275918D01*
X123705110Y-87238017D01*
X123830881Y-87213000D01*
X123959119Y-87213000D01*
X124084890Y-87238017D01*
G37*
G36*
X126624890Y-87238017D02*
G01*
X126716391Y-87275918D01*
X126743364Y-87287091D01*
X126849988Y-87358335D01*
X126940665Y-87449012D01*
X126991846Y-87525609D01*
X127011910Y-87555638D01*
X127060983Y-87674110D01*
X127072270Y-87730852D01*
X127086000Y-87799882D01*
X127086000Y-87928118D01*
X127060983Y-88053890D01*
X127011909Y-88172364D01*
X126940665Y-88278988D01*
X126849988Y-88369665D01*
X126743364Y-88440909D01*
X126743363Y-88440910D01*
X126743362Y-88440910D01*
X126624890Y-88489983D01*
X126499119Y-88515000D01*
X126370881Y-88515000D01*
X126245110Y-88489983D01*
X126126638Y-88440910D01*
X126126637Y-88440910D01*
X126126636Y-88440909D01*
X126020012Y-88369665D01*
X125929335Y-88278988D01*
X125858091Y-88172364D01*
X125809017Y-88053890D01*
X125784000Y-87928118D01*
X125784000Y-87799882D01*
X125797731Y-87730852D01*
X125809017Y-87674110D01*
X125858090Y-87555638D01*
X125878155Y-87525609D01*
X125929335Y-87449012D01*
X126020012Y-87358335D01*
X126126636Y-87287091D01*
X126153610Y-87275918D01*
X126245110Y-87238017D01*
X126370881Y-87213000D01*
X126499119Y-87213000D01*
X126624890Y-87238017D01*
G37*
G36*
X162184890Y-87238017D02*
G01*
X162276391Y-87275918D01*
X162303364Y-87287091D01*
X162409988Y-87358335D01*
X162500665Y-87449012D01*
X162551846Y-87525609D01*
X162571910Y-87555638D01*
X162620983Y-87674110D01*
X162632270Y-87730852D01*
X162646000Y-87799882D01*
X162646000Y-87928118D01*
X162620983Y-88053890D01*
X162571909Y-88172364D01*
X162500665Y-88278988D01*
X162409988Y-88369665D01*
X162303364Y-88440909D01*
X162303363Y-88440910D01*
X162303362Y-88440910D01*
X162184890Y-88489983D01*
X162059119Y-88515000D01*
X161930881Y-88515000D01*
X161805110Y-88489983D01*
X161686638Y-88440910D01*
X161686637Y-88440910D01*
X161686636Y-88440909D01*
X161580012Y-88369665D01*
X161489335Y-88278988D01*
X161418091Y-88172364D01*
X161369017Y-88053890D01*
X161344000Y-87928118D01*
X161344000Y-87799882D01*
X161357731Y-87730852D01*
X161369017Y-87674110D01*
X161418090Y-87555638D01*
X161438155Y-87525609D01*
X161489335Y-87449012D01*
X161580012Y-87358335D01*
X161686636Y-87287091D01*
X161713610Y-87275918D01*
X161805110Y-87238017D01*
X161930881Y-87213000D01*
X162059119Y-87213000D01*
X162184890Y-87238017D01*
G37*
G36*
X129164890Y-87238017D02*
G01*
X129256391Y-87275918D01*
X129283364Y-87287091D01*
X129389988Y-87358335D01*
X129480665Y-87449012D01*
X129531846Y-87525609D01*
X129551910Y-87555638D01*
X129600983Y-87674110D01*
X129612270Y-87730852D01*
X129626000Y-87799882D01*
X129626000Y-87928118D01*
X129600983Y-88053890D01*
X129551909Y-88172364D01*
X129480665Y-88278988D01*
X129389988Y-88369665D01*
X129283364Y-88440909D01*
X129283363Y-88440910D01*
X129283362Y-88440910D01*
X129164890Y-88489983D01*
X129039119Y-88515000D01*
X128910881Y-88515000D01*
X128785110Y-88489983D01*
X128666638Y-88440910D01*
X128666637Y-88440910D01*
X128666636Y-88440909D01*
X128560012Y-88369665D01*
X128469335Y-88278988D01*
X128398091Y-88172364D01*
X128349017Y-88053890D01*
X128324000Y-87928118D01*
X128324000Y-87799882D01*
X128337731Y-87730852D01*
X128349017Y-87674110D01*
X128398090Y-87555638D01*
X128418155Y-87525609D01*
X128469335Y-87449012D01*
X128560012Y-87358335D01*
X128666636Y-87287091D01*
X128693610Y-87275918D01*
X128785110Y-87238017D01*
X128910881Y-87213000D01*
X129039119Y-87213000D01*
X129164890Y-87238017D01*
G37*
G36*
X116464890Y-87238017D02*
G01*
X116556391Y-87275918D01*
X116583364Y-87287091D01*
X116689988Y-87358335D01*
X116780665Y-87449012D01*
X116831846Y-87525609D01*
X116851910Y-87555638D01*
X116900983Y-87674110D01*
X116912270Y-87730852D01*
X116926000Y-87799882D01*
X116926000Y-87928118D01*
X116900983Y-88053890D01*
X116851909Y-88172364D01*
X116780665Y-88278988D01*
X116689988Y-88369665D01*
X116583364Y-88440909D01*
X116583363Y-88440910D01*
X116583362Y-88440910D01*
X116464890Y-88489983D01*
X116339119Y-88515000D01*
X116210881Y-88515000D01*
X116085110Y-88489983D01*
X115966638Y-88440910D01*
X115966637Y-88440910D01*
X115966636Y-88440909D01*
X115860012Y-88369665D01*
X115769335Y-88278988D01*
X115698091Y-88172364D01*
X115649017Y-88053890D01*
X115624000Y-87928118D01*
X115624000Y-87799882D01*
X115637731Y-87730852D01*
X115649017Y-87674110D01*
X115698090Y-87555638D01*
X115718155Y-87525609D01*
X115769335Y-87449012D01*
X115860012Y-87358335D01*
X115966636Y-87287091D01*
X115993610Y-87275918D01*
X116085110Y-87238017D01*
X116210881Y-87213000D01*
X116339119Y-87213000D01*
X116464890Y-87238017D01*
G37*
G36*
X159644890Y-87238017D02*
G01*
X159736391Y-87275918D01*
X159763364Y-87287091D01*
X159869988Y-87358335D01*
X159960665Y-87449012D01*
X160011846Y-87525609D01*
X160031910Y-87555638D01*
X160080983Y-87674110D01*
X160092270Y-87730852D01*
X160106000Y-87799882D01*
X160106000Y-87928118D01*
X160080983Y-88053890D01*
X160031909Y-88172364D01*
X159960665Y-88278988D01*
X159869988Y-88369665D01*
X159763364Y-88440909D01*
X159763363Y-88440910D01*
X159763362Y-88440910D01*
X159644890Y-88489983D01*
X159519119Y-88515000D01*
X159390881Y-88515000D01*
X159265110Y-88489983D01*
X159146638Y-88440910D01*
X159146637Y-88440910D01*
X159146636Y-88440909D01*
X159040012Y-88369665D01*
X158949335Y-88278988D01*
X158878091Y-88172364D01*
X158829017Y-88053890D01*
X158804000Y-87928118D01*
X158804000Y-87799882D01*
X158817731Y-87730852D01*
X158829017Y-87674110D01*
X158878090Y-87555638D01*
X158898155Y-87525609D01*
X158949335Y-87449012D01*
X159040012Y-87358335D01*
X159146636Y-87287091D01*
X159173610Y-87275918D01*
X159265110Y-87238017D01*
X159390881Y-87213000D01*
X159519119Y-87213000D01*
X159644890Y-87238017D01*
G37*
G36*
X131704890Y-87238017D02*
G01*
X131796391Y-87275918D01*
X131823364Y-87287091D01*
X131929988Y-87358335D01*
X132020665Y-87449012D01*
X132071846Y-87525609D01*
X132091910Y-87555638D01*
X132140983Y-87674110D01*
X132152270Y-87730852D01*
X132166000Y-87799882D01*
X132166000Y-87928118D01*
X132140983Y-88053890D01*
X132091909Y-88172364D01*
X132020665Y-88278988D01*
X131929988Y-88369665D01*
X131823364Y-88440909D01*
X131823363Y-88440910D01*
X131823362Y-88440910D01*
X131704890Y-88489983D01*
X131579119Y-88515000D01*
X131450881Y-88515000D01*
X131325110Y-88489983D01*
X131206638Y-88440910D01*
X131206637Y-88440910D01*
X131206636Y-88440909D01*
X131100012Y-88369665D01*
X131009335Y-88278988D01*
X130938091Y-88172364D01*
X130889017Y-88053890D01*
X130864000Y-87928118D01*
X130864000Y-87799882D01*
X130877731Y-87730852D01*
X130889017Y-87674110D01*
X130938090Y-87555638D01*
X130958155Y-87525609D01*
X131009335Y-87449012D01*
X131100012Y-87358335D01*
X131206636Y-87287091D01*
X131233610Y-87275918D01*
X131325110Y-87238017D01*
X131450881Y-87213000D01*
X131579119Y-87213000D01*
X131704890Y-87238017D01*
G37*
G36*
X154564890Y-87238017D02*
G01*
X154656391Y-87275918D01*
X154683364Y-87287091D01*
X154789988Y-87358335D01*
X154880665Y-87449012D01*
X154931846Y-87525609D01*
X154951910Y-87555638D01*
X155000983Y-87674110D01*
X155012270Y-87730852D01*
X155026000Y-87799882D01*
X155026000Y-87928118D01*
X155000983Y-88053890D01*
X154951909Y-88172364D01*
X154880665Y-88278988D01*
X154789988Y-88369665D01*
X154683364Y-88440909D01*
X154683363Y-88440910D01*
X154683362Y-88440910D01*
X154564890Y-88489983D01*
X154439119Y-88515000D01*
X154310881Y-88515000D01*
X154185110Y-88489983D01*
X154066638Y-88440910D01*
X154066637Y-88440910D01*
X154066636Y-88440909D01*
X153960012Y-88369665D01*
X153869335Y-88278988D01*
X153798091Y-88172364D01*
X153749017Y-88053890D01*
X153724000Y-87928118D01*
X153724000Y-87799882D01*
X153737731Y-87730852D01*
X153749017Y-87674110D01*
X153798090Y-87555638D01*
X153818155Y-87525609D01*
X153869335Y-87449012D01*
X153960012Y-87358335D01*
X154066636Y-87287091D01*
X154093610Y-87275918D01*
X154185110Y-87238017D01*
X154310881Y-87213000D01*
X154439119Y-87213000D01*
X154564890Y-87238017D01*
G37*
G36*
X141864890Y-87238017D02*
G01*
X141956391Y-87275918D01*
X141983364Y-87287091D01*
X142089988Y-87358335D01*
X142180665Y-87449012D01*
X142231846Y-87525609D01*
X142251910Y-87555638D01*
X142300983Y-87674110D01*
X142312270Y-87730852D01*
X142326000Y-87799882D01*
X142326000Y-87928118D01*
X142300983Y-88053890D01*
X142251909Y-88172364D01*
X142180665Y-88278988D01*
X142089988Y-88369665D01*
X141983364Y-88440909D01*
X141983363Y-88440910D01*
X141983362Y-88440910D01*
X141864890Y-88489983D01*
X141739119Y-88515000D01*
X141610881Y-88515000D01*
X141485110Y-88489983D01*
X141366638Y-88440910D01*
X141366637Y-88440910D01*
X141366636Y-88440909D01*
X141260012Y-88369665D01*
X141169335Y-88278988D01*
X141098091Y-88172364D01*
X141049017Y-88053890D01*
X141024000Y-87928118D01*
X141024000Y-87799882D01*
X141037731Y-87730852D01*
X141049017Y-87674110D01*
X141098090Y-87555638D01*
X141118155Y-87525609D01*
X141169335Y-87449012D01*
X141260012Y-87358335D01*
X141366636Y-87287091D01*
X141393610Y-87275918D01*
X141485110Y-87238017D01*
X141610881Y-87213000D01*
X141739119Y-87213000D01*
X141864890Y-87238017D01*
G37*
G36*
X119004890Y-87238017D02*
G01*
X119096391Y-87275918D01*
X119123364Y-87287091D01*
X119229988Y-87358335D01*
X119320665Y-87449012D01*
X119371846Y-87525609D01*
X119391910Y-87555638D01*
X119440983Y-87674110D01*
X119452270Y-87730852D01*
X119466000Y-87799882D01*
X119466000Y-87928118D01*
X119440983Y-88053890D01*
X119391909Y-88172364D01*
X119320665Y-88278988D01*
X119229988Y-88369665D01*
X119123364Y-88440909D01*
X119123363Y-88440910D01*
X119123362Y-88440910D01*
X119004890Y-88489983D01*
X118879119Y-88515000D01*
X118750881Y-88515000D01*
X118625110Y-88489983D01*
X118506638Y-88440910D01*
X118506637Y-88440910D01*
X118506636Y-88440909D01*
X118400012Y-88369665D01*
X118309335Y-88278988D01*
X118238091Y-88172364D01*
X118189017Y-88053890D01*
X118164000Y-87928118D01*
X118164000Y-87799882D01*
X118177731Y-87730852D01*
X118189017Y-87674110D01*
X118238090Y-87555638D01*
X118258155Y-87525609D01*
X118309335Y-87449012D01*
X118400012Y-87358335D01*
X118506636Y-87287091D01*
X118533610Y-87275918D01*
X118625110Y-87238017D01*
X118750881Y-87213000D01*
X118879119Y-87213000D01*
X119004890Y-87238017D01*
G37*
G36*
X139324890Y-87238017D02*
G01*
X139416391Y-87275918D01*
X139443364Y-87287091D01*
X139549988Y-87358335D01*
X139640665Y-87449012D01*
X139691846Y-87525609D01*
X139711910Y-87555638D01*
X139760983Y-87674110D01*
X139772270Y-87730852D01*
X139786000Y-87799882D01*
X139786000Y-87928118D01*
X139760983Y-88053890D01*
X139711909Y-88172364D01*
X139640665Y-88278988D01*
X139549988Y-88369665D01*
X139443364Y-88440909D01*
X139443363Y-88440910D01*
X139443362Y-88440910D01*
X139324890Y-88489983D01*
X139199119Y-88515000D01*
X139070881Y-88515000D01*
X138945110Y-88489983D01*
X138826638Y-88440910D01*
X138826637Y-88440910D01*
X138826636Y-88440909D01*
X138720012Y-88369665D01*
X138629335Y-88278988D01*
X138558091Y-88172364D01*
X138509017Y-88053890D01*
X138484000Y-87928118D01*
X138484000Y-87799882D01*
X138497731Y-87730852D01*
X138509017Y-87674110D01*
X138558090Y-87555638D01*
X138578155Y-87525609D01*
X138629335Y-87449012D01*
X138720012Y-87358335D01*
X138826636Y-87287091D01*
X138853610Y-87275918D01*
X138945110Y-87238017D01*
X139070881Y-87213000D01*
X139199119Y-87213000D01*
X139324890Y-87238017D01*
G37*
G36*
X149484890Y-87238017D02*
G01*
X149576391Y-87275918D01*
X149603364Y-87287091D01*
X149709988Y-87358335D01*
X149800665Y-87449012D01*
X149851846Y-87525609D01*
X149871910Y-87555638D01*
X149920983Y-87674110D01*
X149932270Y-87730852D01*
X149946000Y-87799882D01*
X149946000Y-87928118D01*
X149920983Y-88053890D01*
X149871909Y-88172364D01*
X149800665Y-88278988D01*
X149709988Y-88369665D01*
X149603364Y-88440909D01*
X149603363Y-88440910D01*
X149603362Y-88440910D01*
X149484890Y-88489983D01*
X149359119Y-88515000D01*
X149230881Y-88515000D01*
X149105110Y-88489983D01*
X148986638Y-88440910D01*
X148986637Y-88440910D01*
X148986636Y-88440909D01*
X148880012Y-88369665D01*
X148789335Y-88278988D01*
X148718091Y-88172364D01*
X148669017Y-88053890D01*
X148644000Y-87928118D01*
X148644000Y-87799882D01*
X148657731Y-87730852D01*
X148669017Y-87674110D01*
X148718090Y-87555638D01*
X148738155Y-87525609D01*
X148789335Y-87449012D01*
X148880012Y-87358335D01*
X148986636Y-87287091D01*
X149013610Y-87275918D01*
X149105110Y-87238017D01*
X149230881Y-87213000D01*
X149359119Y-87213000D01*
X149484890Y-87238017D01*
G37*
G36*
X157104890Y-87238017D02*
G01*
X157196391Y-87275918D01*
X157223364Y-87287091D01*
X157329988Y-87358335D01*
X157420665Y-87449012D01*
X157471846Y-87525609D01*
X157491910Y-87555638D01*
X157540983Y-87674110D01*
X157552270Y-87730852D01*
X157566000Y-87799882D01*
X157566000Y-87928118D01*
X157540983Y-88053890D01*
X157491909Y-88172364D01*
X157420665Y-88278988D01*
X157329988Y-88369665D01*
X157223364Y-88440909D01*
X157223363Y-88440910D01*
X157223362Y-88440910D01*
X157104890Y-88489983D01*
X156979119Y-88515000D01*
X156850881Y-88515000D01*
X156725110Y-88489983D01*
X156606638Y-88440910D01*
X156606637Y-88440910D01*
X156606636Y-88440909D01*
X156500012Y-88369665D01*
X156409335Y-88278988D01*
X156338091Y-88172364D01*
X156289017Y-88053890D01*
X156264000Y-87928118D01*
X156264000Y-87799882D01*
X156277731Y-87730852D01*
X156289017Y-87674110D01*
X156338090Y-87555638D01*
X156358155Y-87525609D01*
X156409335Y-87449012D01*
X156500012Y-87358335D01*
X156606636Y-87287091D01*
X156633610Y-87275918D01*
X156725110Y-87238017D01*
X156850881Y-87213000D01*
X156979119Y-87213000D01*
X157104890Y-87238017D01*
G37*
G36*
X134244890Y-87238017D02*
G01*
X134336391Y-87275918D01*
X134363364Y-87287091D01*
X134469988Y-87358335D01*
X134560665Y-87449012D01*
X134611846Y-87525609D01*
X134631910Y-87555638D01*
X134680983Y-87674110D01*
X134692270Y-87730852D01*
X134706000Y-87799882D01*
X134706000Y-87928118D01*
X134680983Y-88053890D01*
X134631909Y-88172364D01*
X134560665Y-88278988D01*
X134469988Y-88369665D01*
X134363364Y-88440909D01*
X134363363Y-88440910D01*
X134363362Y-88440910D01*
X134244890Y-88489983D01*
X134119119Y-88515000D01*
X133990881Y-88515000D01*
X133865110Y-88489983D01*
X133746638Y-88440910D01*
X133746637Y-88440910D01*
X133746636Y-88440909D01*
X133640012Y-88369665D01*
X133549335Y-88278988D01*
X133478091Y-88172364D01*
X133429017Y-88053890D01*
X133404000Y-87928118D01*
X133404000Y-87799882D01*
X133417731Y-87730852D01*
X133429017Y-87674110D01*
X133478090Y-87555638D01*
X133498155Y-87525609D01*
X133549335Y-87449012D01*
X133640012Y-87358335D01*
X133746636Y-87287091D01*
X133773610Y-87275918D01*
X133865110Y-87238017D01*
X133990881Y-87213000D01*
X134119119Y-87213000D01*
X134244890Y-87238017D01*
G37*
G36*
X136784890Y-87238017D02*
G01*
X136876391Y-87275918D01*
X136903364Y-87287091D01*
X137009988Y-87358335D01*
X137100665Y-87449012D01*
X137151846Y-87525609D01*
X137171910Y-87555638D01*
X137220983Y-87674110D01*
X137232270Y-87730852D01*
X137246000Y-87799882D01*
X137246000Y-87928118D01*
X137220983Y-88053890D01*
X137171909Y-88172364D01*
X137100665Y-88278988D01*
X137009988Y-88369665D01*
X136903364Y-88440909D01*
X136903363Y-88440910D01*
X136903362Y-88440910D01*
X136784890Y-88489983D01*
X136659119Y-88515000D01*
X136530881Y-88515000D01*
X136405110Y-88489983D01*
X136286638Y-88440910D01*
X136286637Y-88440910D01*
X136286636Y-88440909D01*
X136180012Y-88369665D01*
X136089335Y-88278988D01*
X136018091Y-88172364D01*
X135969017Y-88053890D01*
X135944000Y-87928118D01*
X135944000Y-87799882D01*
X135957731Y-87730852D01*
X135969017Y-87674110D01*
X136018090Y-87555638D01*
X136038155Y-87525609D01*
X136089335Y-87449012D01*
X136180012Y-87358335D01*
X136286636Y-87287091D01*
X136313610Y-87275918D01*
X136405110Y-87238017D01*
X136530881Y-87213000D01*
X136659119Y-87213000D01*
X136784890Y-87238017D01*
G37*
G36*
X178279512Y-86134927D02*
G01*
X178428812Y-86164624D01*
X178592784Y-86232544D01*
X178740354Y-86331147D01*
X178865853Y-86456646D01*
X178964456Y-86604216D01*
X179032376Y-86768188D01*
X179067000Y-86942259D01*
X179067000Y-87119741D01*
X179032376Y-87293812D01*
X178964456Y-87457784D01*
X178865853Y-87605354D01*
X178740354Y-87730853D01*
X178592784Y-87829456D01*
X178428812Y-87897376D01*
X178279512Y-87927073D01*
X178254742Y-87932000D01*
X178077258Y-87932000D01*
X178052488Y-87927073D01*
X177903188Y-87897376D01*
X177739216Y-87829456D01*
X177591646Y-87730853D01*
X177466147Y-87605354D01*
X177367544Y-87457784D01*
X177299624Y-87293812D01*
X177265000Y-87119741D01*
X177265000Y-86942259D01*
X177299624Y-86768188D01*
X177367544Y-86604216D01*
X177466147Y-86456646D01*
X177591646Y-86331147D01*
X177739216Y-86232544D01*
X177903188Y-86164624D01*
X178052488Y-86134927D01*
X178077258Y-86130000D01*
X178254742Y-86130000D01*
X178279512Y-86134927D01*
G37*
G36*
X180819512Y-86134927D02*
G01*
X180968812Y-86164624D01*
X181132784Y-86232544D01*
X181280354Y-86331147D01*
X181405853Y-86456646D01*
X181504456Y-86604216D01*
X181572376Y-86768188D01*
X181607000Y-86942259D01*
X181607000Y-87119741D01*
X181572376Y-87293812D01*
X181504456Y-87457784D01*
X181405853Y-87605354D01*
X181280354Y-87730853D01*
X181132784Y-87829456D01*
X180968812Y-87897376D01*
X180819512Y-87927073D01*
X180794742Y-87932000D01*
X180617258Y-87932000D01*
X180592488Y-87927073D01*
X180443188Y-87897376D01*
X180279216Y-87829456D01*
X180131646Y-87730853D01*
X180006147Y-87605354D01*
X179907544Y-87457784D01*
X179839624Y-87293812D01*
X179805000Y-87119741D01*
X179805000Y-86942259D01*
X179839624Y-86768188D01*
X179907544Y-86604216D01*
X180006147Y-86456646D01*
X180131646Y-86331147D01*
X180279216Y-86232544D01*
X180443188Y-86164624D01*
X180592488Y-86134927D01*
X180617258Y-86130000D01*
X180794742Y-86130000D01*
X180819512Y-86134927D01*
G37*
G36*
X100662831Y-84042841D02*
G01*
X100807826Y-84071682D01*
X100920974Y-84118550D01*
X101080989Y-84184830D01*
X101145880Y-84228189D01*
X101326832Y-84349097D01*
X101535903Y-84558168D01*
X101550318Y-84579742D01*
X101700170Y-84804011D01*
X101747295Y-84917782D01*
X101808422Y-85065353D01*
X101813318Y-85077175D01*
X101871000Y-85367163D01*
X101871000Y-85662837D01*
X101813318Y-85952825D01*
X101700170Y-86225989D01*
X101629905Y-86331148D01*
X101535903Y-86471832D01*
X101326832Y-86680903D01*
X101203076Y-86763594D01*
X101080989Y-86845170D01*
X100920974Y-86911450D01*
X100807826Y-86958318D01*
X100662831Y-86987159D01*
X100517837Y-87016000D01*
X100222163Y-87016000D01*
X100077169Y-86987159D01*
X99932174Y-86958318D01*
X99819026Y-86911450D01*
X99659011Y-86845170D01*
X99536924Y-86763594D01*
X99413168Y-86680903D01*
X99204097Y-86471832D01*
X99110095Y-86331148D01*
X99039830Y-86225989D01*
X98926682Y-85952825D01*
X98869000Y-85662837D01*
X98869000Y-85367163D01*
X98926682Y-85077175D01*
X98931579Y-85065353D01*
X98992705Y-84917782D01*
X99039830Y-84804011D01*
X99189682Y-84579742D01*
X99204097Y-84558168D01*
X99413168Y-84349097D01*
X99594120Y-84228189D01*
X99659011Y-84184830D01*
X99819026Y-84118550D01*
X99932174Y-84071682D01*
X100077169Y-84042841D01*
X100222163Y-84014000D01*
X100517837Y-84014000D01*
X100662831Y-84042841D01*
G37*
G36*
X178279512Y-83594927D02*
G01*
X178428812Y-83624624D01*
X178592784Y-83692544D01*
X178740354Y-83791147D01*
X178865853Y-83916646D01*
X178964456Y-84064216D01*
X179032376Y-84228188D01*
X179067000Y-84402259D01*
X179067000Y-84579741D01*
X179032376Y-84753812D01*
X178964456Y-84917784D01*
X178865853Y-85065354D01*
X178740354Y-85190853D01*
X178592784Y-85289456D01*
X178428812Y-85357376D01*
X178279512Y-85387073D01*
X178254742Y-85392000D01*
X178077258Y-85392000D01*
X178052488Y-85387073D01*
X177903188Y-85357376D01*
X177739216Y-85289456D01*
X177591646Y-85190853D01*
X177466147Y-85065354D01*
X177367544Y-84917784D01*
X177299624Y-84753812D01*
X177265000Y-84579741D01*
X177265000Y-84402259D01*
X177299624Y-84228188D01*
X177367544Y-84064216D01*
X177466147Y-83916646D01*
X177591646Y-83791147D01*
X177739216Y-83692544D01*
X177903188Y-83624624D01*
X178052488Y-83594927D01*
X178077258Y-83590000D01*
X178254742Y-83590000D01*
X178279512Y-83594927D01*
G37*
G36*
X180819512Y-83594927D02*
G01*
X180968812Y-83624624D01*
X181132784Y-83692544D01*
X181280354Y-83791147D01*
X181405853Y-83916646D01*
X181504456Y-84064216D01*
X181572376Y-84228188D01*
X181607000Y-84402259D01*
X181607000Y-84579741D01*
X181572376Y-84753812D01*
X181504456Y-84917784D01*
X181405853Y-85065354D01*
X181280354Y-85190853D01*
X181132784Y-85289456D01*
X180968812Y-85357376D01*
X180819512Y-85387073D01*
X180794742Y-85392000D01*
X180617258Y-85392000D01*
X180592488Y-85387073D01*
X180443188Y-85357376D01*
X180279216Y-85289456D01*
X180131646Y-85190853D01*
X180006147Y-85065354D01*
X179907544Y-84917784D01*
X179839624Y-84753812D01*
X179805000Y-84579741D01*
X179805000Y-84402259D01*
X179839624Y-84228188D01*
X179907544Y-84064216D01*
X180006147Y-83916646D01*
X180131646Y-83791147D01*
X180279216Y-83692544D01*
X180443188Y-83624624D01*
X180592488Y-83594927D01*
X180617258Y-83590000D01*
X180794742Y-83590000D01*
X180819512Y-83594927D01*
G37*
G36*
X178279512Y-81054927D02*
G01*
X178428812Y-81084624D01*
X178592784Y-81152544D01*
X178740354Y-81251147D01*
X178865853Y-81376646D01*
X178964456Y-81524216D01*
X179032376Y-81688188D01*
X179067000Y-81862259D01*
X179067000Y-82039741D01*
X179032376Y-82213812D01*
X178964456Y-82377784D01*
X178865853Y-82525354D01*
X178740354Y-82650853D01*
X178592784Y-82749456D01*
X178428812Y-82817376D01*
X178279512Y-82847073D01*
X178254742Y-82852000D01*
X178077258Y-82852000D01*
X178052488Y-82847073D01*
X177903188Y-82817376D01*
X177739216Y-82749456D01*
X177591646Y-82650853D01*
X177466147Y-82525354D01*
X177367544Y-82377784D01*
X177299624Y-82213812D01*
X177265000Y-82039741D01*
X177265000Y-81862259D01*
X177299624Y-81688188D01*
X177367544Y-81524216D01*
X177466147Y-81376646D01*
X177591646Y-81251147D01*
X177739216Y-81152544D01*
X177903188Y-81084624D01*
X178052488Y-81054927D01*
X178077258Y-81050000D01*
X178254742Y-81050000D01*
X178279512Y-81054927D01*
G37*
G36*
X180819512Y-81054927D02*
G01*
X180968812Y-81084624D01*
X181132784Y-81152544D01*
X181280354Y-81251147D01*
X181405853Y-81376646D01*
X181504456Y-81524216D01*
X181572376Y-81688188D01*
X181607000Y-81862259D01*
X181607000Y-82039741D01*
X181572376Y-82213812D01*
X181504456Y-82377784D01*
X181405853Y-82525354D01*
X181280354Y-82650853D01*
X181132784Y-82749456D01*
X180968812Y-82817376D01*
X180819512Y-82847073D01*
X180794742Y-82852000D01*
X180617258Y-82852000D01*
X180592488Y-82847073D01*
X180443188Y-82817376D01*
X180279216Y-82749456D01*
X180131646Y-82650853D01*
X180006147Y-82525354D01*
X179907544Y-82377784D01*
X179839624Y-82213812D01*
X179805000Y-82039741D01*
X179805000Y-81862259D01*
X179839624Y-81688188D01*
X179907544Y-81524216D01*
X180006147Y-81376646D01*
X180131646Y-81251147D01*
X180279216Y-81152544D01*
X180443188Y-81084624D01*
X180592488Y-81054927D01*
X180617258Y-81050000D01*
X180794742Y-81050000D01*
X180819512Y-81054927D01*
G37*
G36*
X100662831Y-78962841D02*
G01*
X100807826Y-78991682D01*
X100920974Y-79038550D01*
X101080989Y-79104830D01*
X101145880Y-79148189D01*
X101326832Y-79269097D01*
X101535903Y-79478168D01*
X101550318Y-79499742D01*
X101700170Y-79724011D01*
X101747295Y-79837782D01*
X101808422Y-79985353D01*
X101813318Y-79997175D01*
X101871000Y-80287163D01*
X101871000Y-80582837D01*
X101813318Y-80872825D01*
X101700170Y-81145989D01*
X101629905Y-81251148D01*
X101535903Y-81391832D01*
X101326832Y-81600903D01*
X101203076Y-81683594D01*
X101080989Y-81765170D01*
X100920974Y-81831450D01*
X100807826Y-81878318D01*
X100662831Y-81907159D01*
X100517837Y-81936000D01*
X100222163Y-81936000D01*
X100077169Y-81907159D01*
X99932174Y-81878318D01*
X99819026Y-81831450D01*
X99659011Y-81765170D01*
X99536924Y-81683594D01*
X99413168Y-81600903D01*
X99204097Y-81391832D01*
X99110095Y-81251148D01*
X99039830Y-81145989D01*
X98926682Y-80872825D01*
X98869000Y-80582837D01*
X98869000Y-80287163D01*
X98926682Y-79997175D01*
X98931579Y-79985353D01*
X98992705Y-79837782D01*
X99039830Y-79724011D01*
X99189682Y-79499742D01*
X99204097Y-79478168D01*
X99413168Y-79269097D01*
X99594120Y-79148189D01*
X99659011Y-79104830D01*
X99819026Y-79038550D01*
X99932174Y-78991682D01*
X100077169Y-78962841D01*
X100222163Y-78934000D01*
X100517837Y-78934000D01*
X100662831Y-78962841D01*
G37*
G36*
X178279512Y-78514927D02*
G01*
X178428812Y-78544624D01*
X178592784Y-78612544D01*
X178740354Y-78711147D01*
X178865853Y-78836646D01*
X178964456Y-78984216D01*
X179032376Y-79148188D01*
X179067000Y-79322259D01*
X179067000Y-79499741D01*
X179032376Y-79673812D01*
X178964456Y-79837784D01*
X178865853Y-79985354D01*
X178740354Y-80110853D01*
X178592784Y-80209456D01*
X178428812Y-80277376D01*
X178279512Y-80307073D01*
X178254742Y-80312000D01*
X178077258Y-80312000D01*
X178052488Y-80307073D01*
X177903188Y-80277376D01*
X177739216Y-80209456D01*
X177591646Y-80110853D01*
X177466147Y-79985354D01*
X177367544Y-79837784D01*
X177299624Y-79673812D01*
X177265000Y-79499741D01*
X177265000Y-79322259D01*
X177299624Y-79148188D01*
X177367544Y-78984216D01*
X177466147Y-78836646D01*
X177591646Y-78711147D01*
X177739216Y-78612544D01*
X177903188Y-78544624D01*
X178052488Y-78514927D01*
X178077258Y-78510000D01*
X178254742Y-78510000D01*
X178279512Y-78514927D01*
G37*
G36*
X180819512Y-78514927D02*
G01*
X180968812Y-78544624D01*
X181132784Y-78612544D01*
X181280354Y-78711147D01*
X181405853Y-78836646D01*
X181504456Y-78984216D01*
X181572376Y-79148188D01*
X181607000Y-79322259D01*
X181607000Y-79499741D01*
X181572376Y-79673812D01*
X181504456Y-79837784D01*
X181405853Y-79985354D01*
X181280354Y-80110853D01*
X181132784Y-80209456D01*
X180968812Y-80277376D01*
X180819512Y-80307073D01*
X180794742Y-80312000D01*
X180617258Y-80312000D01*
X180592488Y-80307073D01*
X180443188Y-80277376D01*
X180279216Y-80209456D01*
X180131646Y-80110853D01*
X180006147Y-79985354D01*
X179907544Y-79837784D01*
X179839624Y-79673812D01*
X179805000Y-79499741D01*
X179805000Y-79322259D01*
X179839624Y-79148188D01*
X179907544Y-78984216D01*
X180006147Y-78836646D01*
X180131646Y-78711147D01*
X180279216Y-78612544D01*
X180443188Y-78544624D01*
X180592488Y-78514927D01*
X180617258Y-78510000D01*
X180794742Y-78510000D01*
X180819512Y-78514927D01*
G37*
G36*
X178279512Y-75974927D02*
G01*
X178428812Y-76004624D01*
X178592784Y-76072544D01*
X178740354Y-76171147D01*
X178865853Y-76296646D01*
X178964456Y-76444216D01*
X179032376Y-76608188D01*
X179067000Y-76782259D01*
X179067000Y-76959741D01*
X179032376Y-77133812D01*
X178964456Y-77297784D01*
X178865853Y-77445354D01*
X178740354Y-77570853D01*
X178592784Y-77669456D01*
X178428812Y-77737376D01*
X178279512Y-77767073D01*
X178254742Y-77772000D01*
X178077258Y-77772000D01*
X178052488Y-77767073D01*
X177903188Y-77737376D01*
X177739216Y-77669456D01*
X177591646Y-77570853D01*
X177466147Y-77445354D01*
X177367544Y-77297784D01*
X177299624Y-77133812D01*
X177265000Y-76959741D01*
X177265000Y-76782259D01*
X177299624Y-76608188D01*
X177367544Y-76444216D01*
X177466147Y-76296646D01*
X177591646Y-76171147D01*
X177739216Y-76072544D01*
X177903188Y-76004624D01*
X178052488Y-75974927D01*
X178077258Y-75970000D01*
X178254742Y-75970000D01*
X178279512Y-75974927D01*
G37*
G36*
X180819512Y-75974927D02*
G01*
X180968812Y-76004624D01*
X181132784Y-76072544D01*
X181280354Y-76171147D01*
X181405853Y-76296646D01*
X181504456Y-76444216D01*
X181572376Y-76608188D01*
X181607000Y-76782259D01*
X181607000Y-76959741D01*
X181572376Y-77133812D01*
X181504456Y-77297784D01*
X181405853Y-77445354D01*
X181280354Y-77570853D01*
X181132784Y-77669456D01*
X180968812Y-77737376D01*
X180819512Y-77767073D01*
X180794742Y-77772000D01*
X180617258Y-77772000D01*
X180592488Y-77767073D01*
X180443188Y-77737376D01*
X180279216Y-77669456D01*
X180131646Y-77570853D01*
X180006147Y-77445354D01*
X179907544Y-77297784D01*
X179839624Y-77133812D01*
X179805000Y-76959741D01*
X179805000Y-76782259D01*
X179839624Y-76608188D01*
X179907544Y-76444216D01*
X180006147Y-76296646D01*
X180131646Y-76171147D01*
X180279216Y-76072544D01*
X180443188Y-76004624D01*
X180592488Y-75974927D01*
X180617258Y-75970000D01*
X180794742Y-75970000D01*
X180819512Y-75974927D01*
G37*
G36*
X100662831Y-73882841D02*
G01*
X100807826Y-73911682D01*
X100920974Y-73958550D01*
X101080989Y-74024830D01*
X101145880Y-74068189D01*
X101326832Y-74189097D01*
X101535903Y-74398168D01*
X101550318Y-74419742D01*
X101700170Y-74644011D01*
X101736260Y-74731140D01*
X101813318Y-74917174D01*
X101871000Y-75207164D01*
X101871000Y-75502836D01*
X101813318Y-75792826D01*
X101808058Y-75805524D01*
X101700170Y-76065989D01*
X101629905Y-76171148D01*
X101535903Y-76311832D01*
X101326832Y-76520903D01*
X101203076Y-76603594D01*
X101080989Y-76685170D01*
X100920974Y-76751450D01*
X100807826Y-76798318D01*
X100662831Y-76827159D01*
X100517837Y-76856000D01*
X100222163Y-76856000D01*
X100077169Y-76827159D01*
X99932174Y-76798318D01*
X99819026Y-76751450D01*
X99659011Y-76685170D01*
X99536924Y-76603594D01*
X99413168Y-76520903D01*
X99204097Y-76311832D01*
X99110095Y-76171148D01*
X99039830Y-76065989D01*
X98931942Y-75805524D01*
X98926682Y-75792826D01*
X98869000Y-75502836D01*
X98869000Y-75207164D01*
X98926682Y-74917174D01*
X99003740Y-74731140D01*
X99039830Y-74644011D01*
X99189682Y-74419742D01*
X99204097Y-74398168D01*
X99413168Y-74189097D01*
X99594120Y-74068189D01*
X99659011Y-74024830D01*
X99819026Y-73958550D01*
X99932174Y-73911682D01*
X100077169Y-73882841D01*
X100222163Y-73854000D01*
X100517837Y-73854000D01*
X100662831Y-73882841D01*
G37*
G36*
X121552199Y-72124954D02*
G01*
X121564450Y-72125556D01*
X121582869Y-72125556D01*
X121605149Y-72127750D01*
X121689233Y-72144476D01*
X121710660Y-72150976D01*
X121789858Y-72183780D01*
X121795303Y-72186691D01*
X121795309Y-72186693D01*
X121804169Y-72191429D01*
X121804173Y-72191432D01*
X121809614Y-72194340D01*
X121880899Y-72241971D01*
X121898204Y-72256172D01*
X121958828Y-72316796D01*
X121973029Y-72334101D01*
X122020660Y-72405386D01*
X122023568Y-72410827D01*
X122023571Y-72410831D01*
X122028307Y-72419691D01*
X122028309Y-72419697D01*
X122031220Y-72425142D01*
X122064024Y-72504340D01*
X122070524Y-72525767D01*
X122087250Y-72609851D01*
X122089444Y-72632131D01*
X122089444Y-72650550D01*
X122090046Y-72662801D01*
X122091852Y-72681139D01*
X122091852Y-73218860D01*
X122090263Y-73234999D01*
X122085855Y-73249528D01*
X122080394Y-73262711D01*
X122075612Y-73286745D01*
X122075611Y-73311249D01*
X122080391Y-73335282D01*
X122089768Y-73357921D01*
X122091000Y-73359765D01*
X122091000Y-74591050D01*
X122084525Y-74603164D01*
X122077412Y-74626613D01*
X122075010Y-74650999D01*
X122077412Y-74675385D01*
X122084525Y-74698834D01*
X122086848Y-74703746D01*
X122090263Y-74715001D01*
X122091852Y-74731140D01*
X122091852Y-75268862D01*
X122090046Y-75287199D01*
X122089444Y-75299450D01*
X122089444Y-75317869D01*
X122087250Y-75340149D01*
X122070524Y-75424233D01*
X122064024Y-75445660D01*
X122031220Y-75524858D01*
X122028309Y-75530303D01*
X122028307Y-75530309D01*
X122023571Y-75539169D01*
X122023568Y-75539173D01*
X122020660Y-75544614D01*
X121973029Y-75615899D01*
X121958828Y-75633204D01*
X121898204Y-75693828D01*
X121880899Y-75708029D01*
X121809614Y-75755660D01*
X121804173Y-75758568D01*
X121804169Y-75758571D01*
X121795309Y-75763307D01*
X121795303Y-75763309D01*
X121789858Y-75766220D01*
X121710660Y-75799024D01*
X121689233Y-75805524D01*
X121605149Y-75822250D01*
X121582869Y-75824444D01*
X121564450Y-75824444D01*
X121552199Y-75825046D01*
X121533862Y-75826852D01*
X121046138Y-75826852D01*
X121027801Y-75825046D01*
X121015550Y-75824444D01*
X120997131Y-75824444D01*
X120974851Y-75822250D01*
X120890767Y-75805524D01*
X120869340Y-75799024D01*
X120790142Y-75766220D01*
X120784697Y-75763309D01*
X120784691Y-75763307D01*
X120775831Y-75758571D01*
X120775827Y-75758568D01*
X120770386Y-75755660D01*
X120699101Y-75708029D01*
X120681796Y-75693828D01*
X120621172Y-75633204D01*
X120606971Y-75615899D01*
X120559340Y-75544614D01*
X120556432Y-75539173D01*
X120556429Y-75539169D01*
X120551693Y-75530309D01*
X120551691Y-75530303D01*
X120548780Y-75524858D01*
X120515976Y-75445660D01*
X120509476Y-75424233D01*
X120492750Y-75340149D01*
X120490556Y-75317869D01*
X120490556Y-75299450D01*
X120489954Y-75287199D01*
X120488148Y-75268862D01*
X120488148Y-74731140D01*
X120489737Y-74715001D01*
X120494145Y-74700472D01*
X120499606Y-74687289D01*
X120504388Y-74663255D01*
X120504389Y-74638751D01*
X120499609Y-74614718D01*
X120490232Y-74592079D01*
X120489000Y-74590235D01*
X120489000Y-73358950D01*
X120495475Y-73346836D01*
X120502588Y-73323387D01*
X120504990Y-73299001D01*
X120502588Y-73274615D01*
X120495475Y-73251166D01*
X120493152Y-73246254D01*
X120489737Y-73234999D01*
X120488148Y-73218860D01*
X120488148Y-72681139D01*
X120489954Y-72662801D01*
X120490556Y-72650550D01*
X120490556Y-72632131D01*
X120492750Y-72609851D01*
X120509476Y-72525767D01*
X120515976Y-72504340D01*
X120548780Y-72425142D01*
X120551691Y-72419697D01*
X120551693Y-72419691D01*
X120556429Y-72410831D01*
X120556432Y-72410827D01*
X120559340Y-72405386D01*
X120606971Y-72334101D01*
X120621172Y-72316796D01*
X120681796Y-72256172D01*
X120699101Y-72241971D01*
X120770386Y-72194340D01*
X120775827Y-72191432D01*
X120775831Y-72191429D01*
X120784691Y-72186693D01*
X120784697Y-72186691D01*
X120790142Y-72183780D01*
X120869340Y-72150976D01*
X120890767Y-72144476D01*
X120974851Y-72127750D01*
X120997131Y-72125556D01*
X121015550Y-72125556D01*
X121027801Y-72124954D01*
X121046139Y-72123148D01*
X121533861Y-72123148D01*
X121552199Y-72124954D01*
G37*
G36*
X179067000Y-75232000D02*
G01*
X177265000Y-75232000D01*
X177265000Y-73430000D01*
X179067000Y-73430000D01*
X179067000Y-75232000D01*
G37*
G36*
X180819512Y-73434927D02*
G01*
X180968812Y-73464624D01*
X181132784Y-73532544D01*
X181280354Y-73631147D01*
X181405853Y-73756646D01*
X181504456Y-73904216D01*
X181572376Y-74068188D01*
X181607000Y-74242259D01*
X181607000Y-74419741D01*
X181572376Y-74593812D01*
X181504456Y-74757784D01*
X181405853Y-74905354D01*
X181280354Y-75030853D01*
X181132784Y-75129456D01*
X180968812Y-75197376D01*
X180819512Y-75227073D01*
X180794742Y-75232000D01*
X180617258Y-75232000D01*
X180592488Y-75227073D01*
X180443188Y-75197376D01*
X180279216Y-75129456D01*
X180131646Y-75030853D01*
X180006147Y-74905354D01*
X179907544Y-74757784D01*
X179839624Y-74593812D01*
X179805000Y-74419741D01*
X179805000Y-74242259D01*
X179839624Y-74068188D01*
X179907544Y-73904216D01*
X180006147Y-73756646D01*
X180131646Y-73631147D01*
X180279216Y-73532544D01*
X180443188Y-73464624D01*
X180592488Y-73434927D01*
X180617258Y-73430000D01*
X180794742Y-73430000D01*
X180819512Y-73434927D01*
G37*
G36*
X124663512Y-61418927D02*
G01*
X124812812Y-61448624D01*
X124976784Y-61516544D01*
X125124354Y-61615147D01*
X125249853Y-61740646D01*
X125348456Y-61888216D01*
X125416376Y-62052188D01*
X125451000Y-62226259D01*
X125451000Y-62403741D01*
X125416376Y-62577812D01*
X125348456Y-62741784D01*
X125249853Y-62889354D01*
X125124354Y-63014853D01*
X124976784Y-63113456D01*
X124812812Y-63181376D01*
X124663512Y-63211073D01*
X124638742Y-63216000D01*
X124461258Y-63216000D01*
X124436488Y-63211073D01*
X124287188Y-63181376D01*
X124123216Y-63113456D01*
X123975646Y-63014853D01*
X123850147Y-62889354D01*
X123751544Y-62741784D01*
X123683624Y-62577812D01*
X123649000Y-62403741D01*
X123649000Y-62226259D01*
X123683624Y-62052188D01*
X123751544Y-61888216D01*
X123850147Y-61740646D01*
X123975646Y-61615147D01*
X124123216Y-61516544D01*
X124287188Y-61448624D01*
X124436488Y-61418927D01*
X124461258Y-61414000D01*
X124638742Y-61414000D01*
X124663512Y-61418927D01*
G37*
G36*
X122123512Y-61418927D02*
G01*
X122272812Y-61448624D01*
X122436784Y-61516544D01*
X122584354Y-61615147D01*
X122709853Y-61740646D01*
X122808456Y-61888216D01*
X122876376Y-62052188D01*
X122911000Y-62226259D01*
X122911000Y-62403741D01*
X122876376Y-62577812D01*
X122808456Y-62741784D01*
X122709853Y-62889354D01*
X122584354Y-63014853D01*
X122436784Y-63113456D01*
X122272812Y-63181376D01*
X122123512Y-63211073D01*
X122098742Y-63216000D01*
X121921258Y-63216000D01*
X121896488Y-63211073D01*
X121747188Y-63181376D01*
X121583216Y-63113456D01*
X121435646Y-63014853D01*
X121310147Y-62889354D01*
X121211544Y-62741784D01*
X121143624Y-62577812D01*
X121109000Y-62403741D01*
X121109000Y-62226259D01*
X121143624Y-62052188D01*
X121211544Y-61888216D01*
X121310147Y-61740646D01*
X121435646Y-61615147D01*
X121583216Y-61516544D01*
X121747188Y-61448624D01*
X121896488Y-61418927D01*
X121921258Y-61414000D01*
X122098742Y-61414000D01*
X122123512Y-61418927D01*
G37*
G36*
X127203512Y-61418927D02*
G01*
X127352812Y-61448624D01*
X127516784Y-61516544D01*
X127664354Y-61615147D01*
X127789853Y-61740646D01*
X127888456Y-61888216D01*
X127956376Y-62052188D01*
X127991000Y-62226259D01*
X127991000Y-62403741D01*
X127956376Y-62577812D01*
X127888456Y-62741784D01*
X127789853Y-62889354D01*
X127664354Y-63014853D01*
X127516784Y-63113456D01*
X127352812Y-63181376D01*
X127203512Y-63211073D01*
X127178742Y-63216000D01*
X127001258Y-63216000D01*
X126976488Y-63211073D01*
X126827188Y-63181376D01*
X126663216Y-63113456D01*
X126515646Y-63014853D01*
X126390147Y-62889354D01*
X126291544Y-62741784D01*
X126223624Y-62577812D01*
X126189000Y-62403741D01*
X126189000Y-62226259D01*
X126223624Y-62052188D01*
X126291544Y-61888216D01*
X126390147Y-61740646D01*
X126515646Y-61615147D01*
X126663216Y-61516544D01*
X126827188Y-61448624D01*
X126976488Y-61418927D01*
X127001258Y-61414000D01*
X127178742Y-61414000D01*
X127203512Y-61418927D01*
G37*
G36*
X119583512Y-61418927D02*
G01*
X119732812Y-61448624D01*
X119896784Y-61516544D01*
X120044354Y-61615147D01*
X120169853Y-61740646D01*
X120268456Y-61888216D01*
X120336376Y-62052188D01*
X120371000Y-62226259D01*
X120371000Y-62403741D01*
X120336376Y-62577812D01*
X120268456Y-62741784D01*
X120169853Y-62889354D01*
X120044354Y-63014853D01*
X119896784Y-63113456D01*
X119732812Y-63181376D01*
X119583512Y-63211073D01*
X119558742Y-63216000D01*
X119381258Y-63216000D01*
X119356488Y-63211073D01*
X119207188Y-63181376D01*
X119043216Y-63113456D01*
X118895646Y-63014853D01*
X118770147Y-62889354D01*
X118671544Y-62741784D01*
X118603624Y-62577812D01*
X118569000Y-62403741D01*
X118569000Y-62226259D01*
X118603624Y-62052188D01*
X118671544Y-61888216D01*
X118770147Y-61740646D01*
X118895646Y-61615147D01*
X119043216Y-61516544D01*
X119207188Y-61448624D01*
X119356488Y-61418927D01*
X119381258Y-61414000D01*
X119558742Y-61414000D01*
X119583512Y-61418927D01*
G37*
G36*
X117043512Y-61418927D02*
G01*
X117192812Y-61448624D01*
X117356784Y-61516544D01*
X117504354Y-61615147D01*
X117629853Y-61740646D01*
X117728456Y-61888216D01*
X117796376Y-62052188D01*
X117831000Y-62226259D01*
X117831000Y-62403741D01*
X117796376Y-62577812D01*
X117728456Y-62741784D01*
X117629853Y-62889354D01*
X117504354Y-63014853D01*
X117356784Y-63113456D01*
X117192812Y-63181376D01*
X117043512Y-63211073D01*
X117018742Y-63216000D01*
X116841258Y-63216000D01*
X116816488Y-63211073D01*
X116667188Y-63181376D01*
X116503216Y-63113456D01*
X116355646Y-63014853D01*
X116230147Y-62889354D01*
X116131544Y-62741784D01*
X116063624Y-62577812D01*
X116029000Y-62403741D01*
X116029000Y-62226259D01*
X116063624Y-62052188D01*
X116131544Y-61888216D01*
X116230147Y-61740646D01*
X116355646Y-61615147D01*
X116503216Y-61516544D01*
X116667188Y-61448624D01*
X116816488Y-61418927D01*
X116841258Y-61414000D01*
X117018742Y-61414000D01*
X117043512Y-61418927D01*
G37*
G36*
X129743512Y-61418927D02*
G01*
X129892812Y-61448624D01*
X130056784Y-61516544D01*
X130204354Y-61615147D01*
X130329853Y-61740646D01*
X130428456Y-61888216D01*
X130496376Y-62052188D01*
X130531000Y-62226259D01*
X130531000Y-62403741D01*
X130496376Y-62577812D01*
X130428456Y-62741784D01*
X130329853Y-62889354D01*
X130204354Y-63014853D01*
X130056784Y-63113456D01*
X129892812Y-63181376D01*
X129743512Y-63211073D01*
X129718742Y-63216000D01*
X129541258Y-63216000D01*
X129516488Y-63211073D01*
X129367188Y-63181376D01*
X129203216Y-63113456D01*
X129055646Y-63014853D01*
X128930147Y-62889354D01*
X128831544Y-62741784D01*
X128763624Y-62577812D01*
X128729000Y-62403741D01*
X128729000Y-62226259D01*
X128763624Y-62052188D01*
X128831544Y-61888216D01*
X128930147Y-61740646D01*
X129055646Y-61615147D01*
X129203216Y-61516544D01*
X129367188Y-61448624D01*
X129516488Y-61418927D01*
X129541258Y-61414000D01*
X129718742Y-61414000D01*
X129743512Y-61418927D01*
G37*
G36*
X114503512Y-61418927D02*
G01*
X114652812Y-61448624D01*
X114816784Y-61516544D01*
X114964354Y-61615147D01*
X115089853Y-61740646D01*
X115188456Y-61888216D01*
X115256376Y-62052188D01*
X115291000Y-62226259D01*
X115291000Y-62403741D01*
X115256376Y-62577812D01*
X115188456Y-62741784D01*
X115089853Y-62889354D01*
X114964354Y-63014853D01*
X114816784Y-63113456D01*
X114652812Y-63181376D01*
X114503512Y-63211073D01*
X114478742Y-63216000D01*
X114301258Y-63216000D01*
X114276488Y-63211073D01*
X114127188Y-63181376D01*
X113963216Y-63113456D01*
X113815646Y-63014853D01*
X113690147Y-62889354D01*
X113591544Y-62741784D01*
X113523624Y-62577812D01*
X113489000Y-62403741D01*
X113489000Y-62226259D01*
X113523624Y-62052188D01*
X113591544Y-61888216D01*
X113690147Y-61740646D01*
X113815646Y-61615147D01*
X113963216Y-61516544D01*
X114127188Y-61448624D01*
X114276488Y-61418927D01*
X114301258Y-61414000D01*
X114478742Y-61414000D01*
X114503512Y-61418927D01*
G37*
G36*
X111963512Y-61418927D02*
G01*
X112112812Y-61448624D01*
X112276784Y-61516544D01*
X112424354Y-61615147D01*
X112549853Y-61740646D01*
X112648456Y-61888216D01*
X112716376Y-62052188D01*
X112751000Y-62226259D01*
X112751000Y-62403741D01*
X112716376Y-62577812D01*
X112648456Y-62741784D01*
X112549853Y-62889354D01*
X112424354Y-63014853D01*
X112276784Y-63113456D01*
X112112812Y-63181376D01*
X111963512Y-63211073D01*
X111938742Y-63216000D01*
X111761258Y-63216000D01*
X111736488Y-63211073D01*
X111587188Y-63181376D01*
X111423216Y-63113456D01*
X111275646Y-63014853D01*
X111150147Y-62889354D01*
X111051544Y-62741784D01*
X110983624Y-62577812D01*
X110949000Y-62403741D01*
X110949000Y-62226259D01*
X110983624Y-62052188D01*
X111051544Y-61888216D01*
X111150147Y-61740646D01*
X111275646Y-61615147D01*
X111423216Y-61516544D01*
X111587188Y-61448624D01*
X111736488Y-61418927D01*
X111761258Y-61414000D01*
X111938742Y-61414000D01*
X111963512Y-61418927D01*
G37*
G36*
X132283512Y-61418927D02*
G01*
X132432812Y-61448624D01*
X132596784Y-61516544D01*
X132744354Y-61615147D01*
X132869853Y-61740646D01*
X132968456Y-61888216D01*
X133036376Y-62052188D01*
X133071000Y-62226259D01*
X133071000Y-62403741D01*
X133036376Y-62577812D01*
X132968456Y-62741784D01*
X132869853Y-62889354D01*
X132744354Y-63014853D01*
X132596784Y-63113456D01*
X132432812Y-63181376D01*
X132283512Y-63211073D01*
X132258742Y-63216000D01*
X132081258Y-63216000D01*
X132056488Y-63211073D01*
X131907188Y-63181376D01*
X131743216Y-63113456D01*
X131595646Y-63014853D01*
X131470147Y-62889354D01*
X131371544Y-62741784D01*
X131303624Y-62577812D01*
X131269000Y-62403741D01*
X131269000Y-62226259D01*
X131303624Y-62052188D01*
X131371544Y-61888216D01*
X131470147Y-61740646D01*
X131595646Y-61615147D01*
X131743216Y-61516544D01*
X131907188Y-61448624D01*
X132056488Y-61418927D01*
X132081258Y-61414000D01*
X132258742Y-61414000D01*
X132283512Y-61418927D01*
G37*
G36*
X109423512Y-61418927D02*
G01*
X109572812Y-61448624D01*
X109736784Y-61516544D01*
X109884354Y-61615147D01*
X110009853Y-61740646D01*
X110108456Y-61888216D01*
X110176376Y-62052188D01*
X110211000Y-62226259D01*
X110211000Y-62403741D01*
X110176376Y-62577812D01*
X110108456Y-62741784D01*
X110009853Y-62889354D01*
X109884354Y-63014853D01*
X109736784Y-63113456D01*
X109572812Y-63181376D01*
X109423512Y-63211073D01*
X109398742Y-63216000D01*
X109221258Y-63216000D01*
X109196488Y-63211073D01*
X109047188Y-63181376D01*
X108883216Y-63113456D01*
X108735646Y-63014853D01*
X108610147Y-62889354D01*
X108511544Y-62741784D01*
X108443624Y-62577812D01*
X108409000Y-62403741D01*
X108409000Y-62226259D01*
X108443624Y-62052188D01*
X108511544Y-61888216D01*
X108610147Y-61740646D01*
X108735646Y-61615147D01*
X108883216Y-61516544D01*
X109047188Y-61448624D01*
X109196488Y-61418927D01*
X109221258Y-61414000D01*
X109398742Y-61414000D01*
X109423512Y-61418927D01*
G37*
G36*
X106883512Y-61418927D02*
G01*
X107032812Y-61448624D01*
X107196784Y-61516544D01*
X107344354Y-61615147D01*
X107469853Y-61740646D01*
X107568456Y-61888216D01*
X107636376Y-62052188D01*
X107671000Y-62226259D01*
X107671000Y-62403741D01*
X107636376Y-62577812D01*
X107568456Y-62741784D01*
X107469853Y-62889354D01*
X107344354Y-63014853D01*
X107196784Y-63113456D01*
X107032812Y-63181376D01*
X106883512Y-63211073D01*
X106858742Y-63216000D01*
X106681258Y-63216000D01*
X106656488Y-63211073D01*
X106507188Y-63181376D01*
X106343216Y-63113456D01*
X106195646Y-63014853D01*
X106070147Y-62889354D01*
X105971544Y-62741784D01*
X105903624Y-62577812D01*
X105869000Y-62403741D01*
X105869000Y-62226259D01*
X105903624Y-62052188D01*
X105971544Y-61888216D01*
X106070147Y-61740646D01*
X106195646Y-61615147D01*
X106343216Y-61516544D01*
X106507188Y-61448624D01*
X106656488Y-61418927D01*
X106681258Y-61414000D01*
X106858742Y-61414000D01*
X106883512Y-61418927D01*
G37*
G36*
X134823512Y-61418927D02*
G01*
X134972812Y-61448624D01*
X135136784Y-61516544D01*
X135284354Y-61615147D01*
X135409853Y-61740646D01*
X135508456Y-61888216D01*
X135576376Y-62052188D01*
X135611000Y-62226259D01*
X135611000Y-62403741D01*
X135576376Y-62577812D01*
X135508456Y-62741784D01*
X135409853Y-62889354D01*
X135284354Y-63014853D01*
X135136784Y-63113456D01*
X134972812Y-63181376D01*
X134823512Y-63211073D01*
X134798742Y-63216000D01*
X134621258Y-63216000D01*
X134596488Y-63211073D01*
X134447188Y-63181376D01*
X134283216Y-63113456D01*
X134135646Y-63014853D01*
X134010147Y-62889354D01*
X133911544Y-62741784D01*
X133843624Y-62577812D01*
X133809000Y-62403741D01*
X133809000Y-62226259D01*
X133843624Y-62052188D01*
X133911544Y-61888216D01*
X134010147Y-61740646D01*
X134135646Y-61615147D01*
X134283216Y-61516544D01*
X134447188Y-61448624D01*
X134596488Y-61418927D01*
X134621258Y-61414000D01*
X134798742Y-61414000D01*
X134823512Y-61418927D01*
G37*
G36*
X104343512Y-61418927D02*
G01*
X104492812Y-61448624D01*
X104656784Y-61516544D01*
X104804354Y-61615147D01*
X104929853Y-61740646D01*
X105028456Y-61888216D01*
X105096376Y-62052188D01*
X105131000Y-62226259D01*
X105131000Y-62403741D01*
X105096376Y-62577812D01*
X105028456Y-62741784D01*
X104929853Y-62889354D01*
X104804354Y-63014853D01*
X104656784Y-63113456D01*
X104492812Y-63181376D01*
X104343512Y-63211073D01*
X104318742Y-63216000D01*
X104141258Y-63216000D01*
X104116488Y-63211073D01*
X103967188Y-63181376D01*
X103803216Y-63113456D01*
X103655646Y-63014853D01*
X103530147Y-62889354D01*
X103431544Y-62741784D01*
X103363624Y-62577812D01*
X103329000Y-62403741D01*
X103329000Y-62226259D01*
X103363624Y-62052188D01*
X103431544Y-61888216D01*
X103530147Y-61740646D01*
X103655646Y-61615147D01*
X103803216Y-61516544D01*
X103967188Y-61448624D01*
X104116488Y-61418927D01*
X104141258Y-61414000D01*
X104318742Y-61414000D01*
X104343512Y-61418927D01*
G37*
G36*
X99263512Y-61418927D02*
G01*
X99412812Y-61448624D01*
X99576784Y-61516544D01*
X99724354Y-61615147D01*
X99849853Y-61740646D01*
X99948456Y-61888216D01*
X100016376Y-62052188D01*
X100051000Y-62226259D01*
X100051000Y-62403741D01*
X100016376Y-62577812D01*
X99948456Y-62741784D01*
X99849853Y-62889354D01*
X99724354Y-63014853D01*
X99576784Y-63113456D01*
X99412812Y-63181376D01*
X99263512Y-63211073D01*
X99238742Y-63216000D01*
X99061258Y-63216000D01*
X99036488Y-63211073D01*
X98887188Y-63181376D01*
X98723216Y-63113456D01*
X98575646Y-63014853D01*
X98450147Y-62889354D01*
X98351544Y-62741784D01*
X98283624Y-62577812D01*
X98249000Y-62403741D01*
X98249000Y-62226259D01*
X98283624Y-62052188D01*
X98351544Y-61888216D01*
X98450147Y-61740646D01*
X98575646Y-61615147D01*
X98723216Y-61516544D01*
X98887188Y-61448624D01*
X99036488Y-61418927D01*
X99061258Y-61414000D01*
X99238742Y-61414000D01*
X99263512Y-61418927D01*
G37*
G36*
X137363512Y-61418927D02*
G01*
X137512812Y-61448624D01*
X137676784Y-61516544D01*
X137824354Y-61615147D01*
X137949853Y-61740646D01*
X138048456Y-61888216D01*
X138116376Y-62052188D01*
X138151000Y-62226259D01*
X138151000Y-62403741D01*
X138116376Y-62577812D01*
X138048456Y-62741784D01*
X137949853Y-62889354D01*
X137824354Y-63014853D01*
X137676784Y-63113456D01*
X137512812Y-63181376D01*
X137363512Y-63211073D01*
X137338742Y-63216000D01*
X137161258Y-63216000D01*
X137136488Y-63211073D01*
X136987188Y-63181376D01*
X136823216Y-63113456D01*
X136675646Y-63014853D01*
X136550147Y-62889354D01*
X136451544Y-62741784D01*
X136383624Y-62577812D01*
X136349000Y-62403741D01*
X136349000Y-62226259D01*
X136383624Y-62052188D01*
X136451544Y-61888216D01*
X136550147Y-61740646D01*
X136675646Y-61615147D01*
X136823216Y-61516544D01*
X136987188Y-61448624D01*
X137136488Y-61418927D01*
X137161258Y-61414000D01*
X137338742Y-61414000D01*
X137363512Y-61418927D01*
G37*
G36*
X101803512Y-61418927D02*
G01*
X101952812Y-61448624D01*
X102116784Y-61516544D01*
X102264354Y-61615147D01*
X102389853Y-61740646D01*
X102488456Y-61888216D01*
X102556376Y-62052188D01*
X102591000Y-62226259D01*
X102591000Y-62403741D01*
X102556376Y-62577812D01*
X102488456Y-62741784D01*
X102389853Y-62889354D01*
X102264354Y-63014853D01*
X102116784Y-63113456D01*
X101952812Y-63181376D01*
X101803512Y-63211073D01*
X101778742Y-63216000D01*
X101601258Y-63216000D01*
X101576488Y-63211073D01*
X101427188Y-63181376D01*
X101263216Y-63113456D01*
X101115646Y-63014853D01*
X100990147Y-62889354D01*
X100891544Y-62741784D01*
X100823624Y-62577812D01*
X100789000Y-62403741D01*
X100789000Y-62226259D01*
X100823624Y-62052188D01*
X100891544Y-61888216D01*
X100990147Y-61740646D01*
X101115646Y-61615147D01*
X101263216Y-61516544D01*
X101427188Y-61448624D01*
X101576488Y-61418927D01*
X101601258Y-61414000D01*
X101778742Y-61414000D01*
X101803512Y-61418927D01*
G37*
G36*
X152603512Y-61418927D02*
G01*
X152752812Y-61448624D01*
X152916784Y-61516544D01*
X153064354Y-61615147D01*
X153189853Y-61740646D01*
X153288456Y-61888216D01*
X153356376Y-62052188D01*
X153391000Y-62226259D01*
X153391000Y-62403741D01*
X153356376Y-62577812D01*
X153288456Y-62741784D01*
X153189853Y-62889354D01*
X153064354Y-63014853D01*
X152916784Y-63113456D01*
X152752812Y-63181376D01*
X152603512Y-63211073D01*
X152578742Y-63216000D01*
X152401258Y-63216000D01*
X152376488Y-63211073D01*
X152227188Y-63181376D01*
X152063216Y-63113456D01*
X151915646Y-63014853D01*
X151790147Y-62889354D01*
X151691544Y-62741784D01*
X151623624Y-62577812D01*
X151589000Y-62403741D01*
X151589000Y-62226259D01*
X151623624Y-62052188D01*
X151691544Y-61888216D01*
X151790147Y-61740646D01*
X151915646Y-61615147D01*
X152063216Y-61516544D01*
X152227188Y-61448624D01*
X152376488Y-61418927D01*
X152401258Y-61414000D01*
X152578742Y-61414000D01*
X152603512Y-61418927D01*
G37*
G36*
X155143512Y-61418927D02*
G01*
X155292812Y-61448624D01*
X155456784Y-61516544D01*
X155604354Y-61615147D01*
X155729853Y-61740646D01*
X155828456Y-61888216D01*
X155896376Y-62052188D01*
X155931000Y-62226259D01*
X155931000Y-62403741D01*
X155896376Y-62577812D01*
X155828456Y-62741784D01*
X155729853Y-62889354D01*
X155604354Y-63014853D01*
X155456784Y-63113456D01*
X155292812Y-63181376D01*
X155143512Y-63211073D01*
X155118742Y-63216000D01*
X154941258Y-63216000D01*
X154916488Y-63211073D01*
X154767188Y-63181376D01*
X154603216Y-63113456D01*
X154455646Y-63014853D01*
X154330147Y-62889354D01*
X154231544Y-62741784D01*
X154163624Y-62577812D01*
X154129000Y-62403741D01*
X154129000Y-62226259D01*
X154163624Y-62052188D01*
X154231544Y-61888216D01*
X154330147Y-61740646D01*
X154455646Y-61615147D01*
X154603216Y-61516544D01*
X154767188Y-61448624D01*
X154916488Y-61418927D01*
X154941258Y-61414000D01*
X155118742Y-61414000D01*
X155143512Y-61418927D01*
G37*
G36*
X157683512Y-61418927D02*
G01*
X157832812Y-61448624D01*
X157996784Y-61516544D01*
X158144354Y-61615147D01*
X158269853Y-61740646D01*
X158368456Y-61888216D01*
X158436376Y-62052188D01*
X158471000Y-62226259D01*
X158471000Y-62403741D01*
X158436376Y-62577812D01*
X158368456Y-62741784D01*
X158269853Y-62889354D01*
X158144354Y-63014853D01*
X157996784Y-63113456D01*
X157832812Y-63181376D01*
X157683512Y-63211073D01*
X157658742Y-63216000D01*
X157481258Y-63216000D01*
X157456488Y-63211073D01*
X157307188Y-63181376D01*
X157143216Y-63113456D01*
X156995646Y-63014853D01*
X156870147Y-62889354D01*
X156771544Y-62741784D01*
X156703624Y-62577812D01*
X156669000Y-62403741D01*
X156669000Y-62226259D01*
X156703624Y-62052188D01*
X156771544Y-61888216D01*
X156870147Y-61740646D01*
X156995646Y-61615147D01*
X157143216Y-61516544D01*
X157307188Y-61448624D01*
X157456488Y-61418927D01*
X157481258Y-61414000D01*
X157658742Y-61414000D01*
X157683512Y-61418927D01*
G37*
G36*
X150063512Y-61418927D02*
G01*
X150212812Y-61448624D01*
X150376784Y-61516544D01*
X150524354Y-61615147D01*
X150649853Y-61740646D01*
X150748456Y-61888216D01*
X150816376Y-62052188D01*
X150851000Y-62226259D01*
X150851000Y-62403741D01*
X150816376Y-62577812D01*
X150748456Y-62741784D01*
X150649853Y-62889354D01*
X150524354Y-63014853D01*
X150376784Y-63113456D01*
X150212812Y-63181376D01*
X150063512Y-63211073D01*
X150038742Y-63216000D01*
X149861258Y-63216000D01*
X149836488Y-63211073D01*
X149687188Y-63181376D01*
X149523216Y-63113456D01*
X149375646Y-63014853D01*
X149250147Y-62889354D01*
X149151544Y-62741784D01*
X149083624Y-62577812D01*
X149049000Y-62403741D01*
X149049000Y-62226259D01*
X149083624Y-62052188D01*
X149151544Y-61888216D01*
X149250147Y-61740646D01*
X149375646Y-61615147D01*
X149523216Y-61516544D01*
X149687188Y-61448624D01*
X149836488Y-61418927D01*
X149861258Y-61414000D01*
X150038742Y-61414000D01*
X150063512Y-61418927D01*
G37*
G36*
X144983512Y-61418927D02*
G01*
X145132812Y-61448624D01*
X145296784Y-61516544D01*
X145444354Y-61615147D01*
X145569853Y-61740646D01*
X145668456Y-61888216D01*
X145736376Y-62052188D01*
X145771000Y-62226259D01*
X145771000Y-62403741D01*
X145736376Y-62577812D01*
X145668456Y-62741784D01*
X145569853Y-62889354D01*
X145444354Y-63014853D01*
X145296784Y-63113456D01*
X145132812Y-63181376D01*
X144983512Y-63211073D01*
X144958742Y-63216000D01*
X144781258Y-63216000D01*
X144756488Y-63211073D01*
X144607188Y-63181376D01*
X144443216Y-63113456D01*
X144295646Y-63014853D01*
X144170147Y-62889354D01*
X144071544Y-62741784D01*
X144003624Y-62577812D01*
X143969000Y-62403741D01*
X143969000Y-62226259D01*
X144003624Y-62052188D01*
X144071544Y-61888216D01*
X144170147Y-61740646D01*
X144295646Y-61615147D01*
X144443216Y-61516544D01*
X144607188Y-61448624D01*
X144756488Y-61418927D01*
X144781258Y-61414000D01*
X144958742Y-61414000D01*
X144983512Y-61418927D01*
G37*
G36*
X142443512Y-61418927D02*
G01*
X142592812Y-61448624D01*
X142756784Y-61516544D01*
X142904354Y-61615147D01*
X143029853Y-61740646D01*
X143128456Y-61888216D01*
X143196376Y-62052188D01*
X143231000Y-62226259D01*
X143231000Y-62403741D01*
X143196376Y-62577812D01*
X143128456Y-62741784D01*
X143029853Y-62889354D01*
X142904354Y-63014853D01*
X142756784Y-63113456D01*
X142592812Y-63181376D01*
X142443512Y-63211073D01*
X142418742Y-63216000D01*
X142241258Y-63216000D01*
X142216488Y-63211073D01*
X142067188Y-63181376D01*
X141903216Y-63113456D01*
X141755646Y-63014853D01*
X141630147Y-62889354D01*
X141531544Y-62741784D01*
X141463624Y-62577812D01*
X141429000Y-62403741D01*
X141429000Y-62226259D01*
X141463624Y-62052188D01*
X141531544Y-61888216D01*
X141630147Y-61740646D01*
X141755646Y-61615147D01*
X141903216Y-61516544D01*
X142067188Y-61448624D01*
X142216488Y-61418927D01*
X142241258Y-61414000D01*
X142418742Y-61414000D01*
X142443512Y-61418927D01*
G37*
G36*
X139903512Y-61418927D02*
G01*
X140052812Y-61448624D01*
X140216784Y-61516544D01*
X140364354Y-61615147D01*
X140489853Y-61740646D01*
X140588456Y-61888216D01*
X140656376Y-62052188D01*
X140691000Y-62226259D01*
X140691000Y-62403741D01*
X140656376Y-62577812D01*
X140588456Y-62741784D01*
X140489853Y-62889354D01*
X140364354Y-63014853D01*
X140216784Y-63113456D01*
X140052812Y-63181376D01*
X139903512Y-63211073D01*
X139878742Y-63216000D01*
X139701258Y-63216000D01*
X139676488Y-63211073D01*
X139527188Y-63181376D01*
X139363216Y-63113456D01*
X139215646Y-63014853D01*
X139090147Y-62889354D01*
X138991544Y-62741784D01*
X138923624Y-62577812D01*
X138889000Y-62403741D01*
X138889000Y-62226259D01*
X138923624Y-62052188D01*
X138991544Y-61888216D01*
X139090147Y-61740646D01*
X139215646Y-61615147D01*
X139363216Y-61516544D01*
X139527188Y-61448624D01*
X139676488Y-61418927D01*
X139701258Y-61414000D01*
X139878742Y-61414000D01*
X139903512Y-61418927D01*
G37*
G36*
X96723512Y-61418927D02*
G01*
X96872812Y-61448624D01*
X97036784Y-61516544D01*
X97184354Y-61615147D01*
X97309853Y-61740646D01*
X97408456Y-61888216D01*
X97476376Y-62052188D01*
X97511000Y-62226259D01*
X97511000Y-62403741D01*
X97476376Y-62577812D01*
X97408456Y-62741784D01*
X97309853Y-62889354D01*
X97184354Y-63014853D01*
X97036784Y-63113456D01*
X96872812Y-63181376D01*
X96723512Y-63211073D01*
X96698742Y-63216000D01*
X96521258Y-63216000D01*
X96496488Y-63211073D01*
X96347188Y-63181376D01*
X96183216Y-63113456D01*
X96035646Y-63014853D01*
X95910147Y-62889354D01*
X95811544Y-62741784D01*
X95743624Y-62577812D01*
X95709000Y-62403741D01*
X95709000Y-62226259D01*
X95743624Y-62052188D01*
X95811544Y-61888216D01*
X95910147Y-61740646D01*
X96035646Y-61615147D01*
X96183216Y-61516544D01*
X96347188Y-61448624D01*
X96496488Y-61418927D01*
X96521258Y-61414000D01*
X96698742Y-61414000D01*
X96723512Y-61418927D01*
G37*
G36*
X147523512Y-61418927D02*
G01*
X147672812Y-61448624D01*
X147836784Y-61516544D01*
X147984354Y-61615147D01*
X148109853Y-61740646D01*
X148208456Y-61888216D01*
X148276376Y-62052188D01*
X148311000Y-62226259D01*
X148311000Y-62403741D01*
X148276376Y-62577812D01*
X148208456Y-62741784D01*
X148109853Y-62889354D01*
X147984354Y-63014853D01*
X147836784Y-63113456D01*
X147672812Y-63181376D01*
X147523512Y-63211073D01*
X147498742Y-63216000D01*
X147321258Y-63216000D01*
X147296488Y-63211073D01*
X147147188Y-63181376D01*
X146983216Y-63113456D01*
X146835646Y-63014853D01*
X146710147Y-62889354D01*
X146611544Y-62741784D01*
X146543624Y-62577812D01*
X146509000Y-62403741D01*
X146509000Y-62226259D01*
X146543624Y-62052188D01*
X146611544Y-61888216D01*
X146710147Y-61740646D01*
X146835646Y-61615147D01*
X146983216Y-61516544D01*
X147147188Y-61448624D01*
X147296488Y-61418927D01*
X147321258Y-61414000D01*
X147498742Y-61414000D01*
X147523512Y-61418927D01*
G37*
G36*
X150063512Y-58878927D02*
G01*
X150212812Y-58908624D01*
X150376784Y-58976544D01*
X150524354Y-59075147D01*
X150649853Y-59200646D01*
X150748456Y-59348216D01*
X150816376Y-59512188D01*
X150851000Y-59686259D01*
X150851000Y-59863741D01*
X150816376Y-60037812D01*
X150748456Y-60201784D01*
X150649853Y-60349354D01*
X150524354Y-60474853D01*
X150376784Y-60573456D01*
X150212812Y-60641376D01*
X150063512Y-60671073D01*
X150038742Y-60676000D01*
X149861258Y-60676000D01*
X149836488Y-60671073D01*
X149687188Y-60641376D01*
X149523216Y-60573456D01*
X149375646Y-60474853D01*
X149250147Y-60349354D01*
X149151544Y-60201784D01*
X149083624Y-60037812D01*
X149049000Y-59863741D01*
X149049000Y-59686259D01*
X149083624Y-59512188D01*
X149151544Y-59348216D01*
X149250147Y-59200646D01*
X149375646Y-59075147D01*
X149523216Y-58976544D01*
X149687188Y-58908624D01*
X149836488Y-58878927D01*
X149861258Y-58874000D01*
X150038742Y-58874000D01*
X150063512Y-58878927D01*
G37*
G36*
X134823512Y-58878927D02*
G01*
X134972812Y-58908624D01*
X135136784Y-58976544D01*
X135284354Y-59075147D01*
X135409853Y-59200646D01*
X135508456Y-59348216D01*
X135576376Y-59512188D01*
X135611000Y-59686259D01*
X135611000Y-59863741D01*
X135576376Y-60037812D01*
X135508456Y-60201784D01*
X135409853Y-60349354D01*
X135284354Y-60474853D01*
X135136784Y-60573456D01*
X134972812Y-60641376D01*
X134823512Y-60671073D01*
X134798742Y-60676000D01*
X134621258Y-60676000D01*
X134596488Y-60671073D01*
X134447188Y-60641376D01*
X134283216Y-60573456D01*
X134135646Y-60474853D01*
X134010147Y-60349354D01*
X133911544Y-60201784D01*
X133843624Y-60037812D01*
X133809000Y-59863741D01*
X133809000Y-59686259D01*
X133843624Y-59512188D01*
X133911544Y-59348216D01*
X134010147Y-59200646D01*
X134135646Y-59075147D01*
X134283216Y-58976544D01*
X134447188Y-58908624D01*
X134596488Y-58878927D01*
X134621258Y-58874000D01*
X134798742Y-58874000D01*
X134823512Y-58878927D01*
G37*
G36*
X147523512Y-58878927D02*
G01*
X147672812Y-58908624D01*
X147836784Y-58976544D01*
X147984354Y-59075147D01*
X148109853Y-59200646D01*
X148208456Y-59348216D01*
X148276376Y-59512188D01*
X148311000Y-59686259D01*
X148311000Y-59863741D01*
X148276376Y-60037812D01*
X148208456Y-60201784D01*
X148109853Y-60349354D01*
X147984354Y-60474853D01*
X147836784Y-60573456D01*
X147672812Y-60641376D01*
X147523512Y-60671073D01*
X147498742Y-60676000D01*
X147321258Y-60676000D01*
X147296488Y-60671073D01*
X147147188Y-60641376D01*
X146983216Y-60573456D01*
X146835646Y-60474853D01*
X146710147Y-60349354D01*
X146611544Y-60201784D01*
X146543624Y-60037812D01*
X146509000Y-59863741D01*
X146509000Y-59686259D01*
X146543624Y-59512188D01*
X146611544Y-59348216D01*
X146710147Y-59200646D01*
X146835646Y-59075147D01*
X146983216Y-58976544D01*
X147147188Y-58908624D01*
X147296488Y-58878927D01*
X147321258Y-58874000D01*
X147498742Y-58874000D01*
X147523512Y-58878927D01*
G37*
G36*
X144983512Y-58878927D02*
G01*
X145132812Y-58908624D01*
X145296784Y-58976544D01*
X145444354Y-59075147D01*
X145569853Y-59200646D01*
X145668456Y-59348216D01*
X145736376Y-59512188D01*
X145771000Y-59686259D01*
X145771000Y-59863741D01*
X145736376Y-60037812D01*
X145668456Y-60201784D01*
X145569853Y-60349354D01*
X145444354Y-60474853D01*
X145296784Y-60573456D01*
X145132812Y-60641376D01*
X144983512Y-60671073D01*
X144958742Y-60676000D01*
X144781258Y-60676000D01*
X144756488Y-60671073D01*
X144607188Y-60641376D01*
X144443216Y-60573456D01*
X144295646Y-60474853D01*
X144170147Y-60349354D01*
X144071544Y-60201784D01*
X144003624Y-60037812D01*
X143969000Y-59863741D01*
X143969000Y-59686259D01*
X144003624Y-59512188D01*
X144071544Y-59348216D01*
X144170147Y-59200646D01*
X144295646Y-59075147D01*
X144443216Y-58976544D01*
X144607188Y-58908624D01*
X144756488Y-58878927D01*
X144781258Y-58874000D01*
X144958742Y-58874000D01*
X144983512Y-58878927D01*
G37*
G36*
X137363512Y-58878927D02*
G01*
X137512812Y-58908624D01*
X137676784Y-58976544D01*
X137824354Y-59075147D01*
X137949853Y-59200646D01*
X138048456Y-59348216D01*
X138116376Y-59512188D01*
X138151000Y-59686259D01*
X138151000Y-59863741D01*
X138116376Y-60037812D01*
X138048456Y-60201784D01*
X137949853Y-60349354D01*
X137824354Y-60474853D01*
X137676784Y-60573456D01*
X137512812Y-60641376D01*
X137363512Y-60671073D01*
X137338742Y-60676000D01*
X137161258Y-60676000D01*
X137136488Y-60671073D01*
X136987188Y-60641376D01*
X136823216Y-60573456D01*
X136675646Y-60474853D01*
X136550147Y-60349354D01*
X136451544Y-60201784D01*
X136383624Y-60037812D01*
X136349000Y-59863741D01*
X136349000Y-59686259D01*
X136383624Y-59512188D01*
X136451544Y-59348216D01*
X136550147Y-59200646D01*
X136675646Y-59075147D01*
X136823216Y-58976544D01*
X136987188Y-58908624D01*
X137136488Y-58878927D01*
X137161258Y-58874000D01*
X137338742Y-58874000D01*
X137363512Y-58878927D01*
G37*
G36*
X142443512Y-58878927D02*
G01*
X142592812Y-58908624D01*
X142756784Y-58976544D01*
X142904354Y-59075147D01*
X143029853Y-59200646D01*
X143128456Y-59348216D01*
X143196376Y-59512188D01*
X143231000Y-59686259D01*
X143231000Y-59863741D01*
X143196376Y-60037812D01*
X143128456Y-60201784D01*
X143029853Y-60349354D01*
X142904354Y-60474853D01*
X142756784Y-60573456D01*
X142592812Y-60641376D01*
X142443512Y-60671073D01*
X142418742Y-60676000D01*
X142241258Y-60676000D01*
X142216488Y-60671073D01*
X142067188Y-60641376D01*
X141903216Y-60573456D01*
X141755646Y-60474853D01*
X141630147Y-60349354D01*
X141531544Y-60201784D01*
X141463624Y-60037812D01*
X141429000Y-59863741D01*
X141429000Y-59686259D01*
X141463624Y-59512188D01*
X141531544Y-59348216D01*
X141630147Y-59200646D01*
X141755646Y-59075147D01*
X141903216Y-58976544D01*
X142067188Y-58908624D01*
X142216488Y-58878927D01*
X142241258Y-58874000D01*
X142418742Y-58874000D01*
X142443512Y-58878927D01*
G37*
G36*
X106883512Y-58878927D02*
G01*
X107032812Y-58908624D01*
X107196784Y-58976544D01*
X107344354Y-59075147D01*
X107469853Y-59200646D01*
X107568456Y-59348216D01*
X107636376Y-59512188D01*
X107671000Y-59686259D01*
X107671000Y-59863741D01*
X107636376Y-60037812D01*
X107568456Y-60201784D01*
X107469853Y-60349354D01*
X107344354Y-60474853D01*
X107196784Y-60573456D01*
X107032812Y-60641376D01*
X106883512Y-60671073D01*
X106858742Y-60676000D01*
X106681258Y-60676000D01*
X106656488Y-60671073D01*
X106507188Y-60641376D01*
X106343216Y-60573456D01*
X106195646Y-60474853D01*
X106070147Y-60349354D01*
X105971544Y-60201784D01*
X105903624Y-60037812D01*
X105869000Y-59863741D01*
X105869000Y-59686259D01*
X105903624Y-59512188D01*
X105971544Y-59348216D01*
X106070147Y-59200646D01*
X106195646Y-59075147D01*
X106343216Y-58976544D01*
X106507188Y-58908624D01*
X106656488Y-58878927D01*
X106681258Y-58874000D01*
X106858742Y-58874000D01*
X106883512Y-58878927D01*
G37*
G36*
X104343512Y-58878927D02*
G01*
X104492812Y-58908624D01*
X104656784Y-58976544D01*
X104804354Y-59075147D01*
X104929853Y-59200646D01*
X105028456Y-59348216D01*
X105096376Y-59512188D01*
X105131000Y-59686259D01*
X105131000Y-59863741D01*
X105096376Y-60037812D01*
X105028456Y-60201784D01*
X104929853Y-60349354D01*
X104804354Y-60474853D01*
X104656784Y-60573456D01*
X104492812Y-60641376D01*
X104343512Y-60671073D01*
X104318742Y-60676000D01*
X104141258Y-60676000D01*
X104116488Y-60671073D01*
X103967188Y-60641376D01*
X103803216Y-60573456D01*
X103655646Y-60474853D01*
X103530147Y-60349354D01*
X103431544Y-60201784D01*
X103363624Y-60037812D01*
X103329000Y-59863741D01*
X103329000Y-59686259D01*
X103363624Y-59512188D01*
X103431544Y-59348216D01*
X103530147Y-59200646D01*
X103655646Y-59075147D01*
X103803216Y-58976544D01*
X103967188Y-58908624D01*
X104116488Y-58878927D01*
X104141258Y-58874000D01*
X104318742Y-58874000D01*
X104343512Y-58878927D01*
G37*
G36*
X101803512Y-58878927D02*
G01*
X101952812Y-58908624D01*
X102116784Y-58976544D01*
X102264354Y-59075147D01*
X102389853Y-59200646D01*
X102488456Y-59348216D01*
X102556376Y-59512188D01*
X102591000Y-59686259D01*
X102591000Y-59863741D01*
X102556376Y-60037812D01*
X102488456Y-60201784D01*
X102389853Y-60349354D01*
X102264354Y-60474853D01*
X102116784Y-60573456D01*
X101952812Y-60641376D01*
X101803512Y-60671073D01*
X101778742Y-60676000D01*
X101601258Y-60676000D01*
X101576488Y-60671073D01*
X101427188Y-60641376D01*
X101263216Y-60573456D01*
X101115646Y-60474853D01*
X100990147Y-60349354D01*
X100891544Y-60201784D01*
X100823624Y-60037812D01*
X100789000Y-59863741D01*
X100789000Y-59686259D01*
X100823624Y-59512188D01*
X100891544Y-59348216D01*
X100990147Y-59200646D01*
X101115646Y-59075147D01*
X101263216Y-58976544D01*
X101427188Y-58908624D01*
X101576488Y-58878927D01*
X101601258Y-58874000D01*
X101778742Y-58874000D01*
X101803512Y-58878927D01*
G37*
G36*
X122123512Y-58878927D02*
G01*
X122272812Y-58908624D01*
X122436784Y-58976544D01*
X122584354Y-59075147D01*
X122709853Y-59200646D01*
X122808456Y-59348216D01*
X122876376Y-59512188D01*
X122911000Y-59686259D01*
X122911000Y-59863741D01*
X122876376Y-60037812D01*
X122808456Y-60201784D01*
X122709853Y-60349354D01*
X122584354Y-60474853D01*
X122436784Y-60573456D01*
X122272812Y-60641376D01*
X122123512Y-60671073D01*
X122098742Y-60676000D01*
X121921258Y-60676000D01*
X121896488Y-60671073D01*
X121747188Y-60641376D01*
X121583216Y-60573456D01*
X121435646Y-60474853D01*
X121310147Y-60349354D01*
X121211544Y-60201784D01*
X121143624Y-60037812D01*
X121109000Y-59863741D01*
X121109000Y-59686259D01*
X121143624Y-59512188D01*
X121211544Y-59348216D01*
X121310147Y-59200646D01*
X121435646Y-59075147D01*
X121583216Y-58976544D01*
X121747188Y-58908624D01*
X121896488Y-58878927D01*
X121921258Y-58874000D01*
X122098742Y-58874000D01*
X122123512Y-58878927D01*
G37*
G36*
X96723512Y-58878927D02*
G01*
X96872812Y-58908624D01*
X97036784Y-58976544D01*
X97184354Y-59075147D01*
X97309853Y-59200646D01*
X97408456Y-59348216D01*
X97476376Y-59512188D01*
X97511000Y-59686259D01*
X97511000Y-59863741D01*
X97476376Y-60037812D01*
X97408456Y-60201784D01*
X97309853Y-60349354D01*
X97184354Y-60474853D01*
X97036784Y-60573456D01*
X96872812Y-60641376D01*
X96723512Y-60671073D01*
X96698742Y-60676000D01*
X96521258Y-60676000D01*
X96496488Y-60671073D01*
X96347188Y-60641376D01*
X96183216Y-60573456D01*
X96035646Y-60474853D01*
X95910147Y-60349354D01*
X95811544Y-60201784D01*
X95743624Y-60037812D01*
X95709000Y-59863741D01*
X95709000Y-59686259D01*
X95743624Y-59512188D01*
X95811544Y-59348216D01*
X95910147Y-59200646D01*
X96035646Y-59075147D01*
X96183216Y-58976544D01*
X96347188Y-58908624D01*
X96496488Y-58878927D01*
X96521258Y-58874000D01*
X96698742Y-58874000D01*
X96723512Y-58878927D01*
G37*
G36*
X119583512Y-58878927D02*
G01*
X119732812Y-58908624D01*
X119896784Y-58976544D01*
X120044354Y-59075147D01*
X120169853Y-59200646D01*
X120268456Y-59348216D01*
X120336376Y-59512188D01*
X120371000Y-59686259D01*
X120371000Y-59863741D01*
X120336376Y-60037812D01*
X120268456Y-60201784D01*
X120169853Y-60349354D01*
X120044354Y-60474853D01*
X119896784Y-60573456D01*
X119732812Y-60641376D01*
X119583512Y-60671073D01*
X119558742Y-60676000D01*
X119381258Y-60676000D01*
X119356488Y-60671073D01*
X119207188Y-60641376D01*
X119043216Y-60573456D01*
X118895646Y-60474853D01*
X118770147Y-60349354D01*
X118671544Y-60201784D01*
X118603624Y-60037812D01*
X118569000Y-59863741D01*
X118569000Y-59686259D01*
X118603624Y-59512188D01*
X118671544Y-59348216D01*
X118770147Y-59200646D01*
X118895646Y-59075147D01*
X119043216Y-58976544D01*
X119207188Y-58908624D01*
X119356488Y-58878927D01*
X119381258Y-58874000D01*
X119558742Y-58874000D01*
X119583512Y-58878927D01*
G37*
G36*
X99263512Y-58878927D02*
G01*
X99412812Y-58908624D01*
X99576784Y-58976544D01*
X99724354Y-59075147D01*
X99849853Y-59200646D01*
X99948456Y-59348216D01*
X100016376Y-59512188D01*
X100051000Y-59686259D01*
X100051000Y-59863741D01*
X100016376Y-60037812D01*
X99948456Y-60201784D01*
X99849853Y-60349354D01*
X99724354Y-60474853D01*
X99576784Y-60573456D01*
X99412812Y-60641376D01*
X99263512Y-60671073D01*
X99238742Y-60676000D01*
X99061258Y-60676000D01*
X99036488Y-60671073D01*
X98887188Y-60641376D01*
X98723216Y-60573456D01*
X98575646Y-60474853D01*
X98450147Y-60349354D01*
X98351544Y-60201784D01*
X98283624Y-60037812D01*
X98249000Y-59863741D01*
X98249000Y-59686259D01*
X98283624Y-59512188D01*
X98351544Y-59348216D01*
X98450147Y-59200646D01*
X98575646Y-59075147D01*
X98723216Y-58976544D01*
X98887188Y-58908624D01*
X99036488Y-58878927D01*
X99061258Y-58874000D01*
X99238742Y-58874000D01*
X99263512Y-58878927D01*
G37*
G36*
X132283512Y-58878927D02*
G01*
X132432812Y-58908624D01*
X132596784Y-58976544D01*
X132744354Y-59075147D01*
X132869853Y-59200646D01*
X132968456Y-59348216D01*
X133036376Y-59512188D01*
X133071000Y-59686259D01*
X133071000Y-59863741D01*
X133036376Y-60037812D01*
X132968456Y-60201784D01*
X132869853Y-60349354D01*
X132744354Y-60474853D01*
X132596784Y-60573456D01*
X132432812Y-60641376D01*
X132283512Y-60671073D01*
X132258742Y-60676000D01*
X132081258Y-60676000D01*
X132056488Y-60671073D01*
X131907188Y-60641376D01*
X131743216Y-60573456D01*
X131595646Y-60474853D01*
X131470147Y-60349354D01*
X131371544Y-60201784D01*
X131303624Y-60037812D01*
X131269000Y-59863741D01*
X131269000Y-59686259D01*
X131303624Y-59512188D01*
X131371544Y-59348216D01*
X131470147Y-59200646D01*
X131595646Y-59075147D01*
X131743216Y-58976544D01*
X131907188Y-58908624D01*
X132056488Y-58878927D01*
X132081258Y-58874000D01*
X132258742Y-58874000D01*
X132283512Y-58878927D01*
G37*
G36*
X152603512Y-58878927D02*
G01*
X152752812Y-58908624D01*
X152916784Y-58976544D01*
X153064354Y-59075147D01*
X153189853Y-59200646D01*
X153288456Y-59348216D01*
X153356376Y-59512188D01*
X153391000Y-59686259D01*
X153391000Y-59863741D01*
X153356376Y-60037812D01*
X153288456Y-60201784D01*
X153189853Y-60349354D01*
X153064354Y-60474853D01*
X152916784Y-60573456D01*
X152752812Y-60641376D01*
X152603512Y-60671073D01*
X152578742Y-60676000D01*
X152401258Y-60676000D01*
X152376488Y-60671073D01*
X152227188Y-60641376D01*
X152063216Y-60573456D01*
X151915646Y-60474853D01*
X151790147Y-60349354D01*
X151691544Y-60201784D01*
X151623624Y-60037812D01*
X151589000Y-59863741D01*
X151589000Y-59686259D01*
X151623624Y-59512188D01*
X151691544Y-59348216D01*
X151790147Y-59200646D01*
X151915646Y-59075147D01*
X152063216Y-58976544D01*
X152227188Y-58908624D01*
X152376488Y-58878927D01*
X152401258Y-58874000D01*
X152578742Y-58874000D01*
X152603512Y-58878927D01*
G37*
G36*
X155143512Y-58878927D02*
G01*
X155292812Y-58908624D01*
X155456784Y-58976544D01*
X155604354Y-59075147D01*
X155729853Y-59200646D01*
X155828456Y-59348216D01*
X155896376Y-59512188D01*
X155931000Y-59686259D01*
X155931000Y-59863741D01*
X155896376Y-60037812D01*
X155828456Y-60201784D01*
X155729853Y-60349354D01*
X155604354Y-60474853D01*
X155456784Y-60573456D01*
X155292812Y-60641376D01*
X155143512Y-60671073D01*
X155118742Y-60676000D01*
X154941258Y-60676000D01*
X154916488Y-60671073D01*
X154767188Y-60641376D01*
X154603216Y-60573456D01*
X154455646Y-60474853D01*
X154330147Y-60349354D01*
X154231544Y-60201784D01*
X154163624Y-60037812D01*
X154129000Y-59863741D01*
X154129000Y-59686259D01*
X154163624Y-59512188D01*
X154231544Y-59348216D01*
X154330147Y-59200646D01*
X154455646Y-59075147D01*
X154603216Y-58976544D01*
X154767188Y-58908624D01*
X154916488Y-58878927D01*
X154941258Y-58874000D01*
X155118742Y-58874000D01*
X155143512Y-58878927D01*
G37*
G36*
X129743512Y-58878927D02*
G01*
X129892812Y-58908624D01*
X130056784Y-58976544D01*
X130204354Y-59075147D01*
X130329853Y-59200646D01*
X130428456Y-59348216D01*
X130496376Y-59512188D01*
X130531000Y-59686259D01*
X130531000Y-59863741D01*
X130496376Y-60037812D01*
X130428456Y-60201784D01*
X130329853Y-60349354D01*
X130204354Y-60474853D01*
X130056784Y-60573456D01*
X129892812Y-60641376D01*
X129743512Y-60671073D01*
X129718742Y-60676000D01*
X129541258Y-60676000D01*
X129516488Y-60671073D01*
X129367188Y-60641376D01*
X129203216Y-60573456D01*
X129055646Y-60474853D01*
X128930147Y-60349354D01*
X128831544Y-60201784D01*
X128763624Y-60037812D01*
X128729000Y-59863741D01*
X128729000Y-59686259D01*
X128763624Y-59512188D01*
X128831544Y-59348216D01*
X128930147Y-59200646D01*
X129055646Y-59075147D01*
X129203216Y-58976544D01*
X129367188Y-58908624D01*
X129516488Y-58878927D01*
X129541258Y-58874000D01*
X129718742Y-58874000D01*
X129743512Y-58878927D01*
G37*
G36*
X158471000Y-60676000D02*
G01*
X156669000Y-60676000D01*
X156669000Y-58874000D01*
X158471000Y-58874000D01*
X158471000Y-60676000D01*
G37*
G36*
X127203512Y-58878927D02*
G01*
X127352812Y-58908624D01*
X127516784Y-58976544D01*
X127664354Y-59075147D01*
X127789853Y-59200646D01*
X127888456Y-59348216D01*
X127956376Y-59512188D01*
X127991000Y-59686259D01*
X127991000Y-59863741D01*
X127956376Y-60037812D01*
X127888456Y-60201784D01*
X127789853Y-60349354D01*
X127664354Y-60474853D01*
X127516784Y-60573456D01*
X127352812Y-60641376D01*
X127203512Y-60671073D01*
X127178742Y-60676000D01*
X127001258Y-60676000D01*
X126976488Y-60671073D01*
X126827188Y-60641376D01*
X126663216Y-60573456D01*
X126515646Y-60474853D01*
X126390147Y-60349354D01*
X126291544Y-60201784D01*
X126223624Y-60037812D01*
X126189000Y-59863741D01*
X126189000Y-59686259D01*
X126223624Y-59512188D01*
X126291544Y-59348216D01*
X126390147Y-59200646D01*
X126515646Y-59075147D01*
X126663216Y-58976544D01*
X126827188Y-58908624D01*
X126976488Y-58878927D01*
X127001258Y-58874000D01*
X127178742Y-58874000D01*
X127203512Y-58878927D01*
G37*
G36*
X117043512Y-58878927D02*
G01*
X117192812Y-58908624D01*
X117356784Y-58976544D01*
X117504354Y-59075147D01*
X117629853Y-59200646D01*
X117728456Y-59348216D01*
X117796376Y-59512188D01*
X117831000Y-59686259D01*
X117831000Y-59863741D01*
X117796376Y-60037812D01*
X117728456Y-60201784D01*
X117629853Y-60349354D01*
X117504354Y-60474853D01*
X117356784Y-60573456D01*
X117192812Y-60641376D01*
X117043512Y-60671073D01*
X117018742Y-60676000D01*
X116841258Y-60676000D01*
X116816488Y-60671073D01*
X116667188Y-60641376D01*
X116503216Y-60573456D01*
X116355646Y-60474853D01*
X116230147Y-60349354D01*
X116131544Y-60201784D01*
X116063624Y-60037812D01*
X116029000Y-59863741D01*
X116029000Y-59686259D01*
X116063624Y-59512188D01*
X116131544Y-59348216D01*
X116230147Y-59200646D01*
X116355646Y-59075147D01*
X116503216Y-58976544D01*
X116667188Y-58908624D01*
X116816488Y-58878927D01*
X116841258Y-58874000D01*
X117018742Y-58874000D01*
X117043512Y-58878927D01*
G37*
G36*
X114503512Y-58878927D02*
G01*
X114652812Y-58908624D01*
X114816784Y-58976544D01*
X114964354Y-59075147D01*
X115089853Y-59200646D01*
X115188456Y-59348216D01*
X115256376Y-59512188D01*
X115291000Y-59686259D01*
X115291000Y-59863741D01*
X115256376Y-60037812D01*
X115188456Y-60201784D01*
X115089853Y-60349354D01*
X114964354Y-60474853D01*
X114816784Y-60573456D01*
X114652812Y-60641376D01*
X114503512Y-60671073D01*
X114478742Y-60676000D01*
X114301258Y-60676000D01*
X114276488Y-60671073D01*
X114127188Y-60641376D01*
X113963216Y-60573456D01*
X113815646Y-60474853D01*
X113690147Y-60349354D01*
X113591544Y-60201784D01*
X113523624Y-60037812D01*
X113489000Y-59863741D01*
X113489000Y-59686259D01*
X113523624Y-59512188D01*
X113591544Y-59348216D01*
X113690147Y-59200646D01*
X113815646Y-59075147D01*
X113963216Y-58976544D01*
X114127188Y-58908624D01*
X114276488Y-58878927D01*
X114301258Y-58874000D01*
X114478742Y-58874000D01*
X114503512Y-58878927D01*
G37*
G36*
X111963512Y-58878927D02*
G01*
X112112812Y-58908624D01*
X112276784Y-58976544D01*
X112424354Y-59075147D01*
X112549853Y-59200646D01*
X112648456Y-59348216D01*
X112716376Y-59512188D01*
X112751000Y-59686259D01*
X112751000Y-59863741D01*
X112716376Y-60037812D01*
X112648456Y-60201784D01*
X112549853Y-60349354D01*
X112424354Y-60474853D01*
X112276784Y-60573456D01*
X112112812Y-60641376D01*
X111963512Y-60671073D01*
X111938742Y-60676000D01*
X111761258Y-60676000D01*
X111736488Y-60671073D01*
X111587188Y-60641376D01*
X111423216Y-60573456D01*
X111275646Y-60474853D01*
X111150147Y-60349354D01*
X111051544Y-60201784D01*
X110983624Y-60037812D01*
X110949000Y-59863741D01*
X110949000Y-59686259D01*
X110983624Y-59512188D01*
X111051544Y-59348216D01*
X111150147Y-59200646D01*
X111275646Y-59075147D01*
X111423216Y-58976544D01*
X111587188Y-58908624D01*
X111736488Y-58878927D01*
X111761258Y-58874000D01*
X111938742Y-58874000D01*
X111963512Y-58878927D01*
G37*
G36*
X124663512Y-58878927D02*
G01*
X124812812Y-58908624D01*
X124976784Y-58976544D01*
X125124354Y-59075147D01*
X125249853Y-59200646D01*
X125348456Y-59348216D01*
X125416376Y-59512188D01*
X125451000Y-59686259D01*
X125451000Y-59863741D01*
X125416376Y-60037812D01*
X125348456Y-60201784D01*
X125249853Y-60349354D01*
X125124354Y-60474853D01*
X124976784Y-60573456D01*
X124812812Y-60641376D01*
X124663512Y-60671073D01*
X124638742Y-60676000D01*
X124461258Y-60676000D01*
X124436488Y-60671073D01*
X124287188Y-60641376D01*
X124123216Y-60573456D01*
X123975646Y-60474853D01*
X123850147Y-60349354D01*
X123751544Y-60201784D01*
X123683624Y-60037812D01*
X123649000Y-59863741D01*
X123649000Y-59686259D01*
X123683624Y-59512188D01*
X123751544Y-59348216D01*
X123850147Y-59200646D01*
X123975646Y-59075147D01*
X124123216Y-58976544D01*
X124287188Y-58908624D01*
X124436488Y-58878927D01*
X124461258Y-58874000D01*
X124638742Y-58874000D01*
X124663512Y-58878927D01*
G37*
G36*
X139903512Y-58878927D02*
G01*
X140052812Y-58908624D01*
X140216784Y-58976544D01*
X140364354Y-59075147D01*
X140489853Y-59200646D01*
X140588456Y-59348216D01*
X140656376Y-59512188D01*
X140691000Y-59686259D01*
X140691000Y-59863741D01*
X140656376Y-60037812D01*
X140588456Y-60201784D01*
X140489853Y-60349354D01*
X140364354Y-60474853D01*
X140216784Y-60573456D01*
X140052812Y-60641376D01*
X139903512Y-60671073D01*
X139878742Y-60676000D01*
X139701258Y-60676000D01*
X139676488Y-60671073D01*
X139527188Y-60641376D01*
X139363216Y-60573456D01*
X139215646Y-60474853D01*
X139090147Y-60349354D01*
X138991544Y-60201784D01*
X138923624Y-60037812D01*
X138889000Y-59863741D01*
X138889000Y-59686259D01*
X138923624Y-59512188D01*
X138991544Y-59348216D01*
X139090147Y-59200646D01*
X139215646Y-59075147D01*
X139363216Y-58976544D01*
X139527188Y-58908624D01*
X139676488Y-58878927D01*
X139701258Y-58874000D01*
X139878742Y-58874000D01*
X139903512Y-58878927D01*
G37*
G36*
X109423512Y-58878927D02*
G01*
X109572812Y-58908624D01*
X109736784Y-58976544D01*
X109884354Y-59075147D01*
X110009853Y-59200646D01*
X110108456Y-59348216D01*
X110176376Y-59512188D01*
X110211000Y-59686259D01*
X110211000Y-59863741D01*
X110176376Y-60037812D01*
X110108456Y-60201784D01*
X110009853Y-60349354D01*
X109884354Y-60474853D01*
X109736784Y-60573456D01*
X109572812Y-60641376D01*
X109423512Y-60671073D01*
X109398742Y-60676000D01*
X109221258Y-60676000D01*
X109196488Y-60671073D01*
X109047188Y-60641376D01*
X108883216Y-60573456D01*
X108735646Y-60474853D01*
X108610147Y-60349354D01*
X108511544Y-60201784D01*
X108443624Y-60037812D01*
X108409000Y-59863741D01*
X108409000Y-59686259D01*
X108443624Y-59512188D01*
X108511544Y-59348216D01*
X108610147Y-59200646D01*
X108735646Y-59075147D01*
X108883216Y-58976544D01*
X109047188Y-58908624D01*
X109196488Y-58878927D01*
X109221258Y-58874000D01*
X109398742Y-58874000D01*
X109423512Y-58878927D01*
G37*
M02*
