G04 #@! TF.GenerationSoftware,KiCad,Pcbnew,(5.1.5)-3*
G04 #@! TF.CreationDate,2020-11-01T11:49:08+00:00*
G04 #@! TF.ProjectId,SCSIConnectorA,53435349-436f-46e6-9e65-63746f72412e,rev?*
G04 #@! TF.SameCoordinates,Original*
G04 #@! TF.FileFunction,Legend,Top*
G04 #@! TF.FilePolarity,Positive*
%FSLAX46Y46*%
G04 Gerber Fmt 4.6, Leading zero omitted, Abs format (unit mm)*
G04 Created by KiCad (PCBNEW (5.1.5)-3) date 2020-11-01 11:49:08*
%MOMM*%
%LPD*%
G04 APERTURE LIST*
%ADD10C,0.150000*%
%ADD11C,0.120000*%
%ADD12C,0.300000*%
G04 APERTURE END LIST*
D10*
X113512857Y-90482142D02*
X113512857Y-91082142D01*
X113298571Y-90139285D02*
X113084285Y-90782142D01*
X113641428Y-90782142D01*
X114455714Y-91082142D02*
X113941428Y-91082142D01*
X114198571Y-91082142D02*
X114198571Y-90182142D01*
X114112857Y-90310714D01*
X114027142Y-90396428D01*
X113941428Y-90439285D01*
X105126785Y-90659285D02*
X105812500Y-90659285D01*
X105469642Y-91002142D02*
X105469642Y-90316428D01*
X106712500Y-91002142D02*
X106198214Y-91002142D01*
X106455357Y-91002142D02*
X106455357Y-90102142D01*
X106369642Y-90230714D01*
X106283928Y-90316428D01*
X106198214Y-90359285D01*
X107055357Y-90187857D02*
X107098214Y-90145000D01*
X107183928Y-90102142D01*
X107398214Y-90102142D01*
X107483928Y-90145000D01*
X107526785Y-90187857D01*
X107569642Y-90273571D01*
X107569642Y-90359285D01*
X107526785Y-90487857D01*
X107012500Y-91002142D01*
X107569642Y-91002142D01*
X107869642Y-90402142D02*
X108083928Y-91002142D01*
X108298214Y-90402142D01*
X105674404Y-85015000D02*
X105579166Y-84967380D01*
X105436309Y-84967380D01*
X105293452Y-85015000D01*
X105198214Y-85110238D01*
X105150595Y-85205476D01*
X105102976Y-85395952D01*
X105102976Y-85538809D01*
X105150595Y-85729285D01*
X105198214Y-85824523D01*
X105293452Y-85919761D01*
X105436309Y-85967380D01*
X105531547Y-85967380D01*
X105674404Y-85919761D01*
X105722023Y-85872142D01*
X105722023Y-85538809D01*
X105531547Y-85538809D01*
X106150595Y-85300714D02*
X106150595Y-85967380D01*
X106150595Y-85395952D02*
X106198214Y-85348333D01*
X106293452Y-85300714D01*
X106436309Y-85300714D01*
X106531547Y-85348333D01*
X106579166Y-85443571D01*
X106579166Y-85967380D01*
X107483928Y-85967380D02*
X107483928Y-84967380D01*
X107483928Y-85919761D02*
X107388690Y-85967380D01*
X107198214Y-85967380D01*
X107102976Y-85919761D01*
X107055357Y-85872142D01*
X107007738Y-85776904D01*
X107007738Y-85491190D01*
X107055357Y-85395952D01*
X107102976Y-85348333D01*
X107198214Y-85300714D01*
X107388690Y-85300714D01*
X107483928Y-85348333D01*
X105674404Y-79935000D02*
X105579166Y-79887380D01*
X105436309Y-79887380D01*
X105293452Y-79935000D01*
X105198214Y-80030238D01*
X105150595Y-80125476D01*
X105102976Y-80315952D01*
X105102976Y-80458809D01*
X105150595Y-80649285D01*
X105198214Y-80744523D01*
X105293452Y-80839761D01*
X105436309Y-80887380D01*
X105531547Y-80887380D01*
X105674404Y-80839761D01*
X105722023Y-80792142D01*
X105722023Y-80458809D01*
X105531547Y-80458809D01*
X106150595Y-80220714D02*
X106150595Y-80887380D01*
X106150595Y-80315952D02*
X106198214Y-80268333D01*
X106293452Y-80220714D01*
X106436309Y-80220714D01*
X106531547Y-80268333D01*
X106579166Y-80363571D01*
X106579166Y-80887380D01*
X107483928Y-80887380D02*
X107483928Y-79887380D01*
X107483928Y-80839761D02*
X107388690Y-80887380D01*
X107198214Y-80887380D01*
X107102976Y-80839761D01*
X107055357Y-80792142D01*
X107007738Y-80696904D01*
X107007738Y-80411190D01*
X107055357Y-80315952D01*
X107102976Y-80268333D01*
X107198214Y-80220714D01*
X107388690Y-80220714D01*
X107483928Y-80268333D01*
X105126785Y-75419285D02*
X105812500Y-75419285D01*
X105469642Y-75762142D02*
X105469642Y-75076428D01*
X106669642Y-74862142D02*
X106241071Y-74862142D01*
X106198214Y-75290714D01*
X106241071Y-75247857D01*
X106326785Y-75205000D01*
X106541071Y-75205000D01*
X106626785Y-75247857D01*
X106669642Y-75290714D01*
X106712500Y-75376428D01*
X106712500Y-75590714D01*
X106669642Y-75676428D01*
X106626785Y-75719285D01*
X106541071Y-75762142D01*
X106326785Y-75762142D01*
X106241071Y-75719285D01*
X106198214Y-75676428D01*
X107012500Y-75162142D02*
X107226785Y-75762142D01*
X107441071Y-75162142D01*
X143490952Y-70462380D02*
X143490952Y-71176666D01*
X143443333Y-71319523D01*
X143348095Y-71414761D01*
X143205238Y-71462380D01*
X143110000Y-71462380D01*
X144443333Y-71462380D02*
X143967142Y-71462380D01*
X143967142Y-70462380D01*
X145348095Y-71367142D02*
X145300476Y-71414761D01*
X145157619Y-71462380D01*
X145062380Y-71462380D01*
X144919523Y-71414761D01*
X144824285Y-71319523D01*
X144776666Y-71224285D01*
X144729047Y-71033809D01*
X144729047Y-70890952D01*
X144776666Y-70700476D01*
X144824285Y-70605238D01*
X144919523Y-70510000D01*
X145062380Y-70462380D01*
X145157619Y-70462380D01*
X145300476Y-70510000D01*
X145348095Y-70557619D01*
X146062380Y-70462380D02*
X146062380Y-71176666D01*
X146014761Y-71319523D01*
X145919523Y-71414761D01*
X145776666Y-71462380D01*
X145681428Y-71462380D01*
X147014761Y-71462380D02*
X146538571Y-71462380D01*
X146538571Y-70462380D01*
X147919523Y-71367142D02*
X147871904Y-71414761D01*
X147729047Y-71462380D01*
X147633809Y-71462380D01*
X147490952Y-71414761D01*
X147395714Y-71319523D01*
X147348095Y-71224285D01*
X147300476Y-71033809D01*
X147300476Y-70890952D01*
X147348095Y-70700476D01*
X147395714Y-70605238D01*
X147490952Y-70510000D01*
X147633809Y-70462380D01*
X147729047Y-70462380D01*
X147871904Y-70510000D01*
X147919523Y-70557619D01*
X148633809Y-70462380D02*
X148633809Y-71176666D01*
X148586190Y-71319523D01*
X148490952Y-71414761D01*
X148348095Y-71462380D01*
X148252857Y-71462380D01*
X149586190Y-71462380D02*
X149110000Y-71462380D01*
X149110000Y-70462380D01*
X150490952Y-71367142D02*
X150443333Y-71414761D01*
X150300476Y-71462380D01*
X150205238Y-71462380D01*
X150062380Y-71414761D01*
X149967142Y-71319523D01*
X149919523Y-71224285D01*
X149871904Y-71033809D01*
X149871904Y-70890952D01*
X149919523Y-70700476D01*
X149967142Y-70605238D01*
X150062380Y-70510000D01*
X150205238Y-70462380D01*
X150300476Y-70462380D01*
X150443333Y-70510000D01*
X150490952Y-70557619D01*
X151205238Y-70462380D02*
X151205238Y-71176666D01*
X151157619Y-71319523D01*
X151062380Y-71414761D01*
X150919523Y-71462380D01*
X150824285Y-71462380D01*
X152157619Y-71462380D02*
X151681428Y-71462380D01*
X151681428Y-70462380D01*
X153062380Y-71367142D02*
X153014761Y-71414761D01*
X152871904Y-71462380D01*
X152776666Y-71462380D01*
X152633809Y-71414761D01*
X152538571Y-71319523D01*
X152490952Y-71224285D01*
X152443333Y-71033809D01*
X152443333Y-70890952D01*
X152490952Y-70700476D01*
X152538571Y-70605238D01*
X152633809Y-70510000D01*
X152776666Y-70462380D01*
X152871904Y-70462380D01*
X153014761Y-70510000D01*
X153062380Y-70557619D01*
X107295428Y-67581714D02*
X107466857Y-67638857D01*
X107752571Y-67638857D01*
X107866857Y-67581714D01*
X107924000Y-67524571D01*
X107981142Y-67410285D01*
X107981142Y-67296000D01*
X107924000Y-67181714D01*
X107866857Y-67124571D01*
X107752571Y-67067428D01*
X107524000Y-67010285D01*
X107409714Y-66953142D01*
X107352571Y-66896000D01*
X107295428Y-66781714D01*
X107295428Y-66667428D01*
X107352571Y-66553142D01*
X107409714Y-66496000D01*
X107524000Y-66438857D01*
X107809714Y-66438857D01*
X107981142Y-66496000D01*
X109181142Y-67524571D02*
X109124000Y-67581714D01*
X108952571Y-67638857D01*
X108838285Y-67638857D01*
X108666857Y-67581714D01*
X108552571Y-67467428D01*
X108495428Y-67353142D01*
X108438285Y-67124571D01*
X108438285Y-66953142D01*
X108495428Y-66724571D01*
X108552571Y-66610285D01*
X108666857Y-66496000D01*
X108838285Y-66438857D01*
X108952571Y-66438857D01*
X109124000Y-66496000D01*
X109181142Y-66553142D01*
X109638285Y-67581714D02*
X109809714Y-67638857D01*
X110095428Y-67638857D01*
X110209714Y-67581714D01*
X110266857Y-67524571D01*
X110324000Y-67410285D01*
X110324000Y-67296000D01*
X110266857Y-67181714D01*
X110209714Y-67124571D01*
X110095428Y-67067428D01*
X109866857Y-67010285D01*
X109752571Y-66953142D01*
X109695428Y-66896000D01*
X109638285Y-66781714D01*
X109638285Y-66667428D01*
X109695428Y-66553142D01*
X109752571Y-66496000D01*
X109866857Y-66438857D01*
X110152571Y-66438857D01*
X110324000Y-66496000D01*
X110838285Y-67638857D02*
X110838285Y-66438857D01*
X112724000Y-67010285D02*
X112895428Y-67067428D01*
X112952571Y-67124571D01*
X113009714Y-67238857D01*
X113009714Y-67410285D01*
X112952571Y-67524571D01*
X112895428Y-67581714D01*
X112781142Y-67638857D01*
X112324000Y-67638857D01*
X112324000Y-66438857D01*
X112724000Y-66438857D01*
X112838285Y-66496000D01*
X112895428Y-66553142D01*
X112952571Y-66667428D01*
X112952571Y-66781714D01*
X112895428Y-66896000D01*
X112838285Y-66953142D01*
X112724000Y-67010285D01*
X112324000Y-67010285D01*
X114038285Y-66838857D02*
X114038285Y-67638857D01*
X113524000Y-66838857D02*
X113524000Y-67467428D01*
X113581142Y-67581714D01*
X113695428Y-67638857D01*
X113866857Y-67638857D01*
X113981142Y-67581714D01*
X114038285Y-67524571D01*
X114438285Y-66838857D02*
X114895428Y-66838857D01*
X114609714Y-67638857D02*
X114609714Y-66610285D01*
X114666857Y-66496000D01*
X114781142Y-66438857D01*
X114895428Y-66438857D01*
X115124000Y-66838857D02*
X115581142Y-66838857D01*
X115295428Y-67638857D02*
X115295428Y-66610285D01*
X115352571Y-66496000D01*
X115466857Y-66438857D01*
X115581142Y-66438857D01*
X116438285Y-67581714D02*
X116324000Y-67638857D01*
X116095428Y-67638857D01*
X115981142Y-67581714D01*
X115924000Y-67467428D01*
X115924000Y-67010285D01*
X115981142Y-66896000D01*
X116095428Y-66838857D01*
X116324000Y-66838857D01*
X116438285Y-66896000D01*
X116495428Y-67010285D01*
X116495428Y-67124571D01*
X115924000Y-67238857D01*
X117009714Y-67638857D02*
X117009714Y-66838857D01*
X117009714Y-67067428D02*
X117066857Y-66953142D01*
X117124000Y-66896000D01*
X117238285Y-66838857D01*
X117352571Y-66838857D01*
X118209714Y-67581714D02*
X118095428Y-67638857D01*
X117866857Y-67638857D01*
X117752571Y-67581714D01*
X117695428Y-67467428D01*
X117695428Y-67010285D01*
X117752571Y-66896000D01*
X117866857Y-66838857D01*
X118095428Y-66838857D01*
X118209714Y-66896000D01*
X118266857Y-67010285D01*
X118266857Y-67124571D01*
X117695428Y-67238857D01*
X119295428Y-67638857D02*
X119295428Y-66438857D01*
X119295428Y-67581714D02*
X119181142Y-67638857D01*
X118952571Y-67638857D01*
X118838285Y-67581714D01*
X118781142Y-67524571D01*
X118724000Y-67410285D01*
X118724000Y-67067428D01*
X118781142Y-66953142D01*
X118838285Y-66896000D01*
X118952571Y-66838857D01*
X119181142Y-66838857D01*
X119295428Y-66896000D01*
X105152571Y-68388857D02*
X105838285Y-68388857D01*
X105495428Y-69588857D02*
X105495428Y-68388857D01*
X106695428Y-69531714D02*
X106581142Y-69588857D01*
X106352571Y-69588857D01*
X106238285Y-69531714D01*
X106181142Y-69417428D01*
X106181142Y-68960285D01*
X106238285Y-68846000D01*
X106352571Y-68788857D01*
X106581142Y-68788857D01*
X106695428Y-68846000D01*
X106752571Y-68960285D01*
X106752571Y-69074571D01*
X106181142Y-69188857D01*
X107266857Y-69588857D02*
X107266857Y-68788857D01*
X107266857Y-69017428D02*
X107324000Y-68903142D01*
X107381142Y-68846000D01*
X107495428Y-68788857D01*
X107609714Y-68788857D01*
X108009714Y-69588857D02*
X108009714Y-68788857D01*
X108009714Y-68903142D02*
X108066857Y-68846000D01*
X108181142Y-68788857D01*
X108352571Y-68788857D01*
X108466857Y-68846000D01*
X108524000Y-68960285D01*
X108524000Y-69588857D01*
X108524000Y-68960285D02*
X108581142Y-68846000D01*
X108695428Y-68788857D01*
X108866857Y-68788857D01*
X108981142Y-68846000D01*
X109038285Y-68960285D01*
X109038285Y-69588857D01*
X109609714Y-69588857D02*
X109609714Y-68788857D01*
X109609714Y-68388857D02*
X109552571Y-68446000D01*
X109609714Y-68503142D01*
X109666857Y-68446000D01*
X109609714Y-68388857D01*
X109609714Y-68503142D01*
X110181142Y-68788857D02*
X110181142Y-69588857D01*
X110181142Y-68903142D02*
X110238285Y-68846000D01*
X110352571Y-68788857D01*
X110524000Y-68788857D01*
X110638285Y-68846000D01*
X110695428Y-68960285D01*
X110695428Y-69588857D01*
X111781142Y-69588857D02*
X111781142Y-68960285D01*
X111724000Y-68846000D01*
X111609714Y-68788857D01*
X111381142Y-68788857D01*
X111266857Y-68846000D01*
X111781142Y-69531714D02*
X111666857Y-69588857D01*
X111381142Y-69588857D01*
X111266857Y-69531714D01*
X111209714Y-69417428D01*
X111209714Y-69303142D01*
X111266857Y-69188857D01*
X111381142Y-69131714D01*
X111666857Y-69131714D01*
X111781142Y-69074571D01*
X112181142Y-68788857D02*
X112638285Y-68788857D01*
X112352571Y-68388857D02*
X112352571Y-69417428D01*
X112409714Y-69531714D01*
X112524000Y-69588857D01*
X112638285Y-69588857D01*
X113038285Y-69588857D02*
X113038285Y-68788857D01*
X113038285Y-68388857D02*
X112981142Y-68446000D01*
X113038285Y-68503142D01*
X113095428Y-68446000D01*
X113038285Y-68388857D01*
X113038285Y-68503142D01*
X113781142Y-69588857D02*
X113666857Y-69531714D01*
X113609714Y-69474571D01*
X113552571Y-69360285D01*
X113552571Y-69017428D01*
X113609714Y-68903142D01*
X113666857Y-68846000D01*
X113781142Y-68788857D01*
X113952571Y-68788857D01*
X114066857Y-68846000D01*
X114124000Y-68903142D01*
X114181142Y-69017428D01*
X114181142Y-69360285D01*
X114124000Y-69474571D01*
X114066857Y-69531714D01*
X113952571Y-69588857D01*
X113781142Y-69588857D01*
X114695428Y-68788857D02*
X114695428Y-69588857D01*
X114695428Y-68903142D02*
X114752571Y-68846000D01*
X114866857Y-68788857D01*
X115038285Y-68788857D01*
X115152571Y-68846000D01*
X115209714Y-68960285D01*
X115209714Y-69588857D01*
X117095428Y-68960285D02*
X117266857Y-69017428D01*
X117324000Y-69074571D01*
X117381142Y-69188857D01*
X117381142Y-69360285D01*
X117324000Y-69474571D01*
X117266857Y-69531714D01*
X117152571Y-69588857D01*
X116695428Y-69588857D01*
X116695428Y-68388857D01*
X117095428Y-68388857D01*
X117209714Y-68446000D01*
X117266857Y-68503142D01*
X117324000Y-68617428D01*
X117324000Y-68731714D01*
X117266857Y-68846000D01*
X117209714Y-68903142D01*
X117095428Y-68960285D01*
X116695428Y-68960285D01*
X118066857Y-69588857D02*
X117952571Y-69531714D01*
X117895428Y-69474571D01*
X117838285Y-69360285D01*
X117838285Y-69017428D01*
X117895428Y-68903142D01*
X117952571Y-68846000D01*
X118066857Y-68788857D01*
X118238285Y-68788857D01*
X118352571Y-68846000D01*
X118409714Y-68903142D01*
X118466857Y-69017428D01*
X118466857Y-69360285D01*
X118409714Y-69474571D01*
X118352571Y-69531714D01*
X118238285Y-69588857D01*
X118066857Y-69588857D01*
X119495428Y-69588857D02*
X119495428Y-68960285D01*
X119438285Y-68846000D01*
X119324000Y-68788857D01*
X119095428Y-68788857D01*
X118981142Y-68846000D01*
X119495428Y-69531714D02*
X119381142Y-69588857D01*
X119095428Y-69588857D01*
X118981142Y-69531714D01*
X118924000Y-69417428D01*
X118924000Y-69303142D01*
X118981142Y-69188857D01*
X119095428Y-69131714D01*
X119381142Y-69131714D01*
X119495428Y-69074571D01*
X120066857Y-69588857D02*
X120066857Y-68788857D01*
X120066857Y-69017428D02*
X120124000Y-68903142D01*
X120181142Y-68846000D01*
X120295428Y-68788857D01*
X120409714Y-68788857D01*
X121324000Y-69588857D02*
X121324000Y-68388857D01*
X121324000Y-69531714D02*
X121209714Y-69588857D01*
X120981142Y-69588857D01*
X120866857Y-69531714D01*
X120809714Y-69474571D01*
X120752571Y-69360285D01*
X120752571Y-69017428D01*
X120809714Y-68903142D01*
X120866857Y-68846000D01*
X120981142Y-68788857D01*
X121209714Y-68788857D01*
X121324000Y-68846000D01*
X108809714Y-70624571D02*
X108695428Y-70567428D01*
X108466857Y-70567428D01*
X108352571Y-70624571D01*
X108238285Y-70738857D01*
X108181142Y-70853142D01*
X108181142Y-71081714D01*
X108238285Y-71196000D01*
X108352571Y-71310285D01*
X108466857Y-71367428D01*
X108695428Y-71367428D01*
X108809714Y-71310285D01*
X108581142Y-70167428D02*
X108295428Y-70224571D01*
X108009714Y-70396000D01*
X107838285Y-70681714D01*
X107781142Y-70967428D01*
X107838285Y-71253142D01*
X108009714Y-71538857D01*
X108295428Y-71710285D01*
X108581142Y-71767428D01*
X108866857Y-71710285D01*
X109152571Y-71538857D01*
X109324000Y-71253142D01*
X109381142Y-70967428D01*
X109324000Y-70681714D01*
X109152571Y-70396000D01*
X108866857Y-70224571D01*
X108581142Y-70167428D01*
X110809714Y-71538857D02*
X110809714Y-70338857D01*
X111495428Y-71538857D02*
X110981142Y-70853142D01*
X111495428Y-70338857D02*
X110809714Y-71024571D01*
X112466857Y-71481714D02*
X112352571Y-71538857D01*
X112124000Y-71538857D01*
X112009714Y-71481714D01*
X111952571Y-71367428D01*
X111952571Y-70910285D01*
X112009714Y-70796000D01*
X112124000Y-70738857D01*
X112352571Y-70738857D01*
X112466857Y-70796000D01*
X112524000Y-70910285D01*
X112524000Y-71024571D01*
X111952571Y-71138857D01*
X113038285Y-70738857D02*
X113038285Y-71538857D01*
X113038285Y-70853142D02*
X113095428Y-70796000D01*
X113209714Y-70738857D01*
X113381142Y-70738857D01*
X113495428Y-70796000D01*
X113552571Y-70910285D01*
X113552571Y-71538857D01*
X115609714Y-71538857D02*
X115038285Y-71538857D01*
X115038285Y-70338857D01*
X116181142Y-71538857D02*
X116066857Y-71481714D01*
X116009714Y-71424571D01*
X115952571Y-71310285D01*
X115952571Y-70967428D01*
X116009714Y-70853142D01*
X116066857Y-70796000D01*
X116181142Y-70738857D01*
X116352571Y-70738857D01*
X116466857Y-70796000D01*
X116524000Y-70853142D01*
X116581142Y-70967428D01*
X116581142Y-71310285D01*
X116524000Y-71424571D01*
X116466857Y-71481714D01*
X116352571Y-71538857D01*
X116181142Y-71538857D01*
X116981142Y-70738857D02*
X117209714Y-71538857D01*
X117438285Y-70967428D01*
X117666857Y-71538857D01*
X117895428Y-70738857D01*
X118809714Y-71481714D02*
X118695428Y-71538857D01*
X118466857Y-71538857D01*
X118352571Y-71481714D01*
X118295428Y-71367428D01*
X118295428Y-70910285D01*
X118352571Y-70796000D01*
X118466857Y-70738857D01*
X118695428Y-70738857D01*
X118809714Y-70796000D01*
X118866857Y-70910285D01*
X118866857Y-71024571D01*
X118295428Y-71138857D01*
X106495428Y-73488857D02*
X106495428Y-72288857D01*
X107181142Y-73488857D01*
X107181142Y-72288857D01*
X107924000Y-73488857D02*
X107809714Y-73431714D01*
X107752571Y-73374571D01*
X107695428Y-73260285D01*
X107695428Y-72917428D01*
X107752571Y-72803142D01*
X107809714Y-72746000D01*
X107924000Y-72688857D01*
X108095428Y-72688857D01*
X108209714Y-72746000D01*
X108266857Y-72803142D01*
X108324000Y-72917428D01*
X108324000Y-73260285D01*
X108266857Y-73374571D01*
X108209714Y-73431714D01*
X108095428Y-73488857D01*
X107924000Y-73488857D01*
X108724000Y-72688857D02*
X109009714Y-73488857D01*
X109295428Y-72688857D01*
X110209714Y-73431714D02*
X110095428Y-73488857D01*
X109866857Y-73488857D01*
X109752571Y-73431714D01*
X109695428Y-73317428D01*
X109695428Y-72860285D01*
X109752571Y-72746000D01*
X109866857Y-72688857D01*
X110095428Y-72688857D01*
X110209714Y-72746000D01*
X110266857Y-72860285D01*
X110266857Y-72974571D01*
X109695428Y-73088857D01*
X110781142Y-73488857D02*
X110781142Y-72688857D01*
X110781142Y-72803142D02*
X110838285Y-72746000D01*
X110952571Y-72688857D01*
X111124000Y-72688857D01*
X111238285Y-72746000D01*
X111295428Y-72860285D01*
X111295428Y-73488857D01*
X111295428Y-72860285D02*
X111352571Y-72746000D01*
X111466857Y-72688857D01*
X111638285Y-72688857D01*
X111752571Y-72746000D01*
X111809714Y-72860285D01*
X111809714Y-73488857D01*
X112381142Y-73488857D02*
X112381142Y-72288857D01*
X112381142Y-72746000D02*
X112495428Y-72688857D01*
X112724000Y-72688857D01*
X112838285Y-72746000D01*
X112895428Y-72803142D01*
X112952571Y-72917428D01*
X112952571Y-73260285D01*
X112895428Y-73374571D01*
X112838285Y-73431714D01*
X112724000Y-73488857D01*
X112495428Y-73488857D01*
X112381142Y-73431714D01*
X113924000Y-73431714D02*
X113809714Y-73488857D01*
X113581142Y-73488857D01*
X113466857Y-73431714D01*
X113409714Y-73317428D01*
X113409714Y-72860285D01*
X113466857Y-72746000D01*
X113581142Y-72688857D01*
X113809714Y-72688857D01*
X113924000Y-72746000D01*
X113981142Y-72860285D01*
X113981142Y-72974571D01*
X113409714Y-73088857D01*
X114495428Y-73488857D02*
X114495428Y-72688857D01*
X114495428Y-72917428D02*
X114552571Y-72803142D01*
X114609714Y-72746000D01*
X114724000Y-72688857D01*
X114838285Y-72688857D01*
X116095428Y-72403142D02*
X116152571Y-72346000D01*
X116266857Y-72288857D01*
X116552571Y-72288857D01*
X116666857Y-72346000D01*
X116724000Y-72403142D01*
X116781142Y-72517428D01*
X116781142Y-72631714D01*
X116724000Y-72803142D01*
X116038285Y-73488857D01*
X116781142Y-73488857D01*
X117524000Y-72288857D02*
X117638285Y-72288857D01*
X117752571Y-72346000D01*
X117809714Y-72403142D01*
X117866857Y-72517428D01*
X117924000Y-72746000D01*
X117924000Y-73031714D01*
X117866857Y-73260285D01*
X117809714Y-73374571D01*
X117752571Y-73431714D01*
X117638285Y-73488857D01*
X117524000Y-73488857D01*
X117409714Y-73431714D01*
X117352571Y-73374571D01*
X117295428Y-73260285D01*
X117238285Y-73031714D01*
X117238285Y-72746000D01*
X117295428Y-72517428D01*
X117352571Y-72403142D01*
X117409714Y-72346000D01*
X117524000Y-72288857D01*
X118381142Y-72403142D02*
X118438285Y-72346000D01*
X118552571Y-72288857D01*
X118838285Y-72288857D01*
X118952571Y-72346000D01*
X119009714Y-72403142D01*
X119066857Y-72517428D01*
X119066857Y-72631714D01*
X119009714Y-72803142D01*
X118324000Y-73488857D01*
X119066857Y-73488857D01*
X119809714Y-72288857D02*
X119924000Y-72288857D01*
X120038285Y-72346000D01*
X120095428Y-72403142D01*
X120152571Y-72517428D01*
X120209714Y-72746000D01*
X120209714Y-73031714D01*
X120152571Y-73260285D01*
X120095428Y-73374571D01*
X120038285Y-73431714D01*
X119924000Y-73488857D01*
X119809714Y-73488857D01*
X119695428Y-73431714D01*
X119638285Y-73374571D01*
X119581142Y-73260285D01*
X119524000Y-73031714D01*
X119524000Y-72746000D01*
X119581142Y-72517428D01*
X119638285Y-72403142D01*
X119695428Y-72346000D01*
X119809714Y-72288857D01*
X117113142Y-64741714D02*
X117241714Y-64784571D01*
X117284571Y-64827428D01*
X117327428Y-64913142D01*
X117327428Y-65041714D01*
X117284571Y-65127428D01*
X117241714Y-65170285D01*
X117155999Y-65213142D01*
X116813142Y-65213142D01*
X116813142Y-64313142D01*
X117113142Y-64313142D01*
X117198857Y-64356000D01*
X117241714Y-64398857D01*
X117284571Y-64484571D01*
X117284571Y-64570285D01*
X117241714Y-64656000D01*
X117198857Y-64698857D01*
X117113142Y-64741714D01*
X116813142Y-64741714D01*
X118013142Y-64741714D02*
X118141714Y-64784571D01*
X118184571Y-64827428D01*
X118227428Y-64913142D01*
X118227428Y-65041714D01*
X118184571Y-65127428D01*
X118141714Y-65170285D01*
X118055999Y-65213142D01*
X117713142Y-65213142D01*
X117713142Y-64313142D01*
X118013142Y-64313142D01*
X118098857Y-64356000D01*
X118141714Y-64398857D01*
X118184571Y-64484571D01*
X118184571Y-64570285D01*
X118141714Y-64656000D01*
X118098857Y-64698857D01*
X118013142Y-64741714D01*
X117713142Y-64741714D01*
X119127428Y-65127428D02*
X119084571Y-65170285D01*
X118955999Y-65213142D01*
X118870285Y-65213142D01*
X118741714Y-65170285D01*
X118655999Y-65084571D01*
X118613142Y-64998857D01*
X118570285Y-64827428D01*
X118570285Y-64698857D01*
X118613142Y-64527428D01*
X118655999Y-64441714D01*
X118741714Y-64356000D01*
X118870285Y-64313142D01*
X118955999Y-64313142D01*
X119084571Y-64356000D01*
X119127428Y-64398857D01*
X120198857Y-65213142D02*
X120198857Y-64313142D01*
X120498857Y-64956000D01*
X120798857Y-64313142D01*
X120798857Y-65213142D01*
X121227428Y-65213142D02*
X121227428Y-64613142D01*
X121227428Y-64313142D02*
X121184571Y-64356000D01*
X121227428Y-64398857D01*
X121270285Y-64356000D01*
X121227428Y-64313142D01*
X121227428Y-64398857D01*
X122041714Y-65170285D02*
X121955999Y-65213142D01*
X121784571Y-65213142D01*
X121698857Y-65170285D01*
X121655999Y-65127428D01*
X121613142Y-65041714D01*
X121613142Y-64784571D01*
X121655999Y-64698857D01*
X121698857Y-64656000D01*
X121784571Y-64613142D01*
X121955999Y-64613142D01*
X122041714Y-64656000D01*
X122427428Y-65213142D02*
X122427428Y-64613142D01*
X122427428Y-64784571D02*
X122470285Y-64698857D01*
X122513142Y-64656000D01*
X122598857Y-64613142D01*
X122684571Y-64613142D01*
X123113142Y-65213142D02*
X123027428Y-65170285D01*
X122984571Y-65127428D01*
X122941714Y-65041714D01*
X122941714Y-64784571D01*
X122984571Y-64698857D01*
X123027428Y-64656000D01*
X123113142Y-64613142D01*
X123241714Y-64613142D01*
X123327428Y-64656000D01*
X123370285Y-64698857D01*
X123413142Y-64784571D01*
X123413142Y-65041714D01*
X123370285Y-65127428D01*
X123327428Y-65170285D01*
X123241714Y-65213142D01*
X123113142Y-65213142D01*
X124441714Y-65170285D02*
X124570285Y-65213142D01*
X124784571Y-65213142D01*
X124870285Y-65170285D01*
X124913142Y-65127428D01*
X124955999Y-65041714D01*
X124955999Y-64956000D01*
X124913142Y-64870285D01*
X124870285Y-64827428D01*
X124784571Y-64784571D01*
X124613142Y-64741714D01*
X124527428Y-64698857D01*
X124484571Y-64656000D01*
X124441714Y-64570285D01*
X124441714Y-64484571D01*
X124484571Y-64398857D01*
X124527428Y-64356000D01*
X124613142Y-64313142D01*
X124827428Y-64313142D01*
X124955999Y-64356000D01*
X125855999Y-65127428D02*
X125813142Y-65170285D01*
X125684571Y-65213142D01*
X125598857Y-65213142D01*
X125470285Y-65170285D01*
X125384571Y-65084571D01*
X125341714Y-64998857D01*
X125298857Y-64827428D01*
X125298857Y-64698857D01*
X125341714Y-64527428D01*
X125384571Y-64441714D01*
X125470285Y-64356000D01*
X125598857Y-64313142D01*
X125684571Y-64313142D01*
X125813142Y-64356000D01*
X125855999Y-64398857D01*
X126198857Y-65170285D02*
X126327428Y-65213142D01*
X126541714Y-65213142D01*
X126627428Y-65170285D01*
X126670285Y-65127428D01*
X126713142Y-65041714D01*
X126713142Y-64956000D01*
X126670285Y-64870285D01*
X126627428Y-64827428D01*
X126541714Y-64784571D01*
X126370285Y-64741714D01*
X126284571Y-64698857D01*
X126241714Y-64656000D01*
X126198857Y-64570285D01*
X126198857Y-64484571D01*
X126241714Y-64398857D01*
X126284571Y-64356000D01*
X126370285Y-64313142D01*
X126584571Y-64313142D01*
X126713142Y-64356000D01*
X127098857Y-65213142D02*
X127098857Y-64313142D01*
X128213142Y-65213142D02*
X128213142Y-64313142D01*
X128213142Y-64741714D02*
X128727428Y-64741714D01*
X128727428Y-65213142D02*
X128727428Y-64313142D01*
X129284571Y-65213142D02*
X129198857Y-65170285D01*
X129155999Y-65127428D01*
X129113142Y-65041714D01*
X129113142Y-64784571D01*
X129155999Y-64698857D01*
X129198857Y-64656000D01*
X129284571Y-64613142D01*
X129413142Y-64613142D01*
X129498857Y-64656000D01*
X129541714Y-64698857D01*
X129584571Y-64784571D01*
X129584571Y-65041714D01*
X129541714Y-65127428D01*
X129498857Y-65170285D01*
X129413142Y-65213142D01*
X129284571Y-65213142D01*
X129927428Y-65170285D02*
X130013142Y-65213142D01*
X130184571Y-65213142D01*
X130270285Y-65170285D01*
X130313142Y-65084571D01*
X130313142Y-65041714D01*
X130270285Y-64956000D01*
X130184571Y-64913142D01*
X130055999Y-64913142D01*
X129970285Y-64870285D01*
X129927428Y-64784571D01*
X129927428Y-64741714D01*
X129970285Y-64656000D01*
X130055999Y-64613142D01*
X130184571Y-64613142D01*
X130270285Y-64656000D01*
X130570285Y-64613142D02*
X130913142Y-64613142D01*
X130698857Y-64313142D02*
X130698857Y-65084571D01*
X130741714Y-65170285D01*
X130827428Y-65213142D01*
X130913142Y-65213142D01*
X131855999Y-64956000D02*
X132284571Y-64956000D01*
X131770285Y-65213142D02*
X132070285Y-64313142D01*
X132370285Y-65213142D01*
X133055999Y-65213142D02*
X133055999Y-64313142D01*
X133055999Y-65170285D02*
X132970285Y-65213142D01*
X132798857Y-65213142D01*
X132713142Y-65170285D01*
X132670285Y-65127428D01*
X132627428Y-65041714D01*
X132627428Y-64784571D01*
X132670285Y-64698857D01*
X132713142Y-64656000D01*
X132798857Y-64613142D01*
X132970285Y-64613142D01*
X133055999Y-64656000D01*
X133870285Y-65213142D02*
X133870285Y-64741714D01*
X133827428Y-64656000D01*
X133741714Y-64613142D01*
X133570285Y-64613142D01*
X133484571Y-64656000D01*
X133870285Y-65170285D02*
X133784571Y-65213142D01*
X133570285Y-65213142D01*
X133484571Y-65170285D01*
X133441714Y-65084571D01*
X133441714Y-64998857D01*
X133484571Y-64913142D01*
X133570285Y-64870285D01*
X133784571Y-64870285D01*
X133870285Y-64827428D01*
X134298857Y-64613142D02*
X134298857Y-65513142D01*
X134298857Y-64656000D02*
X134384571Y-64613142D01*
X134556000Y-64613142D01*
X134641714Y-64656000D01*
X134684571Y-64698857D01*
X134727428Y-64784571D01*
X134727428Y-65041714D01*
X134684571Y-65127428D01*
X134641714Y-65170285D01*
X134556000Y-65213142D01*
X134384571Y-65213142D01*
X134298857Y-65170285D01*
X134984571Y-64613142D02*
X135327428Y-64613142D01*
X135113142Y-64313142D02*
X135113142Y-65084571D01*
X135156000Y-65170285D01*
X135241714Y-65213142D01*
X135327428Y-65213142D01*
X135756000Y-65213142D02*
X135670285Y-65170285D01*
X135627428Y-65127428D01*
X135584571Y-65041714D01*
X135584571Y-64784571D01*
X135627428Y-64698857D01*
X135670285Y-64656000D01*
X135756000Y-64613142D01*
X135884571Y-64613142D01*
X135970285Y-64656000D01*
X136013142Y-64698857D01*
X136056000Y-64784571D01*
X136056000Y-65041714D01*
X136013142Y-65127428D01*
X135970285Y-65170285D01*
X135884571Y-65213142D01*
X135756000Y-65213142D01*
X136441714Y-65213142D02*
X136441714Y-64613142D01*
X136441714Y-64784571D02*
X136484571Y-64698857D01*
X136527428Y-64656000D01*
X136613142Y-64613142D01*
X136698857Y-64613142D01*
X137684571Y-64870285D02*
X138370285Y-64870285D01*
X139484571Y-65213142D02*
X139484571Y-64313142D01*
X139913142Y-65213142D02*
X139913142Y-64313142D01*
X140127428Y-64313142D01*
X140256000Y-64356000D01*
X140341714Y-64441714D01*
X140384571Y-64527428D01*
X140427428Y-64698857D01*
X140427428Y-64827428D01*
X140384571Y-64998857D01*
X140341714Y-65084571D01*
X140256000Y-65170285D01*
X140127428Y-65213142D01*
X139913142Y-65213142D01*
X141327428Y-65127428D02*
X141284571Y-65170285D01*
X141156000Y-65213142D01*
X141070285Y-65213142D01*
X140941714Y-65170285D01*
X140856000Y-65084571D01*
X140813142Y-64998857D01*
X140770285Y-64827428D01*
X140770285Y-64698857D01*
X140813142Y-64527428D01*
X140856000Y-64441714D01*
X140941714Y-64356000D01*
X141070285Y-64313142D01*
X141156000Y-64313142D01*
X141284571Y-64356000D01*
X141327428Y-64398857D01*
X142141714Y-64313142D02*
X141713142Y-64313142D01*
X141670285Y-64741714D01*
X141713142Y-64698857D01*
X141798857Y-64656000D01*
X142013142Y-64656000D01*
X142098857Y-64698857D01*
X142141714Y-64741714D01*
X142184571Y-64827428D01*
X142184571Y-65041714D01*
X142141714Y-65127428D01*
X142098857Y-65170285D01*
X142013142Y-65213142D01*
X141798857Y-65213142D01*
X141713142Y-65170285D01*
X141670285Y-65127428D01*
X142741714Y-64313142D02*
X142827428Y-64313142D01*
X142913142Y-64356000D01*
X142956000Y-64398857D01*
X142998857Y-64484571D01*
X143041714Y-64656000D01*
X143041714Y-64870285D01*
X142998857Y-65041714D01*
X142956000Y-65127428D01*
X142913142Y-65170285D01*
X142827428Y-65213142D01*
X142741714Y-65213142D01*
X142656000Y-65170285D01*
X142613142Y-65127428D01*
X142570285Y-65041714D01*
X142527428Y-64870285D01*
X142527428Y-64656000D01*
X142570285Y-64484571D01*
X142613142Y-64398857D01*
X142656000Y-64356000D01*
X142741714Y-64313142D01*
X158620000Y-86182142D02*
X158320000Y-85753571D01*
X158105714Y-86182142D02*
X158105714Y-85282142D01*
X158448571Y-85282142D01*
X158534285Y-85325000D01*
X158577142Y-85367857D01*
X158620000Y-85453571D01*
X158620000Y-85582142D01*
X158577142Y-85667857D01*
X158534285Y-85710714D01*
X158448571Y-85753571D01*
X158105714Y-85753571D01*
X159348571Y-86139285D02*
X159262857Y-86182142D01*
X159091428Y-86182142D01*
X159005714Y-86139285D01*
X158962857Y-86053571D01*
X158962857Y-85710714D01*
X159005714Y-85625000D01*
X159091428Y-85582142D01*
X159262857Y-85582142D01*
X159348571Y-85625000D01*
X159391428Y-85710714D01*
X159391428Y-85796428D01*
X158962857Y-85882142D01*
X159691428Y-85582142D02*
X159905714Y-86182142D01*
X160120000Y-85582142D01*
X161320000Y-85282142D02*
X161405714Y-85282142D01*
X161491428Y-85325000D01*
X161534285Y-85367857D01*
X161577142Y-85453571D01*
X161620000Y-85625000D01*
X161620000Y-85839285D01*
X161577142Y-86010714D01*
X161534285Y-86096428D01*
X161491428Y-86139285D01*
X161405714Y-86182142D01*
X161320000Y-86182142D01*
X161234285Y-86139285D01*
X161191428Y-86096428D01*
X161148571Y-86010714D01*
X161105714Y-85839285D01*
X161105714Y-85625000D01*
X161148571Y-85453571D01*
X161191428Y-85367857D01*
X161234285Y-85325000D01*
X161320000Y-85282142D01*
X162477142Y-86182142D02*
X161962857Y-86182142D01*
X162220000Y-86182142D02*
X162220000Y-85282142D01*
X162134285Y-85410714D01*
X162048571Y-85496428D01*
X161962857Y-85539285D01*
X131305714Y-86139285D02*
X131434285Y-86182142D01*
X131648571Y-86182142D01*
X131734285Y-86139285D01*
X131777142Y-86096428D01*
X131820000Y-86010714D01*
X131820000Y-85925000D01*
X131777142Y-85839285D01*
X131734285Y-85796428D01*
X131648571Y-85753571D01*
X131477142Y-85710714D01*
X131391428Y-85667857D01*
X131348571Y-85625000D01*
X131305714Y-85539285D01*
X131305714Y-85453571D01*
X131348571Y-85367857D01*
X131391428Y-85325000D01*
X131477142Y-85282142D01*
X131691428Y-85282142D01*
X131820000Y-85325000D01*
X132720000Y-86096428D02*
X132677142Y-86139285D01*
X132548571Y-86182142D01*
X132462857Y-86182142D01*
X132334285Y-86139285D01*
X132248571Y-86053571D01*
X132205714Y-85967857D01*
X132162857Y-85796428D01*
X132162857Y-85667857D01*
X132205714Y-85496428D01*
X132248571Y-85410714D01*
X132334285Y-85325000D01*
X132462857Y-85282142D01*
X132548571Y-85282142D01*
X132677142Y-85325000D01*
X132720000Y-85367857D01*
X133062857Y-86139285D02*
X133191428Y-86182142D01*
X133405714Y-86182142D01*
X133491428Y-86139285D01*
X133534285Y-86096428D01*
X133577142Y-86010714D01*
X133577142Y-85925000D01*
X133534285Y-85839285D01*
X133491428Y-85796428D01*
X133405714Y-85753571D01*
X133234285Y-85710714D01*
X133148571Y-85667857D01*
X133105714Y-85625000D01*
X133062857Y-85539285D01*
X133062857Y-85453571D01*
X133105714Y-85367857D01*
X133148571Y-85325000D01*
X133234285Y-85282142D01*
X133448571Y-85282142D01*
X133577142Y-85325000D01*
X133962857Y-86182142D02*
X133962857Y-85282142D01*
X135077142Y-86182142D02*
X135077142Y-85282142D01*
X135291428Y-85282142D01*
X135420000Y-85325000D01*
X135505714Y-85410714D01*
X135548571Y-85496428D01*
X135591428Y-85667857D01*
X135591428Y-85796428D01*
X135548571Y-85967857D01*
X135505714Y-86053571D01*
X135420000Y-86139285D01*
X135291428Y-86182142D01*
X135077142Y-86182142D01*
X135977142Y-86182142D02*
X135977142Y-85582142D01*
X135977142Y-85282142D02*
X135934285Y-85325000D01*
X135977142Y-85367857D01*
X136020000Y-85325000D01*
X135977142Y-85282142D01*
X135977142Y-85367857D01*
X136362857Y-86139285D02*
X136448571Y-86182142D01*
X136620000Y-86182142D01*
X136705714Y-86139285D01*
X136748571Y-86053571D01*
X136748571Y-86010714D01*
X136705714Y-85925000D01*
X136620000Y-85882142D01*
X136491428Y-85882142D01*
X136405714Y-85839285D01*
X136362857Y-85753571D01*
X136362857Y-85710714D01*
X136405714Y-85625000D01*
X136491428Y-85582142D01*
X136620000Y-85582142D01*
X136705714Y-85625000D01*
X137134285Y-86182142D02*
X137134285Y-85282142D01*
X137220000Y-85839285D02*
X137477142Y-86182142D01*
X137477142Y-85582142D02*
X137134285Y-85925000D01*
X138548571Y-86182142D02*
X138548571Y-85282142D01*
X138762857Y-85282142D01*
X138891428Y-85325000D01*
X138977142Y-85410714D01*
X139020000Y-85496428D01*
X139062857Y-85667857D01*
X139062857Y-85796428D01*
X139020000Y-85967857D01*
X138977142Y-86053571D01*
X138891428Y-86139285D01*
X138762857Y-86182142D01*
X138548571Y-86182142D01*
X139448571Y-86182142D02*
X139448571Y-85582142D01*
X139448571Y-85753571D02*
X139491428Y-85667857D01*
X139534285Y-85625000D01*
X139620000Y-85582142D01*
X139705714Y-85582142D01*
X140005714Y-86182142D02*
X140005714Y-85582142D01*
X140005714Y-85282142D02*
X139962857Y-85325000D01*
X140005714Y-85367857D01*
X140048571Y-85325000D01*
X140005714Y-85282142D01*
X140005714Y-85367857D01*
X140348571Y-85582142D02*
X140562857Y-86182142D01*
X140777142Y-85582142D01*
X141462857Y-86139285D02*
X141377142Y-86182142D01*
X141205714Y-86182142D01*
X141120000Y-86139285D01*
X141077142Y-86053571D01*
X141077142Y-85710714D01*
X141120000Y-85625000D01*
X141205714Y-85582142D01*
X141377142Y-85582142D01*
X141462857Y-85625000D01*
X141505714Y-85710714D01*
X141505714Y-85796428D01*
X141077142Y-85882142D01*
X142577142Y-85839285D02*
X143262857Y-85839285D01*
X144334285Y-86139285D02*
X144462857Y-86182142D01*
X144677142Y-86182142D01*
X144762857Y-86139285D01*
X144805714Y-86096428D01*
X144848571Y-86010714D01*
X144848571Y-85925000D01*
X144805714Y-85839285D01*
X144762857Y-85796428D01*
X144677142Y-85753571D01*
X144505714Y-85710714D01*
X144420000Y-85667857D01*
X144377142Y-85625000D01*
X144334285Y-85539285D01*
X144334285Y-85453571D01*
X144377142Y-85367857D01*
X144420000Y-85325000D01*
X144505714Y-85282142D01*
X144720000Y-85282142D01*
X144848571Y-85325000D01*
X145748571Y-86096428D02*
X145705714Y-86139285D01*
X145577142Y-86182142D01*
X145491428Y-86182142D01*
X145362857Y-86139285D01*
X145277142Y-86053571D01*
X145234285Y-85967857D01*
X145191428Y-85796428D01*
X145191428Y-85667857D01*
X145234285Y-85496428D01*
X145277142Y-85410714D01*
X145362857Y-85325000D01*
X145491428Y-85282142D01*
X145577142Y-85282142D01*
X145705714Y-85325000D01*
X145748571Y-85367857D01*
X146091428Y-85925000D02*
X146520000Y-85925000D01*
X146005714Y-86182142D02*
X146305714Y-85282142D01*
X146605714Y-86182142D01*
X147034285Y-85667857D02*
X146948571Y-85625000D01*
X146905714Y-85582142D01*
X146862857Y-85496428D01*
X146862857Y-85453571D01*
X146905714Y-85367857D01*
X146948571Y-85325000D01*
X147034285Y-85282142D01*
X147205714Y-85282142D01*
X147291428Y-85325000D01*
X147334285Y-85367857D01*
X147377142Y-85453571D01*
X147377142Y-85496428D01*
X147334285Y-85582142D01*
X147291428Y-85625000D01*
X147205714Y-85667857D01*
X147034285Y-85667857D01*
X146948571Y-85710714D01*
X146905714Y-85753571D01*
X146862857Y-85839285D01*
X146862857Y-86010714D01*
X146905714Y-86096428D01*
X146948571Y-86139285D01*
X147034285Y-86182142D01*
X147205714Y-86182142D01*
X147291428Y-86139285D01*
X147334285Y-86096428D01*
X147377142Y-86010714D01*
X147377142Y-85839285D01*
X147334285Y-85753571D01*
X147291428Y-85710714D01*
X147205714Y-85667857D01*
X147934285Y-85282142D02*
X148020000Y-85282142D01*
X148105714Y-85325000D01*
X148148571Y-85367857D01*
X148191428Y-85453571D01*
X148234285Y-85625000D01*
X148234285Y-85839285D01*
X148191428Y-86010714D01*
X148148571Y-86096428D01*
X148105714Y-86139285D01*
X148020000Y-86182142D01*
X147934285Y-86182142D01*
X147848571Y-86139285D01*
X147805714Y-86096428D01*
X147762857Y-86010714D01*
X147720000Y-85839285D01*
X147720000Y-85625000D01*
X147762857Y-85453571D01*
X147805714Y-85367857D01*
X147848571Y-85325000D01*
X147934285Y-85282142D01*
D11*
X108770000Y-86775000D02*
X170770000Y-86775000D01*
D10*
X114408857Y-87282142D02*
X114408857Y-87882142D01*
X114194571Y-86939285D02*
X113980285Y-87582142D01*
X114537428Y-87582142D01*
X114837428Y-87067857D02*
X114880285Y-87025000D01*
X114966000Y-86982142D01*
X115180285Y-86982142D01*
X115266000Y-87025000D01*
X115308857Y-87067857D01*
X115351714Y-87153571D01*
X115351714Y-87239285D01*
X115308857Y-87367857D01*
X114794571Y-87882142D01*
X115351714Y-87882142D01*
X166012857Y-91482142D02*
X166012857Y-92082142D01*
X165798571Y-91139285D02*
X165584285Y-91782142D01*
X166141428Y-91782142D01*
X166655714Y-91182142D02*
X166741428Y-91182142D01*
X166827142Y-91225000D01*
X166870000Y-91267857D01*
X166912857Y-91353571D01*
X166955714Y-91525000D01*
X166955714Y-91739285D01*
X166912857Y-91910714D01*
X166870000Y-91996428D01*
X166827142Y-92039285D01*
X166741428Y-92082142D01*
X166655714Y-92082142D01*
X166570000Y-92039285D01*
X166527142Y-91996428D01*
X166484285Y-91910714D01*
X166441428Y-91739285D01*
X166441428Y-91525000D01*
X166484285Y-91353571D01*
X166527142Y-91267857D01*
X166570000Y-91225000D01*
X166655714Y-91182142D01*
X164241428Y-93082142D02*
X164798571Y-93082142D01*
X164498571Y-93425000D01*
X164627142Y-93425000D01*
X164712857Y-93467857D01*
X164755714Y-93510714D01*
X164798571Y-93596428D01*
X164798571Y-93810714D01*
X164755714Y-93896428D01*
X164712857Y-93939285D01*
X164627142Y-93982142D01*
X164370000Y-93982142D01*
X164284285Y-93939285D01*
X164241428Y-93896428D01*
X165227142Y-93982142D02*
X165398571Y-93982142D01*
X165484285Y-93939285D01*
X165527142Y-93896428D01*
X165612857Y-93767857D01*
X165655714Y-93596428D01*
X165655714Y-93253571D01*
X165612857Y-93167857D01*
X165570000Y-93125000D01*
X165484285Y-93082142D01*
X165312857Y-93082142D01*
X165227142Y-93125000D01*
X165184285Y-93167857D01*
X165141428Y-93253571D01*
X165141428Y-93467857D01*
X165184285Y-93553571D01*
X165227142Y-93596428D01*
X165312857Y-93639285D01*
X165484285Y-93639285D01*
X165570000Y-93596428D01*
X165612857Y-93553571D01*
X165655714Y-93467857D01*
X165755714Y-87767857D02*
X165670000Y-87725000D01*
X165627142Y-87682142D01*
X165584285Y-87596428D01*
X165584285Y-87553571D01*
X165627142Y-87467857D01*
X165670000Y-87425000D01*
X165755714Y-87382142D01*
X165927142Y-87382142D01*
X166012857Y-87425000D01*
X166055714Y-87467857D01*
X166098571Y-87553571D01*
X166098571Y-87596428D01*
X166055714Y-87682142D01*
X166012857Y-87725000D01*
X165927142Y-87767857D01*
X165755714Y-87767857D01*
X165670000Y-87810714D01*
X165627142Y-87853571D01*
X165584285Y-87939285D01*
X165584285Y-88110714D01*
X165627142Y-88196428D01*
X165670000Y-88239285D01*
X165755714Y-88282142D01*
X165927142Y-88282142D01*
X166012857Y-88239285D01*
X166055714Y-88196428D01*
X166098571Y-88110714D01*
X166098571Y-87939285D01*
X166055714Y-87853571D01*
X166012857Y-87810714D01*
X165927142Y-87767857D01*
X166655714Y-87382142D02*
X166741428Y-87382142D01*
X166827142Y-87425000D01*
X166870000Y-87467857D01*
X166912857Y-87553571D01*
X166955714Y-87725000D01*
X166955714Y-87939285D01*
X166912857Y-88110714D01*
X166870000Y-88196428D01*
X166827142Y-88239285D01*
X166741428Y-88282142D01*
X166655714Y-88282142D01*
X166570000Y-88239285D01*
X166527142Y-88196428D01*
X166484285Y-88110714D01*
X166441428Y-87939285D01*
X166441428Y-87725000D01*
X166484285Y-87553571D01*
X166527142Y-87467857D01*
X166570000Y-87425000D01*
X166655714Y-87382142D01*
X164141428Y-89282142D02*
X164741428Y-89282142D01*
X164355714Y-90182142D01*
X165127142Y-90182142D02*
X165298571Y-90182142D01*
X165384285Y-90139285D01*
X165427142Y-90096428D01*
X165512857Y-89967857D01*
X165555714Y-89796428D01*
X165555714Y-89453571D01*
X165512857Y-89367857D01*
X165470000Y-89325000D01*
X165384285Y-89282142D01*
X165212857Y-89282142D01*
X165127142Y-89325000D01*
X165084285Y-89367857D01*
X165041428Y-89453571D01*
X165041428Y-89667857D01*
X165084285Y-89753571D01*
X165127142Y-89796428D01*
X165212857Y-89839285D01*
X165384285Y-89839285D01*
X165470000Y-89796428D01*
X165512857Y-89753571D01*
X165555714Y-89667857D01*
X114712857Y-91267857D02*
X114755714Y-91225000D01*
X114841428Y-91182142D01*
X115055714Y-91182142D01*
X115141428Y-91225000D01*
X115184285Y-91267857D01*
X115227142Y-91353571D01*
X115227142Y-91439285D01*
X115184285Y-91567857D01*
X114670000Y-92082142D01*
X115227142Y-92082142D01*
X114027142Y-93982142D02*
X113512857Y-93982142D01*
X113770000Y-93982142D02*
X113770000Y-93082142D01*
X113684285Y-93210714D01*
X113598571Y-93296428D01*
X113512857Y-93339285D01*
X96247857Y-64752142D02*
X96247857Y-65352142D01*
X96033571Y-64409285D02*
X95819285Y-65052142D01*
X96376428Y-65052142D01*
X96762142Y-65352142D02*
X96933571Y-65352142D01*
X97019285Y-65309285D01*
X97062142Y-65266428D01*
X97147857Y-65137857D01*
X97190714Y-64966428D01*
X97190714Y-64623571D01*
X97147857Y-64537857D01*
X97105000Y-64495000D01*
X97019285Y-64452142D01*
X96847857Y-64452142D01*
X96762142Y-64495000D01*
X96719285Y-64537857D01*
X96676428Y-64623571D01*
X96676428Y-64837857D01*
X96719285Y-64923571D01*
X96762142Y-64966428D01*
X96847857Y-65009285D01*
X97019285Y-65009285D01*
X97105000Y-64966428D01*
X97147857Y-64923571D01*
X97190714Y-64837857D01*
X96290714Y-65952142D02*
X95862142Y-65952142D01*
X95819285Y-66380714D01*
X95862142Y-66337857D01*
X95947857Y-66295000D01*
X96162142Y-66295000D01*
X96247857Y-66337857D01*
X96290714Y-66380714D01*
X96333571Y-66466428D01*
X96333571Y-66680714D01*
X96290714Y-66766428D01*
X96247857Y-66809285D01*
X96162142Y-66852142D01*
X95947857Y-66852142D01*
X95862142Y-66809285D01*
X95819285Y-66766428D01*
X96890714Y-65952142D02*
X96976428Y-65952142D01*
X97062142Y-65995000D01*
X97105000Y-66037857D01*
X97147857Y-66123571D01*
X97190714Y-66295000D01*
X97190714Y-66509285D01*
X97147857Y-66680714D01*
X97105000Y-66766428D01*
X97062142Y-66809285D01*
X96976428Y-66852142D01*
X96890714Y-66852142D01*
X96805000Y-66809285D01*
X96762142Y-66766428D01*
X96719285Y-66680714D01*
X96676428Y-66509285D01*
X96676428Y-66295000D01*
X96719285Y-66123571D01*
X96762142Y-66037857D01*
X96805000Y-65995000D01*
X96890714Y-65952142D01*
X158103142Y-65225142D02*
X157588857Y-65225142D01*
X157846000Y-65225142D02*
X157846000Y-64325142D01*
X157760285Y-64453714D01*
X157674571Y-64539428D01*
X157588857Y-64582285D01*
X157588857Y-65910857D02*
X157631714Y-65868000D01*
X157717428Y-65825142D01*
X157931714Y-65825142D01*
X158017428Y-65868000D01*
X158060285Y-65910857D01*
X158103142Y-65996571D01*
X158103142Y-66082285D01*
X158060285Y-66210857D01*
X157546000Y-66725142D01*
X158103142Y-66725142D01*
D11*
X94854000Y-63790000D02*
X159854000Y-63790000D01*
D10*
X174319071Y-92518142D02*
X174319071Y-91618142D01*
X174747642Y-92518142D02*
X174747642Y-91618142D01*
X174961928Y-91618142D01*
X175090500Y-91661000D01*
X175176214Y-91746714D01*
X175219071Y-91832428D01*
X175261928Y-92003857D01*
X175261928Y-92132428D01*
X175219071Y-92303857D01*
X175176214Y-92389571D01*
X175090500Y-92475285D01*
X174961928Y-92518142D01*
X174747642Y-92518142D01*
X175819071Y-91618142D02*
X175904785Y-91618142D01*
X175990500Y-91661000D01*
X176033357Y-91703857D01*
X176076214Y-91789571D01*
X176119071Y-91961000D01*
X176119071Y-92175285D01*
X176076214Y-92346714D01*
X176033357Y-92432428D01*
X175990500Y-92475285D01*
X175904785Y-92518142D01*
X175819071Y-92518142D01*
X175733357Y-92475285D01*
X175690500Y-92432428D01*
X175647642Y-92346714D01*
X175604785Y-92175285D01*
X175604785Y-91961000D01*
X175647642Y-91789571D01*
X175690500Y-91703857D01*
X175733357Y-91661000D01*
X175819071Y-91618142D01*
X174319071Y-89978142D02*
X174319071Y-89078142D01*
X174747642Y-89978142D02*
X174747642Y-89078142D01*
X174961928Y-89078142D01*
X175090500Y-89121000D01*
X175176214Y-89206714D01*
X175219071Y-89292428D01*
X175261928Y-89463857D01*
X175261928Y-89592428D01*
X175219071Y-89763857D01*
X175176214Y-89849571D01*
X175090500Y-89935285D01*
X174961928Y-89978142D01*
X174747642Y-89978142D01*
X176119071Y-89978142D02*
X175604785Y-89978142D01*
X175861928Y-89978142D02*
X175861928Y-89078142D01*
X175776214Y-89206714D01*
X175690500Y-89292428D01*
X175604785Y-89335285D01*
X174319071Y-87438142D02*
X174319071Y-86538142D01*
X174747642Y-87438142D02*
X174747642Y-86538142D01*
X174961928Y-86538142D01*
X175090500Y-86581000D01*
X175176214Y-86666714D01*
X175219071Y-86752428D01*
X175261928Y-86923857D01*
X175261928Y-87052428D01*
X175219071Y-87223857D01*
X175176214Y-87309571D01*
X175090500Y-87395285D01*
X174961928Y-87438142D01*
X174747642Y-87438142D01*
X175604785Y-86623857D02*
X175647642Y-86581000D01*
X175733357Y-86538142D01*
X175947642Y-86538142D01*
X176033357Y-86581000D01*
X176076214Y-86623857D01*
X176119071Y-86709571D01*
X176119071Y-86795285D01*
X176076214Y-86923857D01*
X175561928Y-87438142D01*
X176119071Y-87438142D01*
X174319071Y-84898142D02*
X174319071Y-83998142D01*
X174747642Y-84898142D02*
X174747642Y-83998142D01*
X174961928Y-83998142D01*
X175090500Y-84041000D01*
X175176214Y-84126714D01*
X175219071Y-84212428D01*
X175261928Y-84383857D01*
X175261928Y-84512428D01*
X175219071Y-84683857D01*
X175176214Y-84769571D01*
X175090500Y-84855285D01*
X174961928Y-84898142D01*
X174747642Y-84898142D01*
X175561928Y-83998142D02*
X176119071Y-83998142D01*
X175819071Y-84341000D01*
X175947642Y-84341000D01*
X176033357Y-84383857D01*
X176076214Y-84426714D01*
X176119071Y-84512428D01*
X176119071Y-84726714D01*
X176076214Y-84812428D01*
X176033357Y-84855285D01*
X175947642Y-84898142D01*
X175690500Y-84898142D01*
X175604785Y-84855285D01*
X175561928Y-84812428D01*
X173890500Y-82358142D02*
X173890500Y-81458142D01*
X174190500Y-82101000D01*
X174490500Y-81458142D01*
X174490500Y-82358142D01*
X174790500Y-81458142D02*
X175304785Y-81458142D01*
X175047642Y-82358142D02*
X175047642Y-81458142D01*
X176119071Y-82358142D02*
X175819071Y-81929571D01*
X175604785Y-82358142D02*
X175604785Y-81458142D01*
X175947642Y-81458142D01*
X176033357Y-81501000D01*
X176076214Y-81543857D01*
X176119071Y-81629571D01*
X176119071Y-81758142D01*
X176076214Y-81843857D01*
X176033357Y-81886714D01*
X175947642Y-81929571D01*
X175604785Y-81929571D01*
X174104785Y-79818142D02*
X174104785Y-78918142D01*
X174319071Y-78918142D01*
X174447642Y-78961000D01*
X174533357Y-79046714D01*
X174576214Y-79132428D01*
X174619071Y-79303857D01*
X174619071Y-79432428D01*
X174576214Y-79603857D01*
X174533357Y-79689571D01*
X174447642Y-79775285D01*
X174319071Y-79818142D01*
X174104785Y-79818142D01*
X175433357Y-79818142D02*
X175004785Y-79818142D01*
X175004785Y-78918142D01*
X175904785Y-79389571D02*
X175904785Y-79818142D01*
X175604785Y-78918142D02*
X175904785Y-79389571D01*
X176204785Y-78918142D01*
X173890500Y-77235285D02*
X174019071Y-77278142D01*
X174233357Y-77278142D01*
X174319071Y-77235285D01*
X174361928Y-77192428D01*
X174404785Y-77106714D01*
X174404785Y-77021000D01*
X174361928Y-76935285D01*
X174319071Y-76892428D01*
X174233357Y-76849571D01*
X174061928Y-76806714D01*
X173976214Y-76763857D01*
X173933357Y-76721000D01*
X173890500Y-76635285D01*
X173890500Y-76549571D01*
X173933357Y-76463857D01*
X173976214Y-76421000D01*
X174061928Y-76378142D01*
X174276214Y-76378142D01*
X174404785Y-76421000D01*
X174961928Y-76849571D02*
X174961928Y-77278142D01*
X174661928Y-76378142D02*
X174961928Y-76849571D01*
X175261928Y-76378142D01*
X175561928Y-77278142D02*
X175561928Y-76378142D01*
X176076214Y-77278142D01*
X176076214Y-76378142D01*
X174430500Y-74738142D02*
X174001928Y-74738142D01*
X174001928Y-73838142D01*
X174730500Y-74266714D02*
X175030500Y-74266714D01*
X175159071Y-74738142D02*
X174730500Y-74738142D01*
X174730500Y-73838142D01*
X175159071Y-73838142D01*
X175544785Y-74738142D02*
X175544785Y-73838142D01*
X175759071Y-73838142D01*
X175887642Y-73881000D01*
X175973357Y-73966714D01*
X176016214Y-74052428D01*
X176059071Y-74223857D01*
X176059071Y-74352428D01*
X176016214Y-74523857D01*
X175973357Y-74609571D01*
X175887642Y-74695285D01*
X175759071Y-74738142D01*
X175544785Y-74738142D01*
D11*
X176836000Y-73001000D02*
X178166000Y-73001000D01*
X176836000Y-74331000D02*
X176836000Y-73001000D01*
X179436000Y-73001000D02*
X182036000Y-73001000D01*
X179436000Y-75601000D02*
X179436000Y-73001000D01*
X176836000Y-75601000D02*
X179436000Y-75601000D01*
X182036000Y-73001000D02*
X182036000Y-93441000D01*
X176836000Y-75601000D02*
X176836000Y-93441000D01*
X176836000Y-93441000D02*
X182036000Y-93441000D01*
X154870000Y-67575000D02*
X154870000Y-65760000D01*
X155105000Y-67575000D02*
X154870000Y-67575000D01*
X155105000Y-71435000D02*
X155105000Y-67575000D01*
X155105000Y-75295000D02*
X154870000Y-75295000D01*
X155105000Y-71435000D02*
X155105000Y-75295000D01*
X142085000Y-67575000D02*
X142320000Y-67575000D01*
X142085000Y-71435000D02*
X142085000Y-67575000D01*
X142085000Y-75295000D02*
X142320000Y-75295000D01*
X142085000Y-71435000D02*
X142085000Y-75295000D01*
X135185000Y-67575000D02*
X135185000Y-65760000D01*
X135420000Y-67575000D02*
X135185000Y-67575000D01*
X135420000Y-71435000D02*
X135420000Y-67575000D01*
X135420000Y-75295000D02*
X135185000Y-75295000D01*
X135420000Y-71435000D02*
X135420000Y-75295000D01*
X122400000Y-67575000D02*
X122635000Y-67575000D01*
X122400000Y-71435000D02*
X122400000Y-67575000D01*
X122400000Y-75295000D02*
X122635000Y-75295000D01*
X122400000Y-71435000D02*
X122400000Y-75295000D01*
X172214240Y-80467859D02*
X172214240Y-80142301D01*
X171194240Y-80467859D02*
X171194240Y-80142301D01*
X152315000Y-81345000D02*
X152315000Y-81845000D01*
X150035000Y-81345000D02*
X150035000Y-81845000D01*
X138920000Y-81345000D02*
X138920000Y-81845000D01*
X136640000Y-81345000D02*
X136640000Y-81845000D01*
X136640000Y-79305000D02*
X136640000Y-78805000D01*
X138920000Y-79305000D02*
X138920000Y-78805000D01*
X130945000Y-79305000D02*
X130945000Y-78805000D01*
X133225000Y-79305000D02*
X133225000Y-78805000D01*
X137655000Y-74982779D02*
X137655000Y-74657221D01*
X136635000Y-74982779D02*
X136635000Y-74657221D01*
X157340000Y-74982779D02*
X157340000Y-74657221D01*
X156320000Y-74982779D02*
X156320000Y-74657221D01*
X116340000Y-79305000D02*
X116340000Y-78805000D01*
X118620000Y-79305000D02*
X118620000Y-78805000D01*
X118620000Y-81345000D02*
X118620000Y-81845000D01*
X116340000Y-81345000D02*
X116340000Y-81845000D01*
X123960000Y-79305000D02*
X123960000Y-78805000D01*
X126240000Y-79305000D02*
X126240000Y-78805000D01*
X133225000Y-81345000D02*
X133225000Y-81845000D01*
X130945000Y-81345000D02*
X130945000Y-81845000D01*
X126240000Y-81345000D02*
X126240000Y-81845000D01*
X123960000Y-81345000D02*
X123960000Y-81845000D01*
X150035000Y-79305000D02*
X150035000Y-78805000D01*
X152315000Y-79305000D02*
X152315000Y-78805000D01*
X143685000Y-79305000D02*
X143685000Y-78805000D01*
X145965000Y-79305000D02*
X145965000Y-78805000D01*
X145965000Y-81345000D02*
X145965000Y-81845000D01*
X143685000Y-81345000D02*
X143685000Y-81845000D01*
D12*
X96170000Y-71275000D02*
X102370000Y-71275000D01*
X96170000Y-94675000D02*
X102370000Y-94675000D01*
X96170000Y-94675000D02*
X96170000Y-71275000D01*
X97170000Y-93675000D02*
X101870000Y-93675000D01*
X97170000Y-72275000D02*
X101870000Y-72275000D01*
X104570000Y-92475000D02*
X104570000Y-73475000D01*
X104570000Y-92475000D02*
X102370000Y-94675000D01*
X104570000Y-73475000D02*
X102370000Y-71275000D01*
X97170000Y-93675000D02*
X97170000Y-72275000D01*
X103570000Y-91975000D02*
X103570000Y-73975000D01*
X103570000Y-91975000D02*
X101870000Y-93675000D01*
X103570000Y-73975000D02*
X101870000Y-72275000D01*
D10*
X179136000Y-71508142D02*
X179136000Y-72151000D01*
X179093142Y-72279571D01*
X179007428Y-72365285D01*
X178878857Y-72408142D01*
X178793142Y-72408142D01*
X180036000Y-72408142D02*
X179521714Y-72408142D01*
X179778857Y-72408142D02*
X179778857Y-71508142D01*
X179693142Y-71636714D01*
X179607428Y-71722428D01*
X179521714Y-71765285D01*
X155971428Y-69658142D02*
X155971428Y-68758142D01*
X156914285Y-69572428D02*
X156871428Y-69615285D01*
X156742857Y-69658142D01*
X156657142Y-69658142D01*
X156528571Y-69615285D01*
X156442857Y-69529571D01*
X156400000Y-69443857D01*
X156357142Y-69272428D01*
X156357142Y-69143857D01*
X156400000Y-68972428D01*
X156442857Y-68886714D01*
X156528571Y-68801000D01*
X156657142Y-68758142D01*
X156742857Y-68758142D01*
X156871428Y-68801000D01*
X156914285Y-68843857D01*
X157771428Y-69658142D02*
X157257142Y-69658142D01*
X157514285Y-69658142D02*
X157514285Y-68758142D01*
X157428571Y-68886714D01*
X157342857Y-68972428D01*
X157257142Y-69015285D01*
X117548571Y-86137428D02*
X117505714Y-86180285D01*
X117377142Y-86223142D01*
X117291428Y-86223142D01*
X117162857Y-86180285D01*
X117077142Y-86094571D01*
X117034285Y-86008857D01*
X116991428Y-85837428D01*
X116991428Y-85708857D01*
X117034285Y-85537428D01*
X117077142Y-85451714D01*
X117162857Y-85366000D01*
X117291428Y-85323142D01*
X117377142Y-85323142D01*
X117505714Y-85366000D01*
X117548571Y-85408857D01*
X117934285Y-86223142D02*
X117934285Y-85323142D01*
X118448571Y-86223142D01*
X118448571Y-85323142D01*
X118834285Y-85408857D02*
X118877142Y-85366000D01*
X118962857Y-85323142D01*
X119177142Y-85323142D01*
X119262857Y-85366000D01*
X119305714Y-85408857D01*
X119348571Y-85494571D01*
X119348571Y-85580285D01*
X119305714Y-85708857D01*
X118791428Y-86223142D01*
X119348571Y-86223142D01*
X136012428Y-69658142D02*
X136012428Y-68758142D01*
X136955285Y-69572428D02*
X136912428Y-69615285D01*
X136783857Y-69658142D01*
X136698142Y-69658142D01*
X136569571Y-69615285D01*
X136483857Y-69529571D01*
X136441000Y-69443857D01*
X136398142Y-69272428D01*
X136398142Y-69143857D01*
X136441000Y-68972428D01*
X136483857Y-68886714D01*
X136569571Y-68801000D01*
X136698142Y-68758142D01*
X136783857Y-68758142D01*
X136912428Y-68801000D01*
X136955285Y-68843857D01*
X137298142Y-68843857D02*
X137341000Y-68801000D01*
X137426714Y-68758142D01*
X137641000Y-68758142D01*
X137726714Y-68801000D01*
X137769571Y-68843857D01*
X137812428Y-68929571D01*
X137812428Y-69015285D01*
X137769571Y-69143857D01*
X137255285Y-69658142D01*
X137812428Y-69658142D01*
X171554240Y-78202222D02*
X171254240Y-77773651D01*
X171039954Y-78202222D02*
X171039954Y-77302222D01*
X171382811Y-77302222D01*
X171468525Y-77345080D01*
X171511382Y-77387937D01*
X171554240Y-77473651D01*
X171554240Y-77602222D01*
X171511382Y-77687937D01*
X171468525Y-77730794D01*
X171382811Y-77773651D01*
X171039954Y-77773651D01*
X172411382Y-78202222D02*
X171897097Y-78202222D01*
X172154240Y-78202222D02*
X172154240Y-77302222D01*
X172068525Y-77430794D01*
X171982811Y-77516508D01*
X171897097Y-77559365D01*
X102253571Y-65176428D02*
X102210714Y-65219285D01*
X102082142Y-65262142D01*
X101996428Y-65262142D01*
X101867857Y-65219285D01*
X101782142Y-65133571D01*
X101739285Y-65047857D01*
X101696428Y-64876428D01*
X101696428Y-64747857D01*
X101739285Y-64576428D01*
X101782142Y-64490714D01*
X101867857Y-64405000D01*
X101996428Y-64362142D01*
X102082142Y-64362142D01*
X102210714Y-64405000D01*
X102253571Y-64447857D01*
X102639285Y-65262142D02*
X102639285Y-64362142D01*
X103153571Y-65262142D01*
X103153571Y-64362142D01*
X104053571Y-65262142D02*
X103539285Y-65262142D01*
X103796428Y-65262142D02*
X103796428Y-64362142D01*
X103710714Y-64490714D01*
X103625000Y-64576428D01*
X103539285Y-64619285D01*
X153366071Y-82002142D02*
X153066071Y-81573571D01*
X152851785Y-82002142D02*
X152851785Y-81102142D01*
X153194642Y-81102142D01*
X153280357Y-81145000D01*
X153323214Y-81187857D01*
X153366071Y-81273571D01*
X153366071Y-81402142D01*
X153323214Y-81487857D01*
X153280357Y-81530714D01*
X153194642Y-81573571D01*
X152851785Y-81573571D01*
X153751785Y-82002142D02*
X153751785Y-81102142D01*
X154266071Y-82002142D01*
X154266071Y-81102142D01*
X154651785Y-81187857D02*
X154694642Y-81145000D01*
X154780357Y-81102142D01*
X154994642Y-81102142D01*
X155080357Y-81145000D01*
X155123214Y-81187857D01*
X155166071Y-81273571D01*
X155166071Y-81359285D01*
X155123214Y-81487857D01*
X154608928Y-82002142D01*
X155166071Y-82002142D01*
X140096071Y-82182142D02*
X139796071Y-81753571D01*
X139581785Y-82182142D02*
X139581785Y-81282142D01*
X139924642Y-81282142D01*
X140010357Y-81325000D01*
X140053214Y-81367857D01*
X140096071Y-81453571D01*
X140096071Y-81582142D01*
X140053214Y-81667857D01*
X140010357Y-81710714D01*
X139924642Y-81753571D01*
X139581785Y-81753571D01*
X140481785Y-82182142D02*
X140481785Y-81282142D01*
X140996071Y-82182142D01*
X140996071Y-81282142D01*
X141810357Y-81282142D02*
X141638928Y-81282142D01*
X141553214Y-81325000D01*
X141510357Y-81367857D01*
X141424642Y-81496428D01*
X141381785Y-81667857D01*
X141381785Y-82010714D01*
X141424642Y-82096428D01*
X141467500Y-82139285D01*
X141553214Y-82182142D01*
X141724642Y-82182142D01*
X141810357Y-82139285D01*
X141853214Y-82096428D01*
X141896071Y-82010714D01*
X141896071Y-81796428D01*
X141853214Y-81710714D01*
X141810357Y-81667857D01*
X141724642Y-81625000D01*
X141553214Y-81625000D01*
X141467500Y-81667857D01*
X141424642Y-81710714D01*
X141381785Y-81796428D01*
X140096071Y-79462142D02*
X139796071Y-79033571D01*
X139581785Y-79462142D02*
X139581785Y-78562142D01*
X139924642Y-78562142D01*
X140010357Y-78605000D01*
X140053214Y-78647857D01*
X140096071Y-78733571D01*
X140096071Y-78862142D01*
X140053214Y-78947857D01*
X140010357Y-78990714D01*
X139924642Y-79033571D01*
X139581785Y-79033571D01*
X140481785Y-79462142D02*
X140481785Y-78562142D01*
X140996071Y-79462142D01*
X140996071Y-78562142D01*
X141853214Y-78562142D02*
X141424642Y-78562142D01*
X141381785Y-78990714D01*
X141424642Y-78947857D01*
X141510357Y-78905000D01*
X141724642Y-78905000D01*
X141810357Y-78947857D01*
X141853214Y-78990714D01*
X141896071Y-79076428D01*
X141896071Y-79290714D01*
X141853214Y-79376428D01*
X141810357Y-79419285D01*
X141724642Y-79462142D01*
X141510357Y-79462142D01*
X141424642Y-79419285D01*
X141381785Y-79376428D01*
X134181071Y-79462142D02*
X133881071Y-79033571D01*
X133666785Y-79462142D02*
X133666785Y-78562142D01*
X134009642Y-78562142D01*
X134095357Y-78605000D01*
X134138214Y-78647857D01*
X134181071Y-78733571D01*
X134181071Y-78862142D01*
X134138214Y-78947857D01*
X134095357Y-78990714D01*
X134009642Y-79033571D01*
X133666785Y-79033571D01*
X134566785Y-79462142D02*
X134566785Y-78562142D01*
X135081071Y-79462142D01*
X135081071Y-78562142D01*
X135423928Y-78562142D02*
X136023928Y-78562142D01*
X135638214Y-79462142D01*
X136995000Y-72747428D02*
X136952142Y-72790285D01*
X136823571Y-72833142D01*
X136737857Y-72833142D01*
X136609285Y-72790285D01*
X136523571Y-72704571D01*
X136480714Y-72618857D01*
X136437857Y-72447428D01*
X136437857Y-72318857D01*
X136480714Y-72147428D01*
X136523571Y-72061714D01*
X136609285Y-71976000D01*
X136737857Y-71933142D01*
X136823571Y-71933142D01*
X136952142Y-71976000D01*
X136995000Y-72018857D01*
X137337857Y-72018857D02*
X137380714Y-71976000D01*
X137466428Y-71933142D01*
X137680714Y-71933142D01*
X137766428Y-71976000D01*
X137809285Y-72018857D01*
X137852142Y-72104571D01*
X137852142Y-72190285D01*
X137809285Y-72318857D01*
X137295000Y-72833142D01*
X137852142Y-72833142D01*
X156680000Y-72747428D02*
X156637142Y-72790285D01*
X156508571Y-72833142D01*
X156422857Y-72833142D01*
X156294285Y-72790285D01*
X156208571Y-72704571D01*
X156165714Y-72618857D01*
X156122857Y-72447428D01*
X156122857Y-72318857D01*
X156165714Y-72147428D01*
X156208571Y-72061714D01*
X156294285Y-71976000D01*
X156422857Y-71933142D01*
X156508571Y-71933142D01*
X156637142Y-71976000D01*
X156680000Y-72018857D01*
X157537142Y-72833142D02*
X157022857Y-72833142D01*
X157280000Y-72833142D02*
X157280000Y-71933142D01*
X157194285Y-72061714D01*
X157108571Y-72147428D01*
X157022857Y-72190285D01*
X119576071Y-79462142D02*
X119276071Y-79033571D01*
X119061785Y-79462142D02*
X119061785Y-78562142D01*
X119404642Y-78562142D01*
X119490357Y-78605000D01*
X119533214Y-78647857D01*
X119576071Y-78733571D01*
X119576071Y-78862142D01*
X119533214Y-78947857D01*
X119490357Y-78990714D01*
X119404642Y-79033571D01*
X119061785Y-79033571D01*
X119961785Y-79462142D02*
X119961785Y-78562142D01*
X120476071Y-79462142D01*
X120476071Y-78562142D01*
X121376071Y-79462142D02*
X120861785Y-79462142D01*
X121118928Y-79462142D02*
X121118928Y-78562142D01*
X121033214Y-78690714D01*
X120947500Y-78776428D01*
X120861785Y-78819285D01*
X122233214Y-79462142D02*
X121718928Y-79462142D01*
X121976071Y-79462142D02*
X121976071Y-78562142D01*
X121890357Y-78690714D01*
X121804642Y-78776428D01*
X121718928Y-78819285D01*
X119576071Y-82002142D02*
X119276071Y-81573571D01*
X119061785Y-82002142D02*
X119061785Y-81102142D01*
X119404642Y-81102142D01*
X119490357Y-81145000D01*
X119533214Y-81187857D01*
X119576071Y-81273571D01*
X119576071Y-81402142D01*
X119533214Y-81487857D01*
X119490357Y-81530714D01*
X119404642Y-81573571D01*
X119061785Y-81573571D01*
X119961785Y-82002142D02*
X119961785Y-81102142D01*
X120476071Y-82002142D01*
X120476071Y-81102142D01*
X121376071Y-82002142D02*
X120861785Y-82002142D01*
X121118928Y-82002142D02*
X121118928Y-81102142D01*
X121033214Y-81230714D01*
X120947500Y-81316428D01*
X120861785Y-81359285D01*
X121718928Y-81187857D02*
X121761785Y-81145000D01*
X121847500Y-81102142D01*
X122061785Y-81102142D01*
X122147500Y-81145000D01*
X122190357Y-81187857D01*
X122233214Y-81273571D01*
X122233214Y-81359285D01*
X122190357Y-81487857D01*
X121676071Y-82002142D01*
X122233214Y-82002142D01*
X127196071Y-79462142D02*
X126896071Y-79033571D01*
X126681785Y-79462142D02*
X126681785Y-78562142D01*
X127024642Y-78562142D01*
X127110357Y-78605000D01*
X127153214Y-78647857D01*
X127196071Y-78733571D01*
X127196071Y-78862142D01*
X127153214Y-78947857D01*
X127110357Y-78990714D01*
X127024642Y-79033571D01*
X126681785Y-79033571D01*
X127581785Y-79462142D02*
X127581785Y-78562142D01*
X128096071Y-79462142D01*
X128096071Y-78562142D01*
X128567500Y-79462142D02*
X128738928Y-79462142D01*
X128824642Y-79419285D01*
X128867500Y-79376428D01*
X128953214Y-79247857D01*
X128996071Y-79076428D01*
X128996071Y-78733571D01*
X128953214Y-78647857D01*
X128910357Y-78605000D01*
X128824642Y-78562142D01*
X128653214Y-78562142D01*
X128567500Y-78605000D01*
X128524642Y-78647857D01*
X128481785Y-78733571D01*
X128481785Y-78947857D01*
X128524642Y-79033571D01*
X128567500Y-79076428D01*
X128653214Y-79119285D01*
X128824642Y-79119285D01*
X128910357Y-79076428D01*
X128953214Y-79033571D01*
X128996071Y-78947857D01*
X134181071Y-82002142D02*
X133881071Y-81573571D01*
X133666785Y-82002142D02*
X133666785Y-81102142D01*
X134009642Y-81102142D01*
X134095357Y-81145000D01*
X134138214Y-81187857D01*
X134181071Y-81273571D01*
X134181071Y-81402142D01*
X134138214Y-81487857D01*
X134095357Y-81530714D01*
X134009642Y-81573571D01*
X133666785Y-81573571D01*
X134566785Y-82002142D02*
X134566785Y-81102142D01*
X135081071Y-82002142D01*
X135081071Y-81102142D01*
X135638214Y-81487857D02*
X135552500Y-81445000D01*
X135509642Y-81402142D01*
X135466785Y-81316428D01*
X135466785Y-81273571D01*
X135509642Y-81187857D01*
X135552500Y-81145000D01*
X135638214Y-81102142D01*
X135809642Y-81102142D01*
X135895357Y-81145000D01*
X135938214Y-81187857D01*
X135981071Y-81273571D01*
X135981071Y-81316428D01*
X135938214Y-81402142D01*
X135895357Y-81445000D01*
X135809642Y-81487857D01*
X135638214Y-81487857D01*
X135552500Y-81530714D01*
X135509642Y-81573571D01*
X135466785Y-81659285D01*
X135466785Y-81830714D01*
X135509642Y-81916428D01*
X135552500Y-81959285D01*
X135638214Y-82002142D01*
X135809642Y-82002142D01*
X135895357Y-81959285D01*
X135938214Y-81916428D01*
X135981071Y-81830714D01*
X135981071Y-81659285D01*
X135938214Y-81573571D01*
X135895357Y-81530714D01*
X135809642Y-81487857D01*
X127196071Y-82002142D02*
X126896071Y-81573571D01*
X126681785Y-82002142D02*
X126681785Y-81102142D01*
X127024642Y-81102142D01*
X127110357Y-81145000D01*
X127153214Y-81187857D01*
X127196071Y-81273571D01*
X127196071Y-81402142D01*
X127153214Y-81487857D01*
X127110357Y-81530714D01*
X127024642Y-81573571D01*
X126681785Y-81573571D01*
X127581785Y-82002142D02*
X127581785Y-81102142D01*
X128096071Y-82002142D01*
X128096071Y-81102142D01*
X128996071Y-82002142D02*
X128481785Y-82002142D01*
X128738928Y-82002142D02*
X128738928Y-81102142D01*
X128653214Y-81230714D01*
X128567500Y-81316428D01*
X128481785Y-81359285D01*
X129553214Y-81102142D02*
X129638928Y-81102142D01*
X129724642Y-81145000D01*
X129767500Y-81187857D01*
X129810357Y-81273571D01*
X129853214Y-81445000D01*
X129853214Y-81659285D01*
X129810357Y-81830714D01*
X129767500Y-81916428D01*
X129724642Y-81959285D01*
X129638928Y-82002142D01*
X129553214Y-82002142D01*
X129467500Y-81959285D01*
X129424642Y-81916428D01*
X129381785Y-81830714D01*
X129338928Y-81659285D01*
X129338928Y-81445000D01*
X129381785Y-81273571D01*
X129424642Y-81187857D01*
X129467500Y-81145000D01*
X129553214Y-81102142D01*
X153366071Y-79462142D02*
X153066071Y-79033571D01*
X152851785Y-79462142D02*
X152851785Y-78562142D01*
X153194642Y-78562142D01*
X153280357Y-78605000D01*
X153323214Y-78647857D01*
X153366071Y-78733571D01*
X153366071Y-78862142D01*
X153323214Y-78947857D01*
X153280357Y-78990714D01*
X153194642Y-79033571D01*
X152851785Y-79033571D01*
X153751785Y-79462142D02*
X153751785Y-78562142D01*
X154266071Y-79462142D01*
X154266071Y-78562142D01*
X155166071Y-79462142D02*
X154651785Y-79462142D01*
X154908928Y-79462142D02*
X154908928Y-78562142D01*
X154823214Y-78690714D01*
X154737500Y-78776428D01*
X154651785Y-78819285D01*
X146921071Y-79462142D02*
X146621071Y-79033571D01*
X146406785Y-79462142D02*
X146406785Y-78562142D01*
X146749642Y-78562142D01*
X146835357Y-78605000D01*
X146878214Y-78647857D01*
X146921071Y-78733571D01*
X146921071Y-78862142D01*
X146878214Y-78947857D01*
X146835357Y-78990714D01*
X146749642Y-79033571D01*
X146406785Y-79033571D01*
X147306785Y-79462142D02*
X147306785Y-78562142D01*
X147821071Y-79462142D01*
X147821071Y-78562142D01*
X148163928Y-78562142D02*
X148721071Y-78562142D01*
X148421071Y-78905000D01*
X148549642Y-78905000D01*
X148635357Y-78947857D01*
X148678214Y-78990714D01*
X148721071Y-79076428D01*
X148721071Y-79290714D01*
X148678214Y-79376428D01*
X148635357Y-79419285D01*
X148549642Y-79462142D01*
X148292500Y-79462142D01*
X148206785Y-79419285D01*
X148163928Y-79376428D01*
X146921071Y-82002142D02*
X146621071Y-81573571D01*
X146406785Y-82002142D02*
X146406785Y-81102142D01*
X146749642Y-81102142D01*
X146835357Y-81145000D01*
X146878214Y-81187857D01*
X146921071Y-81273571D01*
X146921071Y-81402142D01*
X146878214Y-81487857D01*
X146835357Y-81530714D01*
X146749642Y-81573571D01*
X146406785Y-81573571D01*
X147306785Y-82002142D02*
X147306785Y-81102142D01*
X147821071Y-82002142D01*
X147821071Y-81102142D01*
X148635357Y-81402142D02*
X148635357Y-82002142D01*
X148421071Y-81059285D02*
X148206785Y-81702142D01*
X148763928Y-81702142D01*
X100070000Y-69782142D02*
X100070000Y-70425000D01*
X100027142Y-70553571D01*
X99941428Y-70639285D01*
X99812857Y-70682142D01*
X99727142Y-70682142D01*
X100455714Y-69867857D02*
X100498571Y-69825000D01*
X100584285Y-69782142D01*
X100798571Y-69782142D01*
X100884285Y-69825000D01*
X100927142Y-69867857D01*
X100970000Y-69953571D01*
X100970000Y-70039285D01*
X100927142Y-70167857D01*
X100412857Y-70682142D01*
X100970000Y-70682142D01*
M02*
