G04 #@! TF.GenerationSoftware,KiCad,Pcbnew,(5.1.5)-3*
G04 #@! TF.CreationDate,2020-11-01T11:49:08+00:00*
G04 #@! TF.ProjectId,SCSIConnectorA,53435349-436f-46e6-9e65-63746f72412e,rev?*
G04 #@! TF.SameCoordinates,Original*
G04 #@! TF.FileFunction,Paste,Top*
G04 #@! TF.FilePolarity,Positive*
%FSLAX46Y46*%
G04 Gerber Fmt 4.6, Leading zero omitted, Abs format (unit mm)*
G04 Created by KiCad (PCBNEW (5.1.5)-3) date 2020-11-01 11:49:08*
%MOMM*%
%LPD*%
G04 APERTURE LIST*
%ADD10C,0.100000*%
%ADD11R,0.320000X0.500000*%
G04 APERTURE END LIST*
D10*
G36*
X154474703Y-75060722D02*
G01*
X154489264Y-75062882D01*
X154503543Y-75066459D01*
X154517403Y-75071418D01*
X154530710Y-75077712D01*
X154543336Y-75085280D01*
X154555159Y-75094048D01*
X154566066Y-75103934D01*
X154575952Y-75114841D01*
X154584720Y-75126664D01*
X154592288Y-75139290D01*
X154598582Y-75152597D01*
X154603541Y-75166457D01*
X154607118Y-75180736D01*
X154609278Y-75195297D01*
X154610000Y-75210000D01*
X154610000Y-76960000D01*
X154609278Y-76974703D01*
X154607118Y-76989264D01*
X154603541Y-77003543D01*
X154598582Y-77017403D01*
X154592288Y-77030710D01*
X154584720Y-77043336D01*
X154575952Y-77055159D01*
X154566066Y-77066066D01*
X154555159Y-77075952D01*
X154543336Y-77084720D01*
X154530710Y-77092288D01*
X154517403Y-77098582D01*
X154503543Y-77103541D01*
X154489264Y-77107118D01*
X154474703Y-77109278D01*
X154460000Y-77110000D01*
X154160000Y-77110000D01*
X154145297Y-77109278D01*
X154130736Y-77107118D01*
X154116457Y-77103541D01*
X154102597Y-77098582D01*
X154089290Y-77092288D01*
X154076664Y-77084720D01*
X154064841Y-77075952D01*
X154053934Y-77066066D01*
X154044048Y-77055159D01*
X154035280Y-77043336D01*
X154027712Y-77030710D01*
X154021418Y-77017403D01*
X154016459Y-77003543D01*
X154012882Y-76989264D01*
X154010722Y-76974703D01*
X154010000Y-76960000D01*
X154010000Y-75210000D01*
X154010722Y-75195297D01*
X154012882Y-75180736D01*
X154016459Y-75166457D01*
X154021418Y-75152597D01*
X154027712Y-75139290D01*
X154035280Y-75126664D01*
X154044048Y-75114841D01*
X154053934Y-75103934D01*
X154064841Y-75094048D01*
X154076664Y-75085280D01*
X154089290Y-75077712D01*
X154102597Y-75071418D01*
X154116457Y-75066459D01*
X154130736Y-75062882D01*
X154145297Y-75060722D01*
X154160000Y-75060000D01*
X154460000Y-75060000D01*
X154474703Y-75060722D01*
G37*
G36*
X153204703Y-75060722D02*
G01*
X153219264Y-75062882D01*
X153233543Y-75066459D01*
X153247403Y-75071418D01*
X153260710Y-75077712D01*
X153273336Y-75085280D01*
X153285159Y-75094048D01*
X153296066Y-75103934D01*
X153305952Y-75114841D01*
X153314720Y-75126664D01*
X153322288Y-75139290D01*
X153328582Y-75152597D01*
X153333541Y-75166457D01*
X153337118Y-75180736D01*
X153339278Y-75195297D01*
X153340000Y-75210000D01*
X153340000Y-76960000D01*
X153339278Y-76974703D01*
X153337118Y-76989264D01*
X153333541Y-77003543D01*
X153328582Y-77017403D01*
X153322288Y-77030710D01*
X153314720Y-77043336D01*
X153305952Y-77055159D01*
X153296066Y-77066066D01*
X153285159Y-77075952D01*
X153273336Y-77084720D01*
X153260710Y-77092288D01*
X153247403Y-77098582D01*
X153233543Y-77103541D01*
X153219264Y-77107118D01*
X153204703Y-77109278D01*
X153190000Y-77110000D01*
X152890000Y-77110000D01*
X152875297Y-77109278D01*
X152860736Y-77107118D01*
X152846457Y-77103541D01*
X152832597Y-77098582D01*
X152819290Y-77092288D01*
X152806664Y-77084720D01*
X152794841Y-77075952D01*
X152783934Y-77066066D01*
X152774048Y-77055159D01*
X152765280Y-77043336D01*
X152757712Y-77030710D01*
X152751418Y-77017403D01*
X152746459Y-77003543D01*
X152742882Y-76989264D01*
X152740722Y-76974703D01*
X152740000Y-76960000D01*
X152740000Y-75210000D01*
X152740722Y-75195297D01*
X152742882Y-75180736D01*
X152746459Y-75166457D01*
X152751418Y-75152597D01*
X152757712Y-75139290D01*
X152765280Y-75126664D01*
X152774048Y-75114841D01*
X152783934Y-75103934D01*
X152794841Y-75094048D01*
X152806664Y-75085280D01*
X152819290Y-75077712D01*
X152832597Y-75071418D01*
X152846457Y-75066459D01*
X152860736Y-75062882D01*
X152875297Y-75060722D01*
X152890000Y-75060000D01*
X153190000Y-75060000D01*
X153204703Y-75060722D01*
G37*
G36*
X151934703Y-75060722D02*
G01*
X151949264Y-75062882D01*
X151963543Y-75066459D01*
X151977403Y-75071418D01*
X151990710Y-75077712D01*
X152003336Y-75085280D01*
X152015159Y-75094048D01*
X152026066Y-75103934D01*
X152035952Y-75114841D01*
X152044720Y-75126664D01*
X152052288Y-75139290D01*
X152058582Y-75152597D01*
X152063541Y-75166457D01*
X152067118Y-75180736D01*
X152069278Y-75195297D01*
X152070000Y-75210000D01*
X152070000Y-76960000D01*
X152069278Y-76974703D01*
X152067118Y-76989264D01*
X152063541Y-77003543D01*
X152058582Y-77017403D01*
X152052288Y-77030710D01*
X152044720Y-77043336D01*
X152035952Y-77055159D01*
X152026066Y-77066066D01*
X152015159Y-77075952D01*
X152003336Y-77084720D01*
X151990710Y-77092288D01*
X151977403Y-77098582D01*
X151963543Y-77103541D01*
X151949264Y-77107118D01*
X151934703Y-77109278D01*
X151920000Y-77110000D01*
X151620000Y-77110000D01*
X151605297Y-77109278D01*
X151590736Y-77107118D01*
X151576457Y-77103541D01*
X151562597Y-77098582D01*
X151549290Y-77092288D01*
X151536664Y-77084720D01*
X151524841Y-77075952D01*
X151513934Y-77066066D01*
X151504048Y-77055159D01*
X151495280Y-77043336D01*
X151487712Y-77030710D01*
X151481418Y-77017403D01*
X151476459Y-77003543D01*
X151472882Y-76989264D01*
X151470722Y-76974703D01*
X151470000Y-76960000D01*
X151470000Y-75210000D01*
X151470722Y-75195297D01*
X151472882Y-75180736D01*
X151476459Y-75166457D01*
X151481418Y-75152597D01*
X151487712Y-75139290D01*
X151495280Y-75126664D01*
X151504048Y-75114841D01*
X151513934Y-75103934D01*
X151524841Y-75094048D01*
X151536664Y-75085280D01*
X151549290Y-75077712D01*
X151562597Y-75071418D01*
X151576457Y-75066459D01*
X151590736Y-75062882D01*
X151605297Y-75060722D01*
X151620000Y-75060000D01*
X151920000Y-75060000D01*
X151934703Y-75060722D01*
G37*
G36*
X150664703Y-75060722D02*
G01*
X150679264Y-75062882D01*
X150693543Y-75066459D01*
X150707403Y-75071418D01*
X150720710Y-75077712D01*
X150733336Y-75085280D01*
X150745159Y-75094048D01*
X150756066Y-75103934D01*
X150765952Y-75114841D01*
X150774720Y-75126664D01*
X150782288Y-75139290D01*
X150788582Y-75152597D01*
X150793541Y-75166457D01*
X150797118Y-75180736D01*
X150799278Y-75195297D01*
X150800000Y-75210000D01*
X150800000Y-76960000D01*
X150799278Y-76974703D01*
X150797118Y-76989264D01*
X150793541Y-77003543D01*
X150788582Y-77017403D01*
X150782288Y-77030710D01*
X150774720Y-77043336D01*
X150765952Y-77055159D01*
X150756066Y-77066066D01*
X150745159Y-77075952D01*
X150733336Y-77084720D01*
X150720710Y-77092288D01*
X150707403Y-77098582D01*
X150693543Y-77103541D01*
X150679264Y-77107118D01*
X150664703Y-77109278D01*
X150650000Y-77110000D01*
X150350000Y-77110000D01*
X150335297Y-77109278D01*
X150320736Y-77107118D01*
X150306457Y-77103541D01*
X150292597Y-77098582D01*
X150279290Y-77092288D01*
X150266664Y-77084720D01*
X150254841Y-77075952D01*
X150243934Y-77066066D01*
X150234048Y-77055159D01*
X150225280Y-77043336D01*
X150217712Y-77030710D01*
X150211418Y-77017403D01*
X150206459Y-77003543D01*
X150202882Y-76989264D01*
X150200722Y-76974703D01*
X150200000Y-76960000D01*
X150200000Y-75210000D01*
X150200722Y-75195297D01*
X150202882Y-75180736D01*
X150206459Y-75166457D01*
X150211418Y-75152597D01*
X150217712Y-75139290D01*
X150225280Y-75126664D01*
X150234048Y-75114841D01*
X150243934Y-75103934D01*
X150254841Y-75094048D01*
X150266664Y-75085280D01*
X150279290Y-75077712D01*
X150292597Y-75071418D01*
X150306457Y-75066459D01*
X150320736Y-75062882D01*
X150335297Y-75060722D01*
X150350000Y-75060000D01*
X150650000Y-75060000D01*
X150664703Y-75060722D01*
G37*
G36*
X149394703Y-75060722D02*
G01*
X149409264Y-75062882D01*
X149423543Y-75066459D01*
X149437403Y-75071418D01*
X149450710Y-75077712D01*
X149463336Y-75085280D01*
X149475159Y-75094048D01*
X149486066Y-75103934D01*
X149495952Y-75114841D01*
X149504720Y-75126664D01*
X149512288Y-75139290D01*
X149518582Y-75152597D01*
X149523541Y-75166457D01*
X149527118Y-75180736D01*
X149529278Y-75195297D01*
X149530000Y-75210000D01*
X149530000Y-76960000D01*
X149529278Y-76974703D01*
X149527118Y-76989264D01*
X149523541Y-77003543D01*
X149518582Y-77017403D01*
X149512288Y-77030710D01*
X149504720Y-77043336D01*
X149495952Y-77055159D01*
X149486066Y-77066066D01*
X149475159Y-77075952D01*
X149463336Y-77084720D01*
X149450710Y-77092288D01*
X149437403Y-77098582D01*
X149423543Y-77103541D01*
X149409264Y-77107118D01*
X149394703Y-77109278D01*
X149380000Y-77110000D01*
X149080000Y-77110000D01*
X149065297Y-77109278D01*
X149050736Y-77107118D01*
X149036457Y-77103541D01*
X149022597Y-77098582D01*
X149009290Y-77092288D01*
X148996664Y-77084720D01*
X148984841Y-77075952D01*
X148973934Y-77066066D01*
X148964048Y-77055159D01*
X148955280Y-77043336D01*
X148947712Y-77030710D01*
X148941418Y-77017403D01*
X148936459Y-77003543D01*
X148932882Y-76989264D01*
X148930722Y-76974703D01*
X148930000Y-76960000D01*
X148930000Y-75210000D01*
X148930722Y-75195297D01*
X148932882Y-75180736D01*
X148936459Y-75166457D01*
X148941418Y-75152597D01*
X148947712Y-75139290D01*
X148955280Y-75126664D01*
X148964048Y-75114841D01*
X148973934Y-75103934D01*
X148984841Y-75094048D01*
X148996664Y-75085280D01*
X149009290Y-75077712D01*
X149022597Y-75071418D01*
X149036457Y-75066459D01*
X149050736Y-75062882D01*
X149065297Y-75060722D01*
X149080000Y-75060000D01*
X149380000Y-75060000D01*
X149394703Y-75060722D01*
G37*
G36*
X148124703Y-75060722D02*
G01*
X148139264Y-75062882D01*
X148153543Y-75066459D01*
X148167403Y-75071418D01*
X148180710Y-75077712D01*
X148193336Y-75085280D01*
X148205159Y-75094048D01*
X148216066Y-75103934D01*
X148225952Y-75114841D01*
X148234720Y-75126664D01*
X148242288Y-75139290D01*
X148248582Y-75152597D01*
X148253541Y-75166457D01*
X148257118Y-75180736D01*
X148259278Y-75195297D01*
X148260000Y-75210000D01*
X148260000Y-76960000D01*
X148259278Y-76974703D01*
X148257118Y-76989264D01*
X148253541Y-77003543D01*
X148248582Y-77017403D01*
X148242288Y-77030710D01*
X148234720Y-77043336D01*
X148225952Y-77055159D01*
X148216066Y-77066066D01*
X148205159Y-77075952D01*
X148193336Y-77084720D01*
X148180710Y-77092288D01*
X148167403Y-77098582D01*
X148153543Y-77103541D01*
X148139264Y-77107118D01*
X148124703Y-77109278D01*
X148110000Y-77110000D01*
X147810000Y-77110000D01*
X147795297Y-77109278D01*
X147780736Y-77107118D01*
X147766457Y-77103541D01*
X147752597Y-77098582D01*
X147739290Y-77092288D01*
X147726664Y-77084720D01*
X147714841Y-77075952D01*
X147703934Y-77066066D01*
X147694048Y-77055159D01*
X147685280Y-77043336D01*
X147677712Y-77030710D01*
X147671418Y-77017403D01*
X147666459Y-77003543D01*
X147662882Y-76989264D01*
X147660722Y-76974703D01*
X147660000Y-76960000D01*
X147660000Y-75210000D01*
X147660722Y-75195297D01*
X147662882Y-75180736D01*
X147666459Y-75166457D01*
X147671418Y-75152597D01*
X147677712Y-75139290D01*
X147685280Y-75126664D01*
X147694048Y-75114841D01*
X147703934Y-75103934D01*
X147714841Y-75094048D01*
X147726664Y-75085280D01*
X147739290Y-75077712D01*
X147752597Y-75071418D01*
X147766457Y-75066459D01*
X147780736Y-75062882D01*
X147795297Y-75060722D01*
X147810000Y-75060000D01*
X148110000Y-75060000D01*
X148124703Y-75060722D01*
G37*
G36*
X146854703Y-75060722D02*
G01*
X146869264Y-75062882D01*
X146883543Y-75066459D01*
X146897403Y-75071418D01*
X146910710Y-75077712D01*
X146923336Y-75085280D01*
X146935159Y-75094048D01*
X146946066Y-75103934D01*
X146955952Y-75114841D01*
X146964720Y-75126664D01*
X146972288Y-75139290D01*
X146978582Y-75152597D01*
X146983541Y-75166457D01*
X146987118Y-75180736D01*
X146989278Y-75195297D01*
X146990000Y-75210000D01*
X146990000Y-76960000D01*
X146989278Y-76974703D01*
X146987118Y-76989264D01*
X146983541Y-77003543D01*
X146978582Y-77017403D01*
X146972288Y-77030710D01*
X146964720Y-77043336D01*
X146955952Y-77055159D01*
X146946066Y-77066066D01*
X146935159Y-77075952D01*
X146923336Y-77084720D01*
X146910710Y-77092288D01*
X146897403Y-77098582D01*
X146883543Y-77103541D01*
X146869264Y-77107118D01*
X146854703Y-77109278D01*
X146840000Y-77110000D01*
X146540000Y-77110000D01*
X146525297Y-77109278D01*
X146510736Y-77107118D01*
X146496457Y-77103541D01*
X146482597Y-77098582D01*
X146469290Y-77092288D01*
X146456664Y-77084720D01*
X146444841Y-77075952D01*
X146433934Y-77066066D01*
X146424048Y-77055159D01*
X146415280Y-77043336D01*
X146407712Y-77030710D01*
X146401418Y-77017403D01*
X146396459Y-77003543D01*
X146392882Y-76989264D01*
X146390722Y-76974703D01*
X146390000Y-76960000D01*
X146390000Y-75210000D01*
X146390722Y-75195297D01*
X146392882Y-75180736D01*
X146396459Y-75166457D01*
X146401418Y-75152597D01*
X146407712Y-75139290D01*
X146415280Y-75126664D01*
X146424048Y-75114841D01*
X146433934Y-75103934D01*
X146444841Y-75094048D01*
X146456664Y-75085280D01*
X146469290Y-75077712D01*
X146482597Y-75071418D01*
X146496457Y-75066459D01*
X146510736Y-75062882D01*
X146525297Y-75060722D01*
X146540000Y-75060000D01*
X146840000Y-75060000D01*
X146854703Y-75060722D01*
G37*
G36*
X145584703Y-75060722D02*
G01*
X145599264Y-75062882D01*
X145613543Y-75066459D01*
X145627403Y-75071418D01*
X145640710Y-75077712D01*
X145653336Y-75085280D01*
X145665159Y-75094048D01*
X145676066Y-75103934D01*
X145685952Y-75114841D01*
X145694720Y-75126664D01*
X145702288Y-75139290D01*
X145708582Y-75152597D01*
X145713541Y-75166457D01*
X145717118Y-75180736D01*
X145719278Y-75195297D01*
X145720000Y-75210000D01*
X145720000Y-76960000D01*
X145719278Y-76974703D01*
X145717118Y-76989264D01*
X145713541Y-77003543D01*
X145708582Y-77017403D01*
X145702288Y-77030710D01*
X145694720Y-77043336D01*
X145685952Y-77055159D01*
X145676066Y-77066066D01*
X145665159Y-77075952D01*
X145653336Y-77084720D01*
X145640710Y-77092288D01*
X145627403Y-77098582D01*
X145613543Y-77103541D01*
X145599264Y-77107118D01*
X145584703Y-77109278D01*
X145570000Y-77110000D01*
X145270000Y-77110000D01*
X145255297Y-77109278D01*
X145240736Y-77107118D01*
X145226457Y-77103541D01*
X145212597Y-77098582D01*
X145199290Y-77092288D01*
X145186664Y-77084720D01*
X145174841Y-77075952D01*
X145163934Y-77066066D01*
X145154048Y-77055159D01*
X145145280Y-77043336D01*
X145137712Y-77030710D01*
X145131418Y-77017403D01*
X145126459Y-77003543D01*
X145122882Y-76989264D01*
X145120722Y-76974703D01*
X145120000Y-76960000D01*
X145120000Y-75210000D01*
X145120722Y-75195297D01*
X145122882Y-75180736D01*
X145126459Y-75166457D01*
X145131418Y-75152597D01*
X145137712Y-75139290D01*
X145145280Y-75126664D01*
X145154048Y-75114841D01*
X145163934Y-75103934D01*
X145174841Y-75094048D01*
X145186664Y-75085280D01*
X145199290Y-75077712D01*
X145212597Y-75071418D01*
X145226457Y-75066459D01*
X145240736Y-75062882D01*
X145255297Y-75060722D01*
X145270000Y-75060000D01*
X145570000Y-75060000D01*
X145584703Y-75060722D01*
G37*
G36*
X144314703Y-75060722D02*
G01*
X144329264Y-75062882D01*
X144343543Y-75066459D01*
X144357403Y-75071418D01*
X144370710Y-75077712D01*
X144383336Y-75085280D01*
X144395159Y-75094048D01*
X144406066Y-75103934D01*
X144415952Y-75114841D01*
X144424720Y-75126664D01*
X144432288Y-75139290D01*
X144438582Y-75152597D01*
X144443541Y-75166457D01*
X144447118Y-75180736D01*
X144449278Y-75195297D01*
X144450000Y-75210000D01*
X144450000Y-76960000D01*
X144449278Y-76974703D01*
X144447118Y-76989264D01*
X144443541Y-77003543D01*
X144438582Y-77017403D01*
X144432288Y-77030710D01*
X144424720Y-77043336D01*
X144415952Y-77055159D01*
X144406066Y-77066066D01*
X144395159Y-77075952D01*
X144383336Y-77084720D01*
X144370710Y-77092288D01*
X144357403Y-77098582D01*
X144343543Y-77103541D01*
X144329264Y-77107118D01*
X144314703Y-77109278D01*
X144300000Y-77110000D01*
X144000000Y-77110000D01*
X143985297Y-77109278D01*
X143970736Y-77107118D01*
X143956457Y-77103541D01*
X143942597Y-77098582D01*
X143929290Y-77092288D01*
X143916664Y-77084720D01*
X143904841Y-77075952D01*
X143893934Y-77066066D01*
X143884048Y-77055159D01*
X143875280Y-77043336D01*
X143867712Y-77030710D01*
X143861418Y-77017403D01*
X143856459Y-77003543D01*
X143852882Y-76989264D01*
X143850722Y-76974703D01*
X143850000Y-76960000D01*
X143850000Y-75210000D01*
X143850722Y-75195297D01*
X143852882Y-75180736D01*
X143856459Y-75166457D01*
X143861418Y-75152597D01*
X143867712Y-75139290D01*
X143875280Y-75126664D01*
X143884048Y-75114841D01*
X143893934Y-75103934D01*
X143904841Y-75094048D01*
X143916664Y-75085280D01*
X143929290Y-75077712D01*
X143942597Y-75071418D01*
X143956457Y-75066459D01*
X143970736Y-75062882D01*
X143985297Y-75060722D01*
X144000000Y-75060000D01*
X144300000Y-75060000D01*
X144314703Y-75060722D01*
G37*
G36*
X143044703Y-75060722D02*
G01*
X143059264Y-75062882D01*
X143073543Y-75066459D01*
X143087403Y-75071418D01*
X143100710Y-75077712D01*
X143113336Y-75085280D01*
X143125159Y-75094048D01*
X143136066Y-75103934D01*
X143145952Y-75114841D01*
X143154720Y-75126664D01*
X143162288Y-75139290D01*
X143168582Y-75152597D01*
X143173541Y-75166457D01*
X143177118Y-75180736D01*
X143179278Y-75195297D01*
X143180000Y-75210000D01*
X143180000Y-76960000D01*
X143179278Y-76974703D01*
X143177118Y-76989264D01*
X143173541Y-77003543D01*
X143168582Y-77017403D01*
X143162288Y-77030710D01*
X143154720Y-77043336D01*
X143145952Y-77055159D01*
X143136066Y-77066066D01*
X143125159Y-77075952D01*
X143113336Y-77084720D01*
X143100710Y-77092288D01*
X143087403Y-77098582D01*
X143073543Y-77103541D01*
X143059264Y-77107118D01*
X143044703Y-77109278D01*
X143030000Y-77110000D01*
X142730000Y-77110000D01*
X142715297Y-77109278D01*
X142700736Y-77107118D01*
X142686457Y-77103541D01*
X142672597Y-77098582D01*
X142659290Y-77092288D01*
X142646664Y-77084720D01*
X142634841Y-77075952D01*
X142623934Y-77066066D01*
X142614048Y-77055159D01*
X142605280Y-77043336D01*
X142597712Y-77030710D01*
X142591418Y-77017403D01*
X142586459Y-77003543D01*
X142582882Y-76989264D01*
X142580722Y-76974703D01*
X142580000Y-76960000D01*
X142580000Y-75210000D01*
X142580722Y-75195297D01*
X142582882Y-75180736D01*
X142586459Y-75166457D01*
X142591418Y-75152597D01*
X142597712Y-75139290D01*
X142605280Y-75126664D01*
X142614048Y-75114841D01*
X142623934Y-75103934D01*
X142634841Y-75094048D01*
X142646664Y-75085280D01*
X142659290Y-75077712D01*
X142672597Y-75071418D01*
X142686457Y-75066459D01*
X142700736Y-75062882D01*
X142715297Y-75060722D01*
X142730000Y-75060000D01*
X143030000Y-75060000D01*
X143044703Y-75060722D01*
G37*
G36*
X143044703Y-65760722D02*
G01*
X143059264Y-65762882D01*
X143073543Y-65766459D01*
X143087403Y-65771418D01*
X143100710Y-65777712D01*
X143113336Y-65785280D01*
X143125159Y-65794048D01*
X143136066Y-65803934D01*
X143145952Y-65814841D01*
X143154720Y-65826664D01*
X143162288Y-65839290D01*
X143168582Y-65852597D01*
X143173541Y-65866457D01*
X143177118Y-65880736D01*
X143179278Y-65895297D01*
X143180000Y-65910000D01*
X143180000Y-67660000D01*
X143179278Y-67674703D01*
X143177118Y-67689264D01*
X143173541Y-67703543D01*
X143168582Y-67717403D01*
X143162288Y-67730710D01*
X143154720Y-67743336D01*
X143145952Y-67755159D01*
X143136066Y-67766066D01*
X143125159Y-67775952D01*
X143113336Y-67784720D01*
X143100710Y-67792288D01*
X143087403Y-67798582D01*
X143073543Y-67803541D01*
X143059264Y-67807118D01*
X143044703Y-67809278D01*
X143030000Y-67810000D01*
X142730000Y-67810000D01*
X142715297Y-67809278D01*
X142700736Y-67807118D01*
X142686457Y-67803541D01*
X142672597Y-67798582D01*
X142659290Y-67792288D01*
X142646664Y-67784720D01*
X142634841Y-67775952D01*
X142623934Y-67766066D01*
X142614048Y-67755159D01*
X142605280Y-67743336D01*
X142597712Y-67730710D01*
X142591418Y-67717403D01*
X142586459Y-67703543D01*
X142582882Y-67689264D01*
X142580722Y-67674703D01*
X142580000Y-67660000D01*
X142580000Y-65910000D01*
X142580722Y-65895297D01*
X142582882Y-65880736D01*
X142586459Y-65866457D01*
X142591418Y-65852597D01*
X142597712Y-65839290D01*
X142605280Y-65826664D01*
X142614048Y-65814841D01*
X142623934Y-65803934D01*
X142634841Y-65794048D01*
X142646664Y-65785280D01*
X142659290Y-65777712D01*
X142672597Y-65771418D01*
X142686457Y-65766459D01*
X142700736Y-65762882D01*
X142715297Y-65760722D01*
X142730000Y-65760000D01*
X143030000Y-65760000D01*
X143044703Y-65760722D01*
G37*
G36*
X144314703Y-65760722D02*
G01*
X144329264Y-65762882D01*
X144343543Y-65766459D01*
X144357403Y-65771418D01*
X144370710Y-65777712D01*
X144383336Y-65785280D01*
X144395159Y-65794048D01*
X144406066Y-65803934D01*
X144415952Y-65814841D01*
X144424720Y-65826664D01*
X144432288Y-65839290D01*
X144438582Y-65852597D01*
X144443541Y-65866457D01*
X144447118Y-65880736D01*
X144449278Y-65895297D01*
X144450000Y-65910000D01*
X144450000Y-67660000D01*
X144449278Y-67674703D01*
X144447118Y-67689264D01*
X144443541Y-67703543D01*
X144438582Y-67717403D01*
X144432288Y-67730710D01*
X144424720Y-67743336D01*
X144415952Y-67755159D01*
X144406066Y-67766066D01*
X144395159Y-67775952D01*
X144383336Y-67784720D01*
X144370710Y-67792288D01*
X144357403Y-67798582D01*
X144343543Y-67803541D01*
X144329264Y-67807118D01*
X144314703Y-67809278D01*
X144300000Y-67810000D01*
X144000000Y-67810000D01*
X143985297Y-67809278D01*
X143970736Y-67807118D01*
X143956457Y-67803541D01*
X143942597Y-67798582D01*
X143929290Y-67792288D01*
X143916664Y-67784720D01*
X143904841Y-67775952D01*
X143893934Y-67766066D01*
X143884048Y-67755159D01*
X143875280Y-67743336D01*
X143867712Y-67730710D01*
X143861418Y-67717403D01*
X143856459Y-67703543D01*
X143852882Y-67689264D01*
X143850722Y-67674703D01*
X143850000Y-67660000D01*
X143850000Y-65910000D01*
X143850722Y-65895297D01*
X143852882Y-65880736D01*
X143856459Y-65866457D01*
X143861418Y-65852597D01*
X143867712Y-65839290D01*
X143875280Y-65826664D01*
X143884048Y-65814841D01*
X143893934Y-65803934D01*
X143904841Y-65794048D01*
X143916664Y-65785280D01*
X143929290Y-65777712D01*
X143942597Y-65771418D01*
X143956457Y-65766459D01*
X143970736Y-65762882D01*
X143985297Y-65760722D01*
X144000000Y-65760000D01*
X144300000Y-65760000D01*
X144314703Y-65760722D01*
G37*
G36*
X145584703Y-65760722D02*
G01*
X145599264Y-65762882D01*
X145613543Y-65766459D01*
X145627403Y-65771418D01*
X145640710Y-65777712D01*
X145653336Y-65785280D01*
X145665159Y-65794048D01*
X145676066Y-65803934D01*
X145685952Y-65814841D01*
X145694720Y-65826664D01*
X145702288Y-65839290D01*
X145708582Y-65852597D01*
X145713541Y-65866457D01*
X145717118Y-65880736D01*
X145719278Y-65895297D01*
X145720000Y-65910000D01*
X145720000Y-67660000D01*
X145719278Y-67674703D01*
X145717118Y-67689264D01*
X145713541Y-67703543D01*
X145708582Y-67717403D01*
X145702288Y-67730710D01*
X145694720Y-67743336D01*
X145685952Y-67755159D01*
X145676066Y-67766066D01*
X145665159Y-67775952D01*
X145653336Y-67784720D01*
X145640710Y-67792288D01*
X145627403Y-67798582D01*
X145613543Y-67803541D01*
X145599264Y-67807118D01*
X145584703Y-67809278D01*
X145570000Y-67810000D01*
X145270000Y-67810000D01*
X145255297Y-67809278D01*
X145240736Y-67807118D01*
X145226457Y-67803541D01*
X145212597Y-67798582D01*
X145199290Y-67792288D01*
X145186664Y-67784720D01*
X145174841Y-67775952D01*
X145163934Y-67766066D01*
X145154048Y-67755159D01*
X145145280Y-67743336D01*
X145137712Y-67730710D01*
X145131418Y-67717403D01*
X145126459Y-67703543D01*
X145122882Y-67689264D01*
X145120722Y-67674703D01*
X145120000Y-67660000D01*
X145120000Y-65910000D01*
X145120722Y-65895297D01*
X145122882Y-65880736D01*
X145126459Y-65866457D01*
X145131418Y-65852597D01*
X145137712Y-65839290D01*
X145145280Y-65826664D01*
X145154048Y-65814841D01*
X145163934Y-65803934D01*
X145174841Y-65794048D01*
X145186664Y-65785280D01*
X145199290Y-65777712D01*
X145212597Y-65771418D01*
X145226457Y-65766459D01*
X145240736Y-65762882D01*
X145255297Y-65760722D01*
X145270000Y-65760000D01*
X145570000Y-65760000D01*
X145584703Y-65760722D01*
G37*
G36*
X146854703Y-65760722D02*
G01*
X146869264Y-65762882D01*
X146883543Y-65766459D01*
X146897403Y-65771418D01*
X146910710Y-65777712D01*
X146923336Y-65785280D01*
X146935159Y-65794048D01*
X146946066Y-65803934D01*
X146955952Y-65814841D01*
X146964720Y-65826664D01*
X146972288Y-65839290D01*
X146978582Y-65852597D01*
X146983541Y-65866457D01*
X146987118Y-65880736D01*
X146989278Y-65895297D01*
X146990000Y-65910000D01*
X146990000Y-67660000D01*
X146989278Y-67674703D01*
X146987118Y-67689264D01*
X146983541Y-67703543D01*
X146978582Y-67717403D01*
X146972288Y-67730710D01*
X146964720Y-67743336D01*
X146955952Y-67755159D01*
X146946066Y-67766066D01*
X146935159Y-67775952D01*
X146923336Y-67784720D01*
X146910710Y-67792288D01*
X146897403Y-67798582D01*
X146883543Y-67803541D01*
X146869264Y-67807118D01*
X146854703Y-67809278D01*
X146840000Y-67810000D01*
X146540000Y-67810000D01*
X146525297Y-67809278D01*
X146510736Y-67807118D01*
X146496457Y-67803541D01*
X146482597Y-67798582D01*
X146469290Y-67792288D01*
X146456664Y-67784720D01*
X146444841Y-67775952D01*
X146433934Y-67766066D01*
X146424048Y-67755159D01*
X146415280Y-67743336D01*
X146407712Y-67730710D01*
X146401418Y-67717403D01*
X146396459Y-67703543D01*
X146392882Y-67689264D01*
X146390722Y-67674703D01*
X146390000Y-67660000D01*
X146390000Y-65910000D01*
X146390722Y-65895297D01*
X146392882Y-65880736D01*
X146396459Y-65866457D01*
X146401418Y-65852597D01*
X146407712Y-65839290D01*
X146415280Y-65826664D01*
X146424048Y-65814841D01*
X146433934Y-65803934D01*
X146444841Y-65794048D01*
X146456664Y-65785280D01*
X146469290Y-65777712D01*
X146482597Y-65771418D01*
X146496457Y-65766459D01*
X146510736Y-65762882D01*
X146525297Y-65760722D01*
X146540000Y-65760000D01*
X146840000Y-65760000D01*
X146854703Y-65760722D01*
G37*
G36*
X148124703Y-65760722D02*
G01*
X148139264Y-65762882D01*
X148153543Y-65766459D01*
X148167403Y-65771418D01*
X148180710Y-65777712D01*
X148193336Y-65785280D01*
X148205159Y-65794048D01*
X148216066Y-65803934D01*
X148225952Y-65814841D01*
X148234720Y-65826664D01*
X148242288Y-65839290D01*
X148248582Y-65852597D01*
X148253541Y-65866457D01*
X148257118Y-65880736D01*
X148259278Y-65895297D01*
X148260000Y-65910000D01*
X148260000Y-67660000D01*
X148259278Y-67674703D01*
X148257118Y-67689264D01*
X148253541Y-67703543D01*
X148248582Y-67717403D01*
X148242288Y-67730710D01*
X148234720Y-67743336D01*
X148225952Y-67755159D01*
X148216066Y-67766066D01*
X148205159Y-67775952D01*
X148193336Y-67784720D01*
X148180710Y-67792288D01*
X148167403Y-67798582D01*
X148153543Y-67803541D01*
X148139264Y-67807118D01*
X148124703Y-67809278D01*
X148110000Y-67810000D01*
X147810000Y-67810000D01*
X147795297Y-67809278D01*
X147780736Y-67807118D01*
X147766457Y-67803541D01*
X147752597Y-67798582D01*
X147739290Y-67792288D01*
X147726664Y-67784720D01*
X147714841Y-67775952D01*
X147703934Y-67766066D01*
X147694048Y-67755159D01*
X147685280Y-67743336D01*
X147677712Y-67730710D01*
X147671418Y-67717403D01*
X147666459Y-67703543D01*
X147662882Y-67689264D01*
X147660722Y-67674703D01*
X147660000Y-67660000D01*
X147660000Y-65910000D01*
X147660722Y-65895297D01*
X147662882Y-65880736D01*
X147666459Y-65866457D01*
X147671418Y-65852597D01*
X147677712Y-65839290D01*
X147685280Y-65826664D01*
X147694048Y-65814841D01*
X147703934Y-65803934D01*
X147714841Y-65794048D01*
X147726664Y-65785280D01*
X147739290Y-65777712D01*
X147752597Y-65771418D01*
X147766457Y-65766459D01*
X147780736Y-65762882D01*
X147795297Y-65760722D01*
X147810000Y-65760000D01*
X148110000Y-65760000D01*
X148124703Y-65760722D01*
G37*
G36*
X149394703Y-65760722D02*
G01*
X149409264Y-65762882D01*
X149423543Y-65766459D01*
X149437403Y-65771418D01*
X149450710Y-65777712D01*
X149463336Y-65785280D01*
X149475159Y-65794048D01*
X149486066Y-65803934D01*
X149495952Y-65814841D01*
X149504720Y-65826664D01*
X149512288Y-65839290D01*
X149518582Y-65852597D01*
X149523541Y-65866457D01*
X149527118Y-65880736D01*
X149529278Y-65895297D01*
X149530000Y-65910000D01*
X149530000Y-67660000D01*
X149529278Y-67674703D01*
X149527118Y-67689264D01*
X149523541Y-67703543D01*
X149518582Y-67717403D01*
X149512288Y-67730710D01*
X149504720Y-67743336D01*
X149495952Y-67755159D01*
X149486066Y-67766066D01*
X149475159Y-67775952D01*
X149463336Y-67784720D01*
X149450710Y-67792288D01*
X149437403Y-67798582D01*
X149423543Y-67803541D01*
X149409264Y-67807118D01*
X149394703Y-67809278D01*
X149380000Y-67810000D01*
X149080000Y-67810000D01*
X149065297Y-67809278D01*
X149050736Y-67807118D01*
X149036457Y-67803541D01*
X149022597Y-67798582D01*
X149009290Y-67792288D01*
X148996664Y-67784720D01*
X148984841Y-67775952D01*
X148973934Y-67766066D01*
X148964048Y-67755159D01*
X148955280Y-67743336D01*
X148947712Y-67730710D01*
X148941418Y-67717403D01*
X148936459Y-67703543D01*
X148932882Y-67689264D01*
X148930722Y-67674703D01*
X148930000Y-67660000D01*
X148930000Y-65910000D01*
X148930722Y-65895297D01*
X148932882Y-65880736D01*
X148936459Y-65866457D01*
X148941418Y-65852597D01*
X148947712Y-65839290D01*
X148955280Y-65826664D01*
X148964048Y-65814841D01*
X148973934Y-65803934D01*
X148984841Y-65794048D01*
X148996664Y-65785280D01*
X149009290Y-65777712D01*
X149022597Y-65771418D01*
X149036457Y-65766459D01*
X149050736Y-65762882D01*
X149065297Y-65760722D01*
X149080000Y-65760000D01*
X149380000Y-65760000D01*
X149394703Y-65760722D01*
G37*
G36*
X150664703Y-65760722D02*
G01*
X150679264Y-65762882D01*
X150693543Y-65766459D01*
X150707403Y-65771418D01*
X150720710Y-65777712D01*
X150733336Y-65785280D01*
X150745159Y-65794048D01*
X150756066Y-65803934D01*
X150765952Y-65814841D01*
X150774720Y-65826664D01*
X150782288Y-65839290D01*
X150788582Y-65852597D01*
X150793541Y-65866457D01*
X150797118Y-65880736D01*
X150799278Y-65895297D01*
X150800000Y-65910000D01*
X150800000Y-67660000D01*
X150799278Y-67674703D01*
X150797118Y-67689264D01*
X150793541Y-67703543D01*
X150788582Y-67717403D01*
X150782288Y-67730710D01*
X150774720Y-67743336D01*
X150765952Y-67755159D01*
X150756066Y-67766066D01*
X150745159Y-67775952D01*
X150733336Y-67784720D01*
X150720710Y-67792288D01*
X150707403Y-67798582D01*
X150693543Y-67803541D01*
X150679264Y-67807118D01*
X150664703Y-67809278D01*
X150650000Y-67810000D01*
X150350000Y-67810000D01*
X150335297Y-67809278D01*
X150320736Y-67807118D01*
X150306457Y-67803541D01*
X150292597Y-67798582D01*
X150279290Y-67792288D01*
X150266664Y-67784720D01*
X150254841Y-67775952D01*
X150243934Y-67766066D01*
X150234048Y-67755159D01*
X150225280Y-67743336D01*
X150217712Y-67730710D01*
X150211418Y-67717403D01*
X150206459Y-67703543D01*
X150202882Y-67689264D01*
X150200722Y-67674703D01*
X150200000Y-67660000D01*
X150200000Y-65910000D01*
X150200722Y-65895297D01*
X150202882Y-65880736D01*
X150206459Y-65866457D01*
X150211418Y-65852597D01*
X150217712Y-65839290D01*
X150225280Y-65826664D01*
X150234048Y-65814841D01*
X150243934Y-65803934D01*
X150254841Y-65794048D01*
X150266664Y-65785280D01*
X150279290Y-65777712D01*
X150292597Y-65771418D01*
X150306457Y-65766459D01*
X150320736Y-65762882D01*
X150335297Y-65760722D01*
X150350000Y-65760000D01*
X150650000Y-65760000D01*
X150664703Y-65760722D01*
G37*
G36*
X151934703Y-65760722D02*
G01*
X151949264Y-65762882D01*
X151963543Y-65766459D01*
X151977403Y-65771418D01*
X151990710Y-65777712D01*
X152003336Y-65785280D01*
X152015159Y-65794048D01*
X152026066Y-65803934D01*
X152035952Y-65814841D01*
X152044720Y-65826664D01*
X152052288Y-65839290D01*
X152058582Y-65852597D01*
X152063541Y-65866457D01*
X152067118Y-65880736D01*
X152069278Y-65895297D01*
X152070000Y-65910000D01*
X152070000Y-67660000D01*
X152069278Y-67674703D01*
X152067118Y-67689264D01*
X152063541Y-67703543D01*
X152058582Y-67717403D01*
X152052288Y-67730710D01*
X152044720Y-67743336D01*
X152035952Y-67755159D01*
X152026066Y-67766066D01*
X152015159Y-67775952D01*
X152003336Y-67784720D01*
X151990710Y-67792288D01*
X151977403Y-67798582D01*
X151963543Y-67803541D01*
X151949264Y-67807118D01*
X151934703Y-67809278D01*
X151920000Y-67810000D01*
X151620000Y-67810000D01*
X151605297Y-67809278D01*
X151590736Y-67807118D01*
X151576457Y-67803541D01*
X151562597Y-67798582D01*
X151549290Y-67792288D01*
X151536664Y-67784720D01*
X151524841Y-67775952D01*
X151513934Y-67766066D01*
X151504048Y-67755159D01*
X151495280Y-67743336D01*
X151487712Y-67730710D01*
X151481418Y-67717403D01*
X151476459Y-67703543D01*
X151472882Y-67689264D01*
X151470722Y-67674703D01*
X151470000Y-67660000D01*
X151470000Y-65910000D01*
X151470722Y-65895297D01*
X151472882Y-65880736D01*
X151476459Y-65866457D01*
X151481418Y-65852597D01*
X151487712Y-65839290D01*
X151495280Y-65826664D01*
X151504048Y-65814841D01*
X151513934Y-65803934D01*
X151524841Y-65794048D01*
X151536664Y-65785280D01*
X151549290Y-65777712D01*
X151562597Y-65771418D01*
X151576457Y-65766459D01*
X151590736Y-65762882D01*
X151605297Y-65760722D01*
X151620000Y-65760000D01*
X151920000Y-65760000D01*
X151934703Y-65760722D01*
G37*
G36*
X153204703Y-65760722D02*
G01*
X153219264Y-65762882D01*
X153233543Y-65766459D01*
X153247403Y-65771418D01*
X153260710Y-65777712D01*
X153273336Y-65785280D01*
X153285159Y-65794048D01*
X153296066Y-65803934D01*
X153305952Y-65814841D01*
X153314720Y-65826664D01*
X153322288Y-65839290D01*
X153328582Y-65852597D01*
X153333541Y-65866457D01*
X153337118Y-65880736D01*
X153339278Y-65895297D01*
X153340000Y-65910000D01*
X153340000Y-67660000D01*
X153339278Y-67674703D01*
X153337118Y-67689264D01*
X153333541Y-67703543D01*
X153328582Y-67717403D01*
X153322288Y-67730710D01*
X153314720Y-67743336D01*
X153305952Y-67755159D01*
X153296066Y-67766066D01*
X153285159Y-67775952D01*
X153273336Y-67784720D01*
X153260710Y-67792288D01*
X153247403Y-67798582D01*
X153233543Y-67803541D01*
X153219264Y-67807118D01*
X153204703Y-67809278D01*
X153190000Y-67810000D01*
X152890000Y-67810000D01*
X152875297Y-67809278D01*
X152860736Y-67807118D01*
X152846457Y-67803541D01*
X152832597Y-67798582D01*
X152819290Y-67792288D01*
X152806664Y-67784720D01*
X152794841Y-67775952D01*
X152783934Y-67766066D01*
X152774048Y-67755159D01*
X152765280Y-67743336D01*
X152757712Y-67730710D01*
X152751418Y-67717403D01*
X152746459Y-67703543D01*
X152742882Y-67689264D01*
X152740722Y-67674703D01*
X152740000Y-67660000D01*
X152740000Y-65910000D01*
X152740722Y-65895297D01*
X152742882Y-65880736D01*
X152746459Y-65866457D01*
X152751418Y-65852597D01*
X152757712Y-65839290D01*
X152765280Y-65826664D01*
X152774048Y-65814841D01*
X152783934Y-65803934D01*
X152794841Y-65794048D01*
X152806664Y-65785280D01*
X152819290Y-65777712D01*
X152832597Y-65771418D01*
X152846457Y-65766459D01*
X152860736Y-65762882D01*
X152875297Y-65760722D01*
X152890000Y-65760000D01*
X153190000Y-65760000D01*
X153204703Y-65760722D01*
G37*
G36*
X154474703Y-65760722D02*
G01*
X154489264Y-65762882D01*
X154503543Y-65766459D01*
X154517403Y-65771418D01*
X154530710Y-65777712D01*
X154543336Y-65785280D01*
X154555159Y-65794048D01*
X154566066Y-65803934D01*
X154575952Y-65814841D01*
X154584720Y-65826664D01*
X154592288Y-65839290D01*
X154598582Y-65852597D01*
X154603541Y-65866457D01*
X154607118Y-65880736D01*
X154609278Y-65895297D01*
X154610000Y-65910000D01*
X154610000Y-67660000D01*
X154609278Y-67674703D01*
X154607118Y-67689264D01*
X154603541Y-67703543D01*
X154598582Y-67717403D01*
X154592288Y-67730710D01*
X154584720Y-67743336D01*
X154575952Y-67755159D01*
X154566066Y-67766066D01*
X154555159Y-67775952D01*
X154543336Y-67784720D01*
X154530710Y-67792288D01*
X154517403Y-67798582D01*
X154503543Y-67803541D01*
X154489264Y-67807118D01*
X154474703Y-67809278D01*
X154460000Y-67810000D01*
X154160000Y-67810000D01*
X154145297Y-67809278D01*
X154130736Y-67807118D01*
X154116457Y-67803541D01*
X154102597Y-67798582D01*
X154089290Y-67792288D01*
X154076664Y-67784720D01*
X154064841Y-67775952D01*
X154053934Y-67766066D01*
X154044048Y-67755159D01*
X154035280Y-67743336D01*
X154027712Y-67730710D01*
X154021418Y-67717403D01*
X154016459Y-67703543D01*
X154012882Y-67689264D01*
X154010722Y-67674703D01*
X154010000Y-67660000D01*
X154010000Y-65910000D01*
X154010722Y-65895297D01*
X154012882Y-65880736D01*
X154016459Y-65866457D01*
X154021418Y-65852597D01*
X154027712Y-65839290D01*
X154035280Y-65826664D01*
X154044048Y-65814841D01*
X154053934Y-65803934D01*
X154064841Y-65794048D01*
X154076664Y-65785280D01*
X154089290Y-65777712D01*
X154102597Y-65771418D01*
X154116457Y-65766459D01*
X154130736Y-65762882D01*
X154145297Y-65760722D01*
X154160000Y-65760000D01*
X154460000Y-65760000D01*
X154474703Y-65760722D01*
G37*
G36*
X134789703Y-75060722D02*
G01*
X134804264Y-75062882D01*
X134818543Y-75066459D01*
X134832403Y-75071418D01*
X134845710Y-75077712D01*
X134858336Y-75085280D01*
X134870159Y-75094048D01*
X134881066Y-75103934D01*
X134890952Y-75114841D01*
X134899720Y-75126664D01*
X134907288Y-75139290D01*
X134913582Y-75152597D01*
X134918541Y-75166457D01*
X134922118Y-75180736D01*
X134924278Y-75195297D01*
X134925000Y-75210000D01*
X134925000Y-76960000D01*
X134924278Y-76974703D01*
X134922118Y-76989264D01*
X134918541Y-77003543D01*
X134913582Y-77017403D01*
X134907288Y-77030710D01*
X134899720Y-77043336D01*
X134890952Y-77055159D01*
X134881066Y-77066066D01*
X134870159Y-77075952D01*
X134858336Y-77084720D01*
X134845710Y-77092288D01*
X134832403Y-77098582D01*
X134818543Y-77103541D01*
X134804264Y-77107118D01*
X134789703Y-77109278D01*
X134775000Y-77110000D01*
X134475000Y-77110000D01*
X134460297Y-77109278D01*
X134445736Y-77107118D01*
X134431457Y-77103541D01*
X134417597Y-77098582D01*
X134404290Y-77092288D01*
X134391664Y-77084720D01*
X134379841Y-77075952D01*
X134368934Y-77066066D01*
X134359048Y-77055159D01*
X134350280Y-77043336D01*
X134342712Y-77030710D01*
X134336418Y-77017403D01*
X134331459Y-77003543D01*
X134327882Y-76989264D01*
X134325722Y-76974703D01*
X134325000Y-76960000D01*
X134325000Y-75210000D01*
X134325722Y-75195297D01*
X134327882Y-75180736D01*
X134331459Y-75166457D01*
X134336418Y-75152597D01*
X134342712Y-75139290D01*
X134350280Y-75126664D01*
X134359048Y-75114841D01*
X134368934Y-75103934D01*
X134379841Y-75094048D01*
X134391664Y-75085280D01*
X134404290Y-75077712D01*
X134417597Y-75071418D01*
X134431457Y-75066459D01*
X134445736Y-75062882D01*
X134460297Y-75060722D01*
X134475000Y-75060000D01*
X134775000Y-75060000D01*
X134789703Y-75060722D01*
G37*
G36*
X133519703Y-75060722D02*
G01*
X133534264Y-75062882D01*
X133548543Y-75066459D01*
X133562403Y-75071418D01*
X133575710Y-75077712D01*
X133588336Y-75085280D01*
X133600159Y-75094048D01*
X133611066Y-75103934D01*
X133620952Y-75114841D01*
X133629720Y-75126664D01*
X133637288Y-75139290D01*
X133643582Y-75152597D01*
X133648541Y-75166457D01*
X133652118Y-75180736D01*
X133654278Y-75195297D01*
X133655000Y-75210000D01*
X133655000Y-76960000D01*
X133654278Y-76974703D01*
X133652118Y-76989264D01*
X133648541Y-77003543D01*
X133643582Y-77017403D01*
X133637288Y-77030710D01*
X133629720Y-77043336D01*
X133620952Y-77055159D01*
X133611066Y-77066066D01*
X133600159Y-77075952D01*
X133588336Y-77084720D01*
X133575710Y-77092288D01*
X133562403Y-77098582D01*
X133548543Y-77103541D01*
X133534264Y-77107118D01*
X133519703Y-77109278D01*
X133505000Y-77110000D01*
X133205000Y-77110000D01*
X133190297Y-77109278D01*
X133175736Y-77107118D01*
X133161457Y-77103541D01*
X133147597Y-77098582D01*
X133134290Y-77092288D01*
X133121664Y-77084720D01*
X133109841Y-77075952D01*
X133098934Y-77066066D01*
X133089048Y-77055159D01*
X133080280Y-77043336D01*
X133072712Y-77030710D01*
X133066418Y-77017403D01*
X133061459Y-77003543D01*
X133057882Y-76989264D01*
X133055722Y-76974703D01*
X133055000Y-76960000D01*
X133055000Y-75210000D01*
X133055722Y-75195297D01*
X133057882Y-75180736D01*
X133061459Y-75166457D01*
X133066418Y-75152597D01*
X133072712Y-75139290D01*
X133080280Y-75126664D01*
X133089048Y-75114841D01*
X133098934Y-75103934D01*
X133109841Y-75094048D01*
X133121664Y-75085280D01*
X133134290Y-75077712D01*
X133147597Y-75071418D01*
X133161457Y-75066459D01*
X133175736Y-75062882D01*
X133190297Y-75060722D01*
X133205000Y-75060000D01*
X133505000Y-75060000D01*
X133519703Y-75060722D01*
G37*
G36*
X132249703Y-75060722D02*
G01*
X132264264Y-75062882D01*
X132278543Y-75066459D01*
X132292403Y-75071418D01*
X132305710Y-75077712D01*
X132318336Y-75085280D01*
X132330159Y-75094048D01*
X132341066Y-75103934D01*
X132350952Y-75114841D01*
X132359720Y-75126664D01*
X132367288Y-75139290D01*
X132373582Y-75152597D01*
X132378541Y-75166457D01*
X132382118Y-75180736D01*
X132384278Y-75195297D01*
X132385000Y-75210000D01*
X132385000Y-76960000D01*
X132384278Y-76974703D01*
X132382118Y-76989264D01*
X132378541Y-77003543D01*
X132373582Y-77017403D01*
X132367288Y-77030710D01*
X132359720Y-77043336D01*
X132350952Y-77055159D01*
X132341066Y-77066066D01*
X132330159Y-77075952D01*
X132318336Y-77084720D01*
X132305710Y-77092288D01*
X132292403Y-77098582D01*
X132278543Y-77103541D01*
X132264264Y-77107118D01*
X132249703Y-77109278D01*
X132235000Y-77110000D01*
X131935000Y-77110000D01*
X131920297Y-77109278D01*
X131905736Y-77107118D01*
X131891457Y-77103541D01*
X131877597Y-77098582D01*
X131864290Y-77092288D01*
X131851664Y-77084720D01*
X131839841Y-77075952D01*
X131828934Y-77066066D01*
X131819048Y-77055159D01*
X131810280Y-77043336D01*
X131802712Y-77030710D01*
X131796418Y-77017403D01*
X131791459Y-77003543D01*
X131787882Y-76989264D01*
X131785722Y-76974703D01*
X131785000Y-76960000D01*
X131785000Y-75210000D01*
X131785722Y-75195297D01*
X131787882Y-75180736D01*
X131791459Y-75166457D01*
X131796418Y-75152597D01*
X131802712Y-75139290D01*
X131810280Y-75126664D01*
X131819048Y-75114841D01*
X131828934Y-75103934D01*
X131839841Y-75094048D01*
X131851664Y-75085280D01*
X131864290Y-75077712D01*
X131877597Y-75071418D01*
X131891457Y-75066459D01*
X131905736Y-75062882D01*
X131920297Y-75060722D01*
X131935000Y-75060000D01*
X132235000Y-75060000D01*
X132249703Y-75060722D01*
G37*
G36*
X130979703Y-75060722D02*
G01*
X130994264Y-75062882D01*
X131008543Y-75066459D01*
X131022403Y-75071418D01*
X131035710Y-75077712D01*
X131048336Y-75085280D01*
X131060159Y-75094048D01*
X131071066Y-75103934D01*
X131080952Y-75114841D01*
X131089720Y-75126664D01*
X131097288Y-75139290D01*
X131103582Y-75152597D01*
X131108541Y-75166457D01*
X131112118Y-75180736D01*
X131114278Y-75195297D01*
X131115000Y-75210000D01*
X131115000Y-76960000D01*
X131114278Y-76974703D01*
X131112118Y-76989264D01*
X131108541Y-77003543D01*
X131103582Y-77017403D01*
X131097288Y-77030710D01*
X131089720Y-77043336D01*
X131080952Y-77055159D01*
X131071066Y-77066066D01*
X131060159Y-77075952D01*
X131048336Y-77084720D01*
X131035710Y-77092288D01*
X131022403Y-77098582D01*
X131008543Y-77103541D01*
X130994264Y-77107118D01*
X130979703Y-77109278D01*
X130965000Y-77110000D01*
X130665000Y-77110000D01*
X130650297Y-77109278D01*
X130635736Y-77107118D01*
X130621457Y-77103541D01*
X130607597Y-77098582D01*
X130594290Y-77092288D01*
X130581664Y-77084720D01*
X130569841Y-77075952D01*
X130558934Y-77066066D01*
X130549048Y-77055159D01*
X130540280Y-77043336D01*
X130532712Y-77030710D01*
X130526418Y-77017403D01*
X130521459Y-77003543D01*
X130517882Y-76989264D01*
X130515722Y-76974703D01*
X130515000Y-76960000D01*
X130515000Y-75210000D01*
X130515722Y-75195297D01*
X130517882Y-75180736D01*
X130521459Y-75166457D01*
X130526418Y-75152597D01*
X130532712Y-75139290D01*
X130540280Y-75126664D01*
X130549048Y-75114841D01*
X130558934Y-75103934D01*
X130569841Y-75094048D01*
X130581664Y-75085280D01*
X130594290Y-75077712D01*
X130607597Y-75071418D01*
X130621457Y-75066459D01*
X130635736Y-75062882D01*
X130650297Y-75060722D01*
X130665000Y-75060000D01*
X130965000Y-75060000D01*
X130979703Y-75060722D01*
G37*
G36*
X129709703Y-75060722D02*
G01*
X129724264Y-75062882D01*
X129738543Y-75066459D01*
X129752403Y-75071418D01*
X129765710Y-75077712D01*
X129778336Y-75085280D01*
X129790159Y-75094048D01*
X129801066Y-75103934D01*
X129810952Y-75114841D01*
X129819720Y-75126664D01*
X129827288Y-75139290D01*
X129833582Y-75152597D01*
X129838541Y-75166457D01*
X129842118Y-75180736D01*
X129844278Y-75195297D01*
X129845000Y-75210000D01*
X129845000Y-76960000D01*
X129844278Y-76974703D01*
X129842118Y-76989264D01*
X129838541Y-77003543D01*
X129833582Y-77017403D01*
X129827288Y-77030710D01*
X129819720Y-77043336D01*
X129810952Y-77055159D01*
X129801066Y-77066066D01*
X129790159Y-77075952D01*
X129778336Y-77084720D01*
X129765710Y-77092288D01*
X129752403Y-77098582D01*
X129738543Y-77103541D01*
X129724264Y-77107118D01*
X129709703Y-77109278D01*
X129695000Y-77110000D01*
X129395000Y-77110000D01*
X129380297Y-77109278D01*
X129365736Y-77107118D01*
X129351457Y-77103541D01*
X129337597Y-77098582D01*
X129324290Y-77092288D01*
X129311664Y-77084720D01*
X129299841Y-77075952D01*
X129288934Y-77066066D01*
X129279048Y-77055159D01*
X129270280Y-77043336D01*
X129262712Y-77030710D01*
X129256418Y-77017403D01*
X129251459Y-77003543D01*
X129247882Y-76989264D01*
X129245722Y-76974703D01*
X129245000Y-76960000D01*
X129245000Y-75210000D01*
X129245722Y-75195297D01*
X129247882Y-75180736D01*
X129251459Y-75166457D01*
X129256418Y-75152597D01*
X129262712Y-75139290D01*
X129270280Y-75126664D01*
X129279048Y-75114841D01*
X129288934Y-75103934D01*
X129299841Y-75094048D01*
X129311664Y-75085280D01*
X129324290Y-75077712D01*
X129337597Y-75071418D01*
X129351457Y-75066459D01*
X129365736Y-75062882D01*
X129380297Y-75060722D01*
X129395000Y-75060000D01*
X129695000Y-75060000D01*
X129709703Y-75060722D01*
G37*
G36*
X128439703Y-75060722D02*
G01*
X128454264Y-75062882D01*
X128468543Y-75066459D01*
X128482403Y-75071418D01*
X128495710Y-75077712D01*
X128508336Y-75085280D01*
X128520159Y-75094048D01*
X128531066Y-75103934D01*
X128540952Y-75114841D01*
X128549720Y-75126664D01*
X128557288Y-75139290D01*
X128563582Y-75152597D01*
X128568541Y-75166457D01*
X128572118Y-75180736D01*
X128574278Y-75195297D01*
X128575000Y-75210000D01*
X128575000Y-76960000D01*
X128574278Y-76974703D01*
X128572118Y-76989264D01*
X128568541Y-77003543D01*
X128563582Y-77017403D01*
X128557288Y-77030710D01*
X128549720Y-77043336D01*
X128540952Y-77055159D01*
X128531066Y-77066066D01*
X128520159Y-77075952D01*
X128508336Y-77084720D01*
X128495710Y-77092288D01*
X128482403Y-77098582D01*
X128468543Y-77103541D01*
X128454264Y-77107118D01*
X128439703Y-77109278D01*
X128425000Y-77110000D01*
X128125000Y-77110000D01*
X128110297Y-77109278D01*
X128095736Y-77107118D01*
X128081457Y-77103541D01*
X128067597Y-77098582D01*
X128054290Y-77092288D01*
X128041664Y-77084720D01*
X128029841Y-77075952D01*
X128018934Y-77066066D01*
X128009048Y-77055159D01*
X128000280Y-77043336D01*
X127992712Y-77030710D01*
X127986418Y-77017403D01*
X127981459Y-77003543D01*
X127977882Y-76989264D01*
X127975722Y-76974703D01*
X127975000Y-76960000D01*
X127975000Y-75210000D01*
X127975722Y-75195297D01*
X127977882Y-75180736D01*
X127981459Y-75166457D01*
X127986418Y-75152597D01*
X127992712Y-75139290D01*
X128000280Y-75126664D01*
X128009048Y-75114841D01*
X128018934Y-75103934D01*
X128029841Y-75094048D01*
X128041664Y-75085280D01*
X128054290Y-75077712D01*
X128067597Y-75071418D01*
X128081457Y-75066459D01*
X128095736Y-75062882D01*
X128110297Y-75060722D01*
X128125000Y-75060000D01*
X128425000Y-75060000D01*
X128439703Y-75060722D01*
G37*
G36*
X127169703Y-75060722D02*
G01*
X127184264Y-75062882D01*
X127198543Y-75066459D01*
X127212403Y-75071418D01*
X127225710Y-75077712D01*
X127238336Y-75085280D01*
X127250159Y-75094048D01*
X127261066Y-75103934D01*
X127270952Y-75114841D01*
X127279720Y-75126664D01*
X127287288Y-75139290D01*
X127293582Y-75152597D01*
X127298541Y-75166457D01*
X127302118Y-75180736D01*
X127304278Y-75195297D01*
X127305000Y-75210000D01*
X127305000Y-76960000D01*
X127304278Y-76974703D01*
X127302118Y-76989264D01*
X127298541Y-77003543D01*
X127293582Y-77017403D01*
X127287288Y-77030710D01*
X127279720Y-77043336D01*
X127270952Y-77055159D01*
X127261066Y-77066066D01*
X127250159Y-77075952D01*
X127238336Y-77084720D01*
X127225710Y-77092288D01*
X127212403Y-77098582D01*
X127198543Y-77103541D01*
X127184264Y-77107118D01*
X127169703Y-77109278D01*
X127155000Y-77110000D01*
X126855000Y-77110000D01*
X126840297Y-77109278D01*
X126825736Y-77107118D01*
X126811457Y-77103541D01*
X126797597Y-77098582D01*
X126784290Y-77092288D01*
X126771664Y-77084720D01*
X126759841Y-77075952D01*
X126748934Y-77066066D01*
X126739048Y-77055159D01*
X126730280Y-77043336D01*
X126722712Y-77030710D01*
X126716418Y-77017403D01*
X126711459Y-77003543D01*
X126707882Y-76989264D01*
X126705722Y-76974703D01*
X126705000Y-76960000D01*
X126705000Y-75210000D01*
X126705722Y-75195297D01*
X126707882Y-75180736D01*
X126711459Y-75166457D01*
X126716418Y-75152597D01*
X126722712Y-75139290D01*
X126730280Y-75126664D01*
X126739048Y-75114841D01*
X126748934Y-75103934D01*
X126759841Y-75094048D01*
X126771664Y-75085280D01*
X126784290Y-75077712D01*
X126797597Y-75071418D01*
X126811457Y-75066459D01*
X126825736Y-75062882D01*
X126840297Y-75060722D01*
X126855000Y-75060000D01*
X127155000Y-75060000D01*
X127169703Y-75060722D01*
G37*
G36*
X125899703Y-75060722D02*
G01*
X125914264Y-75062882D01*
X125928543Y-75066459D01*
X125942403Y-75071418D01*
X125955710Y-75077712D01*
X125968336Y-75085280D01*
X125980159Y-75094048D01*
X125991066Y-75103934D01*
X126000952Y-75114841D01*
X126009720Y-75126664D01*
X126017288Y-75139290D01*
X126023582Y-75152597D01*
X126028541Y-75166457D01*
X126032118Y-75180736D01*
X126034278Y-75195297D01*
X126035000Y-75210000D01*
X126035000Y-76960000D01*
X126034278Y-76974703D01*
X126032118Y-76989264D01*
X126028541Y-77003543D01*
X126023582Y-77017403D01*
X126017288Y-77030710D01*
X126009720Y-77043336D01*
X126000952Y-77055159D01*
X125991066Y-77066066D01*
X125980159Y-77075952D01*
X125968336Y-77084720D01*
X125955710Y-77092288D01*
X125942403Y-77098582D01*
X125928543Y-77103541D01*
X125914264Y-77107118D01*
X125899703Y-77109278D01*
X125885000Y-77110000D01*
X125585000Y-77110000D01*
X125570297Y-77109278D01*
X125555736Y-77107118D01*
X125541457Y-77103541D01*
X125527597Y-77098582D01*
X125514290Y-77092288D01*
X125501664Y-77084720D01*
X125489841Y-77075952D01*
X125478934Y-77066066D01*
X125469048Y-77055159D01*
X125460280Y-77043336D01*
X125452712Y-77030710D01*
X125446418Y-77017403D01*
X125441459Y-77003543D01*
X125437882Y-76989264D01*
X125435722Y-76974703D01*
X125435000Y-76960000D01*
X125435000Y-75210000D01*
X125435722Y-75195297D01*
X125437882Y-75180736D01*
X125441459Y-75166457D01*
X125446418Y-75152597D01*
X125452712Y-75139290D01*
X125460280Y-75126664D01*
X125469048Y-75114841D01*
X125478934Y-75103934D01*
X125489841Y-75094048D01*
X125501664Y-75085280D01*
X125514290Y-75077712D01*
X125527597Y-75071418D01*
X125541457Y-75066459D01*
X125555736Y-75062882D01*
X125570297Y-75060722D01*
X125585000Y-75060000D01*
X125885000Y-75060000D01*
X125899703Y-75060722D01*
G37*
G36*
X124629703Y-75060722D02*
G01*
X124644264Y-75062882D01*
X124658543Y-75066459D01*
X124672403Y-75071418D01*
X124685710Y-75077712D01*
X124698336Y-75085280D01*
X124710159Y-75094048D01*
X124721066Y-75103934D01*
X124730952Y-75114841D01*
X124739720Y-75126664D01*
X124747288Y-75139290D01*
X124753582Y-75152597D01*
X124758541Y-75166457D01*
X124762118Y-75180736D01*
X124764278Y-75195297D01*
X124765000Y-75210000D01*
X124765000Y-76960000D01*
X124764278Y-76974703D01*
X124762118Y-76989264D01*
X124758541Y-77003543D01*
X124753582Y-77017403D01*
X124747288Y-77030710D01*
X124739720Y-77043336D01*
X124730952Y-77055159D01*
X124721066Y-77066066D01*
X124710159Y-77075952D01*
X124698336Y-77084720D01*
X124685710Y-77092288D01*
X124672403Y-77098582D01*
X124658543Y-77103541D01*
X124644264Y-77107118D01*
X124629703Y-77109278D01*
X124615000Y-77110000D01*
X124315000Y-77110000D01*
X124300297Y-77109278D01*
X124285736Y-77107118D01*
X124271457Y-77103541D01*
X124257597Y-77098582D01*
X124244290Y-77092288D01*
X124231664Y-77084720D01*
X124219841Y-77075952D01*
X124208934Y-77066066D01*
X124199048Y-77055159D01*
X124190280Y-77043336D01*
X124182712Y-77030710D01*
X124176418Y-77017403D01*
X124171459Y-77003543D01*
X124167882Y-76989264D01*
X124165722Y-76974703D01*
X124165000Y-76960000D01*
X124165000Y-75210000D01*
X124165722Y-75195297D01*
X124167882Y-75180736D01*
X124171459Y-75166457D01*
X124176418Y-75152597D01*
X124182712Y-75139290D01*
X124190280Y-75126664D01*
X124199048Y-75114841D01*
X124208934Y-75103934D01*
X124219841Y-75094048D01*
X124231664Y-75085280D01*
X124244290Y-75077712D01*
X124257597Y-75071418D01*
X124271457Y-75066459D01*
X124285736Y-75062882D01*
X124300297Y-75060722D01*
X124315000Y-75060000D01*
X124615000Y-75060000D01*
X124629703Y-75060722D01*
G37*
G36*
X123359703Y-75060722D02*
G01*
X123374264Y-75062882D01*
X123388543Y-75066459D01*
X123402403Y-75071418D01*
X123415710Y-75077712D01*
X123428336Y-75085280D01*
X123440159Y-75094048D01*
X123451066Y-75103934D01*
X123460952Y-75114841D01*
X123469720Y-75126664D01*
X123477288Y-75139290D01*
X123483582Y-75152597D01*
X123488541Y-75166457D01*
X123492118Y-75180736D01*
X123494278Y-75195297D01*
X123495000Y-75210000D01*
X123495000Y-76960000D01*
X123494278Y-76974703D01*
X123492118Y-76989264D01*
X123488541Y-77003543D01*
X123483582Y-77017403D01*
X123477288Y-77030710D01*
X123469720Y-77043336D01*
X123460952Y-77055159D01*
X123451066Y-77066066D01*
X123440159Y-77075952D01*
X123428336Y-77084720D01*
X123415710Y-77092288D01*
X123402403Y-77098582D01*
X123388543Y-77103541D01*
X123374264Y-77107118D01*
X123359703Y-77109278D01*
X123345000Y-77110000D01*
X123045000Y-77110000D01*
X123030297Y-77109278D01*
X123015736Y-77107118D01*
X123001457Y-77103541D01*
X122987597Y-77098582D01*
X122974290Y-77092288D01*
X122961664Y-77084720D01*
X122949841Y-77075952D01*
X122938934Y-77066066D01*
X122929048Y-77055159D01*
X122920280Y-77043336D01*
X122912712Y-77030710D01*
X122906418Y-77017403D01*
X122901459Y-77003543D01*
X122897882Y-76989264D01*
X122895722Y-76974703D01*
X122895000Y-76960000D01*
X122895000Y-75210000D01*
X122895722Y-75195297D01*
X122897882Y-75180736D01*
X122901459Y-75166457D01*
X122906418Y-75152597D01*
X122912712Y-75139290D01*
X122920280Y-75126664D01*
X122929048Y-75114841D01*
X122938934Y-75103934D01*
X122949841Y-75094048D01*
X122961664Y-75085280D01*
X122974290Y-75077712D01*
X122987597Y-75071418D01*
X123001457Y-75066459D01*
X123015736Y-75062882D01*
X123030297Y-75060722D01*
X123045000Y-75060000D01*
X123345000Y-75060000D01*
X123359703Y-75060722D01*
G37*
G36*
X123359703Y-65760722D02*
G01*
X123374264Y-65762882D01*
X123388543Y-65766459D01*
X123402403Y-65771418D01*
X123415710Y-65777712D01*
X123428336Y-65785280D01*
X123440159Y-65794048D01*
X123451066Y-65803934D01*
X123460952Y-65814841D01*
X123469720Y-65826664D01*
X123477288Y-65839290D01*
X123483582Y-65852597D01*
X123488541Y-65866457D01*
X123492118Y-65880736D01*
X123494278Y-65895297D01*
X123495000Y-65910000D01*
X123495000Y-67660000D01*
X123494278Y-67674703D01*
X123492118Y-67689264D01*
X123488541Y-67703543D01*
X123483582Y-67717403D01*
X123477288Y-67730710D01*
X123469720Y-67743336D01*
X123460952Y-67755159D01*
X123451066Y-67766066D01*
X123440159Y-67775952D01*
X123428336Y-67784720D01*
X123415710Y-67792288D01*
X123402403Y-67798582D01*
X123388543Y-67803541D01*
X123374264Y-67807118D01*
X123359703Y-67809278D01*
X123345000Y-67810000D01*
X123045000Y-67810000D01*
X123030297Y-67809278D01*
X123015736Y-67807118D01*
X123001457Y-67803541D01*
X122987597Y-67798582D01*
X122974290Y-67792288D01*
X122961664Y-67784720D01*
X122949841Y-67775952D01*
X122938934Y-67766066D01*
X122929048Y-67755159D01*
X122920280Y-67743336D01*
X122912712Y-67730710D01*
X122906418Y-67717403D01*
X122901459Y-67703543D01*
X122897882Y-67689264D01*
X122895722Y-67674703D01*
X122895000Y-67660000D01*
X122895000Y-65910000D01*
X122895722Y-65895297D01*
X122897882Y-65880736D01*
X122901459Y-65866457D01*
X122906418Y-65852597D01*
X122912712Y-65839290D01*
X122920280Y-65826664D01*
X122929048Y-65814841D01*
X122938934Y-65803934D01*
X122949841Y-65794048D01*
X122961664Y-65785280D01*
X122974290Y-65777712D01*
X122987597Y-65771418D01*
X123001457Y-65766459D01*
X123015736Y-65762882D01*
X123030297Y-65760722D01*
X123045000Y-65760000D01*
X123345000Y-65760000D01*
X123359703Y-65760722D01*
G37*
G36*
X124629703Y-65760722D02*
G01*
X124644264Y-65762882D01*
X124658543Y-65766459D01*
X124672403Y-65771418D01*
X124685710Y-65777712D01*
X124698336Y-65785280D01*
X124710159Y-65794048D01*
X124721066Y-65803934D01*
X124730952Y-65814841D01*
X124739720Y-65826664D01*
X124747288Y-65839290D01*
X124753582Y-65852597D01*
X124758541Y-65866457D01*
X124762118Y-65880736D01*
X124764278Y-65895297D01*
X124765000Y-65910000D01*
X124765000Y-67660000D01*
X124764278Y-67674703D01*
X124762118Y-67689264D01*
X124758541Y-67703543D01*
X124753582Y-67717403D01*
X124747288Y-67730710D01*
X124739720Y-67743336D01*
X124730952Y-67755159D01*
X124721066Y-67766066D01*
X124710159Y-67775952D01*
X124698336Y-67784720D01*
X124685710Y-67792288D01*
X124672403Y-67798582D01*
X124658543Y-67803541D01*
X124644264Y-67807118D01*
X124629703Y-67809278D01*
X124615000Y-67810000D01*
X124315000Y-67810000D01*
X124300297Y-67809278D01*
X124285736Y-67807118D01*
X124271457Y-67803541D01*
X124257597Y-67798582D01*
X124244290Y-67792288D01*
X124231664Y-67784720D01*
X124219841Y-67775952D01*
X124208934Y-67766066D01*
X124199048Y-67755159D01*
X124190280Y-67743336D01*
X124182712Y-67730710D01*
X124176418Y-67717403D01*
X124171459Y-67703543D01*
X124167882Y-67689264D01*
X124165722Y-67674703D01*
X124165000Y-67660000D01*
X124165000Y-65910000D01*
X124165722Y-65895297D01*
X124167882Y-65880736D01*
X124171459Y-65866457D01*
X124176418Y-65852597D01*
X124182712Y-65839290D01*
X124190280Y-65826664D01*
X124199048Y-65814841D01*
X124208934Y-65803934D01*
X124219841Y-65794048D01*
X124231664Y-65785280D01*
X124244290Y-65777712D01*
X124257597Y-65771418D01*
X124271457Y-65766459D01*
X124285736Y-65762882D01*
X124300297Y-65760722D01*
X124315000Y-65760000D01*
X124615000Y-65760000D01*
X124629703Y-65760722D01*
G37*
G36*
X125899703Y-65760722D02*
G01*
X125914264Y-65762882D01*
X125928543Y-65766459D01*
X125942403Y-65771418D01*
X125955710Y-65777712D01*
X125968336Y-65785280D01*
X125980159Y-65794048D01*
X125991066Y-65803934D01*
X126000952Y-65814841D01*
X126009720Y-65826664D01*
X126017288Y-65839290D01*
X126023582Y-65852597D01*
X126028541Y-65866457D01*
X126032118Y-65880736D01*
X126034278Y-65895297D01*
X126035000Y-65910000D01*
X126035000Y-67660000D01*
X126034278Y-67674703D01*
X126032118Y-67689264D01*
X126028541Y-67703543D01*
X126023582Y-67717403D01*
X126017288Y-67730710D01*
X126009720Y-67743336D01*
X126000952Y-67755159D01*
X125991066Y-67766066D01*
X125980159Y-67775952D01*
X125968336Y-67784720D01*
X125955710Y-67792288D01*
X125942403Y-67798582D01*
X125928543Y-67803541D01*
X125914264Y-67807118D01*
X125899703Y-67809278D01*
X125885000Y-67810000D01*
X125585000Y-67810000D01*
X125570297Y-67809278D01*
X125555736Y-67807118D01*
X125541457Y-67803541D01*
X125527597Y-67798582D01*
X125514290Y-67792288D01*
X125501664Y-67784720D01*
X125489841Y-67775952D01*
X125478934Y-67766066D01*
X125469048Y-67755159D01*
X125460280Y-67743336D01*
X125452712Y-67730710D01*
X125446418Y-67717403D01*
X125441459Y-67703543D01*
X125437882Y-67689264D01*
X125435722Y-67674703D01*
X125435000Y-67660000D01*
X125435000Y-65910000D01*
X125435722Y-65895297D01*
X125437882Y-65880736D01*
X125441459Y-65866457D01*
X125446418Y-65852597D01*
X125452712Y-65839290D01*
X125460280Y-65826664D01*
X125469048Y-65814841D01*
X125478934Y-65803934D01*
X125489841Y-65794048D01*
X125501664Y-65785280D01*
X125514290Y-65777712D01*
X125527597Y-65771418D01*
X125541457Y-65766459D01*
X125555736Y-65762882D01*
X125570297Y-65760722D01*
X125585000Y-65760000D01*
X125885000Y-65760000D01*
X125899703Y-65760722D01*
G37*
G36*
X127169703Y-65760722D02*
G01*
X127184264Y-65762882D01*
X127198543Y-65766459D01*
X127212403Y-65771418D01*
X127225710Y-65777712D01*
X127238336Y-65785280D01*
X127250159Y-65794048D01*
X127261066Y-65803934D01*
X127270952Y-65814841D01*
X127279720Y-65826664D01*
X127287288Y-65839290D01*
X127293582Y-65852597D01*
X127298541Y-65866457D01*
X127302118Y-65880736D01*
X127304278Y-65895297D01*
X127305000Y-65910000D01*
X127305000Y-67660000D01*
X127304278Y-67674703D01*
X127302118Y-67689264D01*
X127298541Y-67703543D01*
X127293582Y-67717403D01*
X127287288Y-67730710D01*
X127279720Y-67743336D01*
X127270952Y-67755159D01*
X127261066Y-67766066D01*
X127250159Y-67775952D01*
X127238336Y-67784720D01*
X127225710Y-67792288D01*
X127212403Y-67798582D01*
X127198543Y-67803541D01*
X127184264Y-67807118D01*
X127169703Y-67809278D01*
X127155000Y-67810000D01*
X126855000Y-67810000D01*
X126840297Y-67809278D01*
X126825736Y-67807118D01*
X126811457Y-67803541D01*
X126797597Y-67798582D01*
X126784290Y-67792288D01*
X126771664Y-67784720D01*
X126759841Y-67775952D01*
X126748934Y-67766066D01*
X126739048Y-67755159D01*
X126730280Y-67743336D01*
X126722712Y-67730710D01*
X126716418Y-67717403D01*
X126711459Y-67703543D01*
X126707882Y-67689264D01*
X126705722Y-67674703D01*
X126705000Y-67660000D01*
X126705000Y-65910000D01*
X126705722Y-65895297D01*
X126707882Y-65880736D01*
X126711459Y-65866457D01*
X126716418Y-65852597D01*
X126722712Y-65839290D01*
X126730280Y-65826664D01*
X126739048Y-65814841D01*
X126748934Y-65803934D01*
X126759841Y-65794048D01*
X126771664Y-65785280D01*
X126784290Y-65777712D01*
X126797597Y-65771418D01*
X126811457Y-65766459D01*
X126825736Y-65762882D01*
X126840297Y-65760722D01*
X126855000Y-65760000D01*
X127155000Y-65760000D01*
X127169703Y-65760722D01*
G37*
G36*
X128439703Y-65760722D02*
G01*
X128454264Y-65762882D01*
X128468543Y-65766459D01*
X128482403Y-65771418D01*
X128495710Y-65777712D01*
X128508336Y-65785280D01*
X128520159Y-65794048D01*
X128531066Y-65803934D01*
X128540952Y-65814841D01*
X128549720Y-65826664D01*
X128557288Y-65839290D01*
X128563582Y-65852597D01*
X128568541Y-65866457D01*
X128572118Y-65880736D01*
X128574278Y-65895297D01*
X128575000Y-65910000D01*
X128575000Y-67660000D01*
X128574278Y-67674703D01*
X128572118Y-67689264D01*
X128568541Y-67703543D01*
X128563582Y-67717403D01*
X128557288Y-67730710D01*
X128549720Y-67743336D01*
X128540952Y-67755159D01*
X128531066Y-67766066D01*
X128520159Y-67775952D01*
X128508336Y-67784720D01*
X128495710Y-67792288D01*
X128482403Y-67798582D01*
X128468543Y-67803541D01*
X128454264Y-67807118D01*
X128439703Y-67809278D01*
X128425000Y-67810000D01*
X128125000Y-67810000D01*
X128110297Y-67809278D01*
X128095736Y-67807118D01*
X128081457Y-67803541D01*
X128067597Y-67798582D01*
X128054290Y-67792288D01*
X128041664Y-67784720D01*
X128029841Y-67775952D01*
X128018934Y-67766066D01*
X128009048Y-67755159D01*
X128000280Y-67743336D01*
X127992712Y-67730710D01*
X127986418Y-67717403D01*
X127981459Y-67703543D01*
X127977882Y-67689264D01*
X127975722Y-67674703D01*
X127975000Y-67660000D01*
X127975000Y-65910000D01*
X127975722Y-65895297D01*
X127977882Y-65880736D01*
X127981459Y-65866457D01*
X127986418Y-65852597D01*
X127992712Y-65839290D01*
X128000280Y-65826664D01*
X128009048Y-65814841D01*
X128018934Y-65803934D01*
X128029841Y-65794048D01*
X128041664Y-65785280D01*
X128054290Y-65777712D01*
X128067597Y-65771418D01*
X128081457Y-65766459D01*
X128095736Y-65762882D01*
X128110297Y-65760722D01*
X128125000Y-65760000D01*
X128425000Y-65760000D01*
X128439703Y-65760722D01*
G37*
G36*
X129709703Y-65760722D02*
G01*
X129724264Y-65762882D01*
X129738543Y-65766459D01*
X129752403Y-65771418D01*
X129765710Y-65777712D01*
X129778336Y-65785280D01*
X129790159Y-65794048D01*
X129801066Y-65803934D01*
X129810952Y-65814841D01*
X129819720Y-65826664D01*
X129827288Y-65839290D01*
X129833582Y-65852597D01*
X129838541Y-65866457D01*
X129842118Y-65880736D01*
X129844278Y-65895297D01*
X129845000Y-65910000D01*
X129845000Y-67660000D01*
X129844278Y-67674703D01*
X129842118Y-67689264D01*
X129838541Y-67703543D01*
X129833582Y-67717403D01*
X129827288Y-67730710D01*
X129819720Y-67743336D01*
X129810952Y-67755159D01*
X129801066Y-67766066D01*
X129790159Y-67775952D01*
X129778336Y-67784720D01*
X129765710Y-67792288D01*
X129752403Y-67798582D01*
X129738543Y-67803541D01*
X129724264Y-67807118D01*
X129709703Y-67809278D01*
X129695000Y-67810000D01*
X129395000Y-67810000D01*
X129380297Y-67809278D01*
X129365736Y-67807118D01*
X129351457Y-67803541D01*
X129337597Y-67798582D01*
X129324290Y-67792288D01*
X129311664Y-67784720D01*
X129299841Y-67775952D01*
X129288934Y-67766066D01*
X129279048Y-67755159D01*
X129270280Y-67743336D01*
X129262712Y-67730710D01*
X129256418Y-67717403D01*
X129251459Y-67703543D01*
X129247882Y-67689264D01*
X129245722Y-67674703D01*
X129245000Y-67660000D01*
X129245000Y-65910000D01*
X129245722Y-65895297D01*
X129247882Y-65880736D01*
X129251459Y-65866457D01*
X129256418Y-65852597D01*
X129262712Y-65839290D01*
X129270280Y-65826664D01*
X129279048Y-65814841D01*
X129288934Y-65803934D01*
X129299841Y-65794048D01*
X129311664Y-65785280D01*
X129324290Y-65777712D01*
X129337597Y-65771418D01*
X129351457Y-65766459D01*
X129365736Y-65762882D01*
X129380297Y-65760722D01*
X129395000Y-65760000D01*
X129695000Y-65760000D01*
X129709703Y-65760722D01*
G37*
G36*
X130979703Y-65760722D02*
G01*
X130994264Y-65762882D01*
X131008543Y-65766459D01*
X131022403Y-65771418D01*
X131035710Y-65777712D01*
X131048336Y-65785280D01*
X131060159Y-65794048D01*
X131071066Y-65803934D01*
X131080952Y-65814841D01*
X131089720Y-65826664D01*
X131097288Y-65839290D01*
X131103582Y-65852597D01*
X131108541Y-65866457D01*
X131112118Y-65880736D01*
X131114278Y-65895297D01*
X131115000Y-65910000D01*
X131115000Y-67660000D01*
X131114278Y-67674703D01*
X131112118Y-67689264D01*
X131108541Y-67703543D01*
X131103582Y-67717403D01*
X131097288Y-67730710D01*
X131089720Y-67743336D01*
X131080952Y-67755159D01*
X131071066Y-67766066D01*
X131060159Y-67775952D01*
X131048336Y-67784720D01*
X131035710Y-67792288D01*
X131022403Y-67798582D01*
X131008543Y-67803541D01*
X130994264Y-67807118D01*
X130979703Y-67809278D01*
X130965000Y-67810000D01*
X130665000Y-67810000D01*
X130650297Y-67809278D01*
X130635736Y-67807118D01*
X130621457Y-67803541D01*
X130607597Y-67798582D01*
X130594290Y-67792288D01*
X130581664Y-67784720D01*
X130569841Y-67775952D01*
X130558934Y-67766066D01*
X130549048Y-67755159D01*
X130540280Y-67743336D01*
X130532712Y-67730710D01*
X130526418Y-67717403D01*
X130521459Y-67703543D01*
X130517882Y-67689264D01*
X130515722Y-67674703D01*
X130515000Y-67660000D01*
X130515000Y-65910000D01*
X130515722Y-65895297D01*
X130517882Y-65880736D01*
X130521459Y-65866457D01*
X130526418Y-65852597D01*
X130532712Y-65839290D01*
X130540280Y-65826664D01*
X130549048Y-65814841D01*
X130558934Y-65803934D01*
X130569841Y-65794048D01*
X130581664Y-65785280D01*
X130594290Y-65777712D01*
X130607597Y-65771418D01*
X130621457Y-65766459D01*
X130635736Y-65762882D01*
X130650297Y-65760722D01*
X130665000Y-65760000D01*
X130965000Y-65760000D01*
X130979703Y-65760722D01*
G37*
G36*
X132249703Y-65760722D02*
G01*
X132264264Y-65762882D01*
X132278543Y-65766459D01*
X132292403Y-65771418D01*
X132305710Y-65777712D01*
X132318336Y-65785280D01*
X132330159Y-65794048D01*
X132341066Y-65803934D01*
X132350952Y-65814841D01*
X132359720Y-65826664D01*
X132367288Y-65839290D01*
X132373582Y-65852597D01*
X132378541Y-65866457D01*
X132382118Y-65880736D01*
X132384278Y-65895297D01*
X132385000Y-65910000D01*
X132385000Y-67660000D01*
X132384278Y-67674703D01*
X132382118Y-67689264D01*
X132378541Y-67703543D01*
X132373582Y-67717403D01*
X132367288Y-67730710D01*
X132359720Y-67743336D01*
X132350952Y-67755159D01*
X132341066Y-67766066D01*
X132330159Y-67775952D01*
X132318336Y-67784720D01*
X132305710Y-67792288D01*
X132292403Y-67798582D01*
X132278543Y-67803541D01*
X132264264Y-67807118D01*
X132249703Y-67809278D01*
X132235000Y-67810000D01*
X131935000Y-67810000D01*
X131920297Y-67809278D01*
X131905736Y-67807118D01*
X131891457Y-67803541D01*
X131877597Y-67798582D01*
X131864290Y-67792288D01*
X131851664Y-67784720D01*
X131839841Y-67775952D01*
X131828934Y-67766066D01*
X131819048Y-67755159D01*
X131810280Y-67743336D01*
X131802712Y-67730710D01*
X131796418Y-67717403D01*
X131791459Y-67703543D01*
X131787882Y-67689264D01*
X131785722Y-67674703D01*
X131785000Y-67660000D01*
X131785000Y-65910000D01*
X131785722Y-65895297D01*
X131787882Y-65880736D01*
X131791459Y-65866457D01*
X131796418Y-65852597D01*
X131802712Y-65839290D01*
X131810280Y-65826664D01*
X131819048Y-65814841D01*
X131828934Y-65803934D01*
X131839841Y-65794048D01*
X131851664Y-65785280D01*
X131864290Y-65777712D01*
X131877597Y-65771418D01*
X131891457Y-65766459D01*
X131905736Y-65762882D01*
X131920297Y-65760722D01*
X131935000Y-65760000D01*
X132235000Y-65760000D01*
X132249703Y-65760722D01*
G37*
G36*
X133519703Y-65760722D02*
G01*
X133534264Y-65762882D01*
X133548543Y-65766459D01*
X133562403Y-65771418D01*
X133575710Y-65777712D01*
X133588336Y-65785280D01*
X133600159Y-65794048D01*
X133611066Y-65803934D01*
X133620952Y-65814841D01*
X133629720Y-65826664D01*
X133637288Y-65839290D01*
X133643582Y-65852597D01*
X133648541Y-65866457D01*
X133652118Y-65880736D01*
X133654278Y-65895297D01*
X133655000Y-65910000D01*
X133655000Y-67660000D01*
X133654278Y-67674703D01*
X133652118Y-67689264D01*
X133648541Y-67703543D01*
X133643582Y-67717403D01*
X133637288Y-67730710D01*
X133629720Y-67743336D01*
X133620952Y-67755159D01*
X133611066Y-67766066D01*
X133600159Y-67775952D01*
X133588336Y-67784720D01*
X133575710Y-67792288D01*
X133562403Y-67798582D01*
X133548543Y-67803541D01*
X133534264Y-67807118D01*
X133519703Y-67809278D01*
X133505000Y-67810000D01*
X133205000Y-67810000D01*
X133190297Y-67809278D01*
X133175736Y-67807118D01*
X133161457Y-67803541D01*
X133147597Y-67798582D01*
X133134290Y-67792288D01*
X133121664Y-67784720D01*
X133109841Y-67775952D01*
X133098934Y-67766066D01*
X133089048Y-67755159D01*
X133080280Y-67743336D01*
X133072712Y-67730710D01*
X133066418Y-67717403D01*
X133061459Y-67703543D01*
X133057882Y-67689264D01*
X133055722Y-67674703D01*
X133055000Y-67660000D01*
X133055000Y-65910000D01*
X133055722Y-65895297D01*
X133057882Y-65880736D01*
X133061459Y-65866457D01*
X133066418Y-65852597D01*
X133072712Y-65839290D01*
X133080280Y-65826664D01*
X133089048Y-65814841D01*
X133098934Y-65803934D01*
X133109841Y-65794048D01*
X133121664Y-65785280D01*
X133134290Y-65777712D01*
X133147597Y-65771418D01*
X133161457Y-65766459D01*
X133175736Y-65762882D01*
X133190297Y-65760722D01*
X133205000Y-65760000D01*
X133505000Y-65760000D01*
X133519703Y-65760722D01*
G37*
G36*
X134789703Y-65760722D02*
G01*
X134804264Y-65762882D01*
X134818543Y-65766459D01*
X134832403Y-65771418D01*
X134845710Y-65777712D01*
X134858336Y-65785280D01*
X134870159Y-65794048D01*
X134881066Y-65803934D01*
X134890952Y-65814841D01*
X134899720Y-65826664D01*
X134907288Y-65839290D01*
X134913582Y-65852597D01*
X134918541Y-65866457D01*
X134922118Y-65880736D01*
X134924278Y-65895297D01*
X134925000Y-65910000D01*
X134925000Y-67660000D01*
X134924278Y-67674703D01*
X134922118Y-67689264D01*
X134918541Y-67703543D01*
X134913582Y-67717403D01*
X134907288Y-67730710D01*
X134899720Y-67743336D01*
X134890952Y-67755159D01*
X134881066Y-67766066D01*
X134870159Y-67775952D01*
X134858336Y-67784720D01*
X134845710Y-67792288D01*
X134832403Y-67798582D01*
X134818543Y-67803541D01*
X134804264Y-67807118D01*
X134789703Y-67809278D01*
X134775000Y-67810000D01*
X134475000Y-67810000D01*
X134460297Y-67809278D01*
X134445736Y-67807118D01*
X134431457Y-67803541D01*
X134417597Y-67798582D01*
X134404290Y-67792288D01*
X134391664Y-67784720D01*
X134379841Y-67775952D01*
X134368934Y-67766066D01*
X134359048Y-67755159D01*
X134350280Y-67743336D01*
X134342712Y-67730710D01*
X134336418Y-67717403D01*
X134331459Y-67703543D01*
X134327882Y-67689264D01*
X134325722Y-67674703D01*
X134325000Y-67660000D01*
X134325000Y-65910000D01*
X134325722Y-65895297D01*
X134327882Y-65880736D01*
X134331459Y-65866457D01*
X134336418Y-65852597D01*
X134342712Y-65839290D01*
X134350280Y-65826664D01*
X134359048Y-65814841D01*
X134368934Y-65803934D01*
X134379841Y-65794048D01*
X134391664Y-65785280D01*
X134404290Y-65777712D01*
X134417597Y-65771418D01*
X134431457Y-65766459D01*
X134445736Y-65762882D01*
X134460297Y-65760722D01*
X134475000Y-65760000D01*
X134775000Y-65760000D01*
X134789703Y-65760722D01*
G37*
G36*
X171981931Y-79081133D02*
G01*
X172003166Y-79084283D01*
X172023990Y-79089499D01*
X172044202Y-79096731D01*
X172063608Y-79105910D01*
X172082021Y-79116946D01*
X172099264Y-79129734D01*
X172115170Y-79144150D01*
X172129586Y-79160056D01*
X172142374Y-79177299D01*
X172153410Y-79195712D01*
X172162589Y-79215118D01*
X172169821Y-79235330D01*
X172175037Y-79256154D01*
X172178187Y-79277389D01*
X172179240Y-79298830D01*
X172179240Y-79736330D01*
X172178187Y-79757771D01*
X172175037Y-79779006D01*
X172169821Y-79799830D01*
X172162589Y-79820042D01*
X172153410Y-79839448D01*
X172142374Y-79857861D01*
X172129586Y-79875104D01*
X172115170Y-79891010D01*
X172099264Y-79905426D01*
X172082021Y-79918214D01*
X172063608Y-79929250D01*
X172044202Y-79938429D01*
X172023990Y-79945661D01*
X172003166Y-79950877D01*
X171981931Y-79954027D01*
X171960490Y-79955080D01*
X171447990Y-79955080D01*
X171426549Y-79954027D01*
X171405314Y-79950877D01*
X171384490Y-79945661D01*
X171364278Y-79938429D01*
X171344872Y-79929250D01*
X171326459Y-79918214D01*
X171309216Y-79905426D01*
X171293310Y-79891010D01*
X171278894Y-79875104D01*
X171266106Y-79857861D01*
X171255070Y-79839448D01*
X171245891Y-79820042D01*
X171238659Y-79799830D01*
X171233443Y-79779006D01*
X171230293Y-79757771D01*
X171229240Y-79736330D01*
X171229240Y-79298830D01*
X171230293Y-79277389D01*
X171233443Y-79256154D01*
X171238659Y-79235330D01*
X171245891Y-79215118D01*
X171255070Y-79195712D01*
X171266106Y-79177299D01*
X171278894Y-79160056D01*
X171293310Y-79144150D01*
X171309216Y-79129734D01*
X171326459Y-79116946D01*
X171344872Y-79105910D01*
X171364278Y-79096731D01*
X171384490Y-79089499D01*
X171405314Y-79084283D01*
X171426549Y-79081133D01*
X171447990Y-79080080D01*
X171960490Y-79080080D01*
X171981931Y-79081133D01*
G37*
G36*
X171981931Y-80656133D02*
G01*
X172003166Y-80659283D01*
X172023990Y-80664499D01*
X172044202Y-80671731D01*
X172063608Y-80680910D01*
X172082021Y-80691946D01*
X172099264Y-80704734D01*
X172115170Y-80719150D01*
X172129586Y-80735056D01*
X172142374Y-80752299D01*
X172153410Y-80770712D01*
X172162589Y-80790118D01*
X172169821Y-80810330D01*
X172175037Y-80831154D01*
X172178187Y-80852389D01*
X172179240Y-80873830D01*
X172179240Y-81311330D01*
X172178187Y-81332771D01*
X172175037Y-81354006D01*
X172169821Y-81374830D01*
X172162589Y-81395042D01*
X172153410Y-81414448D01*
X172142374Y-81432861D01*
X172129586Y-81450104D01*
X172115170Y-81466010D01*
X172099264Y-81480426D01*
X172082021Y-81493214D01*
X172063608Y-81504250D01*
X172044202Y-81513429D01*
X172023990Y-81520661D01*
X172003166Y-81525877D01*
X171981931Y-81529027D01*
X171960490Y-81530080D01*
X171447990Y-81530080D01*
X171426549Y-81529027D01*
X171405314Y-81525877D01*
X171384490Y-81520661D01*
X171364278Y-81513429D01*
X171344872Y-81504250D01*
X171326459Y-81493214D01*
X171309216Y-81480426D01*
X171293310Y-81466010D01*
X171278894Y-81450104D01*
X171266106Y-81432861D01*
X171255070Y-81414448D01*
X171245891Y-81395042D01*
X171238659Y-81374830D01*
X171233443Y-81354006D01*
X171230293Y-81332771D01*
X171229240Y-81311330D01*
X171229240Y-80873830D01*
X171230293Y-80852389D01*
X171233443Y-80831154D01*
X171238659Y-80810330D01*
X171245891Y-80790118D01*
X171255070Y-80770712D01*
X171266106Y-80752299D01*
X171278894Y-80735056D01*
X171293310Y-80719150D01*
X171309216Y-80704734D01*
X171326459Y-80691946D01*
X171344872Y-80680910D01*
X171364278Y-80671731D01*
X171384490Y-80664499D01*
X171405314Y-80659283D01*
X171426549Y-80656133D01*
X171447990Y-80655080D01*
X171960490Y-80655080D01*
X171981931Y-80656133D01*
G37*
D11*
X151925000Y-81095000D03*
X151425000Y-81095000D03*
X150425000Y-81095000D03*
X150925000Y-81095000D03*
X151925000Y-82095000D03*
X150925000Y-82095000D03*
X151425000Y-82095000D03*
X150425000Y-82095000D03*
X138530000Y-81095000D03*
X138030000Y-81095000D03*
X137030000Y-81095000D03*
X137530000Y-81095000D03*
X138530000Y-82095000D03*
X137530000Y-82095000D03*
X138030000Y-82095000D03*
X137030000Y-82095000D03*
X137030000Y-79555000D03*
X137530000Y-79555000D03*
X138530000Y-79555000D03*
X138030000Y-79555000D03*
X137030000Y-78555000D03*
X138030000Y-78555000D03*
X137530000Y-78555000D03*
X138530000Y-78555000D03*
X131335000Y-79555000D03*
X131835000Y-79555000D03*
X132835000Y-79555000D03*
X132335000Y-79555000D03*
X131335000Y-78555000D03*
X132335000Y-78555000D03*
X131835000Y-78555000D03*
X132835000Y-78555000D03*
D10*
G36*
X137422691Y-73596053D02*
G01*
X137443926Y-73599203D01*
X137464750Y-73604419D01*
X137484962Y-73611651D01*
X137504368Y-73620830D01*
X137522781Y-73631866D01*
X137540024Y-73644654D01*
X137555930Y-73659070D01*
X137570346Y-73674976D01*
X137583134Y-73692219D01*
X137594170Y-73710632D01*
X137603349Y-73730038D01*
X137610581Y-73750250D01*
X137615797Y-73771074D01*
X137618947Y-73792309D01*
X137620000Y-73813750D01*
X137620000Y-74251250D01*
X137618947Y-74272691D01*
X137615797Y-74293926D01*
X137610581Y-74314750D01*
X137603349Y-74334962D01*
X137594170Y-74354368D01*
X137583134Y-74372781D01*
X137570346Y-74390024D01*
X137555930Y-74405930D01*
X137540024Y-74420346D01*
X137522781Y-74433134D01*
X137504368Y-74444170D01*
X137484962Y-74453349D01*
X137464750Y-74460581D01*
X137443926Y-74465797D01*
X137422691Y-74468947D01*
X137401250Y-74470000D01*
X136888750Y-74470000D01*
X136867309Y-74468947D01*
X136846074Y-74465797D01*
X136825250Y-74460581D01*
X136805038Y-74453349D01*
X136785632Y-74444170D01*
X136767219Y-74433134D01*
X136749976Y-74420346D01*
X136734070Y-74405930D01*
X136719654Y-74390024D01*
X136706866Y-74372781D01*
X136695830Y-74354368D01*
X136686651Y-74334962D01*
X136679419Y-74314750D01*
X136674203Y-74293926D01*
X136671053Y-74272691D01*
X136670000Y-74251250D01*
X136670000Y-73813750D01*
X136671053Y-73792309D01*
X136674203Y-73771074D01*
X136679419Y-73750250D01*
X136686651Y-73730038D01*
X136695830Y-73710632D01*
X136706866Y-73692219D01*
X136719654Y-73674976D01*
X136734070Y-73659070D01*
X136749976Y-73644654D01*
X136767219Y-73631866D01*
X136785632Y-73620830D01*
X136805038Y-73611651D01*
X136825250Y-73604419D01*
X136846074Y-73599203D01*
X136867309Y-73596053D01*
X136888750Y-73595000D01*
X137401250Y-73595000D01*
X137422691Y-73596053D01*
G37*
G36*
X137422691Y-75171053D02*
G01*
X137443926Y-75174203D01*
X137464750Y-75179419D01*
X137484962Y-75186651D01*
X137504368Y-75195830D01*
X137522781Y-75206866D01*
X137540024Y-75219654D01*
X137555930Y-75234070D01*
X137570346Y-75249976D01*
X137583134Y-75267219D01*
X137594170Y-75285632D01*
X137603349Y-75305038D01*
X137610581Y-75325250D01*
X137615797Y-75346074D01*
X137618947Y-75367309D01*
X137620000Y-75388750D01*
X137620000Y-75826250D01*
X137618947Y-75847691D01*
X137615797Y-75868926D01*
X137610581Y-75889750D01*
X137603349Y-75909962D01*
X137594170Y-75929368D01*
X137583134Y-75947781D01*
X137570346Y-75965024D01*
X137555930Y-75980930D01*
X137540024Y-75995346D01*
X137522781Y-76008134D01*
X137504368Y-76019170D01*
X137484962Y-76028349D01*
X137464750Y-76035581D01*
X137443926Y-76040797D01*
X137422691Y-76043947D01*
X137401250Y-76045000D01*
X136888750Y-76045000D01*
X136867309Y-76043947D01*
X136846074Y-76040797D01*
X136825250Y-76035581D01*
X136805038Y-76028349D01*
X136785632Y-76019170D01*
X136767219Y-76008134D01*
X136749976Y-75995346D01*
X136734070Y-75980930D01*
X136719654Y-75965024D01*
X136706866Y-75947781D01*
X136695830Y-75929368D01*
X136686651Y-75909962D01*
X136679419Y-75889750D01*
X136674203Y-75868926D01*
X136671053Y-75847691D01*
X136670000Y-75826250D01*
X136670000Y-75388750D01*
X136671053Y-75367309D01*
X136674203Y-75346074D01*
X136679419Y-75325250D01*
X136686651Y-75305038D01*
X136695830Y-75285632D01*
X136706866Y-75267219D01*
X136719654Y-75249976D01*
X136734070Y-75234070D01*
X136749976Y-75219654D01*
X136767219Y-75206866D01*
X136785632Y-75195830D01*
X136805038Y-75186651D01*
X136825250Y-75179419D01*
X136846074Y-75174203D01*
X136867309Y-75171053D01*
X136888750Y-75170000D01*
X137401250Y-75170000D01*
X137422691Y-75171053D01*
G37*
G36*
X157107691Y-73596053D02*
G01*
X157128926Y-73599203D01*
X157149750Y-73604419D01*
X157169962Y-73611651D01*
X157189368Y-73620830D01*
X157207781Y-73631866D01*
X157225024Y-73644654D01*
X157240930Y-73659070D01*
X157255346Y-73674976D01*
X157268134Y-73692219D01*
X157279170Y-73710632D01*
X157288349Y-73730038D01*
X157295581Y-73750250D01*
X157300797Y-73771074D01*
X157303947Y-73792309D01*
X157305000Y-73813750D01*
X157305000Y-74251250D01*
X157303947Y-74272691D01*
X157300797Y-74293926D01*
X157295581Y-74314750D01*
X157288349Y-74334962D01*
X157279170Y-74354368D01*
X157268134Y-74372781D01*
X157255346Y-74390024D01*
X157240930Y-74405930D01*
X157225024Y-74420346D01*
X157207781Y-74433134D01*
X157189368Y-74444170D01*
X157169962Y-74453349D01*
X157149750Y-74460581D01*
X157128926Y-74465797D01*
X157107691Y-74468947D01*
X157086250Y-74470000D01*
X156573750Y-74470000D01*
X156552309Y-74468947D01*
X156531074Y-74465797D01*
X156510250Y-74460581D01*
X156490038Y-74453349D01*
X156470632Y-74444170D01*
X156452219Y-74433134D01*
X156434976Y-74420346D01*
X156419070Y-74405930D01*
X156404654Y-74390024D01*
X156391866Y-74372781D01*
X156380830Y-74354368D01*
X156371651Y-74334962D01*
X156364419Y-74314750D01*
X156359203Y-74293926D01*
X156356053Y-74272691D01*
X156355000Y-74251250D01*
X156355000Y-73813750D01*
X156356053Y-73792309D01*
X156359203Y-73771074D01*
X156364419Y-73750250D01*
X156371651Y-73730038D01*
X156380830Y-73710632D01*
X156391866Y-73692219D01*
X156404654Y-73674976D01*
X156419070Y-73659070D01*
X156434976Y-73644654D01*
X156452219Y-73631866D01*
X156470632Y-73620830D01*
X156490038Y-73611651D01*
X156510250Y-73604419D01*
X156531074Y-73599203D01*
X156552309Y-73596053D01*
X156573750Y-73595000D01*
X157086250Y-73595000D01*
X157107691Y-73596053D01*
G37*
G36*
X157107691Y-75171053D02*
G01*
X157128926Y-75174203D01*
X157149750Y-75179419D01*
X157169962Y-75186651D01*
X157189368Y-75195830D01*
X157207781Y-75206866D01*
X157225024Y-75219654D01*
X157240930Y-75234070D01*
X157255346Y-75249976D01*
X157268134Y-75267219D01*
X157279170Y-75285632D01*
X157288349Y-75305038D01*
X157295581Y-75325250D01*
X157300797Y-75346074D01*
X157303947Y-75367309D01*
X157305000Y-75388750D01*
X157305000Y-75826250D01*
X157303947Y-75847691D01*
X157300797Y-75868926D01*
X157295581Y-75889750D01*
X157288349Y-75909962D01*
X157279170Y-75929368D01*
X157268134Y-75947781D01*
X157255346Y-75965024D01*
X157240930Y-75980930D01*
X157225024Y-75995346D01*
X157207781Y-76008134D01*
X157189368Y-76019170D01*
X157169962Y-76028349D01*
X157149750Y-76035581D01*
X157128926Y-76040797D01*
X157107691Y-76043947D01*
X157086250Y-76045000D01*
X156573750Y-76045000D01*
X156552309Y-76043947D01*
X156531074Y-76040797D01*
X156510250Y-76035581D01*
X156490038Y-76028349D01*
X156470632Y-76019170D01*
X156452219Y-76008134D01*
X156434976Y-75995346D01*
X156419070Y-75980930D01*
X156404654Y-75965024D01*
X156391866Y-75947781D01*
X156380830Y-75929368D01*
X156371651Y-75909962D01*
X156364419Y-75889750D01*
X156359203Y-75868926D01*
X156356053Y-75847691D01*
X156355000Y-75826250D01*
X156355000Y-75388750D01*
X156356053Y-75367309D01*
X156359203Y-75346074D01*
X156364419Y-75325250D01*
X156371651Y-75305038D01*
X156380830Y-75285632D01*
X156391866Y-75267219D01*
X156404654Y-75249976D01*
X156419070Y-75234070D01*
X156434976Y-75219654D01*
X156452219Y-75206866D01*
X156470632Y-75195830D01*
X156490038Y-75186651D01*
X156510250Y-75179419D01*
X156531074Y-75174203D01*
X156552309Y-75171053D01*
X156573750Y-75170000D01*
X157086250Y-75170000D01*
X157107691Y-75171053D01*
G37*
D11*
X116730000Y-79555000D03*
X117230000Y-79555000D03*
X118230000Y-79555000D03*
X117730000Y-79555000D03*
X116730000Y-78555000D03*
X117730000Y-78555000D03*
X117230000Y-78555000D03*
X118230000Y-78555000D03*
X118230000Y-81095000D03*
X117730000Y-81095000D03*
X116730000Y-81095000D03*
X117230000Y-81095000D03*
X118230000Y-82095000D03*
X117230000Y-82095000D03*
X117730000Y-82095000D03*
X116730000Y-82095000D03*
X124350000Y-79555000D03*
X124850000Y-79555000D03*
X125850000Y-79555000D03*
X125350000Y-79555000D03*
X124350000Y-78555000D03*
X125350000Y-78555000D03*
X124850000Y-78555000D03*
X125850000Y-78555000D03*
X132835000Y-81095000D03*
X132335000Y-81095000D03*
X131335000Y-81095000D03*
X131835000Y-81095000D03*
X132835000Y-82095000D03*
X131835000Y-82095000D03*
X132335000Y-82095000D03*
X131335000Y-82095000D03*
X125850000Y-81095000D03*
X125350000Y-81095000D03*
X124350000Y-81095000D03*
X124850000Y-81095000D03*
X125850000Y-82095000D03*
X124850000Y-82095000D03*
X125350000Y-82095000D03*
X124350000Y-82095000D03*
X150425000Y-79555000D03*
X150925000Y-79555000D03*
X151925000Y-79555000D03*
X151425000Y-79555000D03*
X150425000Y-78555000D03*
X151425000Y-78555000D03*
X150925000Y-78555000D03*
X151925000Y-78555000D03*
X144075000Y-79555000D03*
X144575000Y-79555000D03*
X145575000Y-79555000D03*
X145075000Y-79555000D03*
X144075000Y-78555000D03*
X145075000Y-78555000D03*
X144575000Y-78555000D03*
X145575000Y-78555000D03*
X145575000Y-81095000D03*
X145075000Y-81095000D03*
X144075000Y-81095000D03*
X144575000Y-81095000D03*
X145575000Y-82095000D03*
X144575000Y-82095000D03*
X145075000Y-82095000D03*
X144075000Y-82095000D03*
M02*
