G04 #@! TF.GenerationSoftware,KiCad,Pcbnew,(5.1.5)-3*
G04 #@! TF.CreationDate,2020-11-01T11:49:08+00:00*
G04 #@! TF.ProjectId,SCSIConnectorA,53435349-436f-46e6-9e65-63746f72412e,rev?*
G04 #@! TF.SameCoordinates,Original*
G04 #@! TF.FileFunction,Copper,L2,Bot*
G04 #@! TF.FilePolarity,Positive*
%FSLAX46Y46*%
G04 Gerber Fmt 4.6, Leading zero omitted, Abs format (unit mm)*
G04 Created by KiCad (PCBNEW (5.1.5)-3) date 2020-11-01 11:49:08*
%MOMM*%
%LPD*%
G04 APERTURE LIST*
%ADD10C,0.100000*%
%ADD11O,1.700000X1.700000*%
%ADD12R,1.700000X1.700000*%
%ADD13C,1.200000*%
%ADD14R,1.200000X1.200000*%
%ADD15C,2.800000*%
%ADD16R,1.500000X1.000000*%
%ADD17C,2.900000*%
%ADD18C,0.800000*%
%ADD19C,1.000000*%
%ADD20C,0.500000*%
%ADD21C,0.250000*%
%ADD22C,0.254000*%
G04 APERTURE END LIST*
D10*
G36*
X120990000Y-73075000D02*
G01*
X120990000Y-73575000D01*
X121590000Y-73575000D01*
X121590000Y-73075000D01*
X120990000Y-73075000D01*
G37*
D11*
X180706000Y-92111000D03*
X178166000Y-92111000D03*
X180706000Y-89571000D03*
X178166000Y-89571000D03*
X180706000Y-87031000D03*
X178166000Y-87031000D03*
X180706000Y-84491000D03*
X178166000Y-84491000D03*
X180706000Y-81951000D03*
X178166000Y-81951000D03*
X180706000Y-79411000D03*
X178166000Y-79411000D03*
X180706000Y-76871000D03*
X178166000Y-76871000D03*
X180706000Y-74331000D03*
D12*
X178166000Y-74331000D03*
D13*
X163265000Y-93564000D03*
X164535000Y-91664000D03*
X163265000Y-89764000D03*
X164535000Y-87864000D03*
X160725000Y-93564000D03*
X161995000Y-91664000D03*
X160725000Y-89764000D03*
X161995000Y-87864000D03*
X158185000Y-93564000D03*
X159455000Y-91664000D03*
X158185000Y-89764000D03*
X159455000Y-87864000D03*
X155645000Y-93564000D03*
X156915000Y-91664000D03*
X155645000Y-89764000D03*
X156915000Y-87864000D03*
X153105000Y-93564000D03*
X154375000Y-91664000D03*
X153105000Y-89764000D03*
X154375000Y-87864000D03*
X150565000Y-93564000D03*
X151835000Y-91664000D03*
X150565000Y-89764000D03*
X151835000Y-87864000D03*
X148025000Y-93564000D03*
X149295000Y-91664000D03*
X148025000Y-89764000D03*
X149295000Y-87864000D03*
X145485000Y-93564000D03*
X146755000Y-91664000D03*
X145485000Y-89764000D03*
X146755000Y-87864000D03*
X142945000Y-93564000D03*
X144215000Y-91664000D03*
X142945000Y-89764000D03*
X144215000Y-87864000D03*
X140405000Y-93564000D03*
X141675000Y-91664000D03*
X140405000Y-89764000D03*
X141675000Y-87864000D03*
X137865000Y-93564000D03*
X139135000Y-91664000D03*
X137865000Y-89764000D03*
X139135000Y-87864000D03*
X135325000Y-93564000D03*
X136595000Y-91664000D03*
X135325000Y-89764000D03*
X136595000Y-87864000D03*
X132785000Y-93564000D03*
X134055000Y-91664000D03*
X132785000Y-89764000D03*
X134055000Y-87864000D03*
X130245000Y-93564000D03*
X131515000Y-91664000D03*
X130245000Y-89764000D03*
X131515000Y-87864000D03*
X127705000Y-93564000D03*
X128975000Y-91664000D03*
X127705000Y-89764000D03*
X128975000Y-87864000D03*
X125165000Y-93564000D03*
X126435000Y-91664000D03*
X125165000Y-89764000D03*
X126435000Y-87864000D03*
X122625000Y-93564000D03*
X123895000Y-91664000D03*
X122625000Y-89764000D03*
X123895000Y-87864000D03*
X120085000Y-93564000D03*
X121355000Y-91664000D03*
X120085000Y-89764000D03*
X121355000Y-87864000D03*
X117545000Y-93564000D03*
X118815000Y-91664000D03*
X117545000Y-89764000D03*
X118815000Y-87864000D03*
D14*
X115005000Y-93564000D03*
D13*
X116275000Y-91664000D03*
X115005000Y-89764000D03*
X116275000Y-87864000D03*
D15*
X110015000Y-90775000D03*
X169525000Y-90775000D03*
G04 #@! TA.AperFunction,SMDPad,CuDef*
D10*
G36*
X120540000Y-73225000D02*
G01*
X120540000Y-72675000D01*
X120540602Y-72675000D01*
X120540602Y-72650466D01*
X120545412Y-72601635D01*
X120554984Y-72553510D01*
X120569228Y-72506555D01*
X120588005Y-72461222D01*
X120611136Y-72417949D01*
X120638396Y-72377150D01*
X120669524Y-72339221D01*
X120704221Y-72304524D01*
X120742150Y-72273396D01*
X120782949Y-72246136D01*
X120826222Y-72223005D01*
X120871555Y-72204228D01*
X120918510Y-72189984D01*
X120966635Y-72180412D01*
X121015466Y-72175602D01*
X121040000Y-72175602D01*
X121040000Y-72175000D01*
X121540000Y-72175000D01*
X121540000Y-72175602D01*
X121564534Y-72175602D01*
X121613365Y-72180412D01*
X121661490Y-72189984D01*
X121708445Y-72204228D01*
X121753778Y-72223005D01*
X121797051Y-72246136D01*
X121837850Y-72273396D01*
X121875779Y-72304524D01*
X121910476Y-72339221D01*
X121941604Y-72377150D01*
X121968864Y-72417949D01*
X121991995Y-72461222D01*
X122010772Y-72506555D01*
X122025016Y-72553510D01*
X122034588Y-72601635D01*
X122039398Y-72650466D01*
X122039398Y-72675000D01*
X122040000Y-72675000D01*
X122040000Y-73225000D01*
X120540000Y-73225000D01*
G37*
G04 #@! TD.AperFunction*
D16*
X121290000Y-73975000D03*
G04 #@! TA.AperFunction,SMDPad,CuDef*
D10*
G36*
X122039398Y-75275000D02*
G01*
X122039398Y-75299534D01*
X122034588Y-75348365D01*
X122025016Y-75396490D01*
X122010772Y-75443445D01*
X121991995Y-75488778D01*
X121968864Y-75532051D01*
X121941604Y-75572850D01*
X121910476Y-75610779D01*
X121875779Y-75645476D01*
X121837850Y-75676604D01*
X121797051Y-75703864D01*
X121753778Y-75726995D01*
X121708445Y-75745772D01*
X121661490Y-75760016D01*
X121613365Y-75769588D01*
X121564534Y-75774398D01*
X121540000Y-75774398D01*
X121540000Y-75775000D01*
X121040000Y-75775000D01*
X121040000Y-75774398D01*
X121015466Y-75774398D01*
X120966635Y-75769588D01*
X120918510Y-75760016D01*
X120871555Y-75745772D01*
X120826222Y-75726995D01*
X120782949Y-75703864D01*
X120742150Y-75676604D01*
X120704221Y-75645476D01*
X120669524Y-75610779D01*
X120638396Y-75572850D01*
X120611136Y-75532051D01*
X120588005Y-75488778D01*
X120569228Y-75443445D01*
X120554984Y-75396490D01*
X120545412Y-75348365D01*
X120540602Y-75299534D01*
X120540602Y-75275000D01*
X120540000Y-75275000D01*
X120540000Y-74725000D01*
X122040000Y-74725000D01*
X122040000Y-75275000D01*
X122039398Y-75275000D01*
G37*
G04 #@! TD.AperFunction*
D11*
X96610000Y-62315000D03*
X96610000Y-59775000D03*
X99150000Y-62315000D03*
X99150000Y-59775000D03*
X101690000Y-62315000D03*
X101690000Y-59775000D03*
X104230000Y-62315000D03*
X104230000Y-59775000D03*
X106770000Y-62315000D03*
X106770000Y-59775000D03*
X109310000Y-62315000D03*
X109310000Y-59775000D03*
X111850000Y-62315000D03*
X111850000Y-59775000D03*
X114390000Y-62315000D03*
X114390000Y-59775000D03*
X116930000Y-62315000D03*
X116930000Y-59775000D03*
X119470000Y-62315000D03*
X119470000Y-59775000D03*
X122010000Y-62315000D03*
X122010000Y-59775000D03*
X124550000Y-62315000D03*
X124550000Y-59775000D03*
X127090000Y-62315000D03*
X127090000Y-59775000D03*
X129630000Y-62315000D03*
X129630000Y-59775000D03*
X132170000Y-62315000D03*
X132170000Y-59775000D03*
X134710000Y-62315000D03*
X134710000Y-59775000D03*
X137250000Y-62315000D03*
X137250000Y-59775000D03*
X139790000Y-62315000D03*
X139790000Y-59775000D03*
X142330000Y-62315000D03*
X142330000Y-59775000D03*
X144870000Y-62315000D03*
X144870000Y-59775000D03*
X147410000Y-62315000D03*
X147410000Y-59775000D03*
X149950000Y-62315000D03*
X149950000Y-59775000D03*
X152490000Y-62315000D03*
X152490000Y-59775000D03*
X155030000Y-62315000D03*
X155030000Y-59775000D03*
X157570000Y-62315000D03*
D12*
X157570000Y-59775000D03*
D17*
X100370000Y-75355000D03*
X100370000Y-80435000D03*
X100370000Y-85515000D03*
X100370000Y-90595000D03*
D18*
X173086000Y-88301000D03*
X173086000Y-92111000D03*
X134625000Y-69612000D03*
X112126000Y-69886000D03*
X112126000Y-78141000D03*
X107046000Y-88301000D03*
X101966000Y-88301000D03*
X102601000Y-92746000D03*
X96886000Y-94016000D03*
X113396000Y-91476000D03*
X121651000Y-66711000D03*
X128492000Y-79555000D03*
X128382000Y-83729000D03*
X147796000Y-79555000D03*
X147940000Y-83729000D03*
X121290000Y-83710000D03*
X121290000Y-77150000D03*
X99770000Y-64275000D03*
X102270000Y-64275000D03*
X145770000Y-64275000D03*
X151770000Y-64275000D03*
X104770000Y-64275000D03*
X157000000Y-83710000D03*
X159540000Y-83710000D03*
X157000000Y-78630000D03*
X159540000Y-78630000D03*
X162080000Y-78630000D03*
X162080000Y-83710000D03*
X154290000Y-68470000D03*
X153020000Y-74185000D03*
X135875000Y-83710000D03*
X135875000Y-77360000D03*
X137145000Y-83710000D03*
X137145000Y-77360000D03*
X150480000Y-74185000D03*
X151750000Y-83710000D03*
X151750000Y-74185000D03*
X153020000Y-83710000D03*
X147940000Y-74185000D03*
X149210000Y-83710000D03*
X149210000Y-74185000D03*
X150480000Y-83710000D03*
X145400000Y-74185000D03*
X145400000Y-83710000D03*
X146670000Y-74185000D03*
X146670000Y-83710000D03*
X142860000Y-74185000D03*
X142860000Y-83710000D03*
X144130000Y-74185000D03*
X144130000Y-83710000D03*
X124465000Y-64680000D03*
X123810000Y-73005000D03*
X125735000Y-64680000D03*
X125080000Y-72370000D03*
X126985000Y-64660000D03*
X126199847Y-71885153D03*
X115530000Y-77130000D03*
X115530000Y-83710000D03*
X129525000Y-64660000D03*
X128694847Y-70570153D03*
X116800000Y-77130000D03*
X116770000Y-83710000D03*
X118070000Y-77130000D03*
X118070000Y-83710000D03*
X132700000Y-83710000D03*
X132065000Y-64660000D03*
X131540000Y-72280000D03*
X133970000Y-83710000D03*
X132165010Y-74185000D03*
X130160000Y-83710000D03*
X130160000Y-83710000D03*
X128355010Y-74185000D03*
X131430000Y-83710000D03*
X130795000Y-64660000D03*
X130172653Y-77982347D03*
X125715000Y-83710000D03*
X125735000Y-74205000D03*
X126985000Y-83710000D03*
X128255000Y-64660000D03*
X127729617Y-71641436D03*
X123175000Y-83710000D03*
X123175000Y-74185000D03*
X124445000Y-83710000D03*
X124445000Y-74185000D03*
X138415000Y-83710000D03*
X138415000Y-77360000D03*
X139685000Y-83710000D03*
X139685000Y-77360000D03*
X119340000Y-77130000D03*
X119340000Y-83710000D03*
D19*
X121355000Y-87864000D02*
X154375000Y-87864000D01*
X155645000Y-89764000D02*
X122625000Y-89764000D01*
X121355000Y-88494000D02*
X122625000Y-89764000D01*
X121355000Y-87864000D02*
X121355000Y-88494000D01*
X123895000Y-88494000D02*
X125165000Y-89764000D01*
X123895000Y-87864000D02*
X123895000Y-88494000D01*
X126435000Y-88494000D02*
X127705000Y-89764000D01*
X126435000Y-87864000D02*
X126435000Y-88494000D01*
X128975000Y-88494000D02*
X130245000Y-89764000D01*
X128975000Y-87864000D02*
X128975000Y-88494000D01*
X131515000Y-88494000D02*
X132785000Y-89764000D01*
X131515000Y-87864000D02*
X131515000Y-88494000D01*
X134055000Y-88494000D02*
X135325000Y-89764000D01*
X134055000Y-87864000D02*
X134055000Y-88494000D01*
X136595000Y-88494000D02*
X137865000Y-89764000D01*
X136595000Y-87864000D02*
X136595000Y-88494000D01*
X139135000Y-88494000D02*
X140405000Y-89764000D01*
X139135000Y-87864000D02*
X139135000Y-88494000D01*
X141675000Y-88494000D02*
X142945000Y-89764000D01*
X141675000Y-87864000D02*
X141675000Y-88494000D01*
X144215000Y-88494000D02*
X145485000Y-89764000D01*
X144215000Y-87864000D02*
X144215000Y-88494000D01*
X146755000Y-88494000D02*
X148025000Y-89764000D01*
X146755000Y-87864000D02*
X146755000Y-88494000D01*
X149295000Y-88494000D02*
X150565000Y-89764000D01*
X149295000Y-87864000D02*
X149295000Y-88494000D01*
X154375000Y-88494000D02*
X155645000Y-89764000D01*
X154375000Y-87864000D02*
X154375000Y-88494000D01*
X122625000Y-89134000D02*
X123895000Y-87864000D01*
X122625000Y-89764000D02*
X122625000Y-89134000D01*
X125165000Y-89134000D02*
X126435000Y-87864000D01*
X125165000Y-89764000D02*
X125165000Y-89134000D01*
X127705000Y-89134000D02*
X128975000Y-87864000D01*
X127705000Y-89764000D02*
X127705000Y-89134000D01*
X130245000Y-89134000D02*
X131515000Y-87864000D01*
X130245000Y-89764000D02*
X130245000Y-89134000D01*
X132785000Y-89134000D02*
X134055000Y-87864000D01*
X132785000Y-89764000D02*
X132785000Y-89134000D01*
X135325000Y-89134000D02*
X136595000Y-87864000D01*
X135325000Y-89764000D02*
X135325000Y-89134000D01*
X137865000Y-89134000D02*
X139135000Y-87864000D01*
X137865000Y-89764000D02*
X137865000Y-89134000D01*
X140405000Y-89134000D02*
X141675000Y-87864000D01*
X140405000Y-89764000D02*
X140405000Y-89134000D01*
X142945000Y-89134000D02*
X144215000Y-87864000D01*
X142945000Y-89764000D02*
X142945000Y-89134000D01*
X145485000Y-89134000D02*
X146755000Y-87864000D01*
X145485000Y-89764000D02*
X145485000Y-89134000D01*
X148025000Y-89134000D02*
X149295000Y-87864000D01*
X148025000Y-89764000D02*
X148025000Y-89134000D01*
X150565000Y-89134000D02*
X151835000Y-87864000D01*
X150565000Y-89764000D02*
X150565000Y-89134000D01*
X96610000Y-59775000D02*
X124550000Y-59775000D01*
X122010000Y-62315000D02*
X124550000Y-62315000D01*
X129630000Y-59775000D02*
X157570000Y-59775000D01*
X129630000Y-62315000D02*
X134710000Y-62315000D01*
D20*
X128780001Y-63164999D02*
X129630000Y-62315000D01*
X128329999Y-63615001D02*
X128780001Y-63164999D01*
X125850001Y-63615001D02*
X128329999Y-63615001D01*
X124550000Y-62315000D02*
X125850001Y-63615001D01*
D21*
X108134999Y-61139999D02*
X108134999Y-63679999D01*
X106770000Y-59775000D02*
X108134999Y-61139999D01*
X108134999Y-63679999D02*
X108675000Y-64220000D01*
D20*
X128780001Y-58925001D02*
X129630000Y-59775000D01*
X128329999Y-58474999D02*
X128780001Y-58925001D01*
X124550000Y-59775000D02*
X125850001Y-58474999D01*
X125850001Y-58474999D02*
X128329999Y-58474999D01*
D19*
X153105000Y-89134000D02*
X154375000Y-87864000D01*
X153105000Y-89764000D02*
X153105000Y-89134000D01*
X151835000Y-88494000D02*
X153105000Y-89764000D01*
X151835000Y-87864000D02*
X151835000Y-88494000D01*
D21*
X154290000Y-72915000D02*
X154290000Y-68470000D01*
X153020000Y-74185000D02*
X154290000Y-72915000D01*
X154036000Y-75201000D02*
X153020000Y-74185000D01*
X154036000Y-84491000D02*
X154036000Y-75201000D01*
X153547000Y-84980000D02*
X154036000Y-84491000D01*
X120381000Y-84491000D02*
X120870000Y-84980000D01*
X120381000Y-76871000D02*
X120381000Y-84491000D01*
X120870000Y-84980000D02*
X153547000Y-84980000D01*
X119746000Y-76236000D02*
X120381000Y-76871000D01*
X120290000Y-73975000D02*
X119746000Y-74519000D01*
X119746000Y-74519000D02*
X119746000Y-76236000D01*
X121290000Y-73975000D02*
X120290000Y-73975000D01*
X135875000Y-83710000D02*
X135875000Y-77360000D01*
X135875000Y-64025000D02*
X135875000Y-77360000D01*
X120834999Y-60950001D02*
X135570001Y-60950001D01*
X119470000Y-62315000D02*
X120834999Y-60950001D01*
X135885001Y-61265001D02*
X135885001Y-63805001D01*
X135885001Y-63805001D02*
X135895000Y-63815000D01*
X135570001Y-60950001D02*
X135885001Y-61265001D01*
X135895000Y-63815000D02*
X135875000Y-64025000D01*
X137145000Y-83710000D02*
X137145000Y-77360000D01*
X137250000Y-77255000D02*
X137145000Y-77360000D01*
X137250000Y-62315000D02*
X137250000Y-77255000D01*
D19*
X156915000Y-91664000D02*
X159455000Y-91664000D01*
X159455000Y-92294000D02*
X158185000Y-93564000D01*
X159455000Y-91664000D02*
X159455000Y-92294000D01*
X156915000Y-92294000D02*
X158185000Y-93564000D01*
X156915000Y-91664000D02*
X156915000Y-92294000D01*
X157585001Y-94163999D02*
X158185000Y-93564000D01*
X156884999Y-94864001D02*
X157585001Y-94163999D01*
X101456999Y-94864001D02*
X156884999Y-94864001D01*
X98219999Y-91627001D02*
X101456999Y-94864001D01*
X98219999Y-77505001D02*
X98219999Y-91627001D01*
X100370000Y-75355000D02*
X98219999Y-77505001D01*
X156915000Y-88494000D02*
X158185000Y-89764000D01*
X156915000Y-87864000D02*
X156915000Y-88494000D01*
X159455000Y-88494000D02*
X158185000Y-89764000D01*
X159455000Y-87864000D02*
X159455000Y-88494000D01*
X100370000Y-80435000D02*
X100850000Y-80435000D01*
X155301000Y-86250000D02*
X156915000Y-87864000D01*
X116358070Y-86250000D02*
X155301000Y-86250000D01*
X114688071Y-84580001D02*
X116358070Y-86250000D01*
X104515001Y-84580001D02*
X114688071Y-84580001D01*
X100370000Y-80435000D02*
X104515001Y-84580001D01*
X156915000Y-87864000D02*
X159455000Y-87864000D01*
X115005000Y-93564000D02*
X117545000Y-93564000D01*
X115005000Y-92934000D02*
X116275000Y-91664000D01*
X115005000Y-93564000D02*
X115005000Y-92934000D01*
X118815000Y-92294000D02*
X117545000Y-93564000D01*
X118815000Y-91664000D02*
X118815000Y-92294000D01*
X116275000Y-91664000D02*
X118815000Y-91664000D01*
X116275000Y-92294000D02*
X117545000Y-93564000D01*
X116275000Y-91664000D02*
X116275000Y-92294000D01*
X113405000Y-93564000D02*
X115005000Y-93564000D01*
X105389609Y-93564000D02*
X113405000Y-93564000D01*
X102420609Y-90595000D02*
X105389609Y-93564000D01*
X100370000Y-90595000D02*
X102420609Y-90595000D01*
X115005000Y-89764000D02*
X117545000Y-89764000D01*
X116275000Y-87864000D02*
X118815000Y-87864000D01*
X115005000Y-89134000D02*
X116275000Y-87864000D01*
X115005000Y-89764000D02*
X115005000Y-89134000D01*
X118815000Y-88494000D02*
X117545000Y-89764000D01*
X118815000Y-87864000D02*
X118815000Y-88494000D01*
X116275000Y-88494000D02*
X117545000Y-89764000D01*
X116275000Y-87864000D02*
X116275000Y-88494000D01*
X102420609Y-85515000D02*
X100370000Y-85515000D01*
X103480608Y-86574999D02*
X102420609Y-85515000D01*
X114985999Y-86574999D02*
X103480608Y-86574999D01*
X116275000Y-87864000D02*
X114985999Y-86574999D01*
D21*
X151750000Y-75455000D02*
X150480000Y-74185000D01*
X151750000Y-83710000D02*
X151750000Y-75455000D01*
X153020000Y-75455000D02*
X151750000Y-74185000D01*
X153020000Y-83710000D02*
X153020000Y-75455000D01*
X149210000Y-75455000D02*
X147940000Y-74185000D01*
X149210000Y-83710000D02*
X149210000Y-75455000D01*
X150480000Y-75455000D02*
X149210000Y-74185000D01*
X150480000Y-83710000D02*
X150480000Y-75455000D01*
X145400000Y-74185000D02*
X145400000Y-83710000D01*
X146670000Y-74185000D02*
X146670000Y-83710000D01*
X142860000Y-74185000D02*
X142860000Y-83710000D01*
X144130000Y-74185000D02*
X144130000Y-83710000D01*
X124445000Y-64700000D02*
X124465000Y-64680000D01*
X123810000Y-65335000D02*
X124465000Y-64680000D01*
X123810000Y-73005000D02*
X123810000Y-65335000D01*
X123480000Y-72675000D02*
X123810000Y-73005000D01*
X121290000Y-72675000D02*
X123480000Y-72675000D01*
X125715000Y-64700000D02*
X125735000Y-64680000D01*
X125080000Y-65335000D02*
X125735000Y-64680000D01*
X125080000Y-72370000D02*
X125080000Y-65335000D01*
X126199847Y-65445153D02*
X126985000Y-64660000D01*
X126199847Y-71885153D02*
X126199847Y-65445153D01*
X115530000Y-77130000D02*
X115530000Y-77380000D01*
X107210000Y-65295000D02*
X104230000Y-62315000D01*
X115530000Y-77130000D02*
X116349990Y-76310010D01*
X116349990Y-76310010D02*
X116349990Y-68616000D01*
X113028990Y-65295000D02*
X116349990Y-68616000D01*
X107210000Y-65295000D02*
X113028990Y-65295000D01*
X115530000Y-77130000D02*
X115530000Y-83710000D01*
X129526609Y-64661609D02*
X129525000Y-64660000D01*
X128694847Y-70570153D02*
X128694847Y-66760153D01*
X128694847Y-65490153D02*
X128694847Y-70570153D01*
X129525000Y-64660000D02*
X128694847Y-65490153D01*
X111020000Y-64025000D02*
X109310000Y-62315000D01*
X112923590Y-64025000D02*
X111020000Y-64025000D01*
X116800000Y-77130000D02*
X116800000Y-67901410D01*
X116800000Y-67901410D02*
X112923590Y-64025000D01*
X116800000Y-83680000D02*
X116770000Y-83710000D01*
X116800000Y-77130000D02*
X116800000Y-83680000D01*
X117250010Y-76310010D02*
X117670001Y-76730001D01*
X117250010Y-67715010D02*
X117250010Y-76310010D01*
X117670001Y-76730001D02*
X118070000Y-77130000D01*
X111850000Y-62315000D02*
X117250010Y-67715010D01*
X118070000Y-77695685D02*
X118070000Y-83710000D01*
X118070000Y-77130000D02*
X118070000Y-77695685D01*
X131540000Y-65185000D02*
X132065000Y-64660000D01*
X131540000Y-72280000D02*
X131540000Y-65185000D01*
X132700000Y-83710000D02*
X132700000Y-79265000D01*
X131140001Y-72679999D02*
X131540000Y-72280000D01*
X131140001Y-77705001D02*
X131140001Y-72679999D01*
X132700000Y-79265000D02*
X131140001Y-77705001D01*
X132165010Y-74185000D02*
X132165010Y-74750685D01*
X132165010Y-77352010D02*
X132165010Y-74185000D01*
X133970000Y-83710000D02*
X133970000Y-79157000D01*
X133970000Y-79157000D02*
X132165010Y-77352010D01*
X130160000Y-83710000D02*
X130160000Y-79411000D01*
X128355010Y-77606010D02*
X128355010Y-74185000D01*
X130160000Y-79411000D02*
X128355010Y-77606010D01*
X131430000Y-79239694D02*
X131430000Y-83710000D01*
X130172653Y-77982347D02*
X131430000Y-79239694D01*
X130795000Y-64660000D02*
X130160000Y-65295000D01*
X130172653Y-65307653D02*
X130172653Y-77982347D01*
X130160000Y-65295000D02*
X130172653Y-65307653D01*
X125735000Y-83690000D02*
X125715000Y-83710000D01*
X125735000Y-74205000D02*
X125735000Y-83690000D01*
X128255000Y-64660000D02*
X127729617Y-65185383D01*
X127729617Y-65185383D02*
X127729617Y-71641436D01*
X126985000Y-72386053D02*
X127729617Y-71641436D01*
X126985000Y-83710000D02*
X126985000Y-72386053D01*
X123175000Y-74185000D02*
X123175000Y-83710000D01*
X122085000Y-75275000D02*
X123175000Y-74185000D01*
X121290000Y-75275000D02*
X122085000Y-75275000D01*
X124445000Y-74185000D02*
X124445000Y-83710000D01*
X138415000Y-83710000D02*
X138415000Y-77360000D01*
X139685000Y-77360000D02*
X139685000Y-83710000D01*
X119340000Y-77130000D02*
X119340000Y-77380000D01*
X119340000Y-77130000D02*
X119340000Y-83710000D01*
D22*
G36*
X103076525Y-63261632D02*
G01*
X103283368Y-63468475D01*
X103526589Y-63630990D01*
X103796842Y-63742932D01*
X104083740Y-63800000D01*
X104376260Y-63800000D01*
X104596408Y-63756210D01*
X106646205Y-65806008D01*
X106669999Y-65835001D01*
X106698992Y-65858795D01*
X106698996Y-65858799D01*
X106747737Y-65898799D01*
X106785724Y-65929974D01*
X106917753Y-66000546D01*
X107061014Y-66044003D01*
X107172667Y-66055000D01*
X107172676Y-66055000D01*
X107209999Y-66058676D01*
X107247322Y-66055000D01*
X112714189Y-66055000D01*
X115589991Y-68930803D01*
X115589990Y-75995208D01*
X115490198Y-76095000D01*
X115428061Y-76095000D01*
X115228102Y-76134774D01*
X115039744Y-76212795D01*
X114870226Y-76326063D01*
X114726063Y-76470226D01*
X114612795Y-76639744D01*
X114534774Y-76828102D01*
X114495000Y-77028061D01*
X114495000Y-77231939D01*
X114534774Y-77431898D01*
X114612795Y-77620256D01*
X114726063Y-77789774D01*
X114770000Y-77833711D01*
X114770001Y-83006288D01*
X114726063Y-83050226D01*
X114612795Y-83219744D01*
X114534774Y-83408102D01*
X114527434Y-83445001D01*
X104985134Y-83445001D01*
X102409455Y-80869323D01*
X102455000Y-80640355D01*
X102455000Y-80229645D01*
X102374874Y-79826828D01*
X102217703Y-79447382D01*
X101989525Y-79105890D01*
X101699110Y-78815475D01*
X101357618Y-78587297D01*
X100978172Y-78430126D01*
X100575355Y-78350000D01*
X100164645Y-78350000D01*
X99761828Y-78430126D01*
X99382382Y-78587297D01*
X99354999Y-78605594D01*
X99354999Y-77975132D01*
X99935677Y-77394455D01*
X100164645Y-77440000D01*
X100575355Y-77440000D01*
X100978172Y-77359874D01*
X101357618Y-77202703D01*
X101699110Y-76974525D01*
X101989525Y-76684110D01*
X102217703Y-76342618D01*
X102374874Y-75963172D01*
X102455000Y-75560355D01*
X102455000Y-75149645D01*
X102374874Y-74746828D01*
X102217703Y-74367382D01*
X101989525Y-74025890D01*
X101699110Y-73735475D01*
X101357618Y-73507297D01*
X100978172Y-73350126D01*
X100575355Y-73270000D01*
X100164645Y-73270000D01*
X99761828Y-73350126D01*
X99382382Y-73507297D01*
X99040890Y-73735475D01*
X98750475Y-74025890D01*
X98522297Y-74367382D01*
X98365126Y-74746828D01*
X98285000Y-75149645D01*
X98285000Y-75560355D01*
X98330545Y-75789323D01*
X97456863Y-76663005D01*
X97413550Y-76698552D01*
X97271715Y-76871378D01*
X97180404Y-77042211D01*
X97166323Y-77068555D01*
X97101422Y-77282503D01*
X97079508Y-77505001D01*
X97084999Y-77560752D01*
X97085000Y-91571240D01*
X97079508Y-91627001D01*
X97101422Y-91849499D01*
X97166323Y-92063447D01*
X97215383Y-92155231D01*
X97271716Y-92260624D01*
X97413551Y-92433450D01*
X97456859Y-92468992D01*
X100102866Y-95115000D01*
X95802279Y-95115000D01*
X95704576Y-95105420D01*
X95641643Y-95086420D01*
X95583594Y-95055554D01*
X95532657Y-95014011D01*
X95490752Y-94963356D01*
X95459485Y-94905529D01*
X95440044Y-94842728D01*
X95430000Y-94747165D01*
X95430000Y-63221935D01*
X95456525Y-63261632D01*
X95663368Y-63468475D01*
X95906589Y-63630990D01*
X96176842Y-63742932D01*
X96463740Y-63800000D01*
X96756260Y-63800000D01*
X97043158Y-63742932D01*
X97313411Y-63630990D01*
X97556632Y-63468475D01*
X97763475Y-63261632D01*
X97880000Y-63087240D01*
X97996525Y-63261632D01*
X98203368Y-63468475D01*
X98446589Y-63630990D01*
X98716842Y-63742932D01*
X99003740Y-63800000D01*
X99296260Y-63800000D01*
X99583158Y-63742932D01*
X99853411Y-63630990D01*
X100096632Y-63468475D01*
X100303475Y-63261632D01*
X100420000Y-63087240D01*
X100536525Y-63261632D01*
X100743368Y-63468475D01*
X100986589Y-63630990D01*
X101256842Y-63742932D01*
X101543740Y-63800000D01*
X101836260Y-63800000D01*
X102123158Y-63742932D01*
X102393411Y-63630990D01*
X102636632Y-63468475D01*
X102843475Y-63261632D01*
X102960000Y-63087240D01*
X103076525Y-63261632D01*
G37*
X103076525Y-63261632D02*
X103283368Y-63468475D01*
X103526589Y-63630990D01*
X103796842Y-63742932D01*
X104083740Y-63800000D01*
X104376260Y-63800000D01*
X104596408Y-63756210D01*
X106646205Y-65806008D01*
X106669999Y-65835001D01*
X106698992Y-65858795D01*
X106698996Y-65858799D01*
X106747737Y-65898799D01*
X106785724Y-65929974D01*
X106917753Y-66000546D01*
X107061014Y-66044003D01*
X107172667Y-66055000D01*
X107172676Y-66055000D01*
X107209999Y-66058676D01*
X107247322Y-66055000D01*
X112714189Y-66055000D01*
X115589991Y-68930803D01*
X115589990Y-75995208D01*
X115490198Y-76095000D01*
X115428061Y-76095000D01*
X115228102Y-76134774D01*
X115039744Y-76212795D01*
X114870226Y-76326063D01*
X114726063Y-76470226D01*
X114612795Y-76639744D01*
X114534774Y-76828102D01*
X114495000Y-77028061D01*
X114495000Y-77231939D01*
X114534774Y-77431898D01*
X114612795Y-77620256D01*
X114726063Y-77789774D01*
X114770000Y-77833711D01*
X114770001Y-83006288D01*
X114726063Y-83050226D01*
X114612795Y-83219744D01*
X114534774Y-83408102D01*
X114527434Y-83445001D01*
X104985134Y-83445001D01*
X102409455Y-80869323D01*
X102455000Y-80640355D01*
X102455000Y-80229645D01*
X102374874Y-79826828D01*
X102217703Y-79447382D01*
X101989525Y-79105890D01*
X101699110Y-78815475D01*
X101357618Y-78587297D01*
X100978172Y-78430126D01*
X100575355Y-78350000D01*
X100164645Y-78350000D01*
X99761828Y-78430126D01*
X99382382Y-78587297D01*
X99354999Y-78605594D01*
X99354999Y-77975132D01*
X99935677Y-77394455D01*
X100164645Y-77440000D01*
X100575355Y-77440000D01*
X100978172Y-77359874D01*
X101357618Y-77202703D01*
X101699110Y-76974525D01*
X101989525Y-76684110D01*
X102217703Y-76342618D01*
X102374874Y-75963172D01*
X102455000Y-75560355D01*
X102455000Y-75149645D01*
X102374874Y-74746828D01*
X102217703Y-74367382D01*
X101989525Y-74025890D01*
X101699110Y-73735475D01*
X101357618Y-73507297D01*
X100978172Y-73350126D01*
X100575355Y-73270000D01*
X100164645Y-73270000D01*
X99761828Y-73350126D01*
X99382382Y-73507297D01*
X99040890Y-73735475D01*
X98750475Y-74025890D01*
X98522297Y-74367382D01*
X98365126Y-74746828D01*
X98285000Y-75149645D01*
X98285000Y-75560355D01*
X98330545Y-75789323D01*
X97456863Y-76663005D01*
X97413550Y-76698552D01*
X97271715Y-76871378D01*
X97180404Y-77042211D01*
X97166323Y-77068555D01*
X97101422Y-77282503D01*
X97079508Y-77505001D01*
X97084999Y-77560752D01*
X97085000Y-91571240D01*
X97079508Y-91627001D01*
X97101422Y-91849499D01*
X97166323Y-92063447D01*
X97215383Y-92155231D01*
X97271716Y-92260624D01*
X97413551Y-92433450D01*
X97456859Y-92468992D01*
X100102866Y-95115000D01*
X95802279Y-95115000D01*
X95704576Y-95105420D01*
X95641643Y-95086420D01*
X95583594Y-95055554D01*
X95532657Y-95014011D01*
X95490752Y-94963356D01*
X95459485Y-94905529D01*
X95440044Y-94842728D01*
X95430000Y-94747165D01*
X95430000Y-63221935D01*
X95456525Y-63261632D01*
X95663368Y-63468475D01*
X95906589Y-63630990D01*
X96176842Y-63742932D01*
X96463740Y-63800000D01*
X96756260Y-63800000D01*
X97043158Y-63742932D01*
X97313411Y-63630990D01*
X97556632Y-63468475D01*
X97763475Y-63261632D01*
X97880000Y-63087240D01*
X97996525Y-63261632D01*
X98203368Y-63468475D01*
X98446589Y-63630990D01*
X98716842Y-63742932D01*
X99003740Y-63800000D01*
X99296260Y-63800000D01*
X99583158Y-63742932D01*
X99853411Y-63630990D01*
X100096632Y-63468475D01*
X100303475Y-63261632D01*
X100420000Y-63087240D01*
X100536525Y-63261632D01*
X100743368Y-63468475D01*
X100986589Y-63630990D01*
X101256842Y-63742932D01*
X101543740Y-63800000D01*
X101836260Y-63800000D01*
X102123158Y-63742932D01*
X102393411Y-63630990D01*
X102636632Y-63468475D01*
X102843475Y-63261632D01*
X102960000Y-63087240D01*
X103076525Y-63261632D01*
G36*
X159335424Y-58444580D02*
G01*
X159398356Y-58463580D01*
X159456405Y-58494445D01*
X159507343Y-58535989D01*
X159549248Y-58586644D01*
X159580515Y-58644471D01*
X159599956Y-58707272D01*
X159610000Y-58802835D01*
X159610001Y-69807419D01*
X159612783Y-69835664D01*
X159612740Y-69841801D01*
X159613640Y-69850972D01*
X159634041Y-70045069D01*
X159646068Y-70103658D01*
X159657277Y-70162423D01*
X159659941Y-70171245D01*
X159717653Y-70357683D01*
X159740838Y-70412838D01*
X159763242Y-70468291D01*
X159767568Y-70476427D01*
X159860393Y-70648104D01*
X159893846Y-70697699D01*
X159926600Y-70747753D01*
X159932424Y-70754894D01*
X160056828Y-70905272D01*
X160099263Y-70947411D01*
X160141126Y-70990161D01*
X160148227Y-70996034D01*
X160299469Y-71119384D01*
X160349277Y-71152477D01*
X160398651Y-71186284D01*
X160406757Y-71190667D01*
X160579080Y-71282292D01*
X160634392Y-71305090D01*
X160689366Y-71328652D01*
X160698169Y-71331377D01*
X160885006Y-71387786D01*
X160943686Y-71399405D01*
X161002196Y-71411842D01*
X161011361Y-71412805D01*
X161205594Y-71431850D01*
X161205598Y-71431850D01*
X161237581Y-71435000D01*
X183737721Y-71435000D01*
X183835424Y-71444580D01*
X183898356Y-71463580D01*
X183956405Y-71494445D01*
X184007343Y-71535989D01*
X184049248Y-71586644D01*
X184080515Y-71644471D01*
X184099956Y-71707272D01*
X184110001Y-71802845D01*
X184110000Y-94742721D01*
X184100420Y-94840424D01*
X184081420Y-94903357D01*
X184050554Y-94961406D01*
X184009011Y-95012343D01*
X183958356Y-95054248D01*
X183900529Y-95085515D01*
X183837728Y-95104956D01*
X183742165Y-95115000D01*
X158239131Y-95115000D01*
X158426989Y-94927142D01*
X158643148Y-94710984D01*
X158769992Y-94658443D01*
X158972267Y-94523287D01*
X159144287Y-94351267D01*
X159279443Y-94148992D01*
X159331984Y-94022148D01*
X159519614Y-93834517D01*
X159537460Y-93924236D01*
X159630557Y-94148992D01*
X159765713Y-94351267D01*
X159937733Y-94523287D01*
X160140008Y-94658443D01*
X160364764Y-94751540D01*
X160603363Y-94799000D01*
X160846637Y-94799000D01*
X161085236Y-94751540D01*
X161309992Y-94658443D01*
X161512267Y-94523287D01*
X161684287Y-94351267D01*
X161819443Y-94148992D01*
X161912540Y-93924236D01*
X161960000Y-93685637D01*
X161960000Y-93442363D01*
X161912540Y-93203764D01*
X161819443Y-92979008D01*
X161749524Y-92874367D01*
X161873363Y-92899000D01*
X162116637Y-92899000D01*
X162240476Y-92874367D01*
X162170557Y-92979008D01*
X162077460Y-93203764D01*
X162030000Y-93442363D01*
X162030000Y-93685637D01*
X162077460Y-93924236D01*
X162170557Y-94148992D01*
X162305713Y-94351267D01*
X162477733Y-94523287D01*
X162680008Y-94658443D01*
X162904764Y-94751540D01*
X163143363Y-94799000D01*
X163386637Y-94799000D01*
X163625236Y-94751540D01*
X163849992Y-94658443D01*
X164052267Y-94523287D01*
X164224287Y-94351267D01*
X164359443Y-94148992D01*
X164452540Y-93924236D01*
X164500000Y-93685637D01*
X164500000Y-93442363D01*
X164452540Y-93203764D01*
X164359443Y-92979008D01*
X164289524Y-92874367D01*
X164413363Y-92899000D01*
X164656637Y-92899000D01*
X164895236Y-92851540D01*
X165119992Y-92758443D01*
X165322267Y-92623287D01*
X165494287Y-92451267D01*
X165629443Y-92248992D01*
X165722540Y-92024236D01*
X165770000Y-91785637D01*
X165770000Y-91542363D01*
X165722540Y-91303764D01*
X165629443Y-91079008D01*
X165494287Y-90876733D01*
X165322267Y-90704713D01*
X165127495Y-90574570D01*
X167490000Y-90574570D01*
X167490000Y-90975430D01*
X167568204Y-91368587D01*
X167721607Y-91738934D01*
X167944313Y-92072237D01*
X168227763Y-92355687D01*
X168561066Y-92578393D01*
X168931413Y-92731796D01*
X169324570Y-92810000D01*
X169725430Y-92810000D01*
X170118587Y-92731796D01*
X170488934Y-92578393D01*
X170822237Y-92355687D01*
X171105687Y-92072237D01*
X171328393Y-91738934D01*
X171481796Y-91368587D01*
X171560000Y-90975430D01*
X171560000Y-90574570D01*
X171481796Y-90181413D01*
X171328393Y-89811066D01*
X171105687Y-89477763D01*
X170822237Y-89194313D01*
X170488934Y-88971607D01*
X170118587Y-88818204D01*
X169725430Y-88740000D01*
X169324570Y-88740000D01*
X168931413Y-88818204D01*
X168561066Y-88971607D01*
X168227763Y-89194313D01*
X167944313Y-89477763D01*
X167721607Y-89811066D01*
X167568204Y-90181413D01*
X167490000Y-90574570D01*
X165127495Y-90574570D01*
X165119992Y-90569557D01*
X164895236Y-90476460D01*
X164656637Y-90429000D01*
X164413363Y-90429000D01*
X164289524Y-90453633D01*
X164359443Y-90348992D01*
X164452540Y-90124236D01*
X164500000Y-89885637D01*
X164500000Y-89642363D01*
X164452540Y-89403764D01*
X164359443Y-89179008D01*
X164289524Y-89074367D01*
X164413363Y-89099000D01*
X164656637Y-89099000D01*
X164895236Y-89051540D01*
X165119992Y-88958443D01*
X165322267Y-88823287D01*
X165494287Y-88651267D01*
X165629443Y-88448992D01*
X165722540Y-88224236D01*
X165770000Y-87985637D01*
X165770000Y-87742363D01*
X165722540Y-87503764D01*
X165629443Y-87279008D01*
X165494287Y-87076733D01*
X165322267Y-86904713D01*
X165119992Y-86769557D01*
X164895236Y-86676460D01*
X164656637Y-86629000D01*
X164413363Y-86629000D01*
X164174764Y-86676460D01*
X163950008Y-86769557D01*
X163747733Y-86904713D01*
X163575713Y-87076733D01*
X163440557Y-87279008D01*
X163347460Y-87503764D01*
X163300000Y-87742363D01*
X163300000Y-87985637D01*
X163347460Y-88224236D01*
X163440557Y-88448992D01*
X163510476Y-88553633D01*
X163386637Y-88529000D01*
X163143363Y-88529000D01*
X163019524Y-88553633D01*
X163089443Y-88448992D01*
X163182540Y-88224236D01*
X163230000Y-87985637D01*
X163230000Y-87742363D01*
X163182540Y-87503764D01*
X163089443Y-87279008D01*
X162954287Y-87076733D01*
X162782267Y-86904713D01*
X162579992Y-86769557D01*
X162355236Y-86676460D01*
X162116637Y-86629000D01*
X161873363Y-86629000D01*
X161634764Y-86676460D01*
X161410008Y-86769557D01*
X161207733Y-86904713D01*
X161035713Y-87076733D01*
X160900557Y-87279008D01*
X160807460Y-87503764D01*
X160760000Y-87742363D01*
X160760000Y-87985637D01*
X160807460Y-88224236D01*
X160900557Y-88448992D01*
X160970476Y-88553633D01*
X160846637Y-88529000D01*
X160603363Y-88529000D01*
X160591817Y-88531297D01*
X160595490Y-88494001D01*
X160590000Y-88438257D01*
X160590000Y-88351079D01*
X160642540Y-88224236D01*
X160690000Y-87985637D01*
X160690000Y-87742363D01*
X160642540Y-87503764D01*
X160549443Y-87279008D01*
X160414287Y-87076733D01*
X160242267Y-86904713D01*
X160039992Y-86769557D01*
X159815236Y-86676460D01*
X159576637Y-86629000D01*
X159333363Y-86629000D01*
X159094764Y-86676460D01*
X158967921Y-86729000D01*
X157402079Y-86729000D01*
X157373150Y-86717017D01*
X156142995Y-85486864D01*
X156107449Y-85443551D01*
X155934623Y-85301716D01*
X155737447Y-85196324D01*
X155523499Y-85131423D01*
X155356752Y-85115000D01*
X155356751Y-85115000D01*
X155301000Y-85109509D01*
X155245249Y-85115000D01*
X154486802Y-85115000D01*
X154547003Y-85054798D01*
X154576001Y-85031001D01*
X154670974Y-84915276D01*
X154741546Y-84783247D01*
X154785003Y-84639986D01*
X154796000Y-84528333D01*
X154796000Y-84528324D01*
X154799676Y-84491001D01*
X154796000Y-84453677D01*
X154796000Y-75238322D01*
X154799676Y-75201000D01*
X154796000Y-75163677D01*
X154796000Y-75163667D01*
X154785003Y-75052014D01*
X154741546Y-74908753D01*
X154670974Y-74776723D01*
X154599799Y-74689997D01*
X154576001Y-74660999D01*
X154547003Y-74637201D01*
X154094801Y-74185000D01*
X154798801Y-73481000D01*
X176677928Y-73481000D01*
X176677928Y-75181000D01*
X176690188Y-75305482D01*
X176726498Y-75425180D01*
X176785463Y-75535494D01*
X176864815Y-75632185D01*
X176961506Y-75711537D01*
X177071820Y-75770502D01*
X177144380Y-75792513D01*
X177012525Y-75924368D01*
X176850010Y-76167589D01*
X176738068Y-76437842D01*
X176681000Y-76724740D01*
X176681000Y-77017260D01*
X176738068Y-77304158D01*
X176850010Y-77574411D01*
X177012525Y-77817632D01*
X177219368Y-78024475D01*
X177393760Y-78141000D01*
X177219368Y-78257525D01*
X177012525Y-78464368D01*
X176850010Y-78707589D01*
X176738068Y-78977842D01*
X176681000Y-79264740D01*
X176681000Y-79557260D01*
X176738068Y-79844158D01*
X176850010Y-80114411D01*
X177012525Y-80357632D01*
X177219368Y-80564475D01*
X177393760Y-80681000D01*
X177219368Y-80797525D01*
X177012525Y-81004368D01*
X176850010Y-81247589D01*
X176738068Y-81517842D01*
X176681000Y-81804740D01*
X176681000Y-82097260D01*
X176738068Y-82384158D01*
X176850010Y-82654411D01*
X177012525Y-82897632D01*
X177219368Y-83104475D01*
X177393760Y-83221000D01*
X177219368Y-83337525D01*
X177012525Y-83544368D01*
X176850010Y-83787589D01*
X176738068Y-84057842D01*
X176681000Y-84344740D01*
X176681000Y-84637260D01*
X176738068Y-84924158D01*
X176850010Y-85194411D01*
X177012525Y-85437632D01*
X177219368Y-85644475D01*
X177393760Y-85761000D01*
X177219368Y-85877525D01*
X177012525Y-86084368D01*
X176850010Y-86327589D01*
X176738068Y-86597842D01*
X176681000Y-86884740D01*
X176681000Y-87177260D01*
X176738068Y-87464158D01*
X176850010Y-87734411D01*
X177012525Y-87977632D01*
X177219368Y-88184475D01*
X177393760Y-88301000D01*
X177219368Y-88417525D01*
X177012525Y-88624368D01*
X176850010Y-88867589D01*
X176738068Y-89137842D01*
X176681000Y-89424740D01*
X176681000Y-89717260D01*
X176738068Y-90004158D01*
X176850010Y-90274411D01*
X177012525Y-90517632D01*
X177219368Y-90724475D01*
X177393760Y-90841000D01*
X177219368Y-90957525D01*
X177012525Y-91164368D01*
X176850010Y-91407589D01*
X176738068Y-91677842D01*
X176681000Y-91964740D01*
X176681000Y-92257260D01*
X176738068Y-92544158D01*
X176850010Y-92814411D01*
X177012525Y-93057632D01*
X177219368Y-93264475D01*
X177462589Y-93426990D01*
X177732842Y-93538932D01*
X178019740Y-93596000D01*
X178312260Y-93596000D01*
X178599158Y-93538932D01*
X178869411Y-93426990D01*
X179112632Y-93264475D01*
X179319475Y-93057632D01*
X179437100Y-92881594D01*
X179608412Y-93111269D01*
X179824645Y-93306178D01*
X180074748Y-93455157D01*
X180349109Y-93552481D01*
X180579000Y-93431814D01*
X180579000Y-92238000D01*
X180833000Y-92238000D01*
X180833000Y-93431814D01*
X181062891Y-93552481D01*
X181337252Y-93455157D01*
X181587355Y-93306178D01*
X181803588Y-93111269D01*
X181977641Y-92877920D01*
X182102825Y-92615099D01*
X182147476Y-92467890D01*
X182026155Y-92238000D01*
X180833000Y-92238000D01*
X180579000Y-92238000D01*
X180559000Y-92238000D01*
X180559000Y-91984000D01*
X180579000Y-91984000D01*
X180579000Y-89698000D01*
X180833000Y-89698000D01*
X180833000Y-91984000D01*
X182026155Y-91984000D01*
X182147476Y-91754110D01*
X182102825Y-91606901D01*
X181977641Y-91344080D01*
X181803588Y-91110731D01*
X181587355Y-90915822D01*
X181461745Y-90841000D01*
X181587355Y-90766178D01*
X181803588Y-90571269D01*
X181977641Y-90337920D01*
X182102825Y-90075099D01*
X182147476Y-89927890D01*
X182026155Y-89698000D01*
X180833000Y-89698000D01*
X180579000Y-89698000D01*
X180559000Y-89698000D01*
X180559000Y-89444000D01*
X180579000Y-89444000D01*
X180579000Y-87158000D01*
X180833000Y-87158000D01*
X180833000Y-89444000D01*
X182026155Y-89444000D01*
X182147476Y-89214110D01*
X182102825Y-89066901D01*
X181977641Y-88804080D01*
X181803588Y-88570731D01*
X181587355Y-88375822D01*
X181461745Y-88301000D01*
X181587355Y-88226178D01*
X181803588Y-88031269D01*
X181977641Y-87797920D01*
X182102825Y-87535099D01*
X182147476Y-87387890D01*
X182026155Y-87158000D01*
X180833000Y-87158000D01*
X180579000Y-87158000D01*
X180559000Y-87158000D01*
X180559000Y-86904000D01*
X180579000Y-86904000D01*
X180579000Y-84618000D01*
X180833000Y-84618000D01*
X180833000Y-86904000D01*
X182026155Y-86904000D01*
X182147476Y-86674110D01*
X182102825Y-86526901D01*
X181977641Y-86264080D01*
X181803588Y-86030731D01*
X181587355Y-85835822D01*
X181461745Y-85761000D01*
X181587355Y-85686178D01*
X181803588Y-85491269D01*
X181977641Y-85257920D01*
X182102825Y-84995099D01*
X182147476Y-84847890D01*
X182026155Y-84618000D01*
X180833000Y-84618000D01*
X180579000Y-84618000D01*
X180559000Y-84618000D01*
X180559000Y-84364000D01*
X180579000Y-84364000D01*
X180579000Y-82078000D01*
X180833000Y-82078000D01*
X180833000Y-84364000D01*
X182026155Y-84364000D01*
X182147476Y-84134110D01*
X182102825Y-83986901D01*
X181977641Y-83724080D01*
X181803588Y-83490731D01*
X181587355Y-83295822D01*
X181461745Y-83221000D01*
X181587355Y-83146178D01*
X181803588Y-82951269D01*
X181977641Y-82717920D01*
X182102825Y-82455099D01*
X182147476Y-82307890D01*
X182026155Y-82078000D01*
X180833000Y-82078000D01*
X180579000Y-82078000D01*
X180559000Y-82078000D01*
X180559000Y-81824000D01*
X180579000Y-81824000D01*
X180579000Y-79538000D01*
X180833000Y-79538000D01*
X180833000Y-81824000D01*
X182026155Y-81824000D01*
X182147476Y-81594110D01*
X182102825Y-81446901D01*
X181977641Y-81184080D01*
X181803588Y-80950731D01*
X181587355Y-80755822D01*
X181461745Y-80681000D01*
X181587355Y-80606178D01*
X181803588Y-80411269D01*
X181977641Y-80177920D01*
X182102825Y-79915099D01*
X182147476Y-79767890D01*
X182026155Y-79538000D01*
X180833000Y-79538000D01*
X180579000Y-79538000D01*
X180559000Y-79538000D01*
X180559000Y-79284000D01*
X180579000Y-79284000D01*
X180579000Y-79264000D01*
X180833000Y-79264000D01*
X180833000Y-79284000D01*
X182026155Y-79284000D01*
X182147476Y-79054110D01*
X182102825Y-78906901D01*
X181977641Y-78644080D01*
X181803588Y-78410731D01*
X181587355Y-78215822D01*
X181470466Y-78146195D01*
X181652632Y-78024475D01*
X181859475Y-77817632D01*
X182021990Y-77574411D01*
X182133932Y-77304158D01*
X182191000Y-77017260D01*
X182191000Y-76724740D01*
X182133932Y-76437842D01*
X182021990Y-76167589D01*
X181859475Y-75924368D01*
X181652632Y-75717525D01*
X181478240Y-75601000D01*
X181652632Y-75484475D01*
X181859475Y-75277632D01*
X182021990Y-75034411D01*
X182133932Y-74764158D01*
X182191000Y-74477260D01*
X182191000Y-74184740D01*
X182133932Y-73897842D01*
X182021990Y-73627589D01*
X181859475Y-73384368D01*
X181652632Y-73177525D01*
X181409411Y-73015010D01*
X181139158Y-72903068D01*
X180852260Y-72846000D01*
X180559740Y-72846000D01*
X180272842Y-72903068D01*
X180002589Y-73015010D01*
X179759368Y-73177525D01*
X179627513Y-73309380D01*
X179605502Y-73236820D01*
X179546537Y-73126506D01*
X179467185Y-73029815D01*
X179370494Y-72950463D01*
X179260180Y-72891498D01*
X179140482Y-72855188D01*
X179016000Y-72842928D01*
X177316000Y-72842928D01*
X177191518Y-72855188D01*
X177071820Y-72891498D01*
X176961506Y-72950463D01*
X176864815Y-73029815D01*
X176785463Y-73126506D01*
X176726498Y-73236820D01*
X176690188Y-73356518D01*
X176677928Y-73481000D01*
X154798801Y-73481000D01*
X154801004Y-73478798D01*
X154830001Y-73455001D01*
X154924974Y-73339276D01*
X154995546Y-73207247D01*
X155039003Y-73063986D01*
X155050000Y-72952333D01*
X155050000Y-72952324D01*
X155053676Y-72915001D01*
X155050000Y-72877678D01*
X155050000Y-69173711D01*
X155093937Y-69129774D01*
X155207205Y-68960256D01*
X155285226Y-68771898D01*
X155325000Y-68571939D01*
X155325000Y-68368061D01*
X155285226Y-68168102D01*
X155207205Y-67979744D01*
X155093937Y-67810226D01*
X154949774Y-67666063D01*
X154780256Y-67552795D01*
X154591898Y-67474774D01*
X154391939Y-67435000D01*
X154188061Y-67435000D01*
X153988102Y-67474774D01*
X153799744Y-67552795D01*
X153630226Y-67666063D01*
X153486063Y-67810226D01*
X153372795Y-67979744D01*
X153294774Y-68168102D01*
X153255000Y-68368061D01*
X153255000Y-68571939D01*
X153294774Y-68771898D01*
X153372795Y-68960256D01*
X153486063Y-69129774D01*
X153530001Y-69173712D01*
X153530000Y-72600198D01*
X152980199Y-73150000D01*
X152918061Y-73150000D01*
X152718102Y-73189774D01*
X152529744Y-73267795D01*
X152385000Y-73364510D01*
X152240256Y-73267795D01*
X152051898Y-73189774D01*
X151851939Y-73150000D01*
X151648061Y-73150000D01*
X151448102Y-73189774D01*
X151259744Y-73267795D01*
X151115000Y-73364510D01*
X150970256Y-73267795D01*
X150781898Y-73189774D01*
X150581939Y-73150000D01*
X150378061Y-73150000D01*
X150178102Y-73189774D01*
X149989744Y-73267795D01*
X149845000Y-73364510D01*
X149700256Y-73267795D01*
X149511898Y-73189774D01*
X149311939Y-73150000D01*
X149108061Y-73150000D01*
X148908102Y-73189774D01*
X148719744Y-73267795D01*
X148575000Y-73364510D01*
X148430256Y-73267795D01*
X148241898Y-73189774D01*
X148041939Y-73150000D01*
X147838061Y-73150000D01*
X147638102Y-73189774D01*
X147449744Y-73267795D01*
X147305000Y-73364510D01*
X147160256Y-73267795D01*
X146971898Y-73189774D01*
X146771939Y-73150000D01*
X146568061Y-73150000D01*
X146368102Y-73189774D01*
X146179744Y-73267795D01*
X146035000Y-73364510D01*
X145890256Y-73267795D01*
X145701898Y-73189774D01*
X145501939Y-73150000D01*
X145298061Y-73150000D01*
X145098102Y-73189774D01*
X144909744Y-73267795D01*
X144765000Y-73364510D01*
X144620256Y-73267795D01*
X144431898Y-73189774D01*
X144231939Y-73150000D01*
X144028061Y-73150000D01*
X143828102Y-73189774D01*
X143639744Y-73267795D01*
X143495000Y-73364510D01*
X143350256Y-73267795D01*
X143161898Y-73189774D01*
X142961939Y-73150000D01*
X142758061Y-73150000D01*
X142558102Y-73189774D01*
X142369744Y-73267795D01*
X142200226Y-73381063D01*
X142056063Y-73525226D01*
X141942795Y-73694744D01*
X141864774Y-73883102D01*
X141825000Y-74083061D01*
X141825000Y-74286939D01*
X141864774Y-74486898D01*
X141942795Y-74675256D01*
X142056063Y-74844774D01*
X142100000Y-74888711D01*
X142100001Y-83006288D01*
X142056063Y-83050226D01*
X141942795Y-83219744D01*
X141864774Y-83408102D01*
X141825000Y-83608061D01*
X141825000Y-83811939D01*
X141864774Y-84011898D01*
X141942795Y-84200256D01*
X141955987Y-84220000D01*
X140589013Y-84220000D01*
X140602205Y-84200256D01*
X140680226Y-84011898D01*
X140720000Y-83811939D01*
X140720000Y-83608061D01*
X140680226Y-83408102D01*
X140602205Y-83219744D01*
X140488937Y-83050226D01*
X140445000Y-83006289D01*
X140445000Y-78063711D01*
X140488937Y-78019774D01*
X140602205Y-77850256D01*
X140680226Y-77661898D01*
X140720000Y-77461939D01*
X140720000Y-77258061D01*
X140680226Y-77058102D01*
X140602205Y-76869744D01*
X140488937Y-76700226D01*
X140344774Y-76556063D01*
X140175256Y-76442795D01*
X139986898Y-76364774D01*
X139786939Y-76325000D01*
X139583061Y-76325000D01*
X139383102Y-76364774D01*
X139194744Y-76442795D01*
X139050000Y-76539510D01*
X138905256Y-76442795D01*
X138716898Y-76364774D01*
X138516939Y-76325000D01*
X138313061Y-76325000D01*
X138113102Y-76364774D01*
X138010000Y-76407481D01*
X138010000Y-63593178D01*
X138196632Y-63468475D01*
X138403475Y-63261632D01*
X138520000Y-63087240D01*
X138636525Y-63261632D01*
X138843368Y-63468475D01*
X139086589Y-63630990D01*
X139356842Y-63742932D01*
X139643740Y-63800000D01*
X139936260Y-63800000D01*
X140223158Y-63742932D01*
X140493411Y-63630990D01*
X140736632Y-63468475D01*
X140943475Y-63261632D01*
X141060000Y-63087240D01*
X141176525Y-63261632D01*
X141383368Y-63468475D01*
X141626589Y-63630990D01*
X141896842Y-63742932D01*
X142183740Y-63800000D01*
X142476260Y-63800000D01*
X142763158Y-63742932D01*
X143033411Y-63630990D01*
X143276632Y-63468475D01*
X143483475Y-63261632D01*
X143600000Y-63087240D01*
X143716525Y-63261632D01*
X143923368Y-63468475D01*
X144166589Y-63630990D01*
X144436842Y-63742932D01*
X144723740Y-63800000D01*
X145016260Y-63800000D01*
X145303158Y-63742932D01*
X145573411Y-63630990D01*
X145816632Y-63468475D01*
X146023475Y-63261632D01*
X146140000Y-63087240D01*
X146256525Y-63261632D01*
X146463368Y-63468475D01*
X146706589Y-63630990D01*
X146976842Y-63742932D01*
X147263740Y-63800000D01*
X147556260Y-63800000D01*
X147843158Y-63742932D01*
X148113411Y-63630990D01*
X148356632Y-63468475D01*
X148563475Y-63261632D01*
X148680000Y-63087240D01*
X148796525Y-63261632D01*
X149003368Y-63468475D01*
X149246589Y-63630990D01*
X149516842Y-63742932D01*
X149803740Y-63800000D01*
X150096260Y-63800000D01*
X150383158Y-63742932D01*
X150653411Y-63630990D01*
X150896632Y-63468475D01*
X151103475Y-63261632D01*
X151220000Y-63087240D01*
X151336525Y-63261632D01*
X151543368Y-63468475D01*
X151786589Y-63630990D01*
X152056842Y-63742932D01*
X152343740Y-63800000D01*
X152636260Y-63800000D01*
X152923158Y-63742932D01*
X153193411Y-63630990D01*
X153436632Y-63468475D01*
X153643475Y-63261632D01*
X153760000Y-63087240D01*
X153876525Y-63261632D01*
X154083368Y-63468475D01*
X154326589Y-63630990D01*
X154596842Y-63742932D01*
X154883740Y-63800000D01*
X155176260Y-63800000D01*
X155463158Y-63742932D01*
X155733411Y-63630990D01*
X155976632Y-63468475D01*
X156183475Y-63261632D01*
X156300000Y-63087240D01*
X156416525Y-63261632D01*
X156623368Y-63468475D01*
X156866589Y-63630990D01*
X157136842Y-63742932D01*
X157423740Y-63800000D01*
X157716260Y-63800000D01*
X158003158Y-63742932D01*
X158273411Y-63630990D01*
X158516632Y-63468475D01*
X158723475Y-63261632D01*
X158885990Y-63018411D01*
X158997932Y-62748158D01*
X159055000Y-62461260D01*
X159055000Y-62168740D01*
X158997932Y-61881842D01*
X158885990Y-61611589D01*
X158723475Y-61368368D01*
X158591620Y-61236513D01*
X158664180Y-61214502D01*
X158774494Y-61155537D01*
X158871185Y-61076185D01*
X158950537Y-60979494D01*
X159009502Y-60869180D01*
X159045812Y-60749482D01*
X159058072Y-60625000D01*
X159055000Y-60060750D01*
X158896250Y-59902000D01*
X157697000Y-59902000D01*
X157697000Y-59922000D01*
X157443000Y-59922000D01*
X157443000Y-59902000D01*
X155157000Y-59902000D01*
X155157000Y-59922000D01*
X154903000Y-59922000D01*
X154903000Y-59902000D01*
X152617000Y-59902000D01*
X152617000Y-59922000D01*
X152363000Y-59922000D01*
X152363000Y-59902000D01*
X150077000Y-59902000D01*
X150077000Y-59922000D01*
X149823000Y-59922000D01*
X149823000Y-59902000D01*
X147537000Y-59902000D01*
X147537000Y-59922000D01*
X147283000Y-59922000D01*
X147283000Y-59902000D01*
X144997000Y-59902000D01*
X144997000Y-59922000D01*
X144743000Y-59922000D01*
X144743000Y-59902000D01*
X142457000Y-59902000D01*
X142457000Y-59922000D01*
X142203000Y-59922000D01*
X142203000Y-59902000D01*
X139917000Y-59902000D01*
X139917000Y-59922000D01*
X139663000Y-59922000D01*
X139663000Y-59902000D01*
X137377000Y-59902000D01*
X137377000Y-59922000D01*
X137123000Y-59922000D01*
X137123000Y-59902000D01*
X134837000Y-59902000D01*
X134837000Y-59922000D01*
X134583000Y-59922000D01*
X134583000Y-59902000D01*
X132297000Y-59902000D01*
X132297000Y-59922000D01*
X132043000Y-59922000D01*
X132043000Y-59902000D01*
X129757000Y-59902000D01*
X129757000Y-59922000D01*
X129503000Y-59922000D01*
X129503000Y-59902000D01*
X129483000Y-59902000D01*
X129483000Y-59648000D01*
X129503000Y-59648000D01*
X129503000Y-59628000D01*
X129757000Y-59628000D01*
X129757000Y-59648000D01*
X132043000Y-59648000D01*
X132043000Y-59628000D01*
X132297000Y-59628000D01*
X132297000Y-59648000D01*
X134583000Y-59648000D01*
X134583000Y-59628000D01*
X134837000Y-59628000D01*
X134837000Y-59648000D01*
X137123000Y-59648000D01*
X137123000Y-59628000D01*
X137377000Y-59628000D01*
X137377000Y-59648000D01*
X139663000Y-59648000D01*
X139663000Y-59628000D01*
X139917000Y-59628000D01*
X139917000Y-59648000D01*
X142203000Y-59648000D01*
X142203000Y-59628000D01*
X142457000Y-59628000D01*
X142457000Y-59648000D01*
X144743000Y-59648000D01*
X144743000Y-59628000D01*
X144997000Y-59628000D01*
X144997000Y-59648000D01*
X147283000Y-59648000D01*
X147283000Y-59628000D01*
X147537000Y-59628000D01*
X147537000Y-59648000D01*
X149823000Y-59648000D01*
X149823000Y-59628000D01*
X150077000Y-59628000D01*
X150077000Y-59648000D01*
X152363000Y-59648000D01*
X152363000Y-59628000D01*
X152617000Y-59628000D01*
X152617000Y-59648000D01*
X154903000Y-59648000D01*
X154903000Y-59628000D01*
X155157000Y-59628000D01*
X155157000Y-59648000D01*
X157443000Y-59648000D01*
X157443000Y-59628000D01*
X157697000Y-59628000D01*
X157697000Y-59648000D01*
X158896250Y-59648000D01*
X159055000Y-59489250D01*
X159058072Y-58925000D01*
X159045812Y-58800518D01*
X159009502Y-58680820D01*
X158950537Y-58570506D01*
X158871185Y-58473815D01*
X158823889Y-58435000D01*
X159237721Y-58435000D01*
X159335424Y-58444580D01*
G37*
X159335424Y-58444580D02*
X159398356Y-58463580D01*
X159456405Y-58494445D01*
X159507343Y-58535989D01*
X159549248Y-58586644D01*
X159580515Y-58644471D01*
X159599956Y-58707272D01*
X159610000Y-58802835D01*
X159610001Y-69807419D01*
X159612783Y-69835664D01*
X159612740Y-69841801D01*
X159613640Y-69850972D01*
X159634041Y-70045069D01*
X159646068Y-70103658D01*
X159657277Y-70162423D01*
X159659941Y-70171245D01*
X159717653Y-70357683D01*
X159740838Y-70412838D01*
X159763242Y-70468291D01*
X159767568Y-70476427D01*
X159860393Y-70648104D01*
X159893846Y-70697699D01*
X159926600Y-70747753D01*
X159932424Y-70754894D01*
X160056828Y-70905272D01*
X160099263Y-70947411D01*
X160141126Y-70990161D01*
X160148227Y-70996034D01*
X160299469Y-71119384D01*
X160349277Y-71152477D01*
X160398651Y-71186284D01*
X160406757Y-71190667D01*
X160579080Y-71282292D01*
X160634392Y-71305090D01*
X160689366Y-71328652D01*
X160698169Y-71331377D01*
X160885006Y-71387786D01*
X160943686Y-71399405D01*
X161002196Y-71411842D01*
X161011361Y-71412805D01*
X161205594Y-71431850D01*
X161205598Y-71431850D01*
X161237581Y-71435000D01*
X183737721Y-71435000D01*
X183835424Y-71444580D01*
X183898356Y-71463580D01*
X183956405Y-71494445D01*
X184007343Y-71535989D01*
X184049248Y-71586644D01*
X184080515Y-71644471D01*
X184099956Y-71707272D01*
X184110001Y-71802845D01*
X184110000Y-94742721D01*
X184100420Y-94840424D01*
X184081420Y-94903357D01*
X184050554Y-94961406D01*
X184009011Y-95012343D01*
X183958356Y-95054248D01*
X183900529Y-95085515D01*
X183837728Y-95104956D01*
X183742165Y-95115000D01*
X158239131Y-95115000D01*
X158426989Y-94927142D01*
X158643148Y-94710984D01*
X158769992Y-94658443D01*
X158972267Y-94523287D01*
X159144287Y-94351267D01*
X159279443Y-94148992D01*
X159331984Y-94022148D01*
X159519614Y-93834517D01*
X159537460Y-93924236D01*
X159630557Y-94148992D01*
X159765713Y-94351267D01*
X159937733Y-94523287D01*
X160140008Y-94658443D01*
X160364764Y-94751540D01*
X160603363Y-94799000D01*
X160846637Y-94799000D01*
X161085236Y-94751540D01*
X161309992Y-94658443D01*
X161512267Y-94523287D01*
X161684287Y-94351267D01*
X161819443Y-94148992D01*
X161912540Y-93924236D01*
X161960000Y-93685637D01*
X161960000Y-93442363D01*
X161912540Y-93203764D01*
X161819443Y-92979008D01*
X161749524Y-92874367D01*
X161873363Y-92899000D01*
X162116637Y-92899000D01*
X162240476Y-92874367D01*
X162170557Y-92979008D01*
X162077460Y-93203764D01*
X162030000Y-93442363D01*
X162030000Y-93685637D01*
X162077460Y-93924236D01*
X162170557Y-94148992D01*
X162305713Y-94351267D01*
X162477733Y-94523287D01*
X162680008Y-94658443D01*
X162904764Y-94751540D01*
X163143363Y-94799000D01*
X163386637Y-94799000D01*
X163625236Y-94751540D01*
X163849992Y-94658443D01*
X164052267Y-94523287D01*
X164224287Y-94351267D01*
X164359443Y-94148992D01*
X164452540Y-93924236D01*
X164500000Y-93685637D01*
X164500000Y-93442363D01*
X164452540Y-93203764D01*
X164359443Y-92979008D01*
X164289524Y-92874367D01*
X164413363Y-92899000D01*
X164656637Y-92899000D01*
X164895236Y-92851540D01*
X165119992Y-92758443D01*
X165322267Y-92623287D01*
X165494287Y-92451267D01*
X165629443Y-92248992D01*
X165722540Y-92024236D01*
X165770000Y-91785637D01*
X165770000Y-91542363D01*
X165722540Y-91303764D01*
X165629443Y-91079008D01*
X165494287Y-90876733D01*
X165322267Y-90704713D01*
X165127495Y-90574570D01*
X167490000Y-90574570D01*
X167490000Y-90975430D01*
X167568204Y-91368587D01*
X167721607Y-91738934D01*
X167944313Y-92072237D01*
X168227763Y-92355687D01*
X168561066Y-92578393D01*
X168931413Y-92731796D01*
X169324570Y-92810000D01*
X169725430Y-92810000D01*
X170118587Y-92731796D01*
X170488934Y-92578393D01*
X170822237Y-92355687D01*
X171105687Y-92072237D01*
X171328393Y-91738934D01*
X171481796Y-91368587D01*
X171560000Y-90975430D01*
X171560000Y-90574570D01*
X171481796Y-90181413D01*
X171328393Y-89811066D01*
X171105687Y-89477763D01*
X170822237Y-89194313D01*
X170488934Y-88971607D01*
X170118587Y-88818204D01*
X169725430Y-88740000D01*
X169324570Y-88740000D01*
X168931413Y-88818204D01*
X168561066Y-88971607D01*
X168227763Y-89194313D01*
X167944313Y-89477763D01*
X167721607Y-89811066D01*
X167568204Y-90181413D01*
X167490000Y-90574570D01*
X165127495Y-90574570D01*
X165119992Y-90569557D01*
X164895236Y-90476460D01*
X164656637Y-90429000D01*
X164413363Y-90429000D01*
X164289524Y-90453633D01*
X164359443Y-90348992D01*
X164452540Y-90124236D01*
X164500000Y-89885637D01*
X164500000Y-89642363D01*
X164452540Y-89403764D01*
X164359443Y-89179008D01*
X164289524Y-89074367D01*
X164413363Y-89099000D01*
X164656637Y-89099000D01*
X164895236Y-89051540D01*
X165119992Y-88958443D01*
X165322267Y-88823287D01*
X165494287Y-88651267D01*
X165629443Y-88448992D01*
X165722540Y-88224236D01*
X165770000Y-87985637D01*
X165770000Y-87742363D01*
X165722540Y-87503764D01*
X165629443Y-87279008D01*
X165494287Y-87076733D01*
X165322267Y-86904713D01*
X165119992Y-86769557D01*
X164895236Y-86676460D01*
X164656637Y-86629000D01*
X164413363Y-86629000D01*
X164174764Y-86676460D01*
X163950008Y-86769557D01*
X163747733Y-86904713D01*
X163575713Y-87076733D01*
X163440557Y-87279008D01*
X163347460Y-87503764D01*
X163300000Y-87742363D01*
X163300000Y-87985637D01*
X163347460Y-88224236D01*
X163440557Y-88448992D01*
X163510476Y-88553633D01*
X163386637Y-88529000D01*
X163143363Y-88529000D01*
X163019524Y-88553633D01*
X163089443Y-88448992D01*
X163182540Y-88224236D01*
X163230000Y-87985637D01*
X163230000Y-87742363D01*
X163182540Y-87503764D01*
X163089443Y-87279008D01*
X162954287Y-87076733D01*
X162782267Y-86904713D01*
X162579992Y-86769557D01*
X162355236Y-86676460D01*
X162116637Y-86629000D01*
X161873363Y-86629000D01*
X161634764Y-86676460D01*
X161410008Y-86769557D01*
X161207733Y-86904713D01*
X161035713Y-87076733D01*
X160900557Y-87279008D01*
X160807460Y-87503764D01*
X160760000Y-87742363D01*
X160760000Y-87985637D01*
X160807460Y-88224236D01*
X160900557Y-88448992D01*
X160970476Y-88553633D01*
X160846637Y-88529000D01*
X160603363Y-88529000D01*
X160591817Y-88531297D01*
X160595490Y-88494001D01*
X160590000Y-88438257D01*
X160590000Y-88351079D01*
X160642540Y-88224236D01*
X160690000Y-87985637D01*
X160690000Y-87742363D01*
X160642540Y-87503764D01*
X160549443Y-87279008D01*
X160414287Y-87076733D01*
X160242267Y-86904713D01*
X160039992Y-86769557D01*
X159815236Y-86676460D01*
X159576637Y-86629000D01*
X159333363Y-86629000D01*
X159094764Y-86676460D01*
X158967921Y-86729000D01*
X157402079Y-86729000D01*
X157373150Y-86717017D01*
X156142995Y-85486864D01*
X156107449Y-85443551D01*
X155934623Y-85301716D01*
X155737447Y-85196324D01*
X155523499Y-85131423D01*
X155356752Y-85115000D01*
X155356751Y-85115000D01*
X155301000Y-85109509D01*
X155245249Y-85115000D01*
X154486802Y-85115000D01*
X154547003Y-85054798D01*
X154576001Y-85031001D01*
X154670974Y-84915276D01*
X154741546Y-84783247D01*
X154785003Y-84639986D01*
X154796000Y-84528333D01*
X154796000Y-84528324D01*
X154799676Y-84491001D01*
X154796000Y-84453677D01*
X154796000Y-75238322D01*
X154799676Y-75201000D01*
X154796000Y-75163677D01*
X154796000Y-75163667D01*
X154785003Y-75052014D01*
X154741546Y-74908753D01*
X154670974Y-74776723D01*
X154599799Y-74689997D01*
X154576001Y-74660999D01*
X154547003Y-74637201D01*
X154094801Y-74185000D01*
X154798801Y-73481000D01*
X176677928Y-73481000D01*
X176677928Y-75181000D01*
X176690188Y-75305482D01*
X176726498Y-75425180D01*
X176785463Y-75535494D01*
X176864815Y-75632185D01*
X176961506Y-75711537D01*
X177071820Y-75770502D01*
X177144380Y-75792513D01*
X177012525Y-75924368D01*
X176850010Y-76167589D01*
X176738068Y-76437842D01*
X176681000Y-76724740D01*
X176681000Y-77017260D01*
X176738068Y-77304158D01*
X176850010Y-77574411D01*
X177012525Y-77817632D01*
X177219368Y-78024475D01*
X177393760Y-78141000D01*
X177219368Y-78257525D01*
X177012525Y-78464368D01*
X176850010Y-78707589D01*
X176738068Y-78977842D01*
X176681000Y-79264740D01*
X176681000Y-79557260D01*
X176738068Y-79844158D01*
X176850010Y-80114411D01*
X177012525Y-80357632D01*
X177219368Y-80564475D01*
X177393760Y-80681000D01*
X177219368Y-80797525D01*
X177012525Y-81004368D01*
X176850010Y-81247589D01*
X176738068Y-81517842D01*
X176681000Y-81804740D01*
X176681000Y-82097260D01*
X176738068Y-82384158D01*
X176850010Y-82654411D01*
X177012525Y-82897632D01*
X177219368Y-83104475D01*
X177393760Y-83221000D01*
X177219368Y-83337525D01*
X177012525Y-83544368D01*
X176850010Y-83787589D01*
X176738068Y-84057842D01*
X176681000Y-84344740D01*
X176681000Y-84637260D01*
X176738068Y-84924158D01*
X176850010Y-85194411D01*
X177012525Y-85437632D01*
X177219368Y-85644475D01*
X177393760Y-85761000D01*
X177219368Y-85877525D01*
X177012525Y-86084368D01*
X176850010Y-86327589D01*
X176738068Y-86597842D01*
X176681000Y-86884740D01*
X176681000Y-87177260D01*
X176738068Y-87464158D01*
X176850010Y-87734411D01*
X177012525Y-87977632D01*
X177219368Y-88184475D01*
X177393760Y-88301000D01*
X177219368Y-88417525D01*
X177012525Y-88624368D01*
X176850010Y-88867589D01*
X176738068Y-89137842D01*
X176681000Y-89424740D01*
X176681000Y-89717260D01*
X176738068Y-90004158D01*
X176850010Y-90274411D01*
X177012525Y-90517632D01*
X177219368Y-90724475D01*
X177393760Y-90841000D01*
X177219368Y-90957525D01*
X177012525Y-91164368D01*
X176850010Y-91407589D01*
X176738068Y-91677842D01*
X176681000Y-91964740D01*
X176681000Y-92257260D01*
X176738068Y-92544158D01*
X176850010Y-92814411D01*
X177012525Y-93057632D01*
X177219368Y-93264475D01*
X177462589Y-93426990D01*
X177732842Y-93538932D01*
X178019740Y-93596000D01*
X178312260Y-93596000D01*
X178599158Y-93538932D01*
X178869411Y-93426990D01*
X179112632Y-93264475D01*
X179319475Y-93057632D01*
X179437100Y-92881594D01*
X179608412Y-93111269D01*
X179824645Y-93306178D01*
X180074748Y-93455157D01*
X180349109Y-93552481D01*
X180579000Y-93431814D01*
X180579000Y-92238000D01*
X180833000Y-92238000D01*
X180833000Y-93431814D01*
X181062891Y-93552481D01*
X181337252Y-93455157D01*
X181587355Y-93306178D01*
X181803588Y-93111269D01*
X181977641Y-92877920D01*
X182102825Y-92615099D01*
X182147476Y-92467890D01*
X182026155Y-92238000D01*
X180833000Y-92238000D01*
X180579000Y-92238000D01*
X180559000Y-92238000D01*
X180559000Y-91984000D01*
X180579000Y-91984000D01*
X180579000Y-89698000D01*
X180833000Y-89698000D01*
X180833000Y-91984000D01*
X182026155Y-91984000D01*
X182147476Y-91754110D01*
X182102825Y-91606901D01*
X181977641Y-91344080D01*
X181803588Y-91110731D01*
X181587355Y-90915822D01*
X181461745Y-90841000D01*
X181587355Y-90766178D01*
X181803588Y-90571269D01*
X181977641Y-90337920D01*
X182102825Y-90075099D01*
X182147476Y-89927890D01*
X182026155Y-89698000D01*
X180833000Y-89698000D01*
X180579000Y-89698000D01*
X180559000Y-89698000D01*
X180559000Y-89444000D01*
X180579000Y-89444000D01*
X180579000Y-87158000D01*
X180833000Y-87158000D01*
X180833000Y-89444000D01*
X182026155Y-89444000D01*
X182147476Y-89214110D01*
X182102825Y-89066901D01*
X181977641Y-88804080D01*
X181803588Y-88570731D01*
X181587355Y-88375822D01*
X181461745Y-88301000D01*
X181587355Y-88226178D01*
X181803588Y-88031269D01*
X181977641Y-87797920D01*
X182102825Y-87535099D01*
X182147476Y-87387890D01*
X182026155Y-87158000D01*
X180833000Y-87158000D01*
X180579000Y-87158000D01*
X180559000Y-87158000D01*
X180559000Y-86904000D01*
X180579000Y-86904000D01*
X180579000Y-84618000D01*
X180833000Y-84618000D01*
X180833000Y-86904000D01*
X182026155Y-86904000D01*
X182147476Y-86674110D01*
X182102825Y-86526901D01*
X181977641Y-86264080D01*
X181803588Y-86030731D01*
X181587355Y-85835822D01*
X181461745Y-85761000D01*
X181587355Y-85686178D01*
X181803588Y-85491269D01*
X181977641Y-85257920D01*
X182102825Y-84995099D01*
X182147476Y-84847890D01*
X182026155Y-84618000D01*
X180833000Y-84618000D01*
X180579000Y-84618000D01*
X180559000Y-84618000D01*
X180559000Y-84364000D01*
X180579000Y-84364000D01*
X180579000Y-82078000D01*
X180833000Y-82078000D01*
X180833000Y-84364000D01*
X182026155Y-84364000D01*
X182147476Y-84134110D01*
X182102825Y-83986901D01*
X181977641Y-83724080D01*
X181803588Y-83490731D01*
X181587355Y-83295822D01*
X181461745Y-83221000D01*
X181587355Y-83146178D01*
X181803588Y-82951269D01*
X181977641Y-82717920D01*
X182102825Y-82455099D01*
X182147476Y-82307890D01*
X182026155Y-82078000D01*
X180833000Y-82078000D01*
X180579000Y-82078000D01*
X180559000Y-82078000D01*
X180559000Y-81824000D01*
X180579000Y-81824000D01*
X180579000Y-79538000D01*
X180833000Y-79538000D01*
X180833000Y-81824000D01*
X182026155Y-81824000D01*
X182147476Y-81594110D01*
X182102825Y-81446901D01*
X181977641Y-81184080D01*
X181803588Y-80950731D01*
X181587355Y-80755822D01*
X181461745Y-80681000D01*
X181587355Y-80606178D01*
X181803588Y-80411269D01*
X181977641Y-80177920D01*
X182102825Y-79915099D01*
X182147476Y-79767890D01*
X182026155Y-79538000D01*
X180833000Y-79538000D01*
X180579000Y-79538000D01*
X180559000Y-79538000D01*
X180559000Y-79284000D01*
X180579000Y-79284000D01*
X180579000Y-79264000D01*
X180833000Y-79264000D01*
X180833000Y-79284000D01*
X182026155Y-79284000D01*
X182147476Y-79054110D01*
X182102825Y-78906901D01*
X181977641Y-78644080D01*
X181803588Y-78410731D01*
X181587355Y-78215822D01*
X181470466Y-78146195D01*
X181652632Y-78024475D01*
X181859475Y-77817632D01*
X182021990Y-77574411D01*
X182133932Y-77304158D01*
X182191000Y-77017260D01*
X182191000Y-76724740D01*
X182133932Y-76437842D01*
X182021990Y-76167589D01*
X181859475Y-75924368D01*
X181652632Y-75717525D01*
X181478240Y-75601000D01*
X181652632Y-75484475D01*
X181859475Y-75277632D01*
X182021990Y-75034411D01*
X182133932Y-74764158D01*
X182191000Y-74477260D01*
X182191000Y-74184740D01*
X182133932Y-73897842D01*
X182021990Y-73627589D01*
X181859475Y-73384368D01*
X181652632Y-73177525D01*
X181409411Y-73015010D01*
X181139158Y-72903068D01*
X180852260Y-72846000D01*
X180559740Y-72846000D01*
X180272842Y-72903068D01*
X180002589Y-73015010D01*
X179759368Y-73177525D01*
X179627513Y-73309380D01*
X179605502Y-73236820D01*
X179546537Y-73126506D01*
X179467185Y-73029815D01*
X179370494Y-72950463D01*
X179260180Y-72891498D01*
X179140482Y-72855188D01*
X179016000Y-72842928D01*
X177316000Y-72842928D01*
X177191518Y-72855188D01*
X177071820Y-72891498D01*
X176961506Y-72950463D01*
X176864815Y-73029815D01*
X176785463Y-73126506D01*
X176726498Y-73236820D01*
X176690188Y-73356518D01*
X176677928Y-73481000D01*
X154798801Y-73481000D01*
X154801004Y-73478798D01*
X154830001Y-73455001D01*
X154924974Y-73339276D01*
X154995546Y-73207247D01*
X155039003Y-73063986D01*
X155050000Y-72952333D01*
X155050000Y-72952324D01*
X155053676Y-72915001D01*
X155050000Y-72877678D01*
X155050000Y-69173711D01*
X155093937Y-69129774D01*
X155207205Y-68960256D01*
X155285226Y-68771898D01*
X155325000Y-68571939D01*
X155325000Y-68368061D01*
X155285226Y-68168102D01*
X155207205Y-67979744D01*
X155093937Y-67810226D01*
X154949774Y-67666063D01*
X154780256Y-67552795D01*
X154591898Y-67474774D01*
X154391939Y-67435000D01*
X154188061Y-67435000D01*
X153988102Y-67474774D01*
X153799744Y-67552795D01*
X153630226Y-67666063D01*
X153486063Y-67810226D01*
X153372795Y-67979744D01*
X153294774Y-68168102D01*
X153255000Y-68368061D01*
X153255000Y-68571939D01*
X153294774Y-68771898D01*
X153372795Y-68960256D01*
X153486063Y-69129774D01*
X153530001Y-69173712D01*
X153530000Y-72600198D01*
X152980199Y-73150000D01*
X152918061Y-73150000D01*
X152718102Y-73189774D01*
X152529744Y-73267795D01*
X152385000Y-73364510D01*
X152240256Y-73267795D01*
X152051898Y-73189774D01*
X151851939Y-73150000D01*
X151648061Y-73150000D01*
X151448102Y-73189774D01*
X151259744Y-73267795D01*
X151115000Y-73364510D01*
X150970256Y-73267795D01*
X150781898Y-73189774D01*
X150581939Y-73150000D01*
X150378061Y-73150000D01*
X150178102Y-73189774D01*
X149989744Y-73267795D01*
X149845000Y-73364510D01*
X149700256Y-73267795D01*
X149511898Y-73189774D01*
X149311939Y-73150000D01*
X149108061Y-73150000D01*
X148908102Y-73189774D01*
X148719744Y-73267795D01*
X148575000Y-73364510D01*
X148430256Y-73267795D01*
X148241898Y-73189774D01*
X148041939Y-73150000D01*
X147838061Y-73150000D01*
X147638102Y-73189774D01*
X147449744Y-73267795D01*
X147305000Y-73364510D01*
X147160256Y-73267795D01*
X146971898Y-73189774D01*
X146771939Y-73150000D01*
X146568061Y-73150000D01*
X146368102Y-73189774D01*
X146179744Y-73267795D01*
X146035000Y-73364510D01*
X145890256Y-73267795D01*
X145701898Y-73189774D01*
X145501939Y-73150000D01*
X145298061Y-73150000D01*
X145098102Y-73189774D01*
X144909744Y-73267795D01*
X144765000Y-73364510D01*
X144620256Y-73267795D01*
X144431898Y-73189774D01*
X144231939Y-73150000D01*
X144028061Y-73150000D01*
X143828102Y-73189774D01*
X143639744Y-73267795D01*
X143495000Y-73364510D01*
X143350256Y-73267795D01*
X143161898Y-73189774D01*
X142961939Y-73150000D01*
X142758061Y-73150000D01*
X142558102Y-73189774D01*
X142369744Y-73267795D01*
X142200226Y-73381063D01*
X142056063Y-73525226D01*
X141942795Y-73694744D01*
X141864774Y-73883102D01*
X141825000Y-74083061D01*
X141825000Y-74286939D01*
X141864774Y-74486898D01*
X141942795Y-74675256D01*
X142056063Y-74844774D01*
X142100000Y-74888711D01*
X142100001Y-83006288D01*
X142056063Y-83050226D01*
X141942795Y-83219744D01*
X141864774Y-83408102D01*
X141825000Y-83608061D01*
X141825000Y-83811939D01*
X141864774Y-84011898D01*
X141942795Y-84200256D01*
X141955987Y-84220000D01*
X140589013Y-84220000D01*
X140602205Y-84200256D01*
X140680226Y-84011898D01*
X140720000Y-83811939D01*
X140720000Y-83608061D01*
X140680226Y-83408102D01*
X140602205Y-83219744D01*
X140488937Y-83050226D01*
X140445000Y-83006289D01*
X140445000Y-78063711D01*
X140488937Y-78019774D01*
X140602205Y-77850256D01*
X140680226Y-77661898D01*
X140720000Y-77461939D01*
X140720000Y-77258061D01*
X140680226Y-77058102D01*
X140602205Y-76869744D01*
X140488937Y-76700226D01*
X140344774Y-76556063D01*
X140175256Y-76442795D01*
X139986898Y-76364774D01*
X139786939Y-76325000D01*
X139583061Y-76325000D01*
X139383102Y-76364774D01*
X139194744Y-76442795D01*
X139050000Y-76539510D01*
X138905256Y-76442795D01*
X138716898Y-76364774D01*
X138516939Y-76325000D01*
X138313061Y-76325000D01*
X138113102Y-76364774D01*
X138010000Y-76407481D01*
X138010000Y-63593178D01*
X138196632Y-63468475D01*
X138403475Y-63261632D01*
X138520000Y-63087240D01*
X138636525Y-63261632D01*
X138843368Y-63468475D01*
X139086589Y-63630990D01*
X139356842Y-63742932D01*
X139643740Y-63800000D01*
X139936260Y-63800000D01*
X140223158Y-63742932D01*
X140493411Y-63630990D01*
X140736632Y-63468475D01*
X140943475Y-63261632D01*
X141060000Y-63087240D01*
X141176525Y-63261632D01*
X141383368Y-63468475D01*
X141626589Y-63630990D01*
X141896842Y-63742932D01*
X142183740Y-63800000D01*
X142476260Y-63800000D01*
X142763158Y-63742932D01*
X143033411Y-63630990D01*
X143276632Y-63468475D01*
X143483475Y-63261632D01*
X143600000Y-63087240D01*
X143716525Y-63261632D01*
X143923368Y-63468475D01*
X144166589Y-63630990D01*
X144436842Y-63742932D01*
X144723740Y-63800000D01*
X145016260Y-63800000D01*
X145303158Y-63742932D01*
X145573411Y-63630990D01*
X145816632Y-63468475D01*
X146023475Y-63261632D01*
X146140000Y-63087240D01*
X146256525Y-63261632D01*
X146463368Y-63468475D01*
X146706589Y-63630990D01*
X146976842Y-63742932D01*
X147263740Y-63800000D01*
X147556260Y-63800000D01*
X147843158Y-63742932D01*
X148113411Y-63630990D01*
X148356632Y-63468475D01*
X148563475Y-63261632D01*
X148680000Y-63087240D01*
X148796525Y-63261632D01*
X149003368Y-63468475D01*
X149246589Y-63630990D01*
X149516842Y-63742932D01*
X149803740Y-63800000D01*
X150096260Y-63800000D01*
X150383158Y-63742932D01*
X150653411Y-63630990D01*
X150896632Y-63468475D01*
X151103475Y-63261632D01*
X151220000Y-63087240D01*
X151336525Y-63261632D01*
X151543368Y-63468475D01*
X151786589Y-63630990D01*
X152056842Y-63742932D01*
X152343740Y-63800000D01*
X152636260Y-63800000D01*
X152923158Y-63742932D01*
X153193411Y-63630990D01*
X153436632Y-63468475D01*
X153643475Y-63261632D01*
X153760000Y-63087240D01*
X153876525Y-63261632D01*
X154083368Y-63468475D01*
X154326589Y-63630990D01*
X154596842Y-63742932D01*
X154883740Y-63800000D01*
X155176260Y-63800000D01*
X155463158Y-63742932D01*
X155733411Y-63630990D01*
X155976632Y-63468475D01*
X156183475Y-63261632D01*
X156300000Y-63087240D01*
X156416525Y-63261632D01*
X156623368Y-63468475D01*
X156866589Y-63630990D01*
X157136842Y-63742932D01*
X157423740Y-63800000D01*
X157716260Y-63800000D01*
X158003158Y-63742932D01*
X158273411Y-63630990D01*
X158516632Y-63468475D01*
X158723475Y-63261632D01*
X158885990Y-63018411D01*
X158997932Y-62748158D01*
X159055000Y-62461260D01*
X159055000Y-62168740D01*
X158997932Y-61881842D01*
X158885990Y-61611589D01*
X158723475Y-61368368D01*
X158591620Y-61236513D01*
X158664180Y-61214502D01*
X158774494Y-61155537D01*
X158871185Y-61076185D01*
X158950537Y-60979494D01*
X159009502Y-60869180D01*
X159045812Y-60749482D01*
X159058072Y-60625000D01*
X159055000Y-60060750D01*
X158896250Y-59902000D01*
X157697000Y-59902000D01*
X157697000Y-59922000D01*
X157443000Y-59922000D01*
X157443000Y-59902000D01*
X155157000Y-59902000D01*
X155157000Y-59922000D01*
X154903000Y-59922000D01*
X154903000Y-59902000D01*
X152617000Y-59902000D01*
X152617000Y-59922000D01*
X152363000Y-59922000D01*
X152363000Y-59902000D01*
X150077000Y-59902000D01*
X150077000Y-59922000D01*
X149823000Y-59922000D01*
X149823000Y-59902000D01*
X147537000Y-59902000D01*
X147537000Y-59922000D01*
X147283000Y-59922000D01*
X147283000Y-59902000D01*
X144997000Y-59902000D01*
X144997000Y-59922000D01*
X144743000Y-59922000D01*
X144743000Y-59902000D01*
X142457000Y-59902000D01*
X142457000Y-59922000D01*
X142203000Y-59922000D01*
X142203000Y-59902000D01*
X139917000Y-59902000D01*
X139917000Y-59922000D01*
X139663000Y-59922000D01*
X139663000Y-59902000D01*
X137377000Y-59902000D01*
X137377000Y-59922000D01*
X137123000Y-59922000D01*
X137123000Y-59902000D01*
X134837000Y-59902000D01*
X134837000Y-59922000D01*
X134583000Y-59922000D01*
X134583000Y-59902000D01*
X132297000Y-59902000D01*
X132297000Y-59922000D01*
X132043000Y-59922000D01*
X132043000Y-59902000D01*
X129757000Y-59902000D01*
X129757000Y-59922000D01*
X129503000Y-59922000D01*
X129503000Y-59902000D01*
X129483000Y-59902000D01*
X129483000Y-59648000D01*
X129503000Y-59648000D01*
X129503000Y-59628000D01*
X129757000Y-59628000D01*
X129757000Y-59648000D01*
X132043000Y-59648000D01*
X132043000Y-59628000D01*
X132297000Y-59628000D01*
X132297000Y-59648000D01*
X134583000Y-59648000D01*
X134583000Y-59628000D01*
X134837000Y-59628000D01*
X134837000Y-59648000D01*
X137123000Y-59648000D01*
X137123000Y-59628000D01*
X137377000Y-59628000D01*
X137377000Y-59648000D01*
X139663000Y-59648000D01*
X139663000Y-59628000D01*
X139917000Y-59628000D01*
X139917000Y-59648000D01*
X142203000Y-59648000D01*
X142203000Y-59628000D01*
X142457000Y-59628000D01*
X142457000Y-59648000D01*
X144743000Y-59648000D01*
X144743000Y-59628000D01*
X144997000Y-59628000D01*
X144997000Y-59648000D01*
X147283000Y-59648000D01*
X147283000Y-59628000D01*
X147537000Y-59628000D01*
X147537000Y-59648000D01*
X149823000Y-59648000D01*
X149823000Y-59628000D01*
X150077000Y-59628000D01*
X150077000Y-59648000D01*
X152363000Y-59648000D01*
X152363000Y-59628000D01*
X152617000Y-59628000D01*
X152617000Y-59648000D01*
X154903000Y-59648000D01*
X154903000Y-59628000D01*
X155157000Y-59628000D01*
X155157000Y-59648000D01*
X157443000Y-59648000D01*
X157443000Y-59628000D01*
X157697000Y-59628000D01*
X157697000Y-59648000D01*
X158896250Y-59648000D01*
X159055000Y-59489250D01*
X159058072Y-58925000D01*
X159045812Y-58800518D01*
X159009502Y-58680820D01*
X158950537Y-58570506D01*
X158871185Y-58473815D01*
X158823889Y-58435000D01*
X159237721Y-58435000D01*
X159335424Y-58444580D01*
G36*
X103949478Y-93729001D02*
G01*
X101927131Y-93729001D01*
X100827896Y-92629766D01*
X100978172Y-92599874D01*
X101357618Y-92442703D01*
X101699110Y-92214525D01*
X101989525Y-91924110D01*
X102051635Y-91831157D01*
X103949478Y-93729001D01*
G37*
X103949478Y-93729001D02*
X101927131Y-93729001D01*
X100827896Y-92629766D01*
X100978172Y-92599874D01*
X101357618Y-92442703D01*
X101699110Y-92214525D01*
X101989525Y-91924110D01*
X102051635Y-91831157D01*
X103949478Y-93729001D01*
G36*
X113910557Y-90348992D02*
G01*
X114045713Y-90551267D01*
X114217733Y-90723287D01*
X114420008Y-90858443D01*
X114644764Y-90951540D01*
X114883363Y-90999000D01*
X115126637Y-90999000D01*
X115250476Y-90974367D01*
X115180557Y-91079008D01*
X115128017Y-91205852D01*
X114241860Y-92092009D01*
X114198552Y-92127551D01*
X114056717Y-92300377D01*
X113987966Y-92429000D01*
X111202516Y-92429000D01*
X111312237Y-92355687D01*
X111595687Y-92072237D01*
X111818393Y-91738934D01*
X111971796Y-91368587D01*
X112050000Y-90975430D01*
X112050000Y-90574570D01*
X112010852Y-90377761D01*
X112150581Y-90435639D01*
X112524419Y-90510000D01*
X112905581Y-90510000D01*
X113279419Y-90435639D01*
X113631566Y-90289775D01*
X113830868Y-90156606D01*
X113910557Y-90348992D01*
G37*
X113910557Y-90348992D02*
X114045713Y-90551267D01*
X114217733Y-90723287D01*
X114420008Y-90858443D01*
X114644764Y-90951540D01*
X114883363Y-90999000D01*
X115126637Y-90999000D01*
X115250476Y-90974367D01*
X115180557Y-91079008D01*
X115128017Y-91205852D01*
X114241860Y-92092009D01*
X114198552Y-92127551D01*
X114056717Y-92300377D01*
X113987966Y-92429000D01*
X111202516Y-92429000D01*
X111312237Y-92355687D01*
X111595687Y-92072237D01*
X111818393Y-91738934D01*
X111971796Y-91368587D01*
X112050000Y-90975430D01*
X112050000Y-90574570D01*
X112010852Y-90377761D01*
X112150581Y-90435639D01*
X112524419Y-90510000D01*
X112905581Y-90510000D01*
X113279419Y-90435639D01*
X113631566Y-90289775D01*
X113830868Y-90156606D01*
X113910557Y-90348992D01*
G36*
X102638616Y-87338139D02*
G01*
X102674159Y-87381448D01*
X102846985Y-87523283D01*
X103044161Y-87628675D01*
X103258109Y-87693576D01*
X103480608Y-87715490D01*
X103536359Y-87709999D01*
X110978866Y-87709999D01*
X110854361Y-88010581D01*
X110780000Y-88384419D01*
X110780000Y-88765581D01*
X110806798Y-88900306D01*
X110608587Y-88818204D01*
X110215430Y-88740000D01*
X109814570Y-88740000D01*
X109421413Y-88818204D01*
X109051066Y-88971607D01*
X108717763Y-89194313D01*
X108434313Y-89477763D01*
X108211607Y-89811066D01*
X108058204Y-90181413D01*
X107980000Y-90574570D01*
X107980000Y-90975430D01*
X108058204Y-91368587D01*
X108211607Y-91738934D01*
X108434313Y-92072237D01*
X108717763Y-92355687D01*
X108827484Y-92429000D01*
X105859741Y-92429000D01*
X103262605Y-89831865D01*
X103227058Y-89788551D01*
X103054232Y-89646716D01*
X102857056Y-89541324D01*
X102643108Y-89476423D01*
X102476361Y-89460000D01*
X102476360Y-89460000D01*
X102420609Y-89454509D01*
X102364858Y-89460000D01*
X102119225Y-89460000D01*
X101989525Y-89265890D01*
X101699110Y-88975475D01*
X101357618Y-88747297D01*
X100978172Y-88590126D01*
X100575355Y-88510000D01*
X100164645Y-88510000D01*
X99761828Y-88590126D01*
X99382382Y-88747297D01*
X99354999Y-88765594D01*
X99354999Y-87344406D01*
X99382382Y-87362703D01*
X99761828Y-87519874D01*
X100164645Y-87600000D01*
X100575355Y-87600000D01*
X100978172Y-87519874D01*
X101357618Y-87362703D01*
X101699110Y-87134525D01*
X101989525Y-86844110D01*
X102051634Y-86751157D01*
X102638616Y-87338139D01*
G37*
X102638616Y-87338139D02*
X102674159Y-87381448D01*
X102846985Y-87523283D01*
X103044161Y-87628675D01*
X103258109Y-87693576D01*
X103480608Y-87715490D01*
X103536359Y-87709999D01*
X110978866Y-87709999D01*
X110854361Y-88010581D01*
X110780000Y-88384419D01*
X110780000Y-88765581D01*
X110806798Y-88900306D01*
X110608587Y-88818204D01*
X110215430Y-88740000D01*
X109814570Y-88740000D01*
X109421413Y-88818204D01*
X109051066Y-88971607D01*
X108717763Y-89194313D01*
X108434313Y-89477763D01*
X108211607Y-89811066D01*
X108058204Y-90181413D01*
X107980000Y-90574570D01*
X107980000Y-90975430D01*
X108058204Y-91368587D01*
X108211607Y-91738934D01*
X108434313Y-92072237D01*
X108717763Y-92355687D01*
X108827484Y-92429000D01*
X105859741Y-92429000D01*
X103262605Y-89831865D01*
X103227058Y-89788551D01*
X103054232Y-89646716D01*
X102857056Y-89541324D01*
X102643108Y-89476423D01*
X102476361Y-89460000D01*
X102476360Y-89460000D01*
X102420609Y-89454509D01*
X102364858Y-89460000D01*
X102119225Y-89460000D01*
X101989525Y-89265890D01*
X101699110Y-88975475D01*
X101357618Y-88747297D01*
X100978172Y-88590126D01*
X100575355Y-88510000D01*
X100164645Y-88510000D01*
X99761828Y-88590126D01*
X99382382Y-88747297D01*
X99354999Y-88765594D01*
X99354999Y-87344406D01*
X99382382Y-87362703D01*
X99761828Y-87519874D01*
X100164645Y-87600000D01*
X100575355Y-87600000D01*
X100978172Y-87519874D01*
X101357618Y-87362703D01*
X101699110Y-87134525D01*
X101989525Y-86844110D01*
X102051634Y-86751157D01*
X102638616Y-87338139D01*
G36*
X130438748Y-89749858D02*
G01*
X130424605Y-89764000D01*
X130438748Y-89778143D01*
X130259143Y-89957748D01*
X130245000Y-89943605D01*
X130230858Y-89957748D01*
X130051253Y-89778143D01*
X130065395Y-89764000D01*
X130051253Y-89749858D01*
X130230858Y-89570253D01*
X130245000Y-89584395D01*
X130259143Y-89570253D01*
X130438748Y-89749858D01*
G37*
X130438748Y-89749858D02*
X130424605Y-89764000D01*
X130438748Y-89778143D01*
X130259143Y-89957748D01*
X130245000Y-89943605D01*
X130230858Y-89957748D01*
X130051253Y-89778143D01*
X130065395Y-89764000D01*
X130051253Y-89749858D01*
X130230858Y-89570253D01*
X130245000Y-89584395D01*
X130259143Y-89570253D01*
X130438748Y-89749858D01*
G36*
X150758748Y-89749858D02*
G01*
X150744605Y-89764000D01*
X150758748Y-89778143D01*
X150579143Y-89957748D01*
X150565000Y-89943605D01*
X150550858Y-89957748D01*
X150371253Y-89778143D01*
X150385395Y-89764000D01*
X150371253Y-89749858D01*
X150550858Y-89570253D01*
X150565000Y-89584395D01*
X150579143Y-89570253D01*
X150758748Y-89749858D01*
G37*
X150758748Y-89749858D02*
X150744605Y-89764000D01*
X150758748Y-89778143D01*
X150579143Y-89957748D01*
X150565000Y-89943605D01*
X150550858Y-89957748D01*
X150371253Y-89778143D01*
X150385395Y-89764000D01*
X150371253Y-89749858D01*
X150550858Y-89570253D01*
X150565000Y-89584395D01*
X150579143Y-89570253D01*
X150758748Y-89749858D01*
G36*
X122818748Y-89749858D02*
G01*
X122804605Y-89764000D01*
X122818748Y-89778143D01*
X122639143Y-89957748D01*
X122625000Y-89943605D01*
X122610858Y-89957748D01*
X122431253Y-89778143D01*
X122445395Y-89764000D01*
X122431253Y-89749858D01*
X122610858Y-89570253D01*
X122625000Y-89584395D01*
X122639143Y-89570253D01*
X122818748Y-89749858D01*
G37*
X122818748Y-89749858D02*
X122804605Y-89764000D01*
X122818748Y-89778143D01*
X122639143Y-89957748D01*
X122625000Y-89943605D01*
X122610858Y-89957748D01*
X122431253Y-89778143D01*
X122445395Y-89764000D01*
X122431253Y-89749858D01*
X122610858Y-89570253D01*
X122625000Y-89584395D01*
X122639143Y-89570253D01*
X122818748Y-89749858D01*
G36*
X148218748Y-89749858D02*
G01*
X148204605Y-89764000D01*
X148218748Y-89778143D01*
X148039143Y-89957748D01*
X148025000Y-89943605D01*
X148010858Y-89957748D01*
X147831253Y-89778143D01*
X147845395Y-89764000D01*
X147831253Y-89749858D01*
X148010858Y-89570253D01*
X148025000Y-89584395D01*
X148039143Y-89570253D01*
X148218748Y-89749858D01*
G37*
X148218748Y-89749858D02*
X148204605Y-89764000D01*
X148218748Y-89778143D01*
X148039143Y-89957748D01*
X148025000Y-89943605D01*
X148010858Y-89957748D01*
X147831253Y-89778143D01*
X147845395Y-89764000D01*
X147831253Y-89749858D01*
X148010858Y-89570253D01*
X148025000Y-89584395D01*
X148039143Y-89570253D01*
X148218748Y-89749858D01*
G36*
X143138748Y-89749858D02*
G01*
X143124605Y-89764000D01*
X143138748Y-89778143D01*
X142959143Y-89957748D01*
X142945000Y-89943605D01*
X142930858Y-89957748D01*
X142751253Y-89778143D01*
X142765395Y-89764000D01*
X142751253Y-89749858D01*
X142930858Y-89570253D01*
X142945000Y-89584395D01*
X142959143Y-89570253D01*
X143138748Y-89749858D01*
G37*
X143138748Y-89749858D02*
X143124605Y-89764000D01*
X143138748Y-89778143D01*
X142959143Y-89957748D01*
X142945000Y-89943605D01*
X142930858Y-89957748D01*
X142751253Y-89778143D01*
X142765395Y-89764000D01*
X142751253Y-89749858D01*
X142930858Y-89570253D01*
X142945000Y-89584395D01*
X142959143Y-89570253D01*
X143138748Y-89749858D01*
G36*
X145678748Y-89749858D02*
G01*
X145664605Y-89764000D01*
X145678748Y-89778143D01*
X145499143Y-89957748D01*
X145485000Y-89943605D01*
X145470858Y-89957748D01*
X145291253Y-89778143D01*
X145305395Y-89764000D01*
X145291253Y-89749858D01*
X145470858Y-89570253D01*
X145485000Y-89584395D01*
X145499143Y-89570253D01*
X145678748Y-89749858D01*
G37*
X145678748Y-89749858D02*
X145664605Y-89764000D01*
X145678748Y-89778143D01*
X145499143Y-89957748D01*
X145485000Y-89943605D01*
X145470858Y-89957748D01*
X145291253Y-89778143D01*
X145305395Y-89764000D01*
X145291253Y-89749858D01*
X145470858Y-89570253D01*
X145485000Y-89584395D01*
X145499143Y-89570253D01*
X145678748Y-89749858D01*
G36*
X153298748Y-89749858D02*
G01*
X153284605Y-89764000D01*
X153298748Y-89778143D01*
X153119143Y-89957748D01*
X153105000Y-89943605D01*
X153090858Y-89957748D01*
X152911253Y-89778143D01*
X152925395Y-89764000D01*
X152911253Y-89749858D01*
X153090858Y-89570253D01*
X153105000Y-89584395D01*
X153119143Y-89570253D01*
X153298748Y-89749858D01*
G37*
X153298748Y-89749858D02*
X153284605Y-89764000D01*
X153298748Y-89778143D01*
X153119143Y-89957748D01*
X153105000Y-89943605D01*
X153090858Y-89957748D01*
X152911253Y-89778143D01*
X152925395Y-89764000D01*
X152911253Y-89749858D01*
X153090858Y-89570253D01*
X153105000Y-89584395D01*
X153119143Y-89570253D01*
X153298748Y-89749858D01*
G36*
X132978748Y-89749858D02*
G01*
X132964605Y-89764000D01*
X132978748Y-89778143D01*
X132799143Y-89957748D01*
X132785000Y-89943605D01*
X132770858Y-89957748D01*
X132591253Y-89778143D01*
X132605395Y-89764000D01*
X132591253Y-89749858D01*
X132770858Y-89570253D01*
X132785000Y-89584395D01*
X132799143Y-89570253D01*
X132978748Y-89749858D01*
G37*
X132978748Y-89749858D02*
X132964605Y-89764000D01*
X132978748Y-89778143D01*
X132799143Y-89957748D01*
X132785000Y-89943605D01*
X132770858Y-89957748D01*
X132591253Y-89778143D01*
X132605395Y-89764000D01*
X132591253Y-89749858D01*
X132770858Y-89570253D01*
X132785000Y-89584395D01*
X132799143Y-89570253D01*
X132978748Y-89749858D01*
G36*
X135518748Y-89749858D02*
G01*
X135504605Y-89764000D01*
X135518748Y-89778143D01*
X135339143Y-89957748D01*
X135325000Y-89943605D01*
X135310858Y-89957748D01*
X135131253Y-89778143D01*
X135145395Y-89764000D01*
X135131253Y-89749858D01*
X135310858Y-89570253D01*
X135325000Y-89584395D01*
X135339143Y-89570253D01*
X135518748Y-89749858D01*
G37*
X135518748Y-89749858D02*
X135504605Y-89764000D01*
X135518748Y-89778143D01*
X135339143Y-89957748D01*
X135325000Y-89943605D01*
X135310858Y-89957748D01*
X135131253Y-89778143D01*
X135145395Y-89764000D01*
X135131253Y-89749858D01*
X135310858Y-89570253D01*
X135325000Y-89584395D01*
X135339143Y-89570253D01*
X135518748Y-89749858D01*
G36*
X127898748Y-89749858D02*
G01*
X127884605Y-89764000D01*
X127898748Y-89778143D01*
X127719143Y-89957748D01*
X127705000Y-89943605D01*
X127690858Y-89957748D01*
X127511253Y-89778143D01*
X127525395Y-89764000D01*
X127511253Y-89749858D01*
X127690858Y-89570253D01*
X127705000Y-89584395D01*
X127719143Y-89570253D01*
X127898748Y-89749858D01*
G37*
X127898748Y-89749858D02*
X127884605Y-89764000D01*
X127898748Y-89778143D01*
X127719143Y-89957748D01*
X127705000Y-89943605D01*
X127690858Y-89957748D01*
X127511253Y-89778143D01*
X127525395Y-89764000D01*
X127511253Y-89749858D01*
X127690858Y-89570253D01*
X127705000Y-89584395D01*
X127719143Y-89570253D01*
X127898748Y-89749858D01*
G36*
X125358748Y-89749858D02*
G01*
X125344605Y-89764000D01*
X125358748Y-89778143D01*
X125179143Y-89957748D01*
X125165000Y-89943605D01*
X125150858Y-89957748D01*
X124971253Y-89778143D01*
X124985395Y-89764000D01*
X124971253Y-89749858D01*
X125150858Y-89570253D01*
X125165000Y-89584395D01*
X125179143Y-89570253D01*
X125358748Y-89749858D01*
G37*
X125358748Y-89749858D02*
X125344605Y-89764000D01*
X125358748Y-89778143D01*
X125179143Y-89957748D01*
X125165000Y-89943605D01*
X125150858Y-89957748D01*
X124971253Y-89778143D01*
X124985395Y-89764000D01*
X124971253Y-89749858D01*
X125150858Y-89570253D01*
X125165000Y-89584395D01*
X125179143Y-89570253D01*
X125358748Y-89749858D01*
G36*
X138058748Y-89749858D02*
G01*
X138044605Y-89764000D01*
X138058748Y-89778143D01*
X137879143Y-89957748D01*
X137865000Y-89943605D01*
X137850858Y-89957748D01*
X137671253Y-89778143D01*
X137685395Y-89764000D01*
X137671253Y-89749858D01*
X137850858Y-89570253D01*
X137865000Y-89584395D01*
X137879143Y-89570253D01*
X138058748Y-89749858D01*
G37*
X138058748Y-89749858D02*
X138044605Y-89764000D01*
X138058748Y-89778143D01*
X137879143Y-89957748D01*
X137865000Y-89943605D01*
X137850858Y-89957748D01*
X137671253Y-89778143D01*
X137685395Y-89764000D01*
X137671253Y-89749858D01*
X137850858Y-89570253D01*
X137865000Y-89584395D01*
X137879143Y-89570253D01*
X138058748Y-89749858D01*
G36*
X140598748Y-89749858D02*
G01*
X140584605Y-89764000D01*
X140598748Y-89778143D01*
X140419143Y-89957748D01*
X140405000Y-89943605D01*
X140390858Y-89957748D01*
X140211253Y-89778143D01*
X140225395Y-89764000D01*
X140211253Y-89749858D01*
X140390858Y-89570253D01*
X140405000Y-89584395D01*
X140419143Y-89570253D01*
X140598748Y-89749858D01*
G37*
X140598748Y-89749858D02*
X140584605Y-89764000D01*
X140598748Y-89778143D01*
X140419143Y-89957748D01*
X140405000Y-89943605D01*
X140390858Y-89957748D01*
X140211253Y-89778143D01*
X140225395Y-89764000D01*
X140211253Y-89749858D01*
X140390858Y-89570253D01*
X140405000Y-89584395D01*
X140419143Y-89570253D01*
X140598748Y-89749858D01*
G36*
X155838748Y-89749858D02*
G01*
X155824605Y-89764000D01*
X155838748Y-89778143D01*
X155659143Y-89957748D01*
X155645000Y-89943605D01*
X155630858Y-89957748D01*
X155451253Y-89778143D01*
X155465395Y-89764000D01*
X155451253Y-89749858D01*
X155630858Y-89570253D01*
X155645000Y-89584395D01*
X155659143Y-89570253D01*
X155838748Y-89749858D01*
G37*
X155838748Y-89749858D02*
X155824605Y-89764000D01*
X155838748Y-89778143D01*
X155659143Y-89957748D01*
X155645000Y-89943605D01*
X155630858Y-89957748D01*
X155451253Y-89778143D01*
X155465395Y-89764000D01*
X155451253Y-89749858D01*
X155630858Y-89570253D01*
X155645000Y-89584395D01*
X155659143Y-89570253D01*
X155838748Y-89749858D01*
G36*
X139328748Y-87849858D02*
G01*
X139314605Y-87864000D01*
X139328748Y-87878143D01*
X139149143Y-88057748D01*
X139135000Y-88043605D01*
X139120858Y-88057748D01*
X138941253Y-87878143D01*
X138955395Y-87864000D01*
X138941253Y-87849858D01*
X139120858Y-87670253D01*
X139135000Y-87684395D01*
X139149143Y-87670253D01*
X139328748Y-87849858D01*
G37*
X139328748Y-87849858D02*
X139314605Y-87864000D01*
X139328748Y-87878143D01*
X139149143Y-88057748D01*
X139135000Y-88043605D01*
X139120858Y-88057748D01*
X138941253Y-87878143D01*
X138955395Y-87864000D01*
X138941253Y-87849858D01*
X139120858Y-87670253D01*
X139135000Y-87684395D01*
X139149143Y-87670253D01*
X139328748Y-87849858D01*
G36*
X136788748Y-87849858D02*
G01*
X136774605Y-87864000D01*
X136788748Y-87878143D01*
X136609143Y-88057748D01*
X136595000Y-88043605D01*
X136580858Y-88057748D01*
X136401253Y-87878143D01*
X136415395Y-87864000D01*
X136401253Y-87849858D01*
X136580858Y-87670253D01*
X136595000Y-87684395D01*
X136609143Y-87670253D01*
X136788748Y-87849858D01*
G37*
X136788748Y-87849858D02*
X136774605Y-87864000D01*
X136788748Y-87878143D01*
X136609143Y-88057748D01*
X136595000Y-88043605D01*
X136580858Y-88057748D01*
X136401253Y-87878143D01*
X136415395Y-87864000D01*
X136401253Y-87849858D01*
X136580858Y-87670253D01*
X136595000Y-87684395D01*
X136609143Y-87670253D01*
X136788748Y-87849858D01*
G36*
X121548748Y-87849858D02*
G01*
X121534605Y-87864000D01*
X121548748Y-87878143D01*
X121369143Y-88057748D01*
X121355000Y-88043605D01*
X121340858Y-88057748D01*
X121161253Y-87878143D01*
X121175395Y-87864000D01*
X121161253Y-87849858D01*
X121340858Y-87670253D01*
X121355000Y-87684395D01*
X121369143Y-87670253D01*
X121548748Y-87849858D01*
G37*
X121548748Y-87849858D02*
X121534605Y-87864000D01*
X121548748Y-87878143D01*
X121369143Y-88057748D01*
X121355000Y-88043605D01*
X121340858Y-88057748D01*
X121161253Y-87878143D01*
X121175395Y-87864000D01*
X121161253Y-87849858D01*
X121340858Y-87670253D01*
X121355000Y-87684395D01*
X121369143Y-87670253D01*
X121548748Y-87849858D01*
G36*
X141868748Y-87849858D02*
G01*
X141854605Y-87864000D01*
X141868748Y-87878143D01*
X141689143Y-88057748D01*
X141675000Y-88043605D01*
X141660858Y-88057748D01*
X141481253Y-87878143D01*
X141495395Y-87864000D01*
X141481253Y-87849858D01*
X141660858Y-87670253D01*
X141675000Y-87684395D01*
X141689143Y-87670253D01*
X141868748Y-87849858D01*
G37*
X141868748Y-87849858D02*
X141854605Y-87864000D01*
X141868748Y-87878143D01*
X141689143Y-88057748D01*
X141675000Y-88043605D01*
X141660858Y-88057748D01*
X141481253Y-87878143D01*
X141495395Y-87864000D01*
X141481253Y-87849858D01*
X141660858Y-87670253D01*
X141675000Y-87684395D01*
X141689143Y-87670253D01*
X141868748Y-87849858D01*
G36*
X144408748Y-87849858D02*
G01*
X144394605Y-87864000D01*
X144408748Y-87878143D01*
X144229143Y-88057748D01*
X144215000Y-88043605D01*
X144200858Y-88057748D01*
X144021253Y-87878143D01*
X144035395Y-87864000D01*
X144021253Y-87849858D01*
X144200858Y-87670253D01*
X144215000Y-87684395D01*
X144229143Y-87670253D01*
X144408748Y-87849858D01*
G37*
X144408748Y-87849858D02*
X144394605Y-87864000D01*
X144408748Y-87878143D01*
X144229143Y-88057748D01*
X144215000Y-88043605D01*
X144200858Y-88057748D01*
X144021253Y-87878143D01*
X144035395Y-87864000D01*
X144021253Y-87849858D01*
X144200858Y-87670253D01*
X144215000Y-87684395D01*
X144229143Y-87670253D01*
X144408748Y-87849858D01*
G36*
X154568748Y-87849858D02*
G01*
X154554605Y-87864000D01*
X154568748Y-87878143D01*
X154389143Y-88057748D01*
X154375000Y-88043605D01*
X154360858Y-88057748D01*
X154181253Y-87878143D01*
X154195395Y-87864000D01*
X154181253Y-87849858D01*
X154360858Y-87670253D01*
X154375000Y-87684395D01*
X154389143Y-87670253D01*
X154568748Y-87849858D01*
G37*
X154568748Y-87849858D02*
X154554605Y-87864000D01*
X154568748Y-87878143D01*
X154389143Y-88057748D01*
X154375000Y-88043605D01*
X154360858Y-88057748D01*
X154181253Y-87878143D01*
X154195395Y-87864000D01*
X154181253Y-87849858D01*
X154360858Y-87670253D01*
X154375000Y-87684395D01*
X154389143Y-87670253D01*
X154568748Y-87849858D01*
G36*
X146948748Y-87849858D02*
G01*
X146934605Y-87864000D01*
X146948748Y-87878143D01*
X146769143Y-88057748D01*
X146755000Y-88043605D01*
X146740858Y-88057748D01*
X146561253Y-87878143D01*
X146575395Y-87864000D01*
X146561253Y-87849858D01*
X146740858Y-87670253D01*
X146755000Y-87684395D01*
X146769143Y-87670253D01*
X146948748Y-87849858D01*
G37*
X146948748Y-87849858D02*
X146934605Y-87864000D01*
X146948748Y-87878143D01*
X146769143Y-88057748D01*
X146755000Y-88043605D01*
X146740858Y-88057748D01*
X146561253Y-87878143D01*
X146575395Y-87864000D01*
X146561253Y-87849858D01*
X146740858Y-87670253D01*
X146755000Y-87684395D01*
X146769143Y-87670253D01*
X146948748Y-87849858D01*
G36*
X149488748Y-87849858D02*
G01*
X149474605Y-87864000D01*
X149488748Y-87878143D01*
X149309143Y-88057748D01*
X149295000Y-88043605D01*
X149280858Y-88057748D01*
X149101253Y-87878143D01*
X149115395Y-87864000D01*
X149101253Y-87849858D01*
X149280858Y-87670253D01*
X149295000Y-87684395D01*
X149309143Y-87670253D01*
X149488748Y-87849858D01*
G37*
X149488748Y-87849858D02*
X149474605Y-87864000D01*
X149488748Y-87878143D01*
X149309143Y-88057748D01*
X149295000Y-88043605D01*
X149280858Y-88057748D01*
X149101253Y-87878143D01*
X149115395Y-87864000D01*
X149101253Y-87849858D01*
X149280858Y-87670253D01*
X149295000Y-87684395D01*
X149309143Y-87670253D01*
X149488748Y-87849858D01*
G36*
X152028748Y-87849858D02*
G01*
X152014605Y-87864000D01*
X152028748Y-87878143D01*
X151849143Y-88057748D01*
X151835000Y-88043605D01*
X151820858Y-88057748D01*
X151641253Y-87878143D01*
X151655395Y-87864000D01*
X151641253Y-87849858D01*
X151820858Y-87670253D01*
X151835000Y-87684395D01*
X151849143Y-87670253D01*
X152028748Y-87849858D01*
G37*
X152028748Y-87849858D02*
X152014605Y-87864000D01*
X152028748Y-87878143D01*
X151849143Y-88057748D01*
X151835000Y-88043605D01*
X151820858Y-88057748D01*
X151641253Y-87878143D01*
X151655395Y-87864000D01*
X151641253Y-87849858D01*
X151820858Y-87670253D01*
X151835000Y-87684395D01*
X151849143Y-87670253D01*
X152028748Y-87849858D01*
G36*
X124088748Y-87849858D02*
G01*
X124074605Y-87864000D01*
X124088748Y-87878143D01*
X123909143Y-88057748D01*
X123895000Y-88043605D01*
X123880858Y-88057748D01*
X123701253Y-87878143D01*
X123715395Y-87864000D01*
X123701253Y-87849858D01*
X123880858Y-87670253D01*
X123895000Y-87684395D01*
X123909143Y-87670253D01*
X124088748Y-87849858D01*
G37*
X124088748Y-87849858D02*
X124074605Y-87864000D01*
X124088748Y-87878143D01*
X123909143Y-88057748D01*
X123895000Y-88043605D01*
X123880858Y-88057748D01*
X123701253Y-87878143D01*
X123715395Y-87864000D01*
X123701253Y-87849858D01*
X123880858Y-87670253D01*
X123895000Y-87684395D01*
X123909143Y-87670253D01*
X124088748Y-87849858D01*
G36*
X126628748Y-87849858D02*
G01*
X126614605Y-87864000D01*
X126628748Y-87878143D01*
X126449143Y-88057748D01*
X126435000Y-88043605D01*
X126420858Y-88057748D01*
X126241253Y-87878143D01*
X126255395Y-87864000D01*
X126241253Y-87849858D01*
X126420858Y-87670253D01*
X126435000Y-87684395D01*
X126449143Y-87670253D01*
X126628748Y-87849858D01*
G37*
X126628748Y-87849858D02*
X126614605Y-87864000D01*
X126628748Y-87878143D01*
X126449143Y-88057748D01*
X126435000Y-88043605D01*
X126420858Y-88057748D01*
X126241253Y-87878143D01*
X126255395Y-87864000D01*
X126241253Y-87849858D01*
X126420858Y-87670253D01*
X126435000Y-87684395D01*
X126449143Y-87670253D01*
X126628748Y-87849858D01*
G36*
X129168748Y-87849858D02*
G01*
X129154605Y-87864000D01*
X129168748Y-87878143D01*
X128989143Y-88057748D01*
X128975000Y-88043605D01*
X128960858Y-88057748D01*
X128781253Y-87878143D01*
X128795395Y-87864000D01*
X128781253Y-87849858D01*
X128960858Y-87670253D01*
X128975000Y-87684395D01*
X128989143Y-87670253D01*
X129168748Y-87849858D01*
G37*
X129168748Y-87849858D02*
X129154605Y-87864000D01*
X129168748Y-87878143D01*
X128989143Y-88057748D01*
X128975000Y-88043605D01*
X128960858Y-88057748D01*
X128781253Y-87878143D01*
X128795395Y-87864000D01*
X128781253Y-87849858D01*
X128960858Y-87670253D01*
X128975000Y-87684395D01*
X128989143Y-87670253D01*
X129168748Y-87849858D01*
G36*
X131708748Y-87849858D02*
G01*
X131694605Y-87864000D01*
X131708748Y-87878143D01*
X131529143Y-88057748D01*
X131515000Y-88043605D01*
X131500858Y-88057748D01*
X131321253Y-87878143D01*
X131335395Y-87864000D01*
X131321253Y-87849858D01*
X131500858Y-87670253D01*
X131515000Y-87684395D01*
X131529143Y-87670253D01*
X131708748Y-87849858D01*
G37*
X131708748Y-87849858D02*
X131694605Y-87864000D01*
X131708748Y-87878143D01*
X131529143Y-88057748D01*
X131515000Y-88043605D01*
X131500858Y-88057748D01*
X131321253Y-87878143D01*
X131335395Y-87864000D01*
X131321253Y-87849858D01*
X131500858Y-87670253D01*
X131515000Y-87684395D01*
X131529143Y-87670253D01*
X131708748Y-87849858D01*
G36*
X134248748Y-87849858D02*
G01*
X134234605Y-87864000D01*
X134248748Y-87878143D01*
X134069143Y-88057748D01*
X134055000Y-88043605D01*
X134040858Y-88057748D01*
X133861253Y-87878143D01*
X133875395Y-87864000D01*
X133861253Y-87849858D01*
X134040858Y-87670253D01*
X134055000Y-87684395D01*
X134069143Y-87670253D01*
X134248748Y-87849858D01*
G37*
X134248748Y-87849858D02*
X134234605Y-87864000D01*
X134248748Y-87878143D01*
X134069143Y-88057748D01*
X134055000Y-88043605D01*
X134040858Y-88057748D01*
X133861253Y-87878143D01*
X133875395Y-87864000D01*
X133861253Y-87849858D01*
X134040858Y-87670253D01*
X134055000Y-87684395D01*
X134069143Y-87670253D01*
X134248748Y-87849858D01*
G36*
X122415001Y-83006288D02*
G01*
X122371063Y-83050226D01*
X122257795Y-83219744D01*
X122179774Y-83408102D01*
X122140000Y-83608061D01*
X122140000Y-83811939D01*
X122179774Y-84011898D01*
X122257795Y-84200256D01*
X122270987Y-84220000D01*
X121184802Y-84220000D01*
X121141000Y-84176199D01*
X121141000Y-76908333D01*
X121144677Y-76871000D01*
X121130003Y-76722014D01*
X121086546Y-76578753D01*
X121015974Y-76446724D01*
X120985975Y-76410170D01*
X120990991Y-76410664D01*
X121015550Y-76410664D01*
X121040000Y-76413072D01*
X121540000Y-76413072D01*
X121564450Y-76410664D01*
X121589009Y-76410664D01*
X121713490Y-76398404D01*
X121809623Y-76379282D01*
X121929319Y-76342973D01*
X122019875Y-76305464D01*
X122130192Y-76246498D01*
X122211691Y-76192042D01*
X122308382Y-76112690D01*
X122377690Y-76043382D01*
X122415000Y-75997919D01*
X122415001Y-83006288D01*
G37*
X122415001Y-83006288D02*
X122371063Y-83050226D01*
X122257795Y-83219744D01*
X122179774Y-83408102D01*
X122140000Y-83608061D01*
X122140000Y-83811939D01*
X122179774Y-84011898D01*
X122257795Y-84200256D01*
X122270987Y-84220000D01*
X121184802Y-84220000D01*
X121141000Y-84176199D01*
X121141000Y-76908333D01*
X121144677Y-76871000D01*
X121130003Y-76722014D01*
X121086546Y-76578753D01*
X121015974Y-76446724D01*
X120985975Y-76410170D01*
X120990991Y-76410664D01*
X121015550Y-76410664D01*
X121040000Y-76413072D01*
X121540000Y-76413072D01*
X121564450Y-76410664D01*
X121589009Y-76410664D01*
X121713490Y-76398404D01*
X121809623Y-76379282D01*
X121929319Y-76342973D01*
X122019875Y-76305464D01*
X122130192Y-76246498D01*
X122211691Y-76192042D01*
X122308382Y-76112690D01*
X122377690Y-76043382D01*
X122415000Y-75997919D01*
X122415001Y-83006288D01*
G36*
X147449744Y-75102205D02*
G01*
X147638102Y-75180226D01*
X147838061Y-75220000D01*
X147900199Y-75220000D01*
X148450001Y-75769803D01*
X148450000Y-83006289D01*
X148406063Y-83050226D01*
X148292795Y-83219744D01*
X148214774Y-83408102D01*
X148175000Y-83608061D01*
X148175000Y-83811939D01*
X148214774Y-84011898D01*
X148292795Y-84200256D01*
X148305987Y-84220000D01*
X147574013Y-84220000D01*
X147587205Y-84200256D01*
X147665226Y-84011898D01*
X147705000Y-83811939D01*
X147705000Y-83608061D01*
X147665226Y-83408102D01*
X147587205Y-83219744D01*
X147473937Y-83050226D01*
X147430000Y-83006289D01*
X147430000Y-75089013D01*
X147449744Y-75102205D01*
G37*
X147449744Y-75102205D02*
X147638102Y-75180226D01*
X147838061Y-75220000D01*
X147900199Y-75220000D01*
X148450001Y-75769803D01*
X148450000Y-83006289D01*
X148406063Y-83050226D01*
X148292795Y-83219744D01*
X148214774Y-83408102D01*
X148175000Y-83608061D01*
X148175000Y-83811939D01*
X148214774Y-84011898D01*
X148292795Y-84200256D01*
X148305987Y-84220000D01*
X147574013Y-84220000D01*
X147587205Y-84200256D01*
X147665226Y-84011898D01*
X147705000Y-83811939D01*
X147705000Y-83608061D01*
X147665226Y-83408102D01*
X147587205Y-83219744D01*
X147473937Y-83050226D01*
X147430000Y-83006289D01*
X147430000Y-75089013D01*
X147449744Y-75102205D01*
G36*
X127750038Y-78066843D02*
G01*
X127815009Y-78146011D01*
X127844013Y-78169814D01*
X129400001Y-79725803D01*
X129400000Y-83006289D01*
X129356063Y-83050226D01*
X129242795Y-83219744D01*
X129164774Y-83408102D01*
X129125000Y-83608061D01*
X129125000Y-83811939D01*
X129164774Y-84011898D01*
X129242795Y-84200256D01*
X129255987Y-84220000D01*
X127889013Y-84220000D01*
X127902205Y-84200256D01*
X127980226Y-84011898D01*
X128020000Y-83811939D01*
X128020000Y-83608061D01*
X127980226Y-83408102D01*
X127902205Y-83219744D01*
X127788937Y-83050226D01*
X127745000Y-83006289D01*
X127745000Y-78060704D01*
X127750038Y-78066843D01*
G37*
X127750038Y-78066843D02*
X127815009Y-78146011D01*
X127844013Y-78169814D01*
X129400001Y-79725803D01*
X129400000Y-83006289D01*
X129356063Y-83050226D01*
X129242795Y-83219744D01*
X129164774Y-83408102D01*
X129125000Y-83608061D01*
X129125000Y-83811939D01*
X129164774Y-84011898D01*
X129242795Y-84200256D01*
X129255987Y-84220000D01*
X127889013Y-84220000D01*
X127902205Y-84200256D01*
X127980226Y-84011898D01*
X128020000Y-83811939D01*
X128020000Y-83608061D01*
X127980226Y-83408102D01*
X127902205Y-83219744D01*
X127788937Y-83050226D01*
X127745000Y-83006289D01*
X127745000Y-78060704D01*
X127750038Y-78066843D01*
G36*
X129757000Y-62188000D02*
G01*
X132043000Y-62188000D01*
X132043000Y-62168000D01*
X132297000Y-62168000D01*
X132297000Y-62188000D01*
X134583000Y-62188000D01*
X134583000Y-62168000D01*
X134837000Y-62168000D01*
X134837000Y-62188000D01*
X134857000Y-62188000D01*
X134857000Y-62442000D01*
X134837000Y-62442000D01*
X134837000Y-63635155D01*
X135066890Y-63756476D01*
X135125002Y-63738850D01*
X135125002Y-63767669D01*
X135121325Y-63805001D01*
X135125002Y-63842334D01*
X135127013Y-63862754D01*
X135118528Y-63951848D01*
X135115000Y-63987668D01*
X135115000Y-63988892D01*
X135114884Y-63990110D01*
X135115000Y-64026062D01*
X135115001Y-76656288D01*
X135071063Y-76700226D01*
X134957795Y-76869744D01*
X134879774Y-77058102D01*
X134840000Y-77258061D01*
X134840000Y-77461939D01*
X134879774Y-77661898D01*
X134957795Y-77850256D01*
X135071063Y-78019774D01*
X135115001Y-78063712D01*
X135115000Y-83006289D01*
X135071063Y-83050226D01*
X134957795Y-83219744D01*
X134922500Y-83304953D01*
X134887205Y-83219744D01*
X134773937Y-83050226D01*
X134730000Y-83006289D01*
X134730000Y-79194322D01*
X134733676Y-79156999D01*
X134730000Y-79119676D01*
X134730000Y-79119667D01*
X134719003Y-79008014D01*
X134675546Y-78864753D01*
X134604974Y-78732724D01*
X134510001Y-78616999D01*
X134481003Y-78593201D01*
X132925010Y-77037209D01*
X132925010Y-74888711D01*
X132968947Y-74844774D01*
X133082215Y-74675256D01*
X133160236Y-74486898D01*
X133200010Y-74286939D01*
X133200010Y-74083061D01*
X133160236Y-73883102D01*
X133082215Y-73694744D01*
X132968947Y-73525226D01*
X132824784Y-73381063D01*
X132655266Y-73267795D01*
X132466908Y-73189774D01*
X132266949Y-73150000D01*
X132100903Y-73150000D01*
X132199774Y-73083937D01*
X132343937Y-72939774D01*
X132457205Y-72770256D01*
X132535226Y-72581898D01*
X132575000Y-72381939D01*
X132575000Y-72178061D01*
X132535226Y-71978102D01*
X132457205Y-71789744D01*
X132343937Y-71620226D01*
X132300000Y-71576289D01*
X132300000Y-65668533D01*
X132366898Y-65655226D01*
X132555256Y-65577205D01*
X132724774Y-65463937D01*
X132868937Y-65319774D01*
X132982205Y-65150256D01*
X133060226Y-64961898D01*
X133100000Y-64761939D01*
X133100000Y-64558061D01*
X133060226Y-64358102D01*
X132982205Y-64169744D01*
X132868937Y-64000226D01*
X132724774Y-63856063D01*
X132560482Y-63746287D01*
X132674099Y-63711825D01*
X132936920Y-63586641D01*
X133170269Y-63412588D01*
X133365178Y-63196355D01*
X133440000Y-63070745D01*
X133514822Y-63196355D01*
X133709731Y-63412588D01*
X133943080Y-63586641D01*
X134205901Y-63711825D01*
X134353110Y-63756476D01*
X134583000Y-63635155D01*
X134583000Y-62442000D01*
X132297000Y-62442000D01*
X132297000Y-62462000D01*
X132043000Y-62462000D01*
X132043000Y-62442000D01*
X129757000Y-62442000D01*
X129757000Y-62462000D01*
X129503000Y-62462000D01*
X129503000Y-62442000D01*
X129483000Y-62442000D01*
X129483000Y-62188000D01*
X129503000Y-62188000D01*
X129503000Y-62168000D01*
X129757000Y-62168000D01*
X129757000Y-62188000D01*
G37*
X129757000Y-62188000D02*
X132043000Y-62188000D01*
X132043000Y-62168000D01*
X132297000Y-62168000D01*
X132297000Y-62188000D01*
X134583000Y-62188000D01*
X134583000Y-62168000D01*
X134837000Y-62168000D01*
X134837000Y-62188000D01*
X134857000Y-62188000D01*
X134857000Y-62442000D01*
X134837000Y-62442000D01*
X134837000Y-63635155D01*
X135066890Y-63756476D01*
X135125002Y-63738850D01*
X135125002Y-63767669D01*
X135121325Y-63805001D01*
X135125002Y-63842334D01*
X135127013Y-63862754D01*
X135118528Y-63951848D01*
X135115000Y-63987668D01*
X135115000Y-63988892D01*
X135114884Y-63990110D01*
X135115000Y-64026062D01*
X135115001Y-76656288D01*
X135071063Y-76700226D01*
X134957795Y-76869744D01*
X134879774Y-77058102D01*
X134840000Y-77258061D01*
X134840000Y-77461939D01*
X134879774Y-77661898D01*
X134957795Y-77850256D01*
X135071063Y-78019774D01*
X135115001Y-78063712D01*
X135115000Y-83006289D01*
X135071063Y-83050226D01*
X134957795Y-83219744D01*
X134922500Y-83304953D01*
X134887205Y-83219744D01*
X134773937Y-83050226D01*
X134730000Y-83006289D01*
X134730000Y-79194322D01*
X134733676Y-79156999D01*
X134730000Y-79119676D01*
X134730000Y-79119667D01*
X134719003Y-79008014D01*
X134675546Y-78864753D01*
X134604974Y-78732724D01*
X134510001Y-78616999D01*
X134481003Y-78593201D01*
X132925010Y-77037209D01*
X132925010Y-74888711D01*
X132968947Y-74844774D01*
X133082215Y-74675256D01*
X133160236Y-74486898D01*
X133200010Y-74286939D01*
X133200010Y-74083061D01*
X133160236Y-73883102D01*
X133082215Y-73694744D01*
X132968947Y-73525226D01*
X132824784Y-73381063D01*
X132655266Y-73267795D01*
X132466908Y-73189774D01*
X132266949Y-73150000D01*
X132100903Y-73150000D01*
X132199774Y-73083937D01*
X132343937Y-72939774D01*
X132457205Y-72770256D01*
X132535226Y-72581898D01*
X132575000Y-72381939D01*
X132575000Y-72178061D01*
X132535226Y-71978102D01*
X132457205Y-71789744D01*
X132343937Y-71620226D01*
X132300000Y-71576289D01*
X132300000Y-65668533D01*
X132366898Y-65655226D01*
X132555256Y-65577205D01*
X132724774Y-65463937D01*
X132868937Y-65319774D01*
X132982205Y-65150256D01*
X133060226Y-64961898D01*
X133100000Y-64761939D01*
X133100000Y-64558061D01*
X133060226Y-64358102D01*
X132982205Y-64169744D01*
X132868937Y-64000226D01*
X132724774Y-63856063D01*
X132560482Y-63746287D01*
X132674099Y-63711825D01*
X132936920Y-63586641D01*
X133170269Y-63412588D01*
X133365178Y-63196355D01*
X133440000Y-63070745D01*
X133514822Y-63196355D01*
X133709731Y-63412588D01*
X133943080Y-63586641D01*
X134205901Y-63711825D01*
X134353110Y-63756476D01*
X134583000Y-63635155D01*
X134583000Y-62442000D01*
X132297000Y-62442000D01*
X132297000Y-62462000D01*
X132043000Y-62462000D01*
X132043000Y-62442000D01*
X129757000Y-62442000D01*
X129757000Y-62462000D01*
X129503000Y-62462000D01*
X129503000Y-62442000D01*
X129483000Y-62442000D01*
X129483000Y-62188000D01*
X129503000Y-62188000D01*
X129503000Y-62168000D01*
X129757000Y-62168000D01*
X129757000Y-62188000D01*
G36*
X96737000Y-59648000D02*
G01*
X99023000Y-59648000D01*
X99023000Y-59628000D01*
X99277000Y-59628000D01*
X99277000Y-59648000D01*
X101563000Y-59648000D01*
X101563000Y-59628000D01*
X101817000Y-59628000D01*
X101817000Y-59648000D01*
X104103000Y-59648000D01*
X104103000Y-59628000D01*
X104357000Y-59628000D01*
X104357000Y-59648000D01*
X106643000Y-59648000D01*
X106643000Y-59628000D01*
X106897000Y-59628000D01*
X106897000Y-59648000D01*
X109183000Y-59648000D01*
X109183000Y-59628000D01*
X109437000Y-59628000D01*
X109437000Y-59648000D01*
X111723000Y-59648000D01*
X111723000Y-59628000D01*
X111977000Y-59628000D01*
X111977000Y-59648000D01*
X114263000Y-59648000D01*
X114263000Y-59628000D01*
X114517000Y-59628000D01*
X114517000Y-59648000D01*
X116803000Y-59648000D01*
X116803000Y-59628000D01*
X117057000Y-59628000D01*
X117057000Y-59648000D01*
X119343000Y-59648000D01*
X119343000Y-59628000D01*
X119597000Y-59628000D01*
X119597000Y-59648000D01*
X121883000Y-59648000D01*
X121883000Y-59628000D01*
X122137000Y-59628000D01*
X122137000Y-59648000D01*
X124423000Y-59648000D01*
X124423000Y-59628000D01*
X124677000Y-59628000D01*
X124677000Y-59648000D01*
X124697000Y-59648000D01*
X124697000Y-59902000D01*
X124677000Y-59902000D01*
X124677000Y-59922000D01*
X124423000Y-59922000D01*
X124423000Y-59902000D01*
X122137000Y-59902000D01*
X122137000Y-59922000D01*
X121883000Y-59922000D01*
X121883000Y-59902000D01*
X119597000Y-59902000D01*
X119597000Y-59922000D01*
X119343000Y-59922000D01*
X119343000Y-59902000D01*
X117057000Y-59902000D01*
X117057000Y-62188000D01*
X117077000Y-62188000D01*
X117077000Y-62442000D01*
X117057000Y-62442000D01*
X117057000Y-63635155D01*
X117286890Y-63756476D01*
X117434099Y-63711825D01*
X117696920Y-63586641D01*
X117930269Y-63412588D01*
X118125178Y-63196355D01*
X118194805Y-63079466D01*
X118316525Y-63261632D01*
X118523368Y-63468475D01*
X118766589Y-63630990D01*
X119036842Y-63742932D01*
X119323740Y-63800000D01*
X119616260Y-63800000D01*
X119903158Y-63742932D01*
X120173411Y-63630990D01*
X120416632Y-63468475D01*
X120623475Y-63261632D01*
X120745195Y-63079466D01*
X120814822Y-63196355D01*
X121009731Y-63412588D01*
X121243080Y-63586641D01*
X121505901Y-63711825D01*
X121653110Y-63756476D01*
X121883000Y-63635155D01*
X121883000Y-62442000D01*
X121863000Y-62442000D01*
X121863000Y-62188000D01*
X121883000Y-62188000D01*
X121883000Y-62168000D01*
X122137000Y-62168000D01*
X122137000Y-62188000D01*
X124423000Y-62188000D01*
X124423000Y-62168000D01*
X124677000Y-62168000D01*
X124677000Y-62188000D01*
X124697000Y-62188000D01*
X124697000Y-62442000D01*
X124677000Y-62442000D01*
X124677000Y-62462000D01*
X124423000Y-62462000D01*
X124423000Y-62442000D01*
X122137000Y-62442000D01*
X122137000Y-63635155D01*
X122366890Y-63756476D01*
X122514099Y-63711825D01*
X122776920Y-63586641D01*
X123010269Y-63412588D01*
X123205178Y-63196355D01*
X123280000Y-63070745D01*
X123354822Y-63196355D01*
X123549731Y-63412588D01*
X123783080Y-63586641D01*
X124045901Y-63711825D01*
X124075859Y-63720912D01*
X123974744Y-63762795D01*
X123805226Y-63876063D01*
X123661063Y-64020226D01*
X123547795Y-64189744D01*
X123469774Y-64378102D01*
X123430000Y-64578061D01*
X123430000Y-64640199D01*
X123298998Y-64771201D01*
X123270000Y-64794999D01*
X123246202Y-64823997D01*
X123246201Y-64823998D01*
X123175026Y-64910724D01*
X123104454Y-65042754D01*
X123085792Y-65104277D01*
X123060998Y-65186014D01*
X123052694Y-65270321D01*
X123046324Y-65335000D01*
X123050001Y-65372332D01*
X123050000Y-71915000D01*
X122384569Y-71915000D01*
X122377690Y-71906618D01*
X122308382Y-71837310D01*
X122211691Y-71757958D01*
X122130192Y-71703502D01*
X122019875Y-71644536D01*
X121929319Y-71607027D01*
X121809623Y-71570718D01*
X121713490Y-71551596D01*
X121589009Y-71539336D01*
X121564450Y-71539336D01*
X121540000Y-71536928D01*
X121040000Y-71536928D01*
X121015550Y-71539336D01*
X120990991Y-71539336D01*
X120866510Y-71551596D01*
X120770377Y-71570718D01*
X120650681Y-71607027D01*
X120560125Y-71644536D01*
X120449808Y-71703502D01*
X120368309Y-71757958D01*
X120271618Y-71837310D01*
X120202310Y-71906618D01*
X120122958Y-72003309D01*
X120068502Y-72084808D01*
X120009536Y-72195125D01*
X119972027Y-72285681D01*
X119935718Y-72405377D01*
X119916596Y-72501510D01*
X119904336Y-72625991D01*
X119904336Y-72650550D01*
X119901928Y-72675000D01*
X119901928Y-73225000D01*
X119910880Y-73315890D01*
X119865724Y-73340026D01*
X119749999Y-73434999D01*
X119726200Y-73463998D01*
X119235002Y-73955197D01*
X119205999Y-73978999D01*
X119159208Y-74036015D01*
X119111026Y-74094724D01*
X119049442Y-74209938D01*
X119040454Y-74226754D01*
X118996997Y-74370015D01*
X118986000Y-74481668D01*
X118986000Y-74481678D01*
X118982324Y-74519000D01*
X118986000Y-74556323D01*
X118986001Y-76156355D01*
X118849744Y-76212795D01*
X118705000Y-76309510D01*
X118560256Y-76212795D01*
X118371898Y-76134774D01*
X118171939Y-76095000D01*
X118109801Y-76095000D01*
X118010010Y-75995209D01*
X118010010Y-67752332D01*
X118013686Y-67715009D01*
X118010010Y-67677686D01*
X118010010Y-67677677D01*
X117999013Y-67566024D01*
X117955556Y-67422763D01*
X117884984Y-67290734D01*
X117865043Y-67266436D01*
X117813809Y-67204006D01*
X117813805Y-67204002D01*
X117790011Y-67175009D01*
X117761019Y-67151216D01*
X114409802Y-63800000D01*
X114536260Y-63800000D01*
X114823158Y-63742932D01*
X115093411Y-63630990D01*
X115336632Y-63468475D01*
X115543475Y-63261632D01*
X115665195Y-63079466D01*
X115734822Y-63196355D01*
X115929731Y-63412588D01*
X116163080Y-63586641D01*
X116425901Y-63711825D01*
X116573110Y-63756476D01*
X116803000Y-63635155D01*
X116803000Y-62442000D01*
X116783000Y-62442000D01*
X116783000Y-62188000D01*
X116803000Y-62188000D01*
X116803000Y-59902000D01*
X114517000Y-59902000D01*
X114517000Y-59922000D01*
X114263000Y-59922000D01*
X114263000Y-59902000D01*
X111977000Y-59902000D01*
X111977000Y-59922000D01*
X111723000Y-59922000D01*
X111723000Y-59902000D01*
X109437000Y-59902000D01*
X109437000Y-59922000D01*
X109183000Y-59922000D01*
X109183000Y-59902000D01*
X106897000Y-59902000D01*
X106897000Y-59922000D01*
X106643000Y-59922000D01*
X106643000Y-59902000D01*
X104357000Y-59902000D01*
X104357000Y-59922000D01*
X104103000Y-59922000D01*
X104103000Y-59902000D01*
X101817000Y-59902000D01*
X101817000Y-59922000D01*
X101563000Y-59922000D01*
X101563000Y-59902000D01*
X99277000Y-59902000D01*
X99277000Y-59922000D01*
X99023000Y-59922000D01*
X99023000Y-59902000D01*
X96737000Y-59902000D01*
X96737000Y-59922000D01*
X96483000Y-59922000D01*
X96483000Y-59902000D01*
X96463000Y-59902000D01*
X96463000Y-59648000D01*
X96483000Y-59648000D01*
X96483000Y-59628000D01*
X96737000Y-59628000D01*
X96737000Y-59648000D01*
G37*
X96737000Y-59648000D02*
X99023000Y-59648000D01*
X99023000Y-59628000D01*
X99277000Y-59628000D01*
X99277000Y-59648000D01*
X101563000Y-59648000D01*
X101563000Y-59628000D01*
X101817000Y-59628000D01*
X101817000Y-59648000D01*
X104103000Y-59648000D01*
X104103000Y-59628000D01*
X104357000Y-59628000D01*
X104357000Y-59648000D01*
X106643000Y-59648000D01*
X106643000Y-59628000D01*
X106897000Y-59628000D01*
X106897000Y-59648000D01*
X109183000Y-59648000D01*
X109183000Y-59628000D01*
X109437000Y-59628000D01*
X109437000Y-59648000D01*
X111723000Y-59648000D01*
X111723000Y-59628000D01*
X111977000Y-59628000D01*
X111977000Y-59648000D01*
X114263000Y-59648000D01*
X114263000Y-59628000D01*
X114517000Y-59628000D01*
X114517000Y-59648000D01*
X116803000Y-59648000D01*
X116803000Y-59628000D01*
X117057000Y-59628000D01*
X117057000Y-59648000D01*
X119343000Y-59648000D01*
X119343000Y-59628000D01*
X119597000Y-59628000D01*
X119597000Y-59648000D01*
X121883000Y-59648000D01*
X121883000Y-59628000D01*
X122137000Y-59628000D01*
X122137000Y-59648000D01*
X124423000Y-59648000D01*
X124423000Y-59628000D01*
X124677000Y-59628000D01*
X124677000Y-59648000D01*
X124697000Y-59648000D01*
X124697000Y-59902000D01*
X124677000Y-59902000D01*
X124677000Y-59922000D01*
X124423000Y-59922000D01*
X124423000Y-59902000D01*
X122137000Y-59902000D01*
X122137000Y-59922000D01*
X121883000Y-59922000D01*
X121883000Y-59902000D01*
X119597000Y-59902000D01*
X119597000Y-59922000D01*
X119343000Y-59922000D01*
X119343000Y-59902000D01*
X117057000Y-59902000D01*
X117057000Y-62188000D01*
X117077000Y-62188000D01*
X117077000Y-62442000D01*
X117057000Y-62442000D01*
X117057000Y-63635155D01*
X117286890Y-63756476D01*
X117434099Y-63711825D01*
X117696920Y-63586641D01*
X117930269Y-63412588D01*
X118125178Y-63196355D01*
X118194805Y-63079466D01*
X118316525Y-63261632D01*
X118523368Y-63468475D01*
X118766589Y-63630990D01*
X119036842Y-63742932D01*
X119323740Y-63800000D01*
X119616260Y-63800000D01*
X119903158Y-63742932D01*
X120173411Y-63630990D01*
X120416632Y-63468475D01*
X120623475Y-63261632D01*
X120745195Y-63079466D01*
X120814822Y-63196355D01*
X121009731Y-63412588D01*
X121243080Y-63586641D01*
X121505901Y-63711825D01*
X121653110Y-63756476D01*
X121883000Y-63635155D01*
X121883000Y-62442000D01*
X121863000Y-62442000D01*
X121863000Y-62188000D01*
X121883000Y-62188000D01*
X121883000Y-62168000D01*
X122137000Y-62168000D01*
X122137000Y-62188000D01*
X124423000Y-62188000D01*
X124423000Y-62168000D01*
X124677000Y-62168000D01*
X124677000Y-62188000D01*
X124697000Y-62188000D01*
X124697000Y-62442000D01*
X124677000Y-62442000D01*
X124677000Y-62462000D01*
X124423000Y-62462000D01*
X124423000Y-62442000D01*
X122137000Y-62442000D01*
X122137000Y-63635155D01*
X122366890Y-63756476D01*
X122514099Y-63711825D01*
X122776920Y-63586641D01*
X123010269Y-63412588D01*
X123205178Y-63196355D01*
X123280000Y-63070745D01*
X123354822Y-63196355D01*
X123549731Y-63412588D01*
X123783080Y-63586641D01*
X124045901Y-63711825D01*
X124075859Y-63720912D01*
X123974744Y-63762795D01*
X123805226Y-63876063D01*
X123661063Y-64020226D01*
X123547795Y-64189744D01*
X123469774Y-64378102D01*
X123430000Y-64578061D01*
X123430000Y-64640199D01*
X123298998Y-64771201D01*
X123270000Y-64794999D01*
X123246202Y-64823997D01*
X123246201Y-64823998D01*
X123175026Y-64910724D01*
X123104454Y-65042754D01*
X123085792Y-65104277D01*
X123060998Y-65186014D01*
X123052694Y-65270321D01*
X123046324Y-65335000D01*
X123050001Y-65372332D01*
X123050000Y-71915000D01*
X122384569Y-71915000D01*
X122377690Y-71906618D01*
X122308382Y-71837310D01*
X122211691Y-71757958D01*
X122130192Y-71703502D01*
X122019875Y-71644536D01*
X121929319Y-71607027D01*
X121809623Y-71570718D01*
X121713490Y-71551596D01*
X121589009Y-71539336D01*
X121564450Y-71539336D01*
X121540000Y-71536928D01*
X121040000Y-71536928D01*
X121015550Y-71539336D01*
X120990991Y-71539336D01*
X120866510Y-71551596D01*
X120770377Y-71570718D01*
X120650681Y-71607027D01*
X120560125Y-71644536D01*
X120449808Y-71703502D01*
X120368309Y-71757958D01*
X120271618Y-71837310D01*
X120202310Y-71906618D01*
X120122958Y-72003309D01*
X120068502Y-72084808D01*
X120009536Y-72195125D01*
X119972027Y-72285681D01*
X119935718Y-72405377D01*
X119916596Y-72501510D01*
X119904336Y-72625991D01*
X119904336Y-72650550D01*
X119901928Y-72675000D01*
X119901928Y-73225000D01*
X119910880Y-73315890D01*
X119865724Y-73340026D01*
X119749999Y-73434999D01*
X119726200Y-73463998D01*
X119235002Y-73955197D01*
X119205999Y-73978999D01*
X119159208Y-74036015D01*
X119111026Y-74094724D01*
X119049442Y-74209938D01*
X119040454Y-74226754D01*
X118996997Y-74370015D01*
X118986000Y-74481668D01*
X118986000Y-74481678D01*
X118982324Y-74519000D01*
X118986000Y-74556323D01*
X118986001Y-76156355D01*
X118849744Y-76212795D01*
X118705000Y-76309510D01*
X118560256Y-76212795D01*
X118371898Y-76134774D01*
X118171939Y-76095000D01*
X118109801Y-76095000D01*
X118010010Y-75995209D01*
X118010010Y-67752332D01*
X118013686Y-67715009D01*
X118010010Y-67677686D01*
X118010010Y-67677677D01*
X117999013Y-67566024D01*
X117955556Y-67422763D01*
X117884984Y-67290734D01*
X117865043Y-67266436D01*
X117813809Y-67204006D01*
X117813805Y-67204002D01*
X117790011Y-67175009D01*
X117761019Y-67151216D01*
X114409802Y-63800000D01*
X114536260Y-63800000D01*
X114823158Y-63742932D01*
X115093411Y-63630990D01*
X115336632Y-63468475D01*
X115543475Y-63261632D01*
X115665195Y-63079466D01*
X115734822Y-63196355D01*
X115929731Y-63412588D01*
X116163080Y-63586641D01*
X116425901Y-63711825D01*
X116573110Y-63756476D01*
X116803000Y-63635155D01*
X116803000Y-62442000D01*
X116783000Y-62442000D01*
X116783000Y-62188000D01*
X116803000Y-62188000D01*
X116803000Y-59902000D01*
X114517000Y-59902000D01*
X114517000Y-59922000D01*
X114263000Y-59922000D01*
X114263000Y-59902000D01*
X111977000Y-59902000D01*
X111977000Y-59922000D01*
X111723000Y-59922000D01*
X111723000Y-59902000D01*
X109437000Y-59902000D01*
X109437000Y-59922000D01*
X109183000Y-59922000D01*
X109183000Y-59902000D01*
X106897000Y-59902000D01*
X106897000Y-59922000D01*
X106643000Y-59922000D01*
X106643000Y-59902000D01*
X104357000Y-59902000D01*
X104357000Y-59922000D01*
X104103000Y-59922000D01*
X104103000Y-59902000D01*
X101817000Y-59902000D01*
X101817000Y-59922000D01*
X101563000Y-59922000D01*
X101563000Y-59902000D01*
X99277000Y-59902000D01*
X99277000Y-59922000D01*
X99023000Y-59922000D01*
X99023000Y-59902000D01*
X96737000Y-59902000D01*
X96737000Y-59922000D01*
X96483000Y-59922000D01*
X96483000Y-59902000D01*
X96463000Y-59902000D01*
X96463000Y-59648000D01*
X96483000Y-59648000D01*
X96483000Y-59628000D01*
X96737000Y-59628000D01*
X96737000Y-59648000D01*
G36*
X108156525Y-63261632D02*
G01*
X108363368Y-63468475D01*
X108606589Y-63630990D01*
X108876842Y-63742932D01*
X109163740Y-63800000D01*
X109456260Y-63800000D01*
X109676408Y-63756210D01*
X110455198Y-64535000D01*
X107524803Y-64535000D01*
X106789802Y-63800000D01*
X106916260Y-63800000D01*
X107203158Y-63742932D01*
X107473411Y-63630990D01*
X107716632Y-63468475D01*
X107923475Y-63261632D01*
X108040000Y-63087240D01*
X108156525Y-63261632D01*
G37*
X108156525Y-63261632D02*
X108363368Y-63468475D01*
X108606589Y-63630990D01*
X108876842Y-63742932D01*
X109163740Y-63800000D01*
X109456260Y-63800000D01*
X109676408Y-63756210D01*
X110455198Y-64535000D01*
X107524803Y-64535000D01*
X106789802Y-63800000D01*
X106916260Y-63800000D01*
X107203158Y-63742932D01*
X107473411Y-63630990D01*
X107716632Y-63468475D01*
X107923475Y-63261632D01*
X108040000Y-63087240D01*
X108156525Y-63261632D01*
G36*
X125936525Y-63261632D02*
G01*
X126143368Y-63468475D01*
X126386589Y-63630990D01*
X126575627Y-63709292D01*
X126494744Y-63742795D01*
X126345034Y-63842828D01*
X126225256Y-63762795D01*
X126036898Y-63684774D01*
X125836939Y-63645000D01*
X125633061Y-63645000D01*
X125433102Y-63684774D01*
X125244744Y-63762795D01*
X125100000Y-63859510D01*
X124955256Y-63762795D01*
X124926004Y-63750678D01*
X125054099Y-63711825D01*
X125316920Y-63586641D01*
X125550269Y-63412588D01*
X125745178Y-63196355D01*
X125814805Y-63079466D01*
X125936525Y-63261632D01*
G37*
X125936525Y-63261632D02*
X126143368Y-63468475D01*
X126386589Y-63630990D01*
X126575627Y-63709292D01*
X126494744Y-63742795D01*
X126345034Y-63842828D01*
X126225256Y-63762795D01*
X126036898Y-63684774D01*
X125836939Y-63645000D01*
X125633061Y-63645000D01*
X125433102Y-63684774D01*
X125244744Y-63762795D01*
X125100000Y-63859510D01*
X124955256Y-63762795D01*
X124926004Y-63750678D01*
X125054099Y-63711825D01*
X125316920Y-63586641D01*
X125550269Y-63412588D01*
X125745178Y-63196355D01*
X125814805Y-63079466D01*
X125936525Y-63261632D01*
G36*
X128434822Y-63196355D02*
G01*
X128629731Y-63412588D01*
X128863080Y-63586641D01*
X129118278Y-63708194D01*
X129034744Y-63742795D01*
X128890000Y-63839510D01*
X128745256Y-63742795D01*
X128556898Y-63664774D01*
X128356939Y-63625000D01*
X128153061Y-63625000D01*
X127953102Y-63664774D01*
X127764744Y-63742795D01*
X127620000Y-63839510D01*
X127486403Y-63750243D01*
X127523158Y-63742932D01*
X127793411Y-63630990D01*
X128036632Y-63468475D01*
X128243475Y-63261632D01*
X128365195Y-63079466D01*
X128434822Y-63196355D01*
G37*
X128434822Y-63196355D02*
X128629731Y-63412588D01*
X128863080Y-63586641D01*
X129118278Y-63708194D01*
X129034744Y-63742795D01*
X128890000Y-63839510D01*
X128745256Y-63742795D01*
X128556898Y-63664774D01*
X128356939Y-63625000D01*
X128153061Y-63625000D01*
X127953102Y-63664774D01*
X127764744Y-63742795D01*
X127620000Y-63839510D01*
X127486403Y-63750243D01*
X127523158Y-63742932D01*
X127793411Y-63630990D01*
X128036632Y-63468475D01*
X128243475Y-63261632D01*
X128365195Y-63079466D01*
X128434822Y-63196355D01*
G36*
X108114822Y-60656355D02*
G01*
X108309731Y-60872588D01*
X108539406Y-61043900D01*
X108363368Y-61161525D01*
X108156525Y-61368368D01*
X108040000Y-61542760D01*
X107923475Y-61368368D01*
X107716632Y-61161525D01*
X107540594Y-61043900D01*
X107770269Y-60872588D01*
X107965178Y-60656355D01*
X108040000Y-60530745D01*
X108114822Y-60656355D01*
G37*
X108114822Y-60656355D02*
X108309731Y-60872588D01*
X108539406Y-61043900D01*
X108363368Y-61161525D01*
X108156525Y-61368368D01*
X108040000Y-61542760D01*
X107923475Y-61368368D01*
X107716632Y-61161525D01*
X107540594Y-61043900D01*
X107770269Y-60872588D01*
X107965178Y-60656355D01*
X108040000Y-60530745D01*
X108114822Y-60656355D01*
G36*
X128863080Y-58503359D02*
G01*
X128629731Y-58677412D01*
X128434822Y-58893645D01*
X128365195Y-59010534D01*
X128243475Y-58828368D01*
X128036632Y-58621525D01*
X127793411Y-58459010D01*
X127735445Y-58435000D01*
X129006598Y-58435000D01*
X128863080Y-58503359D01*
G37*
X128863080Y-58503359D02*
X128629731Y-58677412D01*
X128434822Y-58893645D01*
X128365195Y-59010534D01*
X128243475Y-58828368D01*
X128036632Y-58621525D01*
X127793411Y-58459010D01*
X127735445Y-58435000D01*
X129006598Y-58435000D01*
X128863080Y-58503359D01*
G36*
X126386589Y-58459010D02*
G01*
X126143368Y-58621525D01*
X125936525Y-58828368D01*
X125814805Y-59010534D01*
X125745178Y-58893645D01*
X125550269Y-58677412D01*
X125316920Y-58503359D01*
X125173402Y-58435000D01*
X126444555Y-58435000D01*
X126386589Y-58459010D01*
G37*
X126386589Y-58459010D02*
X126143368Y-58621525D01*
X125936525Y-58828368D01*
X125814805Y-59010534D01*
X125745178Y-58893645D01*
X125550269Y-58677412D01*
X125316920Y-58503359D01*
X125173402Y-58435000D01*
X126444555Y-58435000D01*
X126386589Y-58459010D01*
M02*
