G04 #@! TF.GenerationSoftware,KiCad,Pcbnew,(5.1.5)-3*
G04 #@! TF.CreationDate,2020-11-01T13:08:26+00:00*
G04 #@! TF.ProjectId,SCSIAdaptor,53435349-4164-4617-9074-6f722e6b6963,rev?*
G04 #@! TF.SameCoordinates,Original*
G04 #@! TF.FileFunction,Soldermask,Bot*
G04 #@! TF.FilePolarity,Negative*
%FSLAX46Y46*%
G04 Gerber Fmt 4.6, Leading zero omitted, Abs format (unit mm)*
G04 Created by KiCad (PCBNEW (5.1.5)-3) date 2020-11-01 13:08:26*
%MOMM*%
%LPD*%
G04 APERTURE LIST*
%ADD10C,0.100000*%
G04 APERTURE END LIST*
D10*
G36*
X123320600Y-135534600D02*
G01*
X121491400Y-135534600D01*
X121491400Y-133705400D01*
X123320600Y-133705400D01*
X123320600Y-135534600D01*
G37*
G36*
X162699778Y-133740547D02*
G01*
X162866224Y-133809491D01*
X163016022Y-133909583D01*
X163143417Y-134036978D01*
X163243509Y-134186776D01*
X163312453Y-134353222D01*
X163347600Y-134529918D01*
X163347600Y-134710082D01*
X163312453Y-134886778D01*
X163243509Y-135053224D01*
X163143417Y-135203022D01*
X163016022Y-135330417D01*
X162866224Y-135430509D01*
X162699778Y-135499453D01*
X162523082Y-135534600D01*
X162342918Y-135534600D01*
X162166222Y-135499453D01*
X161999776Y-135430509D01*
X161849978Y-135330417D01*
X161722583Y-135203022D01*
X161622491Y-135053224D01*
X161553547Y-134886778D01*
X161518400Y-134710082D01*
X161518400Y-134529918D01*
X161553547Y-134353222D01*
X161622491Y-134186776D01*
X161722583Y-134036978D01*
X161849978Y-133909583D01*
X161999776Y-133809491D01*
X162166222Y-133740547D01*
X162342918Y-133705400D01*
X162523082Y-133705400D01*
X162699778Y-133740547D01*
G37*
G36*
X165239778Y-133740547D02*
G01*
X165406224Y-133809491D01*
X165556022Y-133909583D01*
X165683417Y-134036978D01*
X165783509Y-134186776D01*
X165852453Y-134353222D01*
X165887600Y-134529918D01*
X165887600Y-134710082D01*
X165852453Y-134886778D01*
X165783509Y-135053224D01*
X165683417Y-135203022D01*
X165556022Y-135330417D01*
X165406224Y-135430509D01*
X165239778Y-135499453D01*
X165063082Y-135534600D01*
X164882918Y-135534600D01*
X164706222Y-135499453D01*
X164539776Y-135430509D01*
X164389978Y-135330417D01*
X164262583Y-135203022D01*
X164162491Y-135053224D01*
X164093547Y-134886778D01*
X164058400Y-134710082D01*
X164058400Y-134529918D01*
X164093547Y-134353222D01*
X164162491Y-134186776D01*
X164262583Y-134036978D01*
X164389978Y-133909583D01*
X164539776Y-133809491D01*
X164706222Y-133740547D01*
X164882918Y-133705400D01*
X165063082Y-133705400D01*
X165239778Y-133740547D01*
G37*
G36*
X120132778Y-133740547D02*
G01*
X120299224Y-133809491D01*
X120449022Y-133909583D01*
X120576417Y-134036978D01*
X120676509Y-134186776D01*
X120745453Y-134353222D01*
X120780600Y-134529918D01*
X120780600Y-134710082D01*
X120745453Y-134886778D01*
X120676509Y-135053224D01*
X120576417Y-135203022D01*
X120449022Y-135330417D01*
X120299224Y-135430509D01*
X120132778Y-135499453D01*
X119956082Y-135534600D01*
X119775918Y-135534600D01*
X119599222Y-135499453D01*
X119432776Y-135430509D01*
X119282978Y-135330417D01*
X119155583Y-135203022D01*
X119055491Y-135053224D01*
X118986547Y-134886778D01*
X118951400Y-134710082D01*
X118951400Y-134529918D01*
X118986547Y-134353222D01*
X119055491Y-134186776D01*
X119155583Y-134036978D01*
X119282978Y-133909583D01*
X119432776Y-133809491D01*
X119599222Y-133740547D01*
X119775918Y-133705400D01*
X119956082Y-133705400D01*
X120132778Y-133740547D01*
G37*
G36*
X132755256Y-132071298D02*
G01*
X132861579Y-132092447D01*
X133162042Y-132216903D01*
X133432451Y-132397585D01*
X133662415Y-132627549D01*
X133843097Y-132897958D01*
X133967553Y-133198421D01*
X134031000Y-133517391D01*
X134031000Y-133842609D01*
X133967553Y-134161579D01*
X133843097Y-134462042D01*
X133662415Y-134732451D01*
X133432451Y-134962415D01*
X133162042Y-135143097D01*
X132861579Y-135267553D01*
X132755256Y-135288702D01*
X132542611Y-135331000D01*
X132217389Y-135331000D01*
X132004744Y-135288702D01*
X131898421Y-135267553D01*
X131597958Y-135143097D01*
X131327549Y-134962415D01*
X131097585Y-134732451D01*
X130916903Y-134462042D01*
X130792447Y-134161579D01*
X130729000Y-133842609D01*
X130729000Y-133517391D01*
X130792447Y-133198421D01*
X130916903Y-132897958D01*
X131097585Y-132627549D01*
X131327549Y-132397585D01*
X131597958Y-132216903D01*
X131898421Y-132092447D01*
X132004744Y-132071298D01*
X132217389Y-132029000D01*
X132542611Y-132029000D01*
X132755256Y-132071298D01*
G37*
G36*
X122672778Y-131200547D02*
G01*
X122839224Y-131269491D01*
X122989022Y-131369583D01*
X123116417Y-131496978D01*
X123216509Y-131646776D01*
X123285453Y-131813222D01*
X123320600Y-131989918D01*
X123320600Y-132170082D01*
X123285453Y-132346778D01*
X123216509Y-132513224D01*
X123116417Y-132663022D01*
X122989022Y-132790417D01*
X122839224Y-132890509D01*
X122672778Y-132959453D01*
X122496082Y-132994600D01*
X122315918Y-132994600D01*
X122139222Y-132959453D01*
X121972776Y-132890509D01*
X121822978Y-132790417D01*
X121695583Y-132663022D01*
X121595491Y-132513224D01*
X121526547Y-132346778D01*
X121491400Y-132170082D01*
X121491400Y-131989918D01*
X121526547Y-131813222D01*
X121595491Y-131646776D01*
X121695583Y-131496978D01*
X121822978Y-131369583D01*
X121972776Y-131269491D01*
X122139222Y-131200547D01*
X122315918Y-131165400D01*
X122496082Y-131165400D01*
X122672778Y-131200547D01*
G37*
G36*
X162699778Y-131200547D02*
G01*
X162866224Y-131269491D01*
X163016022Y-131369583D01*
X163143417Y-131496978D01*
X163243509Y-131646776D01*
X163312453Y-131813222D01*
X163347600Y-131989918D01*
X163347600Y-132170082D01*
X163312453Y-132346778D01*
X163243509Y-132513224D01*
X163143417Y-132663022D01*
X163016022Y-132790417D01*
X162866224Y-132890509D01*
X162699778Y-132959453D01*
X162523082Y-132994600D01*
X162342918Y-132994600D01*
X162166222Y-132959453D01*
X161999776Y-132890509D01*
X161849978Y-132790417D01*
X161722583Y-132663022D01*
X161622491Y-132513224D01*
X161553547Y-132346778D01*
X161518400Y-132170082D01*
X161518400Y-131989918D01*
X161553547Y-131813222D01*
X161622491Y-131646776D01*
X161722583Y-131496978D01*
X161849978Y-131369583D01*
X161999776Y-131269491D01*
X162166222Y-131200547D01*
X162342918Y-131165400D01*
X162523082Y-131165400D01*
X162699778Y-131200547D01*
G37*
G36*
X165239778Y-131200547D02*
G01*
X165406224Y-131269491D01*
X165556022Y-131369583D01*
X165683417Y-131496978D01*
X165783509Y-131646776D01*
X165852453Y-131813222D01*
X165887600Y-131989918D01*
X165887600Y-132170082D01*
X165852453Y-132346778D01*
X165783509Y-132513224D01*
X165683417Y-132663022D01*
X165556022Y-132790417D01*
X165406224Y-132890509D01*
X165239778Y-132959453D01*
X165063082Y-132994600D01*
X164882918Y-132994600D01*
X164706222Y-132959453D01*
X164539776Y-132890509D01*
X164389978Y-132790417D01*
X164262583Y-132663022D01*
X164162491Y-132513224D01*
X164093547Y-132346778D01*
X164058400Y-132170082D01*
X164058400Y-131989918D01*
X164093547Y-131813222D01*
X164162491Y-131646776D01*
X164262583Y-131496978D01*
X164389978Y-131369583D01*
X164539776Y-131269491D01*
X164706222Y-131200547D01*
X164882918Y-131165400D01*
X165063082Y-131165400D01*
X165239778Y-131200547D01*
G37*
G36*
X120132778Y-131200547D02*
G01*
X120299224Y-131269491D01*
X120449022Y-131369583D01*
X120576417Y-131496978D01*
X120676509Y-131646776D01*
X120745453Y-131813222D01*
X120780600Y-131989918D01*
X120780600Y-132170082D01*
X120745453Y-132346778D01*
X120676509Y-132513224D01*
X120576417Y-132663022D01*
X120449022Y-132790417D01*
X120299224Y-132890509D01*
X120132778Y-132959453D01*
X119956082Y-132994600D01*
X119775918Y-132994600D01*
X119599222Y-132959453D01*
X119432776Y-132890509D01*
X119282978Y-132790417D01*
X119155583Y-132663022D01*
X119055491Y-132513224D01*
X118986547Y-132346778D01*
X118951400Y-132170082D01*
X118951400Y-131989918D01*
X118986547Y-131813222D01*
X119055491Y-131646776D01*
X119155583Y-131496978D01*
X119282978Y-131369583D01*
X119432776Y-131269491D01*
X119599222Y-131200547D01*
X119775918Y-131165400D01*
X119956082Y-131165400D01*
X120132778Y-131200547D01*
G37*
G36*
X162699778Y-128660547D02*
G01*
X162866224Y-128729491D01*
X163016022Y-128829583D01*
X163143417Y-128956978D01*
X163243509Y-129106776D01*
X163312453Y-129273222D01*
X163347600Y-129449918D01*
X163347600Y-129630082D01*
X163312453Y-129806778D01*
X163243509Y-129973224D01*
X163143417Y-130123022D01*
X163016022Y-130250417D01*
X162866224Y-130350509D01*
X162699778Y-130419453D01*
X162523082Y-130454600D01*
X162342918Y-130454600D01*
X162166222Y-130419453D01*
X161999776Y-130350509D01*
X161849978Y-130250417D01*
X161722583Y-130123022D01*
X161622491Y-129973224D01*
X161553547Y-129806778D01*
X161518400Y-129630082D01*
X161518400Y-129449918D01*
X161553547Y-129273222D01*
X161622491Y-129106776D01*
X161722583Y-128956978D01*
X161849978Y-128829583D01*
X161999776Y-128729491D01*
X162166222Y-128660547D01*
X162342918Y-128625400D01*
X162523082Y-128625400D01*
X162699778Y-128660547D01*
G37*
G36*
X165239778Y-128660547D02*
G01*
X165406224Y-128729491D01*
X165556022Y-128829583D01*
X165683417Y-128956978D01*
X165783509Y-129106776D01*
X165852453Y-129273222D01*
X165887600Y-129449918D01*
X165887600Y-129630082D01*
X165852453Y-129806778D01*
X165783509Y-129973224D01*
X165683417Y-130123022D01*
X165556022Y-130250417D01*
X165406224Y-130350509D01*
X165239778Y-130419453D01*
X165063082Y-130454600D01*
X164882918Y-130454600D01*
X164706222Y-130419453D01*
X164539776Y-130350509D01*
X164389978Y-130250417D01*
X164262583Y-130123022D01*
X164162491Y-129973224D01*
X164093547Y-129806778D01*
X164058400Y-129630082D01*
X164058400Y-129449918D01*
X164093547Y-129273222D01*
X164162491Y-129106776D01*
X164262583Y-128956978D01*
X164389978Y-128829583D01*
X164539776Y-128729491D01*
X164706222Y-128660547D01*
X164882918Y-128625400D01*
X165063082Y-128625400D01*
X165239778Y-128660547D01*
G37*
G36*
X122672778Y-128660547D02*
G01*
X122839224Y-128729491D01*
X122989022Y-128829583D01*
X123116417Y-128956978D01*
X123216509Y-129106776D01*
X123285453Y-129273222D01*
X123320600Y-129449918D01*
X123320600Y-129630082D01*
X123285453Y-129806778D01*
X123216509Y-129973224D01*
X123116417Y-130123022D01*
X122989022Y-130250417D01*
X122839224Y-130350509D01*
X122672778Y-130419453D01*
X122496082Y-130454600D01*
X122315918Y-130454600D01*
X122139222Y-130419453D01*
X121972776Y-130350509D01*
X121822978Y-130250417D01*
X121695583Y-130123022D01*
X121595491Y-129973224D01*
X121526547Y-129806778D01*
X121491400Y-129630082D01*
X121491400Y-129449918D01*
X121526547Y-129273222D01*
X121595491Y-129106776D01*
X121695583Y-128956978D01*
X121822978Y-128829583D01*
X121972776Y-128729491D01*
X122139222Y-128660547D01*
X122315918Y-128625400D01*
X122496082Y-128625400D01*
X122672778Y-128660547D01*
G37*
G36*
X120132778Y-128660547D02*
G01*
X120299224Y-128729491D01*
X120449022Y-128829583D01*
X120576417Y-128956978D01*
X120676509Y-129106776D01*
X120745453Y-129273222D01*
X120780600Y-129449918D01*
X120780600Y-129630082D01*
X120745453Y-129806778D01*
X120676509Y-129973224D01*
X120576417Y-130123022D01*
X120449022Y-130250417D01*
X120299224Y-130350509D01*
X120132778Y-130419453D01*
X119956082Y-130454600D01*
X119775918Y-130454600D01*
X119599222Y-130419453D01*
X119432776Y-130350509D01*
X119282978Y-130250417D01*
X119155583Y-130123022D01*
X119055491Y-129973224D01*
X118986547Y-129806778D01*
X118951400Y-129630082D01*
X118951400Y-129449918D01*
X118986547Y-129273222D01*
X119055491Y-129106776D01*
X119155583Y-128956978D01*
X119282978Y-128829583D01*
X119432776Y-128729491D01*
X119599222Y-128660547D01*
X119775918Y-128625400D01*
X119956082Y-128625400D01*
X120132778Y-128660547D01*
G37*
G36*
X151922378Y-126845197D02*
G01*
X151975150Y-126855694D01*
X152074570Y-126896875D01*
X152164046Y-126956661D01*
X152240139Y-127032754D01*
X152299925Y-127122230D01*
X152341106Y-127221650D01*
X152362100Y-127327194D01*
X152362100Y-127434806D01*
X152341106Y-127540350D01*
X152299925Y-127639770D01*
X152240139Y-127729246D01*
X152164046Y-127805339D01*
X152074570Y-127865125D01*
X151975150Y-127906306D01*
X151933453Y-127914600D01*
X151869607Y-127927300D01*
X151761993Y-127927300D01*
X151698147Y-127914600D01*
X151656450Y-127906306D01*
X151557030Y-127865125D01*
X151467554Y-127805339D01*
X151391461Y-127729246D01*
X151331675Y-127639770D01*
X151290494Y-127540350D01*
X151269500Y-127434806D01*
X151269500Y-127327194D01*
X151290494Y-127221650D01*
X151331675Y-127122230D01*
X151391461Y-127032754D01*
X151467554Y-126956661D01*
X151557030Y-126896875D01*
X151656450Y-126855694D01*
X151709222Y-126845197D01*
X151761993Y-126834700D01*
X151869607Y-126834700D01*
X151922378Y-126845197D01*
G37*
G36*
X165239778Y-126120547D02*
G01*
X165406224Y-126189491D01*
X165556022Y-126289583D01*
X165683417Y-126416978D01*
X165783509Y-126566776D01*
X165852453Y-126733222D01*
X165887600Y-126909918D01*
X165887600Y-127090082D01*
X165852453Y-127266778D01*
X165783509Y-127433224D01*
X165683417Y-127583022D01*
X165556022Y-127710417D01*
X165406224Y-127810509D01*
X165239778Y-127879453D01*
X165063082Y-127914600D01*
X164882918Y-127914600D01*
X164706222Y-127879453D01*
X164539776Y-127810509D01*
X164389978Y-127710417D01*
X164262583Y-127583022D01*
X164162491Y-127433224D01*
X164093547Y-127266778D01*
X164058400Y-127090082D01*
X164058400Y-126909918D01*
X164093547Y-126733222D01*
X164162491Y-126566776D01*
X164262583Y-126416978D01*
X164389978Y-126289583D01*
X164539776Y-126189491D01*
X164706222Y-126120547D01*
X164882918Y-126085400D01*
X165063082Y-126085400D01*
X165239778Y-126120547D01*
G37*
G36*
X162699778Y-126120547D02*
G01*
X162866224Y-126189491D01*
X163016022Y-126289583D01*
X163143417Y-126416978D01*
X163243509Y-126566776D01*
X163312453Y-126733222D01*
X163347600Y-126909918D01*
X163347600Y-127090082D01*
X163312453Y-127266778D01*
X163243509Y-127433224D01*
X163143417Y-127583022D01*
X163016022Y-127710417D01*
X162866224Y-127810509D01*
X162699778Y-127879453D01*
X162523082Y-127914600D01*
X162342918Y-127914600D01*
X162166222Y-127879453D01*
X161999776Y-127810509D01*
X161849978Y-127710417D01*
X161722583Y-127583022D01*
X161622491Y-127433224D01*
X161553547Y-127266778D01*
X161518400Y-127090082D01*
X161518400Y-126909918D01*
X161553547Y-126733222D01*
X161622491Y-126566776D01*
X161722583Y-126416978D01*
X161849978Y-126289583D01*
X161999776Y-126189491D01*
X162166222Y-126120547D01*
X162342918Y-126085400D01*
X162523082Y-126085400D01*
X162699778Y-126120547D01*
G37*
G36*
X120132778Y-126120547D02*
G01*
X120299224Y-126189491D01*
X120449022Y-126289583D01*
X120576417Y-126416978D01*
X120676509Y-126566776D01*
X120745453Y-126733222D01*
X120780600Y-126909918D01*
X120780600Y-127090082D01*
X120745453Y-127266778D01*
X120676509Y-127433224D01*
X120576417Y-127583022D01*
X120449022Y-127710417D01*
X120299224Y-127810509D01*
X120132778Y-127879453D01*
X119956082Y-127914600D01*
X119775918Y-127914600D01*
X119599222Y-127879453D01*
X119432776Y-127810509D01*
X119282978Y-127710417D01*
X119155583Y-127583022D01*
X119055491Y-127433224D01*
X118986547Y-127266778D01*
X118951400Y-127090082D01*
X118951400Y-126909918D01*
X118986547Y-126733222D01*
X119055491Y-126566776D01*
X119155583Y-126416978D01*
X119282978Y-126289583D01*
X119432776Y-126189491D01*
X119599222Y-126120547D01*
X119775918Y-126085400D01*
X119956082Y-126085400D01*
X120132778Y-126120547D01*
G37*
G36*
X122672778Y-126120547D02*
G01*
X122839224Y-126189491D01*
X122989022Y-126289583D01*
X123116417Y-126416978D01*
X123216509Y-126566776D01*
X123285453Y-126733222D01*
X123320600Y-126909918D01*
X123320600Y-127090082D01*
X123285453Y-127266778D01*
X123216509Y-127433224D01*
X123116417Y-127583022D01*
X122989022Y-127710417D01*
X122839224Y-127810509D01*
X122672778Y-127879453D01*
X122496082Y-127914600D01*
X122315918Y-127914600D01*
X122139222Y-127879453D01*
X121972776Y-127810509D01*
X121822978Y-127710417D01*
X121695583Y-127583022D01*
X121595491Y-127433224D01*
X121526547Y-127266778D01*
X121491400Y-127090082D01*
X121491400Y-126909918D01*
X121526547Y-126733222D01*
X121595491Y-126566776D01*
X121695583Y-126416978D01*
X121822978Y-126289583D01*
X121972776Y-126189491D01*
X122139222Y-126120547D01*
X122315918Y-126085400D01*
X122496082Y-126085400D01*
X122672778Y-126120547D01*
G37*
G36*
X131482312Y-126103927D02*
G01*
X131631612Y-126133624D01*
X131795584Y-126201544D01*
X131943154Y-126300147D01*
X132068653Y-126425646D01*
X132167256Y-126573216D01*
X132235176Y-126737188D01*
X132269800Y-126911259D01*
X132269800Y-127088741D01*
X132235176Y-127262812D01*
X132167256Y-127426784D01*
X132068653Y-127574354D01*
X131943154Y-127699853D01*
X131795584Y-127798456D01*
X131631612Y-127866376D01*
X131482312Y-127896073D01*
X131457542Y-127901000D01*
X131280058Y-127901000D01*
X131255288Y-127896073D01*
X131105988Y-127866376D01*
X130942016Y-127798456D01*
X130794446Y-127699853D01*
X130668947Y-127574354D01*
X130570344Y-127426784D01*
X130502424Y-127262812D01*
X130467800Y-127088741D01*
X130467800Y-126911259D01*
X130502424Y-126737188D01*
X130570344Y-126573216D01*
X130668947Y-126425646D01*
X130794446Y-126300147D01*
X130942016Y-126201544D01*
X131105988Y-126133624D01*
X131255288Y-126103927D01*
X131280058Y-126099000D01*
X131457542Y-126099000D01*
X131482312Y-126103927D01*
G37*
G36*
X128942312Y-126103927D02*
G01*
X129091612Y-126133624D01*
X129255584Y-126201544D01*
X129403154Y-126300147D01*
X129528653Y-126425646D01*
X129627256Y-126573216D01*
X129695176Y-126737188D01*
X129729800Y-126911259D01*
X129729800Y-127088741D01*
X129695176Y-127262812D01*
X129627256Y-127426784D01*
X129528653Y-127574354D01*
X129403154Y-127699853D01*
X129255584Y-127798456D01*
X129091612Y-127866376D01*
X128942312Y-127896073D01*
X128917542Y-127901000D01*
X128740058Y-127901000D01*
X128715288Y-127896073D01*
X128565988Y-127866376D01*
X128402016Y-127798456D01*
X128254446Y-127699853D01*
X128128947Y-127574354D01*
X128030344Y-127426784D01*
X127962424Y-127262812D01*
X127927800Y-127088741D01*
X127927800Y-126911259D01*
X127962424Y-126737188D01*
X128030344Y-126573216D01*
X128128947Y-126425646D01*
X128254446Y-126300147D01*
X128402016Y-126201544D01*
X128565988Y-126133624D01*
X128715288Y-126103927D01*
X128740058Y-126099000D01*
X128917542Y-126099000D01*
X128942312Y-126103927D01*
G37*
G36*
X139102312Y-126103927D02*
G01*
X139251612Y-126133624D01*
X139415584Y-126201544D01*
X139563154Y-126300147D01*
X139688653Y-126425646D01*
X139787256Y-126573216D01*
X139855176Y-126737188D01*
X139889800Y-126911259D01*
X139889800Y-127088741D01*
X139855176Y-127262812D01*
X139787256Y-127426784D01*
X139688653Y-127574354D01*
X139563154Y-127699853D01*
X139415584Y-127798456D01*
X139251612Y-127866376D01*
X139102312Y-127896073D01*
X139077542Y-127901000D01*
X138900058Y-127901000D01*
X138875288Y-127896073D01*
X138725988Y-127866376D01*
X138562016Y-127798456D01*
X138414446Y-127699853D01*
X138288947Y-127574354D01*
X138190344Y-127426784D01*
X138122424Y-127262812D01*
X138087800Y-127088741D01*
X138087800Y-126911259D01*
X138122424Y-126737188D01*
X138190344Y-126573216D01*
X138288947Y-126425646D01*
X138414446Y-126300147D01*
X138562016Y-126201544D01*
X138725988Y-126133624D01*
X138875288Y-126103927D01*
X138900058Y-126099000D01*
X139077542Y-126099000D01*
X139102312Y-126103927D01*
G37*
G36*
X134022312Y-126103927D02*
G01*
X134171612Y-126133624D01*
X134335584Y-126201544D01*
X134483154Y-126300147D01*
X134608653Y-126425646D01*
X134707256Y-126573216D01*
X134775176Y-126737188D01*
X134809800Y-126911259D01*
X134809800Y-127088741D01*
X134775176Y-127262812D01*
X134707256Y-127426784D01*
X134608653Y-127574354D01*
X134483154Y-127699853D01*
X134335584Y-127798456D01*
X134171612Y-127866376D01*
X134022312Y-127896073D01*
X133997542Y-127901000D01*
X133820058Y-127901000D01*
X133795288Y-127896073D01*
X133645988Y-127866376D01*
X133482016Y-127798456D01*
X133334446Y-127699853D01*
X133208947Y-127574354D01*
X133110344Y-127426784D01*
X133042424Y-127262812D01*
X133007800Y-127088741D01*
X133007800Y-126911259D01*
X133042424Y-126737188D01*
X133110344Y-126573216D01*
X133208947Y-126425646D01*
X133334446Y-126300147D01*
X133482016Y-126201544D01*
X133645988Y-126133624D01*
X133795288Y-126103927D01*
X133820058Y-126099000D01*
X133997542Y-126099000D01*
X134022312Y-126103927D01*
G37*
G36*
X136562312Y-126103927D02*
G01*
X136711612Y-126133624D01*
X136875584Y-126201544D01*
X137023154Y-126300147D01*
X137148653Y-126425646D01*
X137247256Y-126573216D01*
X137315176Y-126737188D01*
X137349800Y-126911259D01*
X137349800Y-127088741D01*
X137315176Y-127262812D01*
X137247256Y-127426784D01*
X137148653Y-127574354D01*
X137023154Y-127699853D01*
X136875584Y-127798456D01*
X136711612Y-127866376D01*
X136562312Y-127896073D01*
X136537542Y-127901000D01*
X136360058Y-127901000D01*
X136335288Y-127896073D01*
X136185988Y-127866376D01*
X136022016Y-127798456D01*
X135874446Y-127699853D01*
X135748947Y-127574354D01*
X135650344Y-127426784D01*
X135582424Y-127262812D01*
X135547800Y-127088741D01*
X135547800Y-126911259D01*
X135582424Y-126737188D01*
X135650344Y-126573216D01*
X135748947Y-126425646D01*
X135874446Y-126300147D01*
X136022016Y-126201544D01*
X136185988Y-126133624D01*
X136335288Y-126103927D01*
X136360058Y-126099000D01*
X136537542Y-126099000D01*
X136562312Y-126103927D01*
G37*
G36*
X144302378Y-125829197D02*
G01*
X144355150Y-125839694D01*
X144454570Y-125880875D01*
X144544046Y-125940661D01*
X144620139Y-126016754D01*
X144679925Y-126106230D01*
X144714413Y-126189492D01*
X144721106Y-126205651D01*
X144742100Y-126311193D01*
X144742100Y-126418807D01*
X144740739Y-126425647D01*
X144721106Y-126524350D01*
X144679925Y-126623770D01*
X144620139Y-126713246D01*
X144544046Y-126789339D01*
X144454570Y-126849125D01*
X144355150Y-126890306D01*
X144322125Y-126896875D01*
X144249607Y-126911300D01*
X144141993Y-126911300D01*
X144069475Y-126896875D01*
X144036450Y-126890306D01*
X143937030Y-126849125D01*
X143847554Y-126789339D01*
X143771461Y-126713246D01*
X143711675Y-126623770D01*
X143670494Y-126524350D01*
X143650861Y-126425647D01*
X143649500Y-126418807D01*
X143649500Y-126311193D01*
X143670494Y-126205651D01*
X143677187Y-126189492D01*
X143711675Y-126106230D01*
X143771461Y-126016754D01*
X143847554Y-125940661D01*
X143937030Y-125880875D01*
X144036450Y-125839694D01*
X144089222Y-125829197D01*
X144141993Y-125818700D01*
X144249607Y-125818700D01*
X144302378Y-125829197D01*
G37*
G36*
X151922378Y-124813197D02*
G01*
X151975150Y-124823694D01*
X152074570Y-124864875D01*
X152164046Y-124924661D01*
X152240139Y-125000754D01*
X152299925Y-125090230D01*
X152341106Y-125189650D01*
X152362100Y-125295194D01*
X152362100Y-125402806D01*
X152341106Y-125508350D01*
X152299925Y-125607770D01*
X152240139Y-125697246D01*
X152164046Y-125773339D01*
X152074570Y-125833125D01*
X151975150Y-125874306D01*
X151942125Y-125880875D01*
X151869607Y-125895300D01*
X151761993Y-125895300D01*
X151689475Y-125880875D01*
X151656450Y-125874306D01*
X151557030Y-125833125D01*
X151467554Y-125773339D01*
X151391461Y-125697246D01*
X151331675Y-125607770D01*
X151290494Y-125508350D01*
X151269500Y-125402806D01*
X151269500Y-125295194D01*
X151290494Y-125189650D01*
X151331675Y-125090230D01*
X151391461Y-125000754D01*
X151467554Y-124924661D01*
X151557030Y-124864875D01*
X151656450Y-124823694D01*
X151709222Y-124813197D01*
X151761993Y-124802700D01*
X151869607Y-124802700D01*
X151922378Y-124813197D01*
G37*
G36*
X162699778Y-123580547D02*
G01*
X162866224Y-123649491D01*
X163016022Y-123749583D01*
X163143417Y-123876978D01*
X163243509Y-124026776D01*
X163312453Y-124193222D01*
X163347600Y-124369918D01*
X163347600Y-124550082D01*
X163312453Y-124726778D01*
X163243509Y-124893224D01*
X163143417Y-125043022D01*
X163016022Y-125170417D01*
X162866224Y-125270509D01*
X162699778Y-125339453D01*
X162523082Y-125374600D01*
X162342918Y-125374600D01*
X162166222Y-125339453D01*
X161999776Y-125270509D01*
X161849978Y-125170417D01*
X161722583Y-125043022D01*
X161622491Y-124893224D01*
X161553547Y-124726778D01*
X161518400Y-124550082D01*
X161518400Y-124369918D01*
X161553547Y-124193222D01*
X161622491Y-124026776D01*
X161722583Y-123876978D01*
X161849978Y-123749583D01*
X161999776Y-123649491D01*
X162166222Y-123580547D01*
X162342918Y-123545400D01*
X162523082Y-123545400D01*
X162699778Y-123580547D01*
G37*
G36*
X165239778Y-123580547D02*
G01*
X165406224Y-123649491D01*
X165556022Y-123749583D01*
X165683417Y-123876978D01*
X165783509Y-124026776D01*
X165852453Y-124193222D01*
X165887600Y-124369918D01*
X165887600Y-124550082D01*
X165852453Y-124726778D01*
X165783509Y-124893224D01*
X165683417Y-125043022D01*
X165556022Y-125170417D01*
X165406224Y-125270509D01*
X165239778Y-125339453D01*
X165063082Y-125374600D01*
X164882918Y-125374600D01*
X164706222Y-125339453D01*
X164539776Y-125270509D01*
X164389978Y-125170417D01*
X164262583Y-125043022D01*
X164162491Y-124893224D01*
X164093547Y-124726778D01*
X164058400Y-124550082D01*
X164058400Y-124369918D01*
X164093547Y-124193222D01*
X164162491Y-124026776D01*
X164262583Y-123876978D01*
X164389978Y-123749583D01*
X164539776Y-123649491D01*
X164706222Y-123580547D01*
X164882918Y-123545400D01*
X165063082Y-123545400D01*
X165239778Y-123580547D01*
G37*
G36*
X122672778Y-123580547D02*
G01*
X122839224Y-123649491D01*
X122989022Y-123749583D01*
X123116417Y-123876978D01*
X123216509Y-124026776D01*
X123285453Y-124193222D01*
X123320600Y-124369918D01*
X123320600Y-124550082D01*
X123285453Y-124726778D01*
X123216509Y-124893224D01*
X123116417Y-125043022D01*
X122989022Y-125170417D01*
X122839224Y-125270509D01*
X122672778Y-125339453D01*
X122496082Y-125374600D01*
X122315918Y-125374600D01*
X122139222Y-125339453D01*
X121972776Y-125270509D01*
X121822978Y-125170417D01*
X121695583Y-125043022D01*
X121595491Y-124893224D01*
X121526547Y-124726778D01*
X121491400Y-124550082D01*
X121491400Y-124369918D01*
X121526547Y-124193222D01*
X121595491Y-124026776D01*
X121695583Y-123876978D01*
X121822978Y-123749583D01*
X121972776Y-123649491D01*
X122139222Y-123580547D01*
X122315918Y-123545400D01*
X122496082Y-123545400D01*
X122672778Y-123580547D01*
G37*
G36*
X120132778Y-123580547D02*
G01*
X120299224Y-123649491D01*
X120449022Y-123749583D01*
X120576417Y-123876978D01*
X120676509Y-124026776D01*
X120745453Y-124193222D01*
X120780600Y-124369918D01*
X120780600Y-124550082D01*
X120745453Y-124726778D01*
X120676509Y-124893224D01*
X120576417Y-125043022D01*
X120449022Y-125170417D01*
X120299224Y-125270509D01*
X120132778Y-125339453D01*
X119956082Y-125374600D01*
X119775918Y-125374600D01*
X119599222Y-125339453D01*
X119432776Y-125270509D01*
X119282978Y-125170417D01*
X119155583Y-125043022D01*
X119055491Y-124893224D01*
X118986547Y-124726778D01*
X118951400Y-124550082D01*
X118951400Y-124369918D01*
X118986547Y-124193222D01*
X119055491Y-124026776D01*
X119155583Y-123876978D01*
X119282978Y-123749583D01*
X119432776Y-123649491D01*
X119599222Y-123580547D01*
X119775918Y-123545400D01*
X119956082Y-123545400D01*
X120132778Y-123580547D01*
G37*
G36*
X139889800Y-125361000D02*
G01*
X138087800Y-125361000D01*
X138087800Y-123559000D01*
X139889800Y-123559000D01*
X139889800Y-125361000D01*
G37*
G36*
X131482312Y-123563927D02*
G01*
X131631612Y-123593624D01*
X131795584Y-123661544D01*
X131943154Y-123760147D01*
X132068653Y-123885646D01*
X132167256Y-124033216D01*
X132235176Y-124197188D01*
X132269800Y-124371259D01*
X132269800Y-124548741D01*
X132235176Y-124722812D01*
X132167256Y-124886784D01*
X132068653Y-125034354D01*
X131943154Y-125159853D01*
X131795584Y-125258456D01*
X131631612Y-125326376D01*
X131482312Y-125356073D01*
X131457542Y-125361000D01*
X131280058Y-125361000D01*
X131255288Y-125356073D01*
X131105988Y-125326376D01*
X130942016Y-125258456D01*
X130794446Y-125159853D01*
X130668947Y-125034354D01*
X130570344Y-124886784D01*
X130502424Y-124722812D01*
X130467800Y-124548741D01*
X130467800Y-124371259D01*
X130502424Y-124197188D01*
X130570344Y-124033216D01*
X130668947Y-123885646D01*
X130794446Y-123760147D01*
X130942016Y-123661544D01*
X131105988Y-123593624D01*
X131255288Y-123563927D01*
X131280058Y-123559000D01*
X131457542Y-123559000D01*
X131482312Y-123563927D01*
G37*
G36*
X134022312Y-123563927D02*
G01*
X134171612Y-123593624D01*
X134335584Y-123661544D01*
X134483154Y-123760147D01*
X134608653Y-123885646D01*
X134707256Y-124033216D01*
X134775176Y-124197188D01*
X134809800Y-124371259D01*
X134809800Y-124548741D01*
X134775176Y-124722812D01*
X134707256Y-124886784D01*
X134608653Y-125034354D01*
X134483154Y-125159853D01*
X134335584Y-125258456D01*
X134171612Y-125326376D01*
X134022312Y-125356073D01*
X133997542Y-125361000D01*
X133820058Y-125361000D01*
X133795288Y-125356073D01*
X133645988Y-125326376D01*
X133482016Y-125258456D01*
X133334446Y-125159853D01*
X133208947Y-125034354D01*
X133110344Y-124886784D01*
X133042424Y-124722812D01*
X133007800Y-124548741D01*
X133007800Y-124371259D01*
X133042424Y-124197188D01*
X133110344Y-124033216D01*
X133208947Y-123885646D01*
X133334446Y-123760147D01*
X133482016Y-123661544D01*
X133645988Y-123593624D01*
X133795288Y-123563927D01*
X133820058Y-123559000D01*
X133997542Y-123559000D01*
X134022312Y-123563927D01*
G37*
G36*
X128942312Y-123563927D02*
G01*
X129091612Y-123593624D01*
X129255584Y-123661544D01*
X129403154Y-123760147D01*
X129528653Y-123885646D01*
X129627256Y-124033216D01*
X129695176Y-124197188D01*
X129729800Y-124371259D01*
X129729800Y-124548741D01*
X129695176Y-124722812D01*
X129627256Y-124886784D01*
X129528653Y-125034354D01*
X129403154Y-125159853D01*
X129255584Y-125258456D01*
X129091612Y-125326376D01*
X128942312Y-125356073D01*
X128917542Y-125361000D01*
X128740058Y-125361000D01*
X128715288Y-125356073D01*
X128565988Y-125326376D01*
X128402016Y-125258456D01*
X128254446Y-125159853D01*
X128128947Y-125034354D01*
X128030344Y-124886784D01*
X127962424Y-124722812D01*
X127927800Y-124548741D01*
X127927800Y-124371259D01*
X127962424Y-124197188D01*
X128030344Y-124033216D01*
X128128947Y-123885646D01*
X128254446Y-123760147D01*
X128402016Y-123661544D01*
X128565988Y-123593624D01*
X128715288Y-123563927D01*
X128740058Y-123559000D01*
X128917542Y-123559000D01*
X128942312Y-123563927D01*
G37*
G36*
X136562312Y-123563927D02*
G01*
X136711612Y-123593624D01*
X136875584Y-123661544D01*
X137023154Y-123760147D01*
X137148653Y-123885646D01*
X137247256Y-124033216D01*
X137315176Y-124197188D01*
X137349800Y-124371259D01*
X137349800Y-124548741D01*
X137315176Y-124722812D01*
X137247256Y-124886784D01*
X137148653Y-125034354D01*
X137023154Y-125159853D01*
X136875584Y-125258456D01*
X136711612Y-125326376D01*
X136562312Y-125356073D01*
X136537542Y-125361000D01*
X136360058Y-125361000D01*
X136335288Y-125356073D01*
X136185988Y-125326376D01*
X136022016Y-125258456D01*
X135874446Y-125159853D01*
X135748947Y-125034354D01*
X135650344Y-124886784D01*
X135582424Y-124722812D01*
X135547800Y-124548741D01*
X135547800Y-124371259D01*
X135582424Y-124197188D01*
X135650344Y-124033216D01*
X135748947Y-123885646D01*
X135874446Y-123760147D01*
X136022016Y-123661544D01*
X136185988Y-123593624D01*
X136335288Y-123563927D01*
X136360058Y-123559000D01*
X136537542Y-123559000D01*
X136562312Y-123563927D01*
G37*
G36*
X122672778Y-121040547D02*
G01*
X122839224Y-121109491D01*
X122989022Y-121209583D01*
X123116417Y-121336978D01*
X123216509Y-121486776D01*
X123285453Y-121653222D01*
X123320600Y-121829918D01*
X123320600Y-122010082D01*
X123285453Y-122186778D01*
X123216509Y-122353224D01*
X123116417Y-122503022D01*
X122989022Y-122630417D01*
X122839224Y-122730509D01*
X122672778Y-122799453D01*
X122496082Y-122834600D01*
X122315918Y-122834600D01*
X122139222Y-122799453D01*
X121972776Y-122730509D01*
X121822978Y-122630417D01*
X121695583Y-122503022D01*
X121595491Y-122353224D01*
X121526547Y-122186778D01*
X121491400Y-122010082D01*
X121491400Y-121829918D01*
X121526547Y-121653222D01*
X121595491Y-121486776D01*
X121695583Y-121336978D01*
X121822978Y-121209583D01*
X121972776Y-121109491D01*
X122139222Y-121040547D01*
X122315918Y-121005400D01*
X122496082Y-121005400D01*
X122672778Y-121040547D01*
G37*
G36*
X120132778Y-121040547D02*
G01*
X120299224Y-121109491D01*
X120449022Y-121209583D01*
X120576417Y-121336978D01*
X120676509Y-121486776D01*
X120745453Y-121653222D01*
X120780600Y-121829918D01*
X120780600Y-122010082D01*
X120745453Y-122186778D01*
X120676509Y-122353224D01*
X120576417Y-122503022D01*
X120449022Y-122630417D01*
X120299224Y-122730509D01*
X120132778Y-122799453D01*
X119956082Y-122834600D01*
X119775918Y-122834600D01*
X119599222Y-122799453D01*
X119432776Y-122730509D01*
X119282978Y-122630417D01*
X119155583Y-122503022D01*
X119055491Y-122353224D01*
X118986547Y-122186778D01*
X118951400Y-122010082D01*
X118951400Y-121829918D01*
X118986547Y-121653222D01*
X119055491Y-121486776D01*
X119155583Y-121336978D01*
X119282978Y-121209583D01*
X119432776Y-121109491D01*
X119599222Y-121040547D01*
X119775918Y-121005400D01*
X119956082Y-121005400D01*
X120132778Y-121040547D01*
G37*
G36*
X162699778Y-121040547D02*
G01*
X162866224Y-121109491D01*
X163016022Y-121209583D01*
X163143417Y-121336978D01*
X163243509Y-121486776D01*
X163312453Y-121653222D01*
X163347600Y-121829918D01*
X163347600Y-122010082D01*
X163312453Y-122186778D01*
X163243509Y-122353224D01*
X163143417Y-122503022D01*
X163016022Y-122630417D01*
X162866224Y-122730509D01*
X162699778Y-122799453D01*
X162523082Y-122834600D01*
X162342918Y-122834600D01*
X162166222Y-122799453D01*
X161999776Y-122730509D01*
X161849978Y-122630417D01*
X161722583Y-122503022D01*
X161622491Y-122353224D01*
X161553547Y-122186778D01*
X161518400Y-122010082D01*
X161518400Y-121829918D01*
X161553547Y-121653222D01*
X161622491Y-121486776D01*
X161722583Y-121336978D01*
X161849978Y-121209583D01*
X161999776Y-121109491D01*
X162166222Y-121040547D01*
X162342918Y-121005400D01*
X162523082Y-121005400D01*
X162699778Y-121040547D01*
G37*
G36*
X165239778Y-121040547D02*
G01*
X165406224Y-121109491D01*
X165556022Y-121209583D01*
X165683417Y-121336978D01*
X165783509Y-121486776D01*
X165852453Y-121653222D01*
X165887600Y-121829918D01*
X165887600Y-122010082D01*
X165852453Y-122186778D01*
X165783509Y-122353224D01*
X165683417Y-122503022D01*
X165556022Y-122630417D01*
X165406224Y-122730509D01*
X165239778Y-122799453D01*
X165063082Y-122834600D01*
X164882918Y-122834600D01*
X164706222Y-122799453D01*
X164539776Y-122730509D01*
X164389978Y-122630417D01*
X164262583Y-122503022D01*
X164162491Y-122353224D01*
X164093547Y-122186778D01*
X164058400Y-122010082D01*
X164058400Y-121829918D01*
X164093547Y-121653222D01*
X164162491Y-121486776D01*
X164262583Y-121336978D01*
X164389978Y-121209583D01*
X164539776Y-121109491D01*
X164706222Y-121040547D01*
X164882918Y-121005400D01*
X165063082Y-121005400D01*
X165239778Y-121040547D01*
G37*
G36*
X165239778Y-118500547D02*
G01*
X165406224Y-118569491D01*
X165556022Y-118669583D01*
X165683417Y-118796978D01*
X165783509Y-118946776D01*
X165852453Y-119113222D01*
X165887600Y-119289918D01*
X165887600Y-119470082D01*
X165852453Y-119646778D01*
X165783509Y-119813224D01*
X165683417Y-119963022D01*
X165556022Y-120090417D01*
X165406224Y-120190509D01*
X165239778Y-120259453D01*
X165063082Y-120294600D01*
X164882918Y-120294600D01*
X164706222Y-120259453D01*
X164539776Y-120190509D01*
X164389978Y-120090417D01*
X164262583Y-119963022D01*
X164162491Y-119813224D01*
X164093547Y-119646778D01*
X164058400Y-119470082D01*
X164058400Y-119289918D01*
X164093547Y-119113222D01*
X164162491Y-118946776D01*
X164262583Y-118796978D01*
X164389978Y-118669583D01*
X164539776Y-118569491D01*
X164706222Y-118500547D01*
X164882918Y-118465400D01*
X165063082Y-118465400D01*
X165239778Y-118500547D01*
G37*
G36*
X122672778Y-118500547D02*
G01*
X122839224Y-118569491D01*
X122989022Y-118669583D01*
X123116417Y-118796978D01*
X123216509Y-118946776D01*
X123285453Y-119113222D01*
X123320600Y-119289918D01*
X123320600Y-119470082D01*
X123285453Y-119646778D01*
X123216509Y-119813224D01*
X123116417Y-119963022D01*
X122989022Y-120090417D01*
X122839224Y-120190509D01*
X122672778Y-120259453D01*
X122496082Y-120294600D01*
X122315918Y-120294600D01*
X122139222Y-120259453D01*
X121972776Y-120190509D01*
X121822978Y-120090417D01*
X121695583Y-119963022D01*
X121595491Y-119813224D01*
X121526547Y-119646778D01*
X121491400Y-119470082D01*
X121491400Y-119289918D01*
X121526547Y-119113222D01*
X121595491Y-118946776D01*
X121695583Y-118796978D01*
X121822978Y-118669583D01*
X121972776Y-118569491D01*
X122139222Y-118500547D01*
X122315918Y-118465400D01*
X122496082Y-118465400D01*
X122672778Y-118500547D01*
G37*
G36*
X120132778Y-118500547D02*
G01*
X120299224Y-118569491D01*
X120449022Y-118669583D01*
X120576417Y-118796978D01*
X120676509Y-118946776D01*
X120745453Y-119113222D01*
X120780600Y-119289918D01*
X120780600Y-119470082D01*
X120745453Y-119646778D01*
X120676509Y-119813224D01*
X120576417Y-119963022D01*
X120449022Y-120090417D01*
X120299224Y-120190509D01*
X120132778Y-120259453D01*
X119956082Y-120294600D01*
X119775918Y-120294600D01*
X119599222Y-120259453D01*
X119432776Y-120190509D01*
X119282978Y-120090417D01*
X119155583Y-119963022D01*
X119055491Y-119813224D01*
X118986547Y-119646778D01*
X118951400Y-119470082D01*
X118951400Y-119289918D01*
X118986547Y-119113222D01*
X119055491Y-118946776D01*
X119155583Y-118796978D01*
X119282978Y-118669583D01*
X119432776Y-118569491D01*
X119599222Y-118500547D01*
X119775918Y-118465400D01*
X119956082Y-118465400D01*
X120132778Y-118500547D01*
G37*
G36*
X162699778Y-118500547D02*
G01*
X162866224Y-118569491D01*
X163016022Y-118669583D01*
X163143417Y-118796978D01*
X163243509Y-118946776D01*
X163312453Y-119113222D01*
X163347600Y-119289918D01*
X163347600Y-119470082D01*
X163312453Y-119646778D01*
X163243509Y-119813224D01*
X163143417Y-119963022D01*
X163016022Y-120090417D01*
X162866224Y-120190509D01*
X162699778Y-120259453D01*
X162523082Y-120294600D01*
X162342918Y-120294600D01*
X162166222Y-120259453D01*
X161999776Y-120190509D01*
X161849978Y-120090417D01*
X161722583Y-119963022D01*
X161622491Y-119813224D01*
X161553547Y-119646778D01*
X161518400Y-119470082D01*
X161518400Y-119289918D01*
X161553547Y-119113222D01*
X161622491Y-118946776D01*
X161722583Y-118796978D01*
X161849978Y-118669583D01*
X161999776Y-118569491D01*
X162166222Y-118500547D01*
X162342918Y-118465400D01*
X162523082Y-118465400D01*
X162699778Y-118500547D01*
G37*
G36*
X162699778Y-115960547D02*
G01*
X162866224Y-116029491D01*
X163016022Y-116129583D01*
X163143417Y-116256978D01*
X163243509Y-116406776D01*
X163312453Y-116573222D01*
X163347600Y-116749918D01*
X163347600Y-116930082D01*
X163312453Y-117106778D01*
X163243509Y-117273224D01*
X163143417Y-117423022D01*
X163016022Y-117550417D01*
X162866224Y-117650509D01*
X162699778Y-117719453D01*
X162523082Y-117754600D01*
X162342918Y-117754600D01*
X162166222Y-117719453D01*
X161999776Y-117650509D01*
X161849978Y-117550417D01*
X161722583Y-117423022D01*
X161622491Y-117273224D01*
X161553547Y-117106778D01*
X161518400Y-116930082D01*
X161518400Y-116749918D01*
X161553547Y-116573222D01*
X161622491Y-116406776D01*
X161722583Y-116256978D01*
X161849978Y-116129583D01*
X161999776Y-116029491D01*
X162166222Y-115960547D01*
X162342918Y-115925400D01*
X162523082Y-115925400D01*
X162699778Y-115960547D01*
G37*
G36*
X165239778Y-115960547D02*
G01*
X165406224Y-116029491D01*
X165556022Y-116129583D01*
X165683417Y-116256978D01*
X165783509Y-116406776D01*
X165852453Y-116573222D01*
X165887600Y-116749918D01*
X165887600Y-116930082D01*
X165852453Y-117106778D01*
X165783509Y-117273224D01*
X165683417Y-117423022D01*
X165556022Y-117550417D01*
X165406224Y-117650509D01*
X165239778Y-117719453D01*
X165063082Y-117754600D01*
X164882918Y-117754600D01*
X164706222Y-117719453D01*
X164539776Y-117650509D01*
X164389978Y-117550417D01*
X164262583Y-117423022D01*
X164162491Y-117273224D01*
X164093547Y-117106778D01*
X164058400Y-116930082D01*
X164058400Y-116749918D01*
X164093547Y-116573222D01*
X164162491Y-116406776D01*
X164262583Y-116256978D01*
X164389978Y-116129583D01*
X164539776Y-116029491D01*
X164706222Y-115960547D01*
X164882918Y-115925400D01*
X165063082Y-115925400D01*
X165239778Y-115960547D01*
G37*
G36*
X122672778Y-115960547D02*
G01*
X122839224Y-116029491D01*
X122989022Y-116129583D01*
X123116417Y-116256978D01*
X123216509Y-116406776D01*
X123285453Y-116573222D01*
X123320600Y-116749918D01*
X123320600Y-116930082D01*
X123285453Y-117106778D01*
X123216509Y-117273224D01*
X123116417Y-117423022D01*
X122989022Y-117550417D01*
X122839224Y-117650509D01*
X122672778Y-117719453D01*
X122496082Y-117754600D01*
X122315918Y-117754600D01*
X122139222Y-117719453D01*
X121972776Y-117650509D01*
X121822978Y-117550417D01*
X121695583Y-117423022D01*
X121595491Y-117273224D01*
X121526547Y-117106778D01*
X121491400Y-116930082D01*
X121491400Y-116749918D01*
X121526547Y-116573222D01*
X121595491Y-116406776D01*
X121695583Y-116256978D01*
X121822978Y-116129583D01*
X121972776Y-116029491D01*
X122139222Y-115960547D01*
X122315918Y-115925400D01*
X122496082Y-115925400D01*
X122672778Y-115960547D01*
G37*
G36*
X120132778Y-115960547D02*
G01*
X120299224Y-116029491D01*
X120449022Y-116129583D01*
X120576417Y-116256978D01*
X120676509Y-116406776D01*
X120745453Y-116573222D01*
X120780600Y-116749918D01*
X120780600Y-116930082D01*
X120745453Y-117106778D01*
X120676509Y-117273224D01*
X120576417Y-117423022D01*
X120449022Y-117550417D01*
X120299224Y-117650509D01*
X120132778Y-117719453D01*
X119956082Y-117754600D01*
X119775918Y-117754600D01*
X119599222Y-117719453D01*
X119432776Y-117650509D01*
X119282978Y-117550417D01*
X119155583Y-117423022D01*
X119055491Y-117273224D01*
X118986547Y-117106778D01*
X118951400Y-116930082D01*
X118951400Y-116749918D01*
X118986547Y-116573222D01*
X119055491Y-116406776D01*
X119155583Y-116256978D01*
X119282978Y-116129583D01*
X119432776Y-116029491D01*
X119599222Y-115960547D01*
X119775918Y-115925400D01*
X119956082Y-115925400D01*
X120132778Y-115960547D01*
G37*
G36*
X162699778Y-113420547D02*
G01*
X162866224Y-113489491D01*
X163016022Y-113589583D01*
X163143417Y-113716978D01*
X163243509Y-113866776D01*
X163312453Y-114033222D01*
X163347600Y-114209918D01*
X163347600Y-114390082D01*
X163312453Y-114566778D01*
X163243509Y-114733224D01*
X163143417Y-114883022D01*
X163016022Y-115010417D01*
X162866224Y-115110509D01*
X162699778Y-115179453D01*
X162523082Y-115214600D01*
X162342918Y-115214600D01*
X162166222Y-115179453D01*
X161999776Y-115110509D01*
X161849978Y-115010417D01*
X161722583Y-114883022D01*
X161622491Y-114733224D01*
X161553547Y-114566778D01*
X161518400Y-114390082D01*
X161518400Y-114209918D01*
X161553547Y-114033222D01*
X161622491Y-113866776D01*
X161722583Y-113716978D01*
X161849978Y-113589583D01*
X161999776Y-113489491D01*
X162166222Y-113420547D01*
X162342918Y-113385400D01*
X162523082Y-113385400D01*
X162699778Y-113420547D01*
G37*
G36*
X120132778Y-113420547D02*
G01*
X120299224Y-113489491D01*
X120449022Y-113589583D01*
X120576417Y-113716978D01*
X120676509Y-113866776D01*
X120745453Y-114033222D01*
X120780600Y-114209918D01*
X120780600Y-114390082D01*
X120745453Y-114566778D01*
X120676509Y-114733224D01*
X120576417Y-114883022D01*
X120449022Y-115010417D01*
X120299224Y-115110509D01*
X120132778Y-115179453D01*
X119956082Y-115214600D01*
X119775918Y-115214600D01*
X119599222Y-115179453D01*
X119432776Y-115110509D01*
X119282978Y-115010417D01*
X119155583Y-114883022D01*
X119055491Y-114733224D01*
X118986547Y-114566778D01*
X118951400Y-114390082D01*
X118951400Y-114209918D01*
X118986547Y-114033222D01*
X119055491Y-113866776D01*
X119155583Y-113716978D01*
X119282978Y-113589583D01*
X119432776Y-113489491D01*
X119599222Y-113420547D01*
X119775918Y-113385400D01*
X119956082Y-113385400D01*
X120132778Y-113420547D01*
G37*
G36*
X122672778Y-113420547D02*
G01*
X122839224Y-113489491D01*
X122989022Y-113589583D01*
X123116417Y-113716978D01*
X123216509Y-113866776D01*
X123285453Y-114033222D01*
X123320600Y-114209918D01*
X123320600Y-114390082D01*
X123285453Y-114566778D01*
X123216509Y-114733224D01*
X123116417Y-114883022D01*
X122989022Y-115010417D01*
X122839224Y-115110509D01*
X122672778Y-115179453D01*
X122496082Y-115214600D01*
X122315918Y-115214600D01*
X122139222Y-115179453D01*
X121972776Y-115110509D01*
X121822978Y-115010417D01*
X121695583Y-114883022D01*
X121595491Y-114733224D01*
X121526547Y-114566778D01*
X121491400Y-114390082D01*
X121491400Y-114209918D01*
X121526547Y-114033222D01*
X121595491Y-113866776D01*
X121695583Y-113716978D01*
X121822978Y-113589583D01*
X121972776Y-113489491D01*
X122139222Y-113420547D01*
X122315918Y-113385400D01*
X122496082Y-113385400D01*
X122672778Y-113420547D01*
G37*
G36*
X165239778Y-113420547D02*
G01*
X165406224Y-113489491D01*
X165556022Y-113589583D01*
X165683417Y-113716978D01*
X165783509Y-113866776D01*
X165852453Y-114033222D01*
X165887600Y-114209918D01*
X165887600Y-114390082D01*
X165852453Y-114566778D01*
X165783509Y-114733224D01*
X165683417Y-114883022D01*
X165556022Y-115010417D01*
X165406224Y-115110509D01*
X165239778Y-115179453D01*
X165063082Y-115214600D01*
X164882918Y-115214600D01*
X164706222Y-115179453D01*
X164539776Y-115110509D01*
X164389978Y-115010417D01*
X164262583Y-114883022D01*
X164162491Y-114733224D01*
X164093547Y-114566778D01*
X164058400Y-114390082D01*
X164058400Y-114209918D01*
X164093547Y-114033222D01*
X164162491Y-113866776D01*
X164262583Y-113716978D01*
X164389978Y-113589583D01*
X164539776Y-113489491D01*
X164706222Y-113420547D01*
X164882918Y-113385400D01*
X165063082Y-113385400D01*
X165239778Y-113420547D01*
G37*
G36*
X162699778Y-110880547D02*
G01*
X162866224Y-110949491D01*
X163016022Y-111049583D01*
X163143417Y-111176978D01*
X163243509Y-111326776D01*
X163312453Y-111493222D01*
X163347600Y-111669918D01*
X163347600Y-111850082D01*
X163312453Y-112026778D01*
X163243509Y-112193224D01*
X163143417Y-112343022D01*
X163016022Y-112470417D01*
X162866224Y-112570509D01*
X162699778Y-112639453D01*
X162523082Y-112674600D01*
X162342918Y-112674600D01*
X162166222Y-112639453D01*
X161999776Y-112570509D01*
X161849978Y-112470417D01*
X161722583Y-112343022D01*
X161622491Y-112193224D01*
X161553547Y-112026778D01*
X161518400Y-111850082D01*
X161518400Y-111669918D01*
X161553547Y-111493222D01*
X161622491Y-111326776D01*
X161722583Y-111176978D01*
X161849978Y-111049583D01*
X161999776Y-110949491D01*
X162166222Y-110880547D01*
X162342918Y-110845400D01*
X162523082Y-110845400D01*
X162699778Y-110880547D01*
G37*
G36*
X122672778Y-110880547D02*
G01*
X122839224Y-110949491D01*
X122989022Y-111049583D01*
X123116417Y-111176978D01*
X123216509Y-111326776D01*
X123285453Y-111493222D01*
X123320600Y-111669918D01*
X123320600Y-111850082D01*
X123285453Y-112026778D01*
X123216509Y-112193224D01*
X123116417Y-112343022D01*
X122989022Y-112470417D01*
X122839224Y-112570509D01*
X122672778Y-112639453D01*
X122496082Y-112674600D01*
X122315918Y-112674600D01*
X122139222Y-112639453D01*
X121972776Y-112570509D01*
X121822978Y-112470417D01*
X121695583Y-112343022D01*
X121595491Y-112193224D01*
X121526547Y-112026778D01*
X121491400Y-111850082D01*
X121491400Y-111669918D01*
X121526547Y-111493222D01*
X121595491Y-111326776D01*
X121695583Y-111176978D01*
X121822978Y-111049583D01*
X121972776Y-110949491D01*
X122139222Y-110880547D01*
X122315918Y-110845400D01*
X122496082Y-110845400D01*
X122672778Y-110880547D01*
G37*
G36*
X120132778Y-110880547D02*
G01*
X120299224Y-110949491D01*
X120449022Y-111049583D01*
X120576417Y-111176978D01*
X120676509Y-111326776D01*
X120745453Y-111493222D01*
X120780600Y-111669918D01*
X120780600Y-111850082D01*
X120745453Y-112026778D01*
X120676509Y-112193224D01*
X120576417Y-112343022D01*
X120449022Y-112470417D01*
X120299224Y-112570509D01*
X120132778Y-112639453D01*
X119956082Y-112674600D01*
X119775918Y-112674600D01*
X119599222Y-112639453D01*
X119432776Y-112570509D01*
X119282978Y-112470417D01*
X119155583Y-112343022D01*
X119055491Y-112193224D01*
X118986547Y-112026778D01*
X118951400Y-111850082D01*
X118951400Y-111669918D01*
X118986547Y-111493222D01*
X119055491Y-111326776D01*
X119155583Y-111176978D01*
X119282978Y-111049583D01*
X119432776Y-110949491D01*
X119599222Y-110880547D01*
X119775918Y-110845400D01*
X119956082Y-110845400D01*
X120132778Y-110880547D01*
G37*
G36*
X165239778Y-110880547D02*
G01*
X165406224Y-110949491D01*
X165556022Y-111049583D01*
X165683417Y-111176978D01*
X165783509Y-111326776D01*
X165852453Y-111493222D01*
X165887600Y-111669918D01*
X165887600Y-111850082D01*
X165852453Y-112026778D01*
X165783509Y-112193224D01*
X165683417Y-112343022D01*
X165556022Y-112470417D01*
X165406224Y-112570509D01*
X165239778Y-112639453D01*
X165063082Y-112674600D01*
X164882918Y-112674600D01*
X164706222Y-112639453D01*
X164539776Y-112570509D01*
X164389978Y-112470417D01*
X164262583Y-112343022D01*
X164162491Y-112193224D01*
X164093547Y-112026778D01*
X164058400Y-111850082D01*
X164058400Y-111669918D01*
X164093547Y-111493222D01*
X164162491Y-111326776D01*
X164262583Y-111176978D01*
X164389978Y-111049583D01*
X164539776Y-110949491D01*
X164706222Y-110880547D01*
X164882918Y-110845400D01*
X165063082Y-110845400D01*
X165239778Y-110880547D01*
G37*
G36*
X165239778Y-108340547D02*
G01*
X165406224Y-108409491D01*
X165556022Y-108509583D01*
X165683417Y-108636978D01*
X165783509Y-108786776D01*
X165852453Y-108953222D01*
X165887600Y-109129918D01*
X165887600Y-109310082D01*
X165852453Y-109486778D01*
X165783509Y-109653224D01*
X165683417Y-109803022D01*
X165556022Y-109930417D01*
X165406224Y-110030509D01*
X165239778Y-110099453D01*
X165063082Y-110134600D01*
X164882918Y-110134600D01*
X164706222Y-110099453D01*
X164539776Y-110030509D01*
X164389978Y-109930417D01*
X164262583Y-109803022D01*
X164162491Y-109653224D01*
X164093547Y-109486778D01*
X164058400Y-109310082D01*
X164058400Y-109129918D01*
X164093547Y-108953222D01*
X164162491Y-108786776D01*
X164262583Y-108636978D01*
X164389978Y-108509583D01*
X164539776Y-108409491D01*
X164706222Y-108340547D01*
X164882918Y-108305400D01*
X165063082Y-108305400D01*
X165239778Y-108340547D01*
G37*
G36*
X122672778Y-108340547D02*
G01*
X122839224Y-108409491D01*
X122989022Y-108509583D01*
X123116417Y-108636978D01*
X123216509Y-108786776D01*
X123285453Y-108953222D01*
X123320600Y-109129918D01*
X123320600Y-109310082D01*
X123285453Y-109486778D01*
X123216509Y-109653224D01*
X123116417Y-109803022D01*
X122989022Y-109930417D01*
X122839224Y-110030509D01*
X122672778Y-110099453D01*
X122496082Y-110134600D01*
X122315918Y-110134600D01*
X122139222Y-110099453D01*
X121972776Y-110030509D01*
X121822978Y-109930417D01*
X121695583Y-109803022D01*
X121595491Y-109653224D01*
X121526547Y-109486778D01*
X121491400Y-109310082D01*
X121491400Y-109129918D01*
X121526547Y-108953222D01*
X121595491Y-108786776D01*
X121695583Y-108636978D01*
X121822978Y-108509583D01*
X121972776Y-108409491D01*
X122139222Y-108340547D01*
X122315918Y-108305400D01*
X122496082Y-108305400D01*
X122672778Y-108340547D01*
G37*
G36*
X162699778Y-108340547D02*
G01*
X162866224Y-108409491D01*
X163016022Y-108509583D01*
X163143417Y-108636978D01*
X163243509Y-108786776D01*
X163312453Y-108953222D01*
X163347600Y-109129918D01*
X163347600Y-109310082D01*
X163312453Y-109486778D01*
X163243509Y-109653224D01*
X163143417Y-109803022D01*
X163016022Y-109930417D01*
X162866224Y-110030509D01*
X162699778Y-110099453D01*
X162523082Y-110134600D01*
X162342918Y-110134600D01*
X162166222Y-110099453D01*
X161999776Y-110030509D01*
X161849978Y-109930417D01*
X161722583Y-109803022D01*
X161622491Y-109653224D01*
X161553547Y-109486778D01*
X161518400Y-109310082D01*
X161518400Y-109129918D01*
X161553547Y-108953222D01*
X161622491Y-108786776D01*
X161722583Y-108636978D01*
X161849978Y-108509583D01*
X161999776Y-108409491D01*
X162166222Y-108340547D01*
X162342918Y-108305400D01*
X162523082Y-108305400D01*
X162699778Y-108340547D01*
G37*
G36*
X120132778Y-108340547D02*
G01*
X120299224Y-108409491D01*
X120449022Y-108509583D01*
X120576417Y-108636978D01*
X120676509Y-108786776D01*
X120745453Y-108953222D01*
X120780600Y-109129918D01*
X120780600Y-109310082D01*
X120745453Y-109486778D01*
X120676509Y-109653224D01*
X120576417Y-109803022D01*
X120449022Y-109930417D01*
X120299224Y-110030509D01*
X120132778Y-110099453D01*
X119956082Y-110134600D01*
X119775918Y-110134600D01*
X119599222Y-110099453D01*
X119432776Y-110030509D01*
X119282978Y-109930417D01*
X119155583Y-109803022D01*
X119055491Y-109653224D01*
X118986547Y-109486778D01*
X118951400Y-109310082D01*
X118951400Y-109129918D01*
X118986547Y-108953222D01*
X119055491Y-108786776D01*
X119155583Y-108636978D01*
X119282978Y-108509583D01*
X119432776Y-108409491D01*
X119599222Y-108340547D01*
X119775918Y-108305400D01*
X119956082Y-108305400D01*
X120132778Y-108340547D01*
G37*
G36*
X162699778Y-105800547D02*
G01*
X162866224Y-105869491D01*
X163016022Y-105969583D01*
X163143417Y-106096978D01*
X163243509Y-106246776D01*
X163312453Y-106413222D01*
X163347600Y-106589918D01*
X163347600Y-106770082D01*
X163312453Y-106946778D01*
X163243509Y-107113224D01*
X163143417Y-107263022D01*
X163016022Y-107390417D01*
X162866224Y-107490509D01*
X162699778Y-107559453D01*
X162523082Y-107594600D01*
X162342918Y-107594600D01*
X162166222Y-107559453D01*
X161999776Y-107490509D01*
X161849978Y-107390417D01*
X161722583Y-107263022D01*
X161622491Y-107113224D01*
X161553547Y-106946778D01*
X161518400Y-106770082D01*
X161518400Y-106589918D01*
X161553547Y-106413222D01*
X161622491Y-106246776D01*
X161722583Y-106096978D01*
X161849978Y-105969583D01*
X161999776Y-105869491D01*
X162166222Y-105800547D01*
X162342918Y-105765400D01*
X162523082Y-105765400D01*
X162699778Y-105800547D01*
G37*
G36*
X165239778Y-105800547D02*
G01*
X165406224Y-105869491D01*
X165556022Y-105969583D01*
X165683417Y-106096978D01*
X165783509Y-106246776D01*
X165852453Y-106413222D01*
X165887600Y-106589918D01*
X165887600Y-106770082D01*
X165852453Y-106946778D01*
X165783509Y-107113224D01*
X165683417Y-107263022D01*
X165556022Y-107390417D01*
X165406224Y-107490509D01*
X165239778Y-107559453D01*
X165063082Y-107594600D01*
X164882918Y-107594600D01*
X164706222Y-107559453D01*
X164539776Y-107490509D01*
X164389978Y-107390417D01*
X164262583Y-107263022D01*
X164162491Y-107113224D01*
X164093547Y-106946778D01*
X164058400Y-106770082D01*
X164058400Y-106589918D01*
X164093547Y-106413222D01*
X164162491Y-106246776D01*
X164262583Y-106096978D01*
X164389978Y-105969583D01*
X164539776Y-105869491D01*
X164706222Y-105800547D01*
X164882918Y-105765400D01*
X165063082Y-105765400D01*
X165239778Y-105800547D01*
G37*
G36*
X122672778Y-105800547D02*
G01*
X122839224Y-105869491D01*
X122989022Y-105969583D01*
X123116417Y-106096978D01*
X123216509Y-106246776D01*
X123285453Y-106413222D01*
X123320600Y-106589918D01*
X123320600Y-106770082D01*
X123285453Y-106946778D01*
X123216509Y-107113224D01*
X123116417Y-107263022D01*
X122989022Y-107390417D01*
X122839224Y-107490509D01*
X122672778Y-107559453D01*
X122496082Y-107594600D01*
X122315918Y-107594600D01*
X122139222Y-107559453D01*
X121972776Y-107490509D01*
X121822978Y-107390417D01*
X121695583Y-107263022D01*
X121595491Y-107113224D01*
X121526547Y-106946778D01*
X121491400Y-106770082D01*
X121491400Y-106589918D01*
X121526547Y-106413222D01*
X121595491Y-106246776D01*
X121695583Y-106096978D01*
X121822978Y-105969583D01*
X121972776Y-105869491D01*
X122139222Y-105800547D01*
X122315918Y-105765400D01*
X122496082Y-105765400D01*
X122672778Y-105800547D01*
G37*
G36*
X120132778Y-105800547D02*
G01*
X120299224Y-105869491D01*
X120449022Y-105969583D01*
X120576417Y-106096978D01*
X120676509Y-106246776D01*
X120745453Y-106413222D01*
X120780600Y-106589918D01*
X120780600Y-106770082D01*
X120745453Y-106946778D01*
X120676509Y-107113224D01*
X120576417Y-107263022D01*
X120449022Y-107390417D01*
X120299224Y-107490509D01*
X120132778Y-107559453D01*
X119956082Y-107594600D01*
X119775918Y-107594600D01*
X119599222Y-107559453D01*
X119432776Y-107490509D01*
X119282978Y-107390417D01*
X119155583Y-107263022D01*
X119055491Y-107113224D01*
X118986547Y-106946778D01*
X118951400Y-106770082D01*
X118951400Y-106589918D01*
X118986547Y-106413222D01*
X119055491Y-106246776D01*
X119155583Y-106096978D01*
X119282978Y-105969583D01*
X119432776Y-105869491D01*
X119599222Y-105800547D01*
X119775918Y-105765400D01*
X119956082Y-105765400D01*
X120132778Y-105800547D01*
G37*
G36*
X120132778Y-103260547D02*
G01*
X120299224Y-103329491D01*
X120449022Y-103429583D01*
X120576417Y-103556978D01*
X120676509Y-103706776D01*
X120745453Y-103873222D01*
X120780600Y-104049918D01*
X120780600Y-104230082D01*
X120745453Y-104406778D01*
X120676509Y-104573224D01*
X120576417Y-104723022D01*
X120449022Y-104850417D01*
X120299224Y-104950509D01*
X120132778Y-105019453D01*
X119956082Y-105054600D01*
X119775918Y-105054600D01*
X119599222Y-105019453D01*
X119432776Y-104950509D01*
X119282978Y-104850417D01*
X119155583Y-104723022D01*
X119055491Y-104573224D01*
X118986547Y-104406778D01*
X118951400Y-104230082D01*
X118951400Y-104049918D01*
X118986547Y-103873222D01*
X119055491Y-103706776D01*
X119155583Y-103556978D01*
X119282978Y-103429583D01*
X119432776Y-103329491D01*
X119599222Y-103260547D01*
X119775918Y-103225400D01*
X119956082Y-103225400D01*
X120132778Y-103260547D01*
G37*
G36*
X122672778Y-103260547D02*
G01*
X122839224Y-103329491D01*
X122989022Y-103429583D01*
X123116417Y-103556978D01*
X123216509Y-103706776D01*
X123285453Y-103873222D01*
X123320600Y-104049918D01*
X123320600Y-104230082D01*
X123285453Y-104406778D01*
X123216509Y-104573224D01*
X123116417Y-104723022D01*
X122989022Y-104850417D01*
X122839224Y-104950509D01*
X122672778Y-105019453D01*
X122496082Y-105054600D01*
X122315918Y-105054600D01*
X122139222Y-105019453D01*
X121972776Y-104950509D01*
X121822978Y-104850417D01*
X121695583Y-104723022D01*
X121595491Y-104573224D01*
X121526547Y-104406778D01*
X121491400Y-104230082D01*
X121491400Y-104049918D01*
X121526547Y-103873222D01*
X121595491Y-103706776D01*
X121695583Y-103556978D01*
X121822978Y-103429583D01*
X121972776Y-103329491D01*
X122139222Y-103260547D01*
X122315918Y-103225400D01*
X122496082Y-103225400D01*
X122672778Y-103260547D01*
G37*
G36*
X165239778Y-103260547D02*
G01*
X165406224Y-103329491D01*
X165556022Y-103429583D01*
X165683417Y-103556978D01*
X165783509Y-103706776D01*
X165852453Y-103873222D01*
X165887600Y-104049918D01*
X165887600Y-104230082D01*
X165852453Y-104406778D01*
X165783509Y-104573224D01*
X165683417Y-104723022D01*
X165556022Y-104850417D01*
X165406224Y-104950509D01*
X165239778Y-105019453D01*
X165063082Y-105054600D01*
X164882918Y-105054600D01*
X164706222Y-105019453D01*
X164539776Y-104950509D01*
X164389978Y-104850417D01*
X164262583Y-104723022D01*
X164162491Y-104573224D01*
X164093547Y-104406778D01*
X164058400Y-104230082D01*
X164058400Y-104049918D01*
X164093547Y-103873222D01*
X164162491Y-103706776D01*
X164262583Y-103556978D01*
X164389978Y-103429583D01*
X164539776Y-103329491D01*
X164706222Y-103260547D01*
X164882918Y-103225400D01*
X165063082Y-103225400D01*
X165239778Y-103260547D01*
G37*
G36*
X162699778Y-103260547D02*
G01*
X162866224Y-103329491D01*
X163016022Y-103429583D01*
X163143417Y-103556978D01*
X163243509Y-103706776D01*
X163312453Y-103873222D01*
X163347600Y-104049918D01*
X163347600Y-104230082D01*
X163312453Y-104406778D01*
X163243509Y-104573224D01*
X163143417Y-104723022D01*
X163016022Y-104850417D01*
X162866224Y-104950509D01*
X162699778Y-105019453D01*
X162523082Y-105054600D01*
X162342918Y-105054600D01*
X162166222Y-105019453D01*
X161999776Y-104950509D01*
X161849978Y-104850417D01*
X161722583Y-104723022D01*
X161622491Y-104573224D01*
X161553547Y-104406778D01*
X161518400Y-104230082D01*
X161518400Y-104049918D01*
X161553547Y-103873222D01*
X161622491Y-103706776D01*
X161722583Y-103556978D01*
X161849978Y-103429583D01*
X161999776Y-103329491D01*
X162166222Y-103260547D01*
X162342918Y-103225400D01*
X162523082Y-103225400D01*
X162699778Y-103260547D01*
G37*
G36*
X152802999Y-102069737D02*
G01*
X152817528Y-102074145D01*
X152830711Y-102079606D01*
X152854745Y-102084388D01*
X152879249Y-102084389D01*
X152903282Y-102079609D01*
X152925921Y-102070232D01*
X152927765Y-102069000D01*
X154159050Y-102069000D01*
X154171164Y-102075475D01*
X154194613Y-102082588D01*
X154218999Y-102084990D01*
X154243385Y-102082588D01*
X154266834Y-102075475D01*
X154271746Y-102073152D01*
X154283001Y-102069737D01*
X154299140Y-102068148D01*
X154836861Y-102068148D01*
X154855199Y-102069954D01*
X154867450Y-102070556D01*
X154885869Y-102070556D01*
X154908149Y-102072750D01*
X154992233Y-102089476D01*
X155013660Y-102095976D01*
X155092858Y-102128780D01*
X155098303Y-102131691D01*
X155098309Y-102131693D01*
X155107169Y-102136429D01*
X155107173Y-102136432D01*
X155112614Y-102139340D01*
X155183899Y-102186971D01*
X155201204Y-102201172D01*
X155261828Y-102261796D01*
X155276029Y-102279101D01*
X155323660Y-102350386D01*
X155326568Y-102355827D01*
X155326571Y-102355831D01*
X155331307Y-102364691D01*
X155331309Y-102364697D01*
X155334220Y-102370142D01*
X155367024Y-102449340D01*
X155373524Y-102470767D01*
X155390250Y-102554851D01*
X155392444Y-102577131D01*
X155392444Y-102595550D01*
X155393046Y-102607801D01*
X155394852Y-102626139D01*
X155394852Y-103113862D01*
X155393046Y-103132199D01*
X155392444Y-103144450D01*
X155392444Y-103162869D01*
X155390250Y-103185149D01*
X155373524Y-103269233D01*
X155367024Y-103290660D01*
X155334220Y-103369858D01*
X155331309Y-103375303D01*
X155331307Y-103375309D01*
X155326571Y-103384169D01*
X155326568Y-103384173D01*
X155323660Y-103389614D01*
X155276029Y-103460899D01*
X155261828Y-103478204D01*
X155201204Y-103538828D01*
X155183899Y-103553029D01*
X155112614Y-103600660D01*
X155107173Y-103603568D01*
X155107169Y-103603571D01*
X155098309Y-103608307D01*
X155098303Y-103608309D01*
X155092858Y-103611220D01*
X155013660Y-103644024D01*
X154992233Y-103650524D01*
X154908149Y-103667250D01*
X154885869Y-103669444D01*
X154867450Y-103669444D01*
X154855199Y-103670046D01*
X154836862Y-103671852D01*
X154299140Y-103671852D01*
X154283001Y-103670263D01*
X154268472Y-103665855D01*
X154255289Y-103660394D01*
X154231255Y-103655612D01*
X154206751Y-103655611D01*
X154182718Y-103660391D01*
X154160079Y-103669768D01*
X154158235Y-103671000D01*
X152926950Y-103671000D01*
X152914836Y-103664525D01*
X152891387Y-103657412D01*
X152867001Y-103655010D01*
X152842615Y-103657412D01*
X152819166Y-103664525D01*
X152814254Y-103666848D01*
X152802999Y-103670263D01*
X152786860Y-103671852D01*
X152249138Y-103671852D01*
X152230801Y-103670046D01*
X152218550Y-103669444D01*
X152200131Y-103669444D01*
X152177851Y-103667250D01*
X152093767Y-103650524D01*
X152072340Y-103644024D01*
X151993142Y-103611220D01*
X151987697Y-103608309D01*
X151987691Y-103608307D01*
X151978831Y-103603571D01*
X151978827Y-103603568D01*
X151973386Y-103600660D01*
X151902101Y-103553029D01*
X151884796Y-103538828D01*
X151824172Y-103478204D01*
X151809971Y-103460899D01*
X151762340Y-103389614D01*
X151759432Y-103384173D01*
X151759429Y-103384169D01*
X151754693Y-103375309D01*
X151754691Y-103375303D01*
X151751780Y-103369858D01*
X151718976Y-103290660D01*
X151712476Y-103269233D01*
X151695750Y-103185149D01*
X151693556Y-103162869D01*
X151693556Y-103144450D01*
X151692954Y-103132199D01*
X151691148Y-103113862D01*
X151691148Y-102626139D01*
X151692954Y-102607801D01*
X151693556Y-102595550D01*
X151693556Y-102577131D01*
X151695750Y-102554851D01*
X151712476Y-102470767D01*
X151718976Y-102449340D01*
X151751780Y-102370142D01*
X151754691Y-102364697D01*
X151754693Y-102364691D01*
X151759429Y-102355831D01*
X151759432Y-102355827D01*
X151762340Y-102350386D01*
X151809971Y-102279101D01*
X151824172Y-102261796D01*
X151884796Y-102201172D01*
X151902101Y-102186971D01*
X151973386Y-102139340D01*
X151978827Y-102136432D01*
X151978831Y-102136429D01*
X151987691Y-102131693D01*
X151987697Y-102131691D01*
X151993142Y-102128780D01*
X152072340Y-102095976D01*
X152093767Y-102089476D01*
X152177851Y-102072750D01*
X152200131Y-102070556D01*
X152218550Y-102070556D01*
X152230801Y-102069954D01*
X152249139Y-102068148D01*
X152786860Y-102068148D01*
X152802999Y-102069737D01*
G37*
G36*
X165239778Y-100720547D02*
G01*
X165406224Y-100789491D01*
X165556022Y-100889583D01*
X165683417Y-101016978D01*
X165783509Y-101166776D01*
X165852453Y-101333222D01*
X165887600Y-101509918D01*
X165887600Y-101690082D01*
X165852453Y-101866778D01*
X165783509Y-102033224D01*
X165683417Y-102183022D01*
X165556022Y-102310417D01*
X165406224Y-102410509D01*
X165239778Y-102479453D01*
X165063082Y-102514600D01*
X164882918Y-102514600D01*
X164706222Y-102479453D01*
X164539776Y-102410509D01*
X164389978Y-102310417D01*
X164262583Y-102183022D01*
X164162491Y-102033224D01*
X164093547Y-101866778D01*
X164058400Y-101690082D01*
X164058400Y-101509918D01*
X164093547Y-101333222D01*
X164162491Y-101166776D01*
X164262583Y-101016978D01*
X164389978Y-100889583D01*
X164539776Y-100789491D01*
X164706222Y-100720547D01*
X164882918Y-100685400D01*
X165063082Y-100685400D01*
X165239778Y-100720547D01*
G37*
G36*
X122672778Y-100720547D02*
G01*
X122839224Y-100789491D01*
X122989022Y-100889583D01*
X123116417Y-101016978D01*
X123216509Y-101166776D01*
X123285453Y-101333222D01*
X123320600Y-101509918D01*
X123320600Y-101690082D01*
X123285453Y-101866778D01*
X123216509Y-102033224D01*
X123116417Y-102183022D01*
X122989022Y-102310417D01*
X122839224Y-102410509D01*
X122672778Y-102479453D01*
X122496082Y-102514600D01*
X122315918Y-102514600D01*
X122139222Y-102479453D01*
X121972776Y-102410509D01*
X121822978Y-102310417D01*
X121695583Y-102183022D01*
X121595491Y-102033224D01*
X121526547Y-101866778D01*
X121491400Y-101690082D01*
X121491400Y-101509918D01*
X121526547Y-101333222D01*
X121595491Y-101166776D01*
X121695583Y-101016978D01*
X121822978Y-100889583D01*
X121972776Y-100789491D01*
X122139222Y-100720547D01*
X122315918Y-100685400D01*
X122496082Y-100685400D01*
X122672778Y-100720547D01*
G37*
G36*
X162699778Y-100720547D02*
G01*
X162866224Y-100789491D01*
X163016022Y-100889583D01*
X163143417Y-101016978D01*
X163243509Y-101166776D01*
X163312453Y-101333222D01*
X163347600Y-101509918D01*
X163347600Y-101690082D01*
X163312453Y-101866778D01*
X163243509Y-102033224D01*
X163143417Y-102183022D01*
X163016022Y-102310417D01*
X162866224Y-102410509D01*
X162699778Y-102479453D01*
X162523082Y-102514600D01*
X162342918Y-102514600D01*
X162166222Y-102479453D01*
X161999776Y-102410509D01*
X161849978Y-102310417D01*
X161722583Y-102183022D01*
X161622491Y-102033224D01*
X161553547Y-101866778D01*
X161518400Y-101690082D01*
X161518400Y-101509918D01*
X161553547Y-101333222D01*
X161622491Y-101166776D01*
X161722583Y-101016978D01*
X161849978Y-100889583D01*
X161999776Y-100789491D01*
X162166222Y-100720547D01*
X162342918Y-100685400D01*
X162523082Y-100685400D01*
X162699778Y-100720547D01*
G37*
G36*
X120132778Y-100720547D02*
G01*
X120299224Y-100789491D01*
X120449022Y-100889583D01*
X120576417Y-101016978D01*
X120676509Y-101166776D01*
X120745453Y-101333222D01*
X120780600Y-101509918D01*
X120780600Y-101690082D01*
X120745453Y-101866778D01*
X120676509Y-102033224D01*
X120576417Y-102183022D01*
X120449022Y-102310417D01*
X120299224Y-102410509D01*
X120132778Y-102479453D01*
X119956082Y-102514600D01*
X119775918Y-102514600D01*
X119599222Y-102479453D01*
X119432776Y-102410509D01*
X119282978Y-102310417D01*
X119155583Y-102183022D01*
X119055491Y-102033224D01*
X118986547Y-101866778D01*
X118951400Y-101690082D01*
X118951400Y-101509918D01*
X118986547Y-101333222D01*
X119055491Y-101166776D01*
X119155583Y-101016978D01*
X119282978Y-100889583D01*
X119432776Y-100789491D01*
X119599222Y-100720547D01*
X119775918Y-100685400D01*
X119956082Y-100685400D01*
X120132778Y-100720547D01*
G37*
G36*
X120132778Y-98180547D02*
G01*
X120299224Y-98249491D01*
X120449022Y-98349583D01*
X120576417Y-98476978D01*
X120676509Y-98626776D01*
X120745453Y-98793222D01*
X120780600Y-98969918D01*
X120780600Y-99150082D01*
X120745453Y-99326778D01*
X120676509Y-99493224D01*
X120576417Y-99643022D01*
X120449022Y-99770417D01*
X120299224Y-99870509D01*
X120132778Y-99939453D01*
X119956082Y-99974600D01*
X119775918Y-99974600D01*
X119599222Y-99939453D01*
X119432776Y-99870509D01*
X119282978Y-99770417D01*
X119155583Y-99643022D01*
X119055491Y-99493224D01*
X118986547Y-99326778D01*
X118951400Y-99150082D01*
X118951400Y-98969918D01*
X118986547Y-98793222D01*
X119055491Y-98626776D01*
X119155583Y-98476978D01*
X119282978Y-98349583D01*
X119432776Y-98249491D01*
X119599222Y-98180547D01*
X119775918Y-98145400D01*
X119956082Y-98145400D01*
X120132778Y-98180547D01*
G37*
G36*
X165239778Y-98180547D02*
G01*
X165406224Y-98249491D01*
X165556022Y-98349583D01*
X165683417Y-98476978D01*
X165783509Y-98626776D01*
X165852453Y-98793222D01*
X165887600Y-98969918D01*
X165887600Y-99150082D01*
X165852453Y-99326778D01*
X165783509Y-99493224D01*
X165683417Y-99643022D01*
X165556022Y-99770417D01*
X165406224Y-99870509D01*
X165239778Y-99939453D01*
X165063082Y-99974600D01*
X164882918Y-99974600D01*
X164706222Y-99939453D01*
X164539776Y-99870509D01*
X164389978Y-99770417D01*
X164262583Y-99643022D01*
X164162491Y-99493224D01*
X164093547Y-99326778D01*
X164058400Y-99150082D01*
X164058400Y-98969918D01*
X164093547Y-98793222D01*
X164162491Y-98626776D01*
X164262583Y-98476978D01*
X164389978Y-98349583D01*
X164539776Y-98249491D01*
X164706222Y-98180547D01*
X164882918Y-98145400D01*
X165063082Y-98145400D01*
X165239778Y-98180547D01*
G37*
G36*
X162699778Y-98180547D02*
G01*
X162866224Y-98249491D01*
X163016022Y-98349583D01*
X163143417Y-98476978D01*
X163243509Y-98626776D01*
X163312453Y-98793222D01*
X163347600Y-98969918D01*
X163347600Y-99150082D01*
X163312453Y-99326778D01*
X163243509Y-99493224D01*
X163143417Y-99643022D01*
X163016022Y-99770417D01*
X162866224Y-99870509D01*
X162699778Y-99939453D01*
X162523082Y-99974600D01*
X162342918Y-99974600D01*
X162166222Y-99939453D01*
X161999776Y-99870509D01*
X161849978Y-99770417D01*
X161722583Y-99643022D01*
X161622491Y-99493224D01*
X161553547Y-99326778D01*
X161518400Y-99150082D01*
X161518400Y-98969918D01*
X161553547Y-98793222D01*
X161622491Y-98626776D01*
X161722583Y-98476978D01*
X161849978Y-98349583D01*
X161999776Y-98249491D01*
X162166222Y-98180547D01*
X162342918Y-98145400D01*
X162523082Y-98145400D01*
X162699778Y-98180547D01*
G37*
G36*
X122672778Y-98180547D02*
G01*
X122839224Y-98249491D01*
X122989022Y-98349583D01*
X123116417Y-98476978D01*
X123216509Y-98626776D01*
X123285453Y-98793222D01*
X123320600Y-98969918D01*
X123320600Y-99150082D01*
X123285453Y-99326778D01*
X123216509Y-99493224D01*
X123116417Y-99643022D01*
X122989022Y-99770417D01*
X122839224Y-99870509D01*
X122672778Y-99939453D01*
X122496082Y-99974600D01*
X122315918Y-99974600D01*
X122139222Y-99939453D01*
X121972776Y-99870509D01*
X121822978Y-99770417D01*
X121695583Y-99643022D01*
X121595491Y-99493224D01*
X121526547Y-99326778D01*
X121491400Y-99150082D01*
X121491400Y-98969918D01*
X121526547Y-98793222D01*
X121595491Y-98626776D01*
X121695583Y-98476978D01*
X121822978Y-98349583D01*
X121972776Y-98249491D01*
X122139222Y-98180547D01*
X122315918Y-98145400D01*
X122496082Y-98145400D01*
X122672778Y-98180547D01*
G37*
G36*
X120132778Y-95640547D02*
G01*
X120299224Y-95709491D01*
X120449022Y-95809583D01*
X120576417Y-95936978D01*
X120676509Y-96086776D01*
X120745453Y-96253222D01*
X120780600Y-96429918D01*
X120780600Y-96610082D01*
X120745453Y-96786778D01*
X120676509Y-96953224D01*
X120576417Y-97103022D01*
X120449022Y-97230417D01*
X120299224Y-97330509D01*
X120132778Y-97399453D01*
X119956082Y-97434600D01*
X119775918Y-97434600D01*
X119599222Y-97399453D01*
X119432776Y-97330509D01*
X119282978Y-97230417D01*
X119155583Y-97103022D01*
X119055491Y-96953224D01*
X118986547Y-96786778D01*
X118951400Y-96610082D01*
X118951400Y-96429918D01*
X118986547Y-96253222D01*
X119055491Y-96086776D01*
X119155583Y-95936978D01*
X119282978Y-95809583D01*
X119432776Y-95709491D01*
X119599222Y-95640547D01*
X119775918Y-95605400D01*
X119956082Y-95605400D01*
X120132778Y-95640547D01*
G37*
G36*
X165239778Y-95640547D02*
G01*
X165406224Y-95709491D01*
X165556022Y-95809583D01*
X165683417Y-95936978D01*
X165783509Y-96086776D01*
X165852453Y-96253222D01*
X165887600Y-96429918D01*
X165887600Y-96610082D01*
X165852453Y-96786778D01*
X165783509Y-96953224D01*
X165683417Y-97103022D01*
X165556022Y-97230417D01*
X165406224Y-97330509D01*
X165239778Y-97399453D01*
X165063082Y-97434600D01*
X164882918Y-97434600D01*
X164706222Y-97399453D01*
X164539776Y-97330509D01*
X164389978Y-97230417D01*
X164262583Y-97103022D01*
X164162491Y-96953224D01*
X164093547Y-96786778D01*
X164058400Y-96610082D01*
X164058400Y-96429918D01*
X164093547Y-96253222D01*
X164162491Y-96086776D01*
X164262583Y-95936978D01*
X164389978Y-95809583D01*
X164539776Y-95709491D01*
X164706222Y-95640547D01*
X164882918Y-95605400D01*
X165063082Y-95605400D01*
X165239778Y-95640547D01*
G37*
G36*
X162699778Y-95640547D02*
G01*
X162866224Y-95709491D01*
X163016022Y-95809583D01*
X163143417Y-95936978D01*
X163243509Y-96086776D01*
X163312453Y-96253222D01*
X163347600Y-96429918D01*
X163347600Y-96610082D01*
X163312453Y-96786778D01*
X163243509Y-96953224D01*
X163143417Y-97103022D01*
X163016022Y-97230417D01*
X162866224Y-97330509D01*
X162699778Y-97399453D01*
X162523082Y-97434600D01*
X162342918Y-97434600D01*
X162166222Y-97399453D01*
X161999776Y-97330509D01*
X161849978Y-97230417D01*
X161722583Y-97103022D01*
X161622491Y-96953224D01*
X161553547Y-96786778D01*
X161518400Y-96610082D01*
X161518400Y-96429918D01*
X161553547Y-96253222D01*
X161622491Y-96086776D01*
X161722583Y-95936978D01*
X161849978Y-95809583D01*
X161999776Y-95709491D01*
X162166222Y-95640547D01*
X162342918Y-95605400D01*
X162523082Y-95605400D01*
X162699778Y-95640547D01*
G37*
G36*
X122672778Y-95640547D02*
G01*
X122839224Y-95709491D01*
X122989022Y-95809583D01*
X123116417Y-95936978D01*
X123216509Y-96086776D01*
X123285453Y-96253222D01*
X123320600Y-96429918D01*
X123320600Y-96610082D01*
X123285453Y-96786778D01*
X123216509Y-96953224D01*
X123116417Y-97103022D01*
X122989022Y-97230417D01*
X122839224Y-97330509D01*
X122672778Y-97399453D01*
X122496082Y-97434600D01*
X122315918Y-97434600D01*
X122139222Y-97399453D01*
X121972776Y-97330509D01*
X121822978Y-97230417D01*
X121695583Y-97103022D01*
X121595491Y-96953224D01*
X121526547Y-96786778D01*
X121491400Y-96610082D01*
X121491400Y-96429918D01*
X121526547Y-96253222D01*
X121595491Y-96086776D01*
X121695583Y-95936978D01*
X121822978Y-95809583D01*
X121972776Y-95709491D01*
X122139222Y-95640547D01*
X122315918Y-95605400D01*
X122496082Y-95605400D01*
X122672778Y-95640547D01*
G37*
G36*
X165239778Y-93100547D02*
G01*
X165406224Y-93169491D01*
X165556022Y-93269583D01*
X165683417Y-93396978D01*
X165783509Y-93546776D01*
X165852453Y-93713222D01*
X165887600Y-93889918D01*
X165887600Y-94070082D01*
X165852453Y-94246778D01*
X165783509Y-94413224D01*
X165683417Y-94563022D01*
X165556022Y-94690417D01*
X165406224Y-94790509D01*
X165239778Y-94859453D01*
X165063082Y-94894600D01*
X164882918Y-94894600D01*
X164706222Y-94859453D01*
X164539776Y-94790509D01*
X164389978Y-94690417D01*
X164262583Y-94563022D01*
X164162491Y-94413224D01*
X164093547Y-94246778D01*
X164058400Y-94070082D01*
X164058400Y-93889918D01*
X164093547Y-93713222D01*
X164162491Y-93546776D01*
X164262583Y-93396978D01*
X164389978Y-93269583D01*
X164539776Y-93169491D01*
X164706222Y-93100547D01*
X164882918Y-93065400D01*
X165063082Y-93065400D01*
X165239778Y-93100547D01*
G37*
G36*
X120132778Y-93100547D02*
G01*
X120299224Y-93169491D01*
X120449022Y-93269583D01*
X120576417Y-93396978D01*
X120676509Y-93546776D01*
X120745453Y-93713222D01*
X120780600Y-93889918D01*
X120780600Y-94070082D01*
X120745453Y-94246778D01*
X120676509Y-94413224D01*
X120576417Y-94563022D01*
X120449022Y-94690417D01*
X120299224Y-94790509D01*
X120132778Y-94859453D01*
X119956082Y-94894600D01*
X119775918Y-94894600D01*
X119599222Y-94859453D01*
X119432776Y-94790509D01*
X119282978Y-94690417D01*
X119155583Y-94563022D01*
X119055491Y-94413224D01*
X118986547Y-94246778D01*
X118951400Y-94070082D01*
X118951400Y-93889918D01*
X118986547Y-93713222D01*
X119055491Y-93546776D01*
X119155583Y-93396978D01*
X119282978Y-93269583D01*
X119432776Y-93169491D01*
X119599222Y-93100547D01*
X119775918Y-93065400D01*
X119956082Y-93065400D01*
X120132778Y-93100547D01*
G37*
G36*
X122672778Y-93100547D02*
G01*
X122839224Y-93169491D01*
X122989022Y-93269583D01*
X123116417Y-93396978D01*
X123216509Y-93546776D01*
X123285453Y-93713222D01*
X123320600Y-93889918D01*
X123320600Y-94070082D01*
X123285453Y-94246778D01*
X123216509Y-94413224D01*
X123116417Y-94563022D01*
X122989022Y-94690417D01*
X122839224Y-94790509D01*
X122672778Y-94859453D01*
X122496082Y-94894600D01*
X122315918Y-94894600D01*
X122139222Y-94859453D01*
X121972776Y-94790509D01*
X121822978Y-94690417D01*
X121695583Y-94563022D01*
X121595491Y-94413224D01*
X121526547Y-94246778D01*
X121491400Y-94070082D01*
X121491400Y-93889918D01*
X121526547Y-93713222D01*
X121595491Y-93546776D01*
X121695583Y-93396978D01*
X121822978Y-93269583D01*
X121972776Y-93169491D01*
X122139222Y-93100547D01*
X122315918Y-93065400D01*
X122496082Y-93065400D01*
X122672778Y-93100547D01*
G37*
G36*
X162699778Y-93100547D02*
G01*
X162866224Y-93169491D01*
X163016022Y-93269583D01*
X163143417Y-93396978D01*
X163243509Y-93546776D01*
X163312453Y-93713222D01*
X163347600Y-93889918D01*
X163347600Y-94070082D01*
X163312453Y-94246778D01*
X163243509Y-94413224D01*
X163143417Y-94563022D01*
X163016022Y-94690417D01*
X162866224Y-94790509D01*
X162699778Y-94859453D01*
X162523082Y-94894600D01*
X162342918Y-94894600D01*
X162166222Y-94859453D01*
X161999776Y-94790509D01*
X161849978Y-94690417D01*
X161722583Y-94563022D01*
X161622491Y-94413224D01*
X161553547Y-94246778D01*
X161518400Y-94070082D01*
X161518400Y-93889918D01*
X161553547Y-93713222D01*
X161622491Y-93546776D01*
X161722583Y-93396978D01*
X161849978Y-93269583D01*
X161999776Y-93169491D01*
X162166222Y-93100547D01*
X162342918Y-93065400D01*
X162523082Y-93065400D01*
X162699778Y-93100547D01*
G37*
G36*
X165239778Y-90560547D02*
G01*
X165406224Y-90629491D01*
X165556022Y-90729583D01*
X165683417Y-90856978D01*
X165783509Y-91006776D01*
X165852453Y-91173222D01*
X165887600Y-91349918D01*
X165887600Y-91530082D01*
X165852453Y-91706778D01*
X165783509Y-91873224D01*
X165683417Y-92023022D01*
X165556022Y-92150417D01*
X165406224Y-92250509D01*
X165239778Y-92319453D01*
X165063082Y-92354600D01*
X164882918Y-92354600D01*
X164706222Y-92319453D01*
X164539776Y-92250509D01*
X164389978Y-92150417D01*
X164262583Y-92023022D01*
X164162491Y-91873224D01*
X164093547Y-91706778D01*
X164058400Y-91530082D01*
X164058400Y-91349918D01*
X164093547Y-91173222D01*
X164162491Y-91006776D01*
X164262583Y-90856978D01*
X164389978Y-90729583D01*
X164539776Y-90629491D01*
X164706222Y-90560547D01*
X164882918Y-90525400D01*
X165063082Y-90525400D01*
X165239778Y-90560547D01*
G37*
G36*
X162699778Y-90560547D02*
G01*
X162866224Y-90629491D01*
X163016022Y-90729583D01*
X163143417Y-90856978D01*
X163243509Y-91006776D01*
X163312453Y-91173222D01*
X163347600Y-91349918D01*
X163347600Y-91530082D01*
X163312453Y-91706778D01*
X163243509Y-91873224D01*
X163143417Y-92023022D01*
X163016022Y-92150417D01*
X162866224Y-92250509D01*
X162699778Y-92319453D01*
X162523082Y-92354600D01*
X162342918Y-92354600D01*
X162166222Y-92319453D01*
X161999776Y-92250509D01*
X161849978Y-92150417D01*
X161722583Y-92023022D01*
X161622491Y-91873224D01*
X161553547Y-91706778D01*
X161518400Y-91530082D01*
X161518400Y-91349918D01*
X161553547Y-91173222D01*
X161622491Y-91006776D01*
X161722583Y-90856978D01*
X161849978Y-90729583D01*
X161999776Y-90629491D01*
X162166222Y-90560547D01*
X162342918Y-90525400D01*
X162523082Y-90525400D01*
X162699778Y-90560547D01*
G37*
G36*
X165239778Y-88020547D02*
G01*
X165406224Y-88089491D01*
X165556022Y-88189583D01*
X165683417Y-88316978D01*
X165783509Y-88466776D01*
X165852453Y-88633222D01*
X165887600Y-88809918D01*
X165887600Y-88990082D01*
X165852453Y-89166778D01*
X165783509Y-89333224D01*
X165683417Y-89483022D01*
X165556022Y-89610417D01*
X165406224Y-89710509D01*
X165239778Y-89779453D01*
X165063082Y-89814600D01*
X164882918Y-89814600D01*
X164706222Y-89779453D01*
X164539776Y-89710509D01*
X164389978Y-89610417D01*
X164262583Y-89483022D01*
X164162491Y-89333224D01*
X164093547Y-89166778D01*
X164058400Y-88990082D01*
X164058400Y-88809918D01*
X164093547Y-88633222D01*
X164162491Y-88466776D01*
X164262583Y-88316978D01*
X164389978Y-88189583D01*
X164539776Y-88089491D01*
X164706222Y-88020547D01*
X164882918Y-87985400D01*
X165063082Y-87985400D01*
X165239778Y-88020547D01*
G37*
G36*
X162699778Y-88020547D02*
G01*
X162866224Y-88089491D01*
X163016022Y-88189583D01*
X163143417Y-88316978D01*
X163243509Y-88466776D01*
X163312453Y-88633222D01*
X163347600Y-88809918D01*
X163347600Y-88990082D01*
X163312453Y-89166778D01*
X163243509Y-89333224D01*
X163143417Y-89483022D01*
X163016022Y-89610417D01*
X162866224Y-89710509D01*
X162699778Y-89779453D01*
X162523082Y-89814600D01*
X162342918Y-89814600D01*
X162166222Y-89779453D01*
X161999776Y-89710509D01*
X161849978Y-89610417D01*
X161722583Y-89483022D01*
X161622491Y-89333224D01*
X161553547Y-89166778D01*
X161518400Y-88990082D01*
X161518400Y-88809918D01*
X161553547Y-88633222D01*
X161622491Y-88466776D01*
X161722583Y-88316978D01*
X161849978Y-88189583D01*
X161999776Y-88089491D01*
X162166222Y-88020547D01*
X162342918Y-87985400D01*
X162523082Y-87985400D01*
X162699778Y-88020547D01*
G37*
G36*
X162699778Y-85480547D02*
G01*
X162866224Y-85549491D01*
X163016022Y-85649583D01*
X163143417Y-85776978D01*
X163243509Y-85926776D01*
X163312453Y-86093222D01*
X163347600Y-86269918D01*
X163347600Y-86450082D01*
X163312453Y-86626778D01*
X163243509Y-86793224D01*
X163143417Y-86943022D01*
X163016022Y-87070417D01*
X162866224Y-87170509D01*
X162699778Y-87239453D01*
X162523082Y-87274600D01*
X162342918Y-87274600D01*
X162166222Y-87239453D01*
X161999776Y-87170509D01*
X161849978Y-87070417D01*
X161722583Y-86943022D01*
X161622491Y-86793224D01*
X161553547Y-86626778D01*
X161518400Y-86450082D01*
X161518400Y-86269918D01*
X161553547Y-86093222D01*
X161622491Y-85926776D01*
X161722583Y-85776978D01*
X161849978Y-85649583D01*
X161999776Y-85549491D01*
X162166222Y-85480547D01*
X162342918Y-85445400D01*
X162523082Y-85445400D01*
X162699778Y-85480547D01*
G37*
G36*
X165239778Y-85480547D02*
G01*
X165406224Y-85549491D01*
X165556022Y-85649583D01*
X165683417Y-85776978D01*
X165783509Y-85926776D01*
X165852453Y-86093222D01*
X165887600Y-86269918D01*
X165887600Y-86450082D01*
X165852453Y-86626778D01*
X165783509Y-86793224D01*
X165683417Y-86943022D01*
X165556022Y-87070417D01*
X165406224Y-87170509D01*
X165239778Y-87239453D01*
X165063082Y-87274600D01*
X164882918Y-87274600D01*
X164706222Y-87239453D01*
X164539776Y-87170509D01*
X164389978Y-87070417D01*
X164262583Y-86943022D01*
X164162491Y-86793224D01*
X164093547Y-86626778D01*
X164058400Y-86450082D01*
X164058400Y-86269918D01*
X164093547Y-86093222D01*
X164162491Y-85926776D01*
X164262583Y-85776978D01*
X164389978Y-85649583D01*
X164539776Y-85549491D01*
X164706222Y-85480547D01*
X164882918Y-85445400D01*
X165063082Y-85445400D01*
X165239778Y-85480547D01*
G37*
G36*
X162699778Y-82940547D02*
G01*
X162866224Y-83009491D01*
X163016022Y-83109583D01*
X163143417Y-83236978D01*
X163243509Y-83386776D01*
X163312453Y-83553222D01*
X163347600Y-83729918D01*
X163347600Y-83910082D01*
X163312453Y-84086778D01*
X163243509Y-84253224D01*
X163143417Y-84403022D01*
X163016022Y-84530417D01*
X162866224Y-84630509D01*
X162699778Y-84699453D01*
X162523082Y-84734600D01*
X162342918Y-84734600D01*
X162166222Y-84699453D01*
X161999776Y-84630509D01*
X161849978Y-84530417D01*
X161722583Y-84403022D01*
X161622491Y-84253224D01*
X161553547Y-84086778D01*
X161518400Y-83910082D01*
X161518400Y-83729918D01*
X161553547Y-83553222D01*
X161622491Y-83386776D01*
X161722583Y-83236978D01*
X161849978Y-83109583D01*
X161999776Y-83009491D01*
X162166222Y-82940547D01*
X162342918Y-82905400D01*
X162523082Y-82905400D01*
X162699778Y-82940547D01*
G37*
G36*
X165239778Y-82940547D02*
G01*
X165406224Y-83009491D01*
X165556022Y-83109583D01*
X165683417Y-83236978D01*
X165783509Y-83386776D01*
X165852453Y-83553222D01*
X165887600Y-83729918D01*
X165887600Y-83910082D01*
X165852453Y-84086778D01*
X165783509Y-84253224D01*
X165683417Y-84403022D01*
X165556022Y-84530417D01*
X165406224Y-84630509D01*
X165239778Y-84699453D01*
X165063082Y-84734600D01*
X164882918Y-84734600D01*
X164706222Y-84699453D01*
X164539776Y-84630509D01*
X164389978Y-84530417D01*
X164262583Y-84403022D01*
X164162491Y-84253224D01*
X164093547Y-84086778D01*
X164058400Y-83910082D01*
X164058400Y-83729918D01*
X164093547Y-83553222D01*
X164162491Y-83386776D01*
X164262583Y-83236978D01*
X164389978Y-83109583D01*
X164539776Y-83009491D01*
X164706222Y-82940547D01*
X164882918Y-82905400D01*
X165063082Y-82905400D01*
X165239778Y-82940547D01*
G37*
G36*
X165239778Y-80400547D02*
G01*
X165406224Y-80469491D01*
X165556022Y-80569583D01*
X165683417Y-80696978D01*
X165783509Y-80846776D01*
X165852453Y-81013222D01*
X165887600Y-81189918D01*
X165887600Y-81370082D01*
X165852453Y-81546778D01*
X165783509Y-81713224D01*
X165683417Y-81863022D01*
X165556022Y-81990417D01*
X165406224Y-82090509D01*
X165239778Y-82159453D01*
X165063082Y-82194600D01*
X164882918Y-82194600D01*
X164706222Y-82159453D01*
X164539776Y-82090509D01*
X164389978Y-81990417D01*
X164262583Y-81863022D01*
X164162491Y-81713224D01*
X164093547Y-81546778D01*
X164058400Y-81370082D01*
X164058400Y-81189918D01*
X164093547Y-81013222D01*
X164162491Y-80846776D01*
X164262583Y-80696978D01*
X164389978Y-80569583D01*
X164539776Y-80469491D01*
X164706222Y-80400547D01*
X164882918Y-80365400D01*
X165063082Y-80365400D01*
X165239778Y-80400547D01*
G37*
G36*
X162699778Y-80400547D02*
G01*
X162866224Y-80469491D01*
X163016022Y-80569583D01*
X163143417Y-80696978D01*
X163243509Y-80846776D01*
X163312453Y-81013222D01*
X163347600Y-81189918D01*
X163347600Y-81370082D01*
X163312453Y-81546778D01*
X163243509Y-81713224D01*
X163143417Y-81863022D01*
X163016022Y-81990417D01*
X162866224Y-82090509D01*
X162699778Y-82159453D01*
X162523082Y-82194600D01*
X162342918Y-82194600D01*
X162166222Y-82159453D01*
X161999776Y-82090509D01*
X161849978Y-81990417D01*
X161722583Y-81863022D01*
X161622491Y-81713224D01*
X161553547Y-81546778D01*
X161518400Y-81370082D01*
X161518400Y-81189918D01*
X161553547Y-81013222D01*
X161622491Y-80846776D01*
X161722583Y-80696978D01*
X161849978Y-80569583D01*
X161999776Y-80469491D01*
X162166222Y-80400547D01*
X162342918Y-80365400D01*
X162523082Y-80365400D01*
X162699778Y-80400547D01*
G37*
G36*
X165239778Y-77860547D02*
G01*
X165406224Y-77929491D01*
X165556022Y-78029583D01*
X165683417Y-78156978D01*
X165783509Y-78306776D01*
X165852453Y-78473222D01*
X165887600Y-78649918D01*
X165887600Y-78830082D01*
X165852453Y-79006778D01*
X165783509Y-79173224D01*
X165683417Y-79323022D01*
X165556022Y-79450417D01*
X165406224Y-79550509D01*
X165239778Y-79619453D01*
X165063082Y-79654600D01*
X164882918Y-79654600D01*
X164706222Y-79619453D01*
X164539776Y-79550509D01*
X164389978Y-79450417D01*
X164262583Y-79323022D01*
X164162491Y-79173224D01*
X164093547Y-79006778D01*
X164058400Y-78830082D01*
X164058400Y-78649918D01*
X164093547Y-78473222D01*
X164162491Y-78306776D01*
X164262583Y-78156978D01*
X164389978Y-78029583D01*
X164539776Y-77929491D01*
X164706222Y-77860547D01*
X164882918Y-77825400D01*
X165063082Y-77825400D01*
X165239778Y-77860547D01*
G37*
G36*
X162699778Y-77860547D02*
G01*
X162866224Y-77929491D01*
X163016022Y-78029583D01*
X163143417Y-78156978D01*
X163243509Y-78306776D01*
X163312453Y-78473222D01*
X163347600Y-78649918D01*
X163347600Y-78830082D01*
X163312453Y-79006778D01*
X163243509Y-79173224D01*
X163143417Y-79323022D01*
X163016022Y-79450417D01*
X162866224Y-79550509D01*
X162699778Y-79619453D01*
X162523082Y-79654600D01*
X162342918Y-79654600D01*
X162166222Y-79619453D01*
X161999776Y-79550509D01*
X161849978Y-79450417D01*
X161722583Y-79323022D01*
X161622491Y-79173224D01*
X161553547Y-79006778D01*
X161518400Y-78830082D01*
X161518400Y-78649918D01*
X161553547Y-78473222D01*
X161622491Y-78306776D01*
X161722583Y-78156978D01*
X161849978Y-78029583D01*
X161999776Y-77929491D01*
X162166222Y-77860547D01*
X162342918Y-77825400D01*
X162523082Y-77825400D01*
X162699778Y-77860547D01*
G37*
G36*
X162699778Y-75320547D02*
G01*
X162866224Y-75389491D01*
X163016022Y-75489583D01*
X163143417Y-75616978D01*
X163243509Y-75766776D01*
X163312453Y-75933222D01*
X163347600Y-76109918D01*
X163347600Y-76290082D01*
X163312453Y-76466778D01*
X163243509Y-76633224D01*
X163143417Y-76783022D01*
X163016022Y-76910417D01*
X162866224Y-77010509D01*
X162699778Y-77079453D01*
X162523082Y-77114600D01*
X162342918Y-77114600D01*
X162166222Y-77079453D01*
X161999776Y-77010509D01*
X161849978Y-76910417D01*
X161722583Y-76783022D01*
X161622491Y-76633224D01*
X161553547Y-76466778D01*
X161518400Y-76290082D01*
X161518400Y-76109918D01*
X161553547Y-75933222D01*
X161622491Y-75766776D01*
X161722583Y-75616978D01*
X161849978Y-75489583D01*
X161999776Y-75389491D01*
X162166222Y-75320547D01*
X162342918Y-75285400D01*
X162523082Y-75285400D01*
X162699778Y-75320547D01*
G37*
G36*
X165239778Y-75320547D02*
G01*
X165406224Y-75389491D01*
X165556022Y-75489583D01*
X165683417Y-75616978D01*
X165783509Y-75766776D01*
X165852453Y-75933222D01*
X165887600Y-76109918D01*
X165887600Y-76290082D01*
X165852453Y-76466778D01*
X165783509Y-76633224D01*
X165683417Y-76783022D01*
X165556022Y-76910417D01*
X165406224Y-77010509D01*
X165239778Y-77079453D01*
X165063082Y-77114600D01*
X164882918Y-77114600D01*
X164706222Y-77079453D01*
X164539776Y-77010509D01*
X164389978Y-76910417D01*
X164262583Y-76783022D01*
X164162491Y-76633224D01*
X164093547Y-76466778D01*
X164058400Y-76290082D01*
X164058400Y-76109918D01*
X164093547Y-75933222D01*
X164162491Y-75766776D01*
X164262583Y-75616978D01*
X164389978Y-75489583D01*
X164539776Y-75389491D01*
X164706222Y-75320547D01*
X164882918Y-75285400D01*
X165063082Y-75285400D01*
X165239778Y-75320547D01*
G37*
G36*
X163347600Y-74574600D02*
G01*
X161518400Y-74574600D01*
X161518400Y-72745400D01*
X163347600Y-72745400D01*
X163347600Y-74574600D01*
G37*
G36*
X165239778Y-72780547D02*
G01*
X165406224Y-72849491D01*
X165556022Y-72949583D01*
X165683417Y-73076978D01*
X165783509Y-73226776D01*
X165852453Y-73393222D01*
X165887600Y-73569918D01*
X165887600Y-73750082D01*
X165852453Y-73926778D01*
X165783509Y-74093224D01*
X165683417Y-74243022D01*
X165556022Y-74370417D01*
X165406224Y-74470509D01*
X165239778Y-74539453D01*
X165063082Y-74574600D01*
X164882918Y-74574600D01*
X164706222Y-74539453D01*
X164539776Y-74470509D01*
X164389978Y-74370417D01*
X164262583Y-74243022D01*
X164162491Y-74093224D01*
X164093547Y-73926778D01*
X164058400Y-73750082D01*
X164058400Y-73569918D01*
X164093547Y-73393222D01*
X164162491Y-73226776D01*
X164262583Y-73076978D01*
X164389978Y-72949583D01*
X164539776Y-72849491D01*
X164706222Y-72780547D01*
X164882918Y-72745400D01*
X165063082Y-72745400D01*
X165239778Y-72780547D01*
G37*
G36*
X165941715Y-65379383D02*
G01*
X166069322Y-65404765D01*
X166210148Y-65463097D01*
X166309727Y-65504344D01*
X166309728Y-65504345D01*
X166526089Y-65648912D01*
X166710088Y-65832911D01*
X166806685Y-65977479D01*
X166854656Y-66049273D01*
X166895903Y-66148852D01*
X166954235Y-66289678D01*
X167005000Y-66544893D01*
X167005000Y-66805107D01*
X166954235Y-67060322D01*
X166895903Y-67201148D01*
X166854656Y-67300727D01*
X166854655Y-67300728D01*
X166710088Y-67517089D01*
X166526089Y-67701088D01*
X166381521Y-67797685D01*
X166309727Y-67845656D01*
X166210148Y-67886903D01*
X166069322Y-67945235D01*
X165941715Y-67970617D01*
X165814109Y-67996000D01*
X165553891Y-67996000D01*
X165426285Y-67970617D01*
X165298678Y-67945235D01*
X165157852Y-67886903D01*
X165058273Y-67845656D01*
X164986479Y-67797685D01*
X164841911Y-67701088D01*
X164657912Y-67517089D01*
X164513345Y-67300728D01*
X164513344Y-67300727D01*
X164472097Y-67201148D01*
X164413765Y-67060322D01*
X164363000Y-66805107D01*
X164363000Y-66544893D01*
X164413765Y-66289678D01*
X164472097Y-66148852D01*
X164513344Y-66049273D01*
X164561315Y-65977479D01*
X164657912Y-65832911D01*
X164841911Y-65648912D01*
X165058272Y-65504345D01*
X165058273Y-65504344D01*
X165157852Y-65463097D01*
X165298678Y-65404765D01*
X165426285Y-65379383D01*
X165553891Y-65354000D01*
X165814109Y-65354000D01*
X165941715Y-65379383D01*
G37*
G36*
X163538072Y-62835918D02*
G01*
X163698662Y-62902436D01*
X163783939Y-62937759D01*
X164005212Y-63085610D01*
X164193390Y-63273788D01*
X164341241Y-63495061D01*
X164443082Y-63740928D01*
X164495000Y-64001938D01*
X164495000Y-64268062D01*
X164443082Y-64529072D01*
X164341241Y-64774939D01*
X164193390Y-64996212D01*
X164005212Y-65184390D01*
X163783939Y-65332241D01*
X163783938Y-65332242D01*
X163783937Y-65332242D01*
X163538072Y-65434082D01*
X163277063Y-65486000D01*
X163010937Y-65486000D01*
X162749928Y-65434082D01*
X162504063Y-65332242D01*
X162504062Y-65332242D01*
X162504061Y-65332241D01*
X162282788Y-65184390D01*
X162094610Y-64996212D01*
X161946759Y-64774939D01*
X161844918Y-64529072D01*
X161793000Y-64268062D01*
X161793000Y-64001938D01*
X161844918Y-63740928D01*
X161946759Y-63495061D01*
X162094610Y-63273788D01*
X162282788Y-63085610D01*
X162504061Y-62937759D01*
X162589339Y-62902436D01*
X162749928Y-62835918D01*
X163010937Y-62784000D01*
X163277063Y-62784000D01*
X163538072Y-62835918D01*
G37*
G36*
X173902254Y-59622818D02*
G01*
X174275511Y-59777426D01*
X174275513Y-59777427D01*
X174611436Y-60001884D01*
X174897116Y-60287564D01*
X174976253Y-60406000D01*
X175121574Y-60623489D01*
X175276182Y-60996746D01*
X175355000Y-61392993D01*
X175355000Y-61797007D01*
X175276182Y-62193254D01*
X175121574Y-62566511D01*
X175121573Y-62566513D01*
X174897116Y-62902436D01*
X174611436Y-63188116D01*
X174275513Y-63412573D01*
X174275512Y-63412574D01*
X174275511Y-63412574D01*
X173902254Y-63567182D01*
X173506007Y-63646000D01*
X173101993Y-63646000D01*
X172705746Y-63567182D01*
X172332489Y-63412574D01*
X172332488Y-63412574D01*
X172332487Y-63412573D01*
X171996564Y-63188116D01*
X171710884Y-62902436D01*
X171486427Y-62566513D01*
X171486426Y-62566511D01*
X171331818Y-62193254D01*
X171253000Y-61797007D01*
X171253000Y-61392993D01*
X171331818Y-60996746D01*
X171486426Y-60623489D01*
X171631748Y-60406000D01*
X171710884Y-60287564D01*
X171996564Y-60001884D01*
X172332487Y-59777427D01*
X172332489Y-59777426D01*
X172705746Y-59622818D01*
X173101993Y-59544000D01*
X173506007Y-59544000D01*
X173902254Y-59622818D01*
G37*
G36*
X163538072Y-57755918D02*
G01*
X163783939Y-57857759D01*
X164005212Y-58005610D01*
X164193390Y-58193788D01*
X164341241Y-58415061D01*
X164443082Y-58660928D01*
X164495000Y-58921938D01*
X164495000Y-59188062D01*
X164443082Y-59449072D01*
X164341241Y-59694939D01*
X164193390Y-59916212D01*
X164005212Y-60104390D01*
X163783939Y-60252241D01*
X163783938Y-60252242D01*
X163783937Y-60252242D01*
X163538072Y-60354082D01*
X163277063Y-60406000D01*
X163010937Y-60406000D01*
X162749928Y-60354082D01*
X162504063Y-60252242D01*
X162504062Y-60252242D01*
X162504061Y-60252241D01*
X162282788Y-60104390D01*
X162094610Y-59916212D01*
X161946759Y-59694939D01*
X161844918Y-59449072D01*
X161793000Y-59188062D01*
X161793000Y-58921938D01*
X161844918Y-58660928D01*
X161946759Y-58415061D01*
X162094610Y-58193788D01*
X162282788Y-58005610D01*
X162504061Y-57857759D01*
X162749928Y-57755918D01*
X163010937Y-57704000D01*
X163277063Y-57704000D01*
X163538072Y-57755918D01*
G37*
G36*
X163538072Y-52675918D02*
G01*
X163698662Y-52742436D01*
X163783939Y-52777759D01*
X164005212Y-52925610D01*
X164193390Y-53113788D01*
X164341241Y-53335061D01*
X164443082Y-53580928D01*
X164495000Y-53841938D01*
X164495000Y-54108062D01*
X164443082Y-54369072D01*
X164341241Y-54614939D01*
X164193390Y-54836212D01*
X164005212Y-55024390D01*
X163783939Y-55172241D01*
X163783938Y-55172242D01*
X163783937Y-55172242D01*
X163538072Y-55274082D01*
X163277063Y-55326000D01*
X163010937Y-55326000D01*
X162749928Y-55274082D01*
X162504063Y-55172242D01*
X162504062Y-55172242D01*
X162504061Y-55172241D01*
X162282788Y-55024390D01*
X162094610Y-54836212D01*
X161946759Y-54614939D01*
X161844918Y-54369072D01*
X161793000Y-54108062D01*
X161793000Y-53841938D01*
X161844918Y-53580928D01*
X161946759Y-53335061D01*
X162094610Y-53113788D01*
X162282788Y-52925610D01*
X162504061Y-52777759D01*
X162589339Y-52742436D01*
X162749928Y-52675918D01*
X163010937Y-52624000D01*
X163277063Y-52624000D01*
X163538072Y-52675918D01*
G37*
G36*
X173902254Y-49462818D02*
G01*
X174275511Y-49617426D01*
X174275513Y-49617427D01*
X174611436Y-49841884D01*
X174897116Y-50127564D01*
X174976253Y-50246000D01*
X175121574Y-50463489D01*
X175276182Y-50836746D01*
X175355000Y-51232993D01*
X175355000Y-51637007D01*
X175276182Y-52033254D01*
X175121574Y-52406511D01*
X175121573Y-52406513D01*
X174897116Y-52742436D01*
X174611436Y-53028116D01*
X174275513Y-53252573D01*
X174275512Y-53252574D01*
X174275511Y-53252574D01*
X173902254Y-53407182D01*
X173506007Y-53486000D01*
X173101993Y-53486000D01*
X172705746Y-53407182D01*
X172332489Y-53252574D01*
X172332488Y-53252574D01*
X172332487Y-53252573D01*
X171996564Y-53028116D01*
X171710884Y-52742436D01*
X171486427Y-52406513D01*
X171486426Y-52406511D01*
X171331818Y-52033254D01*
X171253000Y-51637007D01*
X171253000Y-51232993D01*
X171331818Y-50836746D01*
X171486426Y-50463489D01*
X171631748Y-50246000D01*
X171710884Y-50127564D01*
X171996564Y-49841884D01*
X172332487Y-49617427D01*
X172332489Y-49617426D01*
X172705746Y-49462818D01*
X173101993Y-49384000D01*
X173506007Y-49384000D01*
X173902254Y-49462818D01*
G37*
G36*
X132755256Y-48661298D02*
G01*
X132861579Y-48682447D01*
X133162042Y-48806903D01*
X133432451Y-48987585D01*
X133662415Y-49217549D01*
X133843097Y-49487958D01*
X133954212Y-49756212D01*
X133967553Y-49788422D01*
X134027987Y-50092241D01*
X134031000Y-50107391D01*
X134031000Y-50432609D01*
X133967553Y-50751579D01*
X133843097Y-51052042D01*
X133662415Y-51322451D01*
X133432451Y-51552415D01*
X133162042Y-51733097D01*
X132861579Y-51857553D01*
X132755256Y-51878702D01*
X132542611Y-51921000D01*
X132217389Y-51921000D01*
X132004744Y-51878702D01*
X131898421Y-51857553D01*
X131597958Y-51733097D01*
X131327549Y-51552415D01*
X131097585Y-51322451D01*
X130916903Y-51052042D01*
X130792447Y-50751579D01*
X130729000Y-50432609D01*
X130729000Y-50107391D01*
X130732014Y-50092241D01*
X130792447Y-49788422D01*
X130805789Y-49756212D01*
X130916903Y-49487958D01*
X131097585Y-49217549D01*
X131327549Y-48987585D01*
X131597958Y-48806903D01*
X131898421Y-48682447D01*
X132004744Y-48661298D01*
X132217389Y-48619000D01*
X132542611Y-48619000D01*
X132755256Y-48661298D01*
G37*
G36*
X163538072Y-47595918D02*
G01*
X163783939Y-47697759D01*
X164005212Y-47845610D01*
X164193390Y-48033788D01*
X164341241Y-48255061D01*
X164443082Y-48500928D01*
X164495000Y-48761938D01*
X164495000Y-49028062D01*
X164443082Y-49289072D01*
X164341241Y-49534939D01*
X164193390Y-49756212D01*
X164005212Y-49944390D01*
X163783939Y-50092241D01*
X163783938Y-50092242D01*
X163783937Y-50092242D01*
X163538072Y-50194082D01*
X163277063Y-50246000D01*
X163010937Y-50246000D01*
X162749928Y-50194082D01*
X162504063Y-50092242D01*
X162504062Y-50092242D01*
X162504061Y-50092241D01*
X162282788Y-49944390D01*
X162094610Y-49756212D01*
X161946759Y-49534939D01*
X161844918Y-49289072D01*
X161793000Y-49028062D01*
X161793000Y-48761938D01*
X161844918Y-48500928D01*
X161946759Y-48255061D01*
X162094610Y-48033788D01*
X162282788Y-47845610D01*
X162504061Y-47697759D01*
X162749928Y-47595918D01*
X163010937Y-47544000D01*
X163277063Y-47544000D01*
X163538072Y-47595918D01*
G37*
G36*
X165941714Y-45059382D02*
G01*
X166069322Y-45084765D01*
X166210148Y-45143097D01*
X166309727Y-45184344D01*
X166309728Y-45184345D01*
X166526089Y-45328912D01*
X166710088Y-45512911D01*
X166806685Y-45657479D01*
X166854656Y-45729273D01*
X166895903Y-45828852D01*
X166954235Y-45969678D01*
X167005000Y-46224893D01*
X167005000Y-46485107D01*
X166954235Y-46740322D01*
X166895903Y-46881148D01*
X166854656Y-46980727D01*
X166854655Y-46980728D01*
X166710088Y-47197089D01*
X166526089Y-47381088D01*
X166381521Y-47477685D01*
X166309727Y-47525656D01*
X166265440Y-47544000D01*
X166069322Y-47625235D01*
X165941714Y-47650618D01*
X165814109Y-47676000D01*
X165553891Y-47676000D01*
X165426286Y-47650618D01*
X165298678Y-47625235D01*
X165102560Y-47544000D01*
X165058273Y-47525656D01*
X164986479Y-47477685D01*
X164841911Y-47381088D01*
X164657912Y-47197089D01*
X164513345Y-46980728D01*
X164513344Y-46980727D01*
X164472097Y-46881148D01*
X164413765Y-46740322D01*
X164363000Y-46485107D01*
X164363000Y-46224893D01*
X164413765Y-45969678D01*
X164472097Y-45828852D01*
X164513344Y-45729273D01*
X164561315Y-45657479D01*
X164657912Y-45512911D01*
X164841911Y-45328912D01*
X165058272Y-45184345D01*
X165058273Y-45184344D01*
X165157852Y-45143097D01*
X165298678Y-45084765D01*
X165426286Y-45059382D01*
X165553891Y-45034000D01*
X165814109Y-45034000D01*
X165941714Y-45059382D01*
G37*
M02*
