G04 #@! TF.GenerationSoftware,KiCad,Pcbnew,(5.1.5)-3*
G04 #@! TF.CreationDate,2020-11-01T13:08:26+00:00*
G04 #@! TF.ProjectId,SCSIAdaptor,53435349-4164-4617-9074-6f722e6b6963,rev?*
G04 #@! TF.SameCoordinates,Original*
G04 #@! TF.FileFunction,Copper,L2,Bot*
G04 #@! TF.FilePolarity,Positive*
%FSLAX46Y46*%
G04 Gerber Fmt 4.6, Leading zero omitted, Abs format (unit mm)*
G04 Created by KiCad (PCBNEW (5.1.5)-3) date 2020-11-01 13:08:26*
%MOMM*%
%LPD*%
G04 APERTURE LIST*
%ADD10C,0.100000*%
%ADD11R,1.000000X1.500000*%
%ADD12O,1.727200X1.727200*%
%ADD13R,1.727200X1.727200*%
%ADD14C,2.600000*%
%ADD15O,1.700000X1.700000*%
%ADD16R,1.700000X1.700000*%
%ADD17C,0.500000*%
%ADD18C,0.600000*%
%ADD19C,0.250000*%
%ADD20C,0.500000*%
%ADD21C,0.254000*%
G04 APERTURE END LIST*
D10*
G36*
X152643000Y-103170000D02*
G01*
X153143000Y-103170000D01*
X153143000Y-102570000D01*
X152643000Y-102570000D01*
X152643000Y-103170000D01*
G37*
G04 #@! TA.AperFunction,SMDPad,CuDef*
G36*
X152793000Y-103620000D02*
G01*
X152243000Y-103620000D01*
X152243000Y-103619398D01*
X152218466Y-103619398D01*
X152169635Y-103614588D01*
X152121510Y-103605016D01*
X152074555Y-103590772D01*
X152029222Y-103571995D01*
X151985949Y-103548864D01*
X151945150Y-103521604D01*
X151907221Y-103490476D01*
X151872524Y-103455779D01*
X151841396Y-103417850D01*
X151814136Y-103377051D01*
X151791005Y-103333778D01*
X151772228Y-103288445D01*
X151757984Y-103241490D01*
X151748412Y-103193365D01*
X151743602Y-103144534D01*
X151743602Y-103120000D01*
X151743000Y-103120000D01*
X151743000Y-102620000D01*
X151743602Y-102620000D01*
X151743602Y-102595466D01*
X151748412Y-102546635D01*
X151757984Y-102498510D01*
X151772228Y-102451555D01*
X151791005Y-102406222D01*
X151814136Y-102362949D01*
X151841396Y-102322150D01*
X151872524Y-102284221D01*
X151907221Y-102249524D01*
X151945150Y-102218396D01*
X151985949Y-102191136D01*
X152029222Y-102168005D01*
X152074555Y-102149228D01*
X152121510Y-102134984D01*
X152169635Y-102125412D01*
X152218466Y-102120602D01*
X152243000Y-102120602D01*
X152243000Y-102120000D01*
X152793000Y-102120000D01*
X152793000Y-103620000D01*
G37*
G04 #@! TD.AperFunction*
D11*
X153543000Y-102870000D03*
G04 #@! TA.AperFunction,SMDPad,CuDef*
D10*
G36*
X154843000Y-102120602D02*
G01*
X154867534Y-102120602D01*
X154916365Y-102125412D01*
X154964490Y-102134984D01*
X155011445Y-102149228D01*
X155056778Y-102168005D01*
X155100051Y-102191136D01*
X155140850Y-102218396D01*
X155178779Y-102249524D01*
X155213476Y-102284221D01*
X155244604Y-102322150D01*
X155271864Y-102362949D01*
X155294995Y-102406222D01*
X155313772Y-102451555D01*
X155328016Y-102498510D01*
X155337588Y-102546635D01*
X155342398Y-102595466D01*
X155342398Y-102620000D01*
X155343000Y-102620000D01*
X155343000Y-103120000D01*
X155342398Y-103120000D01*
X155342398Y-103144534D01*
X155337588Y-103193365D01*
X155328016Y-103241490D01*
X155313772Y-103288445D01*
X155294995Y-103333778D01*
X155271864Y-103377051D01*
X155244604Y-103417850D01*
X155213476Y-103455779D01*
X155178779Y-103490476D01*
X155140850Y-103521604D01*
X155100051Y-103548864D01*
X155056778Y-103571995D01*
X155011445Y-103590772D01*
X154964490Y-103605016D01*
X154916365Y-103614588D01*
X154867534Y-103619398D01*
X154843000Y-103619398D01*
X154843000Y-103620000D01*
X154293000Y-103620000D01*
X154293000Y-102120000D01*
X154843000Y-102120000D01*
X154843000Y-102120602D01*
G37*
G04 #@! TD.AperFunction*
D12*
X119866000Y-93980000D03*
X122406000Y-93980000D03*
X119866000Y-96520000D03*
X122406000Y-96520000D03*
X119866000Y-99060000D03*
X122406000Y-99060000D03*
X119866000Y-101600000D03*
X122406000Y-101600000D03*
X119866000Y-104140000D03*
X122406000Y-104140000D03*
X119866000Y-106680000D03*
X122406000Y-106680000D03*
X119866000Y-109220000D03*
X122406000Y-109220000D03*
X119866000Y-111760000D03*
X122406000Y-111760000D03*
X119866000Y-114300000D03*
X122406000Y-114300000D03*
X119866000Y-116840000D03*
X122406000Y-116840000D03*
X119866000Y-119380000D03*
X122406000Y-119380000D03*
X119866000Y-121920000D03*
X122406000Y-121920000D03*
X119866000Y-124460000D03*
X122406000Y-124460000D03*
X119866000Y-127000000D03*
X122406000Y-127000000D03*
X119866000Y-129540000D03*
X122406000Y-129540000D03*
X119866000Y-132080000D03*
X122406000Y-132080000D03*
X119866000Y-134620000D03*
D13*
X122406000Y-134620000D03*
D14*
X163144000Y-48895000D03*
X163144000Y-53975000D03*
X163144000Y-59055000D03*
X163144000Y-64135000D03*
D13*
X162433000Y-73660000D03*
D12*
X164973000Y-73660000D03*
X162433000Y-76200000D03*
X164973000Y-76200000D03*
X162433000Y-78740000D03*
X164973000Y-78740000D03*
X162433000Y-81280000D03*
X164973000Y-81280000D03*
X162433000Y-83820000D03*
X164973000Y-83820000D03*
X162433000Y-86360000D03*
X164973000Y-86360000D03*
X162433000Y-88900000D03*
X164973000Y-88900000D03*
X162433000Y-91440000D03*
X164973000Y-91440000D03*
X162433000Y-93980000D03*
X164973000Y-93980000D03*
X162433000Y-96520000D03*
X164973000Y-96520000D03*
X162433000Y-99060000D03*
X164973000Y-99060000D03*
X162433000Y-101600000D03*
X164973000Y-101600000D03*
X162433000Y-104140000D03*
X164973000Y-104140000D03*
X162433000Y-106680000D03*
X164973000Y-106680000D03*
X162433000Y-109220000D03*
X164973000Y-109220000D03*
X162433000Y-111760000D03*
X164973000Y-111760000D03*
X162433000Y-114300000D03*
X164973000Y-114300000D03*
X162433000Y-116840000D03*
X164973000Y-116840000D03*
X162433000Y-119380000D03*
X164973000Y-119380000D03*
X162433000Y-121920000D03*
X164973000Y-121920000D03*
X162433000Y-124460000D03*
X164973000Y-124460000D03*
X162433000Y-127000000D03*
X164973000Y-127000000D03*
X162433000Y-129540000D03*
X164973000Y-129540000D03*
X162433000Y-132080000D03*
X164973000Y-132080000D03*
X162433000Y-134620000D03*
X164973000Y-134620000D03*
D15*
X128828800Y-127000000D03*
X128828800Y-124460000D03*
X131368800Y-127000000D03*
X131368800Y-124460000D03*
X133908800Y-127000000D03*
X133908800Y-124460000D03*
X136448800Y-127000000D03*
X136448800Y-124460000D03*
X138988800Y-127000000D03*
D16*
X138988800Y-124460000D03*
D17*
X144780000Y-102616000D03*
X125831600Y-106984800D03*
X125844300Y-101358700D03*
X125857000Y-96443800D03*
X148590000Y-122428000D03*
X158115000Y-116840000D03*
X125835000Y-113284000D03*
X144653000Y-111353600D03*
X142900400Y-106870500D03*
X142925800Y-101549200D03*
X141097000Y-118618000D03*
D18*
X149275800Y-128270000D03*
X130098800Y-121285000D03*
D17*
X125857000Y-93091000D03*
X131699000Y-93091000D03*
X125857000Y-93853000D03*
X131699000Y-93853000D03*
X125857000Y-94615000D03*
X131699000Y-94615000D03*
X125857000Y-95377000D03*
X131699000Y-95377000D03*
X125857000Y-97536000D03*
X131699000Y-97536000D03*
X125857000Y-98298000D03*
X131699000Y-98298000D03*
X125857000Y-99060000D03*
X131699000Y-99060000D03*
X125857000Y-99822000D03*
X131699000Y-99822000D03*
X135902700Y-106248200D03*
X125857000Y-103378000D03*
X131699000Y-103378000D03*
X125857000Y-104140000D03*
X131699000Y-104140000D03*
X125857000Y-104902000D03*
X131699000Y-104902000D03*
X125857000Y-105664000D03*
X131699000Y-105664000D03*
X125857000Y-108458000D03*
X131699000Y-108458000D03*
X125857000Y-109220000D03*
X131699000Y-109220000D03*
X125857000Y-109982000D03*
X131699000Y-109982000D03*
X125857000Y-110744000D03*
X131699000Y-110744000D03*
X131699000Y-111506000D03*
X125857000Y-115189000D03*
X131699000Y-115189000D03*
X125857000Y-115951000D03*
X131699000Y-115951000D03*
X133350000Y-112141000D03*
X125857000Y-116713000D03*
X131699000Y-116713000D03*
X142087600Y-102565200D03*
X140208000Y-120802400D03*
X149301200Y-118833900D03*
X155702000Y-118833900D03*
X149301200Y-118071900D03*
X155702000Y-118071900D03*
X149352000Y-114388900D03*
X155702000Y-114388900D03*
X147472400Y-113614200D03*
X157480000Y-113614200D03*
X149352000Y-112864900D03*
X155702000Y-112864900D03*
X144653000Y-110591600D03*
X147828000Y-110921800D03*
X149352000Y-112102900D03*
X155702000Y-112102900D03*
X149352000Y-110401100D03*
X155702000Y-110401100D03*
X149352000Y-109639100D03*
X155702000Y-109639100D03*
X149352000Y-108877100D03*
X155702000Y-108877100D03*
X149352000Y-108115100D03*
X155702000Y-108115100D03*
X149352000Y-107353100D03*
X155702000Y-107353100D03*
X149352000Y-106591100D03*
X155702000Y-106591100D03*
X149352000Y-105829100D03*
X155702000Y-105829100D03*
X149352000Y-105067100D03*
X155702000Y-105067100D03*
D18*
X153543000Y-104394000D03*
D17*
X125857000Y-117475000D03*
X131699000Y-117475000D03*
X149301200Y-117309900D03*
X155702000Y-117309900D03*
X149301200Y-116547900D03*
X155702000Y-116547900D03*
X149352000Y-113626900D03*
X155702000Y-113626900D03*
D19*
X122406000Y-119380000D02*
X122406000Y-124460000D01*
X122406000Y-129540000D02*
X122406000Y-134620000D01*
X162433000Y-104140000D02*
X162433000Y-116840000D01*
X162433000Y-73660000D02*
X162433000Y-101600000D01*
X162433000Y-123141314D02*
X162433000Y-134620000D01*
X162433000Y-121920000D02*
X162433000Y-123141314D01*
X126288800Y-129540000D02*
X128828800Y-127000000D01*
X121920000Y-129540000D02*
X126288800Y-129540000D01*
X141528800Y-129540000D02*
X162433000Y-129540000D01*
X138988800Y-127000000D02*
X141528800Y-129540000D01*
X138988800Y-127000000D02*
X136448800Y-129540000D01*
X131368800Y-129540000D02*
X128828800Y-127000000D01*
X136448800Y-129540000D02*
X131368800Y-129540000D01*
D20*
X163144000Y-48895000D02*
X159893000Y-52146000D01*
X159893000Y-52146000D02*
X159893000Y-72390000D01*
X152243000Y-80040000D02*
X159893000Y-72390000D01*
X152243000Y-102870000D02*
X152243000Y-80040000D01*
D19*
X144678400Y-111379000D02*
X144653000Y-111353600D01*
X142925800Y-101549200D02*
X142925800Y-106807000D01*
X144653000Y-111353600D02*
X144299447Y-111353600D01*
X144653000Y-111353600D02*
X142900400Y-111353600D01*
X142900400Y-107224053D02*
X142900400Y-111353600D01*
X142900400Y-106870500D02*
X142900400Y-107224053D01*
X141097000Y-118618000D02*
X141097000Y-113157000D01*
X141097000Y-113157000D02*
X142900400Y-111353600D01*
X141782800Y-128270000D02*
X149275800Y-128270000D01*
X141097000Y-127584200D02*
X141782800Y-128270000D01*
X141097000Y-126212600D02*
X141097000Y-127635000D01*
X137298799Y-126150001D02*
X136448800Y-127000000D01*
X137623801Y-125824999D02*
X137298799Y-126150001D01*
X140709399Y-125824999D02*
X137623801Y-125824999D01*
X141097000Y-126212600D02*
X140709399Y-125824999D01*
X141097000Y-118618000D02*
X141097000Y-126212600D01*
X135178800Y-125730000D02*
X136448800Y-127000000D01*
X135178800Y-122555000D02*
X135178800Y-125730000D01*
X130098800Y-121285000D02*
X134543800Y-121285000D01*
X135178800Y-121920000D02*
X135178800Y-122555000D01*
X134543800Y-121285000D02*
X135178800Y-121920000D01*
X125857000Y-93091000D02*
X131699000Y-93091000D01*
X125857000Y-93853000D02*
X131699000Y-93853000D01*
X126210553Y-94615000D02*
X131699000Y-94615000D01*
X125857000Y-94615000D02*
X126210553Y-94615000D01*
X125857000Y-95377000D02*
X131699000Y-95377000D01*
X125857000Y-97536000D02*
X131699000Y-97536000D01*
X125857000Y-98298000D02*
X131699000Y-98298000D01*
X125857000Y-99060000D02*
X131699000Y-99060000D01*
X125857000Y-99822000D02*
X131699000Y-99822000D01*
X132457499Y-102802999D02*
X135652701Y-105998201D01*
X121203001Y-102802999D02*
X132457499Y-102802999D01*
X135652701Y-105998201D02*
X135902700Y-106248200D01*
X119866000Y-104140000D02*
X121203001Y-102802999D01*
X125857000Y-103378000D02*
X131699000Y-103378000D01*
X125857000Y-104140000D02*
X131699000Y-104140000D01*
X125857000Y-104902000D02*
X131699000Y-104902000D01*
X125857000Y-105664000D02*
X131699000Y-105664000D01*
X131699000Y-108458000D02*
X125857000Y-108458000D01*
X131699000Y-109220000D02*
X125857000Y-109220000D01*
X131699000Y-109982000D02*
X125857000Y-109982000D01*
X131699000Y-110744000D02*
X125857000Y-110744000D01*
X131699000Y-111506000D02*
X125476000Y-111506000D01*
X122976529Y-118028601D02*
X123748800Y-117256330D01*
X119866000Y-119380000D02*
X121217399Y-118028601D01*
X121217399Y-118028601D02*
X122976529Y-118028601D01*
X123748800Y-113233200D02*
X125476000Y-111506000D01*
X123748800Y-117256330D02*
X123748800Y-113233200D01*
X125857000Y-115189000D02*
X131699000Y-115189000D01*
X125857000Y-115951000D02*
X131699000Y-115951000D01*
X121217399Y-125648601D02*
X123830199Y-125648601D01*
X119866000Y-127000000D02*
X121217399Y-125648601D01*
X123830199Y-125648601D02*
X124383800Y-125095000D01*
X124383800Y-125095000D02*
X124383800Y-119380000D01*
X124383800Y-119380000D02*
X125018800Y-118745000D01*
X125018800Y-118745000D02*
X132638800Y-118745000D01*
X133350000Y-118033800D02*
X133350000Y-112141000D01*
X132638800Y-118745000D02*
X133350000Y-118033800D01*
X125857000Y-116713000D02*
X131699000Y-116713000D01*
X138277600Y-120802400D02*
X136448800Y-122631200D01*
X140208000Y-120802400D02*
X138277600Y-120802400D01*
X142087600Y-111150400D02*
X142087600Y-102565200D01*
X140208000Y-120802400D02*
X140208000Y-113030000D01*
X140208000Y-113030000D02*
X142087600Y-111150400D01*
X136448800Y-122631200D02*
X136448800Y-124460000D01*
X149301200Y-118833900D02*
X155702000Y-118833900D01*
X149301200Y-118071900D02*
X155702000Y-118071900D01*
X149352000Y-114388900D02*
X155702000Y-114388900D01*
X156130299Y-114963901D02*
X157480000Y-113614200D01*
X148059999Y-114963901D02*
X156130299Y-114963901D01*
X147472400Y-113614200D02*
X147472400Y-114376302D01*
X147472400Y-114376302D02*
X148059999Y-114963901D01*
X149705553Y-112864900D02*
X155702000Y-112864900D01*
X149352000Y-112864900D02*
X149705553Y-112864900D01*
X145006553Y-110591600D02*
X145925208Y-111510255D01*
X144653000Y-110591600D02*
X145006553Y-110591600D01*
X145925208Y-111510255D02*
X159135255Y-111510255D01*
X160204990Y-112579990D02*
X160204990Y-120199990D01*
X159135255Y-111510255D02*
X160204990Y-112579990D01*
X164109401Y-121056401D02*
X164973000Y-121920000D01*
X160736399Y-120731399D02*
X163784399Y-120731399D01*
X163784399Y-120731399D02*
X164109401Y-121056401D01*
X160204990Y-120199990D02*
X160736399Y-120731399D01*
X147828000Y-110921800D02*
X148181553Y-110921800D01*
X148235854Y-110976101D02*
X159871101Y-110976101D01*
X148181553Y-110921800D02*
X148235854Y-110976101D01*
X159871101Y-110976101D02*
X160655000Y-111760000D01*
X160655000Y-111760000D02*
X160655000Y-117475000D01*
X164109401Y-118516401D02*
X164973000Y-119380000D01*
X161371399Y-118191399D02*
X163784399Y-118191399D01*
X163784399Y-118191399D02*
X164109401Y-118516401D01*
X160655000Y-117475000D02*
X161371399Y-118191399D01*
X149705553Y-112102900D02*
X155702000Y-112102900D01*
X149352000Y-112102900D02*
X149705553Y-112102900D01*
X149705553Y-110401100D02*
X155702000Y-110401100D01*
X149352000Y-110401100D02*
X149705553Y-110401100D01*
X149705553Y-109639100D02*
X155702000Y-109639100D01*
X149352000Y-109639100D02*
X149705553Y-109639100D01*
X149705553Y-108877100D02*
X155702000Y-108877100D01*
X149352000Y-108877100D02*
X149705553Y-108877100D01*
X149705553Y-108115100D02*
X155702000Y-108115100D01*
X149352000Y-108115100D02*
X149705553Y-108115100D01*
X155702000Y-107353100D02*
X149352000Y-107353100D01*
X149705553Y-106591100D02*
X155702000Y-106591100D01*
X149352000Y-106591100D02*
X149705553Y-106591100D01*
X149705553Y-105829100D02*
X155702000Y-105829100D01*
X149352000Y-105829100D02*
X149705553Y-105829100D01*
X149352000Y-105067100D02*
X155702000Y-105067100D01*
X163703000Y-102870000D02*
X164973000Y-104140000D01*
X154813000Y-102870000D02*
X163703000Y-102870000D01*
D20*
X153543000Y-104394000D02*
X153543000Y-102870000D01*
D19*
X125857000Y-117475000D02*
X131699000Y-117475000D01*
X149654753Y-117309900D02*
X155702000Y-117309900D01*
X149301200Y-117309900D02*
X149654753Y-117309900D01*
X149301200Y-116547900D02*
X155702000Y-116547900D01*
X149352000Y-113626900D02*
X155702000Y-113626900D01*
D21*
G36*
X175065424Y-42669580D02*
G01*
X175128356Y-42688580D01*
X175186405Y-42719445D01*
X175237343Y-42760989D01*
X175279248Y-42811644D01*
X175310515Y-42869471D01*
X175329956Y-42932272D01*
X175340000Y-43027835D01*
X175340000Y-49744547D01*
X174983715Y-49388262D01*
X174552141Y-49099893D01*
X174072601Y-48901261D01*
X173563525Y-48800000D01*
X173044475Y-48800000D01*
X172535399Y-48901261D01*
X172055859Y-49099893D01*
X171624285Y-49388262D01*
X171257262Y-49755285D01*
X170968893Y-50186859D01*
X170770261Y-50666399D01*
X170669000Y-51175475D01*
X170669000Y-51694525D01*
X170770261Y-52203601D01*
X170968893Y-52683141D01*
X171257262Y-53114715D01*
X171624285Y-53481738D01*
X172055859Y-53770107D01*
X172535399Y-53968739D01*
X173044475Y-54070000D01*
X173563525Y-54070000D01*
X174072601Y-53968739D01*
X174552141Y-53770107D01*
X174983715Y-53481738D01*
X175340000Y-53125453D01*
X175340000Y-59904547D01*
X174983715Y-59548262D01*
X174552141Y-59259893D01*
X174072601Y-59061261D01*
X173563525Y-58960000D01*
X173044475Y-58960000D01*
X172535399Y-59061261D01*
X172055859Y-59259893D01*
X171624285Y-59548262D01*
X171257262Y-59915285D01*
X170968893Y-60346859D01*
X170770261Y-60826399D01*
X170669000Y-61335475D01*
X170669000Y-61854525D01*
X170770261Y-62363601D01*
X170968893Y-62843141D01*
X171257262Y-63274715D01*
X171624285Y-63641738D01*
X172055859Y-63930107D01*
X172535399Y-64128739D01*
X173044475Y-64230000D01*
X173563525Y-64230000D01*
X174072601Y-64128739D01*
X174552141Y-63930107D01*
X174983715Y-63641738D01*
X175340000Y-63285453D01*
X175340001Y-140967711D01*
X175330420Y-141065424D01*
X175311420Y-141128357D01*
X175280554Y-141186406D01*
X175239011Y-141237343D01*
X175188356Y-141279248D01*
X175130529Y-141310515D01*
X175067728Y-141329956D01*
X174972165Y-141340000D01*
X110032279Y-141340000D01*
X109934576Y-141330420D01*
X109871643Y-141311420D01*
X109813594Y-141280554D01*
X109762657Y-141239011D01*
X109720752Y-141188356D01*
X109689485Y-141130529D01*
X109670044Y-141067728D01*
X109660000Y-140972165D01*
X109660000Y-93832401D01*
X118367400Y-93832401D01*
X118367400Y-94127599D01*
X118424990Y-94417125D01*
X118537958Y-94689853D01*
X118701961Y-94935302D01*
X118910698Y-95144039D01*
X119069281Y-95250000D01*
X118910698Y-95355961D01*
X118701961Y-95564698D01*
X118537958Y-95810147D01*
X118424990Y-96082875D01*
X118367400Y-96372401D01*
X118367400Y-96667599D01*
X118424990Y-96957125D01*
X118537958Y-97229853D01*
X118701961Y-97475302D01*
X118910698Y-97684039D01*
X119069281Y-97790000D01*
X118910698Y-97895961D01*
X118701961Y-98104698D01*
X118537958Y-98350147D01*
X118424990Y-98622875D01*
X118367400Y-98912401D01*
X118367400Y-99207599D01*
X118424990Y-99497125D01*
X118537958Y-99769853D01*
X118701961Y-100015302D01*
X118910698Y-100224039D01*
X119069281Y-100330000D01*
X118910698Y-100435961D01*
X118701961Y-100644698D01*
X118537958Y-100890147D01*
X118424990Y-101162875D01*
X118367400Y-101452401D01*
X118367400Y-101747599D01*
X118424990Y-102037125D01*
X118537958Y-102309853D01*
X118701961Y-102555302D01*
X118910698Y-102764039D01*
X119069281Y-102870000D01*
X118910698Y-102975961D01*
X118701961Y-103184698D01*
X118537958Y-103430147D01*
X118424990Y-103702875D01*
X118367400Y-103992401D01*
X118367400Y-104287599D01*
X118424990Y-104577125D01*
X118537958Y-104849853D01*
X118701961Y-105095302D01*
X118910698Y-105304039D01*
X119069281Y-105410000D01*
X118910698Y-105515961D01*
X118701961Y-105724698D01*
X118537958Y-105970147D01*
X118424990Y-106242875D01*
X118367400Y-106532401D01*
X118367400Y-106827599D01*
X118424990Y-107117125D01*
X118537958Y-107389853D01*
X118701961Y-107635302D01*
X118910698Y-107844039D01*
X119069281Y-107950000D01*
X118910698Y-108055961D01*
X118701961Y-108264698D01*
X118537958Y-108510147D01*
X118424990Y-108782875D01*
X118367400Y-109072401D01*
X118367400Y-109367599D01*
X118424990Y-109657125D01*
X118537958Y-109929853D01*
X118701961Y-110175302D01*
X118910698Y-110384039D01*
X119069281Y-110490000D01*
X118910698Y-110595961D01*
X118701961Y-110804698D01*
X118537958Y-111050147D01*
X118424990Y-111322875D01*
X118367400Y-111612401D01*
X118367400Y-111907599D01*
X118424990Y-112197125D01*
X118537958Y-112469853D01*
X118701961Y-112715302D01*
X118910698Y-112924039D01*
X119069281Y-113030000D01*
X118910698Y-113135961D01*
X118701961Y-113344698D01*
X118537958Y-113590147D01*
X118424990Y-113862875D01*
X118367400Y-114152401D01*
X118367400Y-114447599D01*
X118424990Y-114737125D01*
X118537958Y-115009853D01*
X118701961Y-115255302D01*
X118910698Y-115464039D01*
X119069281Y-115570000D01*
X118910698Y-115675961D01*
X118701961Y-115884698D01*
X118537958Y-116130147D01*
X118424990Y-116402875D01*
X118367400Y-116692401D01*
X118367400Y-116987599D01*
X118424990Y-117277125D01*
X118537958Y-117549853D01*
X118701961Y-117795302D01*
X118910698Y-118004039D01*
X119069281Y-118110000D01*
X118910698Y-118215961D01*
X118701961Y-118424698D01*
X118537958Y-118670147D01*
X118424990Y-118942875D01*
X118367400Y-119232401D01*
X118367400Y-119527599D01*
X118424990Y-119817125D01*
X118537958Y-120089853D01*
X118701961Y-120335302D01*
X118910698Y-120544039D01*
X119069281Y-120650000D01*
X118910698Y-120755961D01*
X118701961Y-120964698D01*
X118537958Y-121210147D01*
X118424990Y-121482875D01*
X118367400Y-121772401D01*
X118367400Y-122067599D01*
X118424990Y-122357125D01*
X118537958Y-122629853D01*
X118701961Y-122875302D01*
X118910698Y-123084039D01*
X119069281Y-123190000D01*
X118910698Y-123295961D01*
X118701961Y-123504698D01*
X118537958Y-123750147D01*
X118424990Y-124022875D01*
X118367400Y-124312401D01*
X118367400Y-124607599D01*
X118424990Y-124897125D01*
X118537958Y-125169853D01*
X118701961Y-125415302D01*
X118910698Y-125624039D01*
X119069281Y-125730000D01*
X118910698Y-125835961D01*
X118701961Y-126044698D01*
X118537958Y-126290147D01*
X118424990Y-126562875D01*
X118367400Y-126852401D01*
X118367400Y-127147599D01*
X118424990Y-127437125D01*
X118537958Y-127709853D01*
X118701961Y-127955302D01*
X118910698Y-128164039D01*
X119069281Y-128270000D01*
X118910698Y-128375961D01*
X118701961Y-128584698D01*
X118537958Y-128830147D01*
X118424990Y-129102875D01*
X118367400Y-129392401D01*
X118367400Y-129687599D01*
X118424990Y-129977125D01*
X118537958Y-130249853D01*
X118701961Y-130495302D01*
X118910698Y-130704039D01*
X119069281Y-130810000D01*
X118910698Y-130915961D01*
X118701961Y-131124698D01*
X118537958Y-131370147D01*
X118424990Y-131642875D01*
X118367400Y-131932401D01*
X118367400Y-132227599D01*
X118424990Y-132517125D01*
X118537958Y-132789853D01*
X118701961Y-133035302D01*
X118910698Y-133244039D01*
X119069281Y-133350000D01*
X118910698Y-133455961D01*
X118701961Y-133664698D01*
X118537958Y-133910147D01*
X118424990Y-134182875D01*
X118367400Y-134472401D01*
X118367400Y-134767599D01*
X118424990Y-135057125D01*
X118537958Y-135329853D01*
X118701961Y-135575302D01*
X118910698Y-135784039D01*
X119156147Y-135948042D01*
X119428875Y-136061010D01*
X119718401Y-136118600D01*
X120013599Y-136118600D01*
X120303125Y-136061010D01*
X120575853Y-135948042D01*
X120821302Y-135784039D01*
X120935364Y-135669977D01*
X120952898Y-135727780D01*
X121011863Y-135838094D01*
X121091215Y-135934785D01*
X121187906Y-136014137D01*
X121298220Y-136073102D01*
X121417918Y-136109412D01*
X121542400Y-136121672D01*
X122120250Y-136118600D01*
X122279000Y-135959850D01*
X122279000Y-134747000D01*
X122533000Y-134747000D01*
X122533000Y-135959850D01*
X122691750Y-136118600D01*
X123269600Y-136121672D01*
X123394082Y-136109412D01*
X123513780Y-136073102D01*
X123624094Y-136014137D01*
X123720785Y-135934785D01*
X123800137Y-135838094D01*
X123859102Y-135727780D01*
X123895412Y-135608082D01*
X123907672Y-135483600D01*
X123904600Y-134905750D01*
X123745850Y-134747000D01*
X122533000Y-134747000D01*
X122279000Y-134747000D01*
X122259000Y-134747000D01*
X122259000Y-134493000D01*
X122279000Y-134493000D01*
X122279000Y-132207000D01*
X122533000Y-132207000D01*
X122533000Y-134493000D01*
X123745850Y-134493000D01*
X123904600Y-134334250D01*
X123907672Y-133756400D01*
X123895412Y-133631918D01*
X123859102Y-133512220D01*
X123831121Y-133459872D01*
X130145000Y-133459872D01*
X130145000Y-133900128D01*
X130230890Y-134331925D01*
X130399369Y-134738669D01*
X130643962Y-135104729D01*
X130955271Y-135416038D01*
X131321331Y-135660631D01*
X131728075Y-135829110D01*
X132159872Y-135915000D01*
X132600128Y-135915000D01*
X133031925Y-135829110D01*
X133438669Y-135660631D01*
X133804729Y-135416038D01*
X134116038Y-135104729D01*
X134200029Y-134979026D01*
X160978042Y-134979026D01*
X161023778Y-135129814D01*
X161150316Y-135394944D01*
X161326146Y-135630293D01*
X161544512Y-135826817D01*
X161797022Y-135976964D01*
X162073973Y-136074963D01*
X162306000Y-135954464D01*
X162306000Y-134747000D01*
X161099183Y-134747000D01*
X160978042Y-134979026D01*
X134200029Y-134979026D01*
X134360631Y-134738669D01*
X134529110Y-134331925D01*
X134615000Y-133900128D01*
X134615000Y-133459872D01*
X134529110Y-133028075D01*
X134360631Y-132621331D01*
X134238819Y-132439026D01*
X160978042Y-132439026D01*
X161023778Y-132589814D01*
X161150316Y-132854944D01*
X161326146Y-133090293D01*
X161544512Y-133286817D01*
X161650770Y-133350000D01*
X161544512Y-133413183D01*
X161326146Y-133609707D01*
X161150316Y-133845056D01*
X161023778Y-134110186D01*
X160978042Y-134260974D01*
X161099183Y-134493000D01*
X162306000Y-134493000D01*
X162306000Y-132207000D01*
X161099183Y-132207000D01*
X160978042Y-132439026D01*
X134238819Y-132439026D01*
X134116038Y-132255271D01*
X133804729Y-131943962D01*
X133438669Y-131699369D01*
X133031925Y-131530890D01*
X132600128Y-131445000D01*
X132159872Y-131445000D01*
X131728075Y-131530890D01*
X131321331Y-131699369D01*
X130955271Y-131943962D01*
X130643962Y-132255271D01*
X130399369Y-132621331D01*
X130230890Y-133028075D01*
X130145000Y-133459872D01*
X123831121Y-133459872D01*
X123800137Y-133401906D01*
X123720785Y-133305215D01*
X123624094Y-133225863D01*
X123513780Y-133166898D01*
X123449426Y-133147376D01*
X123512854Y-133090293D01*
X123688684Y-132854944D01*
X123815222Y-132589814D01*
X123860958Y-132439026D01*
X123739817Y-132207000D01*
X122533000Y-132207000D01*
X122279000Y-132207000D01*
X122259000Y-132207000D01*
X122259000Y-131953000D01*
X122279000Y-131953000D01*
X122279000Y-129667000D01*
X122533000Y-129667000D01*
X122533000Y-131953000D01*
X123739817Y-131953000D01*
X123860958Y-131720974D01*
X123815222Y-131570186D01*
X123688684Y-131305056D01*
X123512854Y-131069707D01*
X123294488Y-130873183D01*
X123188230Y-130810000D01*
X123294488Y-130746817D01*
X123512854Y-130550293D01*
X123688684Y-130314944D01*
X123815222Y-130049814D01*
X123860958Y-129899026D01*
X160978042Y-129899026D01*
X161023778Y-130049814D01*
X161150316Y-130314944D01*
X161326146Y-130550293D01*
X161544512Y-130746817D01*
X161650770Y-130810000D01*
X161544512Y-130873183D01*
X161326146Y-131069707D01*
X161150316Y-131305056D01*
X161023778Y-131570186D01*
X160978042Y-131720974D01*
X161099183Y-131953000D01*
X162306000Y-131953000D01*
X162306000Y-129667000D01*
X161099183Y-129667000D01*
X160978042Y-129899026D01*
X123860958Y-129899026D01*
X123739817Y-129667000D01*
X122533000Y-129667000D01*
X122279000Y-129667000D01*
X122259000Y-129667000D01*
X122259000Y-129413000D01*
X122279000Y-129413000D01*
X122279000Y-127127000D01*
X122533000Y-127127000D01*
X122533000Y-129413000D01*
X123739817Y-129413000D01*
X123860958Y-129180974D01*
X123815222Y-129030186D01*
X123688684Y-128765056D01*
X123512854Y-128529707D01*
X123294488Y-128333183D01*
X123188230Y-128270000D01*
X123294488Y-128206817D01*
X123512854Y-128010293D01*
X123688684Y-127774944D01*
X123815222Y-127509814D01*
X123860958Y-127359026D01*
X123859844Y-127356891D01*
X127387319Y-127356891D01*
X127484643Y-127631252D01*
X127633622Y-127881355D01*
X127828531Y-128097588D01*
X128061880Y-128271641D01*
X128324701Y-128396825D01*
X128471910Y-128441476D01*
X128701800Y-128320155D01*
X128701800Y-127127000D01*
X127507986Y-127127000D01*
X127387319Y-127356891D01*
X123859844Y-127356891D01*
X123739817Y-127127000D01*
X122533000Y-127127000D01*
X122279000Y-127127000D01*
X122259000Y-127127000D01*
X122259000Y-126873000D01*
X122279000Y-126873000D01*
X122279000Y-126853000D01*
X122533000Y-126853000D01*
X122533000Y-126873000D01*
X123739817Y-126873000D01*
X123860958Y-126640974D01*
X123815222Y-126490186D01*
X123776284Y-126408601D01*
X123792877Y-126408601D01*
X123830199Y-126412277D01*
X123867521Y-126408601D01*
X123867532Y-126408601D01*
X123979185Y-126397604D01*
X124122446Y-126354147D01*
X124254475Y-126283575D01*
X124370200Y-126188602D01*
X124394002Y-126159599D01*
X124894803Y-125658798D01*
X124923801Y-125635001D01*
X124968106Y-125581015D01*
X125018774Y-125519277D01*
X125089346Y-125387247D01*
X125120362Y-125284998D01*
X125132803Y-125243986D01*
X125143800Y-125132333D01*
X125143800Y-125132324D01*
X125147476Y-125095001D01*
X125143800Y-125057678D01*
X125143800Y-124313740D01*
X127343800Y-124313740D01*
X127343800Y-124606260D01*
X127400868Y-124893158D01*
X127512810Y-125163411D01*
X127675325Y-125406632D01*
X127882168Y-125613475D01*
X128058206Y-125731100D01*
X127828531Y-125902412D01*
X127633622Y-126118645D01*
X127484643Y-126368748D01*
X127387319Y-126643109D01*
X127507986Y-126873000D01*
X128701800Y-126873000D01*
X128701800Y-126853000D01*
X128955800Y-126853000D01*
X128955800Y-126873000D01*
X128975800Y-126873000D01*
X128975800Y-127127000D01*
X128955800Y-127127000D01*
X128955800Y-128320155D01*
X129185690Y-128441476D01*
X129332899Y-128396825D01*
X129595720Y-128271641D01*
X129829069Y-128097588D01*
X130023978Y-127881355D01*
X130093605Y-127764466D01*
X130215325Y-127946632D01*
X130422168Y-128153475D01*
X130665389Y-128315990D01*
X130935642Y-128427932D01*
X131222540Y-128485000D01*
X131515060Y-128485000D01*
X131801958Y-128427932D01*
X132072211Y-128315990D01*
X132315432Y-128153475D01*
X132522275Y-127946632D01*
X132638800Y-127772240D01*
X132755325Y-127946632D01*
X132962168Y-128153475D01*
X133205389Y-128315990D01*
X133475642Y-128427932D01*
X133762540Y-128485000D01*
X134055060Y-128485000D01*
X134341958Y-128427932D01*
X134612211Y-128315990D01*
X134855432Y-128153475D01*
X135062275Y-127946632D01*
X135178800Y-127772240D01*
X135295325Y-127946632D01*
X135502168Y-128153475D01*
X135745389Y-128315990D01*
X136015642Y-128427932D01*
X136302540Y-128485000D01*
X136595060Y-128485000D01*
X136881958Y-128427932D01*
X137152211Y-128315990D01*
X137395432Y-128153475D01*
X137602275Y-127946632D01*
X137723995Y-127764466D01*
X137793622Y-127881355D01*
X137988531Y-128097588D01*
X138221880Y-128271641D01*
X138484701Y-128396825D01*
X138631910Y-128441476D01*
X138861800Y-128320155D01*
X138861800Y-127127000D01*
X138841800Y-127127000D01*
X138841800Y-126873000D01*
X138861800Y-126873000D01*
X138861800Y-126853000D01*
X139115800Y-126853000D01*
X139115800Y-126873000D01*
X139135800Y-126873000D01*
X139135800Y-127127000D01*
X139115800Y-127127000D01*
X139115800Y-128320155D01*
X139345690Y-128441476D01*
X139492899Y-128396825D01*
X139755720Y-128271641D01*
X139989069Y-128097588D01*
X140183978Y-127881355D01*
X140332957Y-127631252D01*
X140336871Y-127620217D01*
X140337001Y-127621532D01*
X140337001Y-127672333D01*
X140347998Y-127783986D01*
X140391455Y-127927247D01*
X140462027Y-128059276D01*
X140557000Y-128175001D01*
X140672725Y-128269974D01*
X140748448Y-128310449D01*
X141219001Y-128781002D01*
X141242799Y-128810001D01*
X141358524Y-128904974D01*
X141490553Y-128975546D01*
X141633814Y-129019003D01*
X141745467Y-129030000D01*
X141745475Y-129030000D01*
X141782800Y-129033676D01*
X141820125Y-129030000D01*
X148730265Y-129030000D01*
X148832911Y-129098586D01*
X149003071Y-129169068D01*
X149183711Y-129205000D01*
X149367889Y-129205000D01*
X149548529Y-129169068D01*
X149718689Y-129098586D01*
X149871828Y-128996262D01*
X150002062Y-128866028D01*
X150104386Y-128712889D01*
X150174868Y-128542729D01*
X150210800Y-128362089D01*
X150210800Y-128177911D01*
X150174868Y-127997271D01*
X150104386Y-127827111D01*
X150002062Y-127673972D01*
X149871828Y-127543738D01*
X149718689Y-127441414D01*
X149548529Y-127370932D01*
X149367889Y-127335000D01*
X149183711Y-127335000D01*
X149003071Y-127370932D01*
X148832911Y-127441414D01*
X148730265Y-127510000D01*
X142097602Y-127510000D01*
X141857000Y-127269399D01*
X141857000Y-126253675D01*
X143065500Y-126253675D01*
X143065500Y-126476325D01*
X143108937Y-126694696D01*
X143194141Y-126900398D01*
X143317839Y-127085524D01*
X143475276Y-127242961D01*
X143660402Y-127366659D01*
X143866104Y-127451863D01*
X144084475Y-127495300D01*
X144307125Y-127495300D01*
X144525496Y-127451863D01*
X144731198Y-127366659D01*
X144916324Y-127242961D01*
X145073761Y-127085524D01*
X145197459Y-126900398D01*
X145282663Y-126694696D01*
X145326100Y-126476325D01*
X145326100Y-126253675D01*
X145282663Y-126035304D01*
X145197459Y-125829602D01*
X145073761Y-125644476D01*
X144916324Y-125487039D01*
X144731198Y-125363341D01*
X144525496Y-125278137D01*
X144322082Y-125237675D01*
X150685500Y-125237675D01*
X150685500Y-125460325D01*
X150728937Y-125678696D01*
X150814141Y-125884398D01*
X150937839Y-126069524D01*
X151095276Y-126226961D01*
X151280402Y-126350659D01*
X151315024Y-126365000D01*
X151280402Y-126379341D01*
X151095276Y-126503039D01*
X150937839Y-126660476D01*
X150814141Y-126845602D01*
X150728937Y-127051304D01*
X150685500Y-127269675D01*
X150685500Y-127492325D01*
X150728937Y-127710696D01*
X150814141Y-127916398D01*
X150937839Y-128101524D01*
X151095276Y-128258961D01*
X151280402Y-128382659D01*
X151486104Y-128467863D01*
X151704475Y-128511300D01*
X151927125Y-128511300D01*
X152145496Y-128467863D01*
X152351198Y-128382659D01*
X152536324Y-128258961D01*
X152693761Y-128101524D01*
X152817459Y-127916398D01*
X152902663Y-127710696D01*
X152946100Y-127492325D01*
X152946100Y-127359026D01*
X160978042Y-127359026D01*
X161023778Y-127509814D01*
X161150316Y-127774944D01*
X161326146Y-128010293D01*
X161544512Y-128206817D01*
X161650770Y-128270000D01*
X161544512Y-128333183D01*
X161326146Y-128529707D01*
X161150316Y-128765056D01*
X161023778Y-129030186D01*
X160978042Y-129180974D01*
X161099183Y-129413000D01*
X162306000Y-129413000D01*
X162306000Y-127127000D01*
X161099183Y-127127000D01*
X160978042Y-127359026D01*
X152946100Y-127359026D01*
X152946100Y-127269675D01*
X152902663Y-127051304D01*
X152817459Y-126845602D01*
X152693761Y-126660476D01*
X152536324Y-126503039D01*
X152351198Y-126379341D01*
X152316576Y-126365000D01*
X152351198Y-126350659D01*
X152536324Y-126226961D01*
X152693761Y-126069524D01*
X152817459Y-125884398D01*
X152902663Y-125678696D01*
X152946100Y-125460325D01*
X152946100Y-125237675D01*
X152902663Y-125019304D01*
X152819706Y-124819026D01*
X160978042Y-124819026D01*
X161023778Y-124969814D01*
X161150316Y-125234944D01*
X161326146Y-125470293D01*
X161544512Y-125666817D01*
X161650770Y-125730000D01*
X161544512Y-125793183D01*
X161326146Y-125989707D01*
X161150316Y-126225056D01*
X161023778Y-126490186D01*
X160978042Y-126640974D01*
X161099183Y-126873000D01*
X162306000Y-126873000D01*
X162306000Y-124587000D01*
X161099183Y-124587000D01*
X160978042Y-124819026D01*
X152819706Y-124819026D01*
X152817459Y-124813602D01*
X152693761Y-124628476D01*
X152536324Y-124471039D01*
X152351198Y-124347341D01*
X152145496Y-124262137D01*
X151927125Y-124218700D01*
X151704475Y-124218700D01*
X151486104Y-124262137D01*
X151280402Y-124347341D01*
X151095276Y-124471039D01*
X150937839Y-124628476D01*
X150814141Y-124813602D01*
X150728937Y-125019304D01*
X150685500Y-125237675D01*
X144322082Y-125237675D01*
X144307125Y-125234700D01*
X144084475Y-125234700D01*
X143866104Y-125278137D01*
X143660402Y-125363341D01*
X143475276Y-125487039D01*
X143317839Y-125644476D01*
X143194141Y-125829602D01*
X143108937Y-126035304D01*
X143065500Y-126253675D01*
X141857000Y-126253675D01*
X141857000Y-126249933D01*
X141860677Y-126212600D01*
X141857000Y-126175267D01*
X141857000Y-122279026D01*
X160978042Y-122279026D01*
X161023778Y-122429814D01*
X161150316Y-122694944D01*
X161326146Y-122930293D01*
X161544512Y-123126817D01*
X161650770Y-123190000D01*
X161544512Y-123253183D01*
X161326146Y-123449707D01*
X161150316Y-123685056D01*
X161023778Y-123950186D01*
X160978042Y-124100974D01*
X161099183Y-124333000D01*
X162306000Y-124333000D01*
X162306000Y-122047000D01*
X161099183Y-122047000D01*
X160978042Y-122279026D01*
X141857000Y-122279026D01*
X141857000Y-119073538D01*
X141881277Y-119037205D01*
X141947990Y-118876145D01*
X141982000Y-118705165D01*
X141982000Y-118530835D01*
X141947990Y-118359855D01*
X141881277Y-118198795D01*
X141857000Y-118162462D01*
X141857000Y-113471801D01*
X143215202Y-112113600D01*
X144197462Y-112113600D01*
X144233795Y-112137877D01*
X144394855Y-112204590D01*
X144565835Y-112238600D01*
X144740165Y-112238600D01*
X144911145Y-112204590D01*
X145072205Y-112137877D01*
X145217155Y-112041024D01*
X145299165Y-111959014D01*
X145361408Y-112021257D01*
X145385207Y-112050256D01*
X145500932Y-112145229D01*
X145632961Y-112215801D01*
X145776222Y-112259258D01*
X145887875Y-112270255D01*
X145887884Y-112270255D01*
X145925207Y-112273931D01*
X145962530Y-112270255D01*
X148482951Y-112270255D01*
X148501010Y-112361045D01*
X148551898Y-112483900D01*
X148501010Y-112606755D01*
X148467000Y-112777735D01*
X148467000Y-112952065D01*
X148501010Y-113123045D01*
X148551898Y-113245900D01*
X148501010Y-113368755D01*
X148467000Y-113539735D01*
X148467000Y-113714065D01*
X148501010Y-113885045D01*
X148551898Y-114007900D01*
X148501010Y-114130755D01*
X148486460Y-114203901D01*
X148374801Y-114203901D01*
X148235700Y-114064800D01*
X148256677Y-114033405D01*
X148323390Y-113872345D01*
X148357400Y-113701365D01*
X148357400Y-113527035D01*
X148323390Y-113356055D01*
X148256677Y-113194995D01*
X148159824Y-113050045D01*
X148036555Y-112926776D01*
X147891605Y-112829923D01*
X147730545Y-112763210D01*
X147559565Y-112729200D01*
X147385235Y-112729200D01*
X147214255Y-112763210D01*
X147053195Y-112829923D01*
X146908245Y-112926776D01*
X146784976Y-113050045D01*
X146688123Y-113194995D01*
X146621410Y-113356055D01*
X146587400Y-113527035D01*
X146587400Y-113701365D01*
X146621410Y-113872345D01*
X146688123Y-114033405D01*
X146712400Y-114069738D01*
X146712400Y-114338980D01*
X146708724Y-114376302D01*
X146712400Y-114413624D01*
X146712400Y-114413635D01*
X146723397Y-114525288D01*
X146751717Y-114618646D01*
X146766854Y-114668548D01*
X146837426Y-114800578D01*
X146908601Y-114887304D01*
X146932400Y-114916303D01*
X146961397Y-114940100D01*
X147496204Y-115474908D01*
X147519998Y-115503902D01*
X147548991Y-115527696D01*
X147548995Y-115527700D01*
X147619684Y-115585712D01*
X147635723Y-115598875D01*
X147767752Y-115669447D01*
X147911013Y-115712904D01*
X148022666Y-115723901D01*
X148022675Y-115723901D01*
X148059998Y-115727577D01*
X148097321Y-115723901D01*
X148977893Y-115723901D01*
X148881995Y-115763623D01*
X148737045Y-115860476D01*
X148613776Y-115983745D01*
X148516923Y-116128695D01*
X148450210Y-116289755D01*
X148416200Y-116460735D01*
X148416200Y-116635065D01*
X148450210Y-116806045D01*
X148501098Y-116928900D01*
X148450210Y-117051755D01*
X148416200Y-117222735D01*
X148416200Y-117397065D01*
X148450210Y-117568045D01*
X148501098Y-117690900D01*
X148450210Y-117813755D01*
X148416200Y-117984735D01*
X148416200Y-118159065D01*
X148450210Y-118330045D01*
X148501098Y-118452900D01*
X148450210Y-118575755D01*
X148416200Y-118746735D01*
X148416200Y-118921065D01*
X148450210Y-119092045D01*
X148516923Y-119253105D01*
X148613776Y-119398055D01*
X148737045Y-119521324D01*
X148881995Y-119618177D01*
X149043055Y-119684890D01*
X149214035Y-119718900D01*
X149388365Y-119718900D01*
X149559345Y-119684890D01*
X149720405Y-119618177D01*
X149756738Y-119593900D01*
X155246462Y-119593900D01*
X155282795Y-119618177D01*
X155443855Y-119684890D01*
X155614835Y-119718900D01*
X155789165Y-119718900D01*
X155960145Y-119684890D01*
X156121205Y-119618177D01*
X156266155Y-119521324D01*
X156389424Y-119398055D01*
X156486277Y-119253105D01*
X156552990Y-119092045D01*
X156587000Y-118921065D01*
X156587000Y-118746735D01*
X156552990Y-118575755D01*
X156502102Y-118452900D01*
X156552990Y-118330045D01*
X156587000Y-118159065D01*
X156587000Y-117984735D01*
X156552990Y-117813755D01*
X156502102Y-117690900D01*
X156552990Y-117568045D01*
X156587000Y-117397065D01*
X156587000Y-117222735D01*
X156552990Y-117051755D01*
X156502102Y-116928900D01*
X156552990Y-116806045D01*
X156587000Y-116635065D01*
X156587000Y-116460735D01*
X156552990Y-116289755D01*
X156486277Y-116128695D01*
X156389424Y-115983745D01*
X156266155Y-115860476D01*
X156121205Y-115763623D01*
X156025307Y-115723901D01*
X156092977Y-115723901D01*
X156130299Y-115727577D01*
X156167621Y-115723901D01*
X156167632Y-115723901D01*
X156279285Y-115712904D01*
X156422546Y-115669447D01*
X156554575Y-115598875D01*
X156670300Y-115503902D01*
X156694102Y-115474899D01*
X157695288Y-114473715D01*
X157738145Y-114465190D01*
X157899205Y-114398477D01*
X158044155Y-114301624D01*
X158167424Y-114178355D01*
X158264277Y-114033405D01*
X158330990Y-113872345D01*
X158365000Y-113701365D01*
X158365000Y-113527035D01*
X158330990Y-113356055D01*
X158264277Y-113194995D01*
X158167424Y-113050045D01*
X158044155Y-112926776D01*
X157899205Y-112829923D01*
X157738145Y-112763210D01*
X157567165Y-112729200D01*
X157392835Y-112729200D01*
X157221855Y-112763210D01*
X157060795Y-112829923D01*
X156915845Y-112926776D01*
X156792576Y-113050045D01*
X156695723Y-113194995D01*
X156629010Y-113356055D01*
X156620485Y-113398912D01*
X156569192Y-113450206D01*
X156552990Y-113368755D01*
X156502102Y-113245900D01*
X156552990Y-113123045D01*
X156587000Y-112952065D01*
X156587000Y-112777735D01*
X156552990Y-112606755D01*
X156502102Y-112483900D01*
X156552990Y-112361045D01*
X156571049Y-112270255D01*
X158820454Y-112270255D01*
X159444990Y-112894792D01*
X159444991Y-120162658D01*
X159441314Y-120199990D01*
X159455988Y-120348975D01*
X159499444Y-120492236D01*
X159570016Y-120624266D01*
X159638770Y-120708042D01*
X159664990Y-120739991D01*
X159693988Y-120763789D01*
X160172599Y-121242401D01*
X160196398Y-121271400D01*
X160312123Y-121366373D01*
X160444152Y-121436945D01*
X160587413Y-121480402D01*
X160699066Y-121491399D01*
X160699076Y-121491399D01*
X160736399Y-121495075D01*
X160773722Y-121491399D01*
X160999145Y-121491399D01*
X160978042Y-121560974D01*
X161099183Y-121793000D01*
X162306000Y-121793000D01*
X162306000Y-121773000D01*
X162560000Y-121773000D01*
X162560000Y-121793000D01*
X162580000Y-121793000D01*
X162580000Y-122047000D01*
X162560000Y-122047000D01*
X162560000Y-124333000D01*
X162580000Y-124333000D01*
X162580000Y-124587000D01*
X162560000Y-124587000D01*
X162560000Y-126873000D01*
X162580000Y-126873000D01*
X162580000Y-127127000D01*
X162560000Y-127127000D01*
X162560000Y-129413000D01*
X162580000Y-129413000D01*
X162580000Y-129667000D01*
X162560000Y-129667000D01*
X162560000Y-131953000D01*
X162580000Y-131953000D01*
X162580000Y-132207000D01*
X162560000Y-132207000D01*
X162560000Y-134493000D01*
X162580000Y-134493000D01*
X162580000Y-134747000D01*
X162560000Y-134747000D01*
X162560000Y-135954464D01*
X162792027Y-136074963D01*
X163068978Y-135976964D01*
X163321488Y-135826817D01*
X163539854Y-135630293D01*
X163701308Y-135414187D01*
X163808961Y-135575302D01*
X164017698Y-135784039D01*
X164263147Y-135948042D01*
X164535875Y-136061010D01*
X164825401Y-136118600D01*
X165120599Y-136118600D01*
X165410125Y-136061010D01*
X165682853Y-135948042D01*
X165928302Y-135784039D01*
X166137039Y-135575302D01*
X166301042Y-135329853D01*
X166414010Y-135057125D01*
X166471600Y-134767599D01*
X166471600Y-134472401D01*
X166414010Y-134182875D01*
X166301042Y-133910147D01*
X166137039Y-133664698D01*
X165928302Y-133455961D01*
X165769719Y-133350000D01*
X165928302Y-133244039D01*
X166137039Y-133035302D01*
X166301042Y-132789853D01*
X166414010Y-132517125D01*
X166471600Y-132227599D01*
X166471600Y-131932401D01*
X166414010Y-131642875D01*
X166301042Y-131370147D01*
X166137039Y-131124698D01*
X165928302Y-130915961D01*
X165769719Y-130810000D01*
X165928302Y-130704039D01*
X166137039Y-130495302D01*
X166301042Y-130249853D01*
X166414010Y-129977125D01*
X166471600Y-129687599D01*
X166471600Y-129392401D01*
X166414010Y-129102875D01*
X166301042Y-128830147D01*
X166137039Y-128584698D01*
X165928302Y-128375961D01*
X165769719Y-128270000D01*
X165928302Y-128164039D01*
X166137039Y-127955302D01*
X166301042Y-127709853D01*
X166414010Y-127437125D01*
X166471600Y-127147599D01*
X166471600Y-126852401D01*
X166414010Y-126562875D01*
X166301042Y-126290147D01*
X166137039Y-126044698D01*
X165928302Y-125835961D01*
X165769719Y-125730000D01*
X165928302Y-125624039D01*
X166137039Y-125415302D01*
X166301042Y-125169853D01*
X166414010Y-124897125D01*
X166471600Y-124607599D01*
X166471600Y-124312401D01*
X166414010Y-124022875D01*
X166301042Y-123750147D01*
X166137039Y-123504698D01*
X165928302Y-123295961D01*
X165769719Y-123190000D01*
X165928302Y-123084039D01*
X166137039Y-122875302D01*
X166301042Y-122629853D01*
X166414010Y-122357125D01*
X166471600Y-122067599D01*
X166471600Y-121772401D01*
X166414010Y-121482875D01*
X166301042Y-121210147D01*
X166137039Y-120964698D01*
X165928302Y-120755961D01*
X165769719Y-120650000D01*
X165928302Y-120544039D01*
X166137039Y-120335302D01*
X166301042Y-120089853D01*
X166414010Y-119817125D01*
X166471600Y-119527599D01*
X166471600Y-119232401D01*
X166414010Y-118942875D01*
X166301042Y-118670147D01*
X166137039Y-118424698D01*
X165928302Y-118215961D01*
X165769719Y-118110000D01*
X165928302Y-118004039D01*
X166137039Y-117795302D01*
X166301042Y-117549853D01*
X166414010Y-117277125D01*
X166471600Y-116987599D01*
X166471600Y-116692401D01*
X166414010Y-116402875D01*
X166301042Y-116130147D01*
X166137039Y-115884698D01*
X165928302Y-115675961D01*
X165769719Y-115570000D01*
X165928302Y-115464039D01*
X166137039Y-115255302D01*
X166301042Y-115009853D01*
X166414010Y-114737125D01*
X166471600Y-114447599D01*
X166471600Y-114152401D01*
X166414010Y-113862875D01*
X166301042Y-113590147D01*
X166137039Y-113344698D01*
X165928302Y-113135961D01*
X165769719Y-113030000D01*
X165928302Y-112924039D01*
X166137039Y-112715302D01*
X166301042Y-112469853D01*
X166414010Y-112197125D01*
X166471600Y-111907599D01*
X166471600Y-111612401D01*
X166414010Y-111322875D01*
X166301042Y-111050147D01*
X166137039Y-110804698D01*
X165928302Y-110595961D01*
X165769719Y-110490000D01*
X165928302Y-110384039D01*
X166137039Y-110175302D01*
X166301042Y-109929853D01*
X166414010Y-109657125D01*
X166471600Y-109367599D01*
X166471600Y-109072401D01*
X166414010Y-108782875D01*
X166301042Y-108510147D01*
X166137039Y-108264698D01*
X165928302Y-108055961D01*
X165769719Y-107950000D01*
X165928302Y-107844039D01*
X166137039Y-107635302D01*
X166301042Y-107389853D01*
X166414010Y-107117125D01*
X166471600Y-106827599D01*
X166471600Y-106532401D01*
X166414010Y-106242875D01*
X166301042Y-105970147D01*
X166137039Y-105724698D01*
X165928302Y-105515961D01*
X165769719Y-105410000D01*
X165928302Y-105304039D01*
X166137039Y-105095302D01*
X166301042Y-104849853D01*
X166414010Y-104577125D01*
X166471600Y-104287599D01*
X166471600Y-103992401D01*
X166414010Y-103702875D01*
X166301042Y-103430147D01*
X166137039Y-103184698D01*
X165928302Y-102975961D01*
X165769719Y-102870000D01*
X165928302Y-102764039D01*
X166137039Y-102555302D01*
X166301042Y-102309853D01*
X166414010Y-102037125D01*
X166471600Y-101747599D01*
X166471600Y-101452401D01*
X166414010Y-101162875D01*
X166301042Y-100890147D01*
X166137039Y-100644698D01*
X165928302Y-100435961D01*
X165769719Y-100330000D01*
X165928302Y-100224039D01*
X166137039Y-100015302D01*
X166301042Y-99769853D01*
X166414010Y-99497125D01*
X166471600Y-99207599D01*
X166471600Y-98912401D01*
X166414010Y-98622875D01*
X166301042Y-98350147D01*
X166137039Y-98104698D01*
X165928302Y-97895961D01*
X165769719Y-97790000D01*
X165928302Y-97684039D01*
X166137039Y-97475302D01*
X166301042Y-97229853D01*
X166414010Y-96957125D01*
X166471600Y-96667599D01*
X166471600Y-96372401D01*
X166414010Y-96082875D01*
X166301042Y-95810147D01*
X166137039Y-95564698D01*
X165928302Y-95355961D01*
X165769719Y-95250000D01*
X165928302Y-95144039D01*
X166137039Y-94935302D01*
X166301042Y-94689853D01*
X166414010Y-94417125D01*
X166471600Y-94127599D01*
X166471600Y-93832401D01*
X166414010Y-93542875D01*
X166301042Y-93270147D01*
X166137039Y-93024698D01*
X165928302Y-92815961D01*
X165769719Y-92710000D01*
X165928302Y-92604039D01*
X166137039Y-92395302D01*
X166301042Y-92149853D01*
X166414010Y-91877125D01*
X166471600Y-91587599D01*
X166471600Y-91292401D01*
X166414010Y-91002875D01*
X166301042Y-90730147D01*
X166137039Y-90484698D01*
X165928302Y-90275961D01*
X165769719Y-90170000D01*
X165928302Y-90064039D01*
X166137039Y-89855302D01*
X166301042Y-89609853D01*
X166414010Y-89337125D01*
X166471600Y-89047599D01*
X166471600Y-88752401D01*
X166414010Y-88462875D01*
X166301042Y-88190147D01*
X166137039Y-87944698D01*
X165928302Y-87735961D01*
X165769719Y-87630000D01*
X165928302Y-87524039D01*
X166137039Y-87315302D01*
X166301042Y-87069853D01*
X166414010Y-86797125D01*
X166471600Y-86507599D01*
X166471600Y-86212401D01*
X166414010Y-85922875D01*
X166301042Y-85650147D01*
X166137039Y-85404698D01*
X165928302Y-85195961D01*
X165769719Y-85090000D01*
X165928302Y-84984039D01*
X166137039Y-84775302D01*
X166301042Y-84529853D01*
X166414010Y-84257125D01*
X166471600Y-83967599D01*
X166471600Y-83672401D01*
X166414010Y-83382875D01*
X166301042Y-83110147D01*
X166137039Y-82864698D01*
X165928302Y-82655961D01*
X165769719Y-82550000D01*
X165928302Y-82444039D01*
X166137039Y-82235302D01*
X166301042Y-81989853D01*
X166414010Y-81717125D01*
X166471600Y-81427599D01*
X166471600Y-81132401D01*
X166414010Y-80842875D01*
X166301042Y-80570147D01*
X166137039Y-80324698D01*
X165928302Y-80115961D01*
X165769719Y-80010000D01*
X165928302Y-79904039D01*
X166137039Y-79695302D01*
X166301042Y-79449853D01*
X166414010Y-79177125D01*
X166471600Y-78887599D01*
X166471600Y-78592401D01*
X166414010Y-78302875D01*
X166301042Y-78030147D01*
X166137039Y-77784698D01*
X165928302Y-77575961D01*
X165769719Y-77470000D01*
X165928302Y-77364039D01*
X166137039Y-77155302D01*
X166301042Y-76909853D01*
X166414010Y-76637125D01*
X166471600Y-76347599D01*
X166471600Y-76052401D01*
X166414010Y-75762875D01*
X166301042Y-75490147D01*
X166137039Y-75244698D01*
X165928302Y-75035961D01*
X165769719Y-74930000D01*
X165928302Y-74824039D01*
X166137039Y-74615302D01*
X166301042Y-74369853D01*
X166414010Y-74097125D01*
X166471600Y-73807599D01*
X166471600Y-73512401D01*
X166414010Y-73222875D01*
X166301042Y-72950147D01*
X166137039Y-72704698D01*
X165928302Y-72495961D01*
X165682853Y-72331958D01*
X165410125Y-72218990D01*
X165120599Y-72161400D01*
X164825401Y-72161400D01*
X164535875Y-72218990D01*
X164263147Y-72331958D01*
X164017698Y-72495961D01*
X163903636Y-72610023D01*
X163886102Y-72552220D01*
X163827137Y-72441906D01*
X163747785Y-72345215D01*
X163651094Y-72265863D01*
X163540780Y-72206898D01*
X163421082Y-72170588D01*
X163296600Y-72158328D01*
X162718750Y-72161400D01*
X162560000Y-72320150D01*
X162560000Y-73533000D01*
X162580000Y-73533000D01*
X162580000Y-73787000D01*
X162560000Y-73787000D01*
X162560000Y-76073000D01*
X162580000Y-76073000D01*
X162580000Y-76327000D01*
X162560000Y-76327000D01*
X162560000Y-78613000D01*
X162580000Y-78613000D01*
X162580000Y-78867000D01*
X162560000Y-78867000D01*
X162560000Y-81153000D01*
X162580000Y-81153000D01*
X162580000Y-81407000D01*
X162560000Y-81407000D01*
X162560000Y-83693000D01*
X162580000Y-83693000D01*
X162580000Y-83947000D01*
X162560000Y-83947000D01*
X162560000Y-86233000D01*
X162580000Y-86233000D01*
X162580000Y-86487000D01*
X162560000Y-86487000D01*
X162560000Y-88773000D01*
X162580000Y-88773000D01*
X162580000Y-89027000D01*
X162560000Y-89027000D01*
X162560000Y-91313000D01*
X162580000Y-91313000D01*
X162580000Y-91567000D01*
X162560000Y-91567000D01*
X162560000Y-93853000D01*
X162580000Y-93853000D01*
X162580000Y-94107000D01*
X162560000Y-94107000D01*
X162560000Y-96393000D01*
X162580000Y-96393000D01*
X162580000Y-96647000D01*
X162560000Y-96647000D01*
X162560000Y-98933000D01*
X162580000Y-98933000D01*
X162580000Y-99187000D01*
X162560000Y-99187000D01*
X162560000Y-101473000D01*
X162580000Y-101473000D01*
X162580000Y-101727000D01*
X162560000Y-101727000D01*
X162560000Y-101747000D01*
X162306000Y-101747000D01*
X162306000Y-101727000D01*
X161099183Y-101727000D01*
X160978042Y-101959026D01*
X161023778Y-102109814D01*
X161023867Y-102110000D01*
X155857362Y-102110000D01*
X155814498Y-102029808D01*
X155760042Y-101948309D01*
X155680690Y-101851618D01*
X155611382Y-101782310D01*
X155514691Y-101702958D01*
X155433192Y-101648502D01*
X155322875Y-101589536D01*
X155232319Y-101552027D01*
X155112623Y-101515718D01*
X155016490Y-101496596D01*
X154892009Y-101484336D01*
X154867450Y-101484336D01*
X154843000Y-101481928D01*
X154293000Y-101481928D01*
X154168518Y-101494188D01*
X154168000Y-101494345D01*
X154167482Y-101494188D01*
X154043000Y-101481928D01*
X153128000Y-101481928D01*
X153128000Y-99419026D01*
X160978042Y-99419026D01*
X161023778Y-99569814D01*
X161150316Y-99834944D01*
X161326146Y-100070293D01*
X161544512Y-100266817D01*
X161650770Y-100330000D01*
X161544512Y-100393183D01*
X161326146Y-100589707D01*
X161150316Y-100825056D01*
X161023778Y-101090186D01*
X160978042Y-101240974D01*
X161099183Y-101473000D01*
X162306000Y-101473000D01*
X162306000Y-99187000D01*
X161099183Y-99187000D01*
X160978042Y-99419026D01*
X153128000Y-99419026D01*
X153128000Y-96879026D01*
X160978042Y-96879026D01*
X161023778Y-97029814D01*
X161150316Y-97294944D01*
X161326146Y-97530293D01*
X161544512Y-97726817D01*
X161650770Y-97790000D01*
X161544512Y-97853183D01*
X161326146Y-98049707D01*
X161150316Y-98285056D01*
X161023778Y-98550186D01*
X160978042Y-98700974D01*
X161099183Y-98933000D01*
X162306000Y-98933000D01*
X162306000Y-96647000D01*
X161099183Y-96647000D01*
X160978042Y-96879026D01*
X153128000Y-96879026D01*
X153128000Y-94339026D01*
X160978042Y-94339026D01*
X161023778Y-94489814D01*
X161150316Y-94754944D01*
X161326146Y-94990293D01*
X161544512Y-95186817D01*
X161650770Y-95250000D01*
X161544512Y-95313183D01*
X161326146Y-95509707D01*
X161150316Y-95745056D01*
X161023778Y-96010186D01*
X160978042Y-96160974D01*
X161099183Y-96393000D01*
X162306000Y-96393000D01*
X162306000Y-94107000D01*
X161099183Y-94107000D01*
X160978042Y-94339026D01*
X153128000Y-94339026D01*
X153128000Y-91799026D01*
X160978042Y-91799026D01*
X161023778Y-91949814D01*
X161150316Y-92214944D01*
X161326146Y-92450293D01*
X161544512Y-92646817D01*
X161650770Y-92710000D01*
X161544512Y-92773183D01*
X161326146Y-92969707D01*
X161150316Y-93205056D01*
X161023778Y-93470186D01*
X160978042Y-93620974D01*
X161099183Y-93853000D01*
X162306000Y-93853000D01*
X162306000Y-91567000D01*
X161099183Y-91567000D01*
X160978042Y-91799026D01*
X153128000Y-91799026D01*
X153128000Y-89259026D01*
X160978042Y-89259026D01*
X161023778Y-89409814D01*
X161150316Y-89674944D01*
X161326146Y-89910293D01*
X161544512Y-90106817D01*
X161650770Y-90170000D01*
X161544512Y-90233183D01*
X161326146Y-90429707D01*
X161150316Y-90665056D01*
X161023778Y-90930186D01*
X160978042Y-91080974D01*
X161099183Y-91313000D01*
X162306000Y-91313000D01*
X162306000Y-89027000D01*
X161099183Y-89027000D01*
X160978042Y-89259026D01*
X153128000Y-89259026D01*
X153128000Y-86719026D01*
X160978042Y-86719026D01*
X161023778Y-86869814D01*
X161150316Y-87134944D01*
X161326146Y-87370293D01*
X161544512Y-87566817D01*
X161650770Y-87630000D01*
X161544512Y-87693183D01*
X161326146Y-87889707D01*
X161150316Y-88125056D01*
X161023778Y-88390186D01*
X160978042Y-88540974D01*
X161099183Y-88773000D01*
X162306000Y-88773000D01*
X162306000Y-86487000D01*
X161099183Y-86487000D01*
X160978042Y-86719026D01*
X153128000Y-86719026D01*
X153128000Y-84179026D01*
X160978042Y-84179026D01*
X161023778Y-84329814D01*
X161150316Y-84594944D01*
X161326146Y-84830293D01*
X161544512Y-85026817D01*
X161650770Y-85090000D01*
X161544512Y-85153183D01*
X161326146Y-85349707D01*
X161150316Y-85585056D01*
X161023778Y-85850186D01*
X160978042Y-86000974D01*
X161099183Y-86233000D01*
X162306000Y-86233000D01*
X162306000Y-83947000D01*
X161099183Y-83947000D01*
X160978042Y-84179026D01*
X153128000Y-84179026D01*
X153128000Y-81639026D01*
X160978042Y-81639026D01*
X161023778Y-81789814D01*
X161150316Y-82054944D01*
X161326146Y-82290293D01*
X161544512Y-82486817D01*
X161650770Y-82550000D01*
X161544512Y-82613183D01*
X161326146Y-82809707D01*
X161150316Y-83045056D01*
X161023778Y-83310186D01*
X160978042Y-83460974D01*
X161099183Y-83693000D01*
X162306000Y-83693000D01*
X162306000Y-81407000D01*
X161099183Y-81407000D01*
X160978042Y-81639026D01*
X153128000Y-81639026D01*
X153128000Y-80406578D01*
X154435552Y-79099026D01*
X160978042Y-79099026D01*
X161023778Y-79249814D01*
X161150316Y-79514944D01*
X161326146Y-79750293D01*
X161544512Y-79946817D01*
X161650770Y-80010000D01*
X161544512Y-80073183D01*
X161326146Y-80269707D01*
X161150316Y-80505056D01*
X161023778Y-80770186D01*
X160978042Y-80920974D01*
X161099183Y-81153000D01*
X162306000Y-81153000D01*
X162306000Y-78867000D01*
X161099183Y-78867000D01*
X160978042Y-79099026D01*
X154435552Y-79099026D01*
X156975552Y-76559026D01*
X160978042Y-76559026D01*
X161023778Y-76709814D01*
X161150316Y-76974944D01*
X161326146Y-77210293D01*
X161544512Y-77406817D01*
X161650770Y-77470000D01*
X161544512Y-77533183D01*
X161326146Y-77729707D01*
X161150316Y-77965056D01*
X161023778Y-78230186D01*
X160978042Y-78380974D01*
X161099183Y-78613000D01*
X162306000Y-78613000D01*
X162306000Y-76327000D01*
X161099183Y-76327000D01*
X160978042Y-76559026D01*
X156975552Y-76559026D01*
X159010978Y-74523600D01*
X160931328Y-74523600D01*
X160943588Y-74648082D01*
X160979898Y-74767780D01*
X161038863Y-74878094D01*
X161118215Y-74974785D01*
X161214906Y-75054137D01*
X161325220Y-75113102D01*
X161389574Y-75132624D01*
X161326146Y-75189707D01*
X161150316Y-75425056D01*
X161023778Y-75690186D01*
X160978042Y-75840974D01*
X161099183Y-76073000D01*
X162306000Y-76073000D01*
X162306000Y-73787000D01*
X161093150Y-73787000D01*
X160934400Y-73945750D01*
X160931328Y-74523600D01*
X159010978Y-74523600D01*
X160488049Y-73046530D01*
X160521817Y-73018817D01*
X160632411Y-72884059D01*
X160679265Y-72796400D01*
X160931328Y-72796400D01*
X160934400Y-73374250D01*
X161093150Y-73533000D01*
X162306000Y-73533000D01*
X162306000Y-72320150D01*
X162147250Y-72161400D01*
X161569400Y-72158328D01*
X161444918Y-72170588D01*
X161325220Y-72206898D01*
X161214906Y-72265863D01*
X161118215Y-72345215D01*
X161038863Y-72441906D01*
X160979898Y-72552220D01*
X160943588Y-72671918D01*
X160931328Y-72796400D01*
X160679265Y-72796400D01*
X160714589Y-72730313D01*
X160765195Y-72563490D01*
X160778000Y-72433477D01*
X160778000Y-72433469D01*
X160782281Y-72390000D01*
X160778000Y-72346531D01*
X160778000Y-63944419D01*
X161209000Y-63944419D01*
X161209000Y-64325581D01*
X161283361Y-64699419D01*
X161429225Y-65051566D01*
X161640987Y-65368491D01*
X161910509Y-65638013D01*
X162227434Y-65849775D01*
X162579581Y-65995639D01*
X162953419Y-66070000D01*
X163334581Y-66070000D01*
X163708419Y-65995639D01*
X163943835Y-65898127D01*
X163852209Y-66119332D01*
X163779000Y-66487374D01*
X163779000Y-66862626D01*
X163852209Y-67230668D01*
X163995811Y-67577356D01*
X164204290Y-67889366D01*
X164469634Y-68154710D01*
X164781644Y-68363189D01*
X165128332Y-68506791D01*
X165496374Y-68580000D01*
X165871626Y-68580000D01*
X166239668Y-68506791D01*
X166586356Y-68363189D01*
X166898366Y-68154710D01*
X167163710Y-67889366D01*
X167372189Y-67577356D01*
X167515791Y-67230668D01*
X167589000Y-66862626D01*
X167589000Y-66487374D01*
X167515791Y-66119332D01*
X167372189Y-65772644D01*
X167163710Y-65460634D01*
X166898366Y-65195290D01*
X166586356Y-64986811D01*
X166239668Y-64843209D01*
X165871626Y-64770000D01*
X165496374Y-64770000D01*
X165128332Y-64843209D01*
X164907127Y-64934835D01*
X165004639Y-64699419D01*
X165079000Y-64325581D01*
X165079000Y-63944419D01*
X165004639Y-63570581D01*
X164858775Y-63218434D01*
X164647013Y-62901509D01*
X164377491Y-62631987D01*
X164060566Y-62420225D01*
X163708419Y-62274361D01*
X163334581Y-62200000D01*
X162953419Y-62200000D01*
X162579581Y-62274361D01*
X162227434Y-62420225D01*
X161910509Y-62631987D01*
X161640987Y-62901509D01*
X161429225Y-63218434D01*
X161283361Y-63570581D01*
X161209000Y-63944419D01*
X160778000Y-63944419D01*
X160778000Y-60404224D01*
X161974381Y-60404224D01*
X162106317Y-60699312D01*
X162447045Y-60870159D01*
X162814557Y-60971250D01*
X163194729Y-60998701D01*
X163572951Y-60951457D01*
X163934690Y-60831333D01*
X164181683Y-60699312D01*
X164313619Y-60404224D01*
X163144000Y-59234605D01*
X161974381Y-60404224D01*
X160778000Y-60404224D01*
X160778000Y-59105729D01*
X161200299Y-59105729D01*
X161247543Y-59483951D01*
X161367667Y-59845690D01*
X161499688Y-60092683D01*
X161794776Y-60224619D01*
X162964395Y-59055000D01*
X163323605Y-59055000D01*
X164493224Y-60224619D01*
X164788312Y-60092683D01*
X164959159Y-59751955D01*
X165060250Y-59384443D01*
X165087701Y-59004271D01*
X165040457Y-58626049D01*
X164920333Y-58264310D01*
X164788312Y-58017317D01*
X164493224Y-57885381D01*
X163323605Y-59055000D01*
X162964395Y-59055000D01*
X161794776Y-57885381D01*
X161499688Y-58017317D01*
X161328841Y-58358045D01*
X161227750Y-58725557D01*
X161200299Y-59105729D01*
X160778000Y-59105729D01*
X160778000Y-57705776D01*
X161974381Y-57705776D01*
X163144000Y-58875395D01*
X164313619Y-57705776D01*
X164181683Y-57410688D01*
X163840955Y-57239841D01*
X163473443Y-57138750D01*
X163093271Y-57111299D01*
X162715049Y-57158543D01*
X162353310Y-57278667D01*
X162106317Y-57410688D01*
X161974381Y-57705776D01*
X160778000Y-57705776D01*
X160778000Y-55324224D01*
X161974381Y-55324224D01*
X162106317Y-55619312D01*
X162447045Y-55790159D01*
X162814557Y-55891250D01*
X163194729Y-55918701D01*
X163572951Y-55871457D01*
X163934690Y-55751333D01*
X164181683Y-55619312D01*
X164313619Y-55324224D01*
X163144000Y-54154605D01*
X161974381Y-55324224D01*
X160778000Y-55324224D01*
X160778000Y-54025729D01*
X161200299Y-54025729D01*
X161247543Y-54403951D01*
X161367667Y-54765690D01*
X161499688Y-55012683D01*
X161794776Y-55144619D01*
X162964395Y-53975000D01*
X163323605Y-53975000D01*
X164493224Y-55144619D01*
X164788312Y-55012683D01*
X164959159Y-54671955D01*
X165060250Y-54304443D01*
X165087701Y-53924271D01*
X165040457Y-53546049D01*
X164920333Y-53184310D01*
X164788312Y-52937317D01*
X164493224Y-52805381D01*
X163323605Y-53975000D01*
X162964395Y-53975000D01*
X161794776Y-52805381D01*
X161499688Y-52937317D01*
X161328841Y-53278045D01*
X161227750Y-53645557D01*
X161200299Y-54025729D01*
X160778000Y-54025729D01*
X160778000Y-52625776D01*
X161974381Y-52625776D01*
X163144000Y-53795395D01*
X164313619Y-52625776D01*
X164181683Y-52330688D01*
X163840955Y-52159841D01*
X163473443Y-52058750D01*
X163093271Y-52031299D01*
X162715049Y-52078543D01*
X162353310Y-52198667D01*
X162106317Y-52330688D01*
X161974381Y-52625776D01*
X160778000Y-52625776D01*
X160778000Y-52512578D01*
X162548015Y-50742564D01*
X162579581Y-50755639D01*
X162953419Y-50830000D01*
X163334581Y-50830000D01*
X163708419Y-50755639D01*
X164060566Y-50609775D01*
X164377491Y-50398013D01*
X164647013Y-50128491D01*
X164858775Y-49811566D01*
X165004639Y-49459419D01*
X165079000Y-49085581D01*
X165079000Y-48704419D01*
X165004639Y-48330581D01*
X164907127Y-48095165D01*
X165128332Y-48186791D01*
X165496374Y-48260000D01*
X165871626Y-48260000D01*
X166239668Y-48186791D01*
X166586356Y-48043189D01*
X166898366Y-47834710D01*
X167163710Y-47569366D01*
X167372189Y-47257356D01*
X167515791Y-46910668D01*
X167589000Y-46542626D01*
X167589000Y-46167374D01*
X167515791Y-45799332D01*
X167372189Y-45452644D01*
X167163710Y-45140634D01*
X166898366Y-44875290D01*
X166586356Y-44666811D01*
X166239668Y-44523209D01*
X165871626Y-44450000D01*
X165496374Y-44450000D01*
X165128332Y-44523209D01*
X164781644Y-44666811D01*
X164469634Y-44875290D01*
X164204290Y-45140634D01*
X163995811Y-45452644D01*
X163852209Y-45799332D01*
X163779000Y-46167374D01*
X163779000Y-46542626D01*
X163852209Y-46910668D01*
X163943835Y-47131873D01*
X163708419Y-47034361D01*
X163334581Y-46960000D01*
X162953419Y-46960000D01*
X162579581Y-47034361D01*
X162227434Y-47180225D01*
X161910509Y-47391987D01*
X161640987Y-47661509D01*
X161429225Y-47978434D01*
X161283361Y-48330581D01*
X161209000Y-48704419D01*
X161209000Y-49085581D01*
X161283361Y-49459419D01*
X161296436Y-49490985D01*
X159297956Y-51489466D01*
X159264183Y-51517183D01*
X159153589Y-51651942D01*
X159071411Y-51805688D01*
X159020805Y-51972511D01*
X159008000Y-52102524D01*
X159008000Y-52102531D01*
X159003719Y-52146000D01*
X159008000Y-52189469D01*
X159008001Y-72023420D01*
X151647952Y-79383470D01*
X151614184Y-79411183D01*
X151586471Y-79444951D01*
X151586468Y-79444954D01*
X151503590Y-79545941D01*
X151421412Y-79699687D01*
X151370805Y-79866510D01*
X151353719Y-80040000D01*
X151358001Y-80083479D01*
X151358000Y-101909266D01*
X151325958Y-101948309D01*
X151271502Y-102029808D01*
X151212536Y-102140125D01*
X151175027Y-102230681D01*
X151138718Y-102350377D01*
X151119596Y-102446510D01*
X151107336Y-102570991D01*
X151107336Y-102595550D01*
X151104928Y-102620000D01*
X151104928Y-103120000D01*
X151107336Y-103144450D01*
X151107336Y-103169009D01*
X151119596Y-103293490D01*
X151138718Y-103389623D01*
X151175027Y-103509319D01*
X151212536Y-103599875D01*
X151271502Y-103710192D01*
X151325958Y-103791691D01*
X151405310Y-103888382D01*
X151474618Y-103957690D01*
X151571309Y-104037042D01*
X151652808Y-104091498D01*
X151763125Y-104150464D01*
X151853681Y-104187973D01*
X151973377Y-104224282D01*
X152069510Y-104243404D01*
X152193991Y-104255664D01*
X152218550Y-104255664D01*
X152243000Y-104258072D01*
X152616720Y-104258072D01*
X152608000Y-104301911D01*
X152608000Y-104307100D01*
X149807538Y-104307100D01*
X149771205Y-104282823D01*
X149610145Y-104216110D01*
X149439165Y-104182100D01*
X149264835Y-104182100D01*
X149093855Y-104216110D01*
X148932795Y-104282823D01*
X148787845Y-104379676D01*
X148664576Y-104502945D01*
X148567723Y-104647895D01*
X148501010Y-104808955D01*
X148467000Y-104979935D01*
X148467000Y-105154265D01*
X148501010Y-105325245D01*
X148551898Y-105448100D01*
X148501010Y-105570955D01*
X148467000Y-105741935D01*
X148467000Y-105916265D01*
X148501010Y-106087245D01*
X148551898Y-106210100D01*
X148501010Y-106332955D01*
X148467000Y-106503935D01*
X148467000Y-106678265D01*
X148501010Y-106849245D01*
X148551898Y-106972100D01*
X148501010Y-107094955D01*
X148467000Y-107265935D01*
X148467000Y-107440265D01*
X148501010Y-107611245D01*
X148551898Y-107734100D01*
X148501010Y-107856955D01*
X148467000Y-108027935D01*
X148467000Y-108202265D01*
X148501010Y-108373245D01*
X148551898Y-108496100D01*
X148501010Y-108618955D01*
X148467000Y-108789935D01*
X148467000Y-108964265D01*
X148501010Y-109135245D01*
X148551898Y-109258100D01*
X148501010Y-109380955D01*
X148467000Y-109551935D01*
X148467000Y-109726265D01*
X148501010Y-109897245D01*
X148551898Y-110020100D01*
X148501010Y-110142955D01*
X148486460Y-110216101D01*
X148473296Y-110216101D01*
X148330539Y-110172797D01*
X148294715Y-110169269D01*
X148247205Y-110137523D01*
X148086145Y-110070810D01*
X147915165Y-110036800D01*
X147740835Y-110036800D01*
X147569855Y-110070810D01*
X147408795Y-110137523D01*
X147263845Y-110234376D01*
X147140576Y-110357645D01*
X147043723Y-110502595D01*
X146977010Y-110663655D01*
X146959784Y-110750255D01*
X146240010Y-110750255D01*
X145570356Y-110080602D01*
X145546554Y-110051599D01*
X145430829Y-109956626D01*
X145298800Y-109886054D01*
X145155539Y-109842597D01*
X145119715Y-109839069D01*
X145072205Y-109807323D01*
X144911145Y-109740610D01*
X144740165Y-109706600D01*
X144565835Y-109706600D01*
X144394855Y-109740610D01*
X144233795Y-109807323D01*
X144088845Y-109904176D01*
X143965576Y-110027445D01*
X143868723Y-110172395D01*
X143802010Y-110333455D01*
X143768000Y-110504435D01*
X143768000Y-110593600D01*
X143660400Y-110593600D01*
X143660400Y-107326038D01*
X143684677Y-107289705D01*
X143751390Y-107128645D01*
X143785400Y-106957665D01*
X143785400Y-106783335D01*
X143751390Y-106612355D01*
X143685800Y-106454006D01*
X143685800Y-102004738D01*
X143710077Y-101968405D01*
X143776790Y-101807345D01*
X143810800Y-101636365D01*
X143810800Y-101462035D01*
X143776790Y-101291055D01*
X143710077Y-101129995D01*
X143613224Y-100985045D01*
X143489955Y-100861776D01*
X143345005Y-100764923D01*
X143183945Y-100698210D01*
X143012965Y-100664200D01*
X142838635Y-100664200D01*
X142667655Y-100698210D01*
X142506595Y-100764923D01*
X142361645Y-100861776D01*
X142238376Y-100985045D01*
X142141523Y-101129995D01*
X142074810Y-101291055D01*
X142040800Y-101462035D01*
X142040800Y-101636365D01*
X142049519Y-101680200D01*
X142000435Y-101680200D01*
X141829455Y-101714210D01*
X141668395Y-101780923D01*
X141523445Y-101877776D01*
X141400176Y-102001045D01*
X141303323Y-102145995D01*
X141236610Y-102307055D01*
X141202600Y-102478035D01*
X141202600Y-102652365D01*
X141236610Y-102823345D01*
X141303323Y-102984405D01*
X141327601Y-103020739D01*
X141327600Y-110835598D01*
X139696998Y-112466201D01*
X139668000Y-112489999D01*
X139644202Y-112518997D01*
X139644201Y-112518998D01*
X139573026Y-112605724D01*
X139502454Y-112737754D01*
X139486508Y-112790324D01*
X139458998Y-112881014D01*
X139453094Y-112940954D01*
X139444324Y-113030000D01*
X139448001Y-113067332D01*
X139448000Y-120042400D01*
X138314925Y-120042400D01*
X138277600Y-120038724D01*
X138240275Y-120042400D01*
X138240267Y-120042400D01*
X138128614Y-120053397D01*
X137985353Y-120096854D01*
X137853324Y-120167426D01*
X137737599Y-120262399D01*
X137713801Y-120291397D01*
X135938800Y-122066399D01*
X135938800Y-121957333D01*
X135942477Y-121920000D01*
X135927803Y-121771014D01*
X135884346Y-121627753D01*
X135813774Y-121495724D01*
X135742599Y-121408997D01*
X135742598Y-121408996D01*
X135718801Y-121379999D01*
X135689804Y-121356202D01*
X135107603Y-120774002D01*
X135083801Y-120744999D01*
X134968076Y-120650026D01*
X134836047Y-120579454D01*
X134692786Y-120535997D01*
X134581133Y-120525000D01*
X134581122Y-120525000D01*
X134543800Y-120521324D01*
X134506478Y-120525000D01*
X130644335Y-120525000D01*
X130541689Y-120456414D01*
X130371529Y-120385932D01*
X130190889Y-120350000D01*
X130006711Y-120350000D01*
X129826071Y-120385932D01*
X129655911Y-120456414D01*
X129502772Y-120558738D01*
X129372538Y-120688972D01*
X129270214Y-120842111D01*
X129199732Y-121012271D01*
X129163800Y-121192911D01*
X129163800Y-121377089D01*
X129199732Y-121557729D01*
X129270214Y-121727889D01*
X129372538Y-121881028D01*
X129502772Y-122011262D01*
X129655911Y-122113586D01*
X129826071Y-122184068D01*
X130006711Y-122220000D01*
X130190889Y-122220000D01*
X130371529Y-122184068D01*
X130541689Y-122113586D01*
X130644335Y-122045000D01*
X134228999Y-122045000D01*
X134418800Y-122234802D01*
X134418800Y-123063897D01*
X134341958Y-123032068D01*
X134055060Y-122975000D01*
X133762540Y-122975000D01*
X133475642Y-123032068D01*
X133205389Y-123144010D01*
X132962168Y-123306525D01*
X132755325Y-123513368D01*
X132638800Y-123687760D01*
X132522275Y-123513368D01*
X132315432Y-123306525D01*
X132072211Y-123144010D01*
X131801958Y-123032068D01*
X131515060Y-122975000D01*
X131222540Y-122975000D01*
X130935642Y-123032068D01*
X130665389Y-123144010D01*
X130422168Y-123306525D01*
X130215325Y-123513368D01*
X130098800Y-123687760D01*
X129982275Y-123513368D01*
X129775432Y-123306525D01*
X129532211Y-123144010D01*
X129261958Y-123032068D01*
X128975060Y-122975000D01*
X128682540Y-122975000D01*
X128395642Y-123032068D01*
X128125389Y-123144010D01*
X127882168Y-123306525D01*
X127675325Y-123513368D01*
X127512810Y-123756589D01*
X127400868Y-124026842D01*
X127343800Y-124313740D01*
X125143800Y-124313740D01*
X125143800Y-119694801D01*
X125333602Y-119505000D01*
X132601478Y-119505000D01*
X132638800Y-119508676D01*
X132676122Y-119505000D01*
X132676133Y-119505000D01*
X132787786Y-119494003D01*
X132931047Y-119450546D01*
X133063076Y-119379974D01*
X133178801Y-119285001D01*
X133202603Y-119255998D01*
X133861004Y-118597598D01*
X133890001Y-118573801D01*
X133984974Y-118458076D01*
X134055546Y-118326047D01*
X134099003Y-118182786D01*
X134110000Y-118071133D01*
X134110000Y-118071125D01*
X134113676Y-118033800D01*
X134110000Y-117996475D01*
X134110000Y-112596538D01*
X134134277Y-112560205D01*
X134200990Y-112399145D01*
X134235000Y-112228165D01*
X134235000Y-112053835D01*
X134200990Y-111882855D01*
X134134277Y-111721795D01*
X134037424Y-111576845D01*
X133914155Y-111453576D01*
X133769205Y-111356723D01*
X133608145Y-111290010D01*
X133437165Y-111256000D01*
X133262835Y-111256000D01*
X133091855Y-111290010D01*
X132930795Y-111356723D01*
X132785845Y-111453576D01*
X132662576Y-111576845D01*
X132565723Y-111721795D01*
X132551661Y-111755743D01*
X132584000Y-111593165D01*
X132584000Y-111418835D01*
X132549990Y-111247855D01*
X132499102Y-111125000D01*
X132549990Y-111002145D01*
X132584000Y-110831165D01*
X132584000Y-110656835D01*
X132549990Y-110485855D01*
X132499102Y-110363000D01*
X132549990Y-110240145D01*
X132584000Y-110069165D01*
X132584000Y-109894835D01*
X132549990Y-109723855D01*
X132499102Y-109601000D01*
X132549990Y-109478145D01*
X132584000Y-109307165D01*
X132584000Y-109132835D01*
X132549990Y-108961855D01*
X132499102Y-108839000D01*
X132549990Y-108716145D01*
X132584000Y-108545165D01*
X132584000Y-108370835D01*
X132549990Y-108199855D01*
X132483277Y-108038795D01*
X132386424Y-107893845D01*
X132263155Y-107770576D01*
X132118205Y-107673723D01*
X131957145Y-107607010D01*
X131786165Y-107573000D01*
X131611835Y-107573000D01*
X131440855Y-107607010D01*
X131279795Y-107673723D01*
X131243462Y-107698000D01*
X126312538Y-107698000D01*
X126276205Y-107673723D01*
X126115145Y-107607010D01*
X125944165Y-107573000D01*
X125769835Y-107573000D01*
X125598855Y-107607010D01*
X125437795Y-107673723D01*
X125292845Y-107770576D01*
X125169576Y-107893845D01*
X125072723Y-108038795D01*
X125006010Y-108199855D01*
X124972000Y-108370835D01*
X124972000Y-108545165D01*
X125006010Y-108716145D01*
X125056898Y-108839000D01*
X125006010Y-108961855D01*
X124972000Y-109132835D01*
X124972000Y-109307165D01*
X125006010Y-109478145D01*
X125056898Y-109601000D01*
X125006010Y-109723855D01*
X124972000Y-109894835D01*
X124972000Y-110069165D01*
X125006010Y-110240145D01*
X125056898Y-110363000D01*
X125006010Y-110485855D01*
X124972000Y-110656835D01*
X124972000Y-110831165D01*
X124990004Y-110921678D01*
X124935999Y-110965999D01*
X124912201Y-110994997D01*
X123881011Y-112026187D01*
X123904600Y-111907599D01*
X123904600Y-111612401D01*
X123847010Y-111322875D01*
X123734042Y-111050147D01*
X123570039Y-110804698D01*
X123361302Y-110595961D01*
X123202719Y-110490000D01*
X123361302Y-110384039D01*
X123570039Y-110175302D01*
X123734042Y-109929853D01*
X123847010Y-109657125D01*
X123904600Y-109367599D01*
X123904600Y-109072401D01*
X123847010Y-108782875D01*
X123734042Y-108510147D01*
X123570039Y-108264698D01*
X123361302Y-108055961D01*
X123202719Y-107950000D01*
X123361302Y-107844039D01*
X123570039Y-107635302D01*
X123734042Y-107389853D01*
X123847010Y-107117125D01*
X123904600Y-106827599D01*
X123904600Y-106532401D01*
X123847010Y-106242875D01*
X123734042Y-105970147D01*
X123570039Y-105724698D01*
X123361302Y-105515961D01*
X123202719Y-105410000D01*
X123361302Y-105304039D01*
X123570039Y-105095302D01*
X123734042Y-104849853D01*
X123847010Y-104577125D01*
X123904600Y-104287599D01*
X123904600Y-103992401D01*
X123847010Y-103702875D01*
X123789071Y-103562999D01*
X124991460Y-103562999D01*
X125006010Y-103636145D01*
X125056898Y-103759000D01*
X125006010Y-103881855D01*
X124972000Y-104052835D01*
X124972000Y-104227165D01*
X125006010Y-104398145D01*
X125056898Y-104521000D01*
X125006010Y-104643855D01*
X124972000Y-104814835D01*
X124972000Y-104989165D01*
X125006010Y-105160145D01*
X125056898Y-105283000D01*
X125006010Y-105405855D01*
X124972000Y-105576835D01*
X124972000Y-105751165D01*
X125006010Y-105922145D01*
X125072723Y-106083205D01*
X125169576Y-106228155D01*
X125292845Y-106351424D01*
X125437795Y-106448277D01*
X125598855Y-106514990D01*
X125769835Y-106549000D01*
X125944165Y-106549000D01*
X126115145Y-106514990D01*
X126276205Y-106448277D01*
X126312538Y-106424000D01*
X131243462Y-106424000D01*
X131279795Y-106448277D01*
X131440855Y-106514990D01*
X131611835Y-106549000D01*
X131786165Y-106549000D01*
X131957145Y-106514990D01*
X132118205Y-106448277D01*
X132263155Y-106351424D01*
X132386424Y-106228155D01*
X132483277Y-106083205D01*
X132549990Y-105922145D01*
X132584000Y-105751165D01*
X132584000Y-105576835D01*
X132549990Y-105405855D01*
X132499102Y-105283000D01*
X132549990Y-105160145D01*
X132584000Y-104989165D01*
X132584000Y-104814835D01*
X132549990Y-104643855D01*
X132499102Y-104521000D01*
X132549990Y-104398145D01*
X132584000Y-104227165D01*
X132584000Y-104052835D01*
X132571949Y-103992250D01*
X135043185Y-106463487D01*
X135051710Y-106506345D01*
X135118423Y-106667405D01*
X135215276Y-106812355D01*
X135338545Y-106935624D01*
X135483495Y-107032477D01*
X135644555Y-107099190D01*
X135815535Y-107133200D01*
X135989865Y-107133200D01*
X136160845Y-107099190D01*
X136321905Y-107032477D01*
X136466855Y-106935624D01*
X136590124Y-106812355D01*
X136686977Y-106667405D01*
X136753690Y-106506345D01*
X136787700Y-106335365D01*
X136787700Y-106161035D01*
X136753690Y-105990055D01*
X136686977Y-105828995D01*
X136590124Y-105684045D01*
X136466855Y-105560776D01*
X136321905Y-105463923D01*
X136160845Y-105397210D01*
X136117987Y-105388685D01*
X133021303Y-102292002D01*
X132997500Y-102262998D01*
X132881775Y-102168025D01*
X132749746Y-102097453D01*
X132606485Y-102053996D01*
X132494832Y-102042999D01*
X132494821Y-102042999D01*
X132457499Y-102039323D01*
X132420177Y-102042999D01*
X123844577Y-102042999D01*
X123847010Y-102037125D01*
X123904600Y-101747599D01*
X123904600Y-101452401D01*
X123847010Y-101162875D01*
X123734042Y-100890147D01*
X123570039Y-100644698D01*
X123361302Y-100435961D01*
X123202719Y-100330000D01*
X123361302Y-100224039D01*
X123570039Y-100015302D01*
X123734042Y-99769853D01*
X123847010Y-99497125D01*
X123904600Y-99207599D01*
X123904600Y-98912401D01*
X123847010Y-98622875D01*
X123734042Y-98350147D01*
X123570039Y-98104698D01*
X123361302Y-97895961D01*
X123202719Y-97790000D01*
X123361302Y-97684039D01*
X123570039Y-97475302D01*
X123587723Y-97448835D01*
X124972000Y-97448835D01*
X124972000Y-97623165D01*
X125006010Y-97794145D01*
X125056898Y-97917000D01*
X125006010Y-98039855D01*
X124972000Y-98210835D01*
X124972000Y-98385165D01*
X125006010Y-98556145D01*
X125056898Y-98679000D01*
X125006010Y-98801855D01*
X124972000Y-98972835D01*
X124972000Y-99147165D01*
X125006010Y-99318145D01*
X125056898Y-99441000D01*
X125006010Y-99563855D01*
X124972000Y-99734835D01*
X124972000Y-99909165D01*
X125006010Y-100080145D01*
X125072723Y-100241205D01*
X125169576Y-100386155D01*
X125292845Y-100509424D01*
X125437795Y-100606277D01*
X125598855Y-100672990D01*
X125769835Y-100707000D01*
X125944165Y-100707000D01*
X126115145Y-100672990D01*
X126276205Y-100606277D01*
X126312538Y-100582000D01*
X131243462Y-100582000D01*
X131279795Y-100606277D01*
X131440855Y-100672990D01*
X131611835Y-100707000D01*
X131786165Y-100707000D01*
X131957145Y-100672990D01*
X132118205Y-100606277D01*
X132263155Y-100509424D01*
X132386424Y-100386155D01*
X132483277Y-100241205D01*
X132549990Y-100080145D01*
X132584000Y-99909165D01*
X132584000Y-99734835D01*
X132549990Y-99563855D01*
X132499102Y-99441000D01*
X132549990Y-99318145D01*
X132584000Y-99147165D01*
X132584000Y-98972835D01*
X132549990Y-98801855D01*
X132499102Y-98679000D01*
X132549990Y-98556145D01*
X132584000Y-98385165D01*
X132584000Y-98210835D01*
X132549990Y-98039855D01*
X132499102Y-97917000D01*
X132549990Y-97794145D01*
X132584000Y-97623165D01*
X132584000Y-97448835D01*
X132549990Y-97277855D01*
X132483277Y-97116795D01*
X132386424Y-96971845D01*
X132263155Y-96848576D01*
X132118205Y-96751723D01*
X131957145Y-96685010D01*
X131786165Y-96651000D01*
X131611835Y-96651000D01*
X131440855Y-96685010D01*
X131279795Y-96751723D01*
X131243462Y-96776000D01*
X126312538Y-96776000D01*
X126276205Y-96751723D01*
X126115145Y-96685010D01*
X125944165Y-96651000D01*
X125769835Y-96651000D01*
X125598855Y-96685010D01*
X125437795Y-96751723D01*
X125292845Y-96848576D01*
X125169576Y-96971845D01*
X125072723Y-97116795D01*
X125006010Y-97277855D01*
X124972000Y-97448835D01*
X123587723Y-97448835D01*
X123734042Y-97229853D01*
X123847010Y-96957125D01*
X123904600Y-96667599D01*
X123904600Y-96372401D01*
X123847010Y-96082875D01*
X123734042Y-95810147D01*
X123570039Y-95564698D01*
X123361302Y-95355961D01*
X123202719Y-95250000D01*
X123361302Y-95144039D01*
X123570039Y-94935302D01*
X123734042Y-94689853D01*
X123847010Y-94417125D01*
X123904600Y-94127599D01*
X123904600Y-93832401D01*
X123847010Y-93542875D01*
X123734042Y-93270147D01*
X123570039Y-93024698D01*
X123549176Y-93003835D01*
X124972000Y-93003835D01*
X124972000Y-93178165D01*
X125006010Y-93349145D01*
X125056898Y-93472000D01*
X125006010Y-93594855D01*
X124972000Y-93765835D01*
X124972000Y-93940165D01*
X125006010Y-94111145D01*
X125056898Y-94234000D01*
X125006010Y-94356855D01*
X124972000Y-94527835D01*
X124972000Y-94702165D01*
X125006010Y-94873145D01*
X125056898Y-94996000D01*
X125006010Y-95118855D01*
X124972000Y-95289835D01*
X124972000Y-95464165D01*
X125006010Y-95635145D01*
X125072723Y-95796205D01*
X125169576Y-95941155D01*
X125292845Y-96064424D01*
X125437795Y-96161277D01*
X125598855Y-96227990D01*
X125769835Y-96262000D01*
X125944165Y-96262000D01*
X126115145Y-96227990D01*
X126276205Y-96161277D01*
X126312538Y-96137000D01*
X131243462Y-96137000D01*
X131279795Y-96161277D01*
X131440855Y-96227990D01*
X131611835Y-96262000D01*
X131786165Y-96262000D01*
X131957145Y-96227990D01*
X132118205Y-96161277D01*
X132263155Y-96064424D01*
X132386424Y-95941155D01*
X132483277Y-95796205D01*
X132549990Y-95635145D01*
X132584000Y-95464165D01*
X132584000Y-95289835D01*
X132549990Y-95118855D01*
X132499102Y-94996000D01*
X132549990Y-94873145D01*
X132584000Y-94702165D01*
X132584000Y-94527835D01*
X132549990Y-94356855D01*
X132499102Y-94234000D01*
X132549990Y-94111145D01*
X132584000Y-93940165D01*
X132584000Y-93765835D01*
X132549990Y-93594855D01*
X132499102Y-93472000D01*
X132549990Y-93349145D01*
X132584000Y-93178165D01*
X132584000Y-93003835D01*
X132549990Y-92832855D01*
X132483277Y-92671795D01*
X132386424Y-92526845D01*
X132263155Y-92403576D01*
X132118205Y-92306723D01*
X131957145Y-92240010D01*
X131786165Y-92206000D01*
X131611835Y-92206000D01*
X131440855Y-92240010D01*
X131279795Y-92306723D01*
X131243462Y-92331000D01*
X126312538Y-92331000D01*
X126276205Y-92306723D01*
X126115145Y-92240010D01*
X125944165Y-92206000D01*
X125769835Y-92206000D01*
X125598855Y-92240010D01*
X125437795Y-92306723D01*
X125292845Y-92403576D01*
X125169576Y-92526845D01*
X125072723Y-92671795D01*
X125006010Y-92832855D01*
X124972000Y-93003835D01*
X123549176Y-93003835D01*
X123361302Y-92815961D01*
X123115853Y-92651958D01*
X122843125Y-92538990D01*
X122553599Y-92481400D01*
X122258401Y-92481400D01*
X121968875Y-92538990D01*
X121696147Y-92651958D01*
X121450698Y-92815961D01*
X121241961Y-93024698D01*
X121136000Y-93183281D01*
X121030039Y-93024698D01*
X120821302Y-92815961D01*
X120575853Y-92651958D01*
X120303125Y-92538990D01*
X120013599Y-92481400D01*
X119718401Y-92481400D01*
X119428875Y-92538990D01*
X119156147Y-92651958D01*
X118910698Y-92815961D01*
X118701961Y-93024698D01*
X118537958Y-93270147D01*
X118424990Y-93542875D01*
X118367400Y-93832401D01*
X109660000Y-93832401D01*
X109660000Y-50049872D01*
X130145000Y-50049872D01*
X130145000Y-50490128D01*
X130230890Y-50921925D01*
X130399369Y-51328669D01*
X130643962Y-51694729D01*
X130955271Y-52006038D01*
X131321331Y-52250631D01*
X131728075Y-52419110D01*
X132159872Y-52505000D01*
X132600128Y-52505000D01*
X133031925Y-52419110D01*
X133438669Y-52250631D01*
X133804729Y-52006038D01*
X134116038Y-51694729D01*
X134360631Y-51328669D01*
X134529110Y-50921925D01*
X134615000Y-50490128D01*
X134615000Y-50049872D01*
X134529110Y-49618075D01*
X134360631Y-49211331D01*
X134116038Y-48845271D01*
X133804729Y-48533962D01*
X133438669Y-48289369D01*
X133031925Y-48120890D01*
X132600128Y-48035000D01*
X132159872Y-48035000D01*
X131728075Y-48120890D01*
X131321331Y-48289369D01*
X130955271Y-48533962D01*
X130643962Y-48845271D01*
X130399369Y-49211331D01*
X130230890Y-49618075D01*
X130145000Y-50049872D01*
X109660000Y-50049872D01*
X109660000Y-43032279D01*
X109669580Y-42934576D01*
X109688580Y-42871644D01*
X109719445Y-42813595D01*
X109760989Y-42762657D01*
X109811644Y-42720752D01*
X109869471Y-42689485D01*
X109932272Y-42670044D01*
X110027835Y-42660000D01*
X174967721Y-42660000D01*
X175065424Y-42669580D01*
G37*
X175065424Y-42669580D02*
X175128356Y-42688580D01*
X175186405Y-42719445D01*
X175237343Y-42760989D01*
X175279248Y-42811644D01*
X175310515Y-42869471D01*
X175329956Y-42932272D01*
X175340000Y-43027835D01*
X175340000Y-49744547D01*
X174983715Y-49388262D01*
X174552141Y-49099893D01*
X174072601Y-48901261D01*
X173563525Y-48800000D01*
X173044475Y-48800000D01*
X172535399Y-48901261D01*
X172055859Y-49099893D01*
X171624285Y-49388262D01*
X171257262Y-49755285D01*
X170968893Y-50186859D01*
X170770261Y-50666399D01*
X170669000Y-51175475D01*
X170669000Y-51694525D01*
X170770261Y-52203601D01*
X170968893Y-52683141D01*
X171257262Y-53114715D01*
X171624285Y-53481738D01*
X172055859Y-53770107D01*
X172535399Y-53968739D01*
X173044475Y-54070000D01*
X173563525Y-54070000D01*
X174072601Y-53968739D01*
X174552141Y-53770107D01*
X174983715Y-53481738D01*
X175340000Y-53125453D01*
X175340000Y-59904547D01*
X174983715Y-59548262D01*
X174552141Y-59259893D01*
X174072601Y-59061261D01*
X173563525Y-58960000D01*
X173044475Y-58960000D01*
X172535399Y-59061261D01*
X172055859Y-59259893D01*
X171624285Y-59548262D01*
X171257262Y-59915285D01*
X170968893Y-60346859D01*
X170770261Y-60826399D01*
X170669000Y-61335475D01*
X170669000Y-61854525D01*
X170770261Y-62363601D01*
X170968893Y-62843141D01*
X171257262Y-63274715D01*
X171624285Y-63641738D01*
X172055859Y-63930107D01*
X172535399Y-64128739D01*
X173044475Y-64230000D01*
X173563525Y-64230000D01*
X174072601Y-64128739D01*
X174552141Y-63930107D01*
X174983715Y-63641738D01*
X175340000Y-63285453D01*
X175340001Y-140967711D01*
X175330420Y-141065424D01*
X175311420Y-141128357D01*
X175280554Y-141186406D01*
X175239011Y-141237343D01*
X175188356Y-141279248D01*
X175130529Y-141310515D01*
X175067728Y-141329956D01*
X174972165Y-141340000D01*
X110032279Y-141340000D01*
X109934576Y-141330420D01*
X109871643Y-141311420D01*
X109813594Y-141280554D01*
X109762657Y-141239011D01*
X109720752Y-141188356D01*
X109689485Y-141130529D01*
X109670044Y-141067728D01*
X109660000Y-140972165D01*
X109660000Y-93832401D01*
X118367400Y-93832401D01*
X118367400Y-94127599D01*
X118424990Y-94417125D01*
X118537958Y-94689853D01*
X118701961Y-94935302D01*
X118910698Y-95144039D01*
X119069281Y-95250000D01*
X118910698Y-95355961D01*
X118701961Y-95564698D01*
X118537958Y-95810147D01*
X118424990Y-96082875D01*
X118367400Y-96372401D01*
X118367400Y-96667599D01*
X118424990Y-96957125D01*
X118537958Y-97229853D01*
X118701961Y-97475302D01*
X118910698Y-97684039D01*
X119069281Y-97790000D01*
X118910698Y-97895961D01*
X118701961Y-98104698D01*
X118537958Y-98350147D01*
X118424990Y-98622875D01*
X118367400Y-98912401D01*
X118367400Y-99207599D01*
X118424990Y-99497125D01*
X118537958Y-99769853D01*
X118701961Y-100015302D01*
X118910698Y-100224039D01*
X119069281Y-100330000D01*
X118910698Y-100435961D01*
X118701961Y-100644698D01*
X118537958Y-100890147D01*
X118424990Y-101162875D01*
X118367400Y-101452401D01*
X118367400Y-101747599D01*
X118424990Y-102037125D01*
X118537958Y-102309853D01*
X118701961Y-102555302D01*
X118910698Y-102764039D01*
X119069281Y-102870000D01*
X118910698Y-102975961D01*
X118701961Y-103184698D01*
X118537958Y-103430147D01*
X118424990Y-103702875D01*
X118367400Y-103992401D01*
X118367400Y-104287599D01*
X118424990Y-104577125D01*
X118537958Y-104849853D01*
X118701961Y-105095302D01*
X118910698Y-105304039D01*
X119069281Y-105410000D01*
X118910698Y-105515961D01*
X118701961Y-105724698D01*
X118537958Y-105970147D01*
X118424990Y-106242875D01*
X118367400Y-106532401D01*
X118367400Y-106827599D01*
X118424990Y-107117125D01*
X118537958Y-107389853D01*
X118701961Y-107635302D01*
X118910698Y-107844039D01*
X119069281Y-107950000D01*
X118910698Y-108055961D01*
X118701961Y-108264698D01*
X118537958Y-108510147D01*
X118424990Y-108782875D01*
X118367400Y-109072401D01*
X118367400Y-109367599D01*
X118424990Y-109657125D01*
X118537958Y-109929853D01*
X118701961Y-110175302D01*
X118910698Y-110384039D01*
X119069281Y-110490000D01*
X118910698Y-110595961D01*
X118701961Y-110804698D01*
X118537958Y-111050147D01*
X118424990Y-111322875D01*
X118367400Y-111612401D01*
X118367400Y-111907599D01*
X118424990Y-112197125D01*
X118537958Y-112469853D01*
X118701961Y-112715302D01*
X118910698Y-112924039D01*
X119069281Y-113030000D01*
X118910698Y-113135961D01*
X118701961Y-113344698D01*
X118537958Y-113590147D01*
X118424990Y-113862875D01*
X118367400Y-114152401D01*
X118367400Y-114447599D01*
X118424990Y-114737125D01*
X118537958Y-115009853D01*
X118701961Y-115255302D01*
X118910698Y-115464039D01*
X119069281Y-115570000D01*
X118910698Y-115675961D01*
X118701961Y-115884698D01*
X118537958Y-116130147D01*
X118424990Y-116402875D01*
X118367400Y-116692401D01*
X118367400Y-116987599D01*
X118424990Y-117277125D01*
X118537958Y-117549853D01*
X118701961Y-117795302D01*
X118910698Y-118004039D01*
X119069281Y-118110000D01*
X118910698Y-118215961D01*
X118701961Y-118424698D01*
X118537958Y-118670147D01*
X118424990Y-118942875D01*
X118367400Y-119232401D01*
X118367400Y-119527599D01*
X118424990Y-119817125D01*
X118537958Y-120089853D01*
X118701961Y-120335302D01*
X118910698Y-120544039D01*
X119069281Y-120650000D01*
X118910698Y-120755961D01*
X118701961Y-120964698D01*
X118537958Y-121210147D01*
X118424990Y-121482875D01*
X118367400Y-121772401D01*
X118367400Y-122067599D01*
X118424990Y-122357125D01*
X118537958Y-122629853D01*
X118701961Y-122875302D01*
X118910698Y-123084039D01*
X119069281Y-123190000D01*
X118910698Y-123295961D01*
X118701961Y-123504698D01*
X118537958Y-123750147D01*
X118424990Y-124022875D01*
X118367400Y-124312401D01*
X118367400Y-124607599D01*
X118424990Y-124897125D01*
X118537958Y-125169853D01*
X118701961Y-125415302D01*
X118910698Y-125624039D01*
X119069281Y-125730000D01*
X118910698Y-125835961D01*
X118701961Y-126044698D01*
X118537958Y-126290147D01*
X118424990Y-126562875D01*
X118367400Y-126852401D01*
X118367400Y-127147599D01*
X118424990Y-127437125D01*
X118537958Y-127709853D01*
X118701961Y-127955302D01*
X118910698Y-128164039D01*
X119069281Y-128270000D01*
X118910698Y-128375961D01*
X118701961Y-128584698D01*
X118537958Y-128830147D01*
X118424990Y-129102875D01*
X118367400Y-129392401D01*
X118367400Y-129687599D01*
X118424990Y-129977125D01*
X118537958Y-130249853D01*
X118701961Y-130495302D01*
X118910698Y-130704039D01*
X119069281Y-130810000D01*
X118910698Y-130915961D01*
X118701961Y-131124698D01*
X118537958Y-131370147D01*
X118424990Y-131642875D01*
X118367400Y-131932401D01*
X118367400Y-132227599D01*
X118424990Y-132517125D01*
X118537958Y-132789853D01*
X118701961Y-133035302D01*
X118910698Y-133244039D01*
X119069281Y-133350000D01*
X118910698Y-133455961D01*
X118701961Y-133664698D01*
X118537958Y-133910147D01*
X118424990Y-134182875D01*
X118367400Y-134472401D01*
X118367400Y-134767599D01*
X118424990Y-135057125D01*
X118537958Y-135329853D01*
X118701961Y-135575302D01*
X118910698Y-135784039D01*
X119156147Y-135948042D01*
X119428875Y-136061010D01*
X119718401Y-136118600D01*
X120013599Y-136118600D01*
X120303125Y-136061010D01*
X120575853Y-135948042D01*
X120821302Y-135784039D01*
X120935364Y-135669977D01*
X120952898Y-135727780D01*
X121011863Y-135838094D01*
X121091215Y-135934785D01*
X121187906Y-136014137D01*
X121298220Y-136073102D01*
X121417918Y-136109412D01*
X121542400Y-136121672D01*
X122120250Y-136118600D01*
X122279000Y-135959850D01*
X122279000Y-134747000D01*
X122533000Y-134747000D01*
X122533000Y-135959850D01*
X122691750Y-136118600D01*
X123269600Y-136121672D01*
X123394082Y-136109412D01*
X123513780Y-136073102D01*
X123624094Y-136014137D01*
X123720785Y-135934785D01*
X123800137Y-135838094D01*
X123859102Y-135727780D01*
X123895412Y-135608082D01*
X123907672Y-135483600D01*
X123904600Y-134905750D01*
X123745850Y-134747000D01*
X122533000Y-134747000D01*
X122279000Y-134747000D01*
X122259000Y-134747000D01*
X122259000Y-134493000D01*
X122279000Y-134493000D01*
X122279000Y-132207000D01*
X122533000Y-132207000D01*
X122533000Y-134493000D01*
X123745850Y-134493000D01*
X123904600Y-134334250D01*
X123907672Y-133756400D01*
X123895412Y-133631918D01*
X123859102Y-133512220D01*
X123831121Y-133459872D01*
X130145000Y-133459872D01*
X130145000Y-133900128D01*
X130230890Y-134331925D01*
X130399369Y-134738669D01*
X130643962Y-135104729D01*
X130955271Y-135416038D01*
X131321331Y-135660631D01*
X131728075Y-135829110D01*
X132159872Y-135915000D01*
X132600128Y-135915000D01*
X133031925Y-135829110D01*
X133438669Y-135660631D01*
X133804729Y-135416038D01*
X134116038Y-135104729D01*
X134200029Y-134979026D01*
X160978042Y-134979026D01*
X161023778Y-135129814D01*
X161150316Y-135394944D01*
X161326146Y-135630293D01*
X161544512Y-135826817D01*
X161797022Y-135976964D01*
X162073973Y-136074963D01*
X162306000Y-135954464D01*
X162306000Y-134747000D01*
X161099183Y-134747000D01*
X160978042Y-134979026D01*
X134200029Y-134979026D01*
X134360631Y-134738669D01*
X134529110Y-134331925D01*
X134615000Y-133900128D01*
X134615000Y-133459872D01*
X134529110Y-133028075D01*
X134360631Y-132621331D01*
X134238819Y-132439026D01*
X160978042Y-132439026D01*
X161023778Y-132589814D01*
X161150316Y-132854944D01*
X161326146Y-133090293D01*
X161544512Y-133286817D01*
X161650770Y-133350000D01*
X161544512Y-133413183D01*
X161326146Y-133609707D01*
X161150316Y-133845056D01*
X161023778Y-134110186D01*
X160978042Y-134260974D01*
X161099183Y-134493000D01*
X162306000Y-134493000D01*
X162306000Y-132207000D01*
X161099183Y-132207000D01*
X160978042Y-132439026D01*
X134238819Y-132439026D01*
X134116038Y-132255271D01*
X133804729Y-131943962D01*
X133438669Y-131699369D01*
X133031925Y-131530890D01*
X132600128Y-131445000D01*
X132159872Y-131445000D01*
X131728075Y-131530890D01*
X131321331Y-131699369D01*
X130955271Y-131943962D01*
X130643962Y-132255271D01*
X130399369Y-132621331D01*
X130230890Y-133028075D01*
X130145000Y-133459872D01*
X123831121Y-133459872D01*
X123800137Y-133401906D01*
X123720785Y-133305215D01*
X123624094Y-133225863D01*
X123513780Y-133166898D01*
X123449426Y-133147376D01*
X123512854Y-133090293D01*
X123688684Y-132854944D01*
X123815222Y-132589814D01*
X123860958Y-132439026D01*
X123739817Y-132207000D01*
X122533000Y-132207000D01*
X122279000Y-132207000D01*
X122259000Y-132207000D01*
X122259000Y-131953000D01*
X122279000Y-131953000D01*
X122279000Y-129667000D01*
X122533000Y-129667000D01*
X122533000Y-131953000D01*
X123739817Y-131953000D01*
X123860958Y-131720974D01*
X123815222Y-131570186D01*
X123688684Y-131305056D01*
X123512854Y-131069707D01*
X123294488Y-130873183D01*
X123188230Y-130810000D01*
X123294488Y-130746817D01*
X123512854Y-130550293D01*
X123688684Y-130314944D01*
X123815222Y-130049814D01*
X123860958Y-129899026D01*
X160978042Y-129899026D01*
X161023778Y-130049814D01*
X161150316Y-130314944D01*
X161326146Y-130550293D01*
X161544512Y-130746817D01*
X161650770Y-130810000D01*
X161544512Y-130873183D01*
X161326146Y-131069707D01*
X161150316Y-131305056D01*
X161023778Y-131570186D01*
X160978042Y-131720974D01*
X161099183Y-131953000D01*
X162306000Y-131953000D01*
X162306000Y-129667000D01*
X161099183Y-129667000D01*
X160978042Y-129899026D01*
X123860958Y-129899026D01*
X123739817Y-129667000D01*
X122533000Y-129667000D01*
X122279000Y-129667000D01*
X122259000Y-129667000D01*
X122259000Y-129413000D01*
X122279000Y-129413000D01*
X122279000Y-127127000D01*
X122533000Y-127127000D01*
X122533000Y-129413000D01*
X123739817Y-129413000D01*
X123860958Y-129180974D01*
X123815222Y-129030186D01*
X123688684Y-128765056D01*
X123512854Y-128529707D01*
X123294488Y-128333183D01*
X123188230Y-128270000D01*
X123294488Y-128206817D01*
X123512854Y-128010293D01*
X123688684Y-127774944D01*
X123815222Y-127509814D01*
X123860958Y-127359026D01*
X123859844Y-127356891D01*
X127387319Y-127356891D01*
X127484643Y-127631252D01*
X127633622Y-127881355D01*
X127828531Y-128097588D01*
X128061880Y-128271641D01*
X128324701Y-128396825D01*
X128471910Y-128441476D01*
X128701800Y-128320155D01*
X128701800Y-127127000D01*
X127507986Y-127127000D01*
X127387319Y-127356891D01*
X123859844Y-127356891D01*
X123739817Y-127127000D01*
X122533000Y-127127000D01*
X122279000Y-127127000D01*
X122259000Y-127127000D01*
X122259000Y-126873000D01*
X122279000Y-126873000D01*
X122279000Y-126853000D01*
X122533000Y-126853000D01*
X122533000Y-126873000D01*
X123739817Y-126873000D01*
X123860958Y-126640974D01*
X123815222Y-126490186D01*
X123776284Y-126408601D01*
X123792877Y-126408601D01*
X123830199Y-126412277D01*
X123867521Y-126408601D01*
X123867532Y-126408601D01*
X123979185Y-126397604D01*
X124122446Y-126354147D01*
X124254475Y-126283575D01*
X124370200Y-126188602D01*
X124394002Y-126159599D01*
X124894803Y-125658798D01*
X124923801Y-125635001D01*
X124968106Y-125581015D01*
X125018774Y-125519277D01*
X125089346Y-125387247D01*
X125120362Y-125284998D01*
X125132803Y-125243986D01*
X125143800Y-125132333D01*
X125143800Y-125132324D01*
X125147476Y-125095001D01*
X125143800Y-125057678D01*
X125143800Y-124313740D01*
X127343800Y-124313740D01*
X127343800Y-124606260D01*
X127400868Y-124893158D01*
X127512810Y-125163411D01*
X127675325Y-125406632D01*
X127882168Y-125613475D01*
X128058206Y-125731100D01*
X127828531Y-125902412D01*
X127633622Y-126118645D01*
X127484643Y-126368748D01*
X127387319Y-126643109D01*
X127507986Y-126873000D01*
X128701800Y-126873000D01*
X128701800Y-126853000D01*
X128955800Y-126853000D01*
X128955800Y-126873000D01*
X128975800Y-126873000D01*
X128975800Y-127127000D01*
X128955800Y-127127000D01*
X128955800Y-128320155D01*
X129185690Y-128441476D01*
X129332899Y-128396825D01*
X129595720Y-128271641D01*
X129829069Y-128097588D01*
X130023978Y-127881355D01*
X130093605Y-127764466D01*
X130215325Y-127946632D01*
X130422168Y-128153475D01*
X130665389Y-128315990D01*
X130935642Y-128427932D01*
X131222540Y-128485000D01*
X131515060Y-128485000D01*
X131801958Y-128427932D01*
X132072211Y-128315990D01*
X132315432Y-128153475D01*
X132522275Y-127946632D01*
X132638800Y-127772240D01*
X132755325Y-127946632D01*
X132962168Y-128153475D01*
X133205389Y-128315990D01*
X133475642Y-128427932D01*
X133762540Y-128485000D01*
X134055060Y-128485000D01*
X134341958Y-128427932D01*
X134612211Y-128315990D01*
X134855432Y-128153475D01*
X135062275Y-127946632D01*
X135178800Y-127772240D01*
X135295325Y-127946632D01*
X135502168Y-128153475D01*
X135745389Y-128315990D01*
X136015642Y-128427932D01*
X136302540Y-128485000D01*
X136595060Y-128485000D01*
X136881958Y-128427932D01*
X137152211Y-128315990D01*
X137395432Y-128153475D01*
X137602275Y-127946632D01*
X137723995Y-127764466D01*
X137793622Y-127881355D01*
X137988531Y-128097588D01*
X138221880Y-128271641D01*
X138484701Y-128396825D01*
X138631910Y-128441476D01*
X138861800Y-128320155D01*
X138861800Y-127127000D01*
X138841800Y-127127000D01*
X138841800Y-126873000D01*
X138861800Y-126873000D01*
X138861800Y-126853000D01*
X139115800Y-126853000D01*
X139115800Y-126873000D01*
X139135800Y-126873000D01*
X139135800Y-127127000D01*
X139115800Y-127127000D01*
X139115800Y-128320155D01*
X139345690Y-128441476D01*
X139492899Y-128396825D01*
X139755720Y-128271641D01*
X139989069Y-128097588D01*
X140183978Y-127881355D01*
X140332957Y-127631252D01*
X140336871Y-127620217D01*
X140337001Y-127621532D01*
X140337001Y-127672333D01*
X140347998Y-127783986D01*
X140391455Y-127927247D01*
X140462027Y-128059276D01*
X140557000Y-128175001D01*
X140672725Y-128269974D01*
X140748448Y-128310449D01*
X141219001Y-128781002D01*
X141242799Y-128810001D01*
X141358524Y-128904974D01*
X141490553Y-128975546D01*
X141633814Y-129019003D01*
X141745467Y-129030000D01*
X141745475Y-129030000D01*
X141782800Y-129033676D01*
X141820125Y-129030000D01*
X148730265Y-129030000D01*
X148832911Y-129098586D01*
X149003071Y-129169068D01*
X149183711Y-129205000D01*
X149367889Y-129205000D01*
X149548529Y-129169068D01*
X149718689Y-129098586D01*
X149871828Y-128996262D01*
X150002062Y-128866028D01*
X150104386Y-128712889D01*
X150174868Y-128542729D01*
X150210800Y-128362089D01*
X150210800Y-128177911D01*
X150174868Y-127997271D01*
X150104386Y-127827111D01*
X150002062Y-127673972D01*
X149871828Y-127543738D01*
X149718689Y-127441414D01*
X149548529Y-127370932D01*
X149367889Y-127335000D01*
X149183711Y-127335000D01*
X149003071Y-127370932D01*
X148832911Y-127441414D01*
X148730265Y-127510000D01*
X142097602Y-127510000D01*
X141857000Y-127269399D01*
X141857000Y-126253675D01*
X143065500Y-126253675D01*
X143065500Y-126476325D01*
X143108937Y-126694696D01*
X143194141Y-126900398D01*
X143317839Y-127085524D01*
X143475276Y-127242961D01*
X143660402Y-127366659D01*
X143866104Y-127451863D01*
X144084475Y-127495300D01*
X144307125Y-127495300D01*
X144525496Y-127451863D01*
X144731198Y-127366659D01*
X144916324Y-127242961D01*
X145073761Y-127085524D01*
X145197459Y-126900398D01*
X145282663Y-126694696D01*
X145326100Y-126476325D01*
X145326100Y-126253675D01*
X145282663Y-126035304D01*
X145197459Y-125829602D01*
X145073761Y-125644476D01*
X144916324Y-125487039D01*
X144731198Y-125363341D01*
X144525496Y-125278137D01*
X144322082Y-125237675D01*
X150685500Y-125237675D01*
X150685500Y-125460325D01*
X150728937Y-125678696D01*
X150814141Y-125884398D01*
X150937839Y-126069524D01*
X151095276Y-126226961D01*
X151280402Y-126350659D01*
X151315024Y-126365000D01*
X151280402Y-126379341D01*
X151095276Y-126503039D01*
X150937839Y-126660476D01*
X150814141Y-126845602D01*
X150728937Y-127051304D01*
X150685500Y-127269675D01*
X150685500Y-127492325D01*
X150728937Y-127710696D01*
X150814141Y-127916398D01*
X150937839Y-128101524D01*
X151095276Y-128258961D01*
X151280402Y-128382659D01*
X151486104Y-128467863D01*
X151704475Y-128511300D01*
X151927125Y-128511300D01*
X152145496Y-128467863D01*
X152351198Y-128382659D01*
X152536324Y-128258961D01*
X152693761Y-128101524D01*
X152817459Y-127916398D01*
X152902663Y-127710696D01*
X152946100Y-127492325D01*
X152946100Y-127359026D01*
X160978042Y-127359026D01*
X161023778Y-127509814D01*
X161150316Y-127774944D01*
X161326146Y-128010293D01*
X161544512Y-128206817D01*
X161650770Y-128270000D01*
X161544512Y-128333183D01*
X161326146Y-128529707D01*
X161150316Y-128765056D01*
X161023778Y-129030186D01*
X160978042Y-129180974D01*
X161099183Y-129413000D01*
X162306000Y-129413000D01*
X162306000Y-127127000D01*
X161099183Y-127127000D01*
X160978042Y-127359026D01*
X152946100Y-127359026D01*
X152946100Y-127269675D01*
X152902663Y-127051304D01*
X152817459Y-126845602D01*
X152693761Y-126660476D01*
X152536324Y-126503039D01*
X152351198Y-126379341D01*
X152316576Y-126365000D01*
X152351198Y-126350659D01*
X152536324Y-126226961D01*
X152693761Y-126069524D01*
X152817459Y-125884398D01*
X152902663Y-125678696D01*
X152946100Y-125460325D01*
X152946100Y-125237675D01*
X152902663Y-125019304D01*
X152819706Y-124819026D01*
X160978042Y-124819026D01*
X161023778Y-124969814D01*
X161150316Y-125234944D01*
X161326146Y-125470293D01*
X161544512Y-125666817D01*
X161650770Y-125730000D01*
X161544512Y-125793183D01*
X161326146Y-125989707D01*
X161150316Y-126225056D01*
X161023778Y-126490186D01*
X160978042Y-126640974D01*
X161099183Y-126873000D01*
X162306000Y-126873000D01*
X162306000Y-124587000D01*
X161099183Y-124587000D01*
X160978042Y-124819026D01*
X152819706Y-124819026D01*
X152817459Y-124813602D01*
X152693761Y-124628476D01*
X152536324Y-124471039D01*
X152351198Y-124347341D01*
X152145496Y-124262137D01*
X151927125Y-124218700D01*
X151704475Y-124218700D01*
X151486104Y-124262137D01*
X151280402Y-124347341D01*
X151095276Y-124471039D01*
X150937839Y-124628476D01*
X150814141Y-124813602D01*
X150728937Y-125019304D01*
X150685500Y-125237675D01*
X144322082Y-125237675D01*
X144307125Y-125234700D01*
X144084475Y-125234700D01*
X143866104Y-125278137D01*
X143660402Y-125363341D01*
X143475276Y-125487039D01*
X143317839Y-125644476D01*
X143194141Y-125829602D01*
X143108937Y-126035304D01*
X143065500Y-126253675D01*
X141857000Y-126253675D01*
X141857000Y-126249933D01*
X141860677Y-126212600D01*
X141857000Y-126175267D01*
X141857000Y-122279026D01*
X160978042Y-122279026D01*
X161023778Y-122429814D01*
X161150316Y-122694944D01*
X161326146Y-122930293D01*
X161544512Y-123126817D01*
X161650770Y-123190000D01*
X161544512Y-123253183D01*
X161326146Y-123449707D01*
X161150316Y-123685056D01*
X161023778Y-123950186D01*
X160978042Y-124100974D01*
X161099183Y-124333000D01*
X162306000Y-124333000D01*
X162306000Y-122047000D01*
X161099183Y-122047000D01*
X160978042Y-122279026D01*
X141857000Y-122279026D01*
X141857000Y-119073538D01*
X141881277Y-119037205D01*
X141947990Y-118876145D01*
X141982000Y-118705165D01*
X141982000Y-118530835D01*
X141947990Y-118359855D01*
X141881277Y-118198795D01*
X141857000Y-118162462D01*
X141857000Y-113471801D01*
X143215202Y-112113600D01*
X144197462Y-112113600D01*
X144233795Y-112137877D01*
X144394855Y-112204590D01*
X144565835Y-112238600D01*
X144740165Y-112238600D01*
X144911145Y-112204590D01*
X145072205Y-112137877D01*
X145217155Y-112041024D01*
X145299165Y-111959014D01*
X145361408Y-112021257D01*
X145385207Y-112050256D01*
X145500932Y-112145229D01*
X145632961Y-112215801D01*
X145776222Y-112259258D01*
X145887875Y-112270255D01*
X145887884Y-112270255D01*
X145925207Y-112273931D01*
X145962530Y-112270255D01*
X148482951Y-112270255D01*
X148501010Y-112361045D01*
X148551898Y-112483900D01*
X148501010Y-112606755D01*
X148467000Y-112777735D01*
X148467000Y-112952065D01*
X148501010Y-113123045D01*
X148551898Y-113245900D01*
X148501010Y-113368755D01*
X148467000Y-113539735D01*
X148467000Y-113714065D01*
X148501010Y-113885045D01*
X148551898Y-114007900D01*
X148501010Y-114130755D01*
X148486460Y-114203901D01*
X148374801Y-114203901D01*
X148235700Y-114064800D01*
X148256677Y-114033405D01*
X148323390Y-113872345D01*
X148357400Y-113701365D01*
X148357400Y-113527035D01*
X148323390Y-113356055D01*
X148256677Y-113194995D01*
X148159824Y-113050045D01*
X148036555Y-112926776D01*
X147891605Y-112829923D01*
X147730545Y-112763210D01*
X147559565Y-112729200D01*
X147385235Y-112729200D01*
X147214255Y-112763210D01*
X147053195Y-112829923D01*
X146908245Y-112926776D01*
X146784976Y-113050045D01*
X146688123Y-113194995D01*
X146621410Y-113356055D01*
X146587400Y-113527035D01*
X146587400Y-113701365D01*
X146621410Y-113872345D01*
X146688123Y-114033405D01*
X146712400Y-114069738D01*
X146712400Y-114338980D01*
X146708724Y-114376302D01*
X146712400Y-114413624D01*
X146712400Y-114413635D01*
X146723397Y-114525288D01*
X146751717Y-114618646D01*
X146766854Y-114668548D01*
X146837426Y-114800578D01*
X146908601Y-114887304D01*
X146932400Y-114916303D01*
X146961397Y-114940100D01*
X147496204Y-115474908D01*
X147519998Y-115503902D01*
X147548991Y-115527696D01*
X147548995Y-115527700D01*
X147619684Y-115585712D01*
X147635723Y-115598875D01*
X147767752Y-115669447D01*
X147911013Y-115712904D01*
X148022666Y-115723901D01*
X148022675Y-115723901D01*
X148059998Y-115727577D01*
X148097321Y-115723901D01*
X148977893Y-115723901D01*
X148881995Y-115763623D01*
X148737045Y-115860476D01*
X148613776Y-115983745D01*
X148516923Y-116128695D01*
X148450210Y-116289755D01*
X148416200Y-116460735D01*
X148416200Y-116635065D01*
X148450210Y-116806045D01*
X148501098Y-116928900D01*
X148450210Y-117051755D01*
X148416200Y-117222735D01*
X148416200Y-117397065D01*
X148450210Y-117568045D01*
X148501098Y-117690900D01*
X148450210Y-117813755D01*
X148416200Y-117984735D01*
X148416200Y-118159065D01*
X148450210Y-118330045D01*
X148501098Y-118452900D01*
X148450210Y-118575755D01*
X148416200Y-118746735D01*
X148416200Y-118921065D01*
X148450210Y-119092045D01*
X148516923Y-119253105D01*
X148613776Y-119398055D01*
X148737045Y-119521324D01*
X148881995Y-119618177D01*
X149043055Y-119684890D01*
X149214035Y-119718900D01*
X149388365Y-119718900D01*
X149559345Y-119684890D01*
X149720405Y-119618177D01*
X149756738Y-119593900D01*
X155246462Y-119593900D01*
X155282795Y-119618177D01*
X155443855Y-119684890D01*
X155614835Y-119718900D01*
X155789165Y-119718900D01*
X155960145Y-119684890D01*
X156121205Y-119618177D01*
X156266155Y-119521324D01*
X156389424Y-119398055D01*
X156486277Y-119253105D01*
X156552990Y-119092045D01*
X156587000Y-118921065D01*
X156587000Y-118746735D01*
X156552990Y-118575755D01*
X156502102Y-118452900D01*
X156552990Y-118330045D01*
X156587000Y-118159065D01*
X156587000Y-117984735D01*
X156552990Y-117813755D01*
X156502102Y-117690900D01*
X156552990Y-117568045D01*
X156587000Y-117397065D01*
X156587000Y-117222735D01*
X156552990Y-117051755D01*
X156502102Y-116928900D01*
X156552990Y-116806045D01*
X156587000Y-116635065D01*
X156587000Y-116460735D01*
X156552990Y-116289755D01*
X156486277Y-116128695D01*
X156389424Y-115983745D01*
X156266155Y-115860476D01*
X156121205Y-115763623D01*
X156025307Y-115723901D01*
X156092977Y-115723901D01*
X156130299Y-115727577D01*
X156167621Y-115723901D01*
X156167632Y-115723901D01*
X156279285Y-115712904D01*
X156422546Y-115669447D01*
X156554575Y-115598875D01*
X156670300Y-115503902D01*
X156694102Y-115474899D01*
X157695288Y-114473715D01*
X157738145Y-114465190D01*
X157899205Y-114398477D01*
X158044155Y-114301624D01*
X158167424Y-114178355D01*
X158264277Y-114033405D01*
X158330990Y-113872345D01*
X158365000Y-113701365D01*
X158365000Y-113527035D01*
X158330990Y-113356055D01*
X158264277Y-113194995D01*
X158167424Y-113050045D01*
X158044155Y-112926776D01*
X157899205Y-112829923D01*
X157738145Y-112763210D01*
X157567165Y-112729200D01*
X157392835Y-112729200D01*
X157221855Y-112763210D01*
X157060795Y-112829923D01*
X156915845Y-112926776D01*
X156792576Y-113050045D01*
X156695723Y-113194995D01*
X156629010Y-113356055D01*
X156620485Y-113398912D01*
X156569192Y-113450206D01*
X156552990Y-113368755D01*
X156502102Y-113245900D01*
X156552990Y-113123045D01*
X156587000Y-112952065D01*
X156587000Y-112777735D01*
X156552990Y-112606755D01*
X156502102Y-112483900D01*
X156552990Y-112361045D01*
X156571049Y-112270255D01*
X158820454Y-112270255D01*
X159444990Y-112894792D01*
X159444991Y-120162658D01*
X159441314Y-120199990D01*
X159455988Y-120348975D01*
X159499444Y-120492236D01*
X159570016Y-120624266D01*
X159638770Y-120708042D01*
X159664990Y-120739991D01*
X159693988Y-120763789D01*
X160172599Y-121242401D01*
X160196398Y-121271400D01*
X160312123Y-121366373D01*
X160444152Y-121436945D01*
X160587413Y-121480402D01*
X160699066Y-121491399D01*
X160699076Y-121491399D01*
X160736399Y-121495075D01*
X160773722Y-121491399D01*
X160999145Y-121491399D01*
X160978042Y-121560974D01*
X161099183Y-121793000D01*
X162306000Y-121793000D01*
X162306000Y-121773000D01*
X162560000Y-121773000D01*
X162560000Y-121793000D01*
X162580000Y-121793000D01*
X162580000Y-122047000D01*
X162560000Y-122047000D01*
X162560000Y-124333000D01*
X162580000Y-124333000D01*
X162580000Y-124587000D01*
X162560000Y-124587000D01*
X162560000Y-126873000D01*
X162580000Y-126873000D01*
X162580000Y-127127000D01*
X162560000Y-127127000D01*
X162560000Y-129413000D01*
X162580000Y-129413000D01*
X162580000Y-129667000D01*
X162560000Y-129667000D01*
X162560000Y-131953000D01*
X162580000Y-131953000D01*
X162580000Y-132207000D01*
X162560000Y-132207000D01*
X162560000Y-134493000D01*
X162580000Y-134493000D01*
X162580000Y-134747000D01*
X162560000Y-134747000D01*
X162560000Y-135954464D01*
X162792027Y-136074963D01*
X163068978Y-135976964D01*
X163321488Y-135826817D01*
X163539854Y-135630293D01*
X163701308Y-135414187D01*
X163808961Y-135575302D01*
X164017698Y-135784039D01*
X164263147Y-135948042D01*
X164535875Y-136061010D01*
X164825401Y-136118600D01*
X165120599Y-136118600D01*
X165410125Y-136061010D01*
X165682853Y-135948042D01*
X165928302Y-135784039D01*
X166137039Y-135575302D01*
X166301042Y-135329853D01*
X166414010Y-135057125D01*
X166471600Y-134767599D01*
X166471600Y-134472401D01*
X166414010Y-134182875D01*
X166301042Y-133910147D01*
X166137039Y-133664698D01*
X165928302Y-133455961D01*
X165769719Y-133350000D01*
X165928302Y-133244039D01*
X166137039Y-133035302D01*
X166301042Y-132789853D01*
X166414010Y-132517125D01*
X166471600Y-132227599D01*
X166471600Y-131932401D01*
X166414010Y-131642875D01*
X166301042Y-131370147D01*
X166137039Y-131124698D01*
X165928302Y-130915961D01*
X165769719Y-130810000D01*
X165928302Y-130704039D01*
X166137039Y-130495302D01*
X166301042Y-130249853D01*
X166414010Y-129977125D01*
X166471600Y-129687599D01*
X166471600Y-129392401D01*
X166414010Y-129102875D01*
X166301042Y-128830147D01*
X166137039Y-128584698D01*
X165928302Y-128375961D01*
X165769719Y-128270000D01*
X165928302Y-128164039D01*
X166137039Y-127955302D01*
X166301042Y-127709853D01*
X166414010Y-127437125D01*
X166471600Y-127147599D01*
X166471600Y-126852401D01*
X166414010Y-126562875D01*
X166301042Y-126290147D01*
X166137039Y-126044698D01*
X165928302Y-125835961D01*
X165769719Y-125730000D01*
X165928302Y-125624039D01*
X166137039Y-125415302D01*
X166301042Y-125169853D01*
X166414010Y-124897125D01*
X166471600Y-124607599D01*
X166471600Y-124312401D01*
X166414010Y-124022875D01*
X166301042Y-123750147D01*
X166137039Y-123504698D01*
X165928302Y-123295961D01*
X165769719Y-123190000D01*
X165928302Y-123084039D01*
X166137039Y-122875302D01*
X166301042Y-122629853D01*
X166414010Y-122357125D01*
X166471600Y-122067599D01*
X166471600Y-121772401D01*
X166414010Y-121482875D01*
X166301042Y-121210147D01*
X166137039Y-120964698D01*
X165928302Y-120755961D01*
X165769719Y-120650000D01*
X165928302Y-120544039D01*
X166137039Y-120335302D01*
X166301042Y-120089853D01*
X166414010Y-119817125D01*
X166471600Y-119527599D01*
X166471600Y-119232401D01*
X166414010Y-118942875D01*
X166301042Y-118670147D01*
X166137039Y-118424698D01*
X165928302Y-118215961D01*
X165769719Y-118110000D01*
X165928302Y-118004039D01*
X166137039Y-117795302D01*
X166301042Y-117549853D01*
X166414010Y-117277125D01*
X166471600Y-116987599D01*
X166471600Y-116692401D01*
X166414010Y-116402875D01*
X166301042Y-116130147D01*
X166137039Y-115884698D01*
X165928302Y-115675961D01*
X165769719Y-115570000D01*
X165928302Y-115464039D01*
X166137039Y-115255302D01*
X166301042Y-115009853D01*
X166414010Y-114737125D01*
X166471600Y-114447599D01*
X166471600Y-114152401D01*
X166414010Y-113862875D01*
X166301042Y-113590147D01*
X166137039Y-113344698D01*
X165928302Y-113135961D01*
X165769719Y-113030000D01*
X165928302Y-112924039D01*
X166137039Y-112715302D01*
X166301042Y-112469853D01*
X166414010Y-112197125D01*
X166471600Y-111907599D01*
X166471600Y-111612401D01*
X166414010Y-111322875D01*
X166301042Y-111050147D01*
X166137039Y-110804698D01*
X165928302Y-110595961D01*
X165769719Y-110490000D01*
X165928302Y-110384039D01*
X166137039Y-110175302D01*
X166301042Y-109929853D01*
X166414010Y-109657125D01*
X166471600Y-109367599D01*
X166471600Y-109072401D01*
X166414010Y-108782875D01*
X166301042Y-108510147D01*
X166137039Y-108264698D01*
X165928302Y-108055961D01*
X165769719Y-107950000D01*
X165928302Y-107844039D01*
X166137039Y-107635302D01*
X166301042Y-107389853D01*
X166414010Y-107117125D01*
X166471600Y-106827599D01*
X166471600Y-106532401D01*
X166414010Y-106242875D01*
X166301042Y-105970147D01*
X166137039Y-105724698D01*
X165928302Y-105515961D01*
X165769719Y-105410000D01*
X165928302Y-105304039D01*
X166137039Y-105095302D01*
X166301042Y-104849853D01*
X166414010Y-104577125D01*
X166471600Y-104287599D01*
X166471600Y-103992401D01*
X166414010Y-103702875D01*
X166301042Y-103430147D01*
X166137039Y-103184698D01*
X165928302Y-102975961D01*
X165769719Y-102870000D01*
X165928302Y-102764039D01*
X166137039Y-102555302D01*
X166301042Y-102309853D01*
X166414010Y-102037125D01*
X166471600Y-101747599D01*
X166471600Y-101452401D01*
X166414010Y-101162875D01*
X166301042Y-100890147D01*
X166137039Y-100644698D01*
X165928302Y-100435961D01*
X165769719Y-100330000D01*
X165928302Y-100224039D01*
X166137039Y-100015302D01*
X166301042Y-99769853D01*
X166414010Y-99497125D01*
X166471600Y-99207599D01*
X166471600Y-98912401D01*
X166414010Y-98622875D01*
X166301042Y-98350147D01*
X166137039Y-98104698D01*
X165928302Y-97895961D01*
X165769719Y-97790000D01*
X165928302Y-97684039D01*
X166137039Y-97475302D01*
X166301042Y-97229853D01*
X166414010Y-96957125D01*
X166471600Y-96667599D01*
X166471600Y-96372401D01*
X166414010Y-96082875D01*
X166301042Y-95810147D01*
X166137039Y-95564698D01*
X165928302Y-95355961D01*
X165769719Y-95250000D01*
X165928302Y-95144039D01*
X166137039Y-94935302D01*
X166301042Y-94689853D01*
X166414010Y-94417125D01*
X166471600Y-94127599D01*
X166471600Y-93832401D01*
X166414010Y-93542875D01*
X166301042Y-93270147D01*
X166137039Y-93024698D01*
X165928302Y-92815961D01*
X165769719Y-92710000D01*
X165928302Y-92604039D01*
X166137039Y-92395302D01*
X166301042Y-92149853D01*
X166414010Y-91877125D01*
X166471600Y-91587599D01*
X166471600Y-91292401D01*
X166414010Y-91002875D01*
X166301042Y-90730147D01*
X166137039Y-90484698D01*
X165928302Y-90275961D01*
X165769719Y-90170000D01*
X165928302Y-90064039D01*
X166137039Y-89855302D01*
X166301042Y-89609853D01*
X166414010Y-89337125D01*
X166471600Y-89047599D01*
X166471600Y-88752401D01*
X166414010Y-88462875D01*
X166301042Y-88190147D01*
X166137039Y-87944698D01*
X165928302Y-87735961D01*
X165769719Y-87630000D01*
X165928302Y-87524039D01*
X166137039Y-87315302D01*
X166301042Y-87069853D01*
X166414010Y-86797125D01*
X166471600Y-86507599D01*
X166471600Y-86212401D01*
X166414010Y-85922875D01*
X166301042Y-85650147D01*
X166137039Y-85404698D01*
X165928302Y-85195961D01*
X165769719Y-85090000D01*
X165928302Y-84984039D01*
X166137039Y-84775302D01*
X166301042Y-84529853D01*
X166414010Y-84257125D01*
X166471600Y-83967599D01*
X166471600Y-83672401D01*
X166414010Y-83382875D01*
X166301042Y-83110147D01*
X166137039Y-82864698D01*
X165928302Y-82655961D01*
X165769719Y-82550000D01*
X165928302Y-82444039D01*
X166137039Y-82235302D01*
X166301042Y-81989853D01*
X166414010Y-81717125D01*
X166471600Y-81427599D01*
X166471600Y-81132401D01*
X166414010Y-80842875D01*
X166301042Y-80570147D01*
X166137039Y-80324698D01*
X165928302Y-80115961D01*
X165769719Y-80010000D01*
X165928302Y-79904039D01*
X166137039Y-79695302D01*
X166301042Y-79449853D01*
X166414010Y-79177125D01*
X166471600Y-78887599D01*
X166471600Y-78592401D01*
X166414010Y-78302875D01*
X166301042Y-78030147D01*
X166137039Y-77784698D01*
X165928302Y-77575961D01*
X165769719Y-77470000D01*
X165928302Y-77364039D01*
X166137039Y-77155302D01*
X166301042Y-76909853D01*
X166414010Y-76637125D01*
X166471600Y-76347599D01*
X166471600Y-76052401D01*
X166414010Y-75762875D01*
X166301042Y-75490147D01*
X166137039Y-75244698D01*
X165928302Y-75035961D01*
X165769719Y-74930000D01*
X165928302Y-74824039D01*
X166137039Y-74615302D01*
X166301042Y-74369853D01*
X166414010Y-74097125D01*
X166471600Y-73807599D01*
X166471600Y-73512401D01*
X166414010Y-73222875D01*
X166301042Y-72950147D01*
X166137039Y-72704698D01*
X165928302Y-72495961D01*
X165682853Y-72331958D01*
X165410125Y-72218990D01*
X165120599Y-72161400D01*
X164825401Y-72161400D01*
X164535875Y-72218990D01*
X164263147Y-72331958D01*
X164017698Y-72495961D01*
X163903636Y-72610023D01*
X163886102Y-72552220D01*
X163827137Y-72441906D01*
X163747785Y-72345215D01*
X163651094Y-72265863D01*
X163540780Y-72206898D01*
X163421082Y-72170588D01*
X163296600Y-72158328D01*
X162718750Y-72161400D01*
X162560000Y-72320150D01*
X162560000Y-73533000D01*
X162580000Y-73533000D01*
X162580000Y-73787000D01*
X162560000Y-73787000D01*
X162560000Y-76073000D01*
X162580000Y-76073000D01*
X162580000Y-76327000D01*
X162560000Y-76327000D01*
X162560000Y-78613000D01*
X162580000Y-78613000D01*
X162580000Y-78867000D01*
X162560000Y-78867000D01*
X162560000Y-81153000D01*
X162580000Y-81153000D01*
X162580000Y-81407000D01*
X162560000Y-81407000D01*
X162560000Y-83693000D01*
X162580000Y-83693000D01*
X162580000Y-83947000D01*
X162560000Y-83947000D01*
X162560000Y-86233000D01*
X162580000Y-86233000D01*
X162580000Y-86487000D01*
X162560000Y-86487000D01*
X162560000Y-88773000D01*
X162580000Y-88773000D01*
X162580000Y-89027000D01*
X162560000Y-89027000D01*
X162560000Y-91313000D01*
X162580000Y-91313000D01*
X162580000Y-91567000D01*
X162560000Y-91567000D01*
X162560000Y-93853000D01*
X162580000Y-93853000D01*
X162580000Y-94107000D01*
X162560000Y-94107000D01*
X162560000Y-96393000D01*
X162580000Y-96393000D01*
X162580000Y-96647000D01*
X162560000Y-96647000D01*
X162560000Y-98933000D01*
X162580000Y-98933000D01*
X162580000Y-99187000D01*
X162560000Y-99187000D01*
X162560000Y-101473000D01*
X162580000Y-101473000D01*
X162580000Y-101727000D01*
X162560000Y-101727000D01*
X162560000Y-101747000D01*
X162306000Y-101747000D01*
X162306000Y-101727000D01*
X161099183Y-101727000D01*
X160978042Y-101959026D01*
X161023778Y-102109814D01*
X161023867Y-102110000D01*
X155857362Y-102110000D01*
X155814498Y-102029808D01*
X155760042Y-101948309D01*
X155680690Y-101851618D01*
X155611382Y-101782310D01*
X155514691Y-101702958D01*
X155433192Y-101648502D01*
X155322875Y-101589536D01*
X155232319Y-101552027D01*
X155112623Y-101515718D01*
X155016490Y-101496596D01*
X154892009Y-101484336D01*
X154867450Y-101484336D01*
X154843000Y-101481928D01*
X154293000Y-101481928D01*
X154168518Y-101494188D01*
X154168000Y-101494345D01*
X154167482Y-101494188D01*
X154043000Y-101481928D01*
X153128000Y-101481928D01*
X153128000Y-99419026D01*
X160978042Y-99419026D01*
X161023778Y-99569814D01*
X161150316Y-99834944D01*
X161326146Y-100070293D01*
X161544512Y-100266817D01*
X161650770Y-100330000D01*
X161544512Y-100393183D01*
X161326146Y-100589707D01*
X161150316Y-100825056D01*
X161023778Y-101090186D01*
X160978042Y-101240974D01*
X161099183Y-101473000D01*
X162306000Y-101473000D01*
X162306000Y-99187000D01*
X161099183Y-99187000D01*
X160978042Y-99419026D01*
X153128000Y-99419026D01*
X153128000Y-96879026D01*
X160978042Y-96879026D01*
X161023778Y-97029814D01*
X161150316Y-97294944D01*
X161326146Y-97530293D01*
X161544512Y-97726817D01*
X161650770Y-97790000D01*
X161544512Y-97853183D01*
X161326146Y-98049707D01*
X161150316Y-98285056D01*
X161023778Y-98550186D01*
X160978042Y-98700974D01*
X161099183Y-98933000D01*
X162306000Y-98933000D01*
X162306000Y-96647000D01*
X161099183Y-96647000D01*
X160978042Y-96879026D01*
X153128000Y-96879026D01*
X153128000Y-94339026D01*
X160978042Y-94339026D01*
X161023778Y-94489814D01*
X161150316Y-94754944D01*
X161326146Y-94990293D01*
X161544512Y-95186817D01*
X161650770Y-95250000D01*
X161544512Y-95313183D01*
X161326146Y-95509707D01*
X161150316Y-95745056D01*
X161023778Y-96010186D01*
X160978042Y-96160974D01*
X161099183Y-96393000D01*
X162306000Y-96393000D01*
X162306000Y-94107000D01*
X161099183Y-94107000D01*
X160978042Y-94339026D01*
X153128000Y-94339026D01*
X153128000Y-91799026D01*
X160978042Y-91799026D01*
X161023778Y-91949814D01*
X161150316Y-92214944D01*
X161326146Y-92450293D01*
X161544512Y-92646817D01*
X161650770Y-92710000D01*
X161544512Y-92773183D01*
X161326146Y-92969707D01*
X161150316Y-93205056D01*
X161023778Y-93470186D01*
X160978042Y-93620974D01*
X161099183Y-93853000D01*
X162306000Y-93853000D01*
X162306000Y-91567000D01*
X161099183Y-91567000D01*
X160978042Y-91799026D01*
X153128000Y-91799026D01*
X153128000Y-89259026D01*
X160978042Y-89259026D01*
X161023778Y-89409814D01*
X161150316Y-89674944D01*
X161326146Y-89910293D01*
X161544512Y-90106817D01*
X161650770Y-90170000D01*
X161544512Y-90233183D01*
X161326146Y-90429707D01*
X161150316Y-90665056D01*
X161023778Y-90930186D01*
X160978042Y-91080974D01*
X161099183Y-91313000D01*
X162306000Y-91313000D01*
X162306000Y-89027000D01*
X161099183Y-89027000D01*
X160978042Y-89259026D01*
X153128000Y-89259026D01*
X153128000Y-86719026D01*
X160978042Y-86719026D01*
X161023778Y-86869814D01*
X161150316Y-87134944D01*
X161326146Y-87370293D01*
X161544512Y-87566817D01*
X161650770Y-87630000D01*
X161544512Y-87693183D01*
X161326146Y-87889707D01*
X161150316Y-88125056D01*
X161023778Y-88390186D01*
X160978042Y-88540974D01*
X161099183Y-88773000D01*
X162306000Y-88773000D01*
X162306000Y-86487000D01*
X161099183Y-86487000D01*
X160978042Y-86719026D01*
X153128000Y-86719026D01*
X153128000Y-84179026D01*
X160978042Y-84179026D01*
X161023778Y-84329814D01*
X161150316Y-84594944D01*
X161326146Y-84830293D01*
X161544512Y-85026817D01*
X161650770Y-85090000D01*
X161544512Y-85153183D01*
X161326146Y-85349707D01*
X161150316Y-85585056D01*
X161023778Y-85850186D01*
X160978042Y-86000974D01*
X161099183Y-86233000D01*
X162306000Y-86233000D01*
X162306000Y-83947000D01*
X161099183Y-83947000D01*
X160978042Y-84179026D01*
X153128000Y-84179026D01*
X153128000Y-81639026D01*
X160978042Y-81639026D01*
X161023778Y-81789814D01*
X161150316Y-82054944D01*
X161326146Y-82290293D01*
X161544512Y-82486817D01*
X161650770Y-82550000D01*
X161544512Y-82613183D01*
X161326146Y-82809707D01*
X161150316Y-83045056D01*
X161023778Y-83310186D01*
X160978042Y-83460974D01*
X161099183Y-83693000D01*
X162306000Y-83693000D01*
X162306000Y-81407000D01*
X161099183Y-81407000D01*
X160978042Y-81639026D01*
X153128000Y-81639026D01*
X153128000Y-80406578D01*
X154435552Y-79099026D01*
X160978042Y-79099026D01*
X161023778Y-79249814D01*
X161150316Y-79514944D01*
X161326146Y-79750293D01*
X161544512Y-79946817D01*
X161650770Y-80010000D01*
X161544512Y-80073183D01*
X161326146Y-80269707D01*
X161150316Y-80505056D01*
X161023778Y-80770186D01*
X160978042Y-80920974D01*
X161099183Y-81153000D01*
X162306000Y-81153000D01*
X162306000Y-78867000D01*
X161099183Y-78867000D01*
X160978042Y-79099026D01*
X154435552Y-79099026D01*
X156975552Y-76559026D01*
X160978042Y-76559026D01*
X161023778Y-76709814D01*
X161150316Y-76974944D01*
X161326146Y-77210293D01*
X161544512Y-77406817D01*
X161650770Y-77470000D01*
X161544512Y-77533183D01*
X161326146Y-77729707D01*
X161150316Y-77965056D01*
X161023778Y-78230186D01*
X160978042Y-78380974D01*
X161099183Y-78613000D01*
X162306000Y-78613000D01*
X162306000Y-76327000D01*
X161099183Y-76327000D01*
X160978042Y-76559026D01*
X156975552Y-76559026D01*
X159010978Y-74523600D01*
X160931328Y-74523600D01*
X160943588Y-74648082D01*
X160979898Y-74767780D01*
X161038863Y-74878094D01*
X161118215Y-74974785D01*
X161214906Y-75054137D01*
X161325220Y-75113102D01*
X161389574Y-75132624D01*
X161326146Y-75189707D01*
X161150316Y-75425056D01*
X161023778Y-75690186D01*
X160978042Y-75840974D01*
X161099183Y-76073000D01*
X162306000Y-76073000D01*
X162306000Y-73787000D01*
X161093150Y-73787000D01*
X160934400Y-73945750D01*
X160931328Y-74523600D01*
X159010978Y-74523600D01*
X160488049Y-73046530D01*
X160521817Y-73018817D01*
X160632411Y-72884059D01*
X160679265Y-72796400D01*
X160931328Y-72796400D01*
X160934400Y-73374250D01*
X161093150Y-73533000D01*
X162306000Y-73533000D01*
X162306000Y-72320150D01*
X162147250Y-72161400D01*
X161569400Y-72158328D01*
X161444918Y-72170588D01*
X161325220Y-72206898D01*
X161214906Y-72265863D01*
X161118215Y-72345215D01*
X161038863Y-72441906D01*
X160979898Y-72552220D01*
X160943588Y-72671918D01*
X160931328Y-72796400D01*
X160679265Y-72796400D01*
X160714589Y-72730313D01*
X160765195Y-72563490D01*
X160778000Y-72433477D01*
X160778000Y-72433469D01*
X160782281Y-72390000D01*
X160778000Y-72346531D01*
X160778000Y-63944419D01*
X161209000Y-63944419D01*
X161209000Y-64325581D01*
X161283361Y-64699419D01*
X161429225Y-65051566D01*
X161640987Y-65368491D01*
X161910509Y-65638013D01*
X162227434Y-65849775D01*
X162579581Y-65995639D01*
X162953419Y-66070000D01*
X163334581Y-66070000D01*
X163708419Y-65995639D01*
X163943835Y-65898127D01*
X163852209Y-66119332D01*
X163779000Y-66487374D01*
X163779000Y-66862626D01*
X163852209Y-67230668D01*
X163995811Y-67577356D01*
X164204290Y-67889366D01*
X164469634Y-68154710D01*
X164781644Y-68363189D01*
X165128332Y-68506791D01*
X165496374Y-68580000D01*
X165871626Y-68580000D01*
X166239668Y-68506791D01*
X166586356Y-68363189D01*
X166898366Y-68154710D01*
X167163710Y-67889366D01*
X167372189Y-67577356D01*
X167515791Y-67230668D01*
X167589000Y-66862626D01*
X167589000Y-66487374D01*
X167515791Y-66119332D01*
X167372189Y-65772644D01*
X167163710Y-65460634D01*
X166898366Y-65195290D01*
X166586356Y-64986811D01*
X166239668Y-64843209D01*
X165871626Y-64770000D01*
X165496374Y-64770000D01*
X165128332Y-64843209D01*
X164907127Y-64934835D01*
X165004639Y-64699419D01*
X165079000Y-64325581D01*
X165079000Y-63944419D01*
X165004639Y-63570581D01*
X164858775Y-63218434D01*
X164647013Y-62901509D01*
X164377491Y-62631987D01*
X164060566Y-62420225D01*
X163708419Y-62274361D01*
X163334581Y-62200000D01*
X162953419Y-62200000D01*
X162579581Y-62274361D01*
X162227434Y-62420225D01*
X161910509Y-62631987D01*
X161640987Y-62901509D01*
X161429225Y-63218434D01*
X161283361Y-63570581D01*
X161209000Y-63944419D01*
X160778000Y-63944419D01*
X160778000Y-60404224D01*
X161974381Y-60404224D01*
X162106317Y-60699312D01*
X162447045Y-60870159D01*
X162814557Y-60971250D01*
X163194729Y-60998701D01*
X163572951Y-60951457D01*
X163934690Y-60831333D01*
X164181683Y-60699312D01*
X164313619Y-60404224D01*
X163144000Y-59234605D01*
X161974381Y-60404224D01*
X160778000Y-60404224D01*
X160778000Y-59105729D01*
X161200299Y-59105729D01*
X161247543Y-59483951D01*
X161367667Y-59845690D01*
X161499688Y-60092683D01*
X161794776Y-60224619D01*
X162964395Y-59055000D01*
X163323605Y-59055000D01*
X164493224Y-60224619D01*
X164788312Y-60092683D01*
X164959159Y-59751955D01*
X165060250Y-59384443D01*
X165087701Y-59004271D01*
X165040457Y-58626049D01*
X164920333Y-58264310D01*
X164788312Y-58017317D01*
X164493224Y-57885381D01*
X163323605Y-59055000D01*
X162964395Y-59055000D01*
X161794776Y-57885381D01*
X161499688Y-58017317D01*
X161328841Y-58358045D01*
X161227750Y-58725557D01*
X161200299Y-59105729D01*
X160778000Y-59105729D01*
X160778000Y-57705776D01*
X161974381Y-57705776D01*
X163144000Y-58875395D01*
X164313619Y-57705776D01*
X164181683Y-57410688D01*
X163840955Y-57239841D01*
X163473443Y-57138750D01*
X163093271Y-57111299D01*
X162715049Y-57158543D01*
X162353310Y-57278667D01*
X162106317Y-57410688D01*
X161974381Y-57705776D01*
X160778000Y-57705776D01*
X160778000Y-55324224D01*
X161974381Y-55324224D01*
X162106317Y-55619312D01*
X162447045Y-55790159D01*
X162814557Y-55891250D01*
X163194729Y-55918701D01*
X163572951Y-55871457D01*
X163934690Y-55751333D01*
X164181683Y-55619312D01*
X164313619Y-55324224D01*
X163144000Y-54154605D01*
X161974381Y-55324224D01*
X160778000Y-55324224D01*
X160778000Y-54025729D01*
X161200299Y-54025729D01*
X161247543Y-54403951D01*
X161367667Y-54765690D01*
X161499688Y-55012683D01*
X161794776Y-55144619D01*
X162964395Y-53975000D01*
X163323605Y-53975000D01*
X164493224Y-55144619D01*
X164788312Y-55012683D01*
X164959159Y-54671955D01*
X165060250Y-54304443D01*
X165087701Y-53924271D01*
X165040457Y-53546049D01*
X164920333Y-53184310D01*
X164788312Y-52937317D01*
X164493224Y-52805381D01*
X163323605Y-53975000D01*
X162964395Y-53975000D01*
X161794776Y-52805381D01*
X161499688Y-52937317D01*
X161328841Y-53278045D01*
X161227750Y-53645557D01*
X161200299Y-54025729D01*
X160778000Y-54025729D01*
X160778000Y-52625776D01*
X161974381Y-52625776D01*
X163144000Y-53795395D01*
X164313619Y-52625776D01*
X164181683Y-52330688D01*
X163840955Y-52159841D01*
X163473443Y-52058750D01*
X163093271Y-52031299D01*
X162715049Y-52078543D01*
X162353310Y-52198667D01*
X162106317Y-52330688D01*
X161974381Y-52625776D01*
X160778000Y-52625776D01*
X160778000Y-52512578D01*
X162548015Y-50742564D01*
X162579581Y-50755639D01*
X162953419Y-50830000D01*
X163334581Y-50830000D01*
X163708419Y-50755639D01*
X164060566Y-50609775D01*
X164377491Y-50398013D01*
X164647013Y-50128491D01*
X164858775Y-49811566D01*
X165004639Y-49459419D01*
X165079000Y-49085581D01*
X165079000Y-48704419D01*
X165004639Y-48330581D01*
X164907127Y-48095165D01*
X165128332Y-48186791D01*
X165496374Y-48260000D01*
X165871626Y-48260000D01*
X166239668Y-48186791D01*
X166586356Y-48043189D01*
X166898366Y-47834710D01*
X167163710Y-47569366D01*
X167372189Y-47257356D01*
X167515791Y-46910668D01*
X167589000Y-46542626D01*
X167589000Y-46167374D01*
X167515791Y-45799332D01*
X167372189Y-45452644D01*
X167163710Y-45140634D01*
X166898366Y-44875290D01*
X166586356Y-44666811D01*
X166239668Y-44523209D01*
X165871626Y-44450000D01*
X165496374Y-44450000D01*
X165128332Y-44523209D01*
X164781644Y-44666811D01*
X164469634Y-44875290D01*
X164204290Y-45140634D01*
X163995811Y-45452644D01*
X163852209Y-45799332D01*
X163779000Y-46167374D01*
X163779000Y-46542626D01*
X163852209Y-46910668D01*
X163943835Y-47131873D01*
X163708419Y-47034361D01*
X163334581Y-46960000D01*
X162953419Y-46960000D01*
X162579581Y-47034361D01*
X162227434Y-47180225D01*
X161910509Y-47391987D01*
X161640987Y-47661509D01*
X161429225Y-47978434D01*
X161283361Y-48330581D01*
X161209000Y-48704419D01*
X161209000Y-49085581D01*
X161283361Y-49459419D01*
X161296436Y-49490985D01*
X159297956Y-51489466D01*
X159264183Y-51517183D01*
X159153589Y-51651942D01*
X159071411Y-51805688D01*
X159020805Y-51972511D01*
X159008000Y-52102524D01*
X159008000Y-52102531D01*
X159003719Y-52146000D01*
X159008000Y-52189469D01*
X159008001Y-72023420D01*
X151647952Y-79383470D01*
X151614184Y-79411183D01*
X151586471Y-79444951D01*
X151586468Y-79444954D01*
X151503590Y-79545941D01*
X151421412Y-79699687D01*
X151370805Y-79866510D01*
X151353719Y-80040000D01*
X151358001Y-80083479D01*
X151358000Y-101909266D01*
X151325958Y-101948309D01*
X151271502Y-102029808D01*
X151212536Y-102140125D01*
X151175027Y-102230681D01*
X151138718Y-102350377D01*
X151119596Y-102446510D01*
X151107336Y-102570991D01*
X151107336Y-102595550D01*
X151104928Y-102620000D01*
X151104928Y-103120000D01*
X151107336Y-103144450D01*
X151107336Y-103169009D01*
X151119596Y-103293490D01*
X151138718Y-103389623D01*
X151175027Y-103509319D01*
X151212536Y-103599875D01*
X151271502Y-103710192D01*
X151325958Y-103791691D01*
X151405310Y-103888382D01*
X151474618Y-103957690D01*
X151571309Y-104037042D01*
X151652808Y-104091498D01*
X151763125Y-104150464D01*
X151853681Y-104187973D01*
X151973377Y-104224282D01*
X152069510Y-104243404D01*
X152193991Y-104255664D01*
X152218550Y-104255664D01*
X152243000Y-104258072D01*
X152616720Y-104258072D01*
X152608000Y-104301911D01*
X152608000Y-104307100D01*
X149807538Y-104307100D01*
X149771205Y-104282823D01*
X149610145Y-104216110D01*
X149439165Y-104182100D01*
X149264835Y-104182100D01*
X149093855Y-104216110D01*
X148932795Y-104282823D01*
X148787845Y-104379676D01*
X148664576Y-104502945D01*
X148567723Y-104647895D01*
X148501010Y-104808955D01*
X148467000Y-104979935D01*
X148467000Y-105154265D01*
X148501010Y-105325245D01*
X148551898Y-105448100D01*
X148501010Y-105570955D01*
X148467000Y-105741935D01*
X148467000Y-105916265D01*
X148501010Y-106087245D01*
X148551898Y-106210100D01*
X148501010Y-106332955D01*
X148467000Y-106503935D01*
X148467000Y-106678265D01*
X148501010Y-106849245D01*
X148551898Y-106972100D01*
X148501010Y-107094955D01*
X148467000Y-107265935D01*
X148467000Y-107440265D01*
X148501010Y-107611245D01*
X148551898Y-107734100D01*
X148501010Y-107856955D01*
X148467000Y-108027935D01*
X148467000Y-108202265D01*
X148501010Y-108373245D01*
X148551898Y-108496100D01*
X148501010Y-108618955D01*
X148467000Y-108789935D01*
X148467000Y-108964265D01*
X148501010Y-109135245D01*
X148551898Y-109258100D01*
X148501010Y-109380955D01*
X148467000Y-109551935D01*
X148467000Y-109726265D01*
X148501010Y-109897245D01*
X148551898Y-110020100D01*
X148501010Y-110142955D01*
X148486460Y-110216101D01*
X148473296Y-110216101D01*
X148330539Y-110172797D01*
X148294715Y-110169269D01*
X148247205Y-110137523D01*
X148086145Y-110070810D01*
X147915165Y-110036800D01*
X147740835Y-110036800D01*
X147569855Y-110070810D01*
X147408795Y-110137523D01*
X147263845Y-110234376D01*
X147140576Y-110357645D01*
X147043723Y-110502595D01*
X146977010Y-110663655D01*
X146959784Y-110750255D01*
X146240010Y-110750255D01*
X145570356Y-110080602D01*
X145546554Y-110051599D01*
X145430829Y-109956626D01*
X145298800Y-109886054D01*
X145155539Y-109842597D01*
X145119715Y-109839069D01*
X145072205Y-109807323D01*
X144911145Y-109740610D01*
X144740165Y-109706600D01*
X144565835Y-109706600D01*
X144394855Y-109740610D01*
X144233795Y-109807323D01*
X144088845Y-109904176D01*
X143965576Y-110027445D01*
X143868723Y-110172395D01*
X143802010Y-110333455D01*
X143768000Y-110504435D01*
X143768000Y-110593600D01*
X143660400Y-110593600D01*
X143660400Y-107326038D01*
X143684677Y-107289705D01*
X143751390Y-107128645D01*
X143785400Y-106957665D01*
X143785400Y-106783335D01*
X143751390Y-106612355D01*
X143685800Y-106454006D01*
X143685800Y-102004738D01*
X143710077Y-101968405D01*
X143776790Y-101807345D01*
X143810800Y-101636365D01*
X143810800Y-101462035D01*
X143776790Y-101291055D01*
X143710077Y-101129995D01*
X143613224Y-100985045D01*
X143489955Y-100861776D01*
X143345005Y-100764923D01*
X143183945Y-100698210D01*
X143012965Y-100664200D01*
X142838635Y-100664200D01*
X142667655Y-100698210D01*
X142506595Y-100764923D01*
X142361645Y-100861776D01*
X142238376Y-100985045D01*
X142141523Y-101129995D01*
X142074810Y-101291055D01*
X142040800Y-101462035D01*
X142040800Y-101636365D01*
X142049519Y-101680200D01*
X142000435Y-101680200D01*
X141829455Y-101714210D01*
X141668395Y-101780923D01*
X141523445Y-101877776D01*
X141400176Y-102001045D01*
X141303323Y-102145995D01*
X141236610Y-102307055D01*
X141202600Y-102478035D01*
X141202600Y-102652365D01*
X141236610Y-102823345D01*
X141303323Y-102984405D01*
X141327601Y-103020739D01*
X141327600Y-110835598D01*
X139696998Y-112466201D01*
X139668000Y-112489999D01*
X139644202Y-112518997D01*
X139644201Y-112518998D01*
X139573026Y-112605724D01*
X139502454Y-112737754D01*
X139486508Y-112790324D01*
X139458998Y-112881014D01*
X139453094Y-112940954D01*
X139444324Y-113030000D01*
X139448001Y-113067332D01*
X139448000Y-120042400D01*
X138314925Y-120042400D01*
X138277600Y-120038724D01*
X138240275Y-120042400D01*
X138240267Y-120042400D01*
X138128614Y-120053397D01*
X137985353Y-120096854D01*
X137853324Y-120167426D01*
X137737599Y-120262399D01*
X137713801Y-120291397D01*
X135938800Y-122066399D01*
X135938800Y-121957333D01*
X135942477Y-121920000D01*
X135927803Y-121771014D01*
X135884346Y-121627753D01*
X135813774Y-121495724D01*
X135742599Y-121408997D01*
X135742598Y-121408996D01*
X135718801Y-121379999D01*
X135689804Y-121356202D01*
X135107603Y-120774002D01*
X135083801Y-120744999D01*
X134968076Y-120650026D01*
X134836047Y-120579454D01*
X134692786Y-120535997D01*
X134581133Y-120525000D01*
X134581122Y-120525000D01*
X134543800Y-120521324D01*
X134506478Y-120525000D01*
X130644335Y-120525000D01*
X130541689Y-120456414D01*
X130371529Y-120385932D01*
X130190889Y-120350000D01*
X130006711Y-120350000D01*
X129826071Y-120385932D01*
X129655911Y-120456414D01*
X129502772Y-120558738D01*
X129372538Y-120688972D01*
X129270214Y-120842111D01*
X129199732Y-121012271D01*
X129163800Y-121192911D01*
X129163800Y-121377089D01*
X129199732Y-121557729D01*
X129270214Y-121727889D01*
X129372538Y-121881028D01*
X129502772Y-122011262D01*
X129655911Y-122113586D01*
X129826071Y-122184068D01*
X130006711Y-122220000D01*
X130190889Y-122220000D01*
X130371529Y-122184068D01*
X130541689Y-122113586D01*
X130644335Y-122045000D01*
X134228999Y-122045000D01*
X134418800Y-122234802D01*
X134418800Y-123063897D01*
X134341958Y-123032068D01*
X134055060Y-122975000D01*
X133762540Y-122975000D01*
X133475642Y-123032068D01*
X133205389Y-123144010D01*
X132962168Y-123306525D01*
X132755325Y-123513368D01*
X132638800Y-123687760D01*
X132522275Y-123513368D01*
X132315432Y-123306525D01*
X132072211Y-123144010D01*
X131801958Y-123032068D01*
X131515060Y-122975000D01*
X131222540Y-122975000D01*
X130935642Y-123032068D01*
X130665389Y-123144010D01*
X130422168Y-123306525D01*
X130215325Y-123513368D01*
X130098800Y-123687760D01*
X129982275Y-123513368D01*
X129775432Y-123306525D01*
X129532211Y-123144010D01*
X129261958Y-123032068D01*
X128975060Y-122975000D01*
X128682540Y-122975000D01*
X128395642Y-123032068D01*
X128125389Y-123144010D01*
X127882168Y-123306525D01*
X127675325Y-123513368D01*
X127512810Y-123756589D01*
X127400868Y-124026842D01*
X127343800Y-124313740D01*
X125143800Y-124313740D01*
X125143800Y-119694801D01*
X125333602Y-119505000D01*
X132601478Y-119505000D01*
X132638800Y-119508676D01*
X132676122Y-119505000D01*
X132676133Y-119505000D01*
X132787786Y-119494003D01*
X132931047Y-119450546D01*
X133063076Y-119379974D01*
X133178801Y-119285001D01*
X133202603Y-119255998D01*
X133861004Y-118597598D01*
X133890001Y-118573801D01*
X133984974Y-118458076D01*
X134055546Y-118326047D01*
X134099003Y-118182786D01*
X134110000Y-118071133D01*
X134110000Y-118071125D01*
X134113676Y-118033800D01*
X134110000Y-117996475D01*
X134110000Y-112596538D01*
X134134277Y-112560205D01*
X134200990Y-112399145D01*
X134235000Y-112228165D01*
X134235000Y-112053835D01*
X134200990Y-111882855D01*
X134134277Y-111721795D01*
X134037424Y-111576845D01*
X133914155Y-111453576D01*
X133769205Y-111356723D01*
X133608145Y-111290010D01*
X133437165Y-111256000D01*
X133262835Y-111256000D01*
X133091855Y-111290010D01*
X132930795Y-111356723D01*
X132785845Y-111453576D01*
X132662576Y-111576845D01*
X132565723Y-111721795D01*
X132551661Y-111755743D01*
X132584000Y-111593165D01*
X132584000Y-111418835D01*
X132549990Y-111247855D01*
X132499102Y-111125000D01*
X132549990Y-111002145D01*
X132584000Y-110831165D01*
X132584000Y-110656835D01*
X132549990Y-110485855D01*
X132499102Y-110363000D01*
X132549990Y-110240145D01*
X132584000Y-110069165D01*
X132584000Y-109894835D01*
X132549990Y-109723855D01*
X132499102Y-109601000D01*
X132549990Y-109478145D01*
X132584000Y-109307165D01*
X132584000Y-109132835D01*
X132549990Y-108961855D01*
X132499102Y-108839000D01*
X132549990Y-108716145D01*
X132584000Y-108545165D01*
X132584000Y-108370835D01*
X132549990Y-108199855D01*
X132483277Y-108038795D01*
X132386424Y-107893845D01*
X132263155Y-107770576D01*
X132118205Y-107673723D01*
X131957145Y-107607010D01*
X131786165Y-107573000D01*
X131611835Y-107573000D01*
X131440855Y-107607010D01*
X131279795Y-107673723D01*
X131243462Y-107698000D01*
X126312538Y-107698000D01*
X126276205Y-107673723D01*
X126115145Y-107607010D01*
X125944165Y-107573000D01*
X125769835Y-107573000D01*
X125598855Y-107607010D01*
X125437795Y-107673723D01*
X125292845Y-107770576D01*
X125169576Y-107893845D01*
X125072723Y-108038795D01*
X125006010Y-108199855D01*
X124972000Y-108370835D01*
X124972000Y-108545165D01*
X125006010Y-108716145D01*
X125056898Y-108839000D01*
X125006010Y-108961855D01*
X124972000Y-109132835D01*
X124972000Y-109307165D01*
X125006010Y-109478145D01*
X125056898Y-109601000D01*
X125006010Y-109723855D01*
X124972000Y-109894835D01*
X124972000Y-110069165D01*
X125006010Y-110240145D01*
X125056898Y-110363000D01*
X125006010Y-110485855D01*
X124972000Y-110656835D01*
X124972000Y-110831165D01*
X124990004Y-110921678D01*
X124935999Y-110965999D01*
X124912201Y-110994997D01*
X123881011Y-112026187D01*
X123904600Y-111907599D01*
X123904600Y-111612401D01*
X123847010Y-111322875D01*
X123734042Y-111050147D01*
X123570039Y-110804698D01*
X123361302Y-110595961D01*
X123202719Y-110490000D01*
X123361302Y-110384039D01*
X123570039Y-110175302D01*
X123734042Y-109929853D01*
X123847010Y-109657125D01*
X123904600Y-109367599D01*
X123904600Y-109072401D01*
X123847010Y-108782875D01*
X123734042Y-108510147D01*
X123570039Y-108264698D01*
X123361302Y-108055961D01*
X123202719Y-107950000D01*
X123361302Y-107844039D01*
X123570039Y-107635302D01*
X123734042Y-107389853D01*
X123847010Y-107117125D01*
X123904600Y-106827599D01*
X123904600Y-106532401D01*
X123847010Y-106242875D01*
X123734042Y-105970147D01*
X123570039Y-105724698D01*
X123361302Y-105515961D01*
X123202719Y-105410000D01*
X123361302Y-105304039D01*
X123570039Y-105095302D01*
X123734042Y-104849853D01*
X123847010Y-104577125D01*
X123904600Y-104287599D01*
X123904600Y-103992401D01*
X123847010Y-103702875D01*
X123789071Y-103562999D01*
X124991460Y-103562999D01*
X125006010Y-103636145D01*
X125056898Y-103759000D01*
X125006010Y-103881855D01*
X124972000Y-104052835D01*
X124972000Y-104227165D01*
X125006010Y-104398145D01*
X125056898Y-104521000D01*
X125006010Y-104643855D01*
X124972000Y-104814835D01*
X124972000Y-104989165D01*
X125006010Y-105160145D01*
X125056898Y-105283000D01*
X125006010Y-105405855D01*
X124972000Y-105576835D01*
X124972000Y-105751165D01*
X125006010Y-105922145D01*
X125072723Y-106083205D01*
X125169576Y-106228155D01*
X125292845Y-106351424D01*
X125437795Y-106448277D01*
X125598855Y-106514990D01*
X125769835Y-106549000D01*
X125944165Y-106549000D01*
X126115145Y-106514990D01*
X126276205Y-106448277D01*
X126312538Y-106424000D01*
X131243462Y-106424000D01*
X131279795Y-106448277D01*
X131440855Y-106514990D01*
X131611835Y-106549000D01*
X131786165Y-106549000D01*
X131957145Y-106514990D01*
X132118205Y-106448277D01*
X132263155Y-106351424D01*
X132386424Y-106228155D01*
X132483277Y-106083205D01*
X132549990Y-105922145D01*
X132584000Y-105751165D01*
X132584000Y-105576835D01*
X132549990Y-105405855D01*
X132499102Y-105283000D01*
X132549990Y-105160145D01*
X132584000Y-104989165D01*
X132584000Y-104814835D01*
X132549990Y-104643855D01*
X132499102Y-104521000D01*
X132549990Y-104398145D01*
X132584000Y-104227165D01*
X132584000Y-104052835D01*
X132571949Y-103992250D01*
X135043185Y-106463487D01*
X135051710Y-106506345D01*
X135118423Y-106667405D01*
X135215276Y-106812355D01*
X135338545Y-106935624D01*
X135483495Y-107032477D01*
X135644555Y-107099190D01*
X135815535Y-107133200D01*
X135989865Y-107133200D01*
X136160845Y-107099190D01*
X136321905Y-107032477D01*
X136466855Y-106935624D01*
X136590124Y-106812355D01*
X136686977Y-106667405D01*
X136753690Y-106506345D01*
X136787700Y-106335365D01*
X136787700Y-106161035D01*
X136753690Y-105990055D01*
X136686977Y-105828995D01*
X136590124Y-105684045D01*
X136466855Y-105560776D01*
X136321905Y-105463923D01*
X136160845Y-105397210D01*
X136117987Y-105388685D01*
X133021303Y-102292002D01*
X132997500Y-102262998D01*
X132881775Y-102168025D01*
X132749746Y-102097453D01*
X132606485Y-102053996D01*
X132494832Y-102042999D01*
X132494821Y-102042999D01*
X132457499Y-102039323D01*
X132420177Y-102042999D01*
X123844577Y-102042999D01*
X123847010Y-102037125D01*
X123904600Y-101747599D01*
X123904600Y-101452401D01*
X123847010Y-101162875D01*
X123734042Y-100890147D01*
X123570039Y-100644698D01*
X123361302Y-100435961D01*
X123202719Y-100330000D01*
X123361302Y-100224039D01*
X123570039Y-100015302D01*
X123734042Y-99769853D01*
X123847010Y-99497125D01*
X123904600Y-99207599D01*
X123904600Y-98912401D01*
X123847010Y-98622875D01*
X123734042Y-98350147D01*
X123570039Y-98104698D01*
X123361302Y-97895961D01*
X123202719Y-97790000D01*
X123361302Y-97684039D01*
X123570039Y-97475302D01*
X123587723Y-97448835D01*
X124972000Y-97448835D01*
X124972000Y-97623165D01*
X125006010Y-97794145D01*
X125056898Y-97917000D01*
X125006010Y-98039855D01*
X124972000Y-98210835D01*
X124972000Y-98385165D01*
X125006010Y-98556145D01*
X125056898Y-98679000D01*
X125006010Y-98801855D01*
X124972000Y-98972835D01*
X124972000Y-99147165D01*
X125006010Y-99318145D01*
X125056898Y-99441000D01*
X125006010Y-99563855D01*
X124972000Y-99734835D01*
X124972000Y-99909165D01*
X125006010Y-100080145D01*
X125072723Y-100241205D01*
X125169576Y-100386155D01*
X125292845Y-100509424D01*
X125437795Y-100606277D01*
X125598855Y-100672990D01*
X125769835Y-100707000D01*
X125944165Y-100707000D01*
X126115145Y-100672990D01*
X126276205Y-100606277D01*
X126312538Y-100582000D01*
X131243462Y-100582000D01*
X131279795Y-100606277D01*
X131440855Y-100672990D01*
X131611835Y-100707000D01*
X131786165Y-100707000D01*
X131957145Y-100672990D01*
X132118205Y-100606277D01*
X132263155Y-100509424D01*
X132386424Y-100386155D01*
X132483277Y-100241205D01*
X132549990Y-100080145D01*
X132584000Y-99909165D01*
X132584000Y-99734835D01*
X132549990Y-99563855D01*
X132499102Y-99441000D01*
X132549990Y-99318145D01*
X132584000Y-99147165D01*
X132584000Y-98972835D01*
X132549990Y-98801855D01*
X132499102Y-98679000D01*
X132549990Y-98556145D01*
X132584000Y-98385165D01*
X132584000Y-98210835D01*
X132549990Y-98039855D01*
X132499102Y-97917000D01*
X132549990Y-97794145D01*
X132584000Y-97623165D01*
X132584000Y-97448835D01*
X132549990Y-97277855D01*
X132483277Y-97116795D01*
X132386424Y-96971845D01*
X132263155Y-96848576D01*
X132118205Y-96751723D01*
X131957145Y-96685010D01*
X131786165Y-96651000D01*
X131611835Y-96651000D01*
X131440855Y-96685010D01*
X131279795Y-96751723D01*
X131243462Y-96776000D01*
X126312538Y-96776000D01*
X126276205Y-96751723D01*
X126115145Y-96685010D01*
X125944165Y-96651000D01*
X125769835Y-96651000D01*
X125598855Y-96685010D01*
X125437795Y-96751723D01*
X125292845Y-96848576D01*
X125169576Y-96971845D01*
X125072723Y-97116795D01*
X125006010Y-97277855D01*
X124972000Y-97448835D01*
X123587723Y-97448835D01*
X123734042Y-97229853D01*
X123847010Y-96957125D01*
X123904600Y-96667599D01*
X123904600Y-96372401D01*
X123847010Y-96082875D01*
X123734042Y-95810147D01*
X123570039Y-95564698D01*
X123361302Y-95355961D01*
X123202719Y-95250000D01*
X123361302Y-95144039D01*
X123570039Y-94935302D01*
X123734042Y-94689853D01*
X123847010Y-94417125D01*
X123904600Y-94127599D01*
X123904600Y-93832401D01*
X123847010Y-93542875D01*
X123734042Y-93270147D01*
X123570039Y-93024698D01*
X123549176Y-93003835D01*
X124972000Y-93003835D01*
X124972000Y-93178165D01*
X125006010Y-93349145D01*
X125056898Y-93472000D01*
X125006010Y-93594855D01*
X124972000Y-93765835D01*
X124972000Y-93940165D01*
X125006010Y-94111145D01*
X125056898Y-94234000D01*
X125006010Y-94356855D01*
X124972000Y-94527835D01*
X124972000Y-94702165D01*
X125006010Y-94873145D01*
X125056898Y-94996000D01*
X125006010Y-95118855D01*
X124972000Y-95289835D01*
X124972000Y-95464165D01*
X125006010Y-95635145D01*
X125072723Y-95796205D01*
X125169576Y-95941155D01*
X125292845Y-96064424D01*
X125437795Y-96161277D01*
X125598855Y-96227990D01*
X125769835Y-96262000D01*
X125944165Y-96262000D01*
X126115145Y-96227990D01*
X126276205Y-96161277D01*
X126312538Y-96137000D01*
X131243462Y-96137000D01*
X131279795Y-96161277D01*
X131440855Y-96227990D01*
X131611835Y-96262000D01*
X131786165Y-96262000D01*
X131957145Y-96227990D01*
X132118205Y-96161277D01*
X132263155Y-96064424D01*
X132386424Y-95941155D01*
X132483277Y-95796205D01*
X132549990Y-95635145D01*
X132584000Y-95464165D01*
X132584000Y-95289835D01*
X132549990Y-95118855D01*
X132499102Y-94996000D01*
X132549990Y-94873145D01*
X132584000Y-94702165D01*
X132584000Y-94527835D01*
X132549990Y-94356855D01*
X132499102Y-94234000D01*
X132549990Y-94111145D01*
X132584000Y-93940165D01*
X132584000Y-93765835D01*
X132549990Y-93594855D01*
X132499102Y-93472000D01*
X132549990Y-93349145D01*
X132584000Y-93178165D01*
X132584000Y-93003835D01*
X132549990Y-92832855D01*
X132483277Y-92671795D01*
X132386424Y-92526845D01*
X132263155Y-92403576D01*
X132118205Y-92306723D01*
X131957145Y-92240010D01*
X131786165Y-92206000D01*
X131611835Y-92206000D01*
X131440855Y-92240010D01*
X131279795Y-92306723D01*
X131243462Y-92331000D01*
X126312538Y-92331000D01*
X126276205Y-92306723D01*
X126115145Y-92240010D01*
X125944165Y-92206000D01*
X125769835Y-92206000D01*
X125598855Y-92240010D01*
X125437795Y-92306723D01*
X125292845Y-92403576D01*
X125169576Y-92526845D01*
X125072723Y-92671795D01*
X125006010Y-92832855D01*
X124972000Y-93003835D01*
X123549176Y-93003835D01*
X123361302Y-92815961D01*
X123115853Y-92651958D01*
X122843125Y-92538990D01*
X122553599Y-92481400D01*
X122258401Y-92481400D01*
X121968875Y-92538990D01*
X121696147Y-92651958D01*
X121450698Y-92815961D01*
X121241961Y-93024698D01*
X121136000Y-93183281D01*
X121030039Y-93024698D01*
X120821302Y-92815961D01*
X120575853Y-92651958D01*
X120303125Y-92538990D01*
X120013599Y-92481400D01*
X119718401Y-92481400D01*
X119428875Y-92538990D01*
X119156147Y-92651958D01*
X118910698Y-92815961D01*
X118701961Y-93024698D01*
X118537958Y-93270147D01*
X118424990Y-93542875D01*
X118367400Y-93832401D01*
X109660000Y-93832401D01*
X109660000Y-50049872D01*
X130145000Y-50049872D01*
X130145000Y-50490128D01*
X130230890Y-50921925D01*
X130399369Y-51328669D01*
X130643962Y-51694729D01*
X130955271Y-52006038D01*
X131321331Y-52250631D01*
X131728075Y-52419110D01*
X132159872Y-52505000D01*
X132600128Y-52505000D01*
X133031925Y-52419110D01*
X133438669Y-52250631D01*
X133804729Y-52006038D01*
X134116038Y-51694729D01*
X134360631Y-51328669D01*
X134529110Y-50921925D01*
X134615000Y-50490128D01*
X134615000Y-50049872D01*
X134529110Y-49618075D01*
X134360631Y-49211331D01*
X134116038Y-48845271D01*
X133804729Y-48533962D01*
X133438669Y-48289369D01*
X133031925Y-48120890D01*
X132600128Y-48035000D01*
X132159872Y-48035000D01*
X131728075Y-48120890D01*
X131321331Y-48289369D01*
X130955271Y-48533962D01*
X130643962Y-48845271D01*
X130399369Y-49211331D01*
X130230890Y-49618075D01*
X130145000Y-50049872D01*
X109660000Y-50049872D01*
X109660000Y-43032279D01*
X109669580Y-42934576D01*
X109688580Y-42871644D01*
X109719445Y-42813595D01*
X109760989Y-42762657D01*
X109811644Y-42720752D01*
X109869471Y-42689485D01*
X109932272Y-42670044D01*
X110027835Y-42660000D01*
X174967721Y-42660000D01*
X175065424Y-42669580D01*
G36*
X122533000Y-119253000D02*
G01*
X122553000Y-119253000D01*
X122553000Y-119507000D01*
X122533000Y-119507000D01*
X122533000Y-121793000D01*
X122553000Y-121793000D01*
X122553000Y-122047000D01*
X122533000Y-122047000D01*
X122533000Y-124333000D01*
X122553000Y-124333000D01*
X122553000Y-124587000D01*
X122533000Y-124587000D01*
X122533000Y-124607000D01*
X122279000Y-124607000D01*
X122279000Y-124587000D01*
X122259000Y-124587000D01*
X122259000Y-124333000D01*
X122279000Y-124333000D01*
X122279000Y-122047000D01*
X122259000Y-122047000D01*
X122259000Y-121793000D01*
X122279000Y-121793000D01*
X122279000Y-119507000D01*
X122259000Y-119507000D01*
X122259000Y-119253000D01*
X122279000Y-119253000D01*
X122279000Y-119233000D01*
X122533000Y-119233000D01*
X122533000Y-119253000D01*
G37*
X122533000Y-119253000D02*
X122553000Y-119253000D01*
X122553000Y-119507000D01*
X122533000Y-119507000D01*
X122533000Y-121793000D01*
X122553000Y-121793000D01*
X122553000Y-122047000D01*
X122533000Y-122047000D01*
X122533000Y-124333000D01*
X122553000Y-124333000D01*
X122553000Y-124587000D01*
X122533000Y-124587000D01*
X122533000Y-124607000D01*
X122279000Y-124607000D01*
X122279000Y-124587000D01*
X122259000Y-124587000D01*
X122259000Y-124333000D01*
X122279000Y-124333000D01*
X122279000Y-122047000D01*
X122259000Y-122047000D01*
X122259000Y-121793000D01*
X122279000Y-121793000D01*
X122279000Y-119507000D01*
X122259000Y-119507000D01*
X122259000Y-119253000D01*
X122279000Y-119253000D01*
X122279000Y-119233000D01*
X122533000Y-119233000D01*
X122533000Y-119253000D01*
G36*
X132465000Y-112053835D02*
G01*
X132465000Y-112228165D01*
X132499010Y-112399145D01*
X132565723Y-112560205D01*
X132590001Y-112596539D01*
X132590000Y-117718998D01*
X132531702Y-117777296D01*
X132549990Y-117733145D01*
X132584000Y-117562165D01*
X132584000Y-117387835D01*
X132549990Y-117216855D01*
X132499102Y-117094000D01*
X132549990Y-116971145D01*
X132584000Y-116800165D01*
X132584000Y-116625835D01*
X132549990Y-116454855D01*
X132499102Y-116332000D01*
X132549990Y-116209145D01*
X132584000Y-116038165D01*
X132584000Y-115863835D01*
X132549990Y-115692855D01*
X132499102Y-115570000D01*
X132549990Y-115447145D01*
X132584000Y-115276165D01*
X132584000Y-115101835D01*
X132549990Y-114930855D01*
X132483277Y-114769795D01*
X132386424Y-114624845D01*
X132263155Y-114501576D01*
X132118205Y-114404723D01*
X131957145Y-114338010D01*
X131786165Y-114304000D01*
X131611835Y-114304000D01*
X131440855Y-114338010D01*
X131279795Y-114404723D01*
X131243462Y-114429000D01*
X126312538Y-114429000D01*
X126276205Y-114404723D01*
X126115145Y-114338010D01*
X125944165Y-114304000D01*
X125769835Y-114304000D01*
X125598855Y-114338010D01*
X125437795Y-114404723D01*
X125292845Y-114501576D01*
X125169576Y-114624845D01*
X125072723Y-114769795D01*
X125006010Y-114930855D01*
X124972000Y-115101835D01*
X124972000Y-115276165D01*
X125006010Y-115447145D01*
X125056898Y-115570000D01*
X125006010Y-115692855D01*
X124972000Y-115863835D01*
X124972000Y-116038165D01*
X125006010Y-116209145D01*
X125056898Y-116332000D01*
X125006010Y-116454855D01*
X124972000Y-116625835D01*
X124972000Y-116800165D01*
X125006010Y-116971145D01*
X125056898Y-117094000D01*
X125006010Y-117216855D01*
X124972000Y-117387835D01*
X124972000Y-117562165D01*
X125006010Y-117733145D01*
X125072723Y-117894205D01*
X125133391Y-117985000D01*
X125056133Y-117985000D01*
X125018800Y-117981323D01*
X124981467Y-117985000D01*
X124869814Y-117995997D01*
X124726553Y-118039454D01*
X124594524Y-118110026D01*
X124478799Y-118204999D01*
X124455000Y-118233998D01*
X123872798Y-118816201D01*
X123843800Y-118839999D01*
X123820003Y-118868996D01*
X123820001Y-118868998D01*
X123816249Y-118873570D01*
X123815222Y-118870186D01*
X123688684Y-118605056D01*
X123597254Y-118482677D01*
X124259804Y-117820128D01*
X124288801Y-117796331D01*
X124315132Y-117764247D01*
X124383774Y-117680607D01*
X124454346Y-117548577D01*
X124470962Y-117493799D01*
X124497803Y-117405316D01*
X124508800Y-117293663D01*
X124508800Y-117293654D01*
X124512476Y-117256331D01*
X124508800Y-117219008D01*
X124508800Y-113548001D01*
X125790802Y-112266000D01*
X131243462Y-112266000D01*
X131279795Y-112290277D01*
X131440855Y-112356990D01*
X131611835Y-112391000D01*
X131786165Y-112391000D01*
X131957145Y-112356990D01*
X132118205Y-112290277D01*
X132263155Y-112193424D01*
X132386424Y-112070155D01*
X132483277Y-111925205D01*
X132497339Y-111891257D01*
X132465000Y-112053835D01*
G37*
X132465000Y-112053835D02*
X132465000Y-112228165D01*
X132499010Y-112399145D01*
X132565723Y-112560205D01*
X132590001Y-112596539D01*
X132590000Y-117718998D01*
X132531702Y-117777296D01*
X132549990Y-117733145D01*
X132584000Y-117562165D01*
X132584000Y-117387835D01*
X132549990Y-117216855D01*
X132499102Y-117094000D01*
X132549990Y-116971145D01*
X132584000Y-116800165D01*
X132584000Y-116625835D01*
X132549990Y-116454855D01*
X132499102Y-116332000D01*
X132549990Y-116209145D01*
X132584000Y-116038165D01*
X132584000Y-115863835D01*
X132549990Y-115692855D01*
X132499102Y-115570000D01*
X132549990Y-115447145D01*
X132584000Y-115276165D01*
X132584000Y-115101835D01*
X132549990Y-114930855D01*
X132483277Y-114769795D01*
X132386424Y-114624845D01*
X132263155Y-114501576D01*
X132118205Y-114404723D01*
X131957145Y-114338010D01*
X131786165Y-114304000D01*
X131611835Y-114304000D01*
X131440855Y-114338010D01*
X131279795Y-114404723D01*
X131243462Y-114429000D01*
X126312538Y-114429000D01*
X126276205Y-114404723D01*
X126115145Y-114338010D01*
X125944165Y-114304000D01*
X125769835Y-114304000D01*
X125598855Y-114338010D01*
X125437795Y-114404723D01*
X125292845Y-114501576D01*
X125169576Y-114624845D01*
X125072723Y-114769795D01*
X125006010Y-114930855D01*
X124972000Y-115101835D01*
X124972000Y-115276165D01*
X125006010Y-115447145D01*
X125056898Y-115570000D01*
X125006010Y-115692855D01*
X124972000Y-115863835D01*
X124972000Y-116038165D01*
X125006010Y-116209145D01*
X125056898Y-116332000D01*
X125006010Y-116454855D01*
X124972000Y-116625835D01*
X124972000Y-116800165D01*
X125006010Y-116971145D01*
X125056898Y-117094000D01*
X125006010Y-117216855D01*
X124972000Y-117387835D01*
X124972000Y-117562165D01*
X125006010Y-117733145D01*
X125072723Y-117894205D01*
X125133391Y-117985000D01*
X125056133Y-117985000D01*
X125018800Y-117981323D01*
X124981467Y-117985000D01*
X124869814Y-117995997D01*
X124726553Y-118039454D01*
X124594524Y-118110026D01*
X124478799Y-118204999D01*
X124455000Y-118233998D01*
X123872798Y-118816201D01*
X123843800Y-118839999D01*
X123820003Y-118868996D01*
X123820001Y-118868998D01*
X123816249Y-118873570D01*
X123815222Y-118870186D01*
X123688684Y-118605056D01*
X123597254Y-118482677D01*
X124259804Y-117820128D01*
X124288801Y-117796331D01*
X124315132Y-117764247D01*
X124383774Y-117680607D01*
X124454346Y-117548577D01*
X124470962Y-117493799D01*
X124497803Y-117405316D01*
X124508800Y-117293663D01*
X124508800Y-117293654D01*
X124512476Y-117256331D01*
X124508800Y-117219008D01*
X124508800Y-113548001D01*
X125790802Y-112266000D01*
X131243462Y-112266000D01*
X131279795Y-112290277D01*
X131440855Y-112356990D01*
X131611835Y-112391000D01*
X131786165Y-112391000D01*
X131957145Y-112356990D01*
X132118205Y-112290277D01*
X132263155Y-112193424D01*
X132386424Y-112070155D01*
X132483277Y-111925205D01*
X132497339Y-111891257D01*
X132465000Y-112053835D01*
G36*
X122533000Y-114173000D02*
G01*
X122553000Y-114173000D01*
X122553000Y-114427000D01*
X122533000Y-114427000D01*
X122533000Y-116713000D01*
X122553000Y-116713000D01*
X122553000Y-116967000D01*
X122533000Y-116967000D01*
X122533000Y-116987000D01*
X122279000Y-116987000D01*
X122279000Y-116967000D01*
X122259000Y-116967000D01*
X122259000Y-116713000D01*
X122279000Y-116713000D01*
X122279000Y-114427000D01*
X122259000Y-114427000D01*
X122259000Y-114173000D01*
X122279000Y-114173000D01*
X122279000Y-114153000D01*
X122533000Y-114153000D01*
X122533000Y-114173000D01*
G37*
X122533000Y-114173000D02*
X122553000Y-114173000D01*
X122553000Y-114427000D01*
X122533000Y-114427000D01*
X122533000Y-116713000D01*
X122553000Y-116713000D01*
X122553000Y-116967000D01*
X122533000Y-116967000D01*
X122533000Y-116987000D01*
X122279000Y-116987000D01*
X122279000Y-116967000D01*
X122259000Y-116967000D01*
X122259000Y-116713000D01*
X122279000Y-116713000D01*
X122279000Y-114427000D01*
X122259000Y-114427000D01*
X122259000Y-114173000D01*
X122279000Y-114173000D01*
X122279000Y-114153000D01*
X122533000Y-114153000D01*
X122533000Y-114173000D01*
G36*
X162560000Y-119253000D02*
G01*
X162580000Y-119253000D01*
X162580000Y-119507000D01*
X162560000Y-119507000D01*
X162560000Y-119527000D01*
X162306000Y-119527000D01*
X162306000Y-119507000D01*
X162286000Y-119507000D01*
X162286000Y-119253000D01*
X162306000Y-119253000D01*
X162306000Y-119233000D01*
X162560000Y-119233000D01*
X162560000Y-119253000D01*
G37*
X162560000Y-119253000D02*
X162580000Y-119253000D01*
X162580000Y-119507000D01*
X162560000Y-119507000D01*
X162560000Y-119527000D01*
X162306000Y-119527000D01*
X162306000Y-119507000D01*
X162286000Y-119507000D01*
X162286000Y-119253000D01*
X162306000Y-119253000D01*
X162306000Y-119233000D01*
X162560000Y-119233000D01*
X162560000Y-119253000D01*
G36*
X161023778Y-103630186D02*
G01*
X160978042Y-103780974D01*
X161099183Y-104013000D01*
X162306000Y-104013000D01*
X162306000Y-103993000D01*
X162560000Y-103993000D01*
X162560000Y-104013000D01*
X162580000Y-104013000D01*
X162580000Y-104267000D01*
X162560000Y-104267000D01*
X162560000Y-106553000D01*
X162580000Y-106553000D01*
X162580000Y-106807000D01*
X162560000Y-106807000D01*
X162560000Y-109093000D01*
X162580000Y-109093000D01*
X162580000Y-109347000D01*
X162560000Y-109347000D01*
X162560000Y-111633000D01*
X162580000Y-111633000D01*
X162580000Y-111887000D01*
X162560000Y-111887000D01*
X162560000Y-114173000D01*
X162580000Y-114173000D01*
X162580000Y-114427000D01*
X162560000Y-114427000D01*
X162560000Y-116713000D01*
X162580000Y-116713000D01*
X162580000Y-116967000D01*
X162560000Y-116967000D01*
X162560000Y-116987000D01*
X162306000Y-116987000D01*
X162306000Y-116967000D01*
X162286000Y-116967000D01*
X162286000Y-116713000D01*
X162306000Y-116713000D01*
X162306000Y-114427000D01*
X162286000Y-114427000D01*
X162286000Y-114173000D01*
X162306000Y-114173000D01*
X162306000Y-111887000D01*
X162286000Y-111887000D01*
X162286000Y-111633000D01*
X162306000Y-111633000D01*
X162306000Y-109347000D01*
X161099183Y-109347000D01*
X160978042Y-109579026D01*
X161023778Y-109729814D01*
X161150316Y-109994944D01*
X161326146Y-110230293D01*
X161544512Y-110426817D01*
X161650770Y-110490000D01*
X161544512Y-110553183D01*
X161326146Y-110749707D01*
X161150316Y-110985056D01*
X161087168Y-111117367D01*
X160434904Y-110465103D01*
X160411102Y-110436100D01*
X160295377Y-110341127D01*
X160163348Y-110270555D01*
X160020087Y-110227098D01*
X159908434Y-110216101D01*
X159908423Y-110216101D01*
X159871101Y-110212425D01*
X159833779Y-110216101D01*
X156567540Y-110216101D01*
X156552990Y-110142955D01*
X156502102Y-110020100D01*
X156552990Y-109897245D01*
X156587000Y-109726265D01*
X156587000Y-109551935D01*
X156552990Y-109380955D01*
X156502102Y-109258100D01*
X156552990Y-109135245D01*
X156587000Y-108964265D01*
X156587000Y-108789935D01*
X156552990Y-108618955D01*
X156502102Y-108496100D01*
X156552990Y-108373245D01*
X156587000Y-108202265D01*
X156587000Y-108027935D01*
X156552990Y-107856955D01*
X156502102Y-107734100D01*
X156552990Y-107611245D01*
X156587000Y-107440265D01*
X156587000Y-107265935D01*
X156552990Y-107094955D01*
X156529824Y-107039026D01*
X160978042Y-107039026D01*
X161023778Y-107189814D01*
X161150316Y-107454944D01*
X161326146Y-107690293D01*
X161544512Y-107886817D01*
X161650770Y-107950000D01*
X161544512Y-108013183D01*
X161326146Y-108209707D01*
X161150316Y-108445056D01*
X161023778Y-108710186D01*
X160978042Y-108860974D01*
X161099183Y-109093000D01*
X162306000Y-109093000D01*
X162306000Y-106807000D01*
X161099183Y-106807000D01*
X160978042Y-107039026D01*
X156529824Y-107039026D01*
X156502102Y-106972100D01*
X156552990Y-106849245D01*
X156587000Y-106678265D01*
X156587000Y-106503935D01*
X156552990Y-106332955D01*
X156502102Y-106210100D01*
X156552990Y-106087245D01*
X156587000Y-105916265D01*
X156587000Y-105741935D01*
X156552990Y-105570955D01*
X156502102Y-105448100D01*
X156552990Y-105325245D01*
X156587000Y-105154265D01*
X156587000Y-104979935D01*
X156552990Y-104808955D01*
X156486277Y-104647895D01*
X156389424Y-104502945D01*
X156385505Y-104499026D01*
X160978042Y-104499026D01*
X161023778Y-104649814D01*
X161150316Y-104914944D01*
X161326146Y-105150293D01*
X161544512Y-105346817D01*
X161650770Y-105410000D01*
X161544512Y-105473183D01*
X161326146Y-105669707D01*
X161150316Y-105905056D01*
X161023778Y-106170186D01*
X160978042Y-106320974D01*
X161099183Y-106553000D01*
X162306000Y-106553000D01*
X162306000Y-104267000D01*
X161099183Y-104267000D01*
X160978042Y-104499026D01*
X156385505Y-104499026D01*
X156266155Y-104379676D01*
X156121205Y-104282823D01*
X155960145Y-104216110D01*
X155789165Y-104182100D01*
X155614835Y-104182100D01*
X155443855Y-104216110D01*
X155282795Y-104282823D01*
X155246462Y-104307100D01*
X154478000Y-104307100D01*
X154478000Y-104301911D01*
X154469280Y-104258072D01*
X154843000Y-104258072D01*
X154867450Y-104255664D01*
X154892009Y-104255664D01*
X155016490Y-104243404D01*
X155112623Y-104224282D01*
X155232319Y-104187973D01*
X155322875Y-104150464D01*
X155433192Y-104091498D01*
X155514691Y-104037042D01*
X155611382Y-103957690D01*
X155680690Y-103888382D01*
X155760042Y-103791691D01*
X155814498Y-103710192D01*
X155857362Y-103630000D01*
X161023867Y-103630000D01*
X161023778Y-103630186D01*
G37*
X161023778Y-103630186D02*
X160978042Y-103780974D01*
X161099183Y-104013000D01*
X162306000Y-104013000D01*
X162306000Y-103993000D01*
X162560000Y-103993000D01*
X162560000Y-104013000D01*
X162580000Y-104013000D01*
X162580000Y-104267000D01*
X162560000Y-104267000D01*
X162560000Y-106553000D01*
X162580000Y-106553000D01*
X162580000Y-106807000D01*
X162560000Y-106807000D01*
X162560000Y-109093000D01*
X162580000Y-109093000D01*
X162580000Y-109347000D01*
X162560000Y-109347000D01*
X162560000Y-111633000D01*
X162580000Y-111633000D01*
X162580000Y-111887000D01*
X162560000Y-111887000D01*
X162560000Y-114173000D01*
X162580000Y-114173000D01*
X162580000Y-114427000D01*
X162560000Y-114427000D01*
X162560000Y-116713000D01*
X162580000Y-116713000D01*
X162580000Y-116967000D01*
X162560000Y-116967000D01*
X162560000Y-116987000D01*
X162306000Y-116987000D01*
X162306000Y-116967000D01*
X162286000Y-116967000D01*
X162286000Y-116713000D01*
X162306000Y-116713000D01*
X162306000Y-114427000D01*
X162286000Y-114427000D01*
X162286000Y-114173000D01*
X162306000Y-114173000D01*
X162306000Y-111887000D01*
X162286000Y-111887000D01*
X162286000Y-111633000D01*
X162306000Y-111633000D01*
X162306000Y-109347000D01*
X161099183Y-109347000D01*
X160978042Y-109579026D01*
X161023778Y-109729814D01*
X161150316Y-109994944D01*
X161326146Y-110230293D01*
X161544512Y-110426817D01*
X161650770Y-110490000D01*
X161544512Y-110553183D01*
X161326146Y-110749707D01*
X161150316Y-110985056D01*
X161087168Y-111117367D01*
X160434904Y-110465103D01*
X160411102Y-110436100D01*
X160295377Y-110341127D01*
X160163348Y-110270555D01*
X160020087Y-110227098D01*
X159908434Y-110216101D01*
X159908423Y-110216101D01*
X159871101Y-110212425D01*
X159833779Y-110216101D01*
X156567540Y-110216101D01*
X156552990Y-110142955D01*
X156502102Y-110020100D01*
X156552990Y-109897245D01*
X156587000Y-109726265D01*
X156587000Y-109551935D01*
X156552990Y-109380955D01*
X156502102Y-109258100D01*
X156552990Y-109135245D01*
X156587000Y-108964265D01*
X156587000Y-108789935D01*
X156552990Y-108618955D01*
X156502102Y-108496100D01*
X156552990Y-108373245D01*
X156587000Y-108202265D01*
X156587000Y-108027935D01*
X156552990Y-107856955D01*
X156502102Y-107734100D01*
X156552990Y-107611245D01*
X156587000Y-107440265D01*
X156587000Y-107265935D01*
X156552990Y-107094955D01*
X156529824Y-107039026D01*
X160978042Y-107039026D01*
X161023778Y-107189814D01*
X161150316Y-107454944D01*
X161326146Y-107690293D01*
X161544512Y-107886817D01*
X161650770Y-107950000D01*
X161544512Y-108013183D01*
X161326146Y-108209707D01*
X161150316Y-108445056D01*
X161023778Y-108710186D01*
X160978042Y-108860974D01*
X161099183Y-109093000D01*
X162306000Y-109093000D01*
X162306000Y-106807000D01*
X161099183Y-106807000D01*
X160978042Y-107039026D01*
X156529824Y-107039026D01*
X156502102Y-106972100D01*
X156552990Y-106849245D01*
X156587000Y-106678265D01*
X156587000Y-106503935D01*
X156552990Y-106332955D01*
X156502102Y-106210100D01*
X156552990Y-106087245D01*
X156587000Y-105916265D01*
X156587000Y-105741935D01*
X156552990Y-105570955D01*
X156502102Y-105448100D01*
X156552990Y-105325245D01*
X156587000Y-105154265D01*
X156587000Y-104979935D01*
X156552990Y-104808955D01*
X156486277Y-104647895D01*
X156389424Y-104502945D01*
X156385505Y-104499026D01*
X160978042Y-104499026D01*
X161023778Y-104649814D01*
X161150316Y-104914944D01*
X161326146Y-105150293D01*
X161544512Y-105346817D01*
X161650770Y-105410000D01*
X161544512Y-105473183D01*
X161326146Y-105669707D01*
X161150316Y-105905056D01*
X161023778Y-106170186D01*
X160978042Y-106320974D01*
X161099183Y-106553000D01*
X162306000Y-106553000D01*
X162306000Y-104267000D01*
X161099183Y-104267000D01*
X160978042Y-104499026D01*
X156385505Y-104499026D01*
X156266155Y-104379676D01*
X156121205Y-104282823D01*
X155960145Y-104216110D01*
X155789165Y-104182100D01*
X155614835Y-104182100D01*
X155443855Y-104216110D01*
X155282795Y-104282823D01*
X155246462Y-104307100D01*
X154478000Y-104307100D01*
X154478000Y-104301911D01*
X154469280Y-104258072D01*
X154843000Y-104258072D01*
X154867450Y-104255664D01*
X154892009Y-104255664D01*
X155016490Y-104243404D01*
X155112623Y-104224282D01*
X155232319Y-104187973D01*
X155322875Y-104150464D01*
X155433192Y-104091498D01*
X155514691Y-104037042D01*
X155611382Y-103957690D01*
X155680690Y-103888382D01*
X155760042Y-103791691D01*
X155814498Y-103710192D01*
X155857362Y-103630000D01*
X161023867Y-103630000D01*
X161023778Y-103630186D01*
M02*
