M48
; DRILL file {KiCad (5.1.5)-3} date 01/11/2020 13:08:22
; FORMAT={-:-/ absolute / metric / decimal}
; #@! TF.CreationDate,2020-11-01T13:08:22+00:00
; #@! TF.GenerationSoftware,Kicad,Pcbnew,(5.1.5)-3
FMAT,2
METRIC
T1C0.300
T2C0.400
T3C1.000
T4C1.016
T5C1.520
T6C0.991
T7C2.540
T8C3.200
T9C4.000
%
G90
G05
T1
X125.832Y-106.985
X125.835Y-113.284
X125.844Y-101.359
X125.857Y-93.091
X125.857Y-93.853
X125.857Y-94.615
X125.857Y-95.377
X125.857Y-96.444
X125.857Y-97.536
X125.857Y-98.298
X125.857Y-99.06
X125.857Y-99.822
X125.857Y-103.378
X125.857Y-104.14
X125.857Y-104.902
X125.857Y-105.664
X125.857Y-108.458
X125.857Y-109.22
X125.857Y-109.982
X125.857Y-110.744
X125.857Y-115.189
X125.857Y-115.951
X125.857Y-116.713
X125.857Y-117.475
X131.699Y-93.091
X131.699Y-93.853
X131.699Y-94.615
X131.699Y-95.377
X131.699Y-97.536
X131.699Y-98.298
X131.699Y-99.06
X131.699Y-99.822
X131.699Y-103.378
X131.699Y-104.14
X131.699Y-104.902
X131.699Y-105.664
X131.699Y-108.458
X131.699Y-109.22
X131.699Y-109.982
X131.699Y-110.744
X131.699Y-111.506
X131.699Y-115.189
X131.699Y-115.951
X131.699Y-116.713
X131.699Y-117.475
X133.35Y-112.141
X135.903Y-106.248
X140.208Y-120.802
X141.097Y-118.618
X142.088Y-102.565
X142.9Y-106.87
X142.926Y-101.549
X144.653Y-110.592
X144.653Y-111.354
X144.78Y-102.616
X147.472Y-113.614
X147.828Y-110.922
X148.59Y-122.428
X149.301Y-116.548
X149.301Y-117.31
X149.301Y-118.072
X149.301Y-118.834
X149.352Y-105.067
X149.352Y-105.829
X149.352Y-106.591
X149.352Y-107.353
X149.352Y-108.115
X149.352Y-108.877
X149.352Y-109.639
X149.352Y-110.401
X149.352Y-112.103
X149.352Y-112.865
X149.352Y-113.627
X149.352Y-114.389
X155.702Y-105.067
X155.702Y-105.829
X155.702Y-106.591
X155.702Y-107.353
X155.702Y-108.115
X155.702Y-108.877
X155.702Y-109.639
X155.702Y-110.401
X155.702Y-112.103
X155.702Y-112.865
X155.702Y-113.627
X155.702Y-114.389
X155.702Y-116.548
X155.702Y-117.31
X155.702Y-118.072
X155.702Y-118.834
X157.48Y-113.614
X158.115Y-116.84
T2
X130.099Y-121.285
X149.276Y-128.27
X153.543Y-104.394
T3
X128.829Y-124.46
X128.829Y-127.0
X131.369Y-124.46
X131.369Y-127.0
X133.909Y-124.46
X133.909Y-127.0
X136.449Y-124.46
X136.449Y-127.0
X138.989Y-124.46
X138.989Y-127.0
T4
X162.433Y-73.66
X162.433Y-76.2
X162.433Y-78.74
X162.433Y-81.28
X162.433Y-83.82
X162.433Y-86.36
X162.433Y-88.9
X162.433Y-91.44
X162.433Y-93.98
X162.433Y-96.52
X162.433Y-99.06
X162.433Y-101.6
X162.433Y-104.14
X162.433Y-106.68
X162.433Y-109.22
X162.433Y-111.76
X162.433Y-114.3
X162.433Y-116.84
X162.433Y-119.38
X162.433Y-121.92
X162.433Y-124.46
X162.433Y-127.0
X162.433Y-129.54
X162.433Y-132.08
X162.433Y-134.62
X164.973Y-73.66
X164.973Y-76.2
X164.973Y-78.74
X164.973Y-81.28
X164.973Y-83.82
X164.973Y-86.36
X164.973Y-88.9
X164.973Y-91.44
X164.973Y-93.98
X164.973Y-96.52
X164.973Y-99.06
X164.973Y-101.6
X164.973Y-104.14
X164.973Y-106.68
X164.973Y-109.22
X164.973Y-111.76
X164.973Y-114.3
X164.973Y-116.84
X164.973Y-119.38
X164.973Y-121.92
X164.973Y-124.46
X164.973Y-127.0
X164.973Y-129.54
X164.973Y-132.08
X164.973Y-134.62
X119.866Y-93.98
X119.866Y-96.52
X119.866Y-99.06
X119.866Y-101.6
X119.866Y-104.14
X119.866Y-106.68
X119.866Y-109.22
X119.866Y-111.76
X119.866Y-114.3
X119.866Y-116.84
X119.866Y-119.38
X119.866Y-121.92
X119.866Y-124.46
X119.866Y-127.0
X119.866Y-129.54
X119.866Y-132.08
X119.866Y-134.62
X122.406Y-93.98
X122.406Y-96.52
X122.406Y-99.06
X122.406Y-101.6
X122.406Y-104.14
X122.406Y-106.68
X122.406Y-109.22
X122.406Y-111.76
X122.406Y-114.3
X122.406Y-116.84
X122.406Y-119.38
X122.406Y-121.92
X122.406Y-124.46
X122.406Y-127.0
X122.406Y-129.54
X122.406Y-132.08
X122.406Y-134.62
T5
X163.144Y-48.895
X163.144Y-53.975
X163.144Y-59.055
X163.144Y-64.135
T6
X144.196Y-126.365
X151.816Y-125.349
X151.816Y-127.381
T7
X165.684Y-46.355
X165.684Y-66.675
T8
X132.38Y-133.68
X132.38Y-50.27
T9
X173.304Y-51.435
X173.304Y-61.595
T0
M30
